<?xml version="1.0" encoding="UTF-8" standalone="no"?>
<!-- Uploaded to: SVG Repo, www.svgrepo.com, Generator: SVG Repo Mixer Tools -->

<svg
   width="800px"
   height="800px"
   viewBox="0 0 512 512"
   version="1.1"
   id="svg1"
   sodipodi:docname="grabber.svg"
   xml:space="preserve"
   inkscape:version="1.3.2 (091e20e, 2023-11-25, custom)"
   xmlns:inkscape="http://www.inkscape.org/namespaces/inkscape"
   xmlns:sodipodi="http://sodipodi.sourceforge.net/DTD/sodipodi-0.dtd"
   xmlns="http://www.w3.org/2000/svg"
   xmlns:svg="http://www.w3.org/2000/svg"><defs
     id="defs1" /><sodipodi:namedview
     id="namedview1"
     pagecolor="#ffffff"
     bordercolor="#000000"
     borderopacity="0.25"
     inkscape:showpageshadow="2"
     inkscape:pageopacity="0.0"
     inkscape:pagecheckerboard="0"
     inkscape:deskcolor="#d1d1d1"
     inkscape:zoom="1.42"
     inkscape:cx="518.30986"
     inkscape:cy="421.47887"
     inkscape:window-width="3840"
     inkscape:window-height="2066"
     inkscape:window-x="-11"
     inkscape:window-y="-11"
     inkscape:window-maximized="1"
     inkscape:current-layer="svg1" /><g
     id="g64-6-2"
     inkscape:label="grabber"
     transform="matrix(-0.63323619,-1.637659,1.637659,-0.63323619,-260.73271,648.03203)"
     style="display:inline"><path
       style="display:inline;opacity:1;fill:#ffffff;fill-opacity:1;stroke:#000000;stroke-width:1.20208;stroke-dasharray:none;stroke-opacity:1"
       d="m 171.15233,114.96899 -2.08856,8.70989 -5.23263,6.35722 -5.91331,7.11282 -6.22998,6.343 -7.03498,5.92444 -4.5618,3.68008 -3.40399,1.1022 -1.88415,-0.62399 0.33809,-1.63978 4.20313,-2.75705 0.84791,-4.40063 4.99292,-3.65764 0.0268,-3.012 4.13065,-3.7025 0.70213,-3.1652 4.58775,-3.56572 0.27098,-3.18763 3.50185,-2.71818 0.47851,-2.27283 4.88384,-3.51264 2.30148,-1.12329 3.07521,-0.16437 z"
       id="path160"
       sodipodi:nodetypes="cccccccccccccccccccccccc"
       transform="rotate(111.14007,79.853241,166.07598)" /><path
       style="display:inline;opacity:1;fill:#ffffff;fill-opacity:1;stroke:#000000;stroke-width:1.24735;stroke-dasharray:none;stroke-opacity:1"
       d="m 137.95505,154.47002 7.17145,2.21015 5.23666,-2.64339 6.37322,-6.20899 8.71718,-10.57773 7.91367,-11.057 3.90873,-6.04685 0.35418,-2.72656 -2.70343,-1.50368 -3.38222,-0.82049 -6.34572,11.23059 -10.37499,13.07078 -7.80582,7.85707 -5.72299,5.39994 z"
       id="path161"
       transform="rotate(111.14007,79.853241,166.07598)" /><path
       style="opacity:1;fill:#000000;fill-opacity:1;stroke:#ffffff;stroke-width:1.28075;stroke-opacity:1"
       d="m 270.03622,47.38833 -18.02817,7.211267 0.69003,4.342115 2.17382,5.289622 3.16117,3.854255 19.21442,-8.463858 z"
       id="path65"
       sodipodi:nodetypes="ccccccc"
       transform="rotate(111.14007,79.853241,166.07598)" /><path
       style="display:inline;opacity:1;fill:#ffffff;stroke:#000000;stroke-width:1.28494"
       d="m 224.23403,78.594207 -5.02214,-14.164985 31.5493,-11.975858 5.1509,14.164991 z"
       id="path66"
       transform="rotate(111.14007,79.853241,166.07598)" /><path
       style="display:inline;opacity:1;fill:#ffffff;stroke:#000000;stroke-width:1.28494"
       d="m 224.40776,78.287076 3.65726,6.327264 31.29175,-12.930915 -2.61541,-5.987972 z"
       id="path67"
       sodipodi:nodetypes="ccccc"
       transform="rotate(111.14007,79.853241,166.07598)" /><path
       style="opacity:1;fill:#000000;fill-opacity:1;stroke:#000000;stroke-width:1.28494;stroke-opacity:1"
       d="m 223.70147,77.430171 -19.36628,24.580359 5.26184,7.9651 18.63741,-25.226496 z"
       id="path74"
       sodipodi:nodetypes="ccccc"
       transform="rotate(111.14007,79.853241,166.07598)" /><path
       style="display:inline;opacity:1;fill:#000000;fill-opacity:1;stroke:#000000;stroke-width:1.28494"
       d="m 219.42494,64.815539 -24.67985,-5.150908 -2.57545,1.030181 -1.28772,2.189135 1.15895,2.704225 3.47686,7.340039 3.73441,10.044268 2.06036,16.096576 1.67404,2.060375 2.06036,0.25754 18.68371,-24.265438 z"
       id="path75"
       sodipodi:nodetypes="cccccccccccc"
       transform="rotate(111.14007,79.853241,166.07598)" /><path
       style="display:inline;opacity:1;fill:#ffffff;stroke:#000000;stroke-width:1.28494"
       d="m 191.65455,64.815539 -10.8169,-1.931592 -19.44467,10.301812 -3.47686,-2.575456 23.0503,-11.074444 10.68421,2.171566 z"
       id="path76"
       sodipodi:nodetypes="ccccccc"
       transform="rotate(111.14007,79.853241,166.07598)" /><path
       style="display:inline;opacity:1;fill:#ffffff;stroke:#000000;stroke-width:1.28494"
       d="m 163.75154,130.96169 7.75002,-11.9339 21.0544,-6.82392 9.01408,-11.46076 3.09055,0.64386 -9.9155,13.52112 -20.79762,6.18187 -6.74086,10.82511 z"
       id="path77"
       sodipodi:nodetypes="ccccccccc"
       transform="rotate(111.14007,79.853241,166.07598)" /><path
       style="opacity:1;fill:#ffffff;stroke:#000000;stroke-width:1.28494"
       d="m 160.74912,73.314527 19.31589,-10.43058 11.71831,2.06036 3.06449,7.614756 -12.14531,-2.437815 -19.89302,5.639961 z"
       id="path78"
       sodipodi:nodetypes="ccccccc"
       transform="rotate(111.14007,79.853241,166.07598)" /><path
       style="opacity:1;fill:#ffffff;stroke:#000000;stroke-width:1.28494"
       d="m 179.93624,63.270265 1.80282,3.219315 v 0 l 1.65161,3.716129"
       id="path79"
       sodipodi:nodetypes="cccc"
       transform="rotate(111.14007,79.853241,166.07598)" /><path
       style="display:inline;opacity:1;fill:#ffffff;stroke:#000000;stroke-width:1.28494"
       d="m 167.44607,132.09491 6.50889,-11.09054 20.14627,-6.22504 10.17304,-13.13481 5.47892,8.25712 -9.50053,12.44561 -21.6808,5.3631 -6.68631,6.12254 z"
       id="path80"
       sodipodi:nodetypes="ccccccccc"
       transform="rotate(111.14007,79.853241,166.07598)" /><path
       style="display:inline;opacity:1;fill:#000000;fill-opacity:1;stroke:#000000;stroke-width:1.28494;stroke-opacity:1"
       d="m 173.02061,127.37369 4.20258,-1.37351 2.833,-2.06036 3.86318,-2.833 3.99195,-0.90141 -3.47686,3.09054 -5.66599,3.21932 -5.15091,2.833 -1.67405,0.38631 z"
       id="path81"
       sodipodi:nodetypes="cccccccccc"
       transform="rotate(111.14007,79.853241,166.07598)" /><path
       style="display:inline;opacity:1;fill:#ffffff;fill-opacity:1;stroke:#000000;stroke-width:1.1278;stroke-dasharray:none;stroke-opacity:1"
       d="m 156.75265,76.773098 -7.12182,0.730074 -0.43525,-2.099007 -4.20549,1.570601 -2.29378,-1.904433 -4.66828,0.628072 -1.86222,-1.740578 -5.00987,0.865107 -1.34249,-2.143376 -5.5149,1.173479 -1.06954,-0.983893 -5.5097,-0.226192 2.94298,-2.837748 7.70029,-1.51066 10.82597,-0.05718 11.36224,0.413134 6.1283,0.759774 4.36945,1.221497 z"
       id="path162"
       sodipodi:nodetypes="ccccccccccccccccccc"
       transform="rotate(111.14007,79.853241,166.07598)" /><path
       style="display:inline;opacity:1;fill:#ffffff;fill-opacity:1;stroke:#000000;stroke-width:1.1278;stroke-dasharray:none;stroke-opacity:1"
       d="m 117.78458,73.613653 4.91442,3.666287 4.67555,-0.900117 2.61342,2.033881 4.26612,-0.980817 1.86219,1.740586 4.50485,-0.556802 1.74284,1.528561 5.08515,-0.369769 1.90628,1.457252 3.13187,-0.67117 2.29675,1.031912 5.9621,0.226862 -3.51837,-6.066497 -6.29923,1.875549 -1.48678,-2.257722 -4.30293,1.626231 -2.35463,-1.825003 -4.93433,0.691242 -2.04034,-1.574825 -4.66829,0.237819 -1.19374,-1.730001 -4.65657,1.454918 -2.05723,-1.245931 z"
       id="path163"
       sodipodi:nodetypes="ccccccccccccccccccccccccc"
       transform="rotate(111.14007,79.853241,166.07598)" /><path
       style="display:inline;opacity:1;fill:#ffffff;fill-opacity:1;stroke:#000000;stroke-width:1.1278;stroke-dasharray:none;stroke-opacity:1"
       d="m 124.46198,73.781729 4.82631,4.232949"
       id="path164"
       transform="rotate(111.14007,79.853241,166.07598)" /><path
       style="display:inline;opacity:1;fill:#ffffff;fill-opacity:1;stroke:#000000;stroke-width:1.1278;stroke-dasharray:none;stroke-opacity:1"
       d="m 131.18529,74.63406 5.09443,4.468103"
       id="path165"
       transform="rotate(111.14007,79.853241,166.07598)" /><path
       style="display:inline;opacity:1;fill:#ffffff;fill-opacity:1;stroke:#000000;stroke-width:1.1278;stroke-dasharray:none;stroke-opacity:1"
       d="m 137.75987,75.463248 5.2285,4.58568"
       id="path166"
       transform="rotate(111.14007,79.853241,166.07598)" /><path
       style="opacity:1;fill:#ffffff;stroke:#000000;stroke-width:1.02856"
       d="m 145.19007,77.017699 2.42101,3.027498"
       id="path39"
       transform="rotate(111.14007,79.853241,166.07598)" /><path
       style="opacity:1;fill:#ffffff;stroke:#000000;stroke-width:1.32992"
       d="m 157.55366,75.963401 4.14278,5.336629 5.13218,-6.530941 -5.9808,-4.37412 z"
       id="path87"
       sodipodi:nodetypes="ccccc"
       transform="rotate(111.14007,79.853241,166.07598)" /><path
       style="opacity:1;fill:#ffffff;stroke:#000000;stroke-width:1.33427"
       d="m 151.00223,77.499438 1.88637,3.203047"
       id="path91"
       transform="rotate(111.14007,79.853241,166.07598)" /><path
       style="display:inline;opacity:1;fill:#000000;stroke:#ffffff;stroke-width:1.46205;stroke-dasharray:none;stroke-opacity:1"
       d="m 109.69204,553.70456 -2.6139,-89.00083 21.07233,-0.0178 1.03599,56.85473 v 0"
       id="path4-1-2"
       sodipodi:nodetypes="ccccc" /><path
       style="display:inline;opacity:1;fill:#ffffff;stroke:#000000;stroke-width:1.17729;stroke-dasharray:none;stroke-opacity:1"
       d="m 106.5157,481.87957 14.82661,5.58652 c 0,0 8.23931,3.12474 6.32651,0.7353 -1.26569,-1.58108 -5.85837,-2.97529 -5.85837,-2.97529 l -14.84817,-5.20161 c 0,0 -2.47084,-0.10287 -0.44659,1.85511 z"
       id="path5-0-6"
       sodipodi:nodetypes="ccsccc" /><path
       style="display:inline;fill:#ffffff;stroke:#000000;stroke-width:1.16706;stroke-dasharray:none;stroke-opacity:1"
       d="m 107.51067,490.55022 15.35469,-2.70588 c 0,0 8.54321,-1.48631 5.70147,-2.56897 -1.88036,-0.71639 -6.46315,0.4103 -6.46315,0.4103 l -15.17427,3.04703 c 0,0 -2.13166,1.16145 0.58127,1.81755 z"
       id="path5-5-6-8"
       sodipodi:nodetypes="ccsccc" /><path
       style="display:inline;fill:#ffffff;stroke:#000000;stroke-width:1.16706;stroke-dasharray:none;stroke-opacity:1"
       d="m 107.27864,494.90086 15.47142,-1.92965 c 0,0 8.60718,-1.05444 5.82354,-2.27875 -1.84192,-0.81013 -6.47561,0.0845 -6.47561,0.0845 l -15.3084,2.27945 c 0,0 -2.18741,1.05269 0.48906,1.8445 z"
       id="path5-5-2-5-7"
       sodipodi:nodetypes="ccsccc" /><path
       style="display:inline;fill:#ffffff;stroke:#000000;stroke-width:1.16706;stroke-dasharray:none;stroke-opacity:1"
       d="m 107.86835,499.14601 15.4996,-1.68837 c 0,0 8.62257,-0.92022 5.85834,-2.18775 -1.82908,-0.83872 -6.47614,-0.0164 -6.47614,-0.0164 l -15.34206,2.04067 c 0,0 -2.20354,1.01848 0.46026,1.85189 z"
       id="path5-5-3-6-5"
       sodipodi:nodetypes="ccsccc" /><path
       style="display:inline;fill:#ffffff;stroke:#000000;stroke-width:1.16706;stroke-dasharray:none;stroke-opacity:1"
       d="m 107.62092,500.92491 15.53597,1.31223 c 0,0 8.63915,0.74869 6.16894,-1.02492 -1.63452,-1.17359 -6.35304,-1.25678 -6.35304,-1.25678 l -15.44883,-0.93627 c 0,0 -2.35786,0.57748 0.0969,1.90577 z"
       id="path5-5-28-2-2"
       sodipodi:nodetypes="ccsccc" /><path
       style="display:inline;opacity:1;fill:#ffffff;stroke:#000000;stroke-width:1.28;stroke-dasharray:none;stroke-opacity:1"
       d="m 106.66667,463.52787 -4.54645,-6.29508 28.88743,0.20983 -4.26666,6.29508 z"
       id="path6-5-9" /><path
       style="display:inline;opacity:1;fill:#ffffff;stroke:#000000;stroke-width:1.28;stroke-dasharray:none;stroke-opacity:1"
       d="m 100.65137,457.02295 -0.20984,-9.51257 31.6153,0.20984 0.13989,9.58251 z"
       id="path7-4-6" /><path
       style="display:inline;opacity:1;fill:#ffffff;stroke:#000000;stroke-width:1.28;stroke-dasharray:none;stroke-opacity:1"
       d="m 132.75628,446.88088 8.81312,-6.85465 5.38579,-9.30274 -17.76612,-1.60874 h -22.10273 l -20.284151,2.3082 3.98688,9.23279 9.232791,6.43497 z"
       id="path8-7-3" /><path
       style="display:inline;opacity:1;fill:#ffffff;stroke:#000000;stroke-width:1.28;stroke-dasharray:none;stroke-opacity:1"
       d="m 85.19344,423.72896 8.533338,-1.18907 7.344262,-0.20984 15.31803,-0.7694 17.48634,0.34973 13.982,1.15842 -0.31215,7.30883 -5.90591,-0.004 -14.68853,-1.39891 -12.93989,-0.20983 -13.00984,1.25901 -14.338792,1.11913 z"
       id="path18-2-8"
       sodipodi:nodetypes="ccccccccccccc" /><path
       style="opacity:1;fill:#000000;fill-opacity:1;stroke:#000000;stroke-width:1.28;stroke-dasharray:none;stroke-opacity:1"
       d="m 101.82826,421.77982 -0.50096,-18.4133 1.70702,-3.30551 4.25655,-4.40172 3.65565,-2.02674 9.42243,-0.22787 4.83384,1.5416 3.81262,2.47237 2.70482,3.99711 0.43024,19.82954 -25.42146,0.0231 z"
       id="path72-8"
       sodipodi:nodetypes="cccccccccccc" /><path
       style="opacity:1;fill:none;fill-opacity:1;stroke:#ffffff;stroke-width:1.3047;stroke-dasharray:none;stroke-opacity:1"
       d="m 100.6342,404.32974 5.67196,-1.92843 9.03545,-1.58069 6.46376,-0.15072 6.01795,0.9471 4.15888,0.85729 1.41398,0.93403"
       id="path73-7" /><path
       style="fill:none;fill-opacity:1;stroke:#ffffff;stroke-width:1.30165;stroke-dasharray:none;stroke-opacity:1"
       d="m 100.29572,407.77618 5.6427,-1.92946 8.98881,-1.58162 6.43037,-0.15089 5.98685,0.94747 4.13738,0.85764 1.40666,0.93445"
       id="path73-8-4" /><path
       style="opacity:1;fill:#000000;fill-opacity:1;stroke:#000000;stroke-width:0.864192;stroke-dasharray:none;stroke-opacity:1"
       d="m 112.25834,395.13936 9.65513,0.0274 -0.11088,-9.51759 -1.37342,-2.07288 -2.34286,-0.69631 -1.65438,-0.28057 -3.03447,-0.009 -2.20806,0.40751 -0.96669,0.41105 -0.69397,1.51528 -0.68117,1.24676 0.37554,9.23517 z"
       id="path88-9"
       sodipodi:nodetypes="ccccccccccccc" /><path
       style="display:inline;fill:none;fill-opacity:1;stroke:#ffffff;stroke-width:0.579782;stroke-dasharray:none;stroke-opacity:1"
       d="m 108.1603,393.97976 2.48004,-2.68388 2.76135,-0.95767 4.55171,0.0129 3.58384,0.83778 1.51175,1.93533"
       id="path89-3-4"
       sodipodi:nodetypes="cccccc" /><path
       style="display:inline;fill:none;fill-opacity:1;stroke:#ffffff;stroke-width:0.579782;stroke-dasharray:none;stroke-opacity:1"
       d="m 108.08913,392.66731 2.48004,-2.68388 2.76135,-0.95767 4.55171,0.0129 3.58384,0.83778 2.05331,1.86665"
       id="path89-3-6-1"
       sodipodi:nodetypes="cccccc" /><path
       style="display:inline;fill:none;fill-opacity:1;stroke:#ffffff;stroke-width:0.579782;stroke-dasharray:none;stroke-opacity:1"
       d="m 108.3199,390.11762 1.93848,-2.6152 2.76135,-0.95767 4.55171,0.0129 3.58384,0.83778 1.51175,1.93533"
       id="path89-3-2-9" /><path
       style="opacity:1;fill:none;fill-opacity:1;stroke:#ffffff;stroke-width:0.864191;stroke-dasharray:none;stroke-opacity:1"
       d="m 400.9805,388.24425 3.45514,-1.07593 2.85149,-0.39604 3.0099,-0.0792 3.16831,0.47525 1.97419,0.36672"
       id="path90-1"
       transform="rotate(0.16283659,-1803.9925,-102556.04)"
       sodipodi:nodetypes="cccccc" /><path
       style="display:inline;opacity:1;fill:#000000;fill-opacity:1;stroke:#ffffff;stroke-width:0.482984;stroke-dasharray:none;stroke-opacity:1"
       d="m 106.98362,387.53615 0.29797,1.96241 4.51992,-1.31904 6.58971,-0.17226 5.37421,0.82795 -0.13595,-2.10435 -5.16116,-1.20818 -4.68825,0.24319 -4.8926,0.99286 z"
       id="path137-5"
       sodipodi:nodetypes="cccccccccc" /><path
       style="opacity:1;fill:none;fill-opacity:1;stroke:#000000;stroke-width:0.460949;stroke-dasharray:none;stroke-opacity:1"
       d="m 107.93917,389.42871 0.3767,0.47934 0.61505,-0.68873 z"
       id="path152-07" /><path
       style="display:inline;fill:none;fill-opacity:1;stroke:#000000;stroke-width:0.460949;stroke-dasharray:none;stroke-opacity:1"
       d="m 123.04007,389.44282 0.18758,-0.58008 -0.91474,-0.12606 z"
       id="path152-0-2" /><path
       style="opacity:1;fill:#ffffff;fill-opacity:1;stroke:#ffffff;stroke-width:0.00680676;stroke-opacity:1"
       id="path92"
       sodipodi:type="arc"
       sodipodi:cx="259.11389"
       sodipodi:cy="56.390633"
       sodipodi:rx="1.5452716"
       sodipodi:ry="1.5452716"
       sodipodi:start="6.2390891"
       sodipodi:end="6.2388112"
       sodipodi:open="true"
       sodipodi:arc-type="arc"
       d="m 260.65766,56.322514 a 1.5452716,1.5452716 0 0 1 -1.47554,1.611883 1.5452716,1.5452716 0 0 1 -1.61199,-1.475431 1.5452716,1.5452716 0 0 1 1.47532,-1.612089 1.5452716,1.5452716 0 0 1 1.61219,1.475208"
       transform="rotate(111.14007,79.853241,166.07598)" /><path
       style="fill:#ffffff;fill-opacity:1;stroke:#ffffff;stroke-width:0.00680676;stroke-opacity:1"
       id="path92-7"
       sodipodi:type="arc"
       sodipodi:cx="266.06332"
       sodipodi:cy="53.841488"
       sodipodi:rx="1.5452716"
       sodipodi:ry="1.5452716"
       sodipodi:start="6.2390891"
       sodipodi:end="6.2388112"
       sodipodi:open="true"
       sodipodi:arc-type="arc"
       d="m 267.60709,53.773369 a 1.5452716,1.5452716 0 0 1 -1.47554,1.611884 1.5452716,1.5452716 0 0 1 -1.61199,-1.475432 1.5452716,1.5452716 0 0 1 1.47532,-1.612088 1.5452716,1.5452716 0 0 1 1.61219,1.475207"
       transform="rotate(111.14007,79.853241,166.07598)" /><path
       style="display:inline;opacity:1;fill:#ffffff;fill-opacity:1;stroke:#ffffff;stroke-width:0.00140581;stroke-opacity:1"
       d="m 290.08144,40.033222 4.48644,-5.48883 6.89347,1.186502 2.4897,6.500232 -4.49075,5.515068 -6.94164,-1.221374 z"
       id="path93"
       transform="rotate(111.14007,79.853241,166.07598)" /><path
       style="display:inline;opacity:1;fill:#000000;fill-opacity:1;stroke:#000000;stroke-width:0.00140581;stroke-opacity:1"
       id="path134"
       sodipodi:type="arc"
       sodipodi:cx="299.75531"
       sodipodi:cy="-7.5259619"
       sodipodi:rx="4.0425239"
       sodipodi:ry="4.0425239"
       sodipodi:start="6.2390891"
       sodipodi:end="6.2388112"
       sodipodi:open="true"
       sodipodi:arc-type="arc"
       d="m 303.7939,-7.7041641 a 4.0425239,4.0425239 0 0 1 -3.86011,4.216784 4.0425239,4.0425239 0 0 1 -4.21705,-3.8598184 4.0425239,4.0425239 0 0 1 3.85953,-4.2173205 4.0425239,4.0425239 0 0 1 4.21758,3.8592326"
       transform="rotate(120.47035,88.457401,151.10726)" /><path
       style="display:inline;opacity:1;fill:#ffffff;fill-opacity:1;stroke:#ffffff;stroke-width:0.00140581;stroke-opacity:1"
       id="path135"
       sodipodi:type="arc"
       sodipodi:cx="299.8085"
       sodipodi:cy="-7.5259619"
       sodipodi:rx="3.377635"
       sodipodi:ry="3.377635"
       sodipodi:start="6.2390891"
       sodipodi:end="6.2388112"
       sodipodi:open="true"
       sodipodi:arc-type="arc"
       d="m 303.18285,-7.6748545 a 3.377635,3.377635 0 0 1 -3.22522,3.5232339 3.377635,3.377635 0 0 1 -3.52346,-3.2249798 3.377635,3.377635 0 0 1 3.22474,-3.5236816 3.377635,3.377635 0 0 1 3.5239,3.2244898"
       transform="rotate(120.47035,88.457401,151.10726)" /><path
       style="opacity:1;fill:#000000;fill-opacity:1;stroke:#000000;stroke-width:0.00117288;stroke-opacity:1"
       id="path136"
       sodipodi:type="arc"
       sodipodi:cx="299.81055"
       sodipodi:cy="-7.5727334"
       sodipodi:rx="3.0620661"
       sodipodi:ry="3.0620661"
       sodipodi:start="6.2390891"
       sodipodi:end="6.2388112"
       sodipodi:open="true"
       sodipodi:arc-type="arc"
       d="m 302.86964,-7.7077151 a 3.0620661,3.0620661 0 0 1 -2.9239,3.1940618 3.0620661,3.0620661 0 0 1 -3.19426,-2.9236733 3.0620661,3.0620661 0 0 1 2.92345,-3.1944684 3.0620661,3.0620661 0 0 1 3.19467,2.9232297"
       transform="rotate(120.47035,88.457401,151.10726)" /><path
       style="opacity:1;fill:#000000;fill-opacity:1;stroke:#000000;stroke-width:0.526378;stroke-opacity:1"
       d="m 250.97372,51.910831 5.22665,6.261527 3.37812,13.672806 -4.26666,-5.092473 z"
       id="path139"
       sodipodi:nodetypes="ccccc"
       transform="rotate(111.14007,79.853241,166.07598)" /><path
       style="opacity:1;fill:none;fill-opacity:1;stroke:#000000;stroke-width:0.526378;stroke-opacity:1"
       d="m 182.63414,120.58536 1.5122,-1.07317 2.24391,-0.63414 h 1.56097 l 1.12195,0.78048 0.19512,0.43903"
       id="path143"
       transform="rotate(111.14007,79.853241,166.07598)" /><path
       style="opacity:1;fill:none;fill-opacity:1;stroke:#000000;stroke-width:0.526378;stroke-opacity:1"
       d="m 172.78049,126 -1.70732,2.14634 -0.68292,1.80488 0.29267,1.02439"
       id="path154"
       transform="rotate(111.14007,79.853241,166.07598)" /><path
       style="opacity:1;fill:none;fill-opacity:1;stroke:#ffffff;stroke-width:0.526378;stroke-opacity:1"
       d="m 171.36819,129.75957 2.5531,-0.65553 4.07116,-2.5876 4.76119,-2.34609 3.27762,-2.38059 1.89758,-1.69057"
       id="path155"
       transform="rotate(111.14007,79.853241,166.07598)" /><path
       style="opacity:1;fill:none;fill-opacity:1;stroke:#000000;stroke-width:0.897662;stroke-opacity:1"
       d="m 233.83047,65.388634 1.42511,0.822687 c 0,0 1.00299,0.1114 1.62486,-0.04013 0.73284,-0.17857 1.48155,-0.59028 1.82267,-0.750807 0.34111,-0.160524 1.00658,-1.697193 1.00658,-1.697193 l -1.10361,-2.247342 c 0,0 -1.56511,-0.341116 -1.84603,-0.341116 -0.28092,0 -1.96643,0.260854 -1.96643,0.260854 l -1.30426,0.642098 -0.6421,0.842751 z"
       id="path157"
       sodipodi:nodetypes="ccssccscccc"
       transform="rotate(111.14007,79.853241,166.07598)" /><path
       style="opacity:1;fill:none;fill-opacity:1;stroke:#000000;stroke-width:0.897662;stroke-opacity:1"
       d="m 232.7068,62.840308 1.42466,0.481571 c 0,0 1.66544,-0.02006 1.78583,-0.08026 0.1204,-0.0602 1.58518,-0.581901 1.58518,-0.581901 l 1.00328,-0.963145 v 0"
       id="path158"
       sodipodi:nodetypes="ccsccc"
       transform="rotate(111.14007,79.853241,166.07598)" /><path
       style="fill:#ffffff;fill-opacity:1;stroke:#000000;stroke-width:0.897662;stroke-opacity:1"
       d="m 332.43242,58.45678 -2.06373,-1.620196 c -1.53351,-0.667704 -3.83966,1.845164 -3.9587,2.457108 0.0528,0.373285 1.50668,2.817162 1.50668,2.817162 l 1.6312,1.804472 c 0,0 1.57492,-0.292517 1.83385,-0.401456 0.25894,-0.108939 1.7114,-1.003011 1.7114,-1.003011 l 0.95319,-1.097635 0.26504,-1.025805 z"
       id="path157-1"
       sodipodi:nodetypes="ccsccscccc"
       transform="rotate(111.14007,79.853241,166.07598)" /><path
       style="fill:none;fill-opacity:1;stroke:#000000;stroke-width:0.897662;stroke-opacity:1"
       d="m 334.45638,60.369938 -1.49992,0.108587 c 0,0 -1.52734,0.664338 -1.61496,0.766513 -0.0876,0.10218 -1.23548,1.151088 -1.23548,1.151088 l -0.55127,1.276841 v 0"
       id="path158-1"
       sodipodi:nodetypes="ccsccc"
       transform="rotate(111.14007,79.853241,166.07598)" /><path
       style="opacity:1;fill:none;fill-opacity:1;stroke:#000000;stroke-width:2.9437;stroke-opacity:1"
       d="m 235.43736,62.482763 2.9786,-2.896757 3.24958,0.0352 1.55397,0.866601 3.80488,2.536585 2.34147,1.853658 4.87804,2.439027 6.82927,2.634144 7.21951,2.048781 9.85366,3.317075 9.95122,2.439021 8.4878,2.146342 8.97561,0.780487 8.68293,0.292685 6.53659,-0.487802 7.60976,-1.463418 3.80487,-2.243904 2.04878,-4 0.0976,-4.39024 -1.07318,-4 -1.7561,-2.634149"
       id="path159"
       sodipodi:nodetypes="ccccccccccccccccccccc"
       transform="rotate(111.14007,79.853241,166.07598)" /><path
       style="opacity:1;fill:#000000;fill-opacity:1;stroke:#000000;stroke-width:0.400098;stroke-opacity:1"
       d="m 234.21594,61.675761 0.29728,1.295283 1.7412,0.106176 0.46716,-0.254816 -0.0849,-1.231584 z"
       id="path167"
       transform="rotate(111.14007,79.853241,166.07598)" /><path
       style="fill:none;fill-opacity:1;stroke:#ffffff;stroke-width:0.596363;stroke-opacity:1"
       d="m 235.28648,62.342042 2.89454,-3.317073 3.61384,0.06322 3.29129,1.931397 2.26372,1.471791 2.34147,1.85366 4.87804,2.43902 6.82927,2.63415 7.21951,2.04878 9.85366,3.31707 9.95122,2.43902 8.4878,2.14635 8.97561,0.78048 8.68293,0.29269 6.53659,-0.4878 7.60976,-1.46342 3.80487,-2.24391 2.04878,-4 0.0976,-4.39024 -1.07318,-4 -1.7561,-2.63414"
       id="path159-9"
       sodipodi:nodetypes="ccccccccccccccccccccc"
       transform="rotate(111.14007,79.853241,166.07598)" /><path
       style="opacity:1;fill:#ffffff;fill-opacity:1;stroke:#ffffff;stroke-width:0.596363;stroke-opacity:1"
       d="M 193.89629,67.950618 204.8,64.632096"
       id="path168"
       transform="rotate(111.14007,79.853241,166.07598)" /><path
       style="opacity:1;fill:#ffffff;fill-opacity:1;stroke:#ffffff;stroke-width:0.596363;stroke-opacity:1"
       d="m 194.5284,70.795059 12.48395,-4.10864"
       id="path169"
       transform="rotate(111.14007,79.853241,166.07598)" /><path
       style="opacity:1;fill:#ffffff;fill-opacity:1;stroke:#ffffff;stroke-width:0.596363;stroke-opacity:1"
       d="m 195.7926,73.481478 6.32098,-2.054316"
       id="path170"
       transform="rotate(111.14007,79.853241,166.07598)" /><path
       style="opacity:1;fill:#ffffff;fill-opacity:1;stroke:#ffffff;stroke-width:0.596363;stroke-opacity:1"
       d="m 196.58271,76.325926 15.17038,-5.056793"
       id="path171"
       transform="rotate(111.14007,79.853241,166.07598)" /><path
       style="opacity:1;fill:#ffffff;fill-opacity:1;stroke:#ffffff;stroke-width:0.596363;stroke-opacity:1"
       d="m 198.47901,79.012346 9.48148,-3.160493"
       id="path172"
       transform="rotate(111.14007,79.853241,166.07598)" /><path
       style="opacity:1;fill:#ffffff;fill-opacity:1;stroke:#ffffff;stroke-width:0.596363;stroke-opacity:1"
       d="m 199.26913,82.172838 5.0568,-1.580243"
       id="path173"
       transform="rotate(111.14007,79.853241,166.07598)" /><path
       style="opacity:1;fill:#ffffff;fill-opacity:1;stroke:#ffffff;stroke-width:0.596363;stroke-opacity:1"
       d="m 200.05926,85.49136 15.64445,-5.530867"
       id="path174"
       transform="rotate(111.14007,79.853241,166.07598)" /><path
       style="opacity:1;fill:#ffffff;fill-opacity:1;stroke:#ffffff;stroke-width:0.596363;stroke-opacity:1"
       d="m 200.37531,88.967904 6.47901,-1.896301"
       id="path175"
       transform="rotate(111.14007,79.853241,166.07598)" /><path
       style="opacity:1;fill:#ffffff;fill-opacity:1;stroke:#ffffff;stroke-width:0.596363;stroke-opacity:1"
       d="m 201.0074,92.918522 3.63458,-0.948154"
       id="path176"
       transform="rotate(111.14007,79.853241,166.07598)" /><path
       style="opacity:1;fill:none;fill-opacity:1;stroke:#000000;stroke-width:0.596363;stroke-opacity:1"
       d="m 162.13333,135.11111 -2.37037,6.79507 -3.16049,3.31851"
       id="path179"
       transform="rotate(111.14007,79.853241,166.07598)" /><path
       style="opacity:1;fill:none;fill-opacity:1;stroke:#000000;stroke-width:0.596363;stroke-opacity:1"
       d="m 164.50371,135.42716 -6.63704,6.00494 -3.31852,4.89877"
       id="path180"
       transform="rotate(111.14007,79.853241,166.07598)" /><path
       style="opacity:1;fill:none;fill-opacity:1;stroke:#000000;stroke-width:0.596363;stroke-opacity:1"
       d="m 145.38271,152.01975 8.37531,-7.26913"
       id="path181"
       transform="rotate(111.14007,79.853241,166.07598)" /><path
       style="opacity:1;fill:none;fill-opacity:1;stroke:#000000;stroke-width:0.596363;stroke-opacity:1"
       d="m 148.38518,152.9679 1.10618,-5.84691"
       id="path182"
       transform="rotate(111.14007,79.853241,166.07598)" /><path
       style="opacity:1;fill:none;fill-opacity:1;stroke:#000000;stroke-width:0.596363;stroke-opacity:1"
       d="m 150.43951,150.91358 1.10617,-6.00494 1.2642,-1.42222"
       id="path183"
       transform="rotate(111.14007,79.853241,166.07598)" /><path
       style="opacity:1;fill:#000000;fill-opacity:1;stroke:#ffffff;stroke-width:1.2864;stroke-dasharray:none;stroke-opacity:1"
       d="M 204.00988,101.7679 224.23704,78.064198"
       id="path186"
       transform="rotate(111.14007,79.853241,166.07598)" /><path
       style="opacity:1;fill:none;fill-opacity:1;stroke:#000000;stroke-width:0.388453;stroke-dasharray:none;stroke-opacity:1"
       d="m 233.33602,66.253523 1.54527,0.804826 h 2.73642 l 1.99597,-0.869216 1.22334,-2.25352 v 0"
       id="path187"
       transform="rotate(111.14007,79.853241,166.07598)" /><path
       style="opacity:1;fill:none;fill-opacity:1;stroke:#000000;stroke-width:0.388453;stroke-dasharray:none;stroke-opacity:1"
       d="m 325.56941,59.171026 1.22335,-2.028169 2.09255,-1.22334 1.54528,0.03219"
       id="path188"
       transform="rotate(111.14007,79.853241,166.07598)" /><path
       style="opacity:1;fill:none;fill-opacity:1;stroke:#000000;stroke-width:0.388453;stroke-dasharray:none;stroke-opacity:1"
       d="m 121.63603,71.084429 6.72419,-1.02064 21.61351,0.240153 6.78424,1.080672"
       id="path189"
       transform="rotate(111.14007,79.853241,166.07598)" /><path
       style="opacity:1;fill:none;fill-opacity:1;stroke:#000000;stroke-width:0.388453;stroke-dasharray:none;stroke-opacity:1"
       d="m 138.14634,152.19512 2.82176,-1.74108 11.94747,-11.64729 10.56661,-13.62852 4.50281,-8.34521"
       id="path190"
       transform="rotate(111.14007,79.853241,166.07598)" /></g></svg>
