<?xml version="1.0" encoding="UTF-8" standalone="no"?>
<!-- Uploaded to: SVG Repo, www.svgrepo.com, Generator: SVG Repo Mixer Tools -->

<svg
   width="800px"
   height="800px"
   viewBox="0 0 512 512"
   version="1.1"
   id="svg1"
   sodipodi:docname="mollusk.svg"
   xml:space="preserve"
   inkscape:version="1.3.2 (091e20e, 2023-11-25, custom)"
   xmlns:inkscape="http://www.inkscape.org/namespaces/inkscape"
   xmlns:sodipodi="http://sodipodi.sourceforge.net/DTD/sodipodi-0.dtd"
   xmlns="http://www.w3.org/2000/svg"
   xmlns:svg="http://www.w3.org/2000/svg"><defs
     id="defs1" /><sodipodi:namedview
     id="namedview1"
     pagecolor="#ffffff"
     bordercolor="#000000"
     borderopacity="0.25"
     inkscape:showpageshadow="2"
     inkscape:pageopacity="0.0"
     inkscape:pagecheckerboard="0"
     inkscape:deskcolor="#d1d1d1"
     inkscape:zoom="1.42"
     inkscape:cx="429.57746"
     inkscape:cy="318.66197"
     inkscape:window-width="3840"
     inkscape:window-height="2066"
     inkscape:window-x="-11"
     inkscape:window-y="-11"
     inkscape:window-maximized="1"
     inkscape:current-layer="svg1" /><g
     id="g64"
     inkscape:label="mollusk"
     transform="matrix(1.720802,0.20669514,-0.20669514,1.720802,123.27178,-396.3772)"
     style="display:inline"><path
       style="display:inline;opacity:1;fill:#ffffff;stroke:#000000;stroke-width:1.28;stroke-dasharray:none;stroke-opacity:1"
       d="M 141.5694,422.33005 V 260.12678 l -53.438251,-0.69946 0.979232,164.02186 z"
       id="path28" /><path
       style="display:inline;opacity:1;fill:#000000;fill-opacity:1;stroke:#000000;stroke-width:1.28;stroke-dasharray:none;stroke-opacity:1"
       d="m 89.949728,259.56721 4.336608,3.56722 6.213184,1.10329 0.64147,158.16228 10.77158,-0.69946 -1.41878,-157.10518 4.35648,-0.20192 9.93225,-0.69945 10.21201,-1.32896 3.91695,-3.0776 1.18906,-2.09836 -18.88524,-2.72787 -13.70929,-0.20983 -10.351911,0.69945 -7.973773,1.46885 z"
       id="path25"
       sodipodi:nodetypes="cccccccccccccccc" /><path
       style="display:inline;opacity:1;fill:#ffffff;stroke:#000000;stroke-width:1.28;stroke-dasharray:none;stroke-opacity:1"
       d="m 138.70164,340.56394 2.51803,-3.0776 -0.41967,-2.86776 -3.77705,-4.89617 -4.19672,-3.21749 -3.91694,-4.4765 -3.63716,-6.99454 -2.79781,-4.40656 -5.59563,-3.14754 -1.88853,-0.7694 -0.27978,-4.68634 5.03607,-3.56721 1.32896,-2.65792 0.62951,-2.37814 0.7694,-2.16831 -2.16831,-0.97924 -4.89617,-0.97923 -3.98689,0.27978 -3.77705,2.37814 -1.88852,2.23825 -4.96612,2.37815 -5.175958,3.07759 -1.608742,2.3082 -1.748634,0.41967 -1.119129,0.20984 -0.769395,4.40655 1.818579,4.19673 2.867757,2.44808 -2.238253,1.74864 -2.448083,1.5388 -0.48962,5.80546 -0.06995,20.63388 1.95847,6.36503 2.448083,5.87541 4.196724,4.33661 4.196721,6.57486 6.36502,5.80546 4.68634,2.86777 3.847,1.81858 2.51803,3.56721 2.93771,1.46885 4.05683,-0.07 4.54644,-1.04917 1.95847,-2.16831 c 0,0 2.79781,-6.57487 2.93771,-6.85464 0.13989,-0.27979 0.90929,-3.49727 0.90929,-3.49727 l -0.20984,-2.51804 c 0,0 2.44809,-3.14754 2.58798,-3.63715 0.13989,-0.48962 -0.0699,-3.14754 0.27978,-3.98689 0.34973,-0.83934 1.11913,-2.9377 1.04918,-3.77705 -0.0699,-0.83934 0,-6.64481 0,-6.64481 l 0.07,-4.75629 -1.46885,-1.25901 z"
       id="path26" /><path
       style="display:inline;opacity:1;fill:#000000;fill-opacity:1;stroke:#000000;stroke-width:0.576127;stroke-dasharray:none;stroke-opacity:1"
       d="m 92.768134,326.73684 0.728308,9.0128 3.641536,12.19915 5.826462,9.65007 2.54907,3.64154 4.64296,4.36984 5.37127,1.91181 2.73115,6.19061 -0.52691,2.41734 -3.58477,-2.25669 -5.47837,-3.43483 -5.69579,-5.4623 -3.051397,-5.0146 -3.660817,-4.2199 -3.134931,-5.74721 -1.836837,-6.00424 -1.798276,-6.41982 v -10.28734 z"
       id="path52"
       sodipodi:nodetypes="ccccccccccccccccccc" /><path
       style="display:inline;opacity:1;fill:#ffffff;stroke:#000000;stroke-width:0.574248;stroke-dasharray:none;stroke-opacity:1"
       d="m 95.195629,355.95191 -0.769402,1.18908 -1.398905,-1.18908 0.209836,-1.32896 1.678688,-2.44809 2.098362,-3.07759 2.727866,-2.02842 1.468856,-0.55956 -0.41967,-3.00765 c 0,0 0.90928,-4.05683 0.97923,-4.33661 0.07,-0.27978 2.37814,-4.54645 2.37814,-4.54645 l 0.97924,-3.07759 -0.62951,-3.28744 -0.62951,-2.86776 -0.97923,-1.81858 -1.74863,0.97924 -0.76941,3.63716 -2.028412,3.00765 -2.238253,1.3989 -2.308192,3.14754 -3.850836,3.86556 -0.156414,-2.27515 2.608338,-3.47893 2.657927,-2.58798 2.937702,-3.14754 0.62951,-2.72787 -0.06995,-2.51803 1.53879,-1.32896 h 3.0776 l 4.61639,0.41967 0.62951,4.19672 -0.55956,4.05683 3.49772,0.71549 9.49519,1.47492 5.13832,2.63066 5.67381,-1.01151 3.12359,-6.1144 1.38365,-0.36396 -0.0854,1.55997 -1.2085,2.38474 -2.5822,3.6943 -3.5965,0.80887 3.78202,1.09576 4.10016,1.37152 3.41036,0.88649 -0.48016,1.56928 -21.96079,-7.40089 -9.86473,-0.41481 -1.36536,5.22728 -2.16831,4.12678 -0.83934,3.77705 1.25902,4.05683 2.1683,3.84699 1.60875,3.21749 0.90928,3.35738 0.34973,2.37814 0.97924,0.7694 2.65792,0.7694 2.37814,1.25901 1.04918,2.16831 0.69946,4.26666 0.34973,2.3082 0.19874,3.76798 -1.79097,-0.6295 c 0,0 0.0534,-5.44668 -0.0165,-5.86634 -0.0699,-0.41968 -1.11913,-3.63716 -1.11913,-3.63716 l -0.97923,-1.88853 -2.3082,-0.97924 -1.74863,-0.27978 0.62951,3.56721 1.57931,5.975 -1.94556,-0.29631 -1.2425,-6.30819 -0.20983,-4.33661 -1.46886,-3.0776 -1.81858,-3.7071 -2.37813,-2.79782 c 0,0 -0.62951,-1.5388 -0.83935,-1.95847 -0.20984,-0.41967 -0.90929,-1.5388 -0.90929,-1.5388 l -0.0699,-1.88852 -2.867761,1.46885 -2.448084,3.0776 z"
       id="path27"
       sodipodi:nodetypes="cccccccccsccccccccccccccccccccccccccccccccccccccccccccccccccccccsccccccccccccsccccc" /><path
       style="display:inline;opacity:1;fill:#000000;stroke:#ffffff;stroke-width:1.29973;stroke-dasharray:none;stroke-opacity:1"
       d="m 108.10064,514.80949 -0.75614,-49.83925 18.95268,0.004 0.98383,49.95767 v 0"
       id="path4" /><path
       style="display:inline;opacity:1;fill:#ffffff;stroke:#000000;stroke-width:1.17729;stroke-dasharray:none;stroke-opacity:1"
       d="m 106.5157,481.87957 14.82661,5.58652 c 0,0 8.23931,3.12474 6.32651,0.7353 -1.26569,-1.58108 -5.85837,-2.97529 -5.85837,-2.97529 l -14.84817,-5.20161 c 0,0 -2.47084,-0.10287 -0.44659,1.85511 z"
       id="path5"
       sodipodi:nodetypes="ccsccc" /><path
       style="display:inline;fill:#ffffff;stroke:#000000;stroke-width:1.16706;stroke-dasharray:none;stroke-opacity:1"
       d="m 107.51067,490.55022 15.35469,-2.70588 c 0,0 8.54321,-1.48631 5.70147,-2.56897 -1.88036,-0.71639 -6.46315,0.4103 -6.46315,0.4103 l -15.17427,3.04703 c 0,0 -2.13166,1.16145 0.58127,1.81755 z"
       id="path5-5"
       sodipodi:nodetypes="ccsccc" /><path
       style="display:inline;fill:#ffffff;stroke:#000000;stroke-width:1.16706;stroke-dasharray:none;stroke-opacity:1"
       d="m 107.27864,494.90086 15.47142,-1.92965 c 0,0 8.60718,-1.05444 5.82354,-2.27875 -1.84192,-0.81013 -6.47561,0.0845 -6.47561,0.0845 l -15.3084,2.27945 c 0,0 -2.18741,1.05269 0.48906,1.8445 z"
       id="path5-5-2"
       sodipodi:nodetypes="ccsccc" /><path
       style="display:inline;fill:#ffffff;stroke:#000000;stroke-width:1.16706;stroke-dasharray:none;stroke-opacity:1"
       d="m 107.86835,499.14601 15.4996,-1.68837 c 0,0 8.62257,-0.92022 5.85834,-2.18775 -1.82908,-0.83872 -6.47614,-0.0164 -6.47614,-0.0164 l -15.34206,2.04067 c 0,0 -2.20354,1.01848 0.46026,1.85189 z"
       id="path5-5-3"
       sodipodi:nodetypes="ccsccc" /><path
       style="display:inline;fill:#ffffff;stroke:#000000;stroke-width:1.16706;stroke-dasharray:none;stroke-opacity:1"
       d="m 107.62092,500.92491 15.53597,1.31223 c 0,0 8.63915,0.74869 6.16894,-1.02492 -1.63452,-1.17359 -6.35304,-1.25678 -6.35304,-1.25678 l -15.44883,-0.93627 c 0,0 -2.35786,0.57748 0.0969,1.90577 z"
       id="path5-5-28"
       sodipodi:nodetypes="ccsccc" /><path
       style="display:inline;opacity:1;fill:#ffffff;stroke:#000000;stroke-width:1.28;stroke-dasharray:none;stroke-opacity:1"
       d="m 106.66667,463.52787 -4.54645,-6.29508 28.88743,0.20983 -4.26666,6.29508 z"
       id="path6" /><path
       style="display:inline;opacity:1;fill:#ffffff;stroke:#000000;stroke-width:1.28;stroke-dasharray:none;stroke-opacity:1"
       d="m 100.65137,457.02295 -0.20984,-9.51257 31.6153,0.20984 0.13989,9.58251 z"
       id="path7" /><path
       style="display:inline;opacity:1;fill:#ffffff;stroke:#000000;stroke-width:1.28;stroke-dasharray:none;stroke-opacity:1"
       d="m 132.75628,446.88088 8.81312,-6.85465 5.38579,-9.30274 -17.76612,-1.60874 h -22.10273 l -20.284151,2.3082 3.98688,9.23279 9.232791,6.43497 z"
       id="path8" /><path
       style="display:inline;opacity:1;fill:#ffffff;stroke:#000000;stroke-width:1.28;stroke-dasharray:none;stroke-opacity:1"
       d="m 85.19344,423.72896 8.533338,-1.18907 7.344262,-0.20984 15.31803,-0.7694 17.48634,0.34973 12.10055,0.83935 0.20983,7.62404 h -4.54644 l -14.68853,-1.39891 -12.93989,-0.20983 -13.00984,1.25901 -14.338792,1.11913 z"
       id="path18" /><path
       style="display:inline;opacity:1;fill:#ffffff;stroke:#000000;stroke-width:1.28;stroke-dasharray:none;stroke-opacity:1"
       d="m 108.20547,446.95082 -4.33662,-8.74317 -2.51803,-8.39344 0.34972,-27.48853 2.58798,-2.02841 3.14754,-0.27979 4.26667,2.3082 0.7694,23.01202 0.27978,4.96613 1.88853,10.07213 2.44808,6.71475 z"
       id="path9" /><path
       style="display:inline;opacity:1;fill:#000000;fill-opacity:1;stroke:#000000;stroke-width:1.28;stroke-dasharray:none;stroke-opacity:1"
       d="m 79.316221,261.58273 2.519843,1.20197 2.098362,-0.07 55.536614,-0.0699 3.7071,-0.62951 2.71678,-2.04313 -3.9758,-2.43337 -5.38579,-1.32896 -8.74317,-1.11913 -9.37268,-0.62951 -10.14207,-0.55956 -8.25355,0.97924 -10.212023,1.18907 -6.365031,1.53879 -3.777049,2.23826 z"
       id="path20"
       sodipodi:nodetypes="cccccccccccccccc" /><path
       style="opacity:1;fill:#ffffff;stroke:#000000;stroke-width:1.28;stroke-dasharray:none;stroke-opacity:1"
       d="M 83.374861,402.18579 83.934426,257.46885 90.019674,255.86011 89.6,423.02951 84.144262,423.1694 Z"
       id="path24" /><path
       style="display:inline;opacity:1;fill:#ffffff;stroke:#000000;stroke-width:1.28;stroke-dasharray:none;stroke-opacity:1"
       d="m 99.462298,449.5388 -7.903828,-4.89618 -7.344262,-9.30273 -3.497267,-7.34426 0.349728,-24.2011 2.727865,-1.18906 2.168308,1.67868 -0.139892,19.23497 0.769402,9.72241 9.582509,12.38033 4.056829,2.9377 z"
       id="path10" /><path
       style="display:inline;opacity:1;fill:#000000;fill-opacity:1;stroke:#000000;stroke-width:1.28;stroke-dasharray:none;stroke-opacity:1"
       d="m 142.19891,401.62623 3.63715,0.34973 0.83935,15.38798 -0.27978,13.28961 -4.33662,8.3235 -9.16284,8.39344 -0.0699,2.02842 h 3.42732 l 6.92459,-6.92459 5.59563,-8.3235 1.04918,-3.14754 -0.41967,-28.18798 -1.25902,-1.46885 -3.49726,-0.97924 -2.02842,0.34973 -0.0865,0.97923 z"
       id="path11"
       sodipodi:nodetypes="ccccccccccccccccc" /><path
       style="display:inline;opacity:1;fill:#ffffff;stroke:#000000;stroke-width:1.28;stroke-dasharray:none;stroke-opacity:1"
       d="m 141.62463,402.20051 0.0441,20.01929 4.30719,0.32009 -0.27979,-19.86448 z"
       id="path12"
       sodipodi:nodetypes="ccccc" /><path
       style="display:inline;opacity:1;fill:#000000;fill-opacity:1;stroke:#000000;stroke-width:1.28;stroke-dasharray:none;stroke-opacity:1"
       d="m 149.26339,404.70383 0.13989,4.33661 1.88852,-1.88853 z"
       id="path13" /><path
       style="display:inline;opacity:1;fill:#000000;fill-opacity:1;stroke:#000000;stroke-width:1.28;stroke-dasharray:none;stroke-opacity:1"
       d="m 85.543168,405.68306 -0.360814,-1.80568 2.558551,1.70087 0.110461,17.6611 -2.028416,0.0699 z"
       id="path14"
       sodipodi:nodetypes="cccccc" /><path
       style="display:inline;opacity:1;fill:#000000;fill-opacity:1;stroke:#000000;stroke-width:1.28;stroke-dasharray:none;stroke-opacity:1"
       d="m 82.045901,407.15191 -3.077594,2.44809 3.147539,2.37814 1.119124,-1.53879 v -2.3082 z"
       id="path15" /><path
       style="display:inline;opacity:1;fill:#000000;fill-opacity:1;stroke:#000000;stroke-width:1.28;stroke-dasharray:none;stroke-opacity:1"
       d="m 87.076529,431.48181 9.168277,14.90945 3.69239,2.3598 0.154604,-2.70953 -3.846994,-4.19672 -5.853232,-10.43476 h -1.625266 z"
       id="path16"
       sodipodi:nodetypes="cccccccc" /><path
       style="display:inline;opacity:1;fill:#000000;fill-opacity:1;stroke:#000000;stroke-width:1.28;stroke-dasharray:none;stroke-opacity:1"
       d="m 106.45683,403.37486 -2.65792,1.32897 0.41967,1.74863 2.16831,1.74863 2.1683,-0.20983 0.34973,-2.93771 z"
       id="path17" /><path
       style="opacity:1;fill:#ffffff;stroke:#000000;stroke-width:1.28;stroke-dasharray:none;stroke-opacity:1"
       d="m 78.721862,260.9202 -1.64208,-2.75189 1.049178,-2.51804 2.797818,-1.46885 8.113657,-2.44809 10.351917,-2.1683 10.701638,-0.20984 10.28197,0.83934 9.58251,0.62951 8.1836,1.60875 4.6164,1.32896 2.16831,1.32896 1.18907,2.3082 0.13989,1.46885 -2.3082,-0.90929 -6.50492,-1.81858 -8.04371,-1.11912 -9.44263,-0.27978 -7.27432,-0.48962 -7.34426,-0.13989 -8.113655,1.04917 -7.414208,1.04919 -5.665575,1.25901 -3.567212,1.25902 z"
       id="path19"
       sodipodi:nodetypes="ccccccccccccccccccccccccc" /><path
       style="opacity:1;fill:#ffffff;stroke:#000000;stroke-width:1.28;stroke-dasharray:none;stroke-opacity:1"
       d="m 83.654643,253.13224 1.468851,-3.49727 3.0776,-4.75628 3.986887,-2.79781 4.336608,-2.72788 5.315851,-1.95847 5.73552,-1.32896 5.38579,-0.41967 5.31584,0.7694 4.40656,0.7694 4.12678,1.74863 3.91694,1.74863 3.00765,2.3082 2.02842,2.37815 2.72786,3.7071 1.95847,2.86776 0.20984,0.83935 -6.50492,-1.18908 -8.18361,-0.7694 -9.86229,-0.90929 -6.99454,-0.48961 -8.11366,0.0699 -6.924584,1.39891 -7.134432,1.74863 z"
       id="path21" /><path
       style="opacity:1;fill:#000000;fill-opacity:1;stroke:#000000;stroke-width:1.28;stroke-dasharray:none;stroke-opacity:1"
       d="m 125.20219,417.01421 -0.13989,-2.02842 1.88852,-1.11912 1.32896,-0.07 1.81858,1.25902 -0.13989,1.95847 -1.11912,1.32896 -1.60875,-0.07 z"
       id="path23" /><path
       style="opacity:1;fill:#000000;fill-opacity:1;stroke:#000000;stroke-width:1.28;stroke-dasharray:none;stroke-opacity:1"
       d="m 104.64234,400.22296 4.33178,-1.40146 2.46317,0.8069 2.25083,3.60982 0.72197,10.44725 0.38221,12.5282 0.38222,3.94957 1.91108,9.98009 2.4207,6.71002 -2.33577,0.16988 -2.59057,-6.28534 -1.95355,-10.31984 -1.06171,-28.0292 -3.73723,-1.99602 z"
       id="path29" /><path
       style="opacity:1;fill:#000000;fill-opacity:1;stroke:#000000;stroke-width:1.28;stroke-dasharray:none;stroke-opacity:1"
       d="m 91.857754,318.08819 5.09815,-3.00427 1.547654,-1.9118 -3.095308,-1.91181 -2.549076,-2.54907 -0.455193,-4.09673 3.732576,-1.09246 1.820768,-3.36842 7.920335,-3.5505 3.36843,-3.36842 3.5505,-2.00284 3.36841,0.81934 0.18208,3.18635 -0.91038,2.91322 -2.45804,1.36558 -6.6458,3.00427 -3.64154,2.82219 -0.36415,3.64153 4.64296,4.00569 5.55334,2.82219 2.64011,3.18635 -3.36842,2.09388 -2.38726,-0.26958 -1.64336,0.90396 -0.81163,0.85267 -6.81066,-1.30497 -1.480328,1.32894 -1.340983,-0.80386 -2.732037,2.38815 -2.002841,2.09388 -2.822189,0.72831 0.182074,-8.55761 z"
       id="path30"
       sodipodi:nodetypes="ccccccccccccccccccccccccccccccccc" /><path
       style="opacity:1;fill:none;fill-opacity:1;stroke:#000000;stroke-width:0.576127;stroke-dasharray:none;stroke-opacity:1"
       d="m 109.15505,338.20768 -2.00285,4.27881 0.18208,2.73115 3.00427,4.734"
       id="path31" /><path
       style="opacity:1;fill:none;fill-opacity:1;stroke:#000000;stroke-width:0.576127;stroke-dasharray:none;stroke-opacity:1"
       d="m 111.15789,339.75533 -0.27311,4.00569 0.27311,2.36701 2.36701,4.00569"
       id="path32" /><path
       style="opacity:1;fill:none;fill-opacity:1;stroke:#000000;stroke-width:0.576127;stroke-dasharray:none;stroke-opacity:1"
       d="m 112.15932,351.31721 c 0,0 -0.63727,3.36842 -0.54623,3.73258 0.091,0.36415 0.72831,3.64153 1.09246,3.91465 0.36415,0.27312 0.72831,0.7283 0.72831,0.7283"
       id="path33" /><path
       style="opacity:1;fill:none;fill-opacity:1;stroke:#000000;stroke-width:0.576127;stroke-dasharray:none;stroke-opacity:1"
       d="m 117.07539,320.18208 -3.09531,2.45804 -3.18634,1.36557 -1.72973,-0.36415"
       id="path34" /><path
       style="opacity:1;fill:none;fill-opacity:1;stroke:#000000;stroke-width:0.576127;stroke-dasharray:none;stroke-opacity:1"
       d="m 117.71266,322.09388 -1.72973,2.00285 -3.73257,1.09246 -2.367,0.54623"
       id="path35" /><path
       style="opacity:1;fill:none;fill-opacity:1;stroke:#000000;stroke-width:0.576127;stroke-dasharray:none;stroke-opacity:1"
       d="m 118.9872,324.55192 -2.18492,2.00284 -4.46088,0.63727 -1.82077,0.36416"
       id="path36" /><path
       style="opacity:1;fill:none;fill-opacity:1;stroke:#000000;stroke-width:0.576127;stroke-dasharray:none;stroke-opacity:1"
       d="m 121.44524,327.73827 c 0,0 -3.09531,0.91038 -3.73258,1.09246 -0.63727,0.18207 -4.46088,0.7283 -4.46088,0.7283 l -1.91181,-0.63726"
       id="path37" /><path
       style="opacity:1;fill:none;fill-opacity:1;stroke:#000000;stroke-width:0.576127;stroke-dasharray:none;stroke-opacity:1"
       d="m 110.06543,341.39403 -0.54622,3.91465 1.27453,3.0953 0.36415,0.63727"
       id="path40" /><path
       style="opacity:1;fill:none;fill-opacity:1;stroke:#000000;stroke-width:0.576127;stroke-dasharray:none;stroke-opacity:1"
       d="m 111.79516,362.60597 1.00143,-5.91749 3.18634,-2.45804 v 0"
       id="path41" /><path
       style="opacity:1;fill:none;fill-opacity:1;stroke:#000000;stroke-width:0.576127;stroke-dasharray:none;stroke-opacity:1"
       d="m 99.504979,334.29303 0.182074,3.36842 1.547657,1.72973"
       id="path42" /><path
       style="opacity:1;fill:none;fill-opacity:1;stroke:#000000;stroke-width:0.576127;stroke-dasharray:none;stroke-opacity:1"
       d="m 102.14509,332.19915 -1.00142,3.36841 1.54765,2.18493"
       id="path43" /><path
       style="opacity:1;fill:none;fill-opacity:1;stroke:#000000;stroke-width:0.576127;stroke-dasharray:none;stroke-opacity:1"
       d="m 140.29018,353.59317 -5.37126,-2.36699 -4.82504,1.18349 v 0"
       id="path44" /><path
       style="opacity:1;fill:none;fill-opacity:1;stroke:#000000;stroke-width:0.576127;stroke-dasharray:none;stroke-opacity:1"
       d="m 140.19915,356.87055 -3.91466,-3.18634 h -2.00284 l -3.73257,0.91038"
       id="path45" /><path
       style="opacity:1;fill:none;fill-opacity:1;stroke:#000000;stroke-width:0.576127;stroke-dasharray:none;stroke-opacity:1"
       d="m 136.73969,362.69701 -3.82361,-2.54907 -0.091,-2.73115"
       id="path46" /><path
       style="opacity:1;fill:none;fill-opacity:1;stroke:#ffffff;stroke-width:0.576127;stroke-dasharray:none;stroke-opacity:1"
       d="m 98.641563,323.24288 1.500687,-4.06223 1.9118,-3.36842 -1.72972,-2.64011 -4.005693,-2.54907 -1.001427,-3.36843 2.093888,-2.09388 1.911801,-2.64011 -1.547648,-2.91323 1.729728,-0.81935 1.365571,3.36842 0.18208,1.45662 -2.640112,2.36699 -1.00142,1.72974 1.911801,2.64011 2.640111,2.54907 1.72973,1.27454 0.091,2.00284 -0.7283,1.82077 2.27596,2.27596 2.64011,2.18493 v 0"
       id="path47"
       sodipodi:nodetypes="cccccccccccccccccccccc" /><path
       style="opacity:1;fill:none;fill-opacity:1;stroke:#ffffff;stroke-width:0.38652;stroke-dasharray:none;stroke-opacity:1"
       d="m 112.15932,318.36131 0.7283,-3.73257 2.54908,-1.00143"
       id="path48" /><path
       style="opacity:1;fill:none;fill-opacity:1;stroke:#ffffff;stroke-width:0.38652;stroke-dasharray:none;stroke-opacity:1"
       d="m 109.70128,316.72262 0.27311,-3.09531 1.27454,-1.45662"
       id="path49" /><path
       style="opacity:1;fill:none;fill-opacity:1;stroke:#ffffff;stroke-width:0.38652;stroke-dasharray:none;stroke-opacity:1"
       d="m 107.78947,316.26742 0.27312,-4.55191 1.36558,-0.91039"
       id="path50" /><path
       style="opacity:1;fill:none;fill-opacity:1;stroke:#ffffff;stroke-width:0.38652;stroke-dasharray:none;stroke-opacity:1"
       d="m 106.33286,313.53628 5.37127,2.36699 2.18492,3.45946"
       id="path51" /><path
       style="display:inline;opacity:1;fill:#ffffff;stroke:#000000;stroke-width:1.28;stroke-dasharray:none;stroke-opacity:1"
       d="m 122.54426,255.16065 -0.69945,166.26012 10.28197,0.48961 0.69945,-166.46994 -6.64481,-0.7694 z"
       id="path22" /><path
       style="opacity:1;fill:#000000;fill-opacity:1;stroke:#ffffff;stroke-width:0.576127;stroke-dasharray:none;stroke-opacity:1"
       d="m 99.034483,379.03448 14.068967,7.17242 h -0.27587 v 0"
       id="path53" /><path
       style="opacity:1;fill:#000000;fill-opacity:1;stroke:#ffffff;stroke-width:0.576127;stroke-dasharray:none;stroke-opacity:1"
       d="m 99.586208,382.89655 13.241372,5.51724"
       id="path54" /><path
       style="opacity:1;fill:#000000;fill-opacity:1;stroke:#ffffff;stroke-width:0.576127;stroke-dasharray:none;stroke-opacity:1"
       d="m 97.931034,390.06897 14.309816,-2.01184"
       id="path55"
       sodipodi:nodetypes="cc" /><path
       style="opacity:1;fill:#000000;fill-opacity:1;stroke:#ffffff;stroke-width:0.576127;stroke-dasharray:none;stroke-opacity:1"
       d="m 99.895555,375.5991 12.540355,15.93151"
       id="path56"
       sodipodi:nodetypes="cc" /><path
       style="opacity:1;fill:#000000;fill-opacity:1;stroke:#ffffff;stroke-width:0.576127;stroke-dasharray:none;stroke-opacity:1"
       d="m 99.034483,291.03448 12.689657,-6.06896"
       id="path57" /><path
       style="opacity:1;fill:#000000;fill-opacity:1;stroke:#ffffff;stroke-width:0.576127;stroke-dasharray:none;stroke-opacity:1"
       d="m 99.034483,288 12.471867,-8.28355"
       id="path58"
       sodipodi:nodetypes="cc" /><path
       style="opacity:1;fill:#000000;fill-opacity:1;stroke:#ffffff;stroke-width:0.576127;stroke-dasharray:none;stroke-opacity:1"
       d="m 94.620691,276.13793 16.716389,2.80133"
       id="path59"
       sodipodi:nodetypes="cc" /><path
       style="opacity:1;fill:#000000;fill-opacity:1;stroke:#ffffff;stroke-width:0.576127;stroke-dasharray:none;stroke-opacity:1"
       d="M 113.37931,272 99.586208,283.03448"
       id="path60" /><path
       style="opacity:1;fill:#000000;fill-opacity:1;stroke:#ffffff;stroke-width:0.576127;stroke-dasharray:none;stroke-opacity:1"
       d="m 98.206899,270.89655 14.620681,6.06897"
       id="path61" /><path
       style="opacity:1;fill:#000000;fill-opacity:1;stroke:#ffffff;stroke-width:0.576127;stroke-dasharray:none;stroke-opacity:1"
       d="m 114.2069,381.51724 -14.11321,-7.09623"
       id="path62"
       sodipodi:nodetypes="cc" /><path
       style="opacity:1;fill:#000000;fill-opacity:1;stroke:#ffffff;stroke-width:0.384003;stroke-dasharray:none;stroke-opacity:1"
       d="m 106.44032,298.27056 3.64987,-1.35809 1.27321,-1.61273"
       id="path63" /><path
       style="opacity:1;fill:#000000;fill-opacity:1;stroke:#ffffff;stroke-width:0.384003;stroke-dasharray:none;stroke-opacity:1"
       d="m 104.99735,299.54377 2.6313,-0.0849 2.80106,-1.86738"
       id="path64" /></g></svg>
