<?xml version="1.0" encoding="utf-8"?>
<!-- Generator: Adobe Illustrator 24.0.2, SVG Export Plug-In . SVG Version: 6.00 Build 0)  -->
<svg version="1.1" id="Layer_1" xmlns="http://www.w3.org/2000/svg" xmlns:xlink="http://www.w3.org/1999/xlink" x="0px" y="0px"
	 viewBox="0 0 150 150" style="enable-background:new 0 0 150 150;" xml:space="preserve">
<title>03-CULTURE-POLLEN</title>
<g id="Layer_2_1_">
	<g id="Layer_1-2">
		<path d="M147.9,57.5C138.2,17.2,97.8-7.6,57.5,2.1S-7.6,52.2,2,92.5s50.1,65.1,90.4,55.4c0,0,0,0,0,0
			C132.8,138.2,157.6,97.8,147.9,57.5z M90.1,138c-34.8,8.4-69.8-13-78.2-47.8s13-69.8,47.8-78.2s69.8,13,78.2,47.8c0,0,0,0,0,0.1
			C146.3,94.6,124.9,129.6,90.1,138z"/>
		<path d="M60.2,13.4c-34,8.2-55,42.4-46.8,76.4s42.4,55,76.4,46.8c34-8.2,55-42.4,46.8-76.4C128.4,26.2,94.2,5.2,60.2,13.4z
			 M75,116.2c-22.7,0-41.2-18.4-41.2-41.2S52.3,33.8,75,33.8s41.2,18.4,41.2,41.2C116.2,97.7,97.7,116.2,75,116.2z"/>
		<path d="M71.3,69.4c2.1-1.4,4.8-1.5,7-0.2c-0.2-4.1-0.6-8.1-1.4-12.1c-0.1-0.6-0.2-1.2-0.3-1.7c-0.6-2.7-0.7-5.5-0.3-8.3l0.1-0.4
			c0.3-1.4,1.6-2.4,3.1-2.4c1.7,0,3.1,1.4,3.1,3.1c0,1.8-1.5,3.2-3.2,3.1c-0.1,0-0.1,0-0.2,0l-1.9-0.2l0.1,1.9
			c0.1,1.3,0.3,2.7,0.5,4l0.3,1.3h1.3c1.3,0,2.7-0.3,3.9-0.8c1.2-0.5,2.3-1.2,3.2-2.2c4-4,4-10.4,0-14.4c-0.9-0.9-2-1.7-3.2-2.2
			C80.9,37,78,37,75.5,38c-2.4,1-4.4,3-5.4,5.4c-0.3,0.7-0.5,1.5-0.7,2.3c-0.2,1.1-0.3,2.2-0.3,3.3c-0.1,3.2,0.3,6.5,1,9.6
			C70.8,62.2,71.2,65.8,71.3,69.4z"/>
		<path d="M48.5,72.5c3,1.1,6.2,1.8,9.4,2.1c3.6,0.5,7.1,1.2,10.6,2.2c-0.2-0.6-0.2-1.2-0.3-1.8c0-1.9,0.8-3.7,2.2-5
			c-3.9-1.1-7.8-1.9-11.8-2.4c-0.6-0.1-1.2-0.1-1.8-0.2c-2.8-0.3-5.4-1.1-7.9-2.3l-0.3-0.2c-1.5-0.9-1.9-2.8-1-4.3
			c0.9-1.5,2.8-1.9,4.3-1c0.5,0.3,0.9,0.7,1.2,1.3c0.4,0.7,0.4,1.6,0.2,2.4c0,0.1-0.1,0.2-0.1,0.3l-0.8,1.7l1.8,0.5
			c1.3,0.3,2.7,0.6,4,0.8l1.3,0.1l0.4-1.2c0.4-1.3,0.6-2.6,0.5-4c-0.1-1.3-0.5-2.6-1.1-3.7c-1.2-2.4-3.3-4.2-5.9-5.1
			c-1.3-0.4-2.6-0.6-4-0.5c-1.3,0.1-2.6,0.5-3.7,1.1c-5,2.5-7,8.6-4.5,13.6c0.6,1.2,1.4,2.2,2.4,3.1c0.6,0.5,1.3,1,2,1.3
			C46.6,71.7,47.5,72.1,48.5,72.5z"/>
		<path d="M80.7,75c0-3.1-2.5-5.7-5.7-5.7c-3.1,0-5.7,2.5-5.7,5.7c0,3.1,2.5,5.7,5.7,5.7S80.7,78.1,80.7,75C80.7,75,80.7,75,80.7,75
			z"/>
		<path d="M100.9,60.5c-1.1,0.2-2.1,0.4-3.1,0.7c-3.1,1-6,2.3-8.8,4c-3.2,1.8-6.5,3.3-9.8,4.6c1.6,1.3,2.6,3.2,2.6,5.3
			c0,0.4,0,0.8-0.1,1.3c3.8-1.4,7.4-3.1,10.9-5.1c0.5-0.3,1-0.6,1.6-0.9c2.4-1.4,5-2.4,7.8-2.9h0.3c1.5-0.1,2.8,0.7,3.3,2.1
			c0.6,1.6-0.3,3.4-2,4c0,0,0,0,0,0c-1.7,0.5-3.4-0.3-4-2c0-0.1-0.1-0.2-0.1-0.3L99,69.3l-1.8,0.7c-1.3,0.5-2.5,1.1-3.7,1.8
			l-1.1,0.7l0.4,1.2c0.4,1.3,1.1,2.5,2,3.5c0.9,1,1.9,1.8,3.1,2.4c1.2,0.6,2.4,0.9,3.8,1h0.8c1.1,0,2.2-0.2,3.2-0.5
			c2.5-0.9,4.7-2.7,5.9-5.1c0.6-1.2,0.9-2.4,1-3.8c0.2-2.7-0.7-5.4-2.5-7.5c-1.7-2-4.2-3.2-6.8-3.4
			C102.5,60.2,101.7,60.3,100.9,60.5z"/>
		<path d="M96.9,94.8c-0.5-1-1-1.9-1.6-2.8c-1.9-2.6-4-5-6.5-7.1c-2.7-2.4-5.1-5.1-7.4-7.9c-0.8,2.4-2.9,4.2-5.4,4.6
			c2.5,3.1,5.2,5.9,8.1,8.6c0.5,0.4,0.9,0.8,1.3,1.2c2.1,1.8,3.9,4,5.2,6.5l0.1,0.3c0.6,1.3,0.2,2.9-1,3.8c-1.4,1-3.3,0.7-4.4-0.6
			c-0.5-0.7-0.7-1.5-0.5-2.4c0.1-0.8,0.5-1.5,1.2-2c0.1-0.1,0.2-0.1,0.3-0.2l1.6-1l-1.2-1.4c-0.9-1-1.8-2-2.8-2.9l-1-0.8l-1,0.8
			c-3.3,2.4-4.7,6.6-3.8,10.5c0.7,2.7,2.4,4.9,4.7,6.3c1.1,0.7,2.4,1.1,3.7,1.3c0.5,0.1,1,0.1,1.5,0.1c0.8,0,1.6-0.1,2.4-0.3
			c1.3-0.3,2.6-0.9,3.7-1.8c2.2-1.6,3.6-4,4-6.7c0.2-1.3,0.1-2.6-0.2-3.9C97.6,96.3,97.3,95.5,96.9,94.8z"/>
		<path d="M69,77.9c-2.2,3.3-4.1,6.8-5.7,10.5C63,89,62.8,89.5,62.6,90c-1.1,2.6-2.6,4.9-4.6,6.9l-0.3,0.3c-1.1,1-2.7,1-3.9,0.2
			c-1.4-1-1.8-3-0.7-4.4c0,0,0,0,0,0c1-1.4,2.9-1.7,4.4-0.8c0.1,0.1,0.2,0.1,0.2,0.2l1.4,1.2l1-1.6c0.7-1.1,1.3-2.3,1.9-3.6l0.5-1.2
			l-1.1-0.7c-1.1-0.8-2.4-1.3-3.7-1.6c-4-0.9-8.1,0.8-10.4,4.1c-0.8,1.1-1.3,2.4-1.6,3.7c-0.3,1.3-0.3,2.6-0.1,3.9
			c0.2,1.3,0.7,2.5,1.4,3.6c2.2,3.5,6.3,5.3,10.3,4.6c1.3-0.2,2.5-0.7,3.7-1.4c0.7-0.4,1.3-0.9,1.9-1.5c0.8-0.7,1.5-1.5,2.1-2.4
			c1.9-2.6,3.5-5.4,4.8-8.4c1.5-3.3,3.2-6.4,5.1-9.4C72.4,81.7,70.1,80.2,69,77.9z"/>
	</g>
</g>
</svg>
