<?xml version="1.0" encoding="utf-8"?>
<!-- Generator: Adobe Illustrator 24.0.2, SVG Export Plug-In . SVG Version: 6.00 Build 0)  -->
<svg version="1.1" id="Layer_1" xmlns="http://www.w3.org/2000/svg" xmlns:xlink="http://www.w3.org/1999/xlink" x="0px" y="0px"
	 viewBox="0 0 150 150" style="enable-background:new 0 0 150 150;" xml:space="preserve">
<title>07-CULTURE-AFRICA</title>
<g id="Layer_2_1_">
	<g id="Layer_1-2">
		<path d="M147.9,57.5C138.2,17.2,97.8-7.6,57.5,2.1S-7.6,52.2,2,92.5s50.1,65.1,90.4,55.4c0,0,0,0,0,0
			C132.8,138.2,157.6,97.8,147.9,57.5z M90.1,138c-34.8,8.4-69.8-13-78.2-47.8s13-69.8,47.8-78.2s69.8,13,78.2,47.8c0,0,0,0,0,0.1
			C146.3,94.6,124.9,129.6,90.1,138z"/>
		<path d="M28,42c-1.9,2.7-3.5,5.5-4.9,8.4h9.8L28,42z"/>
		<path d="M126.9,50.4c-1.4-2.9-3.1-5.7-4.9-8.4l-4.9,8.4L126.9,50.4z"/>
		<path d="M61.6,19.1c-11.1,2.7-21.2,8.6-28.9,17h84.6C103.2,20.8,81.9,14.3,61.6,19.1z"/>
		<path d="M129.6,57.3L87,131.2c0.5-0.1,1-0.2,1.4-0.3c30.9-7.4,49.9-38.4,42.5-69.3c0,0,0,0,0,0C130.5,60.1,130.1,58.7,129.6,57.3z
			"/>
		<path d="M69.9,132.2c3.4,0.3,6.8,0.3,10.1,0l-5.1-8.8L69.9,132.2z"/>
		<path d="M19.1,88.4c5.2,21.5,22.3,38.2,43.9,42.8l-42.7-74C17.1,67.3,16.6,78.1,19.1,88.4z"/>
		<polygon points="55,53.5 61.5,64.7 109,64.7 76.8,120.4 83.2,131.4 128.2,53.5 		"/>
		<polygon points="73.1,91.4 49.4,50.4 90.4,50.4 100.6,50.4 113.5,50.4 119.9,39.2 30,39.2 66.6,102.5 		"/>
		<polygon points="90.6,67.9 66.7,109.2 34.6,53.5 21.8,53.5 66.8,131.4 103.5,67.9 		"/>
		<path d="M76.2,77.3c0,1.8,1.5,3.3,3.3,3.3s3.3-1.5,3.3-3.3S81.4,74,79.6,74c0,0,0,0,0,0C77.7,74,76.2,75.5,76.2,77.3z"/>
		<path d="M67.2,77.3c0,1.8,1.5,3.3,3.3,3.3s3.3-1.5,3.3-3.3S72.4,74,70.5,74c0,0,0,0,0,0C68.7,74,67.2,75.5,67.2,77.3z"/>
		<path d="M75,66.3c-1.8,0-3.3,1.5-3.3,3.3s1.5,3.3,3.3,3.3s3.3-1.5,3.3-3.3c0,0,0,0,0,0C78.3,67.8,76.8,66.3,75,66.3z"/>
	</g>
</g>
</svg>
