<?xml version="1.0" encoding="utf-8"?>
<!-- Generator: Adobe Illustrator 24.0.2, SVG Export Plug-In . SVG Version: 6.00 Build 0)  -->
<svg version="1.1" id="Layer_1" xmlns="http://www.w3.org/2000/svg" xmlns:xlink="http://www.w3.org/1999/xlink" x="0px" y="0px"
	 viewBox="0 0 150 150" style="enable-background:new 0 0 150 150;" xml:space="preserve">
<title>04-CULTURE-BALKHAN</title>
<g id="Layer_2_1_">
	<g id="Layer_1-2">
		<path d="M84.5,114.4c21.8-5.2,35.2-27.1,30-48.9c-5.2-21.8-27.1-35.2-48.9-30s-35.2,27.1-30,48.9c0,0,0,0,0,0
			C40.8,106.2,62.7,119.6,84.5,114.4z M67.9,45.3c16.4-3.9,32.9,6.2,36.9,22.6c3.9,16.4-6.2,32.9-22.6,36.9
			c-16.4,3.9-32.9-6.2-36.9-22.6c0,0,0,0,0,0C41.4,65.7,51.5,49.3,67.9,45.3z"/>
		<path d="M147.9,57.5c-10.6-40-51.6-63.9-91.7-53.4C17.5,14.4-6.4,53.3,2.1,92.5C2.4,93.7,2.7,94.8,3,96l9.7-3
			c-0.3-1-0.5-1.9-0.8-2.9C3.6,55.3,25,20.2,59.8,11.8s69.9,13,78.3,47.9s-13,69.9-47.9,78.3c-22,5.3-45.1-1.2-61.1-17.2l-6.9,7.5
			c29.5,29.1,76.9,28.8,106.1-0.6C146.5,109.2,153.9,82.6,147.9,57.5L147.9,57.5z"/>
		<path d="M57.8,79.1L57.8,79.1l9.6-2.9c-0.7-4.2,2.1-8.2,6.3-8.9c4.2-0.7,8.2,2.1,8.9,6.3c0.4,2.3-0.3,4.6-1.8,6.4l7.3,6.8
			c6.6-7.2,6-18.4-1.2-25c-7.2-6.6-18.4-6-25,1.2C57.9,67.4,56.4,73.4,57.8,79.1L57.8,79.1z"/>
		<path d="M46.9,82.6l9.5-2.9l-0.1-0.2c-2.1-9,2.5-18.3,11.1-22l-4-9.2c-13,5.6-20.1,19.7-16.8,33.5C46.7,82.1,46.8,82.3,46.9,82.6z
			"/>
		<path d="M23,87.5c-6.9-28.7,10.8-57.5,39.5-64.4s57.5,10.8,64.4,39.5c6.9,28.7-10.8,57.5-39.5,64.4c-3.1,0.7-6.3,1.2-9.5,1.3v10
			c35-1.7,62-31.3,60.3-66.3c-1.7-35-31.3-62-66.3-60.3S10,43,11.7,78c0.2,4,0.7,7.9,1.7,11.8c0.2,1,0.5,1.9,0.8,2.8l9.5-2.9
			C23.4,89,23.2,88.2,23,87.5z"/>
		<path d="M91.9,113.4l4,9.2c26.3-11.6,38.2-42.2,26.7-68.5S80.4,15.8,54.1,27.4C31,37.5,18.5,62.7,24.4,87.1
			c0.2,0.7,0.4,1.4,0.6,2.1l9.6-2.9c-0.1-0.5-0.3-1-0.4-1.5c-5.4-22.5,8.4-45.2,31-50.7s45.2,8.4,50.7,31
			C120.6,84.9,110.5,105.2,91.9,113.4z"/>
	</g>
</g>
</svg>
