<svg xmlns="http://www.w3.org/2000/svg"  viewBox="0 0 151.6 150" style="enable-background:new 0 0 151.6 150" xml:space="preserve">



<path d="M69.015.285C55.231 1.418 41.695 6.6 30.399 15.068 6.386 33.07-4.579 63.705 2.558 92.855c4.977 20.324 18.294 37.706 36.762 47.983 9.625 5.356 22.61 8.993 32.105 8.993h2.859V140l-.821-.119c-.452-.065-2.169-.244-3.816-.397-8.769-.813-18.417-4.06-26.456-8.904-15.249-9.187-26.378-24.81-30.023-42.147-2.566-12.201-1.632-24.872 2.673-36.252C22.77 33.863 37.49 19.669 55.954 13.499c5.383-1.799 10.749-2.834 17.003-3.279 1.489-.106 2.338-.272 2.338-.456.001-.462 1.005-8.304 1.161-9.069L76.598 0l-2.483.035a91.194 91.194 0 0 0-5.1.25m7.796 4.858v5.143l3.726.149c9.24.369 17.53 2.612 26.215 7.093 12.479 6.438 22.257 16.442 28.433 29.089 3.008 6.161 4.904 12.099 5.933 18.586.567 3.576.781 12.696.387 16.564a64.089 64.089 0 0 1-18.875 39.294c-5.867 5.753-10.083 8.76-17.142 12.226-4.704 2.309-7.732 3.429-12.617 4.664-4.731 1.197-8.535 1.753-13.344 1.951-2.437.101-3.727.25-3.727.43-.001.49-1.01 8.341-1.151 8.961l-.137.598 5.76-.128c4.283-.096 6.528-.266 8.748-.662 12.594-2.248 23.911-7.276 33.898-15.061 3.026-2.359 8.731-7.932 11.311-11.048 10.265-12.401 16.089-27.25 17.156-43.747.59-9.105-.581-18.235-3.5-27.3-2.649-8.227-6.598-15.694-12.168-23.008-2.287-3.002-9.129-9.954-12.163-12.358C111.473 7.009 97.417 1.452 82.269.257 80.477.116 78.516 0 77.911 0h-1.1v5.143m-5.812 9.174c-14.577 1.427-27.023 7.113-37.236 17.012-14.946 14.485-21.386 34.943-17.439 55.393 4.633 24.004 23.347 43.041 47.222 48.037 2.655.555 4.979.871 9.538 1.293l1.2.112v-16.882l-.821-.126a56.974 56.974 0 0 0-2.464-.281c-3.599-.34-8.63-1.744-12.633-3.525-12.287-5.469-21.476-16.518-24.742-29.75-.975-3.948-1.283-6.535-1.283-10.772 0-8.471 2.479-16.882 6.969-23.644l.869-1.308-.947-1.846c-.853-1.662-.946-2.036-.941-3.777.007-2.264.725-4.113 2.256-5.807 2.581-2.857 7.505-3.368 10.634-1.103l.995.72 2.653-1.475c4.574-2.544 11.017-4.721 15.259-5.156.889-.091 1.762-.255 1.939-.365.208-.128.706-3.001 1.405-8.116.596-4.355 1.088-8.116 1.094-8.36.009-.371-.202-.435-1.316-.401-.729.022-1.724.079-2.211.127m5.812 8.099v8.344l2.589.181c6.151.43 11.33 1.857 16.992 4.683 13.934 6.953 22.83 20.266 24.16 36.156.768 9.176-1.7 19.018-6.712 26.765l-1.14 1.764.748 1.073c2.951 4.237.948 10.476-3.952 12.31-2.598.971-5.91.521-8.024-1.092l-.828-.632-.736.501c-1.612 1.097-6.286 3.291-9.012 4.231-3.101 1.069-6.885 1.91-10.248 2.277-1.155.126-2.13.269-2.167.319-.148.199-1.971 16.675-1.858 16.788.266.265 8.03-.457 11.192-1.041 15.347-2.834 28.947-11.406 38.219-24.088 16.176-22.125 15.391-52.781-1.899-74.192-2.272-2.814-6.837-7.357-9.573-9.527-9.732-7.719-22.276-12.48-34.277-13.011l-3.474-.153v8.344m0 29.246c0 14.943.065 18.794.315 18.707 1.158-.4 8.117-2.139 8.206-2.05.06.061-1.338 11.036-3.109 24.39-1.77 13.354-3.167 24.331-3.105 24.393.2.2 5.529-.59 7.597-1.126 4.054-1.051 8.114-2.729 11.333-4.685l1.496-.908-.563-1.058c-.799-1.5-.81-5.074-.02-6.787.818-1.774 2.383-3.321 4.17-4.123 2.036-.914 4.783-.981 6.636-.161.67.296 1.313.539 1.43.539.395 0 3.105-4.909 4.185-7.58 4.082-10.096 4.391-20.207.923-30.171-5.338-15.336-18.89-26.048-35.336-27.932-1.245-.142-2.69-.26-3.211-.261l-.947-.002v18.815M69.104 33.59c-5.262.936-10.49 2.898-14.549 5.46l-.939.593.543 1.087c.779 1.559.774 5.129-.011 6.831-.813 1.764-2.717 3.546-4.514 4.224-1.968.742-4.975.645-6.64-.214-1.282-.661-1.083-.815-2.909 2.247-2.349 3.937-4.161 8.897-5.122 14.023-.713 3.799-.658 10.885.113 14.739 2.745 13.714 11.172 24.592 23.615 30.484 4.294 2.033 9.452 3.476 13.715 3.836l1.878.159V98.451c0-10.235-.079-18.608-.176-18.608-.096 0-1.929.46-4.072 1.023s-4.029.989-4.19.948c-.208-.054.646-7.007 2.925-23.827 1.77-13.063 3.223-24.006 3.229-24.319.005-.313-.075-.559-.18-.548-.104.011-1.326.223-2.716.47m-25.14 4.836c-2.462 1.114-3.649 2.956-3.649 5.664 0 2.099.552 3.342 2.104 4.745 2.575 2.326 6.317 2.072 8.711-.591 3.641-4.049.82-10.333-4.639-10.333-.858 0-1.825.197-2.527.515m59.591 62.013c-2.14 1.114-3.305 3.136-3.285 5.7.012 1.562.523 2.728 1.808 4.121 1.366 1.482 2.755 2.017 4.889 1.881 3.952-.252 6.562-3.898 5.56-7.769-.453-1.753-1.406-2.975-3.017-3.868-1.697-.941-4.22-.969-5.955-.065" fill-rule="evenodd"/></svg>
