<?xml version="1.0" encoding="utf-8"?>
<!-- Generator: Adobe Illustrator 24.0.2, SVG Export Plug-In . SVG Version: 6.00 Build 0)  -->
<svg version="1.1" id="Layer_1" xmlns="http://www.w3.org/2000/svg" xmlns:xlink="http://www.w3.org/1999/xlink" x="0px" y="0px"
	 viewBox="0 0 150 150" style="enable-background:new 0 0 150 150;" xml:space="preserve">
<title>02-CULTURE-FRANKA</title>
<g id="Layer_2_1_">
	<g id="Layer_1-2">
		<path d="M147.9,57.5C138.2,17.2,97.8-7.6,57.5,2.1S-7.6,52.2,2,92.5s50.1,65.1,90.4,55.4c0,0,0,0,0,0
			C132.8,138.2,157.6,97.8,147.9,57.5z M90.1,138c-34.8,8.4-69.8-13-78.2-47.8s13-69.8,47.8-78.2s69.8,13,78.2,47.8c0,0,0,0,0,0.1
			C146.3,94.6,124.9,129.6,90.1,138z"/>
		<path d="M54.7,43.8c12.3-8.2,28.4-8.2,40.7,0c3.4-6.2,9.9-10,16.9-10c3.6,0,7.2,1,10.3,3c-21-26.2-59.4-30.4-85.6-9.4
			c-3.5,2.8-6.6,5.9-9.4,9.4c8.9-5.7,20.8-3.1,26.5,5.9C54.2,43,54.5,43.4,54.7,43.8z"/>
		<path d="M107.3,71.7c-1.6-0.4-3.1-1-4.5-1.8c-1.8,0.9-3.4,2.1-4.8,3.6c-0.5,0.5-0.9,1-1.1,1.6c0,0.2,0,0.4,0,0.6l0,0
			c-0.4,7.4-4.4,14-10.7,17.8c-0.4,0.6-0.6,1.2-0.8,1.8c-0.5,1.8-0.7,3.6-0.6,5.4c1.6,0.9,3,2,4.3,3.3c11.3-5.4,18.5-16.8,18.5-29.3
			C107.5,73.6,107.4,72.6,107.3,71.7z"/>
		<path d="M117.9,49.8c-1.1-2.2-3.4-3.5-5.9-3.4c-2,0.1-3.9,0.6-5.7,1.6c-2.6,1.3-5,2.8-7.3,4.6c-6.7,5-10.8,6-13.1,6
			c-0.4,0-0.8,0-1.2-0.1l-0.2,0l-0.2-0.1c-5.8-3.4-13-3.4-18.9,0l-0.2,0.1h-0.2c-0.4,0.1-0.7,0.1-1.1,0.1c-2.3,0-6.4-1-13.1-6
			c-2.3-1.7-4.7-3.3-7.3-4.5c-1.7-0.9-3.6-1.5-5.6-1.6c-3.8,0.1-6.8,3.2-6.8,7c0,0.6,0.1,1.3,0.3,1.9c0.8,2,2.2,3.7,4,4.9
			c2.6,1.8,5.4,3.4,8.4,4.6c5.8,2.5,8.8,4.9,10.3,6.4c0.9,0.8,1.6,1.9,2,3l0.1,0.2v0.2c0,6.7,3.6,12.9,9.3,16.3l0.2,0.1l0.2,0.2
			c0.8,0.9,1.3,2,1.6,3.2c0.6,2,1.1,5.8,0.4,12.1c-0.4,3.2-0.5,6.4-0.2,9.5c0.1,2.2,0.9,4.2,2.3,5.9c2.7,2.8,7.1,2.8,9.8,0.2
			c0.1-0.1,0.1-0.1,0.2-0.2c1.4-1.7,2.1-3.8,2.3-5.9c0.3-3.2,0.2-6.4-0.2-9.5c-0.7-6.3-0.2-10.1,0.4-12.1c0.3-1.2,0.8-2.2,1.6-3.2
			l0.2-0.2l0.2-0.1c5.6-3.2,9.1-9.1,9.4-15.5l0,0c0-0.3,0-0.5,0-0.8v-0.2l0.1-0.2c0.4-1.1,1-2.2,1.9-3c1.5-1.6,4.5-4,10.4-6.5
			c3-1.2,5.8-2.7,8.4-4.6c1.8-1.2,3.2-2.9,4-4.9C119.2,53.5,118.9,51.5,117.9,49.8z M75,84.3c-5.4,0-9.7-4.3-9.7-9.7
			c0-5.4,4.3-9.7,9.7-9.7c5.4,0,9.7,4.3,9.7,9.7c0,0,0,0,0,0C84.7,80,80.3,84.3,75,84.3z"/>
		<path d="M61,103.9c1.3-1.3,2.7-2.4,4.2-3.3c0-1.8-0.2-3.6-0.6-5.4c-0.2-0.7-0.4-1.3-0.8-1.8c-1.6-0.9-3-2.1-4.3-3.3
			c-4-4-6.3-9.5-6.4-15.2c-0.3-0.6-0.7-1.1-1.2-1.6c-1.4-1.4-3-2.5-4.8-3.5c-1.4,0.8-3,1.4-4.5,1.8c-0.1,1-0.1,2-0.1,3
			C42.5,87.2,49.7,98.5,61,103.9z"/>
		<path d="M55.4,117.6c0-3.5,1-7,2.8-10c-12.4-6.3-20.2-19-20.2-33c0-0.8,0-1.6,0.1-2.3h-0.3c-10.6,0-19.3-8.6-19.3-19.3
			c0-0.4,0-0.8,0.1-1.2c-12.8,31.2,2.1,66.8,33.2,79.6c4.9,2,10,3.4,15.3,4.1C60,132.3,55.5,125.3,55.4,117.6z"/>
		<path d="M131.5,53c0,10.6-8.6,19.2-19.2,19.2h-0.3c0.1,0.8,0.1,1.6,0.1,2.3c0,13.9-7.8,26.6-20.2,32.9c1.8,3,2.8,6.5,2.8,10
			c0,7.7-4.6,14.7-11.7,17.9c33.4-4.4,56.9-35,52.5-68.4c-0.7-5.2-2-10.3-4-15.2C131.4,52.2,131.5,52.6,131.5,53z"/>
		<path d="M56.4,48.1c0.4,1.6,0.6,3.3,0.6,4.9c3.8,2.2,6,2.5,7,2.5h0.3c6.7-3.7,14.8-3.7,21.4,0H86c0.9,0,3.1-0.3,7-2.5
			c0-1.7,0.2-3.3,0.7-4.9C82.5,40.1,67.5,40.1,56.4,48.1L56.4,48.1z"/>
	</g>
</g>
</svg>
