<?xml version="1.0" encoding="utf-8"?>
<!-- Generator: Adobe Illustrator 24.0.2, SVG Export Plug-In . SVG Version: 6.00 Build 0)  -->
<svg version="1.1" id="Layer_1" xmlns="http://www.w3.org/2000/svg" xmlns:xlink="http://www.w3.org/1999/xlink" x="0px" y="0px"
	 viewBox="0 0 150 150" style="enable-background:new 0 0 150 150;" xml:space="preserve">
<title>05-CULTURE-HYPRISPANIA</title>
<g id="Layer_2_1_">
	<g id="Layer_1-2">
		<path d="M75,10.5c-35.6,0-64.5,28.9-64.5,64.5s28.9,64.5,64.5,64.5s64.5-28.9,64.5-64.5c0,0,0,0,0-0.1
			C139.4,39.4,110.6,10.6,75,10.5z M123,43.9c-18.5-7.7-39.7-5.8-56.5,5.1c7.9-13.1,21.3-21.9,36.4-23.9
			C111,29.7,117.9,36.1,123,43.9z M90.8,75.1c0,8.7-7.1,15.8-15.8,15.8S59.2,83.8,59.2,75c0-8.7,7.1-15.8,15.8-15.8
			C83.7,59.3,90.8,66.3,90.8,75.1z M59.7,19.9c8.8-2.4,18-2.7,26.9-0.9c-18.4,7.5-31.9,23.6-36.2,43.1C47,47.3,50.4,31.8,59.7,19.9z
			 M43.7,27.1c-7.8,18.3-6.1,39.2,4.5,56C35.5,75.2,27,62,25,47.2C29.6,39.1,36,32.2,43.7,27.1L43.7,27.1z M17.8,75
			c0-3.9,0.4-7.7,1.2-11.5c7.6,18.6,23.9,32.2,43.6,36.2c-14.8,3.6-30.5,0.4-42.6-8.9C18.5,85.7,17.8,80.4,17.8,75z M27.4,106.8
			c7.4,3,15.2,4.6,23.2,4.6c11.4,0,22.7-3.2,32.3-9.3c-8,12.6-21.1,21-35.8,23C39.2,120.6,32.5,114.3,27.4,106.8L27.4,106.8z
			 M90.9,130c-8.9,2.6-18.4,2.9-27.5,1.1c18.4-7.6,31.9-23.7,36.2-43.1C103.1,102.6,99.9,118,90.9,130z M106.7,122.7
			c7.5-18.4,5.5-39.3-5.3-55.9c12.9,7.9,21.6,21.2,23.6,36.2C120.6,110.9,114.3,117.6,106.7,122.7L106.7,122.7z M88.5,50.6
			c14.5-3.2,29.7,0.1,41.6,9.1c2.4,8.8,2.7,18,0.9,26.9C123.6,68.4,107.7,55,88.5,50.6z"/>
		<path d="M75,0C33.6,0,0,33.6,0,75s33.6,75,75,75s75-33.6,75-75C150,33.6,116.4,0,75,0z M75,141.6c-36.7,0-66.5-29.8-66.5-66.5
			S38.2,8.5,75,8.5c36.7,0,66.5,29.8,66.5,66.5C141.5,111.7,111.7,141.5,75,141.6z"/>
		<path d="M75,87.4c6.9,0,12.4-5.5,12.4-12.4c0-6.9-5.5-12.4-12.4-12.4S62.6,68.2,62.6,75c0,0,0,0,0,0C62.6,81.9,68.2,87.4,75,87.4z
			 M75,70.3c2.6,0,4.7,2.1,4.7,4.7c0,2.6-2.1,4.7-4.7,4.7s-4.7-2.1-4.7-4.7c0,0,0,0,0,0C70.3,72.5,72.4,70.4,75,70.3z"/>
	</g>
</g>
</svg>
