<?xml version="1.0" encoding="utf-8"?>
<!-- Generator: Adobe Illustrator 24.0.2, SVG Export Plug-In . SVG Version: 6.00 Build 0)  -->
<svg version="1.1" id="Layer_1" xmlns="http://www.w3.org/2000/svg" xmlns:xlink="http://www.w3.org/1999/xlink" x="0px" y="0px"
	 viewBox="0 0 150 150" style="enable-background:new 0 0 150 150;" xml:space="preserve">
<title>06-CULTURE-PURGARE</title>
<g id="Layer_2_1_">
	<g id="Layer_1-2">
		<path d="M147.9,57.5C138.2,17.2,97.8-7.6,57.5,2.1S-7.6,52.2,2,92.5s50.1,65.1,90.4,55.4c0,0,0,0,0,0
			C132.8,138.2,157.6,97.8,147.9,57.5z M90.1,138c-34.8,8.4-69.8-13-78.2-47.8s13-69.8,47.8-78.2s69.8,13,78.2,47.8c0,0,0,0,0,0.1
			C146.3,94.6,124.9,129.6,90.1,138z"/>
		<path d="M87.1,19c15.8,6.7,23.1,24.9,16.5,40.6S78.7,82.8,62.9,76.1S39.8,51.3,46.4,35.5c3.1-7.4,9.1-13.3,16.5-16.5
			c-30.9,6.7-50.5,37.1-43.8,68s37.1,50.5,68,43.8c30.9-6.7,50.5-37.1,43.8-68C126.2,40.9,109,23.7,87.1,19z"/>
		<path d="M65.6,20.9C50.8,26.1,43.1,42.3,48.3,57s21.4,22.5,36.1,17.3s22.5-21.4,17.3-36.1c-2.9-8.1-9.2-14.5-17.3-17.3
			c8.5,5.2,11.2,16.3,6,24.8c-5.2,8.5-16.3,11.2-24.8,6s-11.2-16.3-6-24.8C61.1,24.5,63.1,22.4,65.6,20.9z"/>
		<path d="M75,51.9c5,0,9-4,9-9s-4-9-9-9s-9,4-9,9S70,51.9,75,51.9z"/>
	</g>
</g>
</svg>
