<?xml version="1.0" encoding="utf-8"?>
<!-- Generator: Adobe Illustrator 24.0.2, SVG Export Plug-In . SVG Version: 6.00 Build 0)  -->
<svg version="1.1" id="Layer_1" xmlns="http://www.w3.org/2000/svg" xmlns:xlink="http://www.w3.org/1999/xlink" x="0px" y="0px"
	 viewBox="0 0 79.4 180" style="enable-background:new 0 0 79.4 180;" xml:space="preserve">
<title>05-CULT-CLANNERS</title>
<g id="Layer_2_1_">
	<g id="Layer_1-2">
		<path d="M55,28.1c0-8.4-6.8-15.3-15.3-15.3c-8.4,0-15.3,6.8-15.3,15.3c0,8.4,6.8,15.3,15.2,15.3C48.1,43.4,55,36.6,55,28.1z
			 M35.6,28.1c0-2.3,1.8-4.1,4.1-4.1s4.1,1.8,4.1,4.1s-1.8,4.1-4.1,4.1C37.5,32.2,35.6,30.4,35.6,28.1
			C35.6,28.1,35.6,28.1,35.6,28.1L35.6,28.1z"/>
		<path d="M79.4,91.8V59.2L45.5,71.4V55.6c15.2-3.2,24.9-18.1,21.7-33.3C64,7.1,49-2.6,33.9,0.6S9,18.7,12.2,33.9
			C14.5,44.8,23,53.3,33.9,55.6v20.1l-22.2,8V63L0,67.3v33.1l33.9-12.3V125L0,137.2V180l11.7-4.2v-30.4L43,134.1l0,0l24.7-8.9v30.4
			l11.7-4.2v-42.8l-33.8,12.3V83.8l22.2-8V96L79.4,91.8z M22.8,28.1c0-9.3,7.5-16.9,16.9-16.9S56.6,18.7,56.6,28
			c0,9.3-7.5,16.9-16.9,16.9c0,0,0,0,0,0C30.4,45,22.8,37.4,22.8,28.1z"/>
	</g>
</g>
</svg>
