<?xml version="1.0" encoding="utf-8"?>
<!-- Generator: Adobe Illustrator 24.0.2, SVG Export Plug-In . SVG Version: 6.00 Build 0)  -->
<svg version="1.1" id="Layer_1" xmlns="http://www.w3.org/2000/svg" xmlns:xlink="http://www.w3.org/1999/xlink" x="0px" y="0px"
	 viewBox="0 0 150 150" style="enable-background:new 0 0 150 150;" xml:space="preserve">
<title>07-CULT-NEOLIBYANS</title>
<g id="Layer_2_1_">
	<g id="Layer_1-2">
		<path d="M75,0C33.6,0,0,33.6,0,75s33.6,75,75,75s75-33.6,75-75C150,33.6,116.4,0,75,0z M75,140.8c-36.3,0-65.8-29.5-65.8-65.8
			C9.2,38.7,38.7,9.2,75,9.2c36.3,0,65.8,29.5,65.8,65.8C140.7,111.3,111.3,140.7,75,140.8z"/>
		<polygon points="75,74.7 75,74.7 75,74.7 		"/>
		<path d="M93.6,31V18.6c-24.2-8-50.9,0.3-66.3,20.6l27.1-7.6v28L75,71.6l18.6-10.8V31z"/>
		<path d="M129.6,51.5l-7.3,28.7L96.7,65.4l-18.9,11v23.4l25.4,14.7l8.5,4.9l2,1.2C133.6,103.5,140.1,75.5,129.6,51.5L129.6,51.5z"
			/>
		<path d="M26.2,81l-8.5,4.9l-1.4,0.8c4.9,24.9,24.9,44,50.1,47.6l-20.1-19.6l25.9-15V76.3l-19-11L26.2,81z"/>
	</g>
</g>
</svg>
