<?xml version="1.0" encoding="utf-8"?>
<!-- Generator: Adobe Illustrator 24.0.2, SVG Export Plug-In . SVG Version: 6.00 Build 0)  -->
<svg version="1.1" id="Layer_1" xmlns="http://www.w3.org/2000/svg" xmlns:xlink="http://www.w3.org/1999/xlink" x="0px" y="0px"
	 viewBox="0 0 138.4 150" style="enable-background:new 0 0 138.4 150;" xml:space="preserve">
<title>10-CULT-JEHAMMEDANS</title>
<g id="Layer_2_1_">
	<g id="Layer_1-2">
		<path d="M138.4,19.7c-0.1-1.6-0.6-12-7.6-17.3c-3.6-2.7-10.2-3.3-20.5-0.8C99.2,4.3,85.8,12,76.6,17.9H61.8
			C52.6,12,39.3,4.3,28.1,1.6c-10.3-2.5-16.9-2-20.5,0.8C0.7,7.7,0.1,18.1,0.1,19.7c0,0.5-0.1,2.5,0,5.4c0.8,8.6,6,28.9,36.2,28.1
			c-4-1.6-7.7-3.9-10.9-6.8c-10.3-9.3-11.8-25-7.6-28.8c1-0.9,3.4-0.8,6.5-0.1C35.7,20.3,52.3,31,60.4,36.6l-3.9,4.2l4.5,4.8v79.9
			l-3.5,4.5l11.7,20l11.7-20l-3.5-4.5V45.6l4.5-4.8l0,0L78,36.6c8.1-5.7,24.8-16.3,36.2-19.1c3-0.7,5.5-0.8,6.5,0.1
			c4.1,3.7,2.6,19.5-7.6,28.8c-3.2,2.9-6.9,5.2-10.9,6.8c30.2,0.8,35.4-19.5,36.2-28.1C138.5,22.2,138.4,20.2,138.4,19.7z"/>
	</g>
</g>
</svg>
