<?xml version="1.0" encoding="utf-8"?>
<!-- Generator: Adobe Illustrator 24.0.2, SVG Export Plug-In . SVG Version: 6.00 Build 0)  -->
<svg version="1.1" id="Layer_1" xmlns="http://www.w3.org/2000/svg" xmlns:xlink="http://www.w3.org/1999/xlink" x="0px" y="0px"
	 viewBox="0 0 119.2 180" style="enable-background:new 0 0 119.2 180;" xml:space="preserve">
<title>12-ANABAPTISTS</title>
<g id="Layer_2_1_">
	<g id="Layer_1-2">
		<path d="M92.9,78.4c0.3-1,0.5-2,0.7-3l0.1-0.3c0.2-1,0.3-1.9,0.4-2.9h10.6l3.1,2.4l11.5-5.7l-11.5-5.7l-3.1,2.4H94
			c0-0.2,0-0.4-0.1-0.6s0-0.4-0.1-0.6c-0.1-0.9-0.3-1.7-0.4-2.6L93.2,61c-0.2-0.8-0.4-1.5-0.6-2.3c-0.1-0.3-0.2-0.6-0.3-0.9
			l10.6-6.7l-12.2,2.7c-0.3-0.5-0.5-1.1-0.8-1.6c0-0.1-0.1-0.2-0.2-0.3c-1-1.8-2.2-3.4-3.4-5l11-15.6l-15.6,11c-1.9-1.5-3.9-2.9-6-4
			l-0.2-0.1c-0.2-0.1-0.5-0.2-0.7-0.3l2.8-12.2l-6.6,10.6l0,0l0,0c-2.6-0.9-5.3-1.5-8-1.8V14.7l2.5-3.2L59.6,0l-5.7,11.4l2.5,3.2
			v51.1H31.7c0.1-1.3,0.4-2.5,0.7-3.7l-5.5-4.1c-0.9,2.5-1.4,5.2-1.7,7.9H14.6l-3.1-2.4L0,69l11.4,5.7l3.1-2.4h10.6
			c0,0.2,0,0.4,0,0.7l0.1,0.6c0.1,0.9,0.3,1.8,0.5,2.6c0.1,0.3,0.1,0.6,0.2,0.9c0.2,0.8,0.4,1.5,0.6,2.3c0.1,0.3,0.2,0.6,0.3,0.9
			L16.3,87l12.2-2.8c0.3,0.5,0.5,1.1,0.8,1.6c0,0.1,0.1,0.2,0.1,0.3c1,1.8,2.1,3.4,3.4,5l-11,15.6l15.6-11c1.9,1.5,3.9,2.9,6,4
			l0.2,0.1c0.2,0.1,0.5,0.2,0.7,0.3l-2.8,12.2l6.7-10.6c0.4,0.1,0.9,0.3,1.3,0.4l0.5,0.2c1,0.3,2,0.5,3,0.7l0.3,0.1
			c1,0.2,1.9,0.3,2.8,0.4l0.1,0.5v18.6l-3.5,3.6l3.5,3.7v35.4l-2.5,3.2l5.6,11.4l5.7-11.4l-2.5-3.2v-35.4l3.5-3.7l-3.5-3.7V104
			l0.1-0.5c0.2,0,0.4,0,0.6,0l0.6-0.1c0.9-0.1,1.7-0.3,2.6-0.4l1-0.2c0.8-0.2,1.5-0.4,2.2-0.6l0.9-0.3l6.7,10.6l-2.8-12.2
			c0.5-0.3,1.1-0.5,1.6-0.8l0.3-0.2c1.8-1,3.4-2.1,5-3.4l15.6,11l-11-15.6c1.5-1.9,2.9-3.9,4-6c0-0.1,0.1-0.1,0.1-0.2
			c0.1-0.2,0.2-0.5,0.3-0.7l12.1,2.7l-10.6-6.7c0.2-0.4,0.3-0.9,0.4-1.3L92.9,78.4z M62.8,41.1c2.4,0.3,4.7,0.9,7,1.7
			c0.5,0.2,1,0.5,1.6,0.7c0.3,0.2,0.7,0.3,1,0.5s0.7,0.4,1.1,0.6s0.9,0.5,1.4,0.8c0.1,0.1,0.2,0.2,0.4,0.3c2.9,1.9,5.4,4.4,7.4,7.2
			c0.3,0.4,0.5,0.8,0.8,1.2s0.4,0.7,0.6,1c1.7,3,2.9,6.4,3.4,9.8c0,0.1,0.1,0.3,0.1,0.4s0,0.3,0,0.4H62.8V41.1z M53.3,96.4
			c-0.4-0.1-0.8-0.2-1.3-0.3c-0.6-0.2-1.1-0.4-1.7-0.6c-0.3-0.1-0.7-0.2-1-0.3c-0.6-0.2-1.1-0.5-1.6-0.7c-0.3-0.2-0.7-0.3-1-0.4
			s-0.7-0.4-1.1-0.6s-0.9-0.5-1.3-0.8l-0.4-0.3c-2.9-1.9-5.4-4.4-7.3-7.2c-0.3-0.4-0.5-0.8-0.7-1.2s-0.5-0.7-0.7-1.1
			c-1.7-3-2.9-6.4-3.4-9.8c0-0.1,0-0.3-0.1-0.4s0-0.3,0-0.4h24.8V97l0,0c-0.5-0.1-1.1-0.1-1.6-0.2S53.8,96.5,53.3,96.4z M87,75.2
			c-0.1,0.5-0.2,0.9-0.3,1.4s-0.3,1-0.5,1.6c-0.1,0.4-0.2,0.7-0.4,1.1c-0.2,0.5-0.4,1-0.7,1.5s-0.3,0.7-0.5,1.1s-0.4,0.7-0.6,1
			s-0.5,1-0.8,1.4c-0.1,0.1-0.2,0.2-0.2,0.3c-1.9,2.9-4.4,5.4-7.2,7.4c-0.7,0.4-1.3,0.9-2,1.2c-0.1,0.1-0.1,0.1-0.2,0.2
			c-3.1,1.7-6.4,2.9-9.9,3.4h-0.3h-0.5V72.3h24.8c-0.1,0.5-0.1,1.1-0.2,1.6S87.1,74.7,87,75.2z"/>
	</g>
</g>
</svg>
