<?xml version="1.0" encoding="utf-8"?>
<!-- Generator: Adobe Illustrator 24.0.2, SVG Export Plug-In . SVG Version: 6.00 Build 0)  -->
<svg version="1.1" id="Layer_1" xmlns="http://www.w3.org/2000/svg" xmlns:xlink="http://www.w3.org/1999/xlink" x="0px" y="0px"
	 viewBox="0 0 61.6 180" style="enable-background:new 0 0 61.6 180;" xml:space="preserve">
<title>09-CULT-ANUBIANS</title>
<g id="Layer_2_1_">
	<g id="Layer_1-2">
		<path d="M44.6,0.2l-3,67.5c-3.5-0.8-7.2-1.2-10.8-1.2c-3.6,0-7.2,0.4-10.8,1.2L17,0L0,94.6l2.5,27.6l16.6,19.5l4.2,33.8l7.5,4.6
			l7.5-4.6l3.2-33.8l17.7-19.8l2.4-27.1L44.6,0.2z M9.9,116.3l13.4,7.4C12.9,128.8,9.9,116.3,9.9,116.3z M30.8,114.1
			c-3.6,0-6.4-2.9-6.4-6.5c0-3.6,2.9-6.4,6.5-6.4c3.6,0,6.4,2.9,6.4,6.5c0,0,0,0,0,0C37.2,111.2,34.4,114.1,30.8,114.1z M38.3,123.7
			l13.4-7.4C51.7,116.3,48.7,128.8,38.3,123.7z"/>
		<path d="M30.8,102.8c-2.7,0-4.9,2.2-4.9,4.9c0,2.7,2.2,4.9,4.9,4.9s4.9-2.2,4.9-4.9S33.5,102.8,30.8,102.8L30.8,102.8z"/>
	</g>
</g>
</svg>
