<?xml version="1.0" encoding="utf-8"?>
<!-- Generator: Adobe Illustrator 24.0.2, SVG Export Plug-In . SVG Version: 6.00 Build 0)  -->
<svg version="1.1" id="Layer_1" xmlns="http://www.w3.org/2000/svg" xmlns:xlink="http://www.w3.org/1999/xlink" x="0px" y="0px"
	 viewBox="0 0 150 82.5" style="enable-background:new 0 0 150 82.5;" xml:space="preserve">
<title>11-CULT-APOCALYPTICS</title>
<g id="Layer_2_1_">
	<g id="Layer_1-2">
		<polygon points="142.8,23.5 150,15.8 84.6,15.8 73.3,0 42.5,0 62.6,9.8 62.7,15.8 55.2,15.8 51.9,15.8 0,15.8 7.2,23.5 31.3,23.5 
			34.6,26.6 10.1,26.6 17.3,34.2 42.8,34.2 46.1,37.3 20.2,37.3 27.4,45 54.3,45 57.6,48.1 30.4,48.1 37.5,55.8 53,55.8 61.2,55.8 
			56.2,69.7 75,82.5 93.8,69.7 88.8,55.8 97,55.8 112.4,55.8 119.7,48.1 92.4,48.1 95.7,45 122.6,45 129.8,37.3 103.9,37.3 
			107.2,34.2 132.7,34.2 139.9,26.6 115.4,26.6 118.7,23.5 		"/>
	</g>
</g>
</svg>
