<?xml version="1.0" encoding="utf-8"?>
<!-- Generator: Adobe Illustrator 24.0.2, SVG Export Plug-In . SVG Version: 6.00 Build 0)  -->
<svg version="1.1" id="Layer_1" xmlns="http://www.w3.org/2000/svg" xmlns:xlink="http://www.w3.org/1999/xlink" x="0px" y="0px"
	 viewBox="0 0 150 82.6" style="enable-background:new 0 0 150 82.6;" xml:space="preserve">
<title>02-CULT-CHRONICLERS</title>
<g id="Layer_2_1_">
	<g id="Layer_1-2">
		<rect x="62.3" width="5.3" height="82.6"/>
		<rect x="56" width="2.7" height="82.6"/>
		<rect x="47.3" width="2.7" height="82.6"/>
		<rect x="37.4" width="2.7" height="82.6"/>
		<rect x="27.6" width="3.4" height="82.6"/>
		<rect x="20.4" width="3.4" height="82.6"/>
		<rect x="12.9" width="5" height="82.6"/>
		<rect width="10.4" height="82.6"/>
		<path d="M69.8,24.7c1-2.7,2.6-5.2,4.7-7.1c0.2-0.2,0.4-0.4,0.6-0.5V0h-5.3V24.7z"/>
		<polygon points="69.8,73 75.1,64.5 75.1,28 69.8,28 		"/>
		<path d="M120.2,7.1h1.2c0.2,0,0.3,0.1,0.3,0.2v30.3c0,0.1-0.1,0.3-0.2,0.3c0,0-0.1,0-0.1,0h-1.2v44.6h8.4V36.9
			c-2.3-1.4-3.8-4-3.8-6.7V15c0-2.1,0.8-4.1,2.3-5.6c0.4-0.5,0.9-0.9,1.5-1.2V0h-8.4V7.1z"/>
		<path d="M108.4,82.6h7.1V15.4l-2.1,2.2c-0.2,0.1-0.3,0.1-0.3-0.1v-5.9l2.4-2.6V0h-7.1V82.6z"/>
		<path d="M131.5,0v7.1c0.3-0.1,0.7-0.1,1-0.1c2-0.1,4,0.7,5.4,2.1c1.1,1.1,2,2.5,2.3,4c0.1,0.3,0,0.5-0.3,0.5h-4.2
			c-0.5-1.3-1.8-2.1-3.2-2.1c-0.4,0-0.8,0.1-1.1,0.2v6.3l0,0l1-0.1c2.1-0.2,4.1,0.6,5.5,2.1c1.5,1.5,2.4,3.6,2.4,5.7v4.3
			c0,1.8-0.6,3.6-1.8,5.1c-1.2,1.5-2.9,2.5-4.7,2.8c-0.2,0-0.3,0-0.3-0.3v-4.3c1.5-0.4,2.5-1.8,2.4-3.3v-4.3c0-0.9-0.3-1.8-1.1-2.5
			c-0.6-0.6-1.5-0.9-2.4-0.9c-0.4,0-0.7,0.1-1.1,0.3l0,0v59.8H150V0H131.5z"/>
		<path d="M96.9,15.4c1.3,0.8,2.5,1.9,3.5,3c3,3.3,4.6,7.6,4.5,12c0.1,3.3-0.8,6.6-2.5,9.5l-5.6,9v25.7h7.2c0.4,0,0.6,0.2,0.6,0.5
			v7.5h2V0h-9.8V15.4z"/>
		<path d="M81,82.6h4.7v-7.5c0-0.3,0.1-0.5,0.4-0.5c0,0,0.1,0,0.1,0h5.9V56.4L81,74.4V82.6z"/>
		<path d="M77.3,15.4c2-1.5,4.4-2.4,6.9-2.7c0.3,0,0.5,0.1,0.5,0.4c0,0,0,0.1,0,0.1v9.1c0,0.5-0.1,0.9-0.4,0.9c-2,0.7-3.6,2.1-4.4,4
			c-0.2,0.5-0.4,0.7-0.6,0.7h-1.9v33.2l14.9-23.8V24.3c-0.8-0.6-1.6-1-2.5-1.4v-9.5c0-0.6,0.3-0.9,0.8-0.7s1.1,0.3,1.7,0.4V0H77.3
			V15.4z"/>
	</g>
</g>
</svg>
