<?xml version="1.0" encoding="utf-8"?>
<!-- Generator: Adobe Illustrator 24.0.2, SVG Export Plug-In . SVG Version: 6.00 Build 0)  -->
<svg version="1.1" id="Layer_1" xmlns="http://www.w3.org/2000/svg" xmlns:xlink="http://www.w3.org/1999/xlink" x="0px" y="0px"
	 viewBox="0 0 83.1 180" style="enable-background:new 0 0 83.1 180;" xml:space="preserve">
<title>04-CULT-JUDGES</title>
<g id="Layer_2_1_">
	<g id="Layer_1-2">
		<polygon points="69.9,133.6 69.9,140.4 63,133.6 42.6,133.6 40.5,133.6 20.1,133.6 13.2,140.4 13.2,133.6 0,133.6 0,146.2 
			0,167.3 0,180 13.2,180 13.2,173.1 20.1,180 40.5,180 42.6,180 63,180 69.9,173.1 69.9,180 83.1,180 83.1,167.3 83.1,146.2 
			83.1,133.6 		"/>
		<polygon points="47.5,8.6 52.2,0 30.9,0 35.6,8.6 		"/>
		<polygon points="35.7,120.8 47.4,120.8 47.4,108.5 47.4,108.5 52.2,102.2 52.2,102.2 47.4,95.9 47.4,10.7 35.7,10.7 35.7,95.9 
			30.9,102.2 35.7,108.5 		"/>
		<polygon points="47.5,122.9 35.6,122.9 30.9,131.5 52.2,131.5 		"/>
	</g>
</g>
</svg>
