<?xml version="1.0" encoding="utf-8"?>
<!-- Generator: Adobe Illustrator 24.0.2, SVG Export Plug-In . SVG Version: 6.00 Build 0)  -->
<svg version="1.1" id="Layer_1" xmlns="http://www.w3.org/2000/svg" xmlns:xlink="http://www.w3.org/1999/xlink" x="0px" y="0px"
	 viewBox="0 0 150 150" style="enable-background:new 0 0 150 150;" xml:space="preserve">
<title>13-CULT-PALERS</title>
<g id="Layer_2_1_">
	<g id="Layer_1-2">
		<path d="M75,58.8c-14.3,0-26.6,8.1-32.8,16.2c6.2,8.1,18.5,16.2,32.8,16.2s26.6-8.1,32.8-16.2C101.6,66.9,89.3,58.8,75,58.8z
			 M75,87c-6.6,0-12-5.4-12-12s5.4-12,12-12s12,5.4,12,12S81.6,87,75,87z"/>
		<path d="M75,23.9c-28.2,0-51.1,22.9-51.1,51.1s22.9,51.1,51.1,51.1s51.1-22.9,51.1-51.1l0,0C126,46.8,103.2,24,75,23.9z M115.2,75
			l-1.1,1.7c-6.5,9.9-21.5,20.7-39.1,20.7S42.4,86.6,35.9,76.7L34.8,75l1.1-1.7c6.5-10,21.5-20.7,39.1-20.7s32.6,10.7,39.1,20.7
			L115.2,75z"/>
		<path d="M112.5,10.1L94.2,20.9c6.6,2.4,12.7,5.9,18,10.5L112.5,10.1z"/>
		<path d="M85.4,18.5L75,0L64.6,18.5C71.5,17.2,78.5,17.2,85.4,18.5z"/>
		<path d="M55.8,20.9L37.5,10l0.2,21.3C43.1,26.7,49.2,23.2,55.8,20.9z"/>
		<path d="M31.3,37.7L10,37.5l10.9,18.3C23.2,49.2,26.8,43.1,31.3,37.7z"/>
		<path d="M150,75l-18.5-10.4c1.3,6.9,1.3,14,0,20.9L150,75z"/>
		<path d="M140,37.5l-21.3,0.2c4.6,5.3,8.1,11.4,10.5,18L140,37.5z"/>
		<path d="M64.6,131.5L75,150l10.4-18.5C78.5,132.8,71.5,132.8,64.6,131.5z"/>
		<path d="M17.5,75c0-3.5,0.4-7,1-10.4L0,75l18.5,10.4C17.9,82,17.6,78.5,17.5,75z"/>
		<path d="M94.2,129.1l18.3,10.9l-0.2-21.3C106.9,123.3,100.8,126.8,94.2,129.1z"/>
		<path d="M118.7,112.3l21.3,0.2l-10.8-18.3C126.8,100.8,123.2,106.9,118.7,112.3z"/>
		<path d="M10,112.5l21.3-0.2c-4.6-5.3-8.1-11.4-10.5-18L10,112.5z"/>
		<path d="M37.5,140l18.3-10.8c-6.6-2.4-12.7-5.9-18-10.4L37.5,140z"/>
		<path d="M75,72.5c-1.4,0-2.5,1.1-2.5,2.5c0,1.4,1.1,2.5,2.5,2.5s2.5-1.1,2.5-2.5c0,0,0,0,0,0C77.5,73.6,76.4,72.5,75,72.5z"/>
	</g>
</g>
</svg>
