<?xml version="1.0" encoding="utf-8"?>
<!-- Generator: Adobe Illustrator 24.0.2, SVG Export Plug-In . SVG Version: 6.00 Build 0)  -->
<svg version="1.1" id="Layer_1" xmlns="http://www.w3.org/2000/svg" xmlns:xlink="http://www.w3.org/1999/xlink" x="0px" y="0px"
	 viewBox="0 0 103 150" style="enable-background:new 0 0 103 150;" xml:space="preserve">
<title>08-CULT-SCOURGERS</title>
<g id="Layer_2_1_">
	<g id="Layer_1-2">
		<polygon points="54.2,119 49.9,119 35.3,119 24.5,129.8 78.5,129.8 67.8,119 		"/>
		<polygon points="33.1,150 49.9,150 54.2,150 69.9,150 78.5,131.7 24.5,131.7 		"/>
		<path d="M103,75l-3.2-6.8V26.9c0,0-7.9-26.6-48-26.9h-0.4C11.1,0.2,3.2,26.9,3.2,26.9v41.4L0,75l7.2,1.8l-3.8,7l13.2,14.3L35.3,96
			v21.1h32.5V96l18.6,2.2l13.2-14.3l-3.8-7L103,75z M17,78.2l24.6,5.6C25.5,92.9,17.1,78.2,17,78.2L17,78.2z M55,102.8l-3.6-5.2
			l-3.6,5.2L46.2,96l5.3-9.5l5.4,9.5L55,102.8z M61.3,83.8L86,78.1C86,78.1,77.6,92.8,61.3,83.8L61.3,83.8z"/>
	</g>
</g>
</svg>
