<?xml version="1.0" encoding="utf-8"?>
<!-- Generator: Adobe Illustrator 18.1.0, SVG Export Plug-In . SVG Version: 6.00 Build 0)  -->
<svg version="1.1" id="Calque_1" xmlns="http://www.w3.org/2000/svg" xmlns:xlink="http://www.w3.org/1999/xlink" x="0px" y="0px"
	 viewBox="0 0 164 14" enable-background="new 0 0 164 14" xml:space="preserve">
<g>
	<g>
		<defs>
			<rect id="SVGID_1_" x="-0.5" width="166.7" height="14"/>
		</defs>
		<clipPath id="SVGID_2_">
			<use xlink:href="#SVGID_1_"  overflow="visible"/>
		</clipPath>
		<path clip-path="url(#SVGID_2_)" fill="#010202" d="M64.2,14l94-0.1l0.2-0.1l5.5-6.9l-0.3-0.4l-5.3-6.5L158.1,0H64.2l5.6,7
			c-1.7,2-3.3,4.1-5,6.1L64.2,14z"/>
	</g>
	<g>
		<defs>
			<rect id="SVGID_3_" x="-0.5" width="166.7" height="14"/>
		</defs>
		<clipPath id="SVGID_4_">
			<use xlink:href="#SVGID_3_"  overflow="visible"/>
		</clipPath>
		<path clip-path="url(#SVGID_4_)" fill="none" stroke="#010202" stroke-width="0.25" stroke-miterlimit="10" d="M64.2,14l94-0.1
			l0.2-0.1l5.5-6.9l-0.3-0.4l-5.3-6.5L158.1,0H64.2l5.6,7c-1.7,2-3.3,4.1-5,6.1L64.2,14z"/>
	</g>
	<g>
		<defs>
			<rect id="SVGID_5_" x="-1.4" y="0" width="165.1" height="14"/>
		</defs>
		<clipPath id="SVGID_6_">
			<use xlink:href="#SVGID_5_"  overflow="visible"/>
		</clipPath>
		<path clip-path="url(#SVGID_6_)" fill="#010202" d="M98.9,14.1L5.8,14l-0.2-0.1L0.2,7.1l0.3-0.4l5.2-6.5L5.9,0h93l-5.6,7
			c1.6,2,3.3,4.1,4.9,6.1L98.9,14.1z"/>
	</g>
	<g>
		<defs>
			<rect id="SVGID_7_" x="-0.5" y="1.1" width="167.7" height="12.9"/>
		</defs>
		<clipPath id="SVGID_8_">
			<use xlink:href="#SVGID_7_"  overflow="visible"/>
		</clipPath>
		<path clip-path="url(#SVGID_8_)" fill="none" stroke="#010202" stroke-width="0.25" stroke-miterlimit="10" d="M101.4,14L6.8,13.9
			l-0.2-0.1L1.1,7.6l0.3-0.4l5.3-5.9l0.2-0.2h94.5l-5.7,6.4c1.7,1.8,3.3,3.7,5,5.6L101.4,14z"/>
	</g>
</g>
</svg>
