<?xml version="1.0" encoding="utf-8"?>
<!-- Generator: Adobe Illustrator 18.1.0, SVG Export Plug-In . SVG Version: 6.00 Build 0)  -->
<svg version="1.1" id="Calque_1" xmlns="http://www.w3.org/2000/svg" xmlns:xlink="http://www.w3.org/1999/xlink" x="0px" y="0px"
	 viewBox="0 0 197 14" enable-background="new 0 0 197 14" xml:space="preserve">
<g>
	<defs>
		<rect id="SVGID_1_" x="-1.8" width="201.5" height="14.1"/>
	</defs>
	<clipPath id="SVGID_2_">
		<use xlink:href="#SVGID_1_"  overflow="visible"/>
	</clipPath>
	<path clip-path="url(#SVGID_2_)" d="M76.4,14.1L190,14l0.3-0.1l6.7-6.9l-0.4-0.4l-6.4-6.5L189.9,0H76.4l6.8,7c-2,2-4,4.1-6,6.1
		L76.4,14.1z"/>
	<path clip-path="url(#SVGID_2_)" fill="none" stroke="#000000" stroke-width="0.25" stroke-miterlimit="10" d="M76.4,14.1L190,14
		l0.3-0.1l6.7-6.9l-0.4-0.4l-6.4-6.5L189.9,0H76.4l6.8,7c-2,2-4,4.1-6,6.1L76.4,14.1z"/>
	<path clip-path="url(#SVGID_2_)" d="M120.6,14.1L7,14l-0.3-0.1L0.1,7.1l0.4-0.4l6.4-6.5L7.1,0h113.5l-6.8,7c2,2,4,4.1,6,6.1
		L120.6,14.1z"/>
	<path clip-path="url(#SVGID_2_)" fill="none" stroke="#000000" stroke-width="0.25" stroke-miterlimit="10" d="M120.6,14.1L7,14
		l-0.3-0.1L0.1,7.1l0.4-0.4l6.4-6.5L7.1,0h113.5l-6.8,7c2,2,4,4.1,6,6.1L120.6,14.1z"/>
</g>
</svg>
