<?xml version="1.0" encoding="UTF-8" standalone="no"?>
<!DOCTYPE svg PUBLIC "-//W3C//DTD SVG 1.1//EN" "http://www.w3.org/Graphics/SVG/1.1/DTD/svg11.dtd">
<svg width="100%" height="100%" viewBox="0 0 197 14" version="1.1" xmlns="http://www.w3.org/2000/svg" xmlns:xlink="http://www.w3.org/1999/xlink" xml:space="preserve" xmlns:serif="http://www.serif.com/" style="fill-rule:evenodd;clip-rule:evenodd;stroke-linejoin:round;stroke-miterlimit:2;">
    <g>
        <path d="M76.4,14.1L190,14L190.3,13.9L197,7L196.6,6.6L190.2,0.1L189.9,0L76.4,0L83.2,7C81.2,9 79.2,11.1 77.2,13.1L76.4,14.1Z" style="fill:rgb(131,117,78);fill-rule:nonzero;"/>
        <path d="M76.4,14.1L190,14L190.3,13.9L197,7L196.6,6.6L190.2,0.1L189.9,0L76.4,0L83.2,7C81.2,9 79.2,11.1 77.2,13.1L76.4,14.1Z" style="fill:none;fill-rule:nonzero;"/>
        <path d="M120.6,14.1L7,14L6.7,13.9L0.1,7.1L0.5,6.7L6.9,0.2L7.1,0L120.6,0L113.8,7C115.8,9 117.8,11.1 119.8,13.1L120.6,14.1Z" style="fill:rgb(131,117,78);fill-rule:nonzero;"/>
        <path d="M120.6,14.1L7,14L6.7,13.9L0.1,7.1L0.5,6.7L6.9,0.2L7.1,0L120.6,0L113.8,7C115.8,9 117.8,11.1 119.8,13.1L120.6,14.1Z" style="fill:none;fill-rule:nonzero;"/>
    </g>
</svg>
