<svg xmlns="http://www.w3.org/2000/svg" viewBox="0 0 256 256"><defs><style>.cls-1,.cls-3{stroke:#fff;}.cls-1,.cls-2{stroke-miterlimit:10;}.cls-1,.cls-2,.cls-3{stroke-width:2px;}.cls-2,.cls-4{fill:#fff;}.cls-2{stroke:#000;}.cls-3{fill:none;stroke-linecap:round;stroke-linejoin:round;}</style></defs><g id="oils"><path class="cls-1" d="M67.71,78.09V233.7A15.5,15.5,0,0,1,63,244.79,16,16,0,0,1,35.83,233.7V78.09C35.83,83.25,67.71,83.25,67.71,78.09Z"/><path class="cls-2" d="M67.71,53.56V78.09c0,5.16-31.88,5.16-31.88,0V53.56a1.89,1.89,0,0,1,1.89-1.89h28.1A1.89,1.89,0,0,1,67.71,53.56Z"/><path class="cls-1" d="M69.19,19.8V51.5a.85.85,0,0,1-.85.85H66.88a.85.85,0,0,0-.84.84v1.89a.85.85,0,0,1-.85.85H38.34a.85.85,0,0,1-.84-.85V53.19a.85.85,0,0,0-.85-.84H35.19a.85.85,0,0,1-.84-.85V19.8a.85.85,0,0,1,.84-.84h1.46a.85.85,0,0,0,.85-.85V14.67a.85.85,0,0,1,.84-.84H65.19a.85.85,0,0,1,.85.84v3.44a.85.85,0,0,0,.84.85h1.46A.85.85,0,0,1,69.19,19.8Z"/><line class="cls-3" x1="51.74" y1="21.88" x2="51.74" y2="48.3"/><line class="cls-3" x1="41.72" y1="21.88" x2="41.72" y2="48.3"/><line class="cls-3" x1="56.75" y1="21.88" x2="56.75" y2="48.3"/><line class="cls-3" x1="46.73" y1="21.88" x2="46.73" y2="48.3"/><line class="cls-3" x1="61.75" y1="21.88" x2="61.75" y2="48.3"/><ellipse class="cls-4" cx="49.46" cy="92.57" rx="1.19" ry="0.53"/><ellipse class="cls-4" cx="56.04" cy="119.04" rx="1.23" ry="0.24"/><circle class="cls-4" cx="45.74" cy="148.55" r="0.77"/><circle class="cls-4" cx="54.52" cy="135.9" r="0.56"/><circle class="cls-4" cx="46.24" cy="112.43" r="0.51"/><circle class="cls-4" cx="55.56" cy="178.17" r="0.48"/><circle class="cls-4" cx="43.2" cy="206.25" r="0.56"/><circle class="cls-4" cx="55.56" cy="193.17" r="0.48"/><path class="cls-1" d="M171.79,78.09V233.7c0,4.33-2.38,8.25-6.19,11.09a24.85,24.85,0,0,1-14.73,4.59c-11.37,0-20.93-7-20.93-15.68V78.09C129.94,83.25,171.79,83.25,171.79,78.09Z"/><path class="cls-2" d="M171.79,53.56V78.09c0,5.16-41.85,5.16-41.85,0V53.56a2.26,2.26,0,0,1,2.48-1.89h36.89A2.24,2.24,0,0,1,171.79,53.56Z"/><path class="cls-1" d="M173.74,19.8V51.5a1,1,0,0,1-1.11.85h-1.92a1,1,0,0,0-1.11.84v1.89a1,1,0,0,1-1.1.85H133.24a1,1,0,0,1-1.1-.85V53.19a1,1,0,0,0-1.11-.84h-1.92A1,1,0,0,1,128,51.5V19.8a1,1,0,0,1,1.11-.84H131a1,1,0,0,0,1.11-.85V14.67a1,1,0,0,1,1.1-.84H168.5a1,1,0,0,1,1.1.84v3.44a1,1,0,0,0,1.11.85h1.92A1,1,0,0,1,173.74,19.8Z"/><line class="cls-3" x1="150.83" y1="21.88" x2="150.83" y2="48.3"/><line class="cls-3" x1="137.68" y1="21.88" x2="137.68" y2="48.3"/><line class="cls-3" x1="157.4" y1="21.88" x2="157.4" y2="48.3"/><line class="cls-3" x1="144.25" y1="21.88" x2="144.25" y2="48.3"/><line class="cls-3" x1="163.98" y1="21.88" x2="163.98" y2="48.3"/><ellipse class="cls-4" cx="147.84" cy="92.57" rx="1.57" ry="0.53"/><ellipse class="cls-4" cx="156.48" cy="119.04" rx="1.61" ry="0.24"/><ellipse class="cls-4" cx="142.95" cy="148.55" rx="1.02" ry="0.77"/><ellipse class="cls-4" cx="154.48" cy="135.9" rx="0.73" ry="0.56"/><ellipse class="cls-4" cx="143.62" cy="112.43" rx="0.67" ry="0.51"/><ellipse class="cls-4" cx="155.85" cy="178.17" rx="0.64" ry="0.48"/><ellipse class="cls-4" cx="139.62" cy="206.25" rx="0.73" ry="0.56"/><ellipse class="cls-4" cx="155.85" cy="193.17" rx="0.64" ry="0.48"/><path class="cls-1" d="M109.81,109.56v127a12.68,12.68,0,0,1-3.85,9,13,13,0,0,1-22.17-9v-127C83.79,113.77,109.81,113.77,109.81,109.56Z"/><path class="cls-2" d="M109.81,89.54v20c0,4.21-26,4.21-26,0v-20A1.54,1.54,0,0,1,85.33,88h22.94A1.54,1.54,0,0,1,109.81,89.54Z"/><path class="cls-1" d="M111,62V87.87a.68.68,0,0,1-.69.68h-1.19a.69.69,0,0,0-.69.69v1.55a.69.69,0,0,1-.69.69H85.84a.69.69,0,0,1-.69-.69V89.24a.69.69,0,0,0-.69-.69H83.27a.68.68,0,0,1-.69-.68V62a.69.69,0,0,1,.69-.69h1.19a.69.69,0,0,0,.69-.69V57.8a.69.69,0,0,1,.69-.69h21.92a.69.69,0,0,1,.69.69v2.81a.69.69,0,0,0,.69.69h1.19A.69.69,0,0,1,111,62Z"/><line class="cls-3" x1="96.77" y1="63.68" x2="96.77" y2="85.25"/><line class="cls-3" x1="88.6" y1="63.68" x2="88.6" y2="85.25"/><line class="cls-3" x1="100.86" y1="63.68" x2="100.86" y2="85.25"/><line class="cls-3" x1="92.69" y1="63.68" x2="92.69" y2="85.25"/><line class="cls-3" x1="104.95" y1="63.68" x2="104.95" y2="85.25"/><ellipse class="cls-4" cx="94.92" cy="121.38" rx="0.97" ry="0.43"/><ellipse class="cls-4" cx="100.29" cy="142.99" rx="1" ry="0.2"/><circle class="cls-4" cx="91.88" cy="167.08" r="0.63"/><circle class="cls-4" cx="99.04" cy="156.75" r="0.45"/><circle class="cls-4" cx="92.29" cy="137.6" r="0.41"/><circle class="cls-4" cx="99.89" cy="191.25" r="0.39"/><circle class="cls-4" cx="89.8" cy="214.18" r="0.45"/><circle class="cls-4" cx="99.89" cy="203.5" r="0.39"/><path class="cls-1" d="M217.42,83V210a12.64,12.64,0,0,1-3.85,9.05A13,13,0,0,1,191.4,210V83C191.4,87.19,217.42,87.19,217.42,83Z"/><path class="cls-2" d="M217.42,63V83c0,4.21-26,4.21-26,0V63a1.54,1.54,0,0,1,1.54-1.54h22.94A1.54,1.54,0,0,1,217.42,63Z"/><path class="cls-1" d="M218.63,35.41V61.29a.68.68,0,0,1-.69.68h-1.19a.69.69,0,0,0-.69.69v1.55a.69.69,0,0,1-.69.69H193.45a.69.69,0,0,1-.69-.69V62.66a.69.69,0,0,0-.69-.69h-1.19a.68.68,0,0,1-.69-.68V35.41a.69.69,0,0,1,.69-.69h1.19a.69.69,0,0,0,.69-.69V31.22a.69.69,0,0,1,.69-.69h21.92a.69.69,0,0,1,.69.69V34a.69.69,0,0,0,.69.69h1.19A.69.69,0,0,1,218.63,35.41Z"/><line class="cls-3" x1="204.38" y1="37.1" x2="204.38" y2="58.67"/><line class="cls-3" x1="196.21" y1="37.1" x2="196.21" y2="58.67"/><line class="cls-3" x1="208.47" y1="37.1" x2="208.47" y2="58.67"/><line class="cls-3" x1="200.3" y1="37.1" x2="200.3" y2="58.67"/><line class="cls-3" x1="212.56" y1="37.1" x2="212.56" y2="58.67"/><ellipse class="cls-4" cx="202.53" cy="94.8" rx="0.97" ry="0.43"/><ellipse class="cls-4" cx="207.9" cy="116.41" rx="1" ry="0.2"/><circle class="cls-4" cx="199.49" cy="140.5" r="0.63"/><circle class="cls-4" cx="206.66" cy="130.17" r="0.45"/><circle class="cls-4" cx="199.9" cy="111.02" r="0.41"/><circle class="cls-4" cx="207.5" cy="164.67" r="0.39"/><circle class="cls-4" cx="197.41" cy="187.6" r="0.45"/><circle class="cls-4" cx="207.5" cy="176.92" r="0.39"/></g></svg>