<svg xmlns="http://www.w3.org/2000/svg" xmlns:xlink="http://www.w3.org/1999/xlink" viewBox="0 0 256 256"><defs><style>.cls-1,.cls-6{fill:none;}.cls-12,.cls-14,.cls-2,.cls-3,.cls-4,.cls-5,.cls-8{fill:#fff;}.cls-11,.cls-14,.cls-2,.cls-3,.cls-4,.cls-5,.cls-6,.cls-9{stroke:#000;}.cls-10,.cls-11,.cls-2,.cls-3,.cls-4,.cls-5,.cls-6,.cls-9{stroke-linecap:round;stroke-linejoin:round;}.cls-2{stroke-width:2px;}.cls-11,.cls-2,.cls-5,.cls-7,.cls-8,.cls-9{fill-rule:evenodd;}.cls-14,.cls-3,.cls-5,.cls-6{stroke-width:2px;}.cls-4{stroke-width:2px;}.cls-9{stroke-width:1.23px;}.cls-10{stroke:#fff;stroke-width:2.53px;}.cls-11{fill:#ebebeb;stroke-width:1.53px;}.cls-13{clip-path:url(#clip-path);}.cls-14{stroke-miterlimit:10;}</style><clipPath id="clip-path"><rect class="cls-1" x="276" width="256" height="256"/></clipPath></defs><g id="oils"><g id="Artboard11"><g id="Layer2"><path class="cls-2" d="M170.43,73.61a24.39,24.39,0,0,0-18.79,8.85c-2.1,2.53-4.34,5.25-6.31,7.64a24.38,24.38,0,0,0-5.59,15.52V232.39A13.66,13.66,0,0,0,153.39,246h82A13.64,13.64,0,0,0,249,232.39V105.62a24.37,24.37,0,0,0-5.58-15.52l-6.31-7.64a24.39,24.39,0,0,0-18.79-8.85Z"/><rect class="cls-3" x="151.67" y="70.56" width="85.4" height="7.14"/><rect class="cls-3" x="164.07" y="65.1" width="60.62" height="4.94"/><rect class="cls-4" x="151.67" y="40.73" width="85.4" height="24.36"/><path class="cls-5" d="M237.07,35.27a6.39,6.39,0,0,0-6.38-6.39H158.06a6.39,6.39,0,0,0-6.39,6.39v5.46h85.4Z"/><path class="cls-6" d="M194.37,40.73V65.1"/><path class="cls-6" d="M187,40.73V65.1"/><path class="cls-6" d="M179.71,40.73V65.1"/><path class="cls-6" d="M172.38,40.73V65.1"/><path class="cls-6" d="M165.05,40.73V65.1"/><path class="cls-6" d="M157.72,40.73V65.1"/><path class="cls-6" d="M201.7,40.73V65.1"/><path class="cls-6" d="M209,40.73V65.1"/><path class="cls-6" d="M216.36,40.73V65.1"/><path class="cls-6" d="M223.69,40.73V65.1"/><path class="cls-6" d="M231,40.73V65.1"/></g><g id="Layer1"><g id="SYRINGE"><path class="cls-7" d="M44.76,94.15l-2.85-.34-5,11.16,15.37,1.83L50,94.77l-2.85-.34L57.25,9.27a1.19,1.19,0,0,0-1-1.32A1.18,1.18,0,0,0,54.9,9Z"/><path class="cls-8" d="M43,91.93l-.87-.11a2,2,0,0,0-2,1.17L35,104.15a2,2,0,0,0,.09,1.8,2,2,0,0,0,1.5,1L52,108.79a2,2,0,0,0,1.7-.62,2,2,0,0,0,.5-1.74l-2.28-12a2,2,0,0,0-1.73-1.62l-.86-.1,9.9-83.17a3.19,3.19,0,0,0-6.33-.76Zm1.75,2.22-2.85-.34-5,11.16,15.37,1.83L50,94.77l-2.85-.34L57.25,9.27a1.19,1.19,0,0,0-1-1.32A1.18,1.18,0,0,0,54.9,9Z"/><path class="cls-5" d="M62.11,112.44a4.44,4.44,0,0,0-3.88-4.93l-27.35-3.25A4.44,4.44,0,0,0,26,108.14L12.18,223.83a4.44,4.44,0,0,0,3.88,4.93L43.41,232a4.42,4.42,0,0,0,4.92-3.88Z"/><path class="cls-9" d="M31.38,129.42a3.59,3.59,0,0,1,3.13,4L21.57,242.07l13.35,1.59L47.86,135a3.58,3.58,0,0,1,4-3.13l4.29.51a3.58,3.58,0,0,0,4-3.13l.41-3.48a3.58,3.58,0,0,0-3.13-4l-29-3.46a3.6,3.6,0,0,0-2.64.75,3.55,3.55,0,0,0-1.34,2.39L24,124.93a3.52,3.52,0,0,0,.74,2.64,3.57,3.57,0,0,0,2.39,1.34Z"/><rect class="cls-10" x="-20.16" y="185.32" width="109.79" height="6.08" transform="translate(-156.41 200.59) rotate(-83.21)"/><path class="cls-11" d="M48.29,246.71A1.45,1.45,0,0,0,47,245.1L9.47,240.63a1.46,1.46,0,0,0-1.61,1.27l-.34,2.88a1.46,1.46,0,0,0,1.27,1.61l37.55,4.47A1.46,1.46,0,0,0,48,249.59Z"/><path class="cls-6" d="M58.34,144.07l-6.17-.74"/><path class="cls-6" d="M53.87,181.64l-6.17-.74"/><path class="cls-6" d="M56.1,162.87l-6.16-.73"/><path class="cls-6" d="M51.63,200.44l-6.17-.73"/><path class="cls-6" d="M57.22,153.48l-6.17-.74"/><path class="cls-6" d="M52.75,191.05l-6.17-.74"/><path class="cls-6" d="M55,172.29l-6.17-.74"/><path class="cls-6" d="M50.51,209.85l-6.17-.73"/><circle cx="31.88" cy="112.54" r="0.99"/><circle cx="46.87" cy="114.36" r="1.01"/><circle cx="39.29" cy="109.67" r="0.71"/><circle cx="52.65" cy="111.26" r="0.71"/><circle cx="53.35" cy="117.47" r="0.71"/></g><g id="PILL"><path class="cls-8" d="M97.86,132.91l-4.19-15-15.33,4.27a7.49,7.49,0,0,0-5.21,9.23l.17.58a7.48,7.48,0,0,0,9.22,5.2Z"/><path class="cls-7" d="M98.39,134.84a2,2,0,0,0,1.39-2.46l-4.18-15A2,2,0,0,0,93.13,116L77.8,120.26a9.46,9.46,0,0,0-6.59,11.68l.16.58a9.48,9.48,0,0,0,11.69,6.59Zm-.53-1.93-4.19-15-15.33,4.27a7.49,7.49,0,0,0-5.21,9.23l.17.58a7.48,7.48,0,0,0,9.22,5.2Z"/><path class="cls-7" d="M93.67,117.91l4.19,15,15.33-4.27a7.5,7.5,0,0,0,5.2-9.23l-.16-.58a7.48,7.48,0,0,0-9.22-5.2Z"/><path class="cls-7" d="M93.13,116a2,2,0,0,0-1.38,2.46l4.18,15a2,2,0,0,0,2.46,1.39l15.34-4.28a9.5,9.5,0,0,0,6.59-11.69l-.16-.57a9.5,9.5,0,0,0-11.69-6.6Zm.54,1.93,4.19,15,15.33-4.27a7.5,7.5,0,0,0,5.2-9.23l-.16-.58a7.48,7.48,0,0,0-9.22-5.2Z"/><ellipse cx="88.05" cy="122.14" rx="0.59" ry="0.6" transform="translate(-29.57 28.14) rotate(-15.58)"/><ellipse class="cls-12" cx="111.01" cy="116.6" rx="0.59" ry="0.6" transform="matrix(0.96, -0.27, 0.27, 0.96, -27.24, 34.1)"/><ellipse cx="89.61" cy="125.11" rx="0.42" ry="0.42" transform="translate(-30.31 28.67) rotate(-15.58)"/><ellipse class="cls-12" cx="112.57" cy="119.57" rx="0.42" ry="0.42" transform="translate(-27.98 34.63) rotate(-15.58)"/><ellipse cx="80.49" cy="125.49" rx="0.59" ry="0.6" transform="translate(-30.75 26.23) rotate(-15.58)"/><ellipse class="cls-12" cx="103.45" cy="119.96" rx="0.59" ry="0.6" transform="matrix(0.96, -0.27, 0.27, 0.96, -28.42, 32.19)"/><ellipse cx="84.27" cy="127.48" rx="0.42" ry="0.42" transform="translate(-31.14 27.32) rotate(-15.58)"/><ellipse class="cls-12" cx="107.22" cy="121.94" rx="0.42" ry="0.42" transform="matrix(0.96, -0.27, 0.27, 0.96, -28.81, 33.28)"/><ellipse cx="77.76" cy="132.48" rx="0.59" ry="0.6" transform="translate(-32.72 25.75) rotate(-15.58)"/><ellipse class="cls-12" cx="100.72" cy="126.95" rx="0.59" ry="0.6" transform="translate(-30.4 31.72) rotate(-15.58)"/><ellipse cx="82.34" cy="132.42" rx="0.42" ry="0.42" transform="matrix(0.96, -0.27, 0.27, 0.96, -32.54, 26.98)"/><ellipse class="cls-12" cx="105.29" cy="126.89" rx="0.42" ry="0.42" transform="matrix(0.96, -0.27, 0.27, 0.96, -30.21, 32.94)"/><ellipse cx="86.39" cy="128.02" rx="0.59" ry="0.6" transform="translate(-31.21 27.91) rotate(-15.58)"/><ellipse class="cls-12" cx="109.34" cy="122.49" rx="0.59" ry="0.6" transform="translate(-28.88 33.87) rotate(-15.58)"/><ellipse cx="88.43" cy="129.27" rx="0.42" ry="0.42" transform="translate(-31.47 28.5) rotate(-15.58)"/><ellipse class="cls-12" cx="111.39" cy="123.74" rx="0.42" ry="0.42" transform="translate(-29.14 34.46) rotate(-15.58)"/></g><g id="PILL1"><path class="cls-8" d="M88.75,170.76l-14.27-6.24L68.1,179.1A7.47,7.47,0,0,0,72,189l.55.24a7.48,7.48,0,0,0,9.86-3.85Z"/><path class="cls-7" d="M90.58,171.56a2,2,0,0,0-1-2.63l-14.27-6.25a2,2,0,0,0-2.63,1L66.27,178.3a9.48,9.48,0,0,0,4.89,12.5l.55.24a9.49,9.49,0,0,0,12.49-4.89Zm-1.83-.8-14.27-6.24L68.1,179.1A7.47,7.47,0,0,0,72,189l.55.24a7.48,7.48,0,0,0,9.86-3.85Z"/><path class="cls-7" d="M74.48,164.52l14.27,6.24,6.39-14.58a7.51,7.51,0,0,0-3.86-9.87l-.55-.24a7.51,7.51,0,0,0-9.87,3.86Z"/><path class="cls-7" d="M72.65,163.71a2,2,0,0,0,1,2.64L88,172.59a2,2,0,0,0,2.63-1L97,157a9.5,9.5,0,0,0-4.89-12.5l-.55-.24A9.5,9.5,0,0,0,79,149.13Zm1.83.81,14.27,6.24,6.39-14.58a7.51,7.51,0,0,0-3.86-9.87l-.55-.24a7.51,7.51,0,0,0-9.87,3.86Z"/><ellipse cx="74.21" cy="171.54" rx="0.59" ry="0.6" transform="translate(-112.7 170.75) rotate(-66.37)"/><ellipse class="cls-12" cx="84.43" cy="150.26" rx="0.59" ry="0.6" transform="translate(-87.07 167.37) rotate(-66.37)"/><ellipse cx="77.49" cy="172.21" rx="0.42" ry="0.42" transform="translate(-111.34 174.16) rotate(-66.37)"/><ellipse class="cls-12" cx="87.72" cy="150.93" rx="0.42" ry="0.42" transform="translate(-85.72 170.78) rotate(-66.37)"/><ellipse cx="72.03" cy="179.52" rx="0.59" ry="0.6" transform="translate(-121.31 173.54) rotate(-66.37)"/><ellipse class="cls-12" cx="82.25" cy="158.24" rx="0.59" ry="0.6" transform="translate(-95.69 170.15) rotate(-66.37)"/><ellipse cx="75.95" cy="177.85" rx="0.42" ry="0.42" transform="translate(-117.43 176.13) rotate(-66.37)"/><ellipse class="cls-12" cx="86.18" cy="156.57" rx="0.42" ry="0.42" transform="translate(-91.81 172.75) rotate(-66.37)"/><ellipse cx="75.72" cy="186.06" rx="0.59" ry="0.6" transform="translate(-125.09 180.83) rotate(-66.37)"/><ellipse class="cls-12" cx="85.94" cy="164.77" rx="0.59" ry="0.6" transform="translate(-99.46 177.45) rotate(-66.37)"/><ellipse cx="78.56" cy="182.47" rx="0.42" ry="0.42" transform="translate(-120.1 181.29) rotate(-66.37)"/><ellipse class="cls-12" cx="88.79" cy="161.19" rx="0.42" ry="0.42" transform="translate(-94.48 177.91) rotate(-66.37)"/><ellipse cx="77.71" cy="176.56" rx="0.59" ry="0.6" transform="translate(-115.19 176.97) rotate(-66.37)"/><ellipse class="cls-12" cx="87.94" cy="155.27" rx="0.59" ry="0.6" transform="translate(-89.57 173.59) rotate(-66.37)"/><ellipse cx="79.97" cy="175.76" rx="0.42" ry="0.42" transform="translate(-113.11 178.56) rotate(-66.37)"/><ellipse class="cls-12" cx="90.2" cy="154.48" rx="0.42" ry="0.42" transform="translate(-87.48 175.18) rotate(-66.37)"/></g><g id="PILL2"><path class="cls-8" d="M103.78,160.91l15.58-.08-.08-15.92a7.49,7.49,0,0,0-7.53-7.45h-.6A7.49,7.49,0,0,0,103.7,145Z"/><path class="cls-7" d="M101.78,160.92a2,2,0,0,0,2,2l15.58-.08a2,2,0,0,0,2-2l-.08-15.92a9.51,9.51,0,0,0-9.54-9.44h-.6A9.47,9.47,0,0,0,101.7,145Zm2,0,15.58-.08-.08-15.92a7.49,7.49,0,0,0-7.53-7.45h-.6A7.49,7.49,0,0,0,103.7,145Z"/><path class="cls-7" d="M119.36,160.83l-15.58.08.09,15.92a7.48,7.48,0,0,0,7.52,7.45h.6a7.48,7.48,0,0,0,7.45-7.53Z"/><path class="cls-7" d="M121.36,160.82a2,2,0,0,0-2-2l-15.58.08a2,2,0,0,0-2,2l.09,15.92a9.47,9.47,0,0,0,9.53,9.44h.6a9.49,9.49,0,0,0,9.44-9.54Zm-2,0-15.58.08.09,15.92a7.48,7.48,0,0,0,7.52,7.45h.6a7.48,7.48,0,0,0,7.45-7.53Z"/><ellipse cx="116.76" cy="154.3" rx="0.6" ry="0.59" transform="translate(-0.8 0.61) rotate(-0.3)"/><ellipse class="cls-12" cx="116.05" cy="177.9" rx="0.6" ry="0.59" transform="translate(-0.93 0.61) rotate(-0.3)"/><ellipse cx="113.49" cy="155.02" rx="0.42" ry="0.42" transform="translate(-0.81 0.59) rotate(-0.3)"/><ellipse class="cls-12" cx="112.77" cy="178.62" rx="0.42" ry="0.42" transform="matrix(1, -0.01, 0.01, 1, -0.93, 0.59)"/><ellipse cx="115.52" cy="146.12" rx="0.6" ry="0.59" transform="translate(-0.76 0.6) rotate(-0.3)"/><ellipse class="cls-12" cx="114.8" cy="169.72" rx="0.6" ry="0.59" transform="matrix(1, -0.01, 0.01, 1, -0.88, 0.6)"/><ellipse cx="112.61" cy="149.24" rx="0.42" ry="0.42" transform="translate(-0.78 0.59) rotate(-0.3)"/><ellipse class="cls-12" cx="111.89" cy="172.84" rx="0.42" ry="0.42" transform="translate(-0.9 0.59) rotate(-0.3)"/><ellipse cx="109.49" cy="141.64" rx="0.6" ry="0.59" transform="translate(-0.74 0.57) rotate(-0.3)"/><ellipse class="cls-12" cx="108.78" cy="165.25" rx="0.6" ry="0.59" transform="translate(-0.86 0.57) rotate(-0.3)"/><ellipse cx="108.35" cy="146.07" rx="0.42" ry="0.42" transform="translate(-0.76 0.57) rotate(-0.3)"/><ellipse class="cls-12" cx="107.64" cy="169.68" rx="0.42" ry="0.42" transform="translate(-0.88 0.56) rotate(-0.3)"/><ellipse cx="111.52" cy="151.14" rx="0.6" ry="0.59" transform="matrix(1, -0.01, 0.01, 1, -0.79, 0.58)"/><ellipse class="cls-12" cx="110.81" cy="174.74" rx="0.6" ry="0.59" transform="translate(-0.91 0.58) rotate(-0.3)"/><ellipse cx="109.78" cy="152.78" rx="0.42" ry="0.42" transform="translate(-0.79 0.57) rotate(-0.3)"/><ellipse class="cls-12" cx="109.07" cy="176.39" rx="0.42" ry="0.42" transform="translate(-0.92 0.57) rotate(-0.3)"/></g><g id="PILL3"><path class="cls-8" d="M89.3,220.7l-13.94,6.94,7.09,14.25a7.51,7.51,0,0,0,10,3.37L93,245a7.49,7.49,0,0,0,3.37-10.05Z"/><path class="cls-7" d="M91.09,219.8a2,2,0,0,0-2.68-.89l-14,6.94a2,2,0,0,0-.89,2.68l7.09,14.25a9.5,9.5,0,0,0,12.73,4.27l.54-.27a9.5,9.5,0,0,0,4.26-12.73Zm-1.79.9-13.94,6.94,7.09,14.25a7.51,7.51,0,0,0,10,3.37L93,245a7.49,7.49,0,0,0,3.37-10.05Z"/><path class="cls-7" d="M75.36,227.64,89.3,220.7l-7.1-14.25a7.47,7.47,0,0,0-10-3.37l-.54.27a7.49,7.49,0,0,0-3.36,10Z"/><path class="cls-7" d="M73.57,228.53a2,2,0,0,0,2.68.9l13.94-6.94a2,2,0,0,0,.9-2.69L84,205.56a9.49,9.49,0,0,0-12.72-4.27l-.54.27a9.48,9.48,0,0,0-4.26,12.73Zm1.79-.89L89.3,220.7l-7.1-14.25a7.47,7.47,0,0,0-10-3.37l-.54.27a7.49,7.49,0,0,0-3.36,10Z"/><ellipse cx="80.57" cy="232.36" rx="0.6" ry="0.59" transform="translate(-95.16 60.31) rotate(-26.48)"/><ellipse class="cls-12" cx="70.8" cy="210.86" rx="0.6" ry="0.59" transform="translate(-86.6 53.7) rotate(-26.48)"/><ellipse cx="83.19" cy="230.27" rx="0.42" ry="0.42" transform="translate(-93.95 61.26) rotate(-26.48)"/><ellipse class="cls-12" cx="73.42" cy="208.77" rx="0.42" ry="0.42" transform="translate(-85.39 54.65) rotate(-26.48)"/><ellipse cx="85.3" cy="239.15" rx="0.6" ry="0.59" transform="translate(-97.69 63.13) rotate(-26.48)"/><ellipse class="cls-12" cx="75.52" cy="217.65" rx="0.6" ry="0.59" transform="translate(-89.13 56.52) rotate(-26.48)"/><ellipse cx="86.53" cy="235.07" rx="0.42" ry="0.42" transform="translate(-95.74 63.25) rotate(-26.48)"/><ellipse class="cls-12" cx="76.76" cy="213.57" rx="0.42" ry="0.42" transform="translate(-87.18 56.64) rotate(-26.48)"/><ellipse cx="92.68" cy="240.51" rx="0.6" ry="0.59" transform="translate(-97.52 66.56) rotate(-26.48)"/><ellipse class="cls-12" cx="82.9" cy="219.01" rx="0.6" ry="0.59" transform="translate(-88.96 59.95) rotate(-26.48)"/><ellipse cx="91.75" cy="236.03" rx="0.42" ry="0.42" transform="translate(-95.62 65.68) rotate(-26.48)"/><ellipse class="cls-12" cx="81.98" cy="214.53" rx="0.42" ry="0.42" transform="translate(-87.06 59.07) rotate(-26.48)"/><ellipse cx="86.67" cy="232.88" rx="0.6" ry="0.59" transform="translate(-94.75 63.08) rotate(-26.48)"/><ellipse class="cls-12" cx="76.89" cy="211.39" rx="0.6" ry="0.59" transform="translate(-86.2 56.47) rotate(-26.48)"/><ellipse cx="87.5" cy="230.64" rx="0.42" ry="0.42" transform="translate(-93.67 63.22) rotate(-26.48)"/><ellipse class="cls-12" cx="77.73" cy="209.14" rx="0.42" ry="0.42" transform="translate(-85.11 56.61) rotate(-26.48)"/></g><g id="PILL4"><path class="cls-8" d="M114.13,200.73l-9.23,12.54,12.82,9.44a7.5,7.5,0,0,0,10.47-1.59l.36-.48a7.48,7.48,0,0,0-1.6-10.47Z"/><path class="cls-7" d="M115.32,199.12a2,2,0,0,0-2.8.42l-9.23,12.55a2,2,0,0,0,.42,2.79l12.82,9.44a9.5,9.5,0,0,0,13.27-2l.36-.49a9.5,9.5,0,0,0-2-13.26Zm-1.19,1.61-9.23,12.54,12.82,9.44a7.5,7.5,0,0,0,10.47-1.59l.36-.48a7.48,7.48,0,0,0-1.6-10.47Z"/><path class="cls-7" d="M104.9,213.27l9.23-12.54-12.82-9.44a7.5,7.5,0,0,0-10.47,1.59l-.35.49a7.47,7.47,0,0,0,1.59,10.47Z"/><path class="cls-7" d="M103.71,214.88a2,2,0,0,0,2.8-.42l9.23-12.55a2,2,0,0,0-.42-2.79l-12.82-9.44a9.49,9.49,0,0,0-13.27,2l-.35.48a9.5,9.5,0,0,0,2,13.27Zm1.19-1.61,9.23-12.54-12.82-9.44a7.5,7.5,0,0,0-10.47,1.59l-.35.49a7.47,7.47,0,0,0,1.59,10.47Z"/><ellipse cx="111.69" cy="215.09" rx="0.6" ry="0.59" transform="translate(-127.74 177.53) rotate(-53.64)"/><ellipse class="cls-12" cx="93.18" cy="200.43" rx="0.6" ry="0.59" transform="translate(-123.47 156.66) rotate(-53.64)"/><ellipse cx="113.07" cy="212.03" rx="0.42" ry="0.42" transform="translate(-124.72 177.4) rotate(-53.64)"/><ellipse class="cls-12" cx="94.56" cy="197.37" rx="0.42" ry="0.42" transform="translate(-120.45 156.52) rotate(-53.64)"/><ellipse cx="118.99" cy="218.97" rx="0.6" ry="0.59" transform="translate(-127.89 184.99) rotate(-53.64)"/><ellipse class="cls-12" cx="100.49" cy="204.31" rx="0.6" ry="0.59" transform="translate(-123.62 164.12) rotate(-53.64)"/><ellipse cx="118.23" cy="214.78" rx="0.42" ry="0.42" transform="translate(-124.83 182.67) rotate(-53.64)"/><ellipse class="cls-12" cx="99.72" cy="200.11" rx="0.42" ry="0.42" transform="translate(-120.55 161.8) rotate(-53.64)"/><ellipse cx="126.18" cy="216.81" rx="0.6" ry="0.59" transform="translate(-123.23 189.9) rotate(-53.64)"/><ellipse class="cls-12" cx="107.67" cy="202.15" rx="0.6" ry="0.59" transform="translate(-118.96 169.03) rotate(-53.64)"/><ellipse cx="123.31" cy="213.25" rx="0.42" ry="0.42" transform="translate(-121.53 186.14) rotate(-53.64)"/><ellipse class="cls-12" cx="104.8" cy="198.59" rx="0.42" ry="0.42" transform="translate(-117.26 165.27) rotate(-53.64)"/><ellipse cx="117.36" cy="212.77" rx="0.6" ry="0.59" transform="translate(-123.57 181.15) rotate(-53.64)"/><ellipse class="cls-12" cx="98.85" cy="198.11" rx="0.6" ry="0.59" transform="translate(-119.3 160.27) rotate(-53.64)"/><ellipse cx="117.07" cy="210.39" rx="0.42" ry="0.42" transform="translate(-121.77 179.96) rotate(-53.64)"/><ellipse class="cls-12" cx="98.57" cy="195.73" rx="0.42" ry="0.42" transform="translate(-117.5 159.08) rotate(-53.64)"/></g></g></g><g id="Layer_2" data-name="Layer 2"><g id="Layer_1-2" data-name="Layer 1-2"><polygon points="235 156.92 213.39 156.92 228.66 141.59 217.56 130.48 202.23 145.76 202.23 124.15 186.52 124.15 186.52 145.76 171.19 130.48 160.08 141.59 175.36 156.92 153.75 156.92 153.75 172.63 175.36 172.63 160.08 187.96 171.19 199.06 186.52 183.79 186.52 205.4 202.23 205.4 202.23 183.79 217.56 199.06 228.66 187.96 213.39 172.63 235 172.63 235 156.92"/></g></g></g><g id="Warstwa_9" data-name="Warstwa 9"><g class="cls-13"><path class="cls-14" d="M523.79,340.73c-.16-1.66-.51-2-3.15-7.72C513,316.43,513.38,314,507.2,302.12c-2.4-4.61-4.33-7.81-6.86-12-5.39-8.95-6.84-10.31-14-21.46-4.18-6.48-8-12.68-12.3-19.73-1.4-2.3-4.52-7.39-8.86-14-1-1.53-3.53-4.93-8.58-11.73a25.55,25.55,0,0,0-7.15-7.15,11.93,11.93,0,0,0-5.72-2.29c-3.72-.25-5.19,2-7.44,1.15-2.08-.79-2.09-3.2-3.72-6-2-3.53-4.58-4.12-10.58-7.72-8.48-5.09-7.5-6.37-14.87-10.58-3.66-2.1-3.53-1.57-12.87-5.72-14.68-6.53-16-8.3-21.45-8.58a26.49,26.49,0,0,0-14,3.14,27.58,27.58,0,0,0-11.15,12c-2.11,4.08-2.65,7.71-3.43,12.59a67.42,67.42,0,0,0-.86,11c-3.86-2.31-7.14-4.09-9.53-5.34-8.12-4.24-10.54-4.74-11.82-4.95a26.07,26.07,0,0,0-9.73.38,28.85,28.85,0,0,0-14.11,8.2,23.5,23.5,0,0,0-6.48,10.86c-.79,3.28-.22,7.25,1,15.07.81,5.4,1.22,8.11,1.91,10.1,2.3,6.68,6.65,10.77,10.68,14.49,7.85,7.24,13.37,8.29,18.3,16.59.62,1,1.07,1.92,1.34,2.48q-6.68-3.87-14.3-8.2c-12.2-6.91-14.82-8.17-18.88-8.58-2-.19-10.9-1.09-17,4.77-3.16,3-4.07,6.49-5.34,11.25-1,3.61-3.39,12.74.38,22.31,1.36,3.44,3.58,6.36,8,12.2,3.11,4.09,5.94,7.31,8,9.53a19.18,19.18,0,0,1-8.58-1.14c-3.56-1.38-4.05-2.92-8.2-4.77-5.07-2.27-6-.72-8.77-2.67-4.21-3-2.82-7.1-6.68-9.72-3.54-2.41-8.17-1.28-10.29-.77-8.64,2.11-12.81,10.08-13.73,11.83a27.08,27.08,0,0,0-2.67,15.63s.79,8.13,5.15,14.3c9,12.72,43.46,5.32,58.15,2.86,57.18-9.57,117.77,5,155.78,14.11,18,4.31,40.87,11.07,59.49-.19C507.22,364.5,525,353.47,523.79,340.73Z"/></g></g></svg>