<?xml version="1.0" encoding="UTF-8" standalone="no"?>
<!-- Uploaded to: SVG Repo, www.svgrepo.com, Generator: SVG Repo Mixer Tools -->

<svg
   width="800px"
   height="800px"
   viewBox="0 0 512 512"
   version="1.1"
   id="svg1"
   sodipodi:docname="artifacts.svg"
   xml:space="preserve"
   inkscape:version="1.3.2 (091e20e, 2023-11-25, custom)"
   xmlns:inkscape="http://www.inkscape.org/namespaces/inkscape"
   xmlns:sodipodi="http://sodipodi.sourceforge.net/DTD/sodipodi-0.dtd"
   xmlns="http://www.w3.org/2000/svg"
   xmlns:svg="http://www.w3.org/2000/svg"><defs
     id="defs1" /><sodipodi:namedview
     id="namedview1"
     pagecolor="#ffffff"
     bordercolor="#000000"
     borderopacity="0.25"
     inkscape:showpageshadow="2"
     inkscape:pageopacity="0.0"
     inkscape:pagecheckerboard="0"
     inkscape:deskcolor="#d1d1d1"
     inkscape:zoom="2.1086546"
     inkscape:cx="399.78098"
     inkscape:cy="342.63554"
     inkscape:window-width="3840"
     inkscape:window-height="2066"
     inkscape:window-x="-11"
     inkscape:window-y="-11"
     inkscape:window-maximized="1"
     inkscape:current-layer="g1" /><g
     id="g1"
     inkscape:label="artifact"><path
       style="display:inline;opacity:1;fill:#000000;fill-opacity:1;stroke:#000000;stroke-width:9.6;stroke-linecap:round;stroke-dasharray:none;stroke-opacity:1"
       id="path4"
       sodipodi:type="arc"
       sodipodi:cx="257.36737"
       sodipodi:cy="254.24947"
       sodipodi:rx="238.66003"
       sodipodi:ry="238.66003"
       sodipodi:start="6.2390891"
       sodipodi:end="6.2357729"
       sodipodi:open="true"
       sodipodi:arc-type="arc"
       d="M 495.79541,243.72887 A 238.66003,238.66003 0 0 1 268.08563,492.6687 238.66003,238.66003 0 0 1 18.957105,265.16538 238.66003,238.66003 0 0 1 246.25381,15.848332 238.66003,238.66003 0 0 1 495.75921,242.93826" /><path
       style="fill:#ffffff;fill-opacity:1;stroke:#ffffff;stroke-width:2.15352;stroke-linecap:round;stroke-opacity:1"
       d="m 66.31487,247.76556 172.0597,-0.31746 -0.31746,179.04367 -37.45949,-1.58726 -5.3967,-46.34819 -21.58683,-9.5236 -35.23732,29.2057 -46.983082,-42.85619 29.205702,-42.53875 -8.88869,-23.49153 -47.617997,-10.47597 z"
       id="path1"
       sodipodi:nodetypes="cccccccccccc" /><path
       style="fill:#ffffff;fill-opacity:1;stroke:#ffffff;stroke-width:2.15352;stroke-linecap:round;stroke-opacity:1"
       d="m 66.364433,248.81566 172.059697,0.31747 -0.31746,-179.043677 -37.45949,1.58726 -5.3967,46.348187 -21.58683,9.5236 -35.23732,-29.205704 -46.98308,42.856204 29.2057,42.53874 -8.88869,23.49154 -47.617994,10.47596 z"
       id="path1-8"
       sodipodi:nodetypes="cccccccccccc" /><path
       style="opacity:1;fill:#000000;stroke:#ffffff;stroke-width:25.1244;stroke-linecap:round;stroke-dasharray:none;stroke-opacity:1;fill-opacity:1.0"
       id="path2"
       sodipodi:type="arc"
       sodipodi:cx="238.61385"
       sodipodi:cy="251.4099"
       sodipodi:rx="61.585941"
       sodipodi:ry="61.585941"
       sodipodi:start="6.2390891"
       sodipodi:end="6.2357729"
       sodipodi:open="true"
       sodipodi:arc-type="arc"
       d="m 300.13992,248.69507 a 61.585941,61.585941 0 0 1 -58.76024,64.23863 61.585941,61.585941 0 0 1 -64.28732,-58.70696 61.585941,61.585941 0 0 1 58.65364,-64.33598 61.585941,61.585941 0 0 1 64.38458,58.60029" /><path
       style="opacity:1;fill:#000000;stroke:#ffffff;stroke-width:10.7676;stroke-linecap:round;stroke-dasharray:none;stroke-opacity:1;fill-opacity:1.0"
       id="path3"
       sodipodi:type="arc"
       sodipodi:cx="442.99838"
       sodipodi:cy="252.15636"
       sodipodi:rx="20.158285"
       sodipodi:ry="20.158285"
       sodipodi:start="6.2390891"
       sodipodi:end="6.2357729"
       sodipodi:open="true"
       sodipodi:arc-type="arc"
       d="m 463.13707,251.26774 a 20.158285,20.158285 0 0 1 -19.23338,21.02656 20.158285,20.158285 0 0 1 -21.0425,-19.21594 20.158285,20.158285 0 0 1 19.19849,-21.05842 20.158285,20.158285 0 0 1 21.07433,19.18102" /><path
       style="fill:#000000;stroke:#ffffff;stroke-width:10.7676;stroke-linecap:round;stroke-dasharray:none;stroke-opacity:1;fill-opacity:1.0"
       id="path3-7"
       sodipodi:type="arc"
       sodipodi:cx="399.09885"
       sodipodi:cy="133.73805"
       sodipodi:rx="20.158285"
       sodipodi:ry="20.158285"
       sodipodi:start="6.2390891"
       sodipodi:end="6.2357729"
       sodipodi:open="true"
       sodipodi:arc-type="arc"
       d="m 419.23754,132.84944 a 20.158285,20.158285 0 0 1 -19.23338,21.02656 20.158285,20.158285 0 0 1 -21.0425,-19.21594 20.158285,20.158285 0 0 1 19.19849,-21.05842 20.158285,20.158285 0 0 1 21.07433,19.18102" /><path
       style="fill:#000000;stroke:#ffffff;stroke-width:10.7676;stroke-linecap:round;stroke-dasharray:none;stroke-opacity:1;fill-opacity:1.0"
       id="path3-7-8"
       sodipodi:type="arc"
       sodipodi:cx="353.25513"
       sodipodi:cy="198.83765"
       sodipodi:rx="20.158285"
       sodipodi:ry="20.158285"
       sodipodi:start="6.2390891"
       sodipodi:end="6.2357729"
       sodipodi:open="true"
       sodipodi:arc-type="arc"
       d="m 373.39382,197.94903 a 20.158285,20.158285 0 0 1 -19.23338,21.02656 20.158285,20.158285 0 0 1 -21.0425,-19.21594 20.158285,20.158285 0 0 1 19.19849,-21.05842 20.158285,20.158285 0 0 1 21.07433,19.18102" /><path
       style="fill:#000000;stroke:#ffffff;stroke-width:10.7676;stroke-linecap:round;stroke-dasharray:none;stroke-opacity:1;fill-opacity:1.0"
       id="path3-0"
       sodipodi:type="arc"
       sodipodi:cx="363.60315"
       sodipodi:cy="317.85718"
       sodipodi:rx="20.158285"
       sodipodi:ry="20.158285"
       sodipodi:start="6.2390891"
       sodipodi:end="6.2357729"
       sodipodi:open="true"
       sodipodi:arc-type="arc"
       d="m 383.74184,316.96856 a 20.158285,20.158285 0 0 1 -19.23338,21.02656 20.158285,20.158285 0 0 1 -21.0425,-19.21594 20.158285,20.158285 0 0 1 19.19849,-21.05842 20.158285,20.158285 0 0 1 21.07433,19.18102" /><path
       style="fill:#000000;fill-opacity:1;stroke:#ffffff;stroke-width:10.7676;stroke-linecap:round;stroke-dasharray:none;stroke-opacity:1"
       id="path3-3"
       sodipodi:type="arc"
       sodipodi:cx="406.67209"
       sodipodi:cy="398.77426"
       sodipodi:rx="20.158285"
       sodipodi:ry="20.158285"
       sodipodi:start="6.2390891"
       sodipodi:end="6.2357729"
       sodipodi:open="true"
       sodipodi:arc-type="arc"
       d="m 426.81078,397.88565 a 20.158285,20.158285 0 0 1 -19.23338,21.02656 20.158285,20.158285 0 0 1 -21.0425,-19.21594 20.158285,20.158285 0 0 1 19.19849,-21.05843 20.158285,20.158285 0 0 1 21.07433,19.18103" /><rect
       style="opacity:1;fill:#ffffff;stroke:#ffffff;stroke-width:10.7676;stroke-linecap:round;stroke-dasharray:none;stroke-opacity:1"
       id="rect3"
       width="86.982201"
       height="4.126893"
       x="323.03989"
       y="249.82262" /><rect
       style="fill:#ffffff;stroke:#ffffff;stroke-width:9.78569;stroke-linecap:round;stroke-dasharray:none;stroke-opacity:1"
       id="rect3-9"
       width="58.033318"
       height="5.1088161"
       x="249.15497"
       y="161.29338" /><rect
       style="fill:#ffffff;stroke:#ffffff;stroke-width:9.6548;stroke-linecap:round;stroke-dasharray:none;stroke-opacity:1"
       id="rect3-1"
       width="55.07988"
       height="5.2397146"
       x="310.97159"
       y="132.17458" /><rect
       style="fill:#ffffff;stroke:#ffffff;stroke-width:8.02053;stroke-linecap:round;stroke-dasharray:none;stroke-opacity:1"
       id="rect3-5"
       width="28.974236"
       height="6.873982"
       x="247.56163"
       y="83.185936" /><rect
       style="fill:#ffffff;stroke:#ffffff;stroke-width:8.02053;stroke-linecap:round;stroke-dasharray:none;stroke-opacity:1"
       id="rect3-5-3"
       width="28.974236"
       height="6.873982"
       x="43.614929"
       y="113.2608" /><rect
       style="fill:#ffffff;stroke:#ffffff;stroke-width:9.1178;stroke-linecap:round;stroke-dasharray:none;stroke-opacity:1"
       id="rect3-5-3-7"
       width="44.556805"
       height="5.7767096"
       x="75.582893"
       y="81.279221" /><rect
       style="fill:#ffffff;stroke:#ffffff;stroke-width:9.68595;stroke-linecap:round;stroke-dasharray:none;stroke-opacity:1"
       id="rect3-5-3-9"
       width="55.767536"
       height="5.2085586"
       x="25.484781"
       y="167.70403" /><rect
       style="fill:#ffffff;stroke:#ffffff;stroke-width:8.38175;stroke-linecap:round;stroke-dasharray:none;stroke-opacity:1"
       id="rect3-5-3-9-2"
       width="33.397877"
       height="6.5127597"
       x="14.267567"
       y="238.7838" /><rect
       style="fill:#ffffff;stroke:#ffffff;stroke-width:8.58921;stroke-linecap:round;stroke-dasharray:none;stroke-opacity:1"
       id="rect3-5-3-9-2-3"
       width="36.225529"
       height="6.3053021"
       x="17.419134"
       y="199.44284" /><rect
       style="fill:#ffffff;stroke:#ffffff;stroke-width:9.72484;stroke-linecap:round;stroke-dasharray:none;stroke-opacity:1"
       id="rect3-5-3-9-2-3-8"
       width="56.639175"
       height="5.1696677"
       x="17.142996"
       y="300.22141" /><rect
       style="fill:#ffffff;stroke:#ffffff;stroke-width:8.94489;stroke-linecap:round;stroke-dasharray:none;stroke-opacity:1"
       id="rect3-5-3-9-2-3-8-8"
       width="41.636559"
       height="5.9496222"
       x="22.490952"
       y="331.90317" /><rect
       style="fill:#ffffff;stroke:#ffffff;stroke-width:9.91021;stroke-linecap:round;stroke-dasharray:none;stroke-opacity:1"
       id="rect3-5-3-9-2-3-8-8-3"
       width="61.006477"
       height="4.9843001"
       x="34.975281"
       y="383.28275" /><rect
       style="fill:#ffffff;stroke:#ffffff;stroke-width:9.91021;stroke-linecap:round;stroke-dasharray:none;stroke-opacity:1"
       id="rect3-5-3-9-2-3-8-8-3-6"
       width="61.006477"
       height="4.9843001"
       x="72.47805"
       y="416.85992" /><rect
       style="fill:#ffffff;stroke:#ffffff;stroke-width:10.4966;stroke-linecap:round;stroke-dasharray:none;stroke-opacity:1"
       id="rect3-4"
       width="77.565536"
       height="4.3978906"
       x="248.50136"
       y="361.78082" /><rect
       style="fill:#ffffff;stroke:#ffffff;stroke-width:9.73319;stroke-linecap:round;stroke-dasharray:none;stroke-opacity:1"
       id="rect3-8"
       width="56.828068"
       height="5.1613269"
       x="248.3231"
       y="405.94403" /><rect
       style="fill:#ffffff;stroke:#ffffff;stroke-width:7.69093;stroke-linecap:round;stroke-dasharray:none;stroke-opacity:1"
       id="rect3-8-2"
       width="25.422741"
       height="7.2035885"
       x="478.16129"
       y="182.67662"
       transform="rotate(31.644787)" /><rect
       style="fill:#ffffff;stroke:#ffffff;stroke-width:10.7676;stroke-linecap:round;stroke-dasharray:none;stroke-opacity:1"
       id="rect3-44"
       width="55.668591"
       height="4.126893"
       x="229.97783"
       y="-180.39143"
       transform="rotate(55.356374)" /><rect
       style="fill:#ffffff;stroke:#ffffff;stroke-width:7.66677;stroke-linecap:round;stroke-dasharray:none;stroke-opacity:1"
       id="rect3-4-2"
       width="25.178881"
       height="7.2277422"
       x="-75.177902"
       y="480.43472"
       transform="rotate(-50.859479)" /><rect
       style="fill:#ffffff;fill-opacity:1;stroke:#ffffff;stroke-width:6.97329;stroke-linecap:round;stroke-dasharray:none;stroke-opacity:1"
       id="rect3-8-5"
       width="19.006256"
       height="7.9212275"
       x="333.71555"
       y="419.71576" /><rect
       style="fill:#ffffff;stroke:#ffffff;stroke-width:7.54723;stroke-linecap:round;stroke-dasharray:none;stroke-opacity:1"
       id="rect3-8-7"
       width="24.00292"
       height="7.3472748"
       x="157.02345"
       y="526.62299"
       transform="rotate(-23.639445)" /><rect
       style="fill:#ffffff;fill-opacity:1;stroke:#ffffff;stroke-width:7.35451;stroke-linecap:round;stroke-dasharray:none;stroke-opacity:1"
       id="rect3-86"
       width="22.210045"
       height="7.5400071"
       x="345.54327"
       y="-66.620911"
       transform="rotate(38.238012)" /></g></svg>
