<svg xmlns="http://www.w3.org/2000/svg" viewBox="0 0 256 256"><defs><style>.cls-1{fill:#fff;}.cls-1,.cls-2{stroke:#000;stroke-miterlimit:10;}.cls-1,.cls-2,.cls-3{stroke-width:2px;}.cls-2{fill:none;}.cls-3,.cls-4{stroke:#fff;stroke-linecap:round;stroke-linejoin:round;}.cls-4{stroke-width:1.89px;}</style></defs><g id="inSygnias"><path class="cls-1" d="M256,180.33V256H192.91c-6.09-7.08-14.59-14.16-25.33-15.11-7.58-.67-13-.39-16.72,1-20.24,0-34.65-3.34-66-14.33-37.32-18.26-56.58-27.62-68.69-52.09-1.75-3.53-11.33-23.59-3.94-32.49,6.55-7.9,15.7-7.9,20.57-8.16-5-7.74-5.82-9.91-7.19-20-1.23-9,9.24-24.71,19.5-27-2.65-6.07-3.55-7.39.09-23.22,1.31-5.72,3.66-16.93,12.9-22.93,6-3.91,8.88-1.63,17.68-5.74C89.2,29.65,89.77,21.06,99.24,20.11c5.8-.58,12.67,1.93,15.3,6.7,2.11,3.82.65,9-2.39,19.11-3.78,12.66-5.54,12.45-5.26,16.24.51,6.7,6.08,8.59,23.41,23.42,7.8,6.66,11.85,10.71,22,18.64,10.61,8.29,15.3,11,17.2,9.56,1.65-1.24.65-5.1.48-5.74-2.18-8.42-11.24-9.18-22.46-18.64-5.63-4.75-13.85-11.67-13.38-20.54.24-4.62,2.88-10.76,7.65-12.43,6.52-2.28,12,5.59,29.63,18.64,18.32,13.56,22.47,12.52,32.49,23.42,3.9,4.24,9.61,10.44,13.86,20.07,8.13,18.41,1.43,27.82,8.6,42.05,2.88,5.71,8.64,13.47,21.5,20.07C247.86,180.68,251.37,180.47,256,180.33Z"/><path class="cls-2" d="M32.85,134.77a24.74,24.74,0,0,0,8.69,1.59c6.18,0,7.86-2.5,15.06-2.63A28.79,28.79,0,0,1,66,135.28c4.23,1.44,5.33,2.94,5.73,3.58a9.86,9.86,0,0,1,1.19,4.9,14.07,14.07,0,0,1-.53,4.84,13.27,13.27,0,0,1-2.33,4.48c-2.29,2.77-5.74,2.91-10.64,3.82-7.39,1.39-6.27,2.35-18.15,5-3.65.82-6.45,1.33-10,.84A23.19,23.19,0,0,1,25.06,161"/><path class="cls-2" d="M43.83,136.22c.32,1.13,2.5,7.66,5.36,9.57,3.58,2.4,7.55,1.55,9.2,1.2a14.74,14.74,0,0,0,6-2.87,16.18,16.18,0,0,0,2.27-2.27,37.36,37.36,0,0,0,3.69-4.49"/><path class="cls-2" d="M49.13,125.78a10.18,10.18,0,0,0,12.63-1.43c2.73-2.85,3.82-6.25,2.16-10"/><path class="cls-2" d="M46.17,110.1a26.34,26.34,0,0,0,12.19,4.3,25.87,25.87,0,0,0,16-3.76c9.32-5.88,13-19.36,13.35-21.06"/><path class="cls-2" d="M45.16,87.76A83,83,0,0,1,59,88.45c2.6.35,8.57,1.29,13.74,2.15a28.83,28.83,0,0,0,8.72.6c3.8-.43,5.42-1.56,6.93-1.79,3.49-.55,9.1,3.34,18.39,22.69"/><path class="cls-2" d="M57.17,42.3a178.29,178.29,0,0,0,19.62-1.4c6.46-.83,11.48-1.85,16.72.84,1.42.73,4,2.08,4.9,4.78,1.27,3.68-1.3,7.47-2.87,9.79a23.65,23.65,0,0,1-9.19,7.89c-6.62,3.08-13.42,1.16-13.86,3.34-.18.86,1.46,2.48,1.79,2.87,2,2.29,3.11,5.14-3.14,19.93"/><path class="cls-2" d="M97.87,45.37c-1.65.59-8,5.26-19.53,7.73-1.84.4-7.33.37-8.36-1.59-.21-.38-.43-1.21,2.15-4.56a41.46,41.46,0,0,1,5.73-6.05"/><path class="cls-2" d="M102.23,79.61a24.17,24.17,0,0,1,18.38-2"/><path class="cls-2" d="M113.24,42.25a15.08,15.08,0,0,1-6.94,10.12A14.57,14.57,0,0,1,97,54.1"/><path class="cls-2" d="M46.19,160.74c1.21,0,5.77-.41,9.33,2.5a14.45,14.45,0,0,1,4.9,7.88"/><path class="cls-2" d="M161.59,111.06a69.85,69.85,0,0,0-6.19,21.11c-.87,6.84-2.44,19.22,4.06,31.78a44,44,0,0,0,7.64,10.52"/><path class="cls-2" d="M139.43,57.72a60,60,0,0,0,12.86,11.85c4.27,2.89,7.06,3.9,10,3.59a11.25,11.25,0,0,0,4.53-1.54"/><path class="cls-2" d="M56.92,88.2s1.77,9,5.09,11.45,7.54,4.13,12.27,1.58a10.34,10.34,0,0,0,4.48-4.48,10,10,0,0,0,1-5"/><polygon class="cls-3" points="139.64 103.36 129.35 120.37 102.6 108.71 109.69 91.77 139.64 103.36"/><polygon class="cls-3" points="109.69 91.77 102.6 108.71 96.92 95.96 109.69 91.77"/><polygon class="cls-3" points="102.6 108.71 86.52 145.79 74.7 142.42 96.92 95.96 102.6 108.71"/><polygon class="cls-3" points="86.52 145.79 86.51 145.82 79.66 160.18 74.7 142.42 86.52 145.79"/><path class="cls-3" d="M112.6,157.63l-3.41,14.79L79.66,160.18l6.85-14.36S111.68,159,112.6,157.63Z"/><polygon class="cls-3" points="118.89 167.46 109.19 172.42 112.6 157.63 118.89 167.46"/><path class="cls-3" d="M141.52,119l-22.63,48.49-6.29-9.83c.91-1.33,16.75-37.26,16.75-37.26Z"/><polygon class="cls-3" points="141.52 118.97 129.35 120.37 139.64 103.36 141.52 118.97"/><path class="cls-3" d="M129.35,120.37s-15.84,35.93-16.75,37.26-26.09-11.81-26.09-11.81v0l16.08-37.08Z"/><polygon class="cls-4" points="142.86 155.38 136.45 165.56 119.65 162.3 123.17 151.3 142.86 155.38"/><polygon class="cls-4" points="123.17 151.3 119.65 162.3 116.06 156.14 123.17 151.3"/><polygon class="cls-4" points="119.65 162.3 109.65 183.8 102.23 183.3 116.06 156.14 119.65 162.3"/><polygon class="cls-4" points="109.65 183.8 109.64 183.81 105.38 192.21 102.23 183.3 109.65 183.8"/><path class="cls-4" d="M126,187.23l-2.11,8.25-18.54-3.27,4.26-8.4S125.45,188,126,187.23Z"/><polygon class="cls-4" points="129.99 191.77 123.92 195.47 126.03 187.23 129.99 191.77"/><path class="cls-4" d="M144.07,163.47,130,191.77l-4-4.54c.56-.81,10.42-21.67,10.42-21.67Z"/><polygon class="cls-4" points="144.07 163.47 136.45 165.56 142.86 155.38 144.07 163.47"/><path class="cls-4" d="M136.45,165.56s-9.86,20.86-10.42,21.67-16.39-3.42-16.39-3.42h0l10-21.5Z"/><polygon class="cls-3" points="95.36 156.2 99.16 166.81 83.66 175.79 76.97 166.58 95.36 156.2"/><polygon class="cls-3" points="76.97 166.58 83.66 175.79 75.71 174.28 76.97 166.58"/><polygon class="cls-3" points="83.66 175.79 94.37 195.87 88.34 200.43 75.71 174.28 83.66 175.79"/><polygon class="cls-3" points="94.37 195.87 94.38 195.88 98.29 203.96 88.34 200.43 94.37 195.87"/><path class="cls-3" d="M109.69,187.27l5.42,6.56L98.29,204l-3.91-8.08S109.94,188.15,109.69,187.27Z"/><polygon class="cls-3" points="116.55 187.51 115.11 193.83 109.69 187.27 116.55 187.51"/><path class="cls-3" d="M103.16,160.49l13.39,27-6.86-.24c-.26-.88-10.53-20.46-10.53-20.46Z"/><polygon class="cls-3" points="103.16 160.49 99.16 166.81 95.36 156.2 103.16 160.49"/><path class="cls-3" d="M99.16,166.81s10.27,19.58,10.53,20.46-15.31,8.61-15.31,8.61h0L83.66,175.79Z"/></g></svg>