<svg xmlns="http://www.w3.org/2000/svg" viewBox="0 0 256 256"><defs><style>.cls-1{fill:#f6f6f6;}.RGB-2pt-white-round-outline-on-black-bg{stroke:#f6f6f6;stroke-linecap:round;stroke-linejoin:round;stroke-width:2px;}</style></defs><g id="Traps"><path d="M162.08,237.68c-22.43,0-47.23-6.22-71.7-18-12.09-5.81-29.77-19.21-37.32-24.93a1,1,0,0,1-.39-.81l.15-17.12a1,1,0,0,1,.56-.89,1,1,0,0,1,.44-.1,1,1,0,0,1,.61.2c8.4,6.38,22.48,17,34.23,22.7,22.21,10.67,45.64,16.32,67.76,16.32h0c34.53,0,63-13.72,76.25-36.7a61.56,61.56,0,0,0,5.91-13.74c-2.34-24.23-18.41-47.79-45.24-66.36a1,1,0,0,1-.43-.82L193,81.23a1,1,0,0,1,.54-.89,1,1,0,0,1,.46-.11,1,1,0,0,1,.57.18c38.21,26.43,54.14,55.61,46.08,84.4a64.05,64.05,0,0,1-8.41,37.94c-13,22.52-37.87,34.93-70.13,34.93Z"/><path class="cls-1" d="M194,81.23c38,26.28,53.62,55.32,45.63,83.49-2.19-23.39-17.22-47.59-45.68-67.28L194,81.23m45.63,83.49a62.69,62.69,0,0,1-8.25,37.53c-12.92,22.45-38.16,34.43-69.27,34.43-21.64,0-46.12-5.8-71.27-17.89C79.32,213.27,62.94,201,53.67,194l.15-17.12c9.27,7,22.91,17.27,34.41,22.8,23.38,11.24,46.86,16.42,68.2,16.42,34.62,0,63.57-13.65,77.12-37.2a62.55,62.55,0,0,0,6-14.14M194,79.23a1.91,1.91,0,0,0-.93.23A2,2,0,0,0,192,81.22l-.05,16.21a2,2,0,0,0,.86,1.65c26.52,18.35,42.41,41.58,44.8,65.45a61.29,61.29,0,0,1-5.76,13.34c-13,22.66-41.23,36.19-75.39,36.19-22,0-45.26-5.61-67.34-16.23C77.43,192.23,63.41,181.6,55,175.24a2,2,0,0,0-1.21-.4,2.09,2.09,0,0,0-.88.2,2,2,0,0,0-1.12,1.78l-.15,17.12a2,2,0,0,0,.79,1.61c7.57,5.74,25.31,19.19,37.49,25,24.6,11.82,49.55,18.08,72.13,18.08,15.93,0,30.18-3,42.34-9a65.53,65.53,0,0,0,37.21-64.78c4-14.46,2-29.12-5.85-43.59s-21.56-28.5-40.67-41.73a2,2,0,0,0-1.14-.35Z"/><path d="M40.91,181.68a1,1,0,0,1-.72-.31C15.59,155.82,3.48,123.73,7.78,95.5,6.64,78.44,10.86,62.7,20,50c13.49-18.8,35.93-29.16,63.19-29.16,25.16,0,51.61,9,74.48,25.45a142.6,142.6,0,0,1,24.28,22,.94.94,0,0,1,.24.7l-.66,16.8a1,1,0,0,1-.67.9.92.92,0,0,1-.33.06,1,1,0,0,1-.75-.35,140.52,140.52,0,0,0-23.94-21.69C133.3,48.54,107.26,39.63,82.51,39.63,55.92,39.63,34.05,49.69,21,68A63.64,63.64,0,0,0,9.79,95.58c1.6,23.18,13.45,47.81,32.5,67.61a1,1,0,0,1,.28.73l-.66,16.8a1,1,0,0,1-.65.89A.84.84,0,0,1,40.91,181.68Z"/><path class="cls-1" d="M83.18,21.83c24,0,50.37,8.38,73.9,25.27A141,141,0,0,1,181.19,69l-.67,16.8a140.88,140.88,0,0,0-24.1-21.85C132.88,47,106.5,38.63,82.51,38.63c-25.71,0-48.67,9.64-62.38,28.74A64.83,64.83,0,0,0,8.78,95.54c-1.11-16.34,2.7-32,12-45C34.51,31.46,57.46,21.83,83.18,21.83M8.78,95.54c1.58,23.23,13.09,47.87,32.79,68.34l-.66,16.8C16.35,155.18,4.53,123.19,8.78,95.54m74.4-75.71a88.42,88.42,0,0,0-36.52,7.38A67.2,67.2,0,0,0,19.17,49.4C9.93,62.28,5.64,78.2,6.77,95.46c-4.3,28.51,7.92,60.87,32.7,86.61a2,2,0,0,0,1.44.61,1.94,1.94,0,0,0,.71-.13,2,2,0,0,0,1.29-1.79l.66-16.8a2,2,0,0,0-.56-1.47c-18.86-19.59-30.6-43.95-32.22-66.86a62.8,62.8,0,0,1,11-27.1c12.91-18,34.49-27.9,60.75-27.9,24.54,0,50.37,8.84,72.74,24.89A138.9,138.9,0,0,1,179,87.06a2,2,0,0,0,1.51.69,2,2,0,0,0,.67-.12,2,2,0,0,0,1.33-1.81L183.18,69a2,2,0,0,0-.49-1.4,143.29,143.29,0,0,0-24.44-22.16C135.2,28.94,108.54,19.83,83.18,19.83Z"/><path class="RGB-2pt-white-round-outline-on-black-bg" d="M114.53,123.54l-74.47,50,8.41,12.53L183.4,95.46c5.83,3.51,10.5,1.53,13.53-3,3.14-4.74-2.88-12.57-9-16.62s-10-2.8-13.17,1.93a7.19,7.19,0,0,0-.64,5.79l-59.59,40"/><path class="RGB-2pt-white-round-outline-on-black-bg" d="M33.5,172.84c3.13-4.74,7-6,13.17-1.94s12.13,11.88,9,16.62-8.05,6.71-14.17,2.65S30.36,177.57,33.5,172.84Z"/><path class="RGB-2pt-white-round-outline-on-black-bg" d="M153.4,146.71c-7,10.4-24.79,10.68-39.74.62s-21.41-26.64-14.42-37l1.77-3.8c7-10.4,24.79-10.68,39.75-.62s21.41,26.64,14.41,37Z"/><path d="M30.22,256a1,1,0,0,1-.75-.34,1,1,0,0,1-.24-.79l1.24-9.45a4.8,4.8,0,0,1-1.42.64,4.53,4.53,0,0,1-1.27.18,4.79,4.79,0,0,1-2-.46l-1.21,9.35a1,1,0,0,1-1,.87h-2a1,1,0,0,1-1-1.13L21.93,244a6.09,6.09,0,0,1,.9-2.49l-3.66-13.32a4.8,4.8,0,0,1,1.29-4.71c0-.09.05-.19.08-.28l4.54-13.28a6.09,6.09,0,0,1-2-5.24l1.45-12.28A6.15,6.15,0,0,1,30.64,187l8.73-10.54a3.86,3.86,0,0,1,3-1.4,3.88,3.88,0,0,1,3.85,3.5,3.92,3.92,0,0,1-.87,2.83l-8.41,10.15a6.13,6.13,0,0,1,.2,2.36l-1.46,12.28a6.11,6.11,0,0,1-2.6,4.33l-4.93,14.4a3.86,3.86,0,0,1,.29.75l4,14.5a6.06,6.06,0,0,1,2.09,5.35l-1.26,9.64a1,1,0,0,1-1,.87Zm-4-17.15a6,6,0,0,1,1.58-.27L25,228.23a4,4,0,0,1-.78.08,4.4,4.4,0,0,1-.88-.1Zm.83-33.71a2.06,2.06,0,0,0,0,.43,3.89,3.89,0,0,1,4.68-.41l1.14-9.59a4,4,0,0,1-1.34.24,3.87,3.87,0,0,1-2.46-.89,3.69,3.69,0,0,1-.71-.77Z"/><path class="cls-1" d="M42.35,176a2.84,2.84,0,0,1,1.83.66,2.8,2.8,0,0,1,1,1.93,2.89,2.89,0,0,1-.64,2.1l-8.77,10.58a5.05,5.05,0,0,1,.34,2.45L34.67,206a5.16,5.16,0,0,1-2.45,3.8L27.05,225a3.7,3.7,0,0,1,.41.93l4,14.52c0,.09,0,.17,0,.25a5.15,5.15,0,0,1,2,4.69L32.24,255h-2l1.29-9.87a3.09,3.09,0,0,0-.39-1.9.36.36,0,0,1,0,.09,3.76,3.76,0,0,1-2.29,1.78,3.85,3.85,0,0,1-1,.14,3.77,3.77,0,0,1-1.87-.5A3.73,3.73,0,0,1,25,244c0,.12-.06.24-.08.36L23.53,255h-2l1.41-10.88a5.07,5.07,0,0,1,1-2.44l-3.78-13.76a3.79,3.79,0,0,1,.36-2.89,3.87,3.87,0,0,1,.89-1,2.47,2.47,0,0,1,.11-.47l4.77-13.94a5.14,5.14,0,0,1-2.16-4.79l1.45-12.28A5.17,5.17,0,0,1,30.68,188l.42,0,9-10.92a2.86,2.86,0,0,1,2.21-1m-7.7,13.51L43,179.46a.88.88,0,0,0,.2-.64.82.82,0,0,0-.31-.58.83.83,0,0,0-.55-.2.85.85,0,0,0-.67.31l-8.44,10.19a5,5,0,0,1,1.41,1m-3.1,3.26a.86.86,0,0,0,.67-.32l1.16-1.39a3.16,3.16,0,0,0-1.47-.95l-1,1.24a.86.86,0,0,0,.11,1.22.89.89,0,0,0,.55.2M27,207.56l0-.06a2.81,2.81,0,0,1,1.45-1.65,2.91,2.91,0,0,1,1.26-.29,3,3,0,0,1,.93.15,2.81,2.81,0,0,1,1.6,1.4,3,3,0,0,0,.47-1.31l1.46-12.27a1.61,1.61,0,0,0,0-.22l-.38.46a2.87,2.87,0,0,1-4,.38h0a2.85,2.85,0,0,1-.52-3.82,3.15,3.15,0,0,0-1.66,2.42L26.09,205a3.11,3.11,0,0,0,.86,2.54m2.59,1a3.21,3.21,0,0,0,1-.16.86.86,0,0,0-.57-.82.9.9,0,0,0-.28,0,.85.85,0,0,0-.38.09.82.82,0,0,0-.44.49l-.12.36.1,0,.35,0,.35,0m-5.8,14.55h.06a3.79,3.79,0,0,1,1.64.38l4.42-13-.3,0-.61,0h0l-.34,0c-.18,0-.35-.08-.52-.12l-4.35,12.74m.42,2.17a.93.93,0,0,0,.29-.05,1.85,1.85,0,0,0-.65-.14l-.11,0a.86.86,0,0,0,.23.13.67.67,0,0,0,.24,0m1.42,14.91a5.26,5.26,0,0,1,2.48-.64,5.65,5.65,0,0,1,.58,0l.35,0,.18,0L25.66,226.9l-.2.11a2.81,2.81,0,0,1-1.26.3,2.76,2.76,0,0,1-.93-.16,2.79,2.79,0,0,1-1.18-.8,1.84,1.84,0,0,0,0,1l3.52,12.82m2.2,3a1.59,1.59,0,0,0,.48-.07,1.84,1.84,0,0,0,1.09-.84,2.22,2.22,0,0,0,.18-.49,3.36,3.36,0,0,0-.77-.2l-.35,0-.37,0a3.11,3.11,0,0,0-1.88.64,1.8,1.8,0,0,0,.73.79,1.78,1.78,0,0,0,.89.24M42.35,174h0a4.85,4.85,0,0,0-3.75,1.76L30.15,186a7.15,7.15,0,0,0-6.58,6.28l-1.46,12.27a7.11,7.11,0,0,0,1.83,5.63L19.6,222.87l0,.08a5.12,5.12,0,0,0-.81,1.1,5.74,5.74,0,0,0-.56,4.4l3.55,12.91a6.9,6.9,0,0,0-.81,2.52l-1.4,10.86a2,2,0,0,0,2,2.26h2a2,2,0,0,0,2-1.74l1.05-8.15a5.74,5.74,0,0,0,2.68-.06l-1,7.69a2,2,0,0,0,2,2.26h2a2,2,0,0,0,2-1.74l1.26-9.63a7.17,7.17,0,0,0-2.19-6l-3.9-14.21q-.08-.27-.18-.54l4.69-13.73a7.1,7.1,0,0,0,2.76-4.84L38.11,194a7,7,0,0,0-.1-2.23L46.1,182a4.88,4.88,0,0,0,1.09-3.56,4.79,4.79,0,0,0-1.74-3.29,4.87,4.87,0,0,0-3.1-1.12Zm-14.1,29.73.9-7.6a4.87,4.87,0,0,0,2.4.64h.19l-.82,6.92a4.74,4.74,0,0,0-1.24-.16,4.9,4.9,0,0,0-1.43.21Z"/></g></svg>