<svg xmlns="http://www.w3.org/2000/svg" viewBox="0 0 256 256"><defs><style>.cls-1,.cls-4{fill:#fff;}.cls-1,.cls-2,.cls-3,.cls-4{stroke:#000;}.cls-1,.cls-2,.cls-4{stroke-miterlimit:10;}.cls-1,.cls-2,.cls-3{stroke-width:2px;}.cls-3{stroke-linecap:round;stroke-linejoin:round;}.cls-4{stroke-width:2.24px;}</style></defs><g id="hunting_psychonauts"><polygon class="cls-1" points="169.27 214.97 153.13 201.09 156.55 208.96 150.34 203.3 153.56 211.33 146.8 205.17 149.84 212.75 143.48 206.5 146.21 214.19 140.56 208.63 142.48 214.07 137.84 209.5 140 215.6 134.82 210.5 136.76 215.99 131.36 210.96 134.51 220.56 128.55 211.63 129.91 221.62 124.29 210.81 124.83 231.33 122.07 210.99 119.56 218.69 118.54 209.13 115.62 217.26 114.65 208.18 111.89 215.86 111.29 206.97 108.22 214.53 107.69 206.62 105.52 211.96 105.08 205.47 102.65 211.47 102.16 204.21 99.73 210.19 99.14 201.41 96.25 208.52 95.64 199.5 87.84 218.73 91.76 219.59 91.33 220.64 95.15 221.48 94.35 223.45 97.5 224.14 97.27 224.7 100.1 225.32 99.88 225.85 107.69 227.56 107.6 227.8 111.6 228.47 111.5 228.75 116.03 229.51 115.59 230.87 124.93 232.09 124.86 231.56 131.09 230.32 131.34 232.19 140.36 229.35 139.94 228.71 141.05 228.08 141.75 230.07 144.57 228.49 144.77 229.07 147.29 227.66 147.49 228.2 154.46 224.29 154.56 224.53 157.99 222.38 158.1 222.65 166.09 217.64 165.77 217.35 169.27 214.97"/><polygon class="cls-1" points="99.31 181.44 100.03 192.08 104.06 182.05 104.77 192.47 108.9 182.19 109.67 193.57 114.33 181.99 115.2 195 119.09 185.33 122.43 196.97 124.53 184.82 127.84 196.42 130.08 183.49 134.47 195.88 135.78 183.94 141.07 196.07 141.53 184.3 148.51 193.24 145.37 178.72 153.92 189.66 149.49 169.22 140.81 172.88 141.57 173.86 136.67 175.92 136.76 175.1 127.36 175.81 127.38 175.87 122.88 175.93 123.01 175.59 117.36 174.46 117.48 174.16 112.53 173.18 112.58 173.07 103.33 171.22 103.37 171.79 103.21 171.76 103.32 171.48 95.26 168.46 95.51 190.88 99.31 181.44"/><path class="cls-1" d="M124.5,8.78A98.91,98.91,0,0,0,86,18.91c-10.63,5.18-17.32,8.45-23.16,16.21-7,9.24-8.35,19.09-9.26,25.47-.67,4.69.19,11.74,1.15,25.77.31,4.41.58,7.51-.86,11.29-1.66,4.32-4,5.6-3.77,9,.3,3.64,3.3,4.87,2.61,7.53-.57,2.19-2.87,2.31-4.34,4.34s-1.59,5.58,1.3,12.88C53,139.84,57.35,150.78,68.48,158a60.23,60.23,0,0,0,11.15,5.65c6.54,2.33,9.49,1.8,12.16,4.63C95,171.68,93,174.89,95,179c4.69,9.92,24.71,9.44,32.13,9.26,9.92-.23,20.16-.48,24.9-7.23,3.77-5.38.27-9.51,4.34-13.9,5-5.44,12.21-1,22-6.66,4.35-2.5,6.73-5.55,9.84-9.55,4.68-6,11.42-14.65,9.56-23.45-.92-4.32-3.47-6.57-2.9-11.86.35-3.21,1.41-3.53,2-6.66,1.27-6.44-2.24-9.92-3.19-15.92-1.1-7,2.32-11.15,4.06-16.79,4.89-15.93-6.88-33.55-10.28-38.65C171.73,14,145.17,10.14,139.84,9.36A77.08,77.08,0,0,0,124.5,8.78Z"/><path class="cls-2" d="M72.39,105.32c-2.06-.41-5.16-1-8,.43-3.53,1.85-4.56,5.94-5.06,8-1.84,7.3,1.8,13.53,2.6,14.91a23.86,23.86,0,0,0,8.54,8.4c5.4,3.32,10.44,3.8,16.07,4.34,4.47.43,9.53.86,15.77-.87,3.4-.94,8.8-2.52,12.74-7.38,1.34-1.65,3.46-4.27,3-7.53s-3.34-5.42-5.07-6.66c-1.14-.81-3.44-2.23-10.85-3.61-6.6-1.24-6-.34-9.7-1.31-3.12-.81-6.61-2.57-13.6-6.08A23.55,23.55,0,0,0,72.39,105.32Z"/><path class="cls-2" d="M175.88,103.58c-2.68,0-3.75.71-12.3,4-4.13,1.62-6.77,2.6-9.27,3.48a58,58,0,0,1-9.26,2.75c-3.67.68-3.73.2-5.93.87-2,.6-6.24,1.89-8.25,5.93a10.82,10.82,0,0,0-.58,7.67c1,3.59,3.56,5.59,5.35,6.95,3.62,2.75,7.14,3.44,11.73,4.34a48.17,48.17,0,0,0,14.18.73,36.15,36.15,0,0,0,12.16-3.19c3.31-1.57,8.45-4,11.87-9.7a19.81,19.81,0,0,0,2.89-12.73c-.28-2.08-.82-6-4.05-8.69C181.36,103.5,177.64,103.56,175.88,103.58Z"/><path class="cls-3" d="M121.6,139.62c-2.76-1.24-7.68,6.9-10.42,11.36-4.08,6.65-4.51,10.3-4.56,12.38s-.12,5.79,2.43,7.92a7.72,7.72,0,0,0,6.18,1.34c3.62-.7,6.55-4,7.53-8.25a24.77,24.77,0,0,0,3.84,5.5c2.08,2.26,3.43,3.73,5.53,3.87a6.63,6.63,0,0,0,4.82-2.06c2.52-2.52,2.35-6.2,2.24-8.47-.21-4.37-2-7.57-3.4-10.2-2.2-4-2.64-2.86-5-7.16-1.24-2.27-2.19-4.54-4.7-5.94-.83-.46-1.7-.94-2.39-.65-1.3.56-1.75,4.38.07,13.59C121.87,149.41,122.9,140.2,121.6,139.62Z"/><path class="cls-4" d="M71.67,166c-1.75,1.6-.2,6,1.59,11,1.91,5.37,3,5.8,5.21,11.15,2.64,6.37,4.34,10.49,3.33,15.2-1,4.9-4,5.29-4.34,9.69-.17,1.84.09,4.54,4.63,11.29,5.67,8.43,8.65,12.87,14.76,16.07a33.2,33.2,0,0,0,19.4,3.47c5.63-.79,9.69-3.12,15.34-1.15,2.22.77,2.88,1.57,5.36,2a17.33,17.33,0,0,0,10.85-1.88c5.44-3.11,3.71-6.78,11-15,3.06-3.47,4.39-4,7.09-7.82,2.43-3.44,4-5.65,4.63-8.83,1.1-5.4-1.69-7.46-2-15.05-.15-3.25.25-5.46,1-9.7,2.13-11.86,8.47-18,6.51-20-.84-.84-2.62-.35-5.5.43-2.08.57-4.86,1.33-6.36,3.62-1,1.49-.85,2.74-1,5.65a70.62,70.62,0,0,1-1.3,9.55c-1.45,6.74-4.61,5.92-6.66,12.88-1.63,5.54-.12,7.73-2.75,11.58a15.53,15.53,0,0,1-5.21,4.63c-3,1.75-5.75,2.26-11.14,2.75-9.08.82-13.62,1.23-19.54.44a47.94,47.94,0,0,1-12.16-3c-5.23-2.11-9.78-3.94-11.44-8.11-1.15-2.9.23-4.09-1.3-8.11-1.25-3.29-2.52-3.41-3.92-6.53S87,187.66,86.29,182c-.76-6-1.18-9.23-3.48-12C79.65,166.18,73.66,164.14,71.67,166Z"/><g id="Layer_2" data-name="Layer 2"><g id="Layer_1-2" data-name="Layer 1-2"><path d="M128.67,54.82l-3.22-3.91-3.22,3.91a10.28,10.28,0,0,1,6.44,0m-11.33,3.56-4.77,1.9,2.76,4.43v-.35a10.6,10.6,0,0,1,2-6m-.23,11.73.35,5.3,5.23-1.33a10.18,10.18,0,0,1-5.58-4m11,4,5.24,1.33.34-5.3a9.77,9.77,0,0,1-5.58,4m7.36-9.37,2.76-4.43-4.77-1.9a10.19,10.19,0,0,1,2,6,.85.85,0,0,1,0,.35m-2.7-10.41,2.3.92-.52-3.28-3.33.52ZM139,56.77l2.42,1,1-5.64-4.26-.63Zm-5.06-8.22-2-4-5.06,2.65,1.78,2.18Zm8.4,11.9-1.44,2.3,2.3,4.66,3.17-3Zm-3.62,5.81-1.33,2.07L137.18,71l3-1.61ZM137,75.06l-.17,2.42,5.58-.81-.69-4Zm-2.59,4.2L132,78.63l-3.74,3.68,3.68,1.89ZM128,77.65,125.45,77l-2.53.63,2.53,2.47Zm-9,1-2.41.63,2.47,5,3.68-1.9Zm-4.83-1.15L114,75.06l-4.72-2.42-.69,4Zm-.4-6.5-.17-2.65-1.33-2.07-1.61,3.16ZM110,62.75l-1.44-2.3-4,3.91,3.16,3Zm-.52-5,2.42-1,.86-5.29-4.26.63Zm6.21-2.53,2.3-.92,1.55-1.84-3.33-.52Zm6.5-5.87L124,47.17,119,44.52l-2,4Zm3.22,8.4a6.62,6.62,0,1,0,6.61,6.61h0a6.65,6.65,0,0,0-6.61-6.61m0-13.8,4.72-2.47-4.72-4.26-4.72,4.26Zm8-4.2h0l7.19-.8L137,29l-8.85,5.86ZM145,42.05l1.43,7.13h.06v.06l6.33,3.56,2.87-10.23Zm9.37,15.7-3,6.61h0l3,6.62,8.34-6.62ZM152.71,76l-6.33,3.57v0h0l-1.44,7.08,10.64-.46Zm-12,13.8L133.5,89h0l-5.35,4.89,8.8,5.86Zm-17.83,4.09L117.51,89h-.05l-7.19.8,3.68,10ZM106,86.68l-1.43-7.08h-.06v0L98.19,76,95.32,86.22ZM96.58,71l3-6.56v-.06h0l-3-6.61-8.34,6.61Zm1.61-18.23,6.33-3.57v-.06h.06L106,42l-10.64.52Zm12-13.8,7.19.8h0l5.35-4.89L114,29Zm24.9,4.14,2.36,4.77,5.23.75-1.26-6.21Zm10.64,9.77L144.83,58l3.8,3.68L151.27,56ZM148.63,67l-3.8,3.68v.11l.06.12h-.06l.86,5,5.52-3.16ZM142.7,80.12l-5.23.75-2.36,4.77,6.33.69Zm-12.53,7.13-4.49-2.36-.23.18-.17-.18-4.49,2.36,4.72,4.26Zm-14.38-1.61-2.36-4.77-5.23-.75,1.26,6.21Zm-10.64-9.72.86-5H106l.05-.12v-.11L102.22,67l-2.59,5.75Zm-2.88-14.14,3.8-3.74-.92-5.18L99.63,56Zm5.93-13.17,5.23-.75,2.36-4.77-6.33-.69Zm49.69,33,.17.57,1.61-.4-.4-1Zm1.09,4,1.09,4-4.08.17.34,5.53-5.58-.35L150,98.18l-3.34-.35-1.38,5.41-5.17-2-1.44,3.85-3.45-2.3-2.94,4.71L128,103.93l-2.53,2.24-2.53-2.24-4.31,3.56-2.94-4.65-3.45,2.3-1.43-3.86-5.18,2-1.38-5.41-3.34.35-.69-3.34-5.57.35L95,89.72l-4.08-.17,1.09-4L86.63,84.2,88.7,79,85.83,77.3l1.32-3.1-4.83-3L85.83,67l-3.22-2.59,3.22-2.53-3.51-4.31,4.72-3-1.33-3.11,2.88-1.72-2.07-5.18,5.35-1.38-1.1-4L94.86,39l-.35-5.52,5.58.35.75-3.28,3.33.29,1.38-5.41,5.18,2,1.49-3.79,3.45,2.24,2.94-4.66,4.31,3.57,2.53-2.24L128,24.8l4.31-3.57,3,4.66,3.45-2.24,1.44,3.85,5.18-2,1.38,5.4,3.33-.28.69,3.27,5.58-.34L156,39.06l4.08.17-1.09,4,5.35,1.38-2.07,5.18,2.87,1.72-1.32,3.11,4.71,3L165,61.83l3.22,2.53L165,66.89l3.5,4.26-4.71,3,1.32,3.11L162.26,79l2.07,5.18Zm-6.5,4.26h-.63l-.35,1.55,1.09.06Zm-10.93,7.53-.23.58,1.56.63.28-1Zm-9.2,3.51-.52-.34-1.2,1,.8.69Zm-13.28-.34-.52.34.92,1.38.8-.69ZM109.58,98l-.23-.58-1.61.18.29,1ZM99,89.9h-.64l-.11,1.66,1.09,0Zm-6.16-7.71.18-.57-1.38-.81-.41,1ZM89.05,69.48l-.46-.4-1,1.26.92.58Zm-.46-9.83.46-.4-.63-1.44-.92.57ZM93,47.11l-.18-.57-1.61.4.41,1Zm5.4-8.22h.63l.35-1.56-1.09,0Zm10.93-7.54.23-.57L108,30.15l-.29,1Zm9.2-3.5.52.34,1.2-1-.8-.69Zm13.28.34.52-.34-.86-1.38-.86.63Zm9.49,2.59.23.57,1.61-.17-.28-1Zm10.58,8h.64l.11-1.67-1.09.06Zm6.16,7.71-.17.57,1.38.81.4-1Zm3.79,12.71.46.4,1-1.27-.92-.57Zm.46,9.83-.46.4.64,1.5.92-.58ZM107.74,34.69l-4.14-.4-.92,4,3.74-.17Zm17.71-7.48L122.35,30l3.1,2.07L128.56,30Zm21.85,7.08-4.14.4,1.33,3.51,3.73.17Zm13.46,18.57-3.56-2.13-1,3.63,2.93,2.3Zm0,23L159.09,72l-2.93,2.3,1,3.63ZM147.3,94.44l.92-4-3.73.18-1.33,3.51Zm-21.85,7.07,3.11-2.76-3.11-2.07-3.1,2.07ZM103.6,94.44l4.14-.4-1.27-3.51-3.74-.17ZM90.14,75.87,93.71,78l1-3.62-2.93-2.3Zm0-23,1.67,3.8,2.93-2.31-1-3.62Z"/></g></g></g></svg>