<svg xmlns="http://www.w3.org/2000/svg" viewBox="0 0 256 256"><defs><style>.cls-1,.cls-2{fill:#f6f6f6;}.cls-2,.cls-3{stroke:#000;}.cls-2,.cls-3,.cls-4{stroke-linecap:round;stroke-linejoin:round;stroke-width:2px;}.cls-3{fill:#fff;}.cls-4{stroke:#fff;}</style></defs><g id="Gasmask"><path d="M120.78,65.18a8.77,8.77,0,1,1,0-17.53h15.51a8.77,8.77,0,1,1,0,17.53Zm0-11.85a3.09,3.09,0,1,0,0,6.17h15.51a3.09,3.09,0,1,0,0-6.17Z"/><path class="cls-1" d="M136.29,48.65a7.77,7.77,0,1,1,0,15.53H120.78a7.77,7.77,0,1,1,0-15.53h15.51M120.78,60.5h15.51a4.09,4.09,0,1,0,0-8.17H120.78a4.09,4.09,0,1,0,0,8.17m15.51-13.85H120.78a9.77,9.77,0,1,0,0,19.53h15.51a9.77,9.77,0,1,0,0-19.53ZM120.78,58.5a2.09,2.09,0,1,1,0-4.17h15.51a2.09,2.09,0,1,1,0,4.17Z"/><path id="trip" class="cls-2" d="M128.53,65.37c-31.4,0-33.87,60.5-53,67.16S38.39,116,38.39,116l-6.56,41.68s24.13,63.11,96.7,60.5c72.58,2.61,96.71-60.5,96.71-60.5L218.68,116s-17.93,23.16-37.1,16.5S159.94,65.37,128.53,65.37Z"/><rect class="cls-2" x="112.03" y="106.29" width="33.01" height="76.91" rx="2.21"/><rect class="cls-3" x="123.37" y="56.57" width="10.34" height="18.54" rx="2.14"/><rect class="cls-4" x="121.54" y="6.81" width="13.97" height="46.57"/><path class="cls-2" d="M150.19,201.74H106.88a9.21,9.21,0,0,1-9.21-9.21l4-22.25a9.21,9.21,0,0,1,9.21-9.21h34.32a9.21,9.21,0,0,1,9.21,9.21l5,22.25A9.21,9.21,0,0,1,150.19,201.74Z"/><path class="cls-2" d="M122.6,201.74s0-15.73,0-15.73"/><path class="cls-2" d="M134.45,201.74s0-15.73,0-15.73"/><path class="cls-2" d="M128.53,201.74s0-15.73,0-15.73"/><path class="cls-2" d="M128.47,139.77h-1.1a6.81,6.81,0,0,1-6.8-6.81L119,99.67a6.81,6.81,0,0,1,6.8-6.8h5.5a6.81,6.81,0,0,1,6.81,6.8L135.27,133A6.81,6.81,0,0,1,128.47,139.77Z"/><path class="cls-2" d="M233.19,152.65l-26.63-10.12c-16.53-6.28-38,9.93-48,36.21s-4.69,52.69,11.84,59L197,247.84"/><ellipse class="cls-2" cx="215.1" cy="200.25" rx="50.91" ry="32.02" transform="translate(-48.51 330.16) rotate(-69.19)"/><ellipse class="cls-2" cx="215.8" cy="200.51" rx="34.54" ry="20.98" transform="translate(-48.31 330.98) rotate(-69.19)"/><path class="cls-2" d="M23.88,152.65l26.63-10.12c16.53-6.28,38,9.93,48,36.21s4.69,52.69-11.84,59L60.06,247.84"/><ellipse class="cls-2" cx="41.97" cy="200.25" rx="32.02" ry="50.91" transform="translate(-68.41 27.98) rotate(-20.81)"/><ellipse class="cls-2" cx="41.27" cy="200.51" rx="20.98" ry="34.54" transform="translate(-68.55 27.75) rotate(-20.81)"/></g></svg>