<?xml version="1.0" encoding="UTF-8" standalone="no"?>
<!-- Uploaded to: SVG Repo, www.svgrepo.com, Generator: SVG Repo Mixer Tools -->

<svg
   width="800px"
   height="800px"
   viewBox="0 0 512 512"
   version="1.1"
   id="svg1"
   sodipodi:docname="burn.svg"
   xml:space="preserve"
   inkscape:version="1.3.2 (091e20e, 2023-11-25, custom)"
   xmlns:inkscape="http://www.inkscape.org/namespaces/inkscape"
   xmlns:sodipodi="http://sodipodi.sourceforge.net/DTD/sodipodi-0.dtd"
   xmlns="http://www.w3.org/2000/svg"
   xmlns:svg="http://www.w3.org/2000/svg"><defs
     id="defs1" /><sodipodi:namedview
     id="namedview1"
     pagecolor="#ffffff"
     bordercolor="#000000"
     borderopacity="0.25"
     inkscape:showpageshadow="2"
     inkscape:pageopacity="0.0"
     inkscape:pagecheckerboard="0"
     inkscape:deskcolor="#d1d1d1"
     inkscape:zoom="1.8567357"
     inkscape:cx="400.16465"
     inkscape:cy="436.78807"
     inkscape:window-width="3818"
     inkscape:window-height="1955"
     inkscape:window-x="0"
     inkscape:window-y="34"
     inkscape:window-maximized="0"
     inkscape:current-layer="g22" /><path
     style="display:inline;opacity:1;fill:#000000;fill-opacity:1;stroke:#000000;stroke-width:9.6;stroke-linecap:round;stroke-dasharray:none;stroke-opacity:1"
     id="path22"
     sodipodi:type="arc"
     sodipodi:cx="256.10538"
     sodipodi:cy="256.45007"
     sodipodi:rx="234.38986"
     sodipodi:ry="234.38986"
     sodipodi:start="6.2390891"
     sodipodi:end="6.2357729"
     sodipodi:open="true"
     sodipodi:arc-type="arc"
     d="M 490.26739,246.11772 A 234.38986,234.38986 0 0 1 266.63186,490.60344 234.38986,234.38986 0 0 1 21.960815,267.17068 234.38986,234.38986 0 0 1 245.19066,22.314479 234.38986,234.38986 0 0 1 490.23184,245.34125"
     inkscape:label="cercle" /><g
     id="g22"
     transform="translate(-4.1362916,-1.0340729)"
     inkscape:label="Burn"><g
       id="g21"
       transform="matrix(-1,0,0,1,586.27657,-3.759442)"
       inkscape:label="lignes"><path
         style="fill:none;stroke:#ffffff;stroke-width:9.6;stroke-linecap:round;stroke-dasharray:none"
         d="m 325.88347,452.65412 -58.73765,-0.26191"
         id="path4-8"
         sodipodi:nodetypes="cc" /><path
         style="fill:none;stroke:#ffffff;stroke-width:9.6;stroke-linecap:round;stroke-dasharray:none"
         d="m 325.76569,352.26392 -58.59534,99.98967 v 0"
         id="path5-3" /><path
         style="fill:none;stroke:#ffffff;stroke-width:9.6;stroke-linecap:round;stroke-dasharray:none"
         d="M 307.7256,383.30967 256.82176,332.40584"
         id="path6-1" /><path
         style="fill:none;stroke:#ffffff;stroke-width:9.6;stroke-linecap:round;stroke-dasharray:none"
         d="M 267.31019,452.39344 256.68192,332.68552"
         id="path7-2" /><path
         style="fill:none;stroke:#ffffff;stroke-width:9.6;stroke-linecap:round;stroke-dasharray:none"
         d="M 265.35236,432.11581 192.77244,334.36367"
         id="path8-8" /><path
         style="fill:none;stroke:#ffffff;stroke-width:9.6;stroke-linecap:round;stroke-dasharray:none"
         d="M 257.521,344.43256 192.63259,334.22383"
         id="path9-7" /><path
         style="fill:none;stroke:#ffffff;stroke-width:9.6;stroke-linecap:round;stroke-dasharray:none"
         d="m 264.79297,340.37704 60.97272,-60.69303"
         id="path10-3"
         sodipodi:nodetypes="cc" /><path
         style="fill:none;stroke:#ffffff;stroke-width:9.6;stroke-linecap:round;stroke-dasharray:none"
         d="M 256.96161,333.10506 235.98476,270.1745"
         id="path11-0" /><path
         style="fill:none;stroke:#ffffff;stroke-width:9.6;stroke-linecap:round;stroke-dasharray:none"
         d="m 264.37343,234.51385 -27.96914,35.24111"
         id="path12-2" /><path
         style="fill:none;stroke:#ffffff;stroke-width:9.6;stroke-linecap:round;stroke-dasharray:none"
         d="M 307.86544,297.02488 264.37343,234.65369"
         id="path13-4" /><path
         style="fill:none;stroke:#ffffff;stroke-width:9.6;stroke-linecap:round;stroke-dasharray:none"
         d="M 236.26445,270.1745 186.47938,225.00434"
         id="path14-2" /><path
         style="fill:none;stroke:#ffffff;stroke-width:9.6;stroke-linecap:round;stroke-dasharray:none"
         d="M 197.66704,334.92306 185.92,225.14418"
         id="path15-8" /><path
         style="fill:none;stroke:#ffffff;stroke-width:9.6;stroke-linecap:round;stroke-dasharray:none"
         d="m 264.65312,235.07323 -53.2812,-66.14701"
         id="path16-3" /><path
         style="fill:none;stroke:#ffffff;stroke-width:9.6;stroke-linecap:round;stroke-dasharray:none"
         d="m 195.84904,233.25524 15.52288,-64.60871"
         id="path17-8" /><path
         style="fill:none;stroke:#ffffff;stroke-width:9.6;stroke-linecap:round;stroke-dasharray:none"
         d="m 223.67833,183.74986 28.10899,-75.51668"
         id="path18-1" /><path
         style="fill:none;stroke:#ffffff;stroke-width:9.6;stroke-linecap:round;stroke-dasharray:none"
         d="M 275.84078,251.15549 296.1184,168.78637 251.92717,108.23319"
         id="path19-6" /><path
         style="fill:none;stroke:#ffffff;stroke-width:9.6;stroke-linecap:round;stroke-dasharray:none"
         d="m 285.49014,213.2573 40.27555,-33.84266"
         id="path20-0" /><path
         style="fill:none;stroke:#ffffff;stroke-width:9.6;stroke-linecap:round;stroke-dasharray:none"
         d="M 259.61868,118.72161 326.04539,47.68 v 0"
         id="path21-2" /><path
         style="opacity:1;fill:none;stroke:#ffffff;stroke-width:9.6;stroke-linecap:round;stroke-dasharray:none"
         d="M 259.73486,448.86451 200.99721,448.6026"
         id="path4"
         sodipodi:nodetypes="cc"
         transform="matrix(-1,0,0,1,586.27657,3.759442)" /><path
         style="opacity:1;fill:none;stroke:#ffffff;stroke-width:9.6;stroke-linecap:round;stroke-dasharray:none"
         d="m 259.61708,348.47431 -58.59534,99.98967 v 0"
         id="path5"
         transform="matrix(-1,0,0,1,586.27657,3.759442)" /><path
         style="opacity:1;fill:none;stroke:#ffffff;stroke-width:9.6;stroke-linecap:round;stroke-dasharray:none"
         d="M 241.57699,379.52006 190.67315,328.61623"
         id="path6"
         transform="matrix(-1,0,0,1,586.27657,3.759442)" /><path
         style="opacity:1;fill:none;stroke:#ffffff;stroke-width:9.6;stroke-linecap:round;stroke-dasharray:none"
         d="M 201.16158,448.60383 190.53331,328.89591"
         id="path7"
         transform="matrix(-1,0,0,1,586.27657,3.759442)" /><path
         style="opacity:1;fill:none;stroke:#ffffff;stroke-width:9.6;stroke-linecap:round;stroke-dasharray:none"
         d="M 199.20375,428.3262 126.62383,330.57406"
         id="path8"
         transform="matrix(-1,0,0,1,586.27657,3.759442)" /><path
         style="opacity:1;fill:none;stroke:#ffffff;stroke-width:9.6;stroke-linecap:round;stroke-dasharray:none"
         d="M 191.37239,340.64295 126.48398,330.43422"
         id="path9"
         transform="matrix(-1,0,0,1,586.27657,3.759442)" /><path
         style="opacity:1;fill:none;stroke:#ffffff;stroke-width:9.6;stroke-linecap:round;stroke-dasharray:none"
         d="M 198.64436,336.58743 259.61708,275.8944"
         id="path10"
         sodipodi:nodetypes="cc"
         transform="matrix(-1,0,0,1,586.27657,3.759442)" /><path
         style="opacity:1;fill:none;stroke:#ffffff;stroke-width:9.6;stroke-linecap:round;stroke-dasharray:none"
         d="M 190.813,329.31545 169.83615,266.38489"
         id="path11"
         transform="matrix(-1,0,0,1,586.27657,3.759442)" /><path
         style="opacity:1;fill:none;stroke:#ffffff;stroke-width:9.6;stroke-linecap:round;stroke-dasharray:none"
         d="m 198.22482,230.72424 -27.96914,35.24111"
         id="path12"
         transform="matrix(-1,0,0,1,586.27657,3.759442)" /><path
         style="opacity:1;fill:none;stroke:#ffffff;stroke-width:9.6;stroke-linecap:round;stroke-dasharray:none"
         d="M 241.71683,293.23527 198.22482,230.86408"
         id="path13"
         transform="matrix(-1,0,0,1,586.27657,3.759442)" /><path
         style="opacity:1;fill:none;stroke:#ffffff;stroke-width:9.6;stroke-linecap:round;stroke-dasharray:none"
         d="M 170.11584,266.38489 120.33077,221.21473"
         id="path14"
         transform="matrix(-1,0,0,1,586.27657,3.759442)" /><path
         style="opacity:1;fill:none;stroke:#ffffff;stroke-width:9.6;stroke-linecap:round;stroke-dasharray:none"
         d="M 131.51843,331.13345 119.77139,221.35457"
         id="path15"
         transform="matrix(-1,0,0,1,586.27657,3.759442)" /><path
         style="opacity:1;fill:none;stroke:#ffffff;stroke-width:9.6;stroke-linecap:round;stroke-dasharray:none"
         d="m 198.50451,231.28362 -53.2812,-66.14701"
         id="path16"
         transform="matrix(-1,0,0,1,586.27657,3.759442)" /><path
         style="opacity:1;fill:none;stroke:#ffffff;stroke-width:9.6;stroke-linecap:round;stroke-dasharray:none"
         d="m 129.70043,229.46563 15.52288,-64.60871"
         id="path17"
         transform="matrix(-1,0,0,1,586.27657,3.759442)" /><path
         style="opacity:1;fill:none;stroke:#ffffff;stroke-width:9.6;stroke-linecap:round;stroke-dasharray:none"
         d="m 157.52972,179.96025 28.10899,-75.51668"
         id="path18"
         transform="matrix(-1,0,0,1,586.27657,3.759442)" /><path
         style="opacity:1;fill:none;stroke:#ffffff;stroke-width:9.6;stroke-linecap:round;stroke-dasharray:none"
         d="m 209.69217,247.36588 20.27762,-82.36912 -44.19123,-60.55318"
         id="path19"
         transform="matrix(-1,0,0,1,586.27657,3.759442)" /><path
         style="opacity:1;fill:none;stroke:#ffffff;stroke-width:9.6;stroke-linecap:round;stroke-dasharray:none"
         d="m 219.34153,209.46769 40.27555,-33.84266"
         id="path20"
         transform="matrix(-1,0,0,1,586.27657,3.759442)" /><path
         style="opacity:1;fill:none;stroke:#ffffff;stroke-width:9.6;stroke-linecap:round;stroke-dasharray:none"
         d="m 193.47007,114.932 66.42671,-71.041609 v 0"
         id="path21"
         transform="matrix(-1,0,0,1,586.27657,3.759442)" /></g><g
       id="g1"
       inkscape:label="Bulle"
       transform="translate(4.1362916,1.0340729)"><path
         style="opacity:1;fill:#ffffff;fill-opacity:1;stroke:#ffffff;stroke-width:6.33154;stroke-linecap:round;stroke-dasharray:none;stroke-opacity:1"
         id="path23"
         sodipodi:type="arc"
         sodipodi:cx="111.67987"
         sodipodi:cy="80.312996"
         sodipodi:rx="18.868883"
         sodipodi:ry="18.868883"
         sodipodi:start="6.2390891"
         sodipodi:end="6.2357729"
         sodipodi:open="true"
         sodipodi:arc-type="arc"
         d="M 130.53041,79.481219 A 18.868883,18.868883 0 0 1 112.52727,99.162841 18.868883,18.868883 0 0 1 92.830735,81.176027 18.868883,18.868883 0 0 1 110.80121,61.464582 a 18.868883,18.868883 0 0 1 19.72634,17.95413" /><path
         style="fill:#ffffff;fill-opacity:1;stroke:#ffffff;stroke-width:2.22121;stroke-linecap:round;stroke-dasharray:none;stroke-opacity:1"
         id="path23-0"
         sodipodi:type="arc"
         sodipodi:cx="51.01775"
         sodipodi:cy="185.34972"
         sodipodi:rx="6.6195083"
         sodipodi:ry="6.6195083"
         sodipodi:start="6.2390891"
         sodipodi:end="6.2357729"
         sodipodi:open="true"
         sodipodi:arc-type="arc"
         d="m 57.630823,185.05792 a 6.6195083,6.6195083 0 0 1 -6.31579,6.90463 6.6195083,6.6195083 0 0 1 -6.909864,-6.31007 6.6195083,6.6195083 0 0 1 6.304333,-6.91509 6.6195083,6.6195083 0 0 1 6.920317,6.2986" /><path
         style="fill:#ffffff;fill-opacity:1;stroke:#ffffff;stroke-width:6.13345;stroke-linecap:round;stroke-dasharray:none;stroke-opacity:1"
         id="path23-2"
         sodipodi:type="arc"
         sodipodi:cx="330.77426"
         sodipodi:cy="48.648308"
         sodipodi:rx="18.278551"
         sodipodi:ry="18.278551"
         sodipodi:start="6.2390891"
         sodipodi:end="6.2357729"
         sodipodi:open="true"
         sodipodi:arc-type="arc"
         d="M 349.03504,47.842554 A 18.278551,18.278551 0 0 1 331.59515,66.908416 18.278551,18.278551 0 0 1 312.51484,49.484338 18.278551,18.278551 0 0 1 329.92309,30.389585 18.278551,18.278551 0 0 1 349.03227,47.782002" /><path
         style="fill:#ffffff;fill-opacity:1;stroke:#ffffff;stroke-width:6.28202;stroke-linecap:round;stroke-dasharray:none;stroke-opacity:1"
         id="path23-1"
         sodipodi:type="arc"
         sodipodi:cx="438.12711"
         sodipodi:cy="179.47719"
         sodipodi:rx="18.721302"
         sodipodi:ry="18.721302"
         sodipodi:start="6.2390891"
         sodipodi:end="6.2357729"
         sodipodi:open="true"
         sodipodi:arc-type="arc"
         d="m 456.83021,178.65192 a 18.721302,18.721302 0 0 1 -17.86233,19.52768 18.721302,18.721302 0 0 1 -19.54248,-17.84613 18.721302,18.721302 0 0 1 17.82992,-19.55727 18.721302,18.721302 0 0 1 19.57205,17.8137" /><path
         style="fill:#ffffff;fill-opacity:1;stroke:#ffffff;stroke-width:2.76595;stroke-linecap:round;stroke-dasharray:none;stroke-opacity:1"
         id="path23-08"
         sodipodi:type="arc"
         sodipodi:cx="381.37311"
         sodipodi:cy="131.52228"
         sodipodi:rx="8.2429132"
         sodipodi:ry="8.2429132"
         sodipodi:start="6.2390891"
         sodipodi:end="6.2357729"
         sodipodi:open="true"
         sodipodi:arc-type="arc"
         d="m 389.60801,131.15891 a 8.2429132,8.2429132 0 0 1 -7.86471,8.59796 8.2429132,8.2429132 0 0 1 -8.60448,-7.85757 8.2429132,8.2429132 0 0 1 7.85044,-8.61099 8.2429132,8.2429132 0 0 1 8.6175,7.8433" /><path
         style="fill:#ffffff;fill-opacity:1;stroke:#ffffff;stroke-width:4.99444;stroke-linecap:round;stroke-dasharray:none;stroke-opacity:1"
         id="path23-8"
         sodipodi:type="arc"
         sodipodi:cx="203.29675"
         sodipodi:cy="47.004326"
         sodipodi:rx="14.884147"
         sodipodi:ry="14.884147"
         sodipodi:start="6.2390891"
         sodipodi:end="6.2357729"
         sodipodi:open="true"
         sodipodi:arc-type="arc"
         d="M 218.16643,46.348204 A 14.884147,14.884147 0 0 1 203.9652,61.873455 14.884147,14.884147 0 0 1 188.42818,47.685102 14.884147,14.884147 0 0 1 202.60365,32.136326 14.884147,14.884147 0 0 1 218.16417,46.298897" /><path
         style="fill:#000000;fill-opacity:1;stroke:#000000;stroke-width:6.72772;stroke-linecap:round;stroke-dasharray:none;stroke-opacity:1"
         id="path23-6"
         sodipodi:type="arc"
         sodipodi:cx="54.061642"
         sodipodi:cy="71.599358"
         sodipodi:rx="20.049545"
         sodipodi:ry="20.049545"
         sodipodi:start="6.2390891"
         sodipodi:end="6.2357729"
         sodipodi:open="true"
         sodipodi:arc-type="arc"
         d="M 74.091697,70.715535 A 20.049545,20.049545 0 0 1 54.96207,91.628674 20.049545,20.049545 0 0 1 34.033079,72.516391 20.049545,20.049545 0 0 1 53.128004,51.571562 20.049545,20.049545 0 0 1 74.088656,70.649117" /><path
         style="fill:#000000;fill-opacity:1;stroke:#000000;stroke-width:2.91451;stroke-linecap:round;stroke-dasharray:none;stroke-opacity:1"
         id="path23-9"
         sodipodi:type="arc"
         sodipodi:cx="347.99765"
         sodipodi:cy="29.533676"
         sodipodi:rx="8.6856623"
         sodipodi:ry="8.6856623"
         sodipodi:start="6.2390891"
         sodipodi:end="6.2357729"
         sodipodi:open="true"
         sodipodi:arc-type="arc"
         d="m 356.67487,29.150795 a 8.6856623,8.6856623 0 0 1 -8.28715,9.05978 8.6856623,8.6856623 0 0 1 -9.06664,-8.279631 8.6856623,8.6856623 0 0 1 8.27211,-9.073508 8.6856623,8.6856623 0 0 1 9.08036,8.264586" /><path
         style="fill:#000000;fill-opacity:1;stroke:#000000;stroke-width:1.62694;stroke-linecap:round;stroke-dasharray:none;stroke-opacity:1"
         id="path23-9-4"
         sodipodi:type="arc"
         sodipodi:cx="130.2677"
         sodipodi:cy="81.341965"
         sodipodi:rx="4.8485079"
         sodipodi:ry="4.8485079"
         sodipodi:start="6.2390891"
         sodipodi:end="6.2357729"
         sodipodi:open="true"
         sodipodi:arc-type="arc"
         d="m 135.11149,81.128233 a 4.8485079,4.8485079 0 0 1 -4.62604,5.057348 4.8485079,4.8485079 0 0 1 -5.06118,-4.621854 4.8485079,4.8485079 0 0 1 4.61765,-5.06501 4.8485079,4.8485079 0 0 1 5.06884,4.613454" /><path
         style="fill:#000000;fill-opacity:1;stroke:#000000;stroke-width:2.27072;stroke-linecap:round;stroke-dasharray:none;stroke-opacity:1"
         id="path23-9-5"
         sodipodi:type="arc"
         sodipodi:cx="443.34427"
         sodipodi:cy="162.55624"
         sodipodi:rx="6.7670846"
         sodipodi:ry="6.7670846"
         sodipodi:start="6.2390891"
         sodipodi:end="6.2357729"
         sodipodi:open="true"
         sodipodi:arc-type="arc"
         d="m 450.10478,162.25794 a 6.7670846,6.7670846 0 0 1 -6.4566,7.05856 6.7670846,6.7670846 0 0 1 -7.06391,-6.45074 6.7670846,6.7670846 0 0 1 6.44488,-7.06926 6.7670846,6.7670846 0 0 1 7.0746,6.43902" /><path
         style="fill:#000000;fill-opacity:1;stroke:#000000;stroke-width:3.95448;stroke-linecap:round;stroke-dasharray:none;stroke-opacity:1"
         id="path23-4"
         sodipodi:type="arc"
         sodipodi:cx="438.30139"
         sodipodi:cy="61.475819"
         sodipodi:rx="11.784903"
         sodipodi:ry="11.784903"
         sodipodi:start="6.2390891"
         sodipodi:end="6.2357729"
         sodipodi:open="true"
         sodipodi:arc-type="arc"
         d="M 450.07484,60.956318 A 11.784903,11.784903 0 0 1 438.83065,73.248831 11.784903,11.784903 0 0 1 426.52882,62.014841 11.784903,11.784903 0 0 1 437.75261,49.7037 11.784903,11.784903 0 0 1 450.07305,60.917277" /><path
         style="fill:#ffffff;fill-opacity:1;stroke:#ffffff;stroke-width:1.28028;stroke-linecap:round;stroke-dasharray:none;stroke-opacity:1"
         id="path23-5"
         sodipodi:type="arc"
         sodipodi:cx="173.5242"
         sodipodi:cy="82.42704"
         sodipodi:rx="3.8154273"
         sodipodi:ry="3.8154273"
         sodipodi:start="6.2390891"
         sodipodi:end="6.2357729"
         sodipodi:open="true"
         sodipodi:arc-type="arc"
         d="m 177.33592,82.258849 a 3.8154273,3.8154273 0 0 1 -3.64037,3.979769 3.8154273,3.8154273 0 0 1 -3.98278,-3.637067 3.8154273,3.8154273 0 0 1 3.63376,-3.985799 3.8154273,3.8154273 0 0 1 3.98881,3.630457" /><path
         style="fill:#ffffff;fill-opacity:1;stroke:#ffffff;stroke-width:1.28028;stroke-linecap:round;stroke-dasharray:none;stroke-opacity:1"
         id="path23-5-0"
         sodipodi:type="arc"
         sodipodi:cx="233.539"
         sodipodi:cy="26.449745"
         sodipodi:rx="3.8154273"
         sodipodi:ry="3.8154273"
         sodipodi:start="6.2390891"
         sodipodi:end="6.2357729"
         sodipodi:open="true"
         sodipodi:arc-type="arc"
         d="m 237.35072,26.281554 a 3.8154273,3.8154273 0 0 1 -3.64037,3.979769 3.8154273,3.8154273 0 0 1 -3.98278,-3.637066 3.8154273,3.8154273 0 0 1 3.63376,-3.9858 3.8154273,3.8154273 0 0 1 3.98881,3.630457" /><path
         style="fill:#ffffff;fill-opacity:1;stroke:#ffffff;stroke-width:1.28028;stroke-linecap:round;stroke-dasharray:none;stroke-opacity:1"
         id="path23-5-06"
         sodipodi:type="arc"
         sodipodi:cx="433.19223"
         sodipodi:cy="221.01343"
         sodipodi:rx="3.8154273"
         sodipodi:ry="3.8154273"
         sodipodi:start="6.2390891"
         sodipodi:end="6.2357729"
         sodipodi:open="true"
         sodipodi:arc-type="arc"
         d="m 437.00395,220.84524 a 3.8154273,3.8154273 0 0 1 -3.64037,3.97977 3.8154273,3.8154273 0 0 1 -3.98278,-3.63707 3.8154273,3.8154273 0 0 1 3.63376,-3.9858 3.8154273,3.8154273 0 0 1 3.98881,3.63046" /><path
         style="fill:#ffffff;fill-opacity:1;stroke:#ffffff;stroke-width:1.28028;stroke-linecap:round;stroke-dasharray:none;stroke-opacity:1"
         id="path23-5-02"
         sodipodi:type="arc"
         sodipodi:cx="409.57071"
         sodipodi:cy="106.28882"
         sodipodi:rx="3.8154273"
         sodipodi:ry="3.8154273"
         sodipodi:start="6.2390891"
         sodipodi:end="6.2357729"
         sodipodi:open="true"
         sodipodi:arc-type="arc"
         d="m 413.38243,106.12063 a 3.8154273,3.8154273 0 0 1 -3.64037,3.97977 3.8154273,3.8154273 0 0 1 -3.98279,-3.63707 3.8154273,3.8154273 0 0 1 3.63377,-3.9858 3.8154273,3.8154273 0 0 1 3.98881,3.63046" /><path
         style="fill:#ffffff;fill-opacity:1;stroke:#ffffff;stroke-width:1.97359;stroke-linecap:round;stroke-dasharray:none;stroke-opacity:1"
         id="path23-5-6"
         sodipodi:type="arc"
         sodipodi:cx="111.7142"
         sodipodi:cy="144.57408"
         sodipodi:rx="5.881588"
         sodipodi:ry="5.881588"
         sodipodi:start="6.2390891"
         sodipodi:end="6.2357729"
         sodipodi:open="true"
         sodipodi:arc-type="arc"
         d="m 117.59007,144.31481 a 5.881588,5.881588 0 0 1 -5.61172,6.13493 5.881588,5.881588 0 0 1 -6.13958,-5.60664 5.881588,5.881588 0 0 1 5.60155,-6.14423 5.881588,5.881588 0 0 1 6.14886,5.59646" /><path
         style="fill:#ffffff;fill-opacity:1;stroke:#ffffff;stroke-width:2.91451;stroke-linecap:round;stroke-dasharray:none;stroke-opacity:1"
         id="path23-9-1"
         sodipodi:type="arc"
         sodipodi:cx="34.84922"
         sodipodi:cy="60.20919"
         sodipodi:rx="8.6856623"
         sodipodi:ry="8.6856623"
         sodipodi:start="6.2390891"
         sodipodi:end="6.2357729"
         sodipodi:open="true"
         sodipodi:arc-type="arc"
         d="m 43.526439,59.82631 a 8.6856623,8.6856623 0 0 1 -8.287144,9.059779 8.6856623,8.6856623 0 0 1 -9.066647,-8.279631 8.6856623,8.6856623 0 0 1 8.272111,-9.073508 8.6856623,8.6856623 0 0 1 9.080363,8.264586" /><path
         style="fill:#000000;fill-opacity:1;stroke:#000000;stroke-width:2.07264;stroke-linecap:round;stroke-dasharray:none;stroke-opacity:1"
         id="path23-9-8"
         sodipodi:type="arc"
         sodipodi:cx="142.47379"
         sodipodi:cy="23.198406"
         sodipodi:rx="6.1767535"
         sodipodi:ry="6.1767535"
         sodipodi:start="6.2390891"
         sodipodi:end="6.2357729"
         sodipodi:open="true"
         sodipodi:arc-type="arc"
         d="m 148.64453,22.926123 a 6.1767535,6.1767535 0 0 1 -5.89335,6.442805 6.1767535,6.1767535 0 0 1 -6.44768,-5.888007 6.1767535,6.1767535 0 0 1 5.88266,-6.452568 6.1767535,6.1767535 0 0 1 6.45744,5.877308" /></g></g></svg>
