<svg xmlns="http://www.w3.org/2000/svg" viewBox="0 0 256 256"><defs><style>.cls-1,.cls-4,.cls-6{fill:#fff;}.cls-1,.cls-2,.cls-4,.cls-5,.cls-6{stroke:#000;}.cls-1,.cls-2,.cls-3,.cls-4,.cls-5,.cls-6{stroke-linecap:round;}.cls-1,.cls-2,.cls-3,.cls-5,.cls-6{stroke-miterlimit:10;}.cls-1{stroke-width:2.39px;}.cls-2{fill:none;}.cls-2,.cls-3,.cls-4,.cls-5,.cls-6{stroke-width:2.93px;}.cls-3{stroke:#fff;}.cls-4{stroke-linejoin:round;}</style></defs><g id="Transportation"><rect class="cls-1" x="36.54" y="172.12" width="182.91" height="64.36" rx="24.65"/><circle class="cls-2" cx="127.2" cy="26.9" r="18.74"/><path class="cls-3" d="M195.56,94a54.19,54.19,0,0,1-44.62,23.56H105.06A54.4,54.4,0,0,1,60.44,94a17.68,17.68,0,0,1,4.75-9.87V37A16.38,16.38,0,0,1,81.52,20.7h93A16.38,16.38,0,0,1,190.79,37v47A17.51,17.51,0,0,1,195.56,94Z"/><path class="cls-4" d="M195.71,95.23V229.79a17.65,17.65,0,0,1-17.6,17.6H77.89a17.65,17.65,0,0,1-17.6-17.6V95.23A17.35,17.35,0,0,1,60.44,93a54.4,54.4,0,0,0,44.62,23.56h45.88A54.19,54.19,0,0,0,195.56,93,17.35,17.35,0,0,1,195.71,95.23Z"/><path class="cls-5" d="M161.73,223.54H94.27A31.94,31.94,0,0,1,67,208.8a20.06,20.06,0,0,1-3.32-10.64V181.93a17.21,17.21,0,0,1,17.16-17.15h94.28a17.21,17.21,0,0,1,17.16,17.15v16.23A20.06,20.06,0,0,1,189,208.8,31.94,31.94,0,0,1,161.73,223.54Z"/><rect class="cls-6" x="89.81" y="206.74" width="13.91" height="13.91" rx="4.26"/><rect class="cls-6" x="114.85" y="52.13" width="26.29" height="26.29" transform="translate(83.65 -71.39) rotate(45)"/><rect class="cls-6" x="153.4" y="206.74" width="13.91" height="13.91" rx="4.35"/><rect class="cls-6" x="80.16" y="73.93" width="14.38" height="28.96"/><rect class="cls-6" x="80.16" y="102.89" width="14.38" height="21.01"/><path class="cls-6" d="M80.16,124.66H94.54a0,0,0,0,1,0,0v18.07a5.87,5.87,0,0,1-5.87,5.87H86a5.87,5.87,0,0,1-5.87-5.87V124.66A0,0,0,0,1,80.16,124.66Z"/><rect class="cls-6" x="161.73" y="73.93" width="14.38" height="28.96"/><rect class="cls-6" x="161.73" y="102.89" width="14.38" height="21.01"/><path class="cls-6" d="M161.73,124.66h14.38a0,0,0,0,1,0,0v18.07a5.87,5.87,0,0,1-5.87,5.87H167.6a5.87,5.87,0,0,1-5.87-5.87V124.66A0,0,0,0,1,161.73,124.66Z"/></g></svg>