<svg id="Paler_Disc" data-name="Paler Disc" xmlns="http://www.w3.org/2000/svg" viewBox="0 0 256 256"><defs><style>.RGB-2pt-white-round-outline-on-black-bg,.cls-1{stroke:#f6f6f6;stroke-linecap:round;stroke-linejoin:round;stroke-width:2px;}.cls-1{fill:none;}.cls-2{fill:#f6f6f6;}</style></defs><ellipse class="RGB-2pt-white-round-outline-on-black-bg" cx="135.8" cy="132.25" rx="126.68" ry="90.74" transform="translate(-47.07 82.36) rotate(-28.98)"/><ellipse class="RGB-2pt-white-round-outline-on-black-bg" cx="129.22" cy="123.44" rx="118.54" ry="75.39" transform="translate(-43.63 78.07) rotate(-28.98)"/><ellipse class="RGB-2pt-white-round-outline-on-black-bg" cx="126.37" cy="118.29" rx="102.12" ry="66.63" transform="translate(-41.49 76.04) rotate(-28.98)"/><line class="cls-1" x1="129.02" y1="79.98" x2="125.16" y2="79.11"/><line class="cls-1" x1="139.66" y1="82.07" x2="135.8" y2="81.2"/><line class="cls-1" x1="141.07" y1="71.8" x2="135.41" y2="77.69"/><line class="cls-1" x1="129.2" y1="84.12" x2="123.54" y2="90"/><line class="cls-1" x1="39.34" y1="203.3" x2="42.39" y2="210.83"/><line class="cls-1" x1="67.63" y1="212.51" x2="71.91" y2="224.24"/><line class="cls-1" x1="100.8" y1="214.3" x2="107.63" y2="227.03"/><line class="cls-1" x1="141.72" y1="204.14" x2="148.58" y2="217.51"/><line class="cls-1" x1="240.42" y1="75.27" x2="247.98" y2="87.95"/><line class="cls-1" x1="241.72" y1="105.58" x2="249.06" y2="117.75"/><line class="cls-1" x1="231.35" y1="133.68" x2="237.83" y2="145.22"/><line class="cls-1" x1="210.62" y1="160.47" x2="216.88" y2="172.89"/><path class="cls-1" d="M181.78,184s7.45,14.58,7.45,15.1"/><path class="cls-2" d="M103.68,69.69a19.22,19.22,0,0,0-4.44,6.07,2.86,2.86,0,0,0,3.45,4.12A15.64,15.64,0,0,0,111,74.8c1.4-1.56,3.23-4.83,1.08-6.5s-5.81.36-7.44,1.81l-1.28,1.14c-1.76,1.58-4.87,5.13-2.89,7.61s6.4-.1,8-1.53c2.43-2.18,4.66-2.47,7.53-4,3.38-1.84,7.05-3.71,10-6.2,1.68-1.41,3.62-5.49-.19-5a22.3,22.3,0,0,0-5.28,1.76c-.84.33-1.7.64-2.54,1l-1.26.5c-1.11.43-.83.36.82-.21-.9-1.67-3.84-.76-5.08-.35-4.1,1.35-7.5,4.78-10.45,7.81L109.78,76,111,74.8l-7.69-3.39L105.14,70l5.21,2.42v.26c1-1.44,1.55-4-.36-4.93s-5,.61-6.32,1.91Z"/><path class="cls-2" d="M163.76,94.91c-1.42,1.28-2.87,2.55-4.22,3.91q-.69.68-1.35,1.38l.23-.24c1.76-.95,2.21-1.23,1.34-.82a14.51,14.51,0,0,0-5.67,3.87,11.21,11.21,0,0,0-1.94,3.23l-.31,1.33c-.06.62-.08.7,0,.22l1.65-2.72-.37.38,2.76-2.31a11.91,11.91,0,0,0-3.84,3.39,6.19,6.19,0,0,0-1.16,2.39c-.55,2.64.88,4.52,5.62,3.08a11.7,11.7,0,0,0,4.69-3.41,10.55,10.55,0,0,0,1.6-2.52s.94-2,.23-.87l-5.42,4.56.44-.18-2.91.51c7.35-.22,11.59-6.65,15.23-12.2.91-1.4,1.55-3.93-.36-4.84s-4.78.58-6.2,1.86Z"/><path class="cls-2" d="M199.63,73.71l-.1.12,2.29-1.93-.12.08,2.41-1-.15,0L205,71a.85.85,0,0,1-.32,0l.9.21a1.2,1.2,0,0,1-.31-.13l.68.5c-.31-.23-.61-.47-.93-.68l.66.49a1.09,1.09,0,0,1-.27-.33l.36.72c-.27-.59-.24-1.37-.69-1.88a2.94,2.94,0,0,0-2.58-.78,8.62,8.62,0,0,0-5.3,3c-.63.77-1.65,2.29-.81,3.29s2.57.34,3.38-.23l1-.71a3.26,3.26,0,0,1-.93.59c-.49.12-.57.14-.22.06s.27,0-.14,0l-1.43-1.7a1.55,1.55,0,0,1,.29-.77,5.07,5.07,0,0,0-.53,1.13c-.14.31-.3.61-.41.93a5,5,0,0,0-.36,3.06,2.75,2.75,0,0,0,2.45,1.81,7.46,7.46,0,0,0,5.23-2.09c1.33-1.18,4.25-4.6,2-6.28a3.18,3.18,0,0,0-2.94-.21,9,9,0,0,0-4.13,2.73Z"/><path class="cls-2" d="M209.77,81.7c-.58-1.28-1.15-2.56-1.73-3.83a1.79,1.79,0,0,0-1.68-1.26h-.31c-2.46,0-4.57,2-5.58,4a2.93,2.93,0,0,0-.23,2.33c.13.4.34.79.51,1.19l1,2.37c.82,1.95,3.26,1.31,4.7.39a7.91,7.91,0,0,0,2.66-2.58c.39-.7,1-1.84.65-2.65Z"/><path class="cls-2" d="M179.14,140.89a24.82,24.82,0,0,0,7.88-8.17c1.62-2.67,2.71-7.74,5.36-9.5l-6.23-1.79a10.56,10.56,0,0,0,.22,3.88c.25,1.25,1.87,1.76,3,1.46,7-1.88,11.68-8.63,15.6-14.43a16.32,16.32,0,0,0,2.93-9.29c.08-4,1.13-7.59,1.5-11.52s-5.37-.08-6.21,1.12c-2.64,3.76-2.88,8.17-3.25,12.6a12.24,12.24,0,0,1-3,7.44c-.69.88-3.59,6-4.78,6l2.82,3.36.81-2.16c2.37-4.27-1.72-6.6-5.41-4.19a24.75,24.75,0,0,0-8.6,9.45c-1.69,3.26-2.67,7.39-5.77,9.6-4.38,3.11-2.14,9.57,3.2,6.1Z"/><path class="cls-2" d="M192.45,117a7,7,0,0,1-.6.83l.81-1c.77-1,1.53-2,2.22-3.11l-10.09,5c-.54-.2.34.35.45.43a3.81,3.81,0,0,0,1,.63c1.7.69,3.91,0,5.4-.89a18.53,18.53,0,0,0,2.81-2.18c.21-.19,1.06-.81.41-.37.5-.34,1-.62,1.55-.91l-5.36-.52c.11,1.19-.1,2.06,1.16,2.72l-.92-1.8,0,.33c.15,2.33,2.49,2,4,1.07-1.14.7,1-.58,1.26-.78a8.68,8.68,0,0,0,2.24-2.32,8.55,8.55,0,0,0,1.3-3.72c.31-2.59-2.53-2.58-4.23-2a20.4,20.4,0,0,0-3.36,1.45c-.34.18-.68.37-1,.57-.1.06-1.65,1-.52.48l2.5-.42.26,0,1.24,1.48,0,.34-.9,2.53.76-1.17c1.32-2,1.71-5.39-1.18-6.16s-6.7,1.47-8.38,3.72c-2.49,3.31-5.4,7.11-4.66,11.49.48,2.88,4.57,2,6.23,1.17,2.41-1.17,5.57-3.92,5.56-6.89Z"/><path class="cls-2" d="M69.63,100.86c0-.14.05-.27.07-.41l-.23,1a6.2,6.2,0,0,1,.41-1.19l-.51,1.08c.13-.26.25-.52.38-.79a6.93,6.93,0,0,0,.5-1.68,2.16,2.16,0,0,0-2-2.44,4.81,4.81,0,0,0-2.19.35,8,8,0,0,0-2.33,1.39,10.74,10.74,0,0,0-2,2.35c-.27.49-.53,1.05-.74,1.54a6.83,6.83,0,0,0-.41,1.23,3.45,3.45,0,0,0-.15,2l.41.78c.73,1,2.26.86,3.29.58a7.83,7.83,0,0,0,3.5-2.1,6.48,6.48,0,0,0,2-3.75Z"/><path class="cls-2" d="M47.17,150.7,47,152.25A2.61,2.61,0,0,0,49.83,155a4,4,0,0,0,1.77-.28,7.87,7.87,0,0,0,3.45-2.43l.77-1.11a5.07,5.07,0,0,0,.67-2.24l.21-1.55a2.62,2.62,0,0,0-2.88-2.77,4,4,0,0,0-1.76.28,7.87,7.87,0,0,0-3.45,2.43l-.77,1.11a5,5,0,0,0-.67,2.24Z"/><path class="cls-2" d="M49,149.18c2.11,0,4.27-4,1.23-4-2.11,0-4.26,4-1.23,4Z"/><path class="cls-2" d="M42,144.34c0,.3,0,.6,0,.9a2.69,2.69,0,0,0,2.47,2.94,6.79,6.79,0,0,0,5.1-1.81l.11-.1-1.12.78a2.53,2.53,0,0,0,.36-.2,7.14,7.14,0,0,0,2.57-2.55,3.75,3.75,0,0,0,.47-2.79l-.06-.22-.51,3a5.75,5.75,0,0,0,.84-2.93c0-.2,0-.4,0-.6a2.15,2.15,0,0,0-.37-1.53,1.91,1.91,0,0,0-1.05-1.09,2.85,2.85,0,0,0-1.64-.31,4.1,4.1,0,0,0-1.89.31,8.56,8.56,0,0,0-3.71,2.62l-.83,1.19a5.35,5.35,0,0,0-.74,2.4Z"/><path class="cls-2" d="M59.87,111.29c-4.81,5.35-9.64,9.83-13.23,16.13l6.77-.07c2.15-5.33,6.29-9.84,10.71-13.45,2.56-2.09,4.81-8.72-.79-7.81-16.09,2.61-26.55,22.6-24.5,37.65.52,3.76,6.6-.52,7.07-2.47,1.48-6.11,2.61-11.92,5.94-17.41,2.65-4.36,6.64-6.53,10.92-9l-4.71-5.62c-4.65,5.69-8,11.72-11.41,18.18-2,3.83,2.53,4.88,5,2.51,5.15-5,9.53-10.37,14.26-15.79,1.27-1.44,2.29-4,.3-5.27s-5.07,1.09-6.28,2.42Z"/><path class="cls-2" d="M76.61,113.44a82.59,82.59,0,0,0,11-14.13c.84-1.37,1.49-3.6-.3-4.52s-4.41.74-5.84,1.79c-4.06,3-8.76,5.62-11,10.3-.93,1.92.65,3.26,2.5,3,4.83-.73,9-5.36,12.67-8.33l-6.14-2.73a100.07,100.07,0,0,1-9.16,11.77c-1.27,1.39-2.57,4.29-.41,5.49s5.25-1.21,6.63-2.63Z"/><path class="cls-2" d="M96.13,99.55c-5.44,2-11.68,3.29-15.81,7.54-3.35,3.44-7.41,5.89-10.71,9.38-1.62,1.7-1.54,4.34,1.21,4.19,4.87-.26,9.44-3.39,12.71-6.88A18.41,18.41,0,0,0,85.68,111c.47-.73.79-2.2,1.4-2.78-3.1,2.92,2.76.17,2.92.11l5.33-2.16c3.51-1.42,6.8-8.86.8-6.66Z"/><path class="cls-2" d="M109.86,99.26a23,23,0,0,0,2.15-2l-.81.79.55-.43A5.65,5.65,0,0,0,114,94.16a1.47,1.47,0,0,0-1.2-1.78,4.47,4.47,0,0,0-3.13.82,7.23,7.23,0,0,0-3,3.29c0,.14-.11.27-.17.4l.43-.83-.06.11.63-.82c-.18.21-.37.42-.56.62s-.2.2-.3.3l.59-.57-.21.19a6.7,6.7,0,0,0-1.82,2.37c-.21.54-.41,1.49.07,2,1.26,1.27,3.54-.13,4.59-1Z"/><path class="cls-2" d="M100.72,108.92l2.43-2.36a10.86,10.86,0,0,0,2.94-3.9c.31-.89.47-1.89-.38-2.51s-2-.29-3,0A12.07,12.07,0,0,0,99,102.65c-.68.58-1.33,1.19-2,1.78a8.44,8.44,0,0,0-2.38,3.11c-.26.71-.51,2,.12,2.61,1.59,1.6,4.75,0,6-1.23Z"/><path class="cls-2" d="M78.11,142.81c2.08-2.9,10.82-11.49,6.72-15.43-3.42-3.28-10.48,1-13,3.45l6.36-.17c-.2-.6,3.9-4.71,4.42-5.35,1.63-2,3.22-4.09,5-6,2.78-2.93,6.91-5.47,8.1-9.49.47-1.57-.24-2.86-2.08-2.48-4.68,1-8.64,5.14-12,8.35a27.22,27.22,0,0,0-4.59,5.5c-1.46,2.39-2.25,6.79-4.19,8.67-2.26,2.2-4.75,7.92.7,7.35a14,14,0,0,0,2.49-.37q3.6.06-1.29-2.34c-.8.12-3.13,5.53-3.6,6.36-3.15,5.56,4.51,5.46,7,1.92Z"/><path class="cls-2" d="M108.67,148.12c-1,.68-2.1,1.33-3.07,2.08l-1,1a4.61,4.61,0,0,0-1,1.6,3.56,3.56,0,0,0-.3,2.54,2.71,2.71,0,0,0,1.15,1.37,4,4,0,0,0,3.13,0c1.09-.5,2.1-1,3.14-1.64a7.92,7.92,0,0,0,2.94-2.92,4.19,4.19,0,0,0,.56-3.16,2.54,2.54,0,0,0-2.13-1.7,5.57,5.57,0,0,0-3.47.84Z"/><path class="cls-2" d="M119.42,144.37c.41.44.4.3,0-.4l3.85-5.27-1.68,1.17c-1.4,1,.56-.3-.28.22s-1.37.87-2.08,1.27l-1.91,1.08c-1,.58.58-.25-.85.43a8.35,8.35,0,0,0-2.27,1.54c-2,1.86-4.2,5.83-.31,6.87,1.72.46,3.64-.56,5.19-1.27a26.14,26.14,0,0,0,5.35-3.36c2.57-2.05,7.42-7.37,2.6-9.77-2-1-4.67.67-6,2-1.07,1-3.17,4-1.53,5.47Z"/><path class="cls-2" d="M113.34,146.89l.21-.21a2.53,2.53,0,0,0,.48-.78,1.62,1.62,0,0,0,.2-.78,1,1,0,0,0-.15-.66.88.88,0,0,0-.46-.47l-.45-.13a2.3,2.3,0,0,0-1.07.14l-.57.26a3.8,3.8,0,0,0-1,.87l-.21.21a2.42,2.42,0,0,0-.48.78,1.75,1.75,0,0,0-.21.78,1,1,0,0,0,.16.66.88.88,0,0,0,.46.47l.45.13a2.32,2.32,0,0,0,1.07-.14l.57-.26a3.8,3.8,0,0,0,1-.87Z"/><path class="cls-2" d="M118.84,133.24c-.54,1,.17,0,.33-.21q.57-.53-.15.09l.59-.44c-1,.71.64-.2-.1.1s-1.57.69-2.32,1.07c-2.67,1.37-5.32,3.12-6.76,5.84-.67,1.26-1.19,2.75-.45,4.1a3.07,3.07,0,0,0,3.42,1.4c3.34-.75,6.36-2.67,9.11-4.67a15.33,15.33,0,0,0,5.9-7.66c.66-2.23-.27-4.15-2.78-4.07a8.79,8.79,0,0,0-6.79,4.45Z"/><path class="cls-2" d="M119.36,127.71a30.8,30.8,0,0,1-4,2.85c-2,1.16-4.87,3-4.91,5.62,0,1.23.52,1.3,1.69,1.58a3.58,3.58,0,0,0,2.75-.1,14.49,14.49,0,0,0,3.36-2.16,48.71,48.71,0,0,0,4.48-3.76c1.09-1.06,2.94-3.23,1.62-4.8s-3.86-.16-5,.77Z"/><path class="cls-2" d="M137.1,111.79c-1.84,1.33-2.48,1.76-4.4,3.22a24.7,24.7,0,0,0-2.5,2.18,11.83,11.83,0,0,0-1.19,1.36,3.45,3.45,0,0,0-.65,1.07c-.27.63-.33.72-.17.27-1.75,2.53.32,4.68,3,3.59-.79.32.9-.25.9-.25a11.24,11.24,0,0,0,1.93-1c1-.64,2-1.38,2.91-2.12,1.43-1.13,2.86-2.24,4.32-3.32s3.84-4.27,2.28-6.14-5,.12-6.44,1.18Z"/><path class="cls-2" d="M149.59,79.85c2.21,1,3.82.37,6-.35l-2.13-1.56c-1.22,2.37-4.48,5.8-3.79,8.69.78,3.27,4.49.91,5.67,1.75l1.75-6.28c-3.9,3.09-7.72,6.58-10.3,10.85-1.79,2.94,1,3.63,3.26,2.4a46.37,46.37,0,0,0,11.85-9.83c.95-1,3.32-5.72-.19-5.41-.37,0-3.5.21-3.06.67-.1-.1.73-3.08.7-3.47-.2-2.46-2.75-2.4-4.63-3.21-2.52-1.08-8,4.53-5.13,5.75Z"/><path class="cls-2" d="M167.6,62.61a28.3,28.3,0,0,0-11.26,5c-1.23.91-3.14,2.39-3.05,4.14.09,1.57,1.91,1.48,3,.89a27.87,27.87,0,0,1,8.11-2.75,8.32,8.32,0,0,0,5.45-4.58c.81-1.92-.26-3.09-2.26-2.69Z"/><path class="cls-2" d="M182.18,69.3a9.14,9.14,0,0,0,.76-4.58c-.15-1.11-.5-2.73-1.38-3.48-1.18-1-2.83-.45-4.2-.17a13.72,13.72,0,0,0-6,2.92c-.89.76-3.24,3.18-2,4.53.9,1,2.58.64,3.74.39a13.32,13.32,0,0,0,1.6-.48l.94-.31c1.35-.43,1.39-.49.12-.15l-1.24-.47a5,5,0,0,1,1.54,4c-.29,1.53,1.3,1.58,2.34,1.22a6.8,6.8,0,0,0,3.83-3.41Z"/><path class="cls-2" d="M181.91,106.73c4-4.69,9.21-8.94,7.49-15.84-1.55-6.19-7.14-6.37-11.65-2.82-1.27,1-3.8,3.88-2.37,5.59s4.81-.32,5.92-1.35c3.53-3.3,8-8.32,8-13.52.06-6-6.41-5.34-10.3-3.67-1.49.64-7.45,6.45-3,6.79,1.88.14,3.45-.61,3.88,1.52.36,1.85-.92,3.44-2.22,4.64l6,1.16.35-.67-3.35,3.68.84-.53-2.88,1c2.66,0,2,4.51,1.57,6.21-.57,2.31-2.56,3.75-4.05,5.52-1.16,1.37-2.71,3.83-.69,5.11s5.36-1.57,6.41-2.8Z"/><path class="cls-2" d="M178.12,112.59a19.17,19.17,0,0,0-.45-2.83c-.62-2-2.89-1.78-4.37-.81s-3.19,2.92-3.26,4.93a35.81,35.81,0,0,0,.21,3.58c.05.76,1,1.13,1.61,1.17a5.41,5.41,0,0,0,2.91-.94c1.6-1,3.67-3,3.35-5.1Z"/><path class="cls-2" d="M154.75,140.92c-.4,4.05,3.64,4.05,6.52,3,3.91-1.41,6.13-4.16,9.18-6.71l-3.61,1.87.45-.05-3-1.35c3.48,8.84,18.53-8.23,16.53-15.15-.92-3.18-5.61.89-6.47,2.07-1.11,1.54-2.19,3.05-3.19,4.66A19.35,19.35,0,0,1,170,131c-1.38,1.76-1.67.51,1.24,0l2.09.11c-2.12-1.14-4.28-.37-6.18.94-1,.7-3.47,4.06-4.65,3.88l1.57.69-.5-.51.41,1.67,0-.66c.27-5.41-8.89.08-9.25,3.76Z"/><path class="cls-2" d="M159.41,119.08l.65-.12-1.82-.07c1.77.39,2.38,3.79,2.28,5.31-.12,1.94-1.64,3.47-1.23,5.44a1.29,1.29,0,0,0,1.29,1c5.41-.4,9-6.53,9.6-11.48.24-2.1.06-4.69-1.28-6.43-1.8-2.32-5.06-1.75-7.47-.93a7.76,7.76,0,0,0-4.65,4.83c-.45,1.87.74,2.86,2.63,2.5Z"/><path class="cls-2" d="M152.91,125.81c.17-.28.36-.56.55-.84.51-.78-.92,1.17-.29.38a9.69,9.69,0,0,0,2.16-4.12l-.82,2.16a11.24,11.24,0,0,0,1.21-2.2c.19-.67.45-1.72-.14-2.32a2.54,2.54,0,0,0-2.26-.54,8.41,8.41,0,0,0-2.91,1.19c-.21.11-.9.48,0,0s.57-.3-.84.42a3.89,3.89,0,0,0-.84.57,19.5,19.5,0,0,0-3.58,3.51,7.36,7.36,0,0,0-1.82,3.6,2.19,2.19,0,0,0,1.75,2.57,5.45,5.45,0,0,0,3.69-.7,10.25,10.25,0,0,0,4.12-3.69Z"/><path class="cls-2" d="M118.06,143.87l3.46-1.66,1.68-.81c1.53-.2,1.71-.75.54-1.67-2.4,2.45-1.4,6.82,2.55,5,5.18-2.43,9.12-5.89,13.36-9.64,2.79-2.45,3.92-8.1-1.54-6.12-4.84,1.75-7.74,6.6-12.26,9l5.17,1.36c1.13-8.64-8.78-3-12.49-1.17-1.51.72-3.69,2.24-3.65,4.16,0,1.73,1.72,2.25,3.18,1.55Z"/><path class="cls-2" d="M106.87,140.08a8.51,8.51,0,0,0-5.08,5.13c-.65,2,.2,4.15,2.51,4.39s4.65-1.23,6.66-2.17c2.17-1,4.36-2,6.48-3.05l-6.19-1.71a7.64,7.64,0,0,1-.15,1.35l.78-2.23a6.32,6.32,0,0,0-1,2.48c-.14,2.85,4.09,2.43,5.94,1.34a9.49,9.49,0,0,0,4.8-6.93c.31-2.75-2.9-3.25-4.85-2.37-3.6,1.64-7.21,3.46-10.66,5.38l2.46-.93H109l1.64.79c-.32-.28-.33-.27,0,0l-.15,1.93.09-.27-2.22,3,.24-.2c1.25-1,2.85-3.07,2.32-4.86s-2.63-1.63-4-1.12Z"/><path class="cls-2" d="M86.55,163.54c0-.16,0-.32,0-.49l-.22,1.45a4,4,0,0,1,.24-.83L86,165.11a12.32,12.32,0,0,0,.85-2c.44-1.7.19-3.55-1.49-4.47s-4-.3-5.61.61a12.55,12.55,0,0,0-3.05,2.57,16.53,16.53,0,0,0-1.31,1.85,12.64,12.64,0,0,0-1.18,2.59,4.31,4.31,0,0,0,.58,4,3.71,3.71,0,0,0,2.31,1.23,4.84,4.84,0,0,0,2.27-.15A9.34,9.34,0,0,0,84,168.65a7.83,7.83,0,0,0,2.52-5.11Z"/><path class="cls-2" d="M82.53,170.89c5.52,0,10.94-10.47,3.1-10.47-5.52,0-10.94,10.47-3.1,10.47Z"/><path class="cls-2" d="M89.35,164.94c2.12,0,4.26-4,1.22-4-2.12,0-4.26,4-1.22,4Z"/><path class="cls-2" d="M99.54,158.62c1.94,0,4.81-4,2.27-4-1.94,0-4.8,4-2.27,4Z"/><path class="cls-2" d="M108.15,164.55a14,14,0,0,0,2.21-4.09c.16-.43.78-2.25.33-1.25-.13.29-.58,1.23-.11.53,1-1.54,2.52-3.74,2.25-5.59-.45-3.09-4-2.68-6.14-1.75-1.23.53-2.47,1-3.67,1.65-.56.29-.68.36-.34.19l-1.23.57a20.86,20.86,0,0,0-2.27,1.62c-1.52,1.22-3.27,3.71-2.61,5.81s3.11,2,4.84,1.51a18.22,18.22,0,0,0,4.39-2.14c.5-.3,1-.63,1.49-.94s2.18-1,.53-.42l-2.29.32-.48-.15-1.12-1.33.09.27.56-2.93c-.38.82.13.07.28-.12.52-.65-.33.39-.44.36.2.06,1-.69.14-.07a14.82,14.82,0,0,0-1.83,1.24c-2.3,2-4.32,4.8-3.82,8,.26,1.72,2.42,2.11,3.78,1.94a8.86,8.86,0,0,0,5.46-3.24Z"/><path class="cls-2" d="M99.31,170.46a5.93,5.93,0,0,0-2.83-.38l2.49.78-.11-.16.41,3v-.07a3.87,3.87,0,0,0,.07-2.21,2.54,2.54,0,0,0-1.28-1.52,2.06,2.06,0,0,1-.26-.12,3.54,3.54,0,0,0-2.1-.31,4.75,4.75,0,0,0-1.84.56,8,8,0,0,0-3.63,3.29,4.82,4.82,0,0,0-.61,3.66l.48.89a2.18,2.18,0,0,0,1.31.79,4.43,4.43,0,0,0,2.94-.13l1.35-.62A8.53,8.53,0,0,0,98,176a6.6,6.6,0,0,0,1.28-2.3c.08-.42.15-.84.21-1.25l-3.23,4.58.12-.06-1.08.5a3.68,3.68,0,0,1,.53-.18l-1,.24a3.43,3.43,0,0,1,.56-.08l1-.24a4.69,4.69,0,0,0,1.51-.81,6,6,0,0,0,2-2.12,4.76,4.76,0,0,0,.57-1.84,2.13,2.13,0,0,0-1.1-2Z"/><path class="cls-2" d="M128.14,164.75c-.88,0-1.2.22-1,.63l1.71.83c-.76-.73-1.24-1.78-2.19-2.29s-2.49-.27-3.64-.51l1.94,1c-.43-.55-.64-.58-.63-.08,2.48-5-1.77-7.09-6-4.7-4,2.26-8.68,5-10.39,9.5a2.27,2.27,0,0,0,1.73,3.19c3.63,1,8.16-2.4,11-4.35L114,164.59c-1.06,2.36-1.65,5.51.32,7.62s5.06,1.36,7.62,1.22l-2.91-.81c3.61,3.16,7.42,1,10.89-1.49,1.66-1.17,4.22-3.39,3.47-5.76s-3.72-1.43-5.24-.62Z"/><path class="cls-2" d="M143.93,157.77c-3.59,1.79-8.27,2.69-10.5,6.35a2.32,2.32,0,0,0-.18,2.51c1.1,1.75,4.58.4,6-.24a65.74,65.74,0,0,0,6.1-3.23c1.5-.9,3.64-3,3.09-5s-3.24-1-4.47-.43Z"/><path class="cls-2" d="M148.53,150.2l.54-1.56-4.43,4.29c4.46-1.53,6.65-4.7,10.07-7.5,1.52-1.24,3.3-2.17,4.78-3.55.75-.71,1.4-1.45,2.08-2.22s2.4-1.9.9-1.51l-3.25-.72.31.6-.14-3.34c-1.45,3.94-5,6.51-6.18,10.66-.62,2.29-1,2.62-2.79,4.19a15.86,15.86,0,0,0-4.12,5.55c-1,2,.44,3.55,2.41,3.56,2.46,0,4.91-2.13,6.15-4.07s3.91-3.37,5.3-5.54,1.52-4.5,2.65-6.49c2.34-4.15,10.24-8.42,7.06-14.06-.52-.92-2.46-.94-3.26-.71a20.88,20.88,0,0,0-8.6,4.77c-1.36,1.23-2.36,2.87-3.72,4.07-1,.89-2,1.06-3.28,1.81a21,21,0,0,0-4.48,3.54,20.71,20.71,0,0,0-1.54,1.7c.75-.47.65-.38-.29.26-1.48,1.43-3.22,2.59-3.88,4.69-.45,1.42-.08,2.56-.38,4-.43,2.07,1.92,2.24,3.26,1.91a7.45,7.45,0,0,0,4.83-4.33Z"/><path class="cls-2" d="M133.57,144.74l-.07,0a11.53,11.53,0,0,0-5.06,4.24,6.26,6.26,0,0,0-1,2.5,2.47,2.47,0,0,0,.48,2l0,0a2.48,2.48,0,0,0,1.86.82,6.29,6.29,0,0,0,2.64-.52,11.51,11.51,0,0,0,5.09-4.27,6.32,6.32,0,0,0,1-2.51,2.29,2.29,0,0,0-2.34-2.79,6.29,6.29,0,0,0-2.64.52Z"/></svg>