<svg xmlns="http://www.w3.org/2000/svg" viewBox="0 0 256 256"><defs><style>.cls-1{fill:#f6f6f6;}.cls-2{fill:#fff;stroke:#1d1d1b;stroke-miterlimit:10;stroke-width:2px;}</style></defs><g id="Climbing"><path class="cls-1" d="M68.79,195.46c-4.86-2.21-10.8-.52-16.68,4.16.2.31.4.62.61.93a41.51,41.51,0,0,0,3.66,4.56c-.3.24-.59.48-.88.74s-.58.5-.86.78c.25.29.52.56.79.85.29-.27.57-.54.86-.78l.89-.75c3.49-2.8,6.49-3.84,8.25-3,2.3,1,3.65,5.74,3.08,12.67,0,.44-.07.87-.12,1.31.36.25.72.47,1.07.68A24.92,24.92,0,0,0,75,220.14c.07-.39.12-.78.17-1.18a9.3,9.3,0,0,0,1.14.31C77.9,207.54,75.35,198.43,68.79,195.46Zm0,0c-4.86-2.21-10.8-.52-16.68,4.16a10.14,10.14,0,0,0-.89.73c-.31.24-.61.51-.89.77l.62.94c.29-.27.59-.53.88-.78s.58-.5.89-.73a41.51,41.51,0,0,0,3.66,4.56c-.3.24-.59.48-.88.74s-.58.5-.86.78c.25.29.52.56.79.85.29-.27.57-.54.86-.78l.89-.75c3.49-2.8,6.49-3.84,8.25-3,2.3,1,3.65,5.74,3.08,12.67,0,.44-.07.87-.12,1.31s-.11.86-.16,1.3a67.33,67.33,0,0,1-4.79,16.64c-.14.36-.3.72-.47,1.09s-.23.54-.36.82a2.72,2.72,0,0,1-.11.25c-8,17.63-19.17,26.12-23.35,24.22s-5.21-16,2.82-33.82q1-2.17,2-4.16c.19-.37.38-.73.57-1.07s.38-.71.58-1c-.28-.29-.57-.57-.84-.86-.21.35-.41.71-.6,1.06l-.57,1.07c-.78,1.46-1.52,3-2.21,4.53-3.67,8.14-5.85,16.42-6.11,23.31a24.21,24.21,0,0,0,.83,8c.67,2.06,1.69,3.46,3,4.07a4,4,0,0,0,1.28.35c2.66.29,6.32-1.61,10.3-5.42,4.94-4.69,9.64-11.69,13.3-19.72A42.88,42.88,0,0,0,69,239.62h0c-9.13,20.27-23.19,32.3-32.71,28-4.47-2-7.06-7.43-7.27-15.19-.22-8.07,2.11-18,6.6-27.93,1-2.32,2.15-4.53,3.31-6.62.21-.36.41-.73.61-1.08s.42-.72.64-1.08c-.28-.31-.53-.63-.78-.95l-.64,1.07-.63,1.09c-1.26,2.22-2.45,4.6-3.57,7.09-9.42,20.87-8.88,40.08,1.25,44.66S60.64,261,70,240.11l.07-.15c.17-.36.32-.73.48-1.09l.46-1.09a76.38,76.38,0,0,0,4.88-16.17c.08-.38.15-.77.2-1.16s.12-.78.17-1.18C77.9,207.54,75.35,198.43,68.79,195.46Zm0,0c-4.86-2.21-10.8-.52-16.68,4.16.2.31.4.62.61.93a41.51,41.51,0,0,0,3.66,4.56c-.3.24-.59.48-.88.74s-.58.5-.86.78c.25.29.52.56.79.85.29-.27.57-.54.86-.78l.89-.75c3.49-2.8,6.49-3.84,8.25-3,2.3,1,3.65,5.74,3.08,12.67,0,.44-.07.87-.12,1.31.36.25.72.47,1.07.68A24.92,24.92,0,0,0,75,220.14c.07-.39.12-.78.17-1.18a9.3,9.3,0,0,0,1.14.31C77.9,207.54,75.35,198.43,68.79,195.46Z"/><path d="M69.78,213.91c.24-6.44-1.17-10.84-3.87-12.06-2.29-1-5.7.15-9.53,3.26-.3.24-.59.48-.88.74s-.58.5-.86.78c.25.29.52.56.79.85s.53.55.81.84c.3-.27.59-.54.87-.78s.6-.51.89-.75c2.82-2.24,5.07-3.1,6.38-2.95A1.59,1.59,0,0,1,65,204c1.4.63,2.72,3.93,2.49,9.84,0,.32,0,.65-.06,1s-.06.9-.11,1.36-.08.88-.14,1.33a66.35,66.35,0,0,1-4.72,16.82c-.16.36-.32.72-.47,1.08s-.25.59-.39.88l-.08.18c-3.54,7.81-8.09,14.57-12.82,19.08-3.78,3.61-6.82,5-8.45,4.77a1.91,1.91,0,0,1-.57-.14c-1.41-.64-2.72-3.93-2.49-9.84.24-6.6,2.34-14.56,5.89-22.44.58-1.29,1.19-2.57,1.83-3.79.18-.36.37-.72.56-1.07l.58-1.07c-.3-.28-.58-.57-.87-.83s-.57-.57-.84-.86c-.21.35-.41.71-.6,1.06l-.57,1.07c-.78,1.46-1.52,3-2.21,4.53-3.67,8.14-5.85,16.42-6.11,23.31a24.21,24.21,0,0,0,.83,8c.67,2.06,1.69,3.46,3,4.07a4,4,0,0,0,1.28.35c2.66.29,6.32-1.61,10.3-5.42,4.94-4.69,9.64-11.69,13.3-19.72.05-.09.08-.18.12-.27.13-.27.24-.53.35-.8s.32-.73.47-1.09a69.54,69.54,0,0,0,4.8-16.5c.07-.42.13-.84.17-1.26a11.77,11.77,0,0,0,.15-1.3C69.69,215.47,69.75,214.68,69.78,213.91Zm8.13-2.26a26,26,0,0,0-2.41-11,13,13,0,0,0-6.23-6.26c-5.21-2.36-11.52-.62-17.74,4.25.18.32.38.65.58,1s.4.62.61.93c4.38-3.51,8.74-5.26,12.6-4.85a10,10,0,0,1,3,.82c4.47,2,7.06,7.42,7.27,15.19a44.5,44.5,0,0,1-.42,7.25,9.3,9.3,0,0,0,1.14.31,10,10,0,0,0,1.14.23A48.9,48.9,0,0,0,77.91,211.65Zm-8.13,2.26c.24-6.44-1.17-10.84-3.87-12.06-2.29-1-5.7.15-9.53,3.26-.3.24-.59.48-.88.74s-.58.5-.86.78c.25.29.52.56.79.85s.53.55.81.84c.3-.27.59-.54.87-.78s.6-.51.89-.75c2.82-2.24,5.07-3.1,6.38-2.95A1.59,1.59,0,0,1,65,204c1.4.63,2.72,3.93,2.49,9.84,0,.32,0,.65-.06,1s-.06.9-.11,1.36-.08.88-.14,1.33a66.35,66.35,0,0,1-4.72,16.82c-.16.36-.32.72-.47,1.08s-.25.59-.39.88l-.08.18c-3.54,7.81-8.09,14.57-12.82,19.08-3.78,3.61-6.82,5-8.45,4.77a1.91,1.91,0,0,1-.57-.14c-1.41-.64-2.72-3.93-2.49-9.84.24-6.6,2.34-14.56,5.89-22.44.58-1.29,1.19-2.57,1.83-3.79.18-.36.37-.72.56-1.07l.58-1.07c-.3-.28-.58-.57-.87-.83s-.57-.57-.84-.86c-.21.35-.41.71-.6,1.06l-.57,1.07c-.78,1.46-1.52,3-2.21,4.53-3.67,8.14-5.85,16.42-6.11,23.31a24.21,24.21,0,0,0,.83,8c.67,2.06,1.69,3.46,3,4.07a4,4,0,0,0,1.28.35c2.66.29,6.32-1.61,10.3-5.42,4.94-4.69,9.64-11.69,13.3-19.72.05-.09.08-.18.12-.27.13-.27.24-.53.35-.8s.32-.73.47-1.09a69.54,69.54,0,0,0,4.8-16.5c.07-.42.13-.84.17-1.26a11.77,11.77,0,0,0,.15-1.3C69.69,215.47,69.75,214.68,69.78,213.91Zm0,0c.24-6.44-1.17-10.84-3.87-12.06-2.29-1-5.7.15-9.53,3.26-.3.24-.59.48-.88.74s-.58.5-.86.78c.25.29.52.56.79.85s.53.55.81.84c.3-.27.59-.54.87-.78s.6-.51.89-.75c2.82-2.24,5.07-3.1,6.38-2.95A1.59,1.59,0,0,1,65,204c1.4.63,2.72,3.93,2.49,9.84,0,.32,0,.65-.06,1s-.06.9-.11,1.36-.08.88-.14,1.33a66.35,66.35,0,0,1-4.72,16.82c-.16.36-.32.72-.47,1.08s-.25.59-.39.88l-.08.18c-3.54,7.81-8.09,14.57-12.82,19.08-3.78,3.61-6.82,5-8.45,4.77a1.91,1.91,0,0,1-.57-.14c-1.41-.64-2.72-3.93-2.49-9.84.24-6.6,2.34-14.56,5.89-22.44.58-1.29,1.19-2.57,1.83-3.79.18-.36.37-.72.56-1.07l.58-1.07c-.3-.28-.58-.57-.87-.83s-.57-.57-.84-.86c-.21.35-.41.71-.6,1.06l-.57,1.07c-.78,1.46-1.52,3-2.21,4.53-3.67,8.14-5.85,16.42-6.11,23.31a24.21,24.21,0,0,0,.83,8c.67,2.06,1.69,3.46,3,4.07a4,4,0,0,0,1.28.35c2.66.29,6.32-1.61,10.3-5.42,4.94-4.69,9.64-11.69,13.3-19.72.05-.09.08-.18.12-.27.13-.27.24-.53.35-.8s.32-.73.47-1.09a69.54,69.54,0,0,0,4.8-16.5c.07-.42.13-.84.17-1.26a11.77,11.77,0,0,0,.15-1.3C69.69,215.47,69.75,214.68,69.78,213.91Zm8.13-2.26a26,26,0,0,0-2.41-11,13,13,0,0,0-6.23-6.26c-5.21-2.36-11.52-.62-17.74,4.25l-.9.74c-.31.25-.61.51-.89.77.19.33.37.64.59,1l.62.94c.29-.27.59-.53.88-.78s.58-.5.89-.73c4.38-3.51,8.74-5.26,12.6-4.85a10,10,0,0,1,3,.82c4.47,2,7.06,7.42,7.27,15.19a44.5,44.5,0,0,1-.42,7.25c0,.4-.1.79-.17,1.18s-.12.78-.2,1.17a75.92,75.92,0,0,1-4.86,16.15c-.15.36-.31.72-.47,1.08s-.31.72-.48,1.08h0c-9.13,20.27-23.19,32.3-32.71,28-4.47-2-7.06-7.43-7.27-15.19-.22-8.07,2.11-18,6.6-27.93,1-2.32,2.15-4.53,3.31-6.62.21-.36.41-.73.61-1.08s.42-.72.64-1.08c-.28-.31-.53-.63-.78-.95s-.52-.65-.76-1c-.23.35-.44.72-.65,1.09s-.43.71-.63,1.08q-2.06,3.57-3.87,7.58c-4.62,10.25-7,20.53-6.8,29,.24,8.72,3.31,14.84,8.64,17.26a11.76,11.76,0,0,0,3.56,1c10.38,1.12,23.59-10.92,32.24-30.11,0-.11.1-.22.15-.34.16-.36.31-.73.48-1.09s.3-.73.46-1.1a78.72,78.72,0,0,0,4.87-16.24c.07-.4.13-.78.2-1.16s.12-.79.17-1.17A48.9,48.9,0,0,0,77.91,211.65ZM34.8,250.22a24.21,24.21,0,0,0,.83,8c.67,2.06,1.69,3.46,3,4.07a4,4,0,0,0,1.28.35c2.66.29,6.32-1.61,10.3-5.42,4.94-4.69,9.64-11.69,13.3-19.72.05-.09.08-.18.12-.27.13-.27.24-.53.35-.8s.32-.73.47-1.09a69.54,69.54,0,0,0,4.8-16.5c.07-.42.13-.84.17-1.26a11.77,11.77,0,0,0,.15-1.3c.08-.8.14-1.59.17-2.36.24-6.44-1.17-10.84-3.87-12.06-2.29-1-5.7.15-9.53,3.26-.3.24-.59.48-.88.74s-.58.5-.86.78c.25.29.52.56.79.85s.53.55.81.84c.3-.27.59-.54.87-.78s.6-.51.89-.75c2.82-2.24,5.07-3.1,6.38-2.95A1.59,1.59,0,0,1,65,204c1.4.63,2.72,3.93,2.49,9.84,0,.32,0,.65-.06,1s-.06.9-.11,1.36-.08.88-.14,1.33a66.35,66.35,0,0,1-4.72,16.82c-.16.36-.32.72-.47,1.08s-.25.59-.39.88l-.08.18c-3.54,7.81-8.09,14.57-12.82,19.08-3.78,3.61-6.82,5-8.45,4.77a1.91,1.91,0,0,1-.57-.14c-1.41-.64-2.72-3.93-2.49-9.84.24-6.6,2.34-14.56,5.89-22.44.58-1.29,1.19-2.57,1.83-3.79.18-.36.37-.72.56-1.07l.58-1.07c-.3-.28-.58-.57-.87-.83s-.57-.57-.84-.86c-.21.35-.41.71-.6,1.06l-.57,1.07c-.78,1.46-1.52,3-2.21,4.53C37.24,235.05,35.06,243.33,34.8,250.22Zm35-36.31c.24-6.44-1.17-10.84-3.87-12.06-2.29-1-5.7.15-9.53,3.26-.3.24-.59.48-.88.74s-.58.5-.86.78c.25.29.52.56.79.85s.53.55.81.84c.3-.27.59-.54.87-.78s.6-.51.89-.75c2.82-2.24,5.07-3.1,6.38-2.95A1.59,1.59,0,0,1,65,204c1.4.63,2.72,3.93,2.49,9.84,0,.32,0,.65-.06,1s-.06.9-.11,1.36-.08.88-.14,1.33a66.35,66.35,0,0,1-4.72,16.82c-.16.36-.32.72-.47,1.08s-.25.59-.39.88l-.08.18c-3.54,7.81-8.09,14.57-12.82,19.08-3.78,3.61-6.82,5-8.45,4.77a1.91,1.91,0,0,1-.57-.14c-1.41-.64-2.72-3.93-2.49-9.84.24-6.6,2.34-14.56,5.89-22.44.58-1.29,1.19-2.57,1.83-3.79.18-.36.37-.72.56-1.07l.58-1.07c-.3-.28-.58-.57-.87-.83s-.57-.57-.84-.86c-.21.35-.41.71-.6,1.06l-.57,1.07c-.78,1.46-1.52,3-2.21,4.53-3.67,8.14-5.85,16.42-6.11,23.31a24.21,24.21,0,0,0,.83,8c.67,2.06,1.69,3.46,3,4.07a4,4,0,0,0,1.28.35c2.66.29,6.32-1.61,10.3-5.42,4.94-4.69,9.64-11.69,13.3-19.72.05-.09.08-.18.12-.27.13-.27.24-.53.35-.8s.32-.73.47-1.09a69.54,69.54,0,0,0,4.8-16.5c.07-.42.13-.84.17-1.26a11.77,11.77,0,0,0,.15-1.3C69.69,215.47,69.75,214.68,69.78,213.91Zm8.13-2.26a26,26,0,0,0-2.41-11,13,13,0,0,0-6.23-6.26c-5.21-2.36-11.52-.62-17.74,4.25.18.32.38.65.58,1s.4.62.61.93c4.38-3.51,8.74-5.26,12.6-4.85a10,10,0,0,1,3,.82c4.47,2,7.06,7.42,7.27,15.19a44.5,44.5,0,0,1-.42,7.25,9.3,9.3,0,0,0,1.14.31,10,10,0,0,0,1.14.23A48.9,48.9,0,0,0,77.91,211.65Zm-8.13,2.26c.24-6.44-1.17-10.84-3.87-12.06-2.29-1-5.7.15-9.53,3.26-.3.24-.59.48-.88.74s-.58.5-.86.78c.25.29.52.56.79.85s.53.55.81.84c.3-.27.59-.54.87-.78s.6-.51.89-.75c2.82-2.24,5.07-3.1,6.38-2.95A1.59,1.59,0,0,1,65,204c1.4.63,2.72,3.93,2.49,9.84,0,.32,0,.65-.06,1s-.06.9-.11,1.36-.08.88-.14,1.33a66.35,66.35,0,0,1-4.72,16.82c-.16.36-.32.72-.47,1.08s-.25.59-.39.88l-.08.18c-3.54,7.81-8.09,14.57-12.82,19.08-3.78,3.61-6.82,5-8.45,4.77a1.91,1.91,0,0,1-.57-.14c-1.41-.64-2.72-3.93-2.49-9.84.24-6.6,2.34-14.56,5.89-22.44.58-1.29,1.19-2.57,1.83-3.79.18-.36.37-.72.56-1.07l.58-1.07c-.3-.28-.58-.57-.87-.83s-.57-.57-.84-.86c-.21.35-.41.71-.6,1.06l-.57,1.07c-.78,1.46-1.52,3-2.21,4.53-3.67,8.14-5.85,16.42-6.11,23.31a24.21,24.21,0,0,0,.83,8c.67,2.06,1.69,3.46,3,4.07a4,4,0,0,0,1.28.35c2.66.29,6.32-1.61,10.3-5.42,4.94-4.69,9.64-11.69,13.3-19.72.05-.09.08-.18.12-.27.13-.27.24-.53.35-.8s.32-.73.47-1.09a69.54,69.54,0,0,0,4.8-16.5c.07-.42.13-.84.17-1.26a11.77,11.77,0,0,0,.15-1.3C69.69,215.47,69.75,214.68,69.78,213.91Zm0,0c.24-6.44-1.17-10.84-3.87-12.06-2.29-1-5.7.15-9.53,3.26-.3.24-.59.48-.88.74s-.58.5-.86.78c.25.29.52.56.79.85s.53.55.81.84c.3-.27.59-.54.87-.78s.6-.51.89-.75c2.82-2.24,5.07-3.1,6.38-2.95A1.59,1.59,0,0,1,65,204c1.4.63,2.72,3.93,2.49,9.84,0,.32,0,.65-.06,1s-.06.9-.11,1.36-.08.88-.14,1.33a66.35,66.35,0,0,1-4.72,16.82c-.16.36-.32.72-.47,1.08s-.25.59-.39.88l-.08.18c-3.54,7.81-8.09,14.57-12.82,19.08-3.78,3.61-6.82,5-8.45,4.77a1.91,1.91,0,0,1-.57-.14c-1.41-.64-2.72-3.93-2.49-9.84.24-6.6,2.34-14.56,5.89-22.44.58-1.29,1.19-2.57,1.83-3.79.18-.36.37-.72.56-1.07l.58-1.07c-.3-.28-.58-.57-.87-.83s-.57-.57-.84-.86c-.21.35-.41.71-.6,1.06l-.57,1.07c-.78,1.46-1.52,3-2.21,4.53-3.67,8.14-5.85,16.42-6.11,23.31a24.21,24.21,0,0,0,.83,8c.67,2.06,1.69,3.46,3,4.07a4,4,0,0,0,1.28.35c2.66.29,6.32-1.61,10.3-5.42,4.94-4.69,9.64-11.69,13.3-19.72.05-.09.08-.18.12-.27.13-.27.24-.53.35-.8s.32-.73.47-1.09a69.54,69.54,0,0,0,4.8-16.5c.07-.42.13-.84.17-1.26a11.77,11.77,0,0,0,.15-1.3C69.69,215.47,69.75,214.68,69.78,213.91Zm0,0c.24-6.44-1.17-10.84-3.87-12.06-2.29-1-5.7.15-9.53,3.26-.3.24-.59.48-.88.74s-.58.5-.86.78c.25.29.52.56.79.85s.53.55.81.84c.3-.27.59-.54.87-.78s.6-.51.89-.75c2.82-2.24,5.07-3.1,6.38-2.95A1.59,1.59,0,0,1,65,204c1.4.63,2.72,3.93,2.49,9.84,0,.32,0,.65-.06,1s-.06.9-.11,1.36-.08.88-.14,1.33a66.35,66.35,0,0,1-4.72,16.82c-.16.36-.32.72-.47,1.08s-.25.59-.39.88l-.08.18c-3.54,7.81-8.09,14.57-12.82,19.08-3.78,3.61-6.82,5-8.45,4.77a1.91,1.91,0,0,1-.57-.14c-1.41-.64-2.72-3.93-2.49-9.84.24-6.6,2.34-14.56,5.89-22.44.58-1.29,1.19-2.57,1.83-3.79.18-.36.37-.72.56-1.07l.58-1.07c-.3-.28-.58-.57-.87-.83s-.57-.57-.84-.86c-.21.35-.41.71-.6,1.06l-.57,1.07c-.78,1.46-1.52,3-2.21,4.53-3.67,8.14-5.85,16.42-6.11,23.31a24.21,24.21,0,0,0,.83,8c.67,2.06,1.69,3.46,3,4.07a4,4,0,0,0,1.28.35c2.66.29,6.32-1.61,10.3-5.42,4.94-4.69,9.64-11.69,13.3-19.72.05-.09.08-.18.12-.27.13-.27.24-.53.35-.8s.32-.73.47-1.09a69.54,69.54,0,0,0,4.8-16.5c.07-.42.13-.84.17-1.26a11.77,11.77,0,0,0,.15-1.3C69.69,215.47,69.75,214.68,69.78,213.91Z"/><path class="cls-1" d="M245.89,85.78c-.42-20-12.44-39.53-35.72-57.92-20.55-16.22-43.09-23-63.5-19C125.5,13,107.37,28,92.81,53.52,63.41,105,64.9,121.77,65.9,132.87c.46,5.08.56,6.29-4,12.12-2.21,2.83-5.84,6.09-9.68,9.54C41.67,164,28.57,175.78,29,192.56c.22,7.53,3.17,14.91,8.93,22.32.25.32.5.64.77,1s.51.63.78,1c.22-.37.42-.72.64-1.08-.28-.31-.53-.63-.78-.95s-.52-.65-.76-1a59.78,59.78,0,0,1,11.12-13.64c.19.33.37.64.59,1l.62.94c.29-.27.59-.53.88-.78-.22-.32-.42-.62-.61-.93s-.41-.65-.59-1a15.75,15.75,0,0,1-2.4-7.38C48,184.14,56.64,176.37,65,168.85c4.47-4,8.7-7.82,12-11.95,8.63-11,8.79-17.62,8.06-25.77s-2-21.81,24.45-68c11.65-20.43,25.41-32.3,40.87-35.33,20-3.91,38.65,7.87,48,15.24,18.56,14.66,28.12,29.2,28.41,43.22.14,6.41-1.71,13-5.5,19.63-.19.36-.4.7-.61,1s-.41.69-.63,1a85.64,85.64,0,0,1-15.56,17.85l-1.75,1.54-.22.18-2.07,1.78-1.78,1.51c-.78.66-1.56,1.3-2.33,1.94-.59.51-1.2,1-1.79,1.5l-2.34,1.9c-.6.5-1.21,1-1.81,1.47q-3.19,2.57-6.18,4.86l-.93.72-.94.71c-13.71,10.38-24,16.4-32,20.2q-2.88,1.35-5.42,2.37c-4.58,1.85-8.34,3-11.64,4-8.39,2.5-15.64,4.66-23.38,14.53a143.71,143.71,0,0,0-9,13.53c-6,9.78-12.81,20.87-20.28,22.18a10.4,10.4,0,0,1-3.3,0c-.37,0-.75-.13-1.14-.22a10.2,10.2,0,0,1-1.14-.31,24.92,24.92,0,0,1-5.53-2.57c-.35-.21-.71-.43-1.07-.68s-.75-.48-1.12-.74c-1-.69-2-1.47-3.09-2.31a80.46,80.46,0,0,1-7.07-6.3c-.28-.29-.56-.56-.82-.84s-.54-.57-.79-.85c-.3.25-.58.5-.86.78.25.29.52.56.79.85s.53.55.81.84c-.1.1-.21.19-.31.3A56.35,56.35,0,0,0,46,221.94c-.3-.28-.58-.57-.87-.83s-.57-.57-.84-.86c-.21.35-.41.71-.6,1.06.28.28.56.57.86.85l.87.85q3.09,2.93,6.8,5.88c.13.1.25.19.37.3a62.33,62.33,0,0,0,9.35,6.19c.34.19.69.36,1,.54l1,.5a40.1,40.1,0,0,0,5.44,2.12c.38.12.75.23,1.13.33s.77.22,1.15.3a29.64,29.64,0,0,0,12.12.44c16-2.8,25.2-17.81,33.32-31.06a133.27,133.27,0,0,1,7.72-11.71c4-5.06,6.65-5.85,13.79-8,3.8-1.14,8.14-2.45,13.41-4.56h0c1.65-.66,3.37-1.4,5.19-2.24,9.56-4.39,21.82-11.51,38.33-24.2l.94-.71.92-.72c1.95-1.52,3.95-3.1,6-4.77.61-.49,1.22-1,1.83-1.49.77-.62,1.54-1.25,2.31-1.9l1.81-1.5c.76-.63,1.53-1.29,2.31-1.95l1.78-1.51c.45-.4.93-.8,1.39-1.2.3-.27.6-.52.88-.78.61-.52,1.2-1,1.75-1.55a109.44,109.44,0,0,0,16-17.65c.23-.31.47-.64.68-1s.46-.66.67-1C242.45,108.91,246.13,97.42,245.89,85.78Z"/><path d="M51,202.06a59.09,59.09,0,0,0-10.79,13.66c-.28-.31-.53-.63-.78-.95s-.52-.65-.76-1a59.78,59.78,0,0,1,11.12-13.64c.19.33.37.64.59,1Z"/><path d="M227.87,86.18c-.3-14.38-10-29.23-28.85-44.11-9.48-7.5-28.44-19.46-48.92-15.46-15.8,3.08-29.82,15.15-41.66,35.89-26.58,46.56-25.34,60.44-24.59,68.73.7,7.88.56,14.28-7.82,25-3.18,4-7.37,7.81-11.81,11.8-8.56,7.7-17.4,15.66-17.16,24.06a17.12,17.12,0,0,0,2.68,8.11c.19.33.37.64.59,1l.62.94c.29-.27.59-.53.88-.78s.58-.5.89-.73c-.21-.31-.41-.62-.61-.93s-.4-.66-.58-1A14.55,14.55,0,0,1,49.39,192c-.21-7.32,8.23-14.9,16.4-22.24,4.51-4.07,8.76-7.89,12.07-12.11,8.91-11.34,9.07-18.18,8.31-26.6-.72-8-1.92-21.44,24.29-67.36,11.5-20.12,25-31.81,40.09-34.75a42.39,42.39,0,0,1,12.67-.5c14.52,1.57,27.21,9.85,34.36,15.5,18.27,14.43,27.68,28.67,28,42.31a32.8,32.8,0,0,1-.17,4,38.93,38.93,0,0,1-5,14.82l-.6,1-.63,1a84.25,84.25,0,0,1-15.54,17.85c-.57.52-1.15,1-1.75,1.54l-.18.16c-.71.62-1.42,1.21-2.11,1.81l-1.79,1.51c-.77.66-1.55,1.3-2.31,1.94-.6.51-1.21,1-1.81,1.5-.77.64-1.56,1.28-2.33,1.9-.6.5-1.21,1-1.81,1.47-2.14,1.72-4.21,3.34-6.19,4.86l-.93.71-.93.73c-25.64,19.4-39.07,23.41-48.58,26.25-8.58,2.55-16,4.78-24,14.92a144.25,144.25,0,0,0-9.06,13.65C94,207.43,87.32,218.29,80.37,219.5a9,9,0,0,1-2.93,0,10,10,0,0,1-1.14-.23,9.3,9.3,0,0,1-1.14-.31,25.19,25.19,0,0,1-5.55-2.69c-.37-.22-.73-.45-1.1-.69l-1.13-.79c-.8-.57-1.63-1.18-2.47-1.86A86.74,86.74,0,0,1,58,206.79c-.28-.29-.56-.56-.82-.84l-.8-.84c-.3.24-.59.48-.88.74s-.58.5-.86.78c.25.29.52.56.79.85s.53.55.81.84a82.23,82.23,0,0,0,7.21,6.44q1.89,1.52,3.68,2.72l1.1.71c.36.23.71.44,1.06.64a26.06,26.06,0,0,0,5.5,2.48l1.14.3c.39.09.77.16,1.14.22l.53.06a10.83,10.83,0,0,0,3.18-.09c8-1.39,14.93-12.72,21.06-22.72a144.62,144.62,0,0,1,8.91-13.42c7.52-9.56,14.59-11.68,22.81-14.13,2.9-.87,6.18-1.84,10-3.33,2-.78,4.27-1.7,6.71-2.84h0c2.36-1.1,4.89-2.38,7.65-3.91a211.26,211.26,0,0,0,25.13-16.72c.31-.24.62-.48.94-.71l.93-.71c2-1.53,4-3.14,6.16-4.85l1.82-1.48c.77-.62,1.54-1.25,2.33-1.91l1.8-1.49,2.32-2,1.78-1.51,2-1.73.26-.23c.61-.51,1.18-1,1.75-1.54a87.43,87.43,0,0,0,15.59-17.83c.23-.34.43-.69.63-1s.42-.69.63-1C226.07,99.78,228,92.91,227.87,86.18Zm0,0c-.3-14.38-10-29.23-28.85-44.11-9.48-7.5-28.44-19.46-48.92-15.46-15.8,3.08-29.82,15.15-41.66,35.89-26.58,46.56-25.34,60.44-24.59,68.73.7,7.88.56,14.28-7.82,25-3.18,4-7.37,7.81-11.81,11.8-8.56,7.7-17.4,15.66-17.16,24.06a17.12,17.12,0,0,0,2.68,8.11c.19.33.37.64.59,1l.62.94c.29-.27.59-.53.88-.78s.58-.5.89-.73c-.21-.31-.41-.62-.61-.93s-.4-.66-.58-1A14.55,14.55,0,0,1,49.39,192c-.21-7.32,8.23-14.9,16.4-22.24,4.51-4.07,8.76-7.89,12.07-12.11,8.91-11.34,9.07-18.18,8.31-26.6-.72-8-1.92-21.44,24.29-67.36,11.5-20.12,25-31.81,40.09-34.75a42.39,42.39,0,0,1,12.67-.5c14.52,1.57,27.21,9.85,34.36,15.5,18.27,14.43,27.68,28.67,28,42.31a32.8,32.8,0,0,1-.17,4,38.93,38.93,0,0,1-5,14.82l-.6,1-.63,1a84.25,84.25,0,0,1-15.54,17.85c-.57.52-1.15,1-1.75,1.54l-.18.16c-.71.62-1.42,1.21-2.11,1.81l-1.79,1.51c-.77.66-1.55,1.3-2.31,1.94-.6.51-1.21,1-1.81,1.5-.77.64-1.56,1.28-2.33,1.9-.6.5-1.21,1-1.81,1.47-2.14,1.72-4.21,3.34-6.19,4.86l-.93.71-.93.73c-25.64,19.4-39.07,23.41-48.58,26.25-8.58,2.55-16,4.78-24,14.92a144.25,144.25,0,0,0-9.06,13.65C94,207.43,87.32,218.29,80.37,219.5a9,9,0,0,1-2.93,0,10,10,0,0,1-1.14-.23,9.3,9.3,0,0,1-1.14-.31c0,.4-.1.79-.17,1.18a24.92,24.92,0,0,1-5.53-2.57c-.35-.21-.71-.43-1.07-.68s-.75-.48-1.12-.74c0,.44-.08.88-.14,1.33l1.1.71c.36.23.71.44,1.06.64a26.06,26.06,0,0,0,5.5,2.48l1.14.3c.39.09.77.16,1.14.22l.53.06a10.83,10.83,0,0,0,3.18-.09c8-1.39,14.93-12.72,21.06-22.72a144.62,144.62,0,0,1,8.91-13.42c7.52-9.56,14.59-11.68,22.81-14.13,2.9-.87,6.18-1.84,10-3.33,2-.78,4.27-1.7,6.71-2.84h0c2.36-1.1,4.89-2.38,7.65-3.91a211.26,211.26,0,0,0,25.13-16.72c.31-.24.62-.48.94-.71l.93-.71c2-1.53,4-3.14,6.16-4.85l1.82-1.48c.77-.62,1.54-1.25,2.33-1.91l1.8-1.49,2.32-2,1.78-1.51,2-1.73.26-.23c.61-.51,1.18-1,1.75-1.54a87.43,87.43,0,0,0,15.59-17.83c.23-.34.43-.69.63-1s.42-.69.63-1C226.07,99.78,228,92.91,227.87,86.18Zm19.18-.42c-.42-20.41-12.59-40.2-36.16-58.82C190.07,10.5,167.19,3.67,146.46,7.72c-21.54,4.2-39.92,19.42-54.65,45.22-29.59,51.82-28.07,68.79-27.07,80,.44,4.95.52,5.85-3.78,11.31-2.14,2.75-5.74,6-9.53,9.39-10.71,9.63-24,21.61-23.55,38.93.23,7.91,3.34,15.64,9.46,23.37.25.32.5.64.77,1l.8.95c.21-.36.41-.73.61-1.08s.42-.72.64-1.08c-.28-.31-.53-.63-.78-.95s-.52-.65-.76-1c-5.44-7.08-8.21-14.11-8.41-21.26C29.76,176.29,42.63,164.71,53,155.4c3.87-3.49,7.53-6.78,9.81-9.67,4.69-6,4.75-7.5,4.26-13-1-10.94-2.46-27.47,26.77-78.66,14.38-25.19,32.23-40,53.07-44.09a61.4,61.4,0,0,1,18.34-.71c14.76,1.59,30,8.23,44.21,19.48,11.49,9.09,20.22,18.43,26.1,28s9,19.24,9.18,29.07c.23,11.31-3.34,22.52-10.64,33.49l-.67,1c-.22.33-.46.64-.68,1a108.75,108.75,0,0,1-16,17.65c-.58.52-1.15,1-1.75,1.55l-.85.74c-.48.42-1,.83-1.43,1.24L211,144l-2.31,2-1.8,1.49-2.32,1.91-1.83,1.49c-2.06,1.67-4.06,3.25-6,4.77l-.93.72-.92.71C178,169.91,165.63,177,156,181.34l0,0c-2.17,1-4.19,1.82-6.1,2.55-4.44,1.7-8.22,2.82-11.56,3.82-7.17,2.14-10.14,3-14.35,8.39a127.8,127.8,0,0,0-7.8,11.82c-8,13-17.06,27.8-32.52,30.52a28.57,28.57,0,0,1-11.47-.39c-.38-.09-.77-.18-1.15-.29s-.74-.2-1.12-.32a37.71,37.71,0,0,1-5.44-2.13c-.35-.15-.69-.32-1-.5s-.69-.34-1-.53a61.05,61.05,0,0,1-9.09-6l-.38-.3q-3.8-3-6.94-6c-.3-.28-.58-.57-.87-.83s-.57-.57-.84-.86c-.21.35-.41.71-.6,1.06l-.57,1.07c.27.28.56.57.86.85s.58.55.88.85q3,2.85,6.62,5.72l.39.31a63.37,63.37,0,0,0,9.6,6.33l1,.55,1,.5A42.88,42.88,0,0,0,69,239.62h0l1.13.33,1.15.3a33.81,33.81,0,0,0,4.36.77,29.83,29.83,0,0,0,8.45-.27c16.5-2.9,25.85-18.14,34.13-31.63a125.63,125.63,0,0,1,7.62-11.56c3.74-4.78,6.13-5.48,13.19-7.6,11.29-3.37,27.4-8.18,57.46-31.28.31-.24.63-.49.95-.72s.62-.5.94-.74c1.92-1.51,3.91-3.08,5.95-4.73l1.82-1.49c.77-.62,1.54-1.25,2.33-1.91l1.79-1.5c.77-.63,1.53-1.28,2.31-1.95l1.78-1.51,1.35-1.16.93-.81c.59-.51,1.17-1,1.74-1.55a111.81,111.81,0,0,0,15.94-17.54c.25-.35.49-.69.72-1l.7-1C243.5,109.52,247.3,97.72,247.05,85.76ZM64.22,168c-8.56,7.7-17.4,15.66-17.16,24.06a17.12,17.12,0,0,0,2.68,8.11c.19.33.37.64.59,1l.62.94c.29-.27.59-.53.88-.78s.58-.5.89-.73c-.21-.31-.41-.62-.61-.93s-.4-.66-.58-1A14.55,14.55,0,0,1,49.39,192c-.21-7.32,8.23-14.9,16.4-22.24,4.51-4.07,8.76-7.89,12.07-12.11,8.91-11.34,9.07-18.18,8.31-26.6-.72-8-1.92-21.44,24.29-67.36,11.5-20.12,25-31.81,40.09-34.75a42.39,42.39,0,0,1,12.67-.5c14.52,1.57,27.21,9.85,34.36,15.5,18.27,14.43,27.68,28.67,28,42.31a32.8,32.8,0,0,1-.17,4,38.93,38.93,0,0,1-5,14.82l-.6,1-.63,1a84.25,84.25,0,0,1-15.54,17.85c-.57.52-1.15,1-1.75,1.54l-.18.16c-.71.62-1.42,1.21-2.11,1.81l-1.79,1.51c-.77.66-1.55,1.3-2.31,1.94-.6.51-1.21,1-1.81,1.5-.77.64-1.56,1.28-2.33,1.9-.6.5-1.21,1-1.81,1.47-2.14,1.72-4.21,3.34-6.19,4.86l-.93.71-.93.73c-25.64,19.4-39.07,23.41-48.58,26.25-8.58,2.55-16,4.78-24,14.92a144.25,144.25,0,0,0-9.06,13.65C94,207.43,87.32,218.29,80.37,219.5a9,9,0,0,1-2.93,0,10,10,0,0,1-1.14-.23,9.3,9.3,0,0,1-1.14-.31c0,.4-.1.79-.17,1.18a24.92,24.92,0,0,1-5.53-2.57c-.35-.21-.71-.43-1.07-.68s-.75-.48-1.12-.74c0,.44-.08.88-.14,1.33l1.1.71c.36.23.71.44,1.06.64a26.06,26.06,0,0,0,5.5,2.48l1.14.3c.39.09.77.16,1.14.22l.53.06a10.83,10.83,0,0,0,3.18-.09c8-1.39,14.93-12.72,21.06-22.72a144.62,144.62,0,0,1,8.91-13.42c7.52-9.56,14.59-11.68,22.81-14.13,2.9-.87,6.18-1.84,10-3.33,2-.78,4.27-1.7,6.71-2.84h0c2.36-1.1,4.89-2.38,7.65-3.91a211.26,211.26,0,0,0,25.13-16.72c.31-.24.62-.48.94-.71l.93-.71c2-1.53,4-3.14,6.16-4.85l1.82-1.48c.77-.62,1.54-1.25,2.33-1.91l1.8-1.49,2.32-2,1.78-1.51,2-1.73.26-.23c.61-.51,1.18-1,1.75-1.54a87.43,87.43,0,0,0,15.59-17.83c.23-.34.43-.69.63-1s.42-.69.63-1c4-7,5.95-13.82,5.81-20.55-.3-14.38-10-29.23-28.85-44.11-9.48-7.5-28.44-19.46-48.92-15.46-15.8,3.08-29.82,15.15-41.66,35.89-26.58,46.56-25.34,60.44-24.59,68.73.7,7.88.56,14.28-7.82,25C72.85,160.23,68.66,164,64.22,168Zm163.65-81.8c-.3-14.38-10-29.23-28.85-44.11-9.48-7.5-28.44-19.46-48.92-15.46-15.8,3.08-29.82,15.15-41.66,35.89-26.58,46.56-25.34,60.44-24.59,68.73.7,7.88.56,14.28-7.82,25-3.18,4-7.37,7.81-11.81,11.8-8.56,7.7-17.4,15.66-17.16,24.06a17.12,17.12,0,0,0,2.68,8.11c.19.33.37.64.59,1l.62.94c.29-.27.59-.53.88-.78s.58-.5.89-.73c-.21-.31-.41-.62-.61-.93s-.4-.66-.58-1A14.55,14.55,0,0,1,49.39,192c-.21-7.32,8.23-14.9,16.4-22.24,4.51-4.07,8.76-7.89,12.07-12.11,8.91-11.34,9.07-18.18,8.31-26.6-.72-8-1.92-21.44,24.29-67.36,11.5-20.12,25-31.81,40.09-34.75a42.39,42.39,0,0,1,12.67-.5c14.52,1.57,27.21,9.85,34.36,15.5,18.27,14.43,27.68,28.67,28,42.31a32.8,32.8,0,0,1-.17,4,38.93,38.93,0,0,1-5,14.82l-.6,1-.63,1a84.25,84.25,0,0,1-15.54,17.85c-.57.52-1.15,1-1.75,1.54l-.18.16c-.71.62-1.42,1.21-2.11,1.81l-1.79,1.51c-.77.66-1.55,1.3-2.31,1.94-.6.51-1.21,1-1.81,1.5-.77.64-1.56,1.28-2.33,1.9-.6.5-1.21,1-1.81,1.47-2.14,1.72-4.21,3.34-6.19,4.86l-.93.71-.93.73c-25.64,19.4-39.07,23.41-48.58,26.25-8.58,2.55-16,4.78-24,14.92a144.25,144.25,0,0,0-9.06,13.65C94,207.43,87.32,218.29,80.37,219.5a9,9,0,0,1-2.93,0,10,10,0,0,1-1.14-.23,9.3,9.3,0,0,1-1.14-.31c0,.4-.1.79-.17,1.18a24.92,24.92,0,0,1-5.53-2.57c-.35-.21-.71-.43-1.07-.68s-.75-.48-1.12-.74c0-.46.1-.91.11-1.36-.8-.57-1.63-1.18-2.47-1.86A86.74,86.74,0,0,1,58,206.79c-.29.24-.59.48-.89.75s-.57.51-.87.78a82.23,82.23,0,0,0,7.21,6.44q1.89,1.52,3.68,2.72l1.1.71c.36.23.71.44,1.06.64a26.06,26.06,0,0,0,5.5,2.48l1.14.3c.39.09.77.16,1.14.22l.53.06a10.83,10.83,0,0,0,3.18-.09c8-1.39,14.93-12.72,21.06-22.72a144.62,144.62,0,0,1,8.91-13.42c7.52-9.56,14.59-11.68,22.81-14.13,2.9-.87,6.18-1.84,10-3.33,2-.78,4.27-1.7,6.71-2.84h0c2.36-1.1,4.89-2.38,7.65-3.91a211.26,211.26,0,0,0,25.13-16.72c.31-.24.62-.48.94-.71l.93-.71c2-1.53,4-3.14,6.16-4.85l1.82-1.48c.77-.62,1.54-1.25,2.33-1.91l1.8-1.49,2.32-2,1.78-1.51,2-1.73.26-.23c.61-.51,1.18-1,1.75-1.54a87.43,87.43,0,0,0,15.59-17.83c.23-.34.43-.69.63-1s.42-.69.63-1C226.07,99.78,228,92.91,227.87,86.18Zm0,0c-.3-14.38-10-29.23-28.85-44.11-9.48-7.5-28.44-19.46-48.92-15.46-15.8,3.08-29.82,15.15-41.66,35.89-26.58,46.56-25.34,60.44-24.59,68.73.7,7.88.56,14.28-7.82,25-3.18,4-7.37,7.81-11.81,11.8-8.56,7.7-17.4,15.66-17.16,24.06a17.12,17.12,0,0,0,2.68,8.11c.19.33.37.64.59,1l.62.94c.29-.27.59-.53.88-.78s.58-.5.89-.73c-.21-.31-.41-.62-.61-.93s-.4-.66-.58-1A14.55,14.55,0,0,1,49.39,192c-.21-7.32,8.23-14.9,16.4-22.24,4.51-4.07,8.76-7.89,12.07-12.11,8.91-11.34,9.07-18.18,8.31-26.6-.72-8-1.92-21.44,24.29-67.36,11.5-20.12,25-31.81,40.09-34.75a42.39,42.39,0,0,1,12.67-.5c14.52,1.57,27.21,9.85,34.36,15.5,18.27,14.43,27.68,28.67,28,42.31a32.8,32.8,0,0,1-.17,4,38.93,38.93,0,0,1-5,14.82l-.6,1-.63,1a84.25,84.25,0,0,1-15.54,17.85c-.57.52-1.15,1-1.75,1.54l-.18.16c-.71.62-1.42,1.21-2.11,1.81l-1.79,1.51c-.77.66-1.55,1.3-2.31,1.94-.6.51-1.21,1-1.81,1.5-.77.64-1.56,1.28-2.33,1.9-.6.5-1.21,1-1.81,1.47-2.14,1.72-4.21,3.34-6.19,4.86l-.93.71-.93.73c-25.64,19.4-39.07,23.41-48.58,26.25-8.58,2.55-16,4.78-24,14.92a144.25,144.25,0,0,0-9.06,13.65C94,207.43,87.32,218.29,80.37,219.5a9,9,0,0,1-2.93,0,10,10,0,0,1-1.14-.23,9.3,9.3,0,0,1-1.14-.31,25.19,25.19,0,0,1-5.55-2.69c-.37-.22-.73-.45-1.1-.69l-1.13-.79c-.8-.57-1.63-1.18-2.47-1.86A86.74,86.74,0,0,1,58,206.79c-.28-.29-.56-.56-.82-.84l-.8-.84c-.3.24-.59.48-.88.74s-.58.5-.86.78c.25.29.52.56.79.85s.53.55.81.84a82.23,82.23,0,0,0,7.21,6.44q1.89,1.52,3.68,2.72l1.1.71c.36.23.71.44,1.06.64a26.06,26.06,0,0,0,5.5,2.48l1.14.3c.39.09.77.16,1.14.22l.53.06a10.83,10.83,0,0,0,3.18-.09c8-1.39,14.93-12.72,21.06-22.72a144.62,144.62,0,0,1,8.91-13.42c7.52-9.56,14.59-11.68,22.81-14.13,2.9-.87,6.18-1.84,10-3.33,2-.78,4.27-1.7,6.71-2.84h0c2.36-1.1,4.89-2.38,7.65-3.91a211.26,211.26,0,0,0,25.13-16.72c.31-.24.62-.48.94-.71l.93-.71c2-1.53,4-3.14,6.16-4.85l1.82-1.48c.77-.62,1.54-1.25,2.33-1.91l1.8-1.49,2.32-2,1.78-1.51,2-1.73.26-.23c.61-.51,1.18-1,1.75-1.54a87.43,87.43,0,0,0,15.59-17.83c.23-.34.43-.69.63-1s.42-.69.63-1C226.07,99.78,228,92.91,227.87,86.18Zm0,0c-.3-14.38-10-29.23-28.85-44.11-9.48-7.5-28.44-19.46-48.92-15.46-15.8,3.08-29.82,15.15-41.66,35.89-26.58,46.56-25.34,60.44-24.59,68.73.7,7.88.56,14.28-7.82,25-3.18,4-7.37,7.81-11.81,11.8-8.56,7.7-17.4,15.66-17.16,24.06a17.12,17.12,0,0,0,2.68,8.11c.19.33.37.64.59,1l.62.94c.29-.27.59-.53.88-.78s.58-.5.89-.73c-.21-.31-.41-.62-.61-.93s-.4-.66-.58-1A14.55,14.55,0,0,1,49.39,192c-.21-7.32,8.23-14.9,16.4-22.24,4.51-4.07,8.76-7.89,12.07-12.11,8.91-11.34,9.07-18.18,8.31-26.6-.72-8-1.92-21.44,24.29-67.36,11.5-20.12,25-31.81,40.09-34.75a42.39,42.39,0,0,1,12.67-.5c14.52,1.57,27.21,9.85,34.36,15.5,18.27,14.43,27.68,28.67,28,42.31a32.8,32.8,0,0,1-.17,4,38.93,38.93,0,0,1-5,14.82l-.6,1-.63,1a84.25,84.25,0,0,1-15.54,17.85c-.57.52-1.15,1-1.75,1.54l-.18.16c-.71.62-1.42,1.21-2.11,1.81l-1.79,1.51c-.77.66-1.55,1.3-2.31,1.94-.6.51-1.21,1-1.81,1.5-.77.64-1.56,1.28-2.33,1.9-.6.5-1.21,1-1.81,1.47-2.14,1.72-4.21,3.34-6.19,4.86l-.93.71-.93.73c-25.64,19.4-39.07,23.41-48.58,26.25-8.58,2.55-16,4.78-24,14.92a144.25,144.25,0,0,0-9.06,13.65C94,207.43,87.32,218.29,80.37,219.5a9,9,0,0,1-2.93,0,10,10,0,0,1-1.14-.23,9.3,9.3,0,0,1-1.14-.31,25.19,25.19,0,0,1-5.55-2.69c-.37-.22-.73-.45-1.1-.69l-1.13-.79c-.8-.57-1.63-1.18-2.47-1.86A86.74,86.74,0,0,1,58,206.79c-.28-.29-.56-.56-.82-.84l-.8-.84c-.3.24-.59.48-.88.74s-.58.5-.86.78c.25.29.52.56.79.85s.53.55.81.84a82.23,82.23,0,0,0,7.21,6.44q1.89,1.52,3.68,2.72l1.1.71c.36.23.71.44,1.06.64a26.06,26.06,0,0,0,5.5,2.48l1.14.3c.39.09.77.16,1.14.22l.53.06a10.83,10.83,0,0,0,3.18-.09c8-1.39,14.93-12.72,21.06-22.72a144.62,144.62,0,0,1,8.91-13.42c7.52-9.56,14.59-11.68,22.81-14.13,2.9-.87,6.18-1.84,10-3.33,2-.78,4.27-1.7,6.71-2.84h0c2.36-1.1,4.89-2.38,7.65-3.91a211.26,211.26,0,0,0,25.13-16.72c.31-.24.62-.48.94-.71l.93-.71c2-1.53,4-3.14,6.16-4.85l1.82-1.48c.77-.62,1.54-1.25,2.33-1.91l1.8-1.49,2.32-2,1.78-1.51,2-1.73.26-.23c.61-.51,1.18-1,1.75-1.54a87.43,87.43,0,0,0,15.59-17.83c.23-.34.43-.69.63-1s.42-.69.63-1C226.07,99.78,228,92.91,227.87,86.18Z"/><path d="M56.24,208.32c-.1.1-.21.19-.31.3A56.35,56.35,0,0,0,46,221.94c-.3-.28-.58-.57-.87-.83s-.57-.57-.84-.86a58.14,58.14,0,0,1,10-13.34l.31-.28c.25.29.52.56.79.85S56,208,56.24,208.32Z"/><path class="cls-1" d="M69,239.62h0c-9.13,20.27-23.19,32.3-32.71,28-4.47-2-7.06-7.43-7.27-15.19-.22-8.07,2.11-18,6.6-27.93,1-2.32,2.15-4.53,3.31-6.62.21-.36.41-.73.61-1.08s.42-.72.64-1.08A59.09,59.09,0,0,1,51,202.06c.29-.27.59-.53.88-.78s.58-.5.89-.73a41.51,41.51,0,0,0,3.66,4.56c-.3.24-.59.48-.88.74s-.58.5-.86.78l-.31.28a58.14,58.14,0,0,0-10,13.34c-.21.35-.41.71-.6,1.06l-.57,1.07c-.78,1.46-1.52,3-2.21,4.53-3.67,8.14-5.85,16.42-6.11,23.31a24.21,24.21,0,0,0,.83,8c.67,2.06,1.69,3.46,3,4.07a4,4,0,0,0,1.28.35c2.66.29,6.32-1.61,10.3-5.42,4.94-4.69,9.64-11.69,13.3-19.72A42.88,42.88,0,0,0,69,239.62Z"/><path d="M151.65,184.26a10.71,10.71,0,0,1-2.74-20.62,1.16,1.16,0,0,1,1.51.66,1.19,1.19,0,0,1-.67,1.52,8.36,8.36,0,0,0,6.06,15.59,1.16,1.16,0,1,1,.84,2.17A10.58,10.58,0,0,1,151.65,184.26Z"/><path d="M152.08,178.93a5,5,0,1,1,4.47-1.88,4.92,4.92,0,0,1-3.33,1.87A4.84,4.84,0,0,1,152.08,178.93Zm.84-7.65a2.68,2.68,0,0,0-1.94,4.77,2.66,2.66,0,0,0,3.74-.45,2.67,2.67,0,0,0-.44-3.76A2.75,2.75,0,0,0,152.92,171.28Z"/><path class="cls-1" d="M197.1,157.68l-14.94-15.61a4.49,4.49,0,0,1,.13-6.32l31.09-29.94a4.45,4.45,0,0,1,6.3.12l14.94,15.61a4.49,4.49,0,0,1-.13,6.32L203.4,157.8A4.45,4.45,0,0,1,197.1,157.68Z"/><path d="M199.7,160.19a5.58,5.58,0,0,1-3.44-1.7l-14.94-15.61a5.67,5.67,0,0,1,.16-8L212.58,105a5.61,5.61,0,0,1,7.94.16l14.94,15.61a5.66,5.66,0,0,1-.16,8l-31.1,30a5.57,5.57,0,0,1-4,1.57Zm17.12-54.44a3.29,3.29,0,0,0-2.63.9L183.1,136.6a3.31,3.31,0,0,0-.1,4.66l14.94,15.61h0a3.3,3.3,0,0,0,2.31,1,3.25,3.25,0,0,0,2.34-.92L233.68,127a3.32,3.32,0,0,0,.1-4.67l-14.94-15.61A3.27,3.27,0,0,0,216.82,105.75Z"/><path d="M218.8,144.08a1.13,1.13,0,0,1-.72-.36l-21-22.31a1.18,1.18,0,0,1,0-1.66,1.16,1.16,0,0,1,1.64,0l21,22.31a1.17,1.17,0,0,1-1,2Z"/><path d="M215,147.79a1.18,1.18,0,0,1-.73-.36l-21-22.31a1.18,1.18,0,0,1,.05-1.66,1.17,1.17,0,0,1,1.65.05l21,22.31a1.18,1.18,0,0,1,0,1.66A1.19,1.19,0,0,1,215,147.79Z"/><path d="M211.09,151.5a1.18,1.18,0,0,1-.72-.36l-21-22.31a1.18,1.18,0,0,1,0-1.66,1.17,1.17,0,0,1,1.65,0l21,22.31a1.18,1.18,0,0,1,0,1.66A1.2,1.2,0,0,1,211.09,151.5Z"/><path d="M207.28,155.24a1.13,1.13,0,0,1-.72-.36l-21-22.31a1.18,1.18,0,0,1,0-1.66,1.17,1.17,0,0,1,1.65.05l21,22.31a1.17,1.17,0,0,1-1,2Z"/><line class="cls-2" x1="50.77" y1="255.05" x2="61.4" y2="255.05"/><line class="cls-2" x1="28.01" y1="255.05" x2="36.15" y2="255.05"/></g></svg>