<svg xmlns="http://www.w3.org/2000/svg" viewBox="0 0 256 256"><defs><style>.RGB-2pt-black-round-outline-on-white-bg,.cls-1{fill:#f6f6f6;}.RGB-2pt-black-round-outline-on-white-bg{stroke:#000;stroke-linecap:round;stroke-linejoin:round;stroke-width:2px;}</style></defs><g id="Getting_food" data-name="Getting food"><path d="M189.76,225.67c-36.29,0-64.72-11.34-64.72-25.82S153.47,174,189.76,174s64.73,11.34,64.73,25.81S226.06,225.67,189.76,225.67Zm0-47.63C156.85,178,129,188,129,199.85s27.81,21.82,60.72,21.82,60.73-10,60.73-21.82S222.68,178,189.76,178Z"/><path class="cls-1" d="M189.76,175c35.73,0,63.73,10.9,63.73,24.81s-28,24.82-63.73,24.82S126,213.77,126,199.85,154,175,189.76,175m0,47.63c34,0,61.73-10.24,61.73-22.82S223.8,177,189.76,177,128,187.27,128,199.85s27.69,22.82,61.72,22.82m0-49.63C152.29,173,124,184.57,124,199.85s28.25,26.82,65.72,26.82,65.73-11.53,65.73-26.82S227.23,173,189.76,173Zm0,47.63C154,220.67,130,209.9,130,199.85S154,179,189.76,179s59.73,10.76,59.73,20.81-24,20.82-59.73,20.82Z"/><path d="M189.76,213.76c-19,0-33.36-6-33.36-13.91s14.34-13.91,33.36-13.91,33.36,6,33.36,13.91S208.78,213.76,189.76,213.76Zm0-23.82c-18.9,0-29.36,5.86-29.36,9.91s10.46,9.91,29.36,9.91,29.36-5.86,29.36-9.91S208.67,189.94,189.76,189.94Z"/><path class="cls-1" d="M189.76,186.94c18.15,0,32.36,5.67,32.36,12.91s-14.21,12.91-32.36,12.91-32.36-5.67-32.36-12.91,14.21-12.91,32.36-12.91m0,23.82c18.16,0,30.36-5.64,30.36-10.91s-12.2-10.91-30.36-10.91-30.36,5.64-30.36,10.91,12.2,10.91,30.36,10.91m0-25.82c-19.91,0-34.36,6.27-34.36,14.91s14.45,14.91,34.36,14.91,34.36-6.27,34.36-14.91-14.45-14.91-34.36-14.91Zm0,23.82c-18.62,0-28.36-5.8-28.36-8.91s9.74-8.91,28.36-8.91,28.36,5.8,28.36,8.91-9.74,8.91-28.36,8.91Z"/><path d="M189.76,207.81c-8.78,0-17.68-2.74-17.68-8s8.9-7.95,17.68-7.95,17.68,2.73,17.68,7.95S198.55,207.81,189.76,207.81Zm0-11.91c-8.88,0-13.68,2.81-13.68,3.95s4.8,4,13.68,4,13.68-2.81,13.68-4S198.65,195.9,189.76,195.9Z"/><path class="cls-1" d="M189.76,192.9c8.09,0,16.68,2.44,16.68,6.95s-8.59,7-16.68,7-16.68-2.44-16.68-7,8.6-6.95,16.68-6.95m0,11.91c8.4,0,14.68-2.62,14.68-5s-6.28-4.95-14.68-4.95-14.68,2.61-14.68,4.95,6.28,5,14.68,5m0-13.91c-9,0-18.68,2.8-18.68,8.95s9.68,9,18.68,9,18.68-2.81,18.68-9-9.68-8.95-18.68-8.95Zm-12.56,8.95c.93-1,5.29-2.95,12.56-2.95s11.63,2,12.57,2.95c-.94,1-5.29,3-12.57,3s-11.63-2-12.56-3Z"/><path d="M28.48,256a2,2,0,0,1-.63-.1,2,2,0,0,1-1.27-2.53L63.79,143.82a9.14,9.14,0,0,1-5-4.37,10.23,10.23,0,0,1-1.46-4.93,4.68,4.68,0,0,1,2.15-4.33,4,4,0,0,1,2-.53,5.48,5.48,0,0,1,2.8.84,10.23,10.23,0,0,1,3.55,3.73,6.17,6.17,0,0,1,.38.72L86.1,105.47l-.35-.19a10.06,10.06,0,0,1-3.41-3.58A9.91,9.91,0,0,1,81,97,4.52,4.52,0,0,1,83,92.75a3.94,3.94,0,0,1,2-.51,5.44,5.44,0,0,1,2.72.8,9.91,9.91,0,0,1,3.4,3.59A11.36,11.36,0,0,1,92,98.4l19.73-20.2a10.2,10.2,0,0,1-3-3,9.79,9.79,0,0,1-1.71-4.61,4.51,4.51,0,0,1,1.79-4.31,3.86,3.86,0,0,1,2.19-.65c2.13,0,4.46,1.51,6.1,3.94a10.46,10.46,0,0,1,1.38,2.94l19.67-14.17a6.7,6.7,0,0,1-1.93-2.64,9.16,9.16,0,0,1-.75-4.53,4.29,4.29,0,0,1,2.46-3.71,3.64,3.64,0,0,1,1.42-.29c2.19,0,4.48,1.92,5.69,4.79a12.28,12.28,0,0,1,.68,2l17.25-7.78a7.49,7.49,0,0,1-.78-1.95,6.78,6.78,0,0,1,0-3.87,3.87,3.87,0,0,1,2.72-2.6,3.76,3.76,0,0,1,1-.13,4.34,4.34,0,0,1,2.66.94A6.36,6.36,0,0,1,170.57,42a7,7,0,0,1,.24,1.77l14.68-2.59c-.08-.22-.15-.45-.22-.69a6.48,6.48,0,0,1-.05-3.21,3.46,3.46,0,0,1,2.38-2.59,3.22,3.22,0,0,1,.76-.09,3.66,3.66,0,0,1,2.58,1.18,6.39,6.39,0,0,1,1.53,2.84,5.29,5.29,0,0,1-.83,4.86v147a2,2,0,1,1-4,0V44.86l-20,3.53-23.94,10.8L117.12,78.35,91.58,104.5a3.3,3.3,0,0,1-.6.64l-22.3,36.69L30.38,254.64A2,2,0,0,1,28.48,256ZM61.41,133.67a2.33,2.33,0,0,0-.12.82,6.45,6.45,0,0,0,.92,3c1,1.82,2.4,2.57,2.89,2.57.21-.2.4-1.77-.76-3.79A6.43,6.43,0,0,0,62.23,134a1.77,1.77,0,0,0-.78-.29ZM85.05,96.24a1.55,1.55,0,0,0-.1.69,5.94,5.94,0,0,0,.86,2.77,6,6,0,0,0,2,2.13,1.67,1.67,0,0,0,.59.24l.07-.08a1.87,1.87,0,0,0,.08-.59,6.57,6.57,0,0,0-2.83-4.9A1.86,1.86,0,0,0,85.05,96.24ZM111,69.62a1.62,1.62,0,0,0,0,.67A6.54,6.54,0,0,0,114,74.94a1.65,1.65,0,0,0,.67.21A5.92,5.92,0,0,0,111,69.62Zm28.47-18.39a1.86,1.86,0,0,0-.09.4,5.32,5.32,0,0,0,.46,2.51A2.46,2.46,0,0,0,141,55.52a1.5,1.5,0,0,0,.6.14l.22,0a5.6,5.6,0,0,0-.58-2.12A4.46,4.46,0,0,0,139.44,51.23Zm26.44-9.6A3,3,0,0,0,166,43.2a2.61,2.61,0,0,0,.65,1.34s0,0,.11-.17a2.14,2.14,0,0,0,0-1.36A2.52,2.52,0,0,0,166,41.7Z"/><path class="cls-1" d="M188.36,35.6a2.62,2.62,0,0,1,1.86.88,5.39,5.39,0,0,1,1.28,2.39c.47,1.8.09,3.42-.86,4.18V190.47a1,1,0,1,1-2,0V43.67l-21.27,3.76L143.22,58.32,116.46,77.59,90.82,103.85a2.72,2.72,0,0,1-.6.62L67.77,141.41,29.43,254.32a1,1,0,0,1-.95.68,1.25,1.25,0,0,1-.32-.05,1,1,0,0,1-.63-1.27L65.12,143h0c-1.87,0-4.05-1.53-5.51-4.06a9.28,9.28,0,0,1-1.32-4.44,3.7,3.7,0,0,1,1.65-3.45,2.89,2.89,0,0,1,1.51-.4,4.65,4.65,0,0,1,2.3.7,9.26,9.26,0,0,1,3.18,3.37,9.93,9.93,0,0,1,1,2.49L87.58,105a5.18,5.18,0,0,1-1.32-.54,9,9,0,0,1-3.05-3.22A8.85,8.85,0,0,1,82,97a3.59,3.59,0,0,1,1.58-3.33A2.88,2.88,0,0,1,85,93.24a4.36,4.36,0,0,1,2.21.67,8.87,8.87,0,0,1,3.05,3.22,9.5,9.5,0,0,1,1.17,3.23L113.37,77.9a5.22,5.22,0,0,1-.67-.27,8.85,8.85,0,0,1-3.23-3,8.73,8.73,0,0,1-1.54-4.12,3.54,3.54,0,0,1,1.35-3.41,2.91,2.91,0,0,1,1.63-.48c1.73,0,3.79,1.3,5.27,3.5a8.69,8.69,0,0,1,1.51,4.11l22.17-16-.06,0a5.39,5.39,0,0,1-2.75-2.95,8.22,8.22,0,0,1-.68-4,3.36,3.36,0,0,1,1.86-2.9,2.64,2.64,0,0,1,1-.21c1.75,0,3.7,1.64,4.77,4.18a8.57,8.57,0,0,1,.8,3l19.58-8.83A5.74,5.74,0,0,1,163.07,44a5.79,5.79,0,0,1,0-3.3,2.89,2.89,0,0,1,2-2,3.2,3.2,0,0,1,.75-.09,3.31,3.31,0,0,1,2,.73,5.33,5.33,0,0,1,1.76,2.91,5.45,5.45,0,0,1,.06,2.74L187,41.93a6.18,6.18,0,0,1-.74-1.69,5.55,5.55,0,0,1-.05-2.71,2.45,2.45,0,0,1,1.67-1.87,2.07,2.07,0,0,1,.5-.06m1,5.91h0a2.43,2.43,0,0,0,.18-2.14c-.32-1.2-1-1.77-1.2-1.77h0c-.17.07-.5.91-.18,2.14s1,1.77,1.19,1.77m-22.8,4a.73.73,0,0,0,.25,0,1.21,1.21,0,0,0,.82-.71,3,3,0,0,0,0-2,3.45,3.45,0,0,0-1-1.85,1.31,1.31,0,0,0-.8-.3,1.07,1.07,0,0,0-.25,0,.86.86,0,0,0-.64.65,4.14,4.14,0,0,0,.08,2.16c.17.65.66,2.08,1.57,2.08M141.63,56.66a1.78,1.78,0,0,0,.7-.13h0a.78.78,0,0,0,.52-.79,6,6,0,0,0-.66-2.61c-.83-2-2.16-3-2.92-3a.71.71,0,0,0-.26,0c-.33.14-.57.62-.65,1.29a6.29,6.29,0,0,0,.53,3,3.43,3.43,0,0,0,1.73,1.9,2.47,2.47,0,0,0,1,.23M114.71,76.15a.93.93,0,0,0,.54-.15h0c.8-.54.66-2.69-.73-4.75-1.13-1.69-2.63-2.63-3.58-2.63a1,1,0,0,0-.55.15,1.73,1.73,0,0,0-.47,1.6,6.81,6.81,0,0,0,1.21,3.16,6.94,6.94,0,0,0,2.46,2.31,2.72,2.72,0,0,0,1.12.31M88.45,103.08a1.07,1.07,0,0,0,.41-.08l.42-.44a2.43,2.43,0,0,0,.24-1.17,7.64,7.64,0,0,0-3.32-5.76,2.5,2.5,0,0,0-1.2-.39,1,1,0,0,0-.47.11A1.77,1.77,0,0,0,84,96.93a7.51,7.51,0,0,0,3.32,5.76,2.4,2.4,0,0,0,1.18.39M65.1,141a.94.94,0,0,0,.51-.13c.91-.52.93-2.84-.41-5.16a7.34,7.34,0,0,0-2.46-2.64,2.68,2.68,0,0,0-1.29-.43,1,1,0,0,0-.51.13,1.9,1.9,0,0,0-.65,1.71A7.27,7.27,0,0,0,61.35,138c1.12,2,2.72,3.07,3.75,3.07M188.36,33.6a3.71,3.71,0,0,0-1,.13,4.44,4.44,0,0,0-3.1,3.29,7.22,7.22,0,0,0,0,3.37L171.71,42.6a6.44,6.44,0,0,0-.18-.85,7.26,7.26,0,0,0-2.46-4,5.31,5.31,0,0,0-3.27-1.16,4.82,4.82,0,0,0-1.25.16A4.88,4.88,0,0,0,161.13,40a7.77,7.77,0,0,0,0,4.44,12.26,12.26,0,0,0,.4,1.21l-15.27,6.89q-.16-.48-.39-1c-1.38-3.28-4-5.4-6.61-5.4a4.65,4.65,0,0,0-1.81.37,5.31,5.31,0,0,0-3.06,4.51,10.13,10.13,0,0,0,.82,5,8.14,8.14,0,0,0,1.3,2.13l-17.63,12.7a11.76,11.76,0,0,0-1-1.9c-1.82-2.71-4.47-4.39-6.93-4.39a4.88,4.88,0,0,0-2.75.82,5.56,5.56,0,0,0-2.23,5.22,10.81,10.81,0,0,0,1.88,5.09,11.85,11.85,0,0,0,2.34,2.58L92.27,96.64c-.09-.17-.18-.34-.28-.51a11,11,0,0,0-3.77-3.95A6.31,6.31,0,0,0,85,91.24a4.74,4.74,0,0,0-2.46.65A5.54,5.54,0,0,0,80,97a10.89,10.89,0,0,0,1.53,5.24,11.28,11.28,0,0,0,3.25,3.61L68.2,133a10.73,10.73,0,0,0-3.44-3.35,6.51,6.51,0,0,0-3.31-1,4.9,4.9,0,0,0-2.52.67,5.69,5.69,0,0,0-2.64,5.2A11.28,11.28,0,0,0,57.88,140a10.7,10.7,0,0,0,4.65,4.48L25.64,253a3,3,0,0,0,.16,2.3,3,3,0,0,0,1.73,1.51,3.09,3.09,0,0,0,.95.15A3,3,0,0,0,31.33,255L69.59,142.26l22.17-36.47a4.41,4.41,0,0,0,.58-.64l25.43-26,26.46-19.06L168,49.35l18.67-3.29V190.47a3,3,0,1,0,6,0V43.85a6.39,6.39,0,0,0,.8-5.49,7.52,7.52,0,0,0-1.78-3.27,4.65,4.65,0,0,0-3.3-1.49ZM113.24,73a5.39,5.39,0,0,1-.45-.59,6,6,0,0,1-.38-.64,6,6,0,0,1,.45.59c.15.22.27.44.38.64Zm-26,27a7.75,7.75,0,0,1-.51-.76,6.38,6.38,0,0,1-.41-.83,5.09,5.09,0,0,1,.52.76,5.74,5.74,0,0,1,.4.83ZM64.13,138.33a6.42,6.42,0,0,1-1-1.38,6.07,6.07,0,0,1-.67-1.6,6.3,6.3,0,0,1,1.06,1.38,6,6,0,0,1,.66,1.6Z"/><path class="RGB-2pt-black-round-outline-on-white-bg" d="M196.27,197.77c0,1.62-2.89,2.93-6.45,2.93s-6.45-1.31-6.45-2.93l-.11-.22a6.51,6.51,0,0,1,13,0Z"/><path class="RGB-2pt-black-round-outline-on-white-bg" d="M18.7,255c0-18.28,48.6-218.82,169.64-218.82C67.3,36.18,0,214.06,0,255Z"/><path d="M113.6,64.43A3.4,3.4,0,0,0,111,62.38a2.07,2.07,0,0,0-2.21.82,1,1,0,0,0,.25,1.4,1,1,0,0,0,1.36-.26,1.87,1.87,0,0,1,1.3.6,1,1,0,0,0,1,.71l.23,0A1,1,0,0,0,113.6,64.43Z"/><path d="M84.13,84.71c-.63,0-2.19.06-2.93,2.48a1,1,0,0,0,.67,1.24,1,1,0,0,0,1.24-.66c.16-.51.41-1.12.82-1.07,1.12.11,3.08,2.69,3.3,4.79a1,1,0,0,0,1,.89h.11a1,1,0,0,0,.89-1.11C88.93,88.57,86.48,84.94,84.13,84.71Z"/><path d="M55.66,120.82c-1.1-.11-3.08.2-4.13,3.49a1,1,0,1,0,1.91.61c.71-2.24,1.69-2.15,2-2.11,2.29.22,5.57,4.69,5.94,8.09a1,1,0,0,0,1,.89h.11a1,1,0,0,0,.89-1.11C63,126.67,59.12,121.16,55.66,120.82Z"/></g></svg>