<svg xmlns="http://www.w3.org/2000/svg" viewBox="0 0 256 256"><defs><style>.cls-1{fill:#fff;}.cls-2{fill:#1d1d1b;}.cls-3,.cls-4{stroke:#fff;stroke-linecap:round;stroke-linejoin:round;stroke-width:2px;}.cls-4{fill:none;}</style></defs><g id="Chronicler_modules" data-name="Chronicler modules"><path class="cls-1" d="M249.79,185.39l-11.32,4.49-11.56-16.32a1,1,0,0,0-.65-.41l-27.94-4.63a.86.86,0,0,0-.32,0l-1-7.74a1,1,0,0,0-.65-.81c-.32-.12-32.36-12-34.66-12.8a1,1,0,1,0-.68,1.88l12.67,4.67-3.13,29.67c-1,1.18-5.72,6.47-9.59,11-5.63,6.56-5.76,7-5.85,7.4-.3,1.14-2.13,13.3-2.49,15.66L145.92,226a1,1,0,0,0,.17,1.4,1,1,0,0,0,.66.21,1,1,0,0,0,.74-.38l6.85-8.76a1.16,1.16,0,0,0,.2-.47c.86-5.74,2.21-14.5,2.47-15.65a51,51,0,0,1,3.71-4.63l.13,14.13a1,1,0,0,0,.37.75l-6.09,19.07a1,1,0,0,0,.09.81l7.58,13.1-6.36,7.93a1,1,0,0,0,.83,1.62,1,1,0,0,0,.73-.37l6.79-8.46a1,1,0,0,0,.08-1.13l-7.7-13.31,6.08-19a1,1,0,0,0-.4-1.12l-.15-16.31c4.31-5,9.49-10.85,9.54-10.91a1,1,0,0,0,.25-.56l3.11-29.48,19.47,7.2,2.67,20.26c-1.22,1.11-3.79,5-10.86,18.61-4.71,9.1-9.18,18.29-9.23,18.39a1,1,0,0,0-.07.64c1.53,7.09,3.94,18.58,4.11,20.4-.49.89-2.05,3.94-7.42,14.93a1,1,0,0,0,.46,1.33,1,1,0,0,0,.49.1,1,1,0,0,0,.85-.56c2.73-5.59,6.92-14.1,7.42-14.93.38-.48.41-1.48-3.89-21.35,7.1-14.6,15.3-30.38,18.49-34.9l1.14,8.61a1,1,0,0,0,.34.63l7.12,6c-.39,3.09-3,20.52-3.64,23.15-.52.88-1,3.92-2.51,14.71-1,7.11-2,14.22-2,14.22a1,1,0,0,0,.86,1.12h.18a1,1,0,0,0,.94-.86c1.35-9.79,3.58-25.47,4.13-27.91a1,1,0,0,0,.18-.29c.28-.68,1-5,2.23-12.81.78-5.12,1.23-8.07,1.45-9.8l12.83,10.8,9.2,25.41-10.35,14.83a1,1,0,0,0,.24,1.39,1,1,0,0,0,.63.18,1,1,0,0,0,.77-.42l10.64-15.27a1,1,0,0,0,.12-.91l-2-5.61,17.31,4.2.29,0a1,1,0,0,0,.92-.77,1,1,0,0,0-.74-1.2l-18.59-4.52-6.62-18.28a1,1,0,0,0-.29-.42l-21.68-18.25-1.35-10.21h0l-1.55-11.78,27.26,4.52,11.77,16.61a1,1,0,0,0,.87.42.85.85,0,0,0,.31-.06l12.06-4.78a1,1,0,1,0-.74-1.86Z"/><path class="cls-1" d="M85,60.91,70,54.52l1.71-21a1,1,0,0,0-.61-1L50.46,24l-7-21.56a1,1,0,0,0-1.91.62L47,19.75a84.81,84.81,0,0,0-9.27-2.41C35.08,17,28.13,19.39,26,20.15L10.94,8.69a1,1,0,0,0-1.21,1.6L25.26,22.07a1,1,0,0,0,.95.14c3.37-1.25,9.4-3.13,11.24-2.89a99.17,99.17,0,0,1,10.28,2.76l1,3a1,1,0,0,0,.57.62l20.35,8.39-1.71,21a1,1,0,0,0,.6,1l15.41,6.55c4.57,7.17,9.23,15.28,9.42,16.91-1.13,2.3-5.56,16.95-6.47,19.95l-2.7,8.85-3-5.17L74.75,86.34a1,1,0,0,0-.33-.44c-6.93-5.22-18.22-13.84-19-14.72-.38-.44-1-1.16-9.36,2l-4.15-9.63-2-11.67a1,1,0,0,0-.33-.59c-.43-.36-6.19-5.29-11.8-9.9h0a1,1,0,0,0-1.15-1.64l-.47.33a94.73,94.73,0,0,0-8.81-6.71,1,1,0,0,0-.92,1.78,87.45,87.45,0,0,1,8,6.13L14.32,48.41c-5.3-.68-11.08-1.6-11.89-2a1,1,0,0,0-1.09,1.68c1.18.78,9.56,1.92,13.11,2.37h.13a1,1,0,0,0,.57-.19l10.9-7.71c4.41,3.63,9.2,7.67,11.93,10L40,64a1,1,0,0,0,.06.23l4.17,9.65c-2.85,1.11-6.45,2.6-11,4.57-5.94-8.55-9.42-13-10.32-13.38-.36-.13-1.42-.53-21.28,5.82A1,1,0,0,0,1,72.14a1,1,0,0,0,1.25.64c8.53-2.72,18.17-5.6,20-5.79C23.33,68.07,28,74.42,32,80.26a1,1,0,0,0,1.22.34c8.92-3.88,19-7.8,20.89-7.88,2.16,2,15.52,12.09,18.86,14.61l.5,1.31a1.8,1.8,0,0,0-.21.08L62.13,95.81,48.82,85.9a1,1,0,0,0-1-.1L29.52,94.56,1.61,103a1,1,0,0,0,.29,2,1.55,1.55,0,0,0,.29,0l28-8.48.14,0,17.79-8.54,13.38,10a1,1,0,0,0,1.13,0L74.21,90.5,79.38,104a.91.91,0,0,0,.07.14c.27.48,6.72,11.78,7.07,12.35,2.32,3.8,4.1,5.71,5.29,5.71a1,1,0,0,0,.5-.13,1,1,0,0,0,.37-1.37,1,1,0,0,0-.82-.5,30,30,0,0,1-3.63-4.75c-.14-.22-1.29-2.23-2.7-4.7l0-.06,3.22-10.58c2.13-7,5.74-18.63,6.36-19.67.34-.54,1.24-2-9.7-19.1A1,1,0,0,0,85,60.91Z"/><path class="cls-1" d="M123.23,1.45a1,1,0,0,0-1.36.35l-9.43,16L99.61,27l-.07-4.14C107,0,106.2-.43,105.3-.89A1,1,0,0,0,104-.45a1,1,0,0,0,0,.85c0,1.13-1.35,5.87-3,11.24h-.23L86.14,14.46C82.63,9,77.3.67,76.88-.38a1,1,0,0,0-1.3-.55A1,1,0,0,0,75,.38c.66,1.61,8.87,14.29,9.8,15.73a1,1,0,0,0,.84.46l.19,0,14.47-2.79c-.92,3-1.88,6-2.73,8.65a1,1,0,0,0,0,.33l.25,15.07a1,1,0,0,0,.73.95l9,2.55.75,8.24a1,1,0,0,0,1,.91h.09a1,1,0,0,0,.9-1.08l-.81-8.92a1,1,0,0,0-.72-.87l-9-2.54-.13-7.6,14.13-10.11a1,1,0,0,0,.28-.31l9.53-16.2A1,1,0,0,0,123.23,1.45Z"/><path class="cls-1" d="M219.47,66.05,207.8,83.38c-6.44,4.71-17,12.24-18.44,12.69-2.16.69-12.23,5.32-12.66,5.52a1,1,0,0,0,.42,1.91.92.92,0,0,0,.42-.1c.1,0,10.38-4.77,12.43-5.42s16.33-11,19.15-13.09a1.14,1.14,0,0,0,.24-.25l12.2-18.11a1,1,0,0,0-.08-1.21l-5.22-6,7.53-4.66a1,1,0,0,0,.41-1.2L220.28,43c2.05-2,10.28-10,12.79-11.85,2.1-1.57,5.14-10,8.61-20.08.94-2.72,1.9-5.53,2.16-6A1,1,0,1,0,242.16,4a53.76,53.76,0,0,0-2.37,6.39c-2,5.77-6.14,17.8-7.92,19.13-1,.76-2.82,2.38-4.8,4.22-1.49-2.62-6.16-10.81-7.06-12.18-.44-1.76-1.63-18.31-1.64-19.23a1,1,0,0,0-2,0c0,.18,1.14,19.31,2,20.31.41.56,4.52,7.72,7,12.1a1,1,0,0,0,.3.33c-3.47,3.26-7,6.68-7.22,6.92a1,1,0,0,0-.24,1.06L222,53.38l-7.1,4.4-11.37-13.1c.19-1.45.81-6.25,1.43-11,.36-2.88.73-5.75,1-7.91.21-1.69.34-2.75.37-3.42h0c.06-1.1-.16-1.15-.74-1.27a1,1,0,0,0-1.17.69,1,1,0,0,0,0,.35c-.12,1.31-1.78,14.23-2.89,22.81a1,1,0,0,0,.23.78Z"/><path class="cls-1" d="M186,23.88c-3.21,2-8.77,17.25-9.85,20.29a1,1,0,0,0,.32,1.12l5.55,4.35L170.31,65.2l-15.88,7.5a1,1,0,0,0,.43,1.9,1,1,0,0,0,.43-.1l16.09-7.6a1,1,0,0,0,.38-.3l12.48-16.54a1,1,0,0,0-.18-1.39l-5.76-4.51c2.47-6.83,6.82-17.38,8.78-18.58s4.46-7.18,7.69-15.43a58.75,58.75,0,0,1,3-7.14,1,1,0,0,0,0-1.41,1,1,0,0,0-1.42,0c-.65.65-1.47,2.66-3.49,7.82S187.64,22.88,186,23.88Z"/><path class="cls-1" d="M91.24,160.11a1,1,0,0,0-1.33.47l-2.54,5.29c-.9,1-5.66,6.44-6.38,7.52-.17.27-1,1.19-1.9,2.09-3.42,3.61-6,6.5-6.26,8.13-.26,2-5.17,14.17-6.72,15.57a1.09,1.09,0,0,0-.88.63c-.23.5-.62,1.34,5.38,10.69,2.81,4.37,6.41,9.55,8.08,10.93a1,1,0,0,0,.64.23,1,1,0,0,0,.77-.36,1,1,0,0,0-.13-1.41c-2.53-2.1-11.34-15.78-12.69-19.09,2.36-2,7.29-15.1,7.53-16.93.15-1.12,4.06-5.25,5.73-7a25.92,25.92,0,0,0,2.12-2.35c.51-.77,4-4.85,6.3-7.41a.94.94,0,0,0,.16-.23l2.59-5.41A1,1,0,0,0,91.24,160.11Z"/><path class="cls-1" d="M255,115.25c-1.91-.51-13.41,6.51-22.64,12.5l-10.78,6-12.7-1.34c-2.29-1.35-2.82-1.07-3.23-.66-.94.29-4.71,0-9.34-.43l6.24-6.68,10.72-7.84L229.9,116a1,1,0,0,0,.93-.78l4.1-18.37L256,86.24V84l-.08,0L233.6,95.31a1,1,0,0,0-.52.67l-4,18.09-9.86.47,1.29-24.8,18.6-7.89a1,1,0,0,0,.58-1.14l-2-9.07,3.36-3.2a1,1,0,0,0,.41,1.08l8.42,5.56a1,1,0,0,0,.4.15,1,1,0,0,0,.59-.09c1.38-.68,3.26-1.59,5.2-2.51V70.42c-2.39,1.13-4.59,2.19-5.56,2.67l-7.95-5.24a1,1,0,0,0-.74-.14l10.16-9.65a1,1,0,0,0,.16-.19c1.17-1.86,2.53-4,3.93-6.1V48.14c-2.63,4-4.91,7.53-5.55,8.55L235.83,70.58a1,1,0,0,0-.29,1l2,8.81-18.4,7.8a1,1,0,0,0-.61.87l-1.34,25.62-4.35.21a1,1,0,0,0-.54.19l-11,8.07-.14.12-6.54,7a1,1,0,0,0-.22.92c-5.56-.61-11.92-1.47-16.09-2.1a1,1,0,1,0-.3,2c9.56,1.46,25.44,3.63,28.56,2.5a6.75,6.75,0,0,1,1.48.75h0a97.71,97.71,0,0,1,8.87,6.51l4.38,19.09a1,1,0,0,0,.36.57l14.68,11.2a1,1,0,0,0,.46.19l11.61,1.77a1,1,0,0,0,1.14-.84,1,1,0,0,0-.84-1.14l-11.36-1.72-14.19-10.83-3.73-16.27c4.42,3.58,8.24,6.85,8.29,6.88a1,1,0,0,0,.87.22c9-2.09,19.13-3.93,20.45-3.46a31.69,31.69,0,0,1,4.5,4.19,1,1,0,0,0,1.42.08,1,1,0,0,0,.07-1.41,33.16,33.16,0,0,0-4.92-4.55c-1.87-1.19-14,1.37-21.48,3.09-1.3-1.11-5.71-4.84-10.19-8.41-2.47-2-4.43-3.46-6-4.61l9.24,1a1,1,0,0,0,.6-.12l11.12-6.21c9.13-5.93,19.49-12.1,21.16-12.26a1,1,0,0,0,1.13-.71A1,1,0,0,0,255,115.25Zm-48.3,18.2a1,1,0,0,0,.3-.2A1,1,0,0,1,206.66,133.45Z"/><path class="cls-1" d="M185.28,0l-17,21.72H155.49a1,1,0,0,0-.61.21L140.79,32.78c.12-2.28.44-3.91.92-4.22,2.89-1.9,10.83-25.93,10.85-26.13a1,1,0,0,0-.85-1.09,1,1,0,0,0-1.13.83c-.41,2.16-8.2,23.34-10,24.72-1.44.94-1.86,4.21-1.9,7.49l-.38.29a1,1,0,0,0-.18,1.4,1,1,0,0,0,.58.34c.05,1.64.17,3.15.27,4.22a1.11,1.11,0,0,0,.22.55c1.09,1.31,3.62,5.28,2.27,7.8-2,3.63-11,19-11.1,19.12a1,1,0,0,0,.35,1.37,1.06,1.06,0,0,0,.51.14,1,1,0,0,0,.86-.49c.38-.64,9.17-15.53,11.14-19.19s-1.39-8.62-2.29-9.78c-.15-1.66-.22-3.3-.23-4.8l15.1-11.63h12.92a1,1,0,0,0,.79-.38L187.34.62a1,1,0,0,0,.2-.62Z"/><path class="cls-1" d="M89.76,149.27a1,1,0,0,0-1.4-.26c-.36.26-13.37,9.73-18.81,16-1.25-1.55-4.12-5.89-6.62-9.88a1,1,0,0,0-1.28-.37L46.76,161.9c-4.26-3.34-13.87-11.65-14.41-15.57-.45-3.34-3.7-11.43-9.63-24l-.4-.84a1,1,0,0,0-1.82.84l.41.86c7.29,15.47,9.17,21.29,9.46,23.45s2.28,4.8,4.76,7.48l-8.38,4.76-2.24.9-6.33-8.61a1,1,0,0,0-.31-.27c-1.94-1.13-11.72-6.79-12.86-7.17a1,1,0,0,0-1.25.62,1,1,0,0,0,.61,1.28c.8.28,7.9,4.33,12.32,6.89l5.9,8-10,4a1,1,0,0,0,.38,1.93,1,1,0,0,0,.37-.07L24.21,162h0a1,1,0,0,0,.59-.2s0,0,.06-.07l2.7-1.08.12-.06,8.87-5A104.64,104.64,0,0,0,46,163.86a1,1,0,0,0,1,.11l14.65-7c3.69,5.86,5.52,8.43,6.53,9.57-3,3.44-6.2,7.15-9.2,10.63a.83.83,0,0,0-.31,0l-8.9,2.38L36,184.17c-1.66-2.09-7.61-9.57-8.93-11.75a1,1,0,0,0-1.37-.34,1,1,0,0,0-.34,1.37c1.59,2.64,9.2,12.12,9.52,12.52a1,1,0,0,0,.56.35,1,1,0,0,0,.54,0l14.43-4.83,6.38-1.71c-1,1.16-2,2.29-2.88,3.34a1,1,0,0,0-.24.56c-.56,5.92-.95,10.45-1.22,13.95a1,1,0,0,0-.52.86,1,1,0,0,0,.4.78c-.51,6.8-.49,9-.4,9.78a62.7,62.7,0,0,1-3.79,6.65l-7.05-3.22L30,195.89a1.07,1.07,0,0,0-.43-.36L23.81,193l.09-.54a1,1,0,0,0-2-.33v.05L9.64,186.82a1,1,0,0,0-.8,1.83l12.75,5.57c-.42,2.56-1.07,6.63-1.13,7.86-.72,1.16-6.51,6.13-11.84,10.38a1,1,0,0,0-.16,1.41,1,1,0,0,0,.78.37,1.06,1.06,0,0,0,.63-.21c12.58-10,12.58-11.25,12.58-11.77s.53-4.13,1-7.21l5,2.2L39.57,213.8a1.12,1.12,0,0,0,.42.36l7.09,3.23c-2.21,3.57-4.94,7.88-7.74,12.24a1,1,0,0,0-.39-.11l-7.2-.38-6.08-9a1,1,0,0,0-.73-.44,1,1,0,0,0-.8.29l-7.67,7.59c-7,6.15-15,12.7-16.45,13.17a1,1,0,0,0-1,.79,1,1,0,0,0,.77,1.19,1,1,0,0,0,.22,0c.8,0,3.49-1.08,17.82-13.72l6.86-6.78,5.68,8.42a1,1,0,0,0,.78.44l7,.37c-2.5,3.87-5,7.7-7.13,11L12.44,253.55a1,1,0,0,0-.35,1.37,1,1,0,0,0,.86.49,1,1,0,0,0,.51-.15l18.78-11.2a.89.89,0,0,0,.33-.31C53.39,212,54.13,209.41,53.86,208.67c-.11-.79.11-4.54.46-9.21h.36l10.51,18.6c-.31,1.2-1.32,5-2.48,9.35a.8.8,0,0,0-.2.07l-13.9,8.75a.92.92,0,0,0-.32.33c-1,1.65-9.73,16.15-10.3,17.44a1,1,0,0,0,.5,1.32,1,1,0,0,0,1.32-.51c.4-.87,6.19-10.58,10.07-17L62,230.19c-1.83,6.87-3.76,14.15-4,14.85a1,1,0,0,0,.7,1.23,1.26,1.26,0,0,0,.27,0,1,1,0,0,0,1-.74c.38-1.36,7-26.32,7.29-27.39a1,1,0,0,0-.09-.75L56.14,198a1,1,0,0,0-.87-.51h-.8c.35-4.44.79-9.39,1.15-13.3,4.5-5.22,10-11.62,14.79-17.09h0c5.52-6.37,18.61-15.95,19.15-16.45A1,1,0,0,0,89.76,149.27Z"/><path class="cls-1" d="M249.79,185.39l-11.32,4.49-11.56-16.32a1,1,0,0,0-.65-.41l-27.94-4.63a.86.86,0,0,0-.32,0l-1-7.74a1,1,0,0,0-.65-.81c-.32-.12-32.36-12-34.66-12.8a1,1,0,1,0-.68,1.88l12.67,4.67-3.13,29.67c-1,1.18-5.72,6.47-9.59,11-5.63,6.56-5.76,7-5.85,7.4-.3,1.14-2.13,13.3-2.49,15.66L145.92,226a1,1,0,0,0,.17,1.4,1,1,0,0,0,.66.21,1,1,0,0,0,.74-.38l6.85-8.76a1.16,1.16,0,0,0,.2-.47c.86-5.74,2.21-14.5,2.47-15.65a51,51,0,0,1,3.71-4.63l.13,14.13a1,1,0,0,0,.37.75l-6.09,19.07a1,1,0,0,0,.09.81l7.58,13.1-6.36,7.93a1,1,0,0,0,.83,1.62,1,1,0,0,0,.73-.37l6.79-8.46a1,1,0,0,0,.08-1.13l-7.7-13.31,6.08-19a1,1,0,0,0-.4-1.12l-.15-16.31c4.31-5,9.49-10.85,9.54-10.91a1,1,0,0,0,.25-.56l3.11-29.48,19.47,7.2,2.67,20.26c-1.22,1.11-3.79,5-10.86,18.61-4.71,9.1-9.18,18.29-9.23,18.39a1,1,0,0,0-.07.64c1.53,7.09,3.94,18.58,4.11,20.4-.49.89-2.05,3.94-7.42,14.93a1,1,0,0,0,.46,1.33,1,1,0,0,0,.49.1,1,1,0,0,0,.85-.56c2.73-5.59,6.92-14.1,7.42-14.93.38-.48.41-1.48-3.89-21.35,7.1-14.6,15.3-30.38,18.49-34.9l1.14,8.61a1,1,0,0,0,.34.63l7.12,6c-.39,3.09-3,20.52-3.64,23.15-.52.88-1,3.92-2.51,14.71-1,7.11-2,14.22-2,14.22a1,1,0,0,0,.86,1.12h.18a1,1,0,0,0,.94-.86c1.35-9.79,3.58-25.47,4.13-27.91a1,1,0,0,0,.18-.29c.28-.68,1-5,2.23-12.81.78-5.12,1.23-8.07,1.45-9.8l12.83,10.8,9.2,25.41-10.35,14.83a1,1,0,0,0,.24,1.39,1,1,0,0,0,.63.18,1,1,0,0,0,.77-.42l10.64-15.27a1,1,0,0,0,.12-.91l-2-5.61,17.31,4.2.29,0a1,1,0,0,0,.92-.77,1,1,0,0,0-.74-1.2l-18.59-4.52-6.62-18.28a1,1,0,0,0-.29-.42l-21.68-18.25-1.35-10.21h0l-1.55-11.78,27.26,4.52,11.77,16.61a1,1,0,0,0,.87.42.85.85,0,0,0,.31-.06l12.06-4.78a1,1,0,1,0-.74-1.86Z"/><path class="cls-1" d="M85,60.91,70,54.52l1.71-21a1,1,0,0,0-.61-1L50.46,24l-7-21.56a1,1,0,0,0-1.91.62L47,19.75a84.81,84.81,0,0,0-9.27-2.41C35.08,17,28.13,19.39,26,20.15L10.94,8.69a1,1,0,0,0-1.21,1.6L25.26,22.07a1,1,0,0,0,.95.14c3.37-1.25,9.4-3.13,11.24-2.89a99.17,99.17,0,0,1,10.28,2.76l1,3a1,1,0,0,0,.57.62l20.35,8.39-1.71,21a1,1,0,0,0,.6,1l15.41,6.55c4.57,7.17,9.23,15.28,9.42,16.91-1.13,2.3-5.56,16.95-6.47,19.95l-2.7,8.85-3-5.17L74.75,86.34a1,1,0,0,0-.33-.44c-6.93-5.22-18.22-13.84-19-14.72-.38-.44-1-1.16-9.36,2l-4.15-9.63-2-11.67a1,1,0,0,0-.33-.59c-.43-.36-6.19-5.29-11.8-9.9h0a1,1,0,0,0-1.15-1.64l-.47.33a94.73,94.73,0,0,0-8.81-6.71,1,1,0,0,0-.92,1.78,87.45,87.45,0,0,1,8,6.13L14.32,48.41c-5.3-.68-11.08-1.6-11.89-2a1,1,0,0,0-1.09,1.68c1.18.78,9.56,1.92,13.11,2.37h.13a1,1,0,0,0,.57-.19l10.9-7.71c4.41,3.63,9.2,7.67,11.93,10L40,64a1,1,0,0,0,.06.23l4.17,9.65c-2.85,1.11-6.45,2.6-11,4.57-5.94-8.55-9.42-13-10.32-13.38-.36-.13-1.42-.53-21.28,5.82A1,1,0,0,0,1,72.14a1,1,0,0,0,1.25.64c8.53-2.72,18.17-5.6,20-5.79C23.33,68.07,28,74.42,32,80.26a1,1,0,0,0,1.22.34c8.92-3.88,19-7.8,20.89-7.88,2.16,2,15.52,12.09,18.86,14.61l.5,1.31a1.8,1.8,0,0,0-.21.08L62.13,95.81,48.82,85.9a1,1,0,0,0-1-.1L29.52,94.56,1.61,103a1,1,0,0,0,.29,2,1.55,1.55,0,0,0,.29,0l28-8.48.14,0,17.79-8.54,13.38,10a1,1,0,0,0,1.13,0L74.21,90.5,79.38,104a.91.91,0,0,0,.07.14c.27.48,6.72,11.78,7.07,12.35,2.32,3.8,4.1,5.71,5.29,5.71a1,1,0,0,0,.5-.13,1,1,0,0,0,.37-1.37,1,1,0,0,0-.82-.5,30,30,0,0,1-3.63-4.75c-.14-.22-1.29-2.23-2.7-4.7l0-.06,3.22-10.58c2.13-7,5.74-18.63,6.36-19.67.34-.54,1.24-2-9.7-19.1A1,1,0,0,0,85,60.91Z"/><path class="cls-1" d="M123.23,1.45a1,1,0,0,0-1.36.35l-9.43,16L99.61,27l-.07-4.14C107,0,106.2-.43,105.3-.89A1,1,0,0,0,104-.45a1,1,0,0,0,0,.85c0,1.13-1.35,5.87-3,11.24h-.23L86.14,14.46C82.63,9,77.3.67,76.88-.38a1,1,0,0,0-1.3-.55A1,1,0,0,0,75,.38c.66,1.61,8.87,14.29,9.8,15.73a1,1,0,0,0,.84.46l.19,0,14.47-2.79c-.92,3-1.88,6-2.73,8.65a1,1,0,0,0,0,.33l.25,15.07a1,1,0,0,0,.73.95l9,2.55.75,8.24a1,1,0,0,0,1,.91h.09a1,1,0,0,0,.9-1.08l-.81-8.92a1,1,0,0,0-.72-.87l-9-2.54-.13-7.6,14.13-10.11a1,1,0,0,0,.28-.31l9.53-16.2A1,1,0,0,0,123.23,1.45Z"/><path class="cls-1" d="M219.47,66.05,207.8,83.38c-6.44,4.71-17,12.24-18.44,12.69-2.16.69-12.23,5.32-12.66,5.52a1,1,0,0,0,.42,1.91.92.92,0,0,0,.42-.1c.1,0,10.38-4.77,12.43-5.42s16.33-11,19.15-13.09a1.14,1.14,0,0,0,.24-.25l12.2-18.11a1,1,0,0,0-.08-1.21l-5.22-6,7.53-4.66a1,1,0,0,0,.41-1.2L220.28,43c2.05-2,10.28-10,12.79-11.85,2.1-1.57,5.14-10,8.61-20.08.94-2.72,1.9-5.53,2.16-6A1,1,0,1,0,242.16,4a53.76,53.76,0,0,0-2.37,6.39c-2,5.77-6.14,17.8-7.92,19.13-1,.76-2.82,2.38-4.8,4.22-1.49-2.62-6.16-10.81-7.06-12.18-.44-1.76-1.63-18.31-1.64-19.23a1,1,0,0,0-2,0c0,.18,1.14,19.31,2,20.31.41.56,4.52,7.72,7,12.1a1,1,0,0,0,.3.33c-3.47,3.26-7,6.68-7.22,6.92a1,1,0,0,0-.24,1.06L222,53.38l-7.1,4.4-11.37-13.1c.19-1.45.81-6.25,1.43-11,.36-2.88.73-5.75,1-7.91.21-1.69.34-2.75.37-3.42h0c.06-1.1-.16-1.15-.74-1.27a1,1,0,0,0-1.17.69,1,1,0,0,0,0,.35c-.12,1.31-1.78,14.23-2.89,22.81a1,1,0,0,0,.23.78Z"/><path class="cls-1" d="M186,23.88c-3.21,2-8.77,17.25-9.85,20.29a1,1,0,0,0,.32,1.12l5.55,4.35L170.31,65.2l-15.88,7.5a1,1,0,0,0,.43,1.9,1,1,0,0,0,.43-.1l16.09-7.6a1,1,0,0,0,.38-.3l12.48-16.54a1,1,0,0,0-.18-1.39l-5.76-4.51c2.47-6.83,6.82-17.38,8.78-18.58s4.46-7.18,7.69-15.43a58.75,58.75,0,0,1,3-7.14,1,1,0,0,0,0-1.41,1,1,0,0,0-1.42,0c-.65.65-1.47,2.66-3.49,7.82S187.64,22.88,186,23.88Z"/><path class="cls-1" d="M91.24,160.11a1,1,0,0,0-1.33.47l-2.54,5.29c-.9,1-5.66,6.44-6.38,7.52-.17.27-1,1.19-1.9,2.09-3.42,3.61-6,6.5-6.26,8.13-.26,2-5.17,14.17-6.72,15.57a1.09,1.09,0,0,0-.88.63c-.23.5-.62,1.34,5.38,10.69,2.81,4.37,6.41,9.55,8.08,10.93a1,1,0,0,0,.64.23,1,1,0,0,0,.77-.36,1,1,0,0,0-.13-1.41c-2.53-2.1-11.34-15.78-12.69-19.09,2.36-2,7.29-15.1,7.53-16.93.15-1.12,4.06-5.25,5.73-7a25.92,25.92,0,0,0,2.12-2.35c.51-.77,4-4.85,6.3-7.41a.94.94,0,0,0,.16-.23l2.59-5.41A1,1,0,0,0,91.24,160.11Z"/><path class="cls-1" d="M255,115.25c-1.91-.51-13.41,6.51-22.64,12.5l-10.78,6-12.7-1.34c-2.29-1.35-2.82-1.07-3.23-.66-.94.29-4.71,0-9.34-.43l6.24-6.68,10.72-7.84L229.9,116a1,1,0,0,0,.93-.78l4.1-18.37L256,86.24V84l-.08,0L233.6,95.31a1,1,0,0,0-.52.67l-4,18.09-9.86.47,1.29-24.8,18.6-7.89a1,1,0,0,0,.58-1.14l-2-9.07,3.36-3.2a1,1,0,0,0,.41,1.08l8.42,5.56a1,1,0,0,0,.4.15,1,1,0,0,0,.59-.09c1.38-.68,3.26-1.59,5.2-2.51V70.42c-2.39,1.13-4.59,2.19-5.56,2.67l-7.95-5.24a1,1,0,0,0-.74-.14l10.16-9.65a1,1,0,0,0,.16-.19c1.17-1.86,2.53-4,3.93-6.1V48.14c-2.63,4-4.91,7.53-5.55,8.55L235.83,70.58a1,1,0,0,0-.29,1l2,8.81-18.4,7.8a1,1,0,0,0-.61.87l-1.34,25.62-4.35.21a1,1,0,0,0-.54.19l-11,8.07-.14.12-6.54,7a1,1,0,0,0-.22.92c-5.56-.61-11.92-1.47-16.09-2.1a1,1,0,1,0-.3,2c9.56,1.46,25.44,3.63,28.56,2.5a6.75,6.75,0,0,1,1.48.75h0a97.71,97.71,0,0,1,8.87,6.51l4.38,19.09a1,1,0,0,0,.36.57l14.68,11.2a1,1,0,0,0,.46.19l11.61,1.77a1,1,0,0,0,1.14-.84,1,1,0,0,0-.84-1.14l-11.36-1.72-14.19-10.83-3.73-16.27c4.42,3.58,8.24,6.85,8.29,6.88a1,1,0,0,0,.87.22c9-2.09,19.13-3.93,20.45-3.46a31.69,31.69,0,0,1,4.5,4.19,1,1,0,0,0,1.42.08,1,1,0,0,0,.07-1.41,33.16,33.16,0,0,0-4.92-4.55c-1.87-1.19-14,1.37-21.48,3.09-1.3-1.11-5.71-4.84-10.19-8.41-2.47-2-4.43-3.46-6-4.61l9.24,1a1,1,0,0,0,.6-.12l11.12-6.21c9.13-5.93,19.49-12.1,21.16-12.26a1,1,0,0,0,1.13-.71A1,1,0,0,0,255,115.25Zm-48.3,18.2a1,1,0,0,0,.3-.2A1,1,0,0,1,206.66,133.45Z"/><path class="cls-1" d="M185.28,0l-17,21.72H155.49a1,1,0,0,0-.61.21L140.79,32.78c.12-2.28.44-3.91.92-4.22,2.89-1.9,10.83-25.93,10.85-26.13a1,1,0,0,0-.85-1.09,1,1,0,0,0-1.13.83c-.41,2.16-8.2,23.34-10,24.72-1.44.94-1.86,4.21-1.9,7.49l-.38.29a1,1,0,0,0-.18,1.4,1,1,0,0,0,.58.34c.05,1.64.17,3.15.27,4.22a1.11,1.11,0,0,0,.22.55c1.09,1.31,3.62,5.28,2.27,7.8-2,3.63-11,19-11.1,19.12a1,1,0,0,0,.35,1.37,1.06,1.06,0,0,0,.51.14,1,1,0,0,0,.86-.49c.38-.64,9.17-15.53,11.14-19.19s-1.39-8.62-2.29-9.78c-.15-1.66-.22-3.3-.23-4.8l15.1-11.63h12.92a1,1,0,0,0,.79-.38L187.34.62a1,1,0,0,0,.2-.62Z"/><path class="cls-1" d="M89.76,149.27a1,1,0,0,0-1.4-.26c-.36.26-13.37,9.73-18.81,16-1.25-1.55-4.12-5.89-6.62-9.88a1,1,0,0,0-1.28-.37L46.76,161.9c-4.26-3.34-13.87-11.65-14.41-15.57-.45-3.34-3.7-11.43-9.63-24l-.4-.84a1,1,0,0,0-1.82.84l.41.86c7.29,15.47,9.17,21.29,9.46,23.45s2.28,4.8,4.76,7.48l-8.38,4.76-2.24.9-6.33-8.61a1,1,0,0,0-.31-.27c-1.94-1.13-11.72-6.79-12.86-7.17a1,1,0,0,0-1.25.62,1,1,0,0,0,.61,1.28c.8.28,7.9,4.33,12.32,6.89l5.9,8-10,4a1,1,0,0,0,.38,1.93,1,1,0,0,0,.37-.07L24.21,162h0a1,1,0,0,0,.59-.2s0,0,.06-.07l2.7-1.08.12-.06,8.87-5A104.64,104.64,0,0,0,46,163.86a1,1,0,0,0,1,.11l14.65-7c3.69,5.86,5.52,8.43,6.53,9.57-3,3.44-6.2,7.15-9.2,10.63a.83.83,0,0,0-.31,0l-8.9,2.38L36,184.17c-1.66-2.09-7.61-9.57-8.93-11.75a1,1,0,0,0-1.37-.34,1,1,0,0,0-.34,1.37c1.59,2.64,9.2,12.12,9.52,12.52a1,1,0,0,0,.56.35,1,1,0,0,0,.54,0l14.43-4.83,6.38-1.71c-1,1.16-2,2.29-2.88,3.34a1,1,0,0,0-.24.56c-.56,5.92-.95,10.45-1.22,13.95a1,1,0,0,0-.52.86,1,1,0,0,0,.4.78c-.51,6.8-.49,9-.4,9.78a62.7,62.7,0,0,1-3.79,6.65l-7.05-3.22L30,195.89a1.07,1.07,0,0,0-.43-.36L23.81,193l.09-.54a1,1,0,0,0-2-.33v.05L9.64,186.82a1,1,0,0,0-.8,1.83l12.75,5.57c-.42,2.56-1.07,6.63-1.13,7.86-.72,1.16-6.51,6.13-11.84,10.38a1,1,0,0,0-.16,1.41,1,1,0,0,0,.78.37,1.06,1.06,0,0,0,.63-.21c12.58-10,12.58-11.25,12.58-11.77s.53-4.13,1-7.21l5,2.2L39.57,213.8a1.12,1.12,0,0,0,.42.36l7.09,3.23c-2.21,3.57-4.94,7.88-7.74,12.24a1,1,0,0,0-.39-.11l-7.2-.38-6.08-9a1,1,0,0,0-.73-.44,1,1,0,0,0-.8.29l-7.67,7.59c-7,6.15-15,12.7-16.45,13.17a1,1,0,0,0-1,.79,1,1,0,0,0,.77,1.19,1,1,0,0,0,.22,0c.8,0,3.49-1.08,17.82-13.72l6.86-6.78,5.68,8.42a1,1,0,0,0,.78.44l7,.37c-2.5,3.87-5,7.7-7.13,11L12.44,253.55a1,1,0,0,0-.35,1.37,1,1,0,0,0,.86.49,1,1,0,0,0,.51-.15l18.78-11.2a.89.89,0,0,0,.33-.31C53.39,212,54.13,209.41,53.86,208.67c-.11-.79.11-4.54.46-9.21h.36l10.51,18.6c-.31,1.2-1.32,5-2.48,9.35a.8.8,0,0,0-.2.07l-13.9,8.75a.92.92,0,0,0-.32.33c-1,1.65-9.73,16.15-10.3,17.44a1,1,0,0,0,.5,1.32,1,1,0,0,0,1.32-.51c.4-.87,6.19-10.58,10.07-17L62,230.19c-1.83,6.87-3.76,14.15-4,14.85a1,1,0,0,0,.7,1.23,1.26,1.26,0,0,0,.27,0,1,1,0,0,0,1-.74c.38-1.36,7-26.32,7.29-27.39a1,1,0,0,0-.09-.75L56.14,198a1,1,0,0,0-.87-.51h-.8c.35-4.44.79-9.39,1.15-13.3,4.5-5.22,10-11.62,14.79-17.09h0c5.52-6.37,18.61-15.95,19.15-16.45A1,1,0,0,0,89.76,149.27Z"/><path class="cls-2" d="M161.33,147.12a1,1,0,0,1,.34.06C164,148,196,159.86,196.33,160a1,1,0,0,1,.65.81l1,7.74.2,0h.12l27.94,4.63a1,1,0,0,1,.65.41l11.56,16.32,11.32-4.49a1,1,0,0,1,.38-.07,1,1,0,0,1,.36,1.93L238.47,192a.85.85,0,0,1-.31.06h0a1,1,0,0,1-.82-.43l-11.77-16.61-27.26-4.52,1.55,11.78h0l1.35,10.21,21.68,18.25a1,1,0,0,1,.29.42l6.62,18.28L248.34,234a1,1,0,0,1,.74,1.2,1,1,0,0,1-.92.77h0a1,1,0,0,1-.24,0l-17.31-4.2,2,5.61a1,1,0,0,1-.12.91l-10.64,15.27a1,1,0,0,1-.77.42H221a1,1,0,0,1-.57-.18,1,1,0,0,1-.24-1.39l10.35-14.83-9.2-25.41-12.83-10.8c-.22,1.73-.67,4.68-1.45,9.8-1.2,7.82-1.95,12.13-2.23,12.81a1,1,0,0,1-.18.29c-.55,2.44-2.78,18.12-4.13,27.91a1,1,0,0,1-.94.86h-.18a1,1,0,0,1-.86-1.12s1-7.11,2-14.22c1.55-10.79,2-13.83,2.51-14.71.65-2.63,3.25-20.06,3.64-23.15l-7.12-6a1,1,0,0,1-.34-.63l-1.14-8.61c-3.19,4.52-11.39,20.3-18.49,34.9,4.3,19.87,4.27,20.87,3.89,21.35-.5.83-4.69,9.34-7.42,14.93a1,1,0,0,1-.85.56h-.05a1,1,0,0,1-.44-.1,1,1,0,0,1-.46-1.33c5.37-11,6.93-14,7.42-14.93-.17-1.82-2.58-13.31-4.11-20.4a1,1,0,0,1,.07-.64c0-.1,4.52-9.29,9.23-18.39,7.07-13.66,9.64-17.5,10.86-18.61l-2.67-20.26-19.47-7.2-3.11,29.48a1,1,0,0,1-.25.56c-.05.06-5.23,5.89-9.54,10.91l.15,16.31a1,1,0,0,1,.4,1.12l-6.08,19,7.7,13.31a1,1,0,0,1-.08,1.13L158,254.76a1,1,0,0,1-.73.37h-.05a1,1,0,0,1-.62-.22,1,1,0,0,1-.16-1.4l6.36-7.93-7.58-13.1a1,1,0,0,1-.09-.81l6.09-19.07a1,1,0,0,1-.37-.75l-.13-14.13a51,51,0,0,0-3.71,4.63c-.26,1.15-1.61,9.91-2.47,15.65a1.16,1.16,0,0,1-.2.47l-6.85,8.76a1,1,0,0,1-.74.38h-.05a.94.94,0,0,1-.61-.21,1,1,0,0,1-.17-1.4l6.68-8.56c.36-2.36,2.19-14.52,2.49-15.66.09-.36.22-.84,5.85-7.4,3.87-4.51,8.55-9.8,9.59-11l3.13-29.67L161,149.06a1,1,0,0,1,.34-1.94m0-2h0a3,3,0,0,0-1,5.82l11.2,4.13-2.9,27.49c-1.51,1.7-5.67,6.41-9.19,10.52-5.93,6.91-6.06,7.39-6.27,8.2-.28,1.08-1.62,9.85-2.45,15.35l-6.36,8.14a3,3,0,0,0-.61,2.21,2.9,2.9,0,0,0,1.13,2,3,3,0,0,0,1.84.63h.16a3,3,0,0,0,2.21-1.15l6.84-8.76a3,3,0,0,0,.61-1.39c.86-5.76,1.83-12.06,2.26-14.54l.07,8.1a3.11,3.11,0,0,0,.19,1l-5.82,18.2a3,3,0,0,0,.26,2.4l6.9,11.93-5.5,6.86a3,3,0,0,0,.47,4.21,2.94,2.94,0,0,0,1.87.66h.16a3,3,0,0,0,2.18-1.12l6.79-8.46a3,3,0,0,0,.26-3.37l-7.27-12.55,5.82-18.2a3,3,0,0,0-.32-2.48l-.13-14.82c4-4.6,8.49-9.71,9-10.29a3.07,3.07,0,0,0,.76-1.7l2.84-26.93,15.93,5.9,2.39,18.13c-1.47,1.77-4.17,6-10.54,18.36-4.47,8.65-8.76,17.43-9.23,18.41a3,3,0,0,0-.25,2c1.73,8,3.59,17,4,19.6-1,1.94-3.41,6.78-7.14,14.42a2.94,2.94,0,0,0-.15,2.29,3,3,0,0,0,1.53,1.72,3,3,0,0,0,1.31.3h.16a3,3,0,0,0,2.54-1.68c3.16-6.48,6.66-13.55,7.28-14.69,1-1.21.92-2-3.44-22.22,5.89-12.1,11.52-23,15.14-29.3l.39,3a3,3,0,0,0,1,1.9l6.27,5.28c-.66,4.83-2.78,18.81-3.4,21.63-.61,1.32-1,4.05-2.59,15.09-1,7.07-2,14.19-2,14.27a3,3,0,0,0,.58,2.22,3,3,0,0,0,2,1.16l.41,0h.16a3,3,0,0,0,2.81-2.59c1.56-11.34,3.45-24.42,4-27.4a2.1,2.1,0,0,0,.15-.3c.18-.44.51-1.25,2.35-13.28.4-2.57.71-4.62,1-6.25l9.66,8.13,8.65,23.93-9.75,14a3,3,0,0,0,.74,4.18A3,3,0,0,0,221,256h.16a3,3,0,0,0,2.31-1.28l10.64-15.26a3,3,0,0,0,.36-2.74l-.76-2.11,13.69,3.32a2.82,2.82,0,0,0,.71.09h.15a3,3,0,0,0,2.76-2.29,2.94,2.94,0,0,0-.35-2.26,3,3,0,0,0-1.86-1.36l-17.55-4.26L225,210.52a2.94,2.94,0,0,0-.89-1.27L203,191.5l-1.24-9.44v0L200.6,173l23.77,4,11.29,15.93a3,3,0,0,0,2.45,1.27h.15a3.18,3.18,0,0,0,1-.21l12.05-4.77a3,3,0,0,0-1.1-5.79,2.87,2.87,0,0,0-1.12.22l-9.86,3.9-10.65-15a3,3,0,0,0-2-1.23l-26.8-4.45-.82-6.2a3,3,0,0,0-1.94-2.42l-.72-.27-34-12.55a3.21,3.21,0,0,0-1-.17Z"/><path class="cls-2" d="M42.54,1.76a1,1,0,0,1,1,.69l7,21.56,20.6,8.5a1,1,0,0,1,.61,1L70,54.52l15,6.39a1,1,0,0,1,.45.39c10.94,17.13,10,18.56,9.7,19.1-.62,1-4.23,12.62-6.36,19.67l-3.22,10.58,0,.06c1.41,2.47,2.56,4.48,2.7,4.7a30,30,0,0,0,3.63,4.75,1,1,0,0,1,.82.5,1,1,0,0,1-.37,1.37,1,1,0,0,1-.5.13c-1.19,0-3-1.91-5.29-5.71-.35-.57-6.8-11.87-7.07-12.35a.91.91,0,0,1-.07-.14L74.21,90.5,62.62,97.87a.94.94,0,0,1-.53.16,1,1,0,0,1-.6-.2l-13.38-10L30.32,96.4l-.14,0-28,8.48a1.55,1.55,0,0,1-.29,0,1,1,0,0,1-.29-2l27.91-8.45L47.79,85.8a.91.91,0,0,1,.43-.1,1,1,0,0,1,.6.2l13.31,9.91,11.15-7.09a1.8,1.8,0,0,1,.21-.08L73,87.33c-3.34-2.52-16.7-12.61-18.86-14.61-1.92.08-12,4-20.89,7.88a1,1,0,0,1-.4.09,1,1,0,0,1-.82-.43C28,74.42,23.33,68.07,22.19,67c-1.82.19-11.46,3.07-20,5.79a.79.79,0,0,1-.3,0A1,1,0,0,1,1,72.14a1,1,0,0,1,.64-1.26C17.89,65.67,21.53,65,22.51,65a.79.79,0,0,1,.36.06c.9.33,4.38,4.83,10.32,13.38,4.55-2,8.15-3.46,11-4.57L40,64.22A1,1,0,0,1,40,64L38,52.56c-2.73-2.33-7.52-6.37-11.93-10l-10.9,7.71a1,1,0,0,1-.57.19h-.13C10.9,50,2.52,48.86,1.34,48.08a1,1,0,0,1-.27-1.39,1,1,0,0,1,.83-.44,1,1,0,0,1,.53.15c.81.41,6.59,1.33,11.89,2l10.13-7.16a87.45,87.45,0,0,0-8-6.13A1,1,0,0,1,16,33.77a1,1,0,0,1,.88-.54,1,1,0,0,1,.46.11,94.73,94.73,0,0,1,8.81,6.71l.47-.33a1,1,0,0,1,.57-.18,1,1,0,0,1,.58,1.82h0c5.61,4.61,11.37,9.54,11.8,9.9a1,1,0,0,1,.33.59l2,11.67,4.15,9.63c5-1.88,7.24-2.38,8.3-2.38.72,0,.91.22,1.06.4.78.88,12.07,9.5,19,14.72a1,1,0,0,1,.33.44l6.47,16.83,3,5.17,2.7-8.85c.91-3,5.34-17.65,6.47-19.95-.19-1.63-4.85-9.74-9.42-16.91L68.51,56.08a1,1,0,0,1-.6-1l1.71-21L49.27,25.69a1,1,0,0,1-.57-.62l-1-3a99.17,99.17,0,0,0-10.28-2.76l-.37,0c-2.17,0-7.7,1.74-10.87,2.91a1,1,0,0,1-.35.06,1,1,0,0,1-.6-.2L9.73,10.29a1,1,0,0,1,.61-1.8,1,1,0,0,1,.6.2L26,20.15c2-.71,8.14-2.85,11.1-2.85a3.52,3.52,0,0,1,.58,0A84.81,84.81,0,0,1,47,19.75L41.58,3.07a1,1,0,0,1,.65-1.26.81.81,0,0,1,.31-.05m0-2a3.16,3.16,0,0,0-.92.14,3,3,0,0,0-1.94,3.78l4.23,13.09A51.18,51.18,0,0,0,38,15.35a7.3,7.3,0,0,0-.84,0c-2.83,0-7.89,1.61-10.75,2.6L12.15,7.1a3,3,0,0,0-1.81-.61A3,3,0,0,0,8,7.67a3,3,0,0,0,.57,4.21L24.05,23.66a3,3,0,0,0,1.81.61,3,3,0,0,0,1-.18c3.62-1.34,8.54-2.79,10.18-2.79h.11a85.5,85.5,0,0,1,9,2.38l.65,2a3,3,0,0,0,1.71,1.85l19,7.84-1.6,19.55a3,3,0,0,0,1.82,3l14.84,6.31c4.54,7.16,7.92,13.23,8.66,15.16C89.82,82.93,86.43,94,85,98.92l-1.35,4.4-.58-1L76.62,85.62a3,3,0,0,0-1-1.32C67.35,78.07,57.87,70.79,56.9,69.84a3.11,3.11,0,0,0-2.54-1.06c-1,0-2.67.23-7.21,1.85L43.84,63l-2-11.44a3.06,3.06,0,0,0-1-1.77c-.58-.49-5.52-4.71-10.67-9a3,3,0,0,0-.55-2,3,3,0,0,0-2.45-1.27,3.24,3.24,0,0,0-.82.11C20.63,33,19,32,18.26,31.57a3.07,3.07,0,0,0-1.39-.34,3,3,0,0,0-1.38,5.66,57,57,0,0,1,5.65,4.25L13.8,46.33A105.73,105.73,0,0,1,3.31,44.6,3,3,0,0,0,.23,49.74c.51.34,1.69,1.13,14,2.69a2.34,2.34,0,0,0,.38,0,2.93,2.93,0,0,0,1.73-.56L26,45.08c3.64,3,7.47,6.23,10.17,8.53L38,64.33a3.81,3.81,0,0,0,.2.68l3.36,7.76Q38.15,74.14,33.9,76c-8.46-12.09-9.5-12.47-10.35-12.78a2.81,2.81,0,0,0-1-.18c-.78,0-2.84,0-21.53,6a3,3,0,0,0,.92,5.86,3.14,3.14,0,0,0,.91-.14c8.12-2.6,15.8-4.87,18.64-5.53,1.5,1.82,5,6.53,8.92,12.23a3,3,0,0,0,2.47,1.3A3.06,3.06,0,0,0,34,82.44c9.23-4,17-6.94,19.51-7.59,3.21,2.69,12.69,9.88,17.08,13.2l-8.4,5.34L50,84.29a3,3,0,0,0-1.79-.59,2.92,2.92,0,0,0-1.3.3L28.8,92.69,1,101.1a3,3,0,0,0-1.78,1.45A3,3,0,0,0-1,104.84,3,3,0,0,0,1.9,107a3.22,3.22,0,0,0,.87-.13l28-8.47a2.56,2.56,0,0,0,.43-.17l16.69-8,12.41,9.24a3,3,0,0,0,3.41.13l9.52-6.06,4.3,11.18a3,3,0,0,0,.19.4c1.13,2,6.75,11.84,7.1,12.41,2.9,4.74,4.93,6.67,7,6.67a2.93,2.93,0,0,0,1.5-.4,3,3,0,0,0-.47-5.42,38.7,38.7,0,0,1-2.91-4c-.06-.1-.44-.75-2.23-3.88l3-9.82c2.83-9.39,5.64-18.16,6.17-19.25.92-1.46,1.8-3.1-9.74-21.19a3.08,3.08,0,0,0-1.35-1.15L72.07,53.25l1.6-19.58a3,3,0,0,0-1.85-3L52.08,22.52,45.39,1.83A3,3,0,0,0,42.54-.24Z"/><path class="cls-2" d="M104.84-1a1,1,0,0,1,.46.11c.9.46,1.68.86-5.76,23.76L99.61,27l12.83-9.18,9.43-16a1,1,0,0,1,1.72,1L114.06,19a1,1,0,0,1-.28.31L99.65,29.44l.13,7.6,9,2.54a1,1,0,0,1,.72.87l.81,8.92a1,1,0,0,1-.9,1.08h-.09a1,1,0,0,1-1-.91l-.75-8.24-9-2.55a1,1,0,0,1-.73-.95l-.25-15.07a1,1,0,0,1,0-.33c.85-2.63,1.81-5.68,2.73-8.65L85.85,16.55l-.19,0a1,1,0,0,1-.84-.46C83.89,14.67,75.68,2,75,.38a1,1,0,0,1,.56-1.31A1,1,0,0,1,76-1a1,1,0,0,1,.93.62C77.3.67,82.63,9,86.14,14.46l14.59-2.82H101c1.62-5.37,2.93-10.11,3-11.24a1,1,0,0,1,0-.85,1,1,0,0,1,.89-.55m0-2h0a3,3,0,0,0-2.67,1.64A2.94,2.94,0,0,0,101.9.57a94.51,94.51,0,0,1-2.5,9.29L87.08,12.24C82.7,5.45,79.1-.32,78.72-1.14A3,3,0,0,0,76-3a2.92,2.92,0,0,0-1.13.22,3,3,0,0,0-1.63,1.61,3,3,0,0,0,0,2.3c.68,1.67,7.2,11.8,10,16.07a3,3,0,0,0,2.51,1.37,3.55,3.55,0,0,0,.57-.05l11.19-2.16c-.58,1.85-1.18,3.71-1.74,5.44a2.89,2.89,0,0,0-.14,1l.25,15.08A3,3,0,0,0,98,40.68l7.68,2.18.62,6.87a3,3,0,0,0,3,2.73h.25a3,3,0,0,0,2.73-3.26l-.8-8.92a3,3,0,0,0-2.17-2.62l-7.53-2.13-.08-5.06L114.94,21a3.07,3.07,0,0,0,.84-.92l9.53-16.21a3,3,0,0,0-1.06-4.11A3,3,0,0,0,120.14.79l-9.21,15.66-9.38,6.72c3.36-10.37,5.25-16.79,6-20.19.51-2.47.77-4.6-1.29-5.65A3,3,0,0,0,104.84-3Z"/><path class="cls-2" d="M217.37,1.31a1,1,0,0,1,1,1c0,.92,1.2,17.47,1.64,19.23.9,1.37,5.57,9.56,7.06,12.18,2-1.84,3.8-3.46,4.8-4.22,1.78-1.33,5.93-13.36,7.92-19.13A53.76,53.76,0,0,1,242.16,4a1,1,0,1,1,1.68,1.08c-.26.43-1.22,3.24-2.16,6-3.47,10.05-6.51,18.51-8.61,20.08C230.56,33,222.33,41,220.28,43l3.92,10.5a1,1,0,0,1-.41,1.2l-7.53,4.66,5.22,6a1,1,0,0,1,.08,1.21l-12.2,18.11a1.14,1.14,0,0,1-.24.25C206.3,87,192.15,97.29,190,98s-12.33,5.38-12.43,5.42a.92.92,0,0,1-.42.1h0a1,1,0,0,1-.42-1.91c.43-.2,10.5-4.83,12.66-5.52,1.43-.45,12-8,18.44-12.69l11.67-17.33-17.71-20.4a1,1,0,0,1-.23-.78c1.11-8.58,2.77-21.5,2.89-22.81a1,1,0,0,1,0-.35,1,1,0,0,1,1-.71.65.65,0,0,1,.2,0c.58.12.8.17.74,1.27h0c0,.67-.16,1.73-.37,3.42-.27,2.16-.64,5-1,7.91-.62,4.8-1.24,9.6-1.43,11l11.37,13.1,7.1-4.4L218.18,43a1,1,0,0,1,.24-1.06c.24-.24,3.75-3.66,7.22-6.92a1,1,0,0,1-.3-.33c-2.49-4.38-6.6-11.54-7-12.1-.82-1-2-20.13-2-20.31a1,1,0,0,1,1-1m0-2a3,3,0,0,0-3,3c0,.21.3,5.16.68,10,.79,10.11,1.21,10.93,1.68,11.52s3.5,6,6.32,10.91c-3,2.84-5.7,5.47-6,5.8a3,3,0,0,0-.71,3.2l3.28,8.8-4.26,2.64-9.66-11.13c.26-2,.79-6.1,1.31-10.17.37-2.87.73-5.75,1-7.91.21-1.68.34-2.72.38-3.47a1.64,1.64,0,0,0,0-.22,2.78,2.78,0,0,0-2.33-3.22,3.26,3.26,0,0,0-.62-.06,3,3,0,0,0-2.88,2.14,2.63,2.63,0,0,0-.13.84c-.16,1.56-1.58,12.69-2.88,22.63a3,3,0,0,0,.71,2.36L217,66.21,206.33,82C198,88.09,190,93.64,188.72,94.18c-2.15.7-10.36,4.44-12.83,5.58a3,3,0,0,0-1.58,1.69,3,3,0,0,0,2.81,4,3,3,0,0,0,1.25-.28c1.67-.77,10.49-4.79,12.21-5.33,2.14-.69,11.91-7.66,19.72-13.39a3,3,0,0,0,.72-.74l12.2-18.11A3,3,0,0,0,223,64l-3.68-4.24,5.53-3.42a3,3,0,0,0,1.23-3.6l-3.46-9.28C227.25,39,232.5,34,234.27,32.7c2.36-1.77,4.78-7.92,9.3-21,.69-2,1.74-5,2-5.61A3,3,0,0,0,243,1.52a3,3,0,0,0-2.51,1.37c-.48.73-1,2.12-2.59,6.82-3.8,11-6.24,17.14-7.28,18.23-.68.51-1.68,1.37-3.06,2.61-1.92-3.38-4.66-8.15-5.66-9.77-.41-2.55-1.51-17.16-1.53-18.49a3,3,0,0,0-3-3Z"/><path class="cls-2" d="M197.11,1.31a1,1,0,0,1,.71.29,1,1,0,0,1,0,1.41,58.75,58.75,0,0,0-3,7.14c-3.23,8.25-5.67,14.18-7.69,15.43s-6.31,11.75-8.78,18.58l5.76,4.51a1,1,0,0,1,.18,1.39L171.76,66.6a1,1,0,0,1-.38.3l-16.09,7.6a1,1,0,0,1-.43.1h0a1,1,0,0,1-.43-1.9l15.88-7.5,11.74-15.56-5.55-4.35a1,1,0,0,1-.32-1.12c1.08-3,6.64-18.32,9.85-20.29,1.61-1,4.91-9.42,6.88-14.46s2.84-7.17,3.49-7.82a1,1,0,0,1,.71-.29m0-2A3,3,0,0,0,195,.19c-.92.91-1.57,2.43-3.94,8.5-1.32,3.36-4.8,12.25-6.14,13.53-3.45,2.24-8.13,14.27-10.62,21.28a3,3,0,0,0,1,3.37l4,3.13L169,63.6l-15.43,7.29a3,3,0,1,0,2.56,5.42l16.1-7.6a3.11,3.11,0,0,0,1.12-.91l12.47-16.54a3,3,0,0,0-.54-4.17l-4.61-3.6c3.21-8.68,6.4-15.3,7.48-16.23,2.46-1.55,4.58-6.43,8.47-16.38.87-2.21,2.29-5.85,2.75-6.6a3,3,0,0,0-.15-4.09,3,3,0,0,0-2.12-.88Z"/><path class="cls-2" d="M90.81,160a.94.94,0,0,1,.43.1,1,1,0,0,1,.47,1.34l-2.59,5.41a.94.94,0,0,1-.16.23c-2.25,2.56-5.79,6.64-6.3,7.41a25.92,25.92,0,0,1-2.12,2.35c-1.67,1.77-5.58,5.9-5.73,7-.24,1.83-5.17,15-7.53,16.93,1.35,3.31,10.16,17,12.69,19.09a1,1,0,0,1,.13,1.41,1,1,0,0,1-.77.36,1,1,0,0,1-.64-.23c-1.67-1.38-5.27-6.56-8.08-10.93-6-9.35-5.61-10.19-5.38-10.69a1.09,1.09,0,0,1,.88-.63c1.55-1.4,6.46-13.58,6.72-15.57.21-1.63,2.84-4.52,6.26-8.13.85-.9,1.73-1.82,1.9-2.09.72-1.08,5.48-6.5,6.38-7.52l2.54-5.29a1,1,0,0,1,.9-.57m0-2a3,3,0,0,0-2.71,1.71l-2.41,5c-1.79,2-5.56,6.35-6.34,7.49-.21.27-1.15,1.26-1.71,1.85-4.57,4.83-6.52,7.18-6.79,9.26-.26,1.8-4.41,11.9-5.9,14.09A3.08,3.08,0,0,0,63.42,199c-.7,1.49-.79,2.82,5.51,12.62,1.8,2.8,6.23,9.52,8.49,11.39a3,3,0,1,0,3.82-4.62c-1.95-1.62-9.34-12.87-11.6-17.24,2.88-4.09,6.68-14.64,7.12-16.79.27-.54,1.41-2,5.23-6.09a24.89,24.89,0,0,0,2.33-2.62c.35-.52,3.11-3.75,6.14-7.2a3,3,0,0,0,.46-.68l2.6-5.42a3,3,0,0,0-1.41-4,3.06,3.06,0,0,0-1.3-.3Z"/><path class="cls-2" d="M256,48.14v3.63c-1.4,2.14-2.76,4.24-3.93,6.1a1,1,0,0,1-.16.19l-10.16,9.65.2,0a1,1,0,0,1,.54.16l7.95,5.24c1-.48,3.17-1.54,5.56-2.67v2.21c-1.94.92-3.82,1.83-5.2,2.51a1,1,0,0,1-.44.1h-.15a1,1,0,0,1-.4-.15l-8.42-5.56a1,1,0,0,1-.41-1.08l-3.36,3.2,2,9.07a1,1,0,0,1-.58,1.14l-18.6,7.89-1.29,24.8,9.86-.47,4-18.09a1,1,0,0,1,.52-.67L255.92,84l.08,0v2.22L234.93,96.88l-4.1,18.37a1,1,0,0,1-.93.78l-16.67.79-10.72,7.84-6.24,6.68c3.27.33,6.11.56,7.83.56a5.81,5.81,0,0,0,1.51-.13,1,1,0,0,1,.76-.34,5.58,5.58,0,0,1,2.47,1l12.7,1.34,10.78-6c8.91-5.78,19.93-12.52,22.4-12.52l.24,0a1,1,0,0,1,.69,1.24,1,1,0,0,1-1,.73l-.18,0c-1.67.16-12,6.33-21.16,12.26l-11.12,6.21a1,1,0,0,1-.49.13h-.11l-9.24-1c1.58,1.15,3.54,2.65,6,4.61,4.48,3.57,8.89,7.3,10.19,8.41,6.12-1.41,15.42-3.39,19.59-3.39a4,4,0,0,1,1.89.3,33.16,33.16,0,0,1,4.92,4.55,1,1,0,0,1-.07,1.41,1,1,0,0,1-.67.25,1,1,0,0,1-.75-.33,31.69,31.69,0,0,0-4.5-4.19,2.44,2.44,0,0,0-.72-.07c-2.76,0-11.7,1.66-19.73,3.53a.82.82,0,0,1-.22,0h-.15a.92.92,0,0,1-.5-.23c-.05,0-3.87-3.3-8.29-6.88l3.73,16.27,14.19,10.83,11.36,1.72a1,1,0,0,1-.15,2h-.15l-11.61-1.77a1,1,0,0,1-.46-.19l-14.68-11.2a1,1,0,0,1-.36-.57l-4.38-19.09a97.71,97.71,0,0,0-8.87-6.51h0a6.75,6.75,0,0,0-1.48-.75,10.54,10.54,0,0,1-3.12.31c-5.93,0-17.73-1.63-25.44-2.81a1,1,0,0,1-.84-1.14,1,1,0,0,1,1-.85l.15,0c4.17.63,10.53,1.49,16.09,2.1a1,1,0,0,1,.22-.92l6.54-7,.14-.12,11-8.07a1,1,0,0,1,.54-.19l4.35-.21L218.52,89a1,1,0,0,1,.61-.87l18.4-7.8-2-8.81a1,1,0,0,1,.29-1l14.62-13.89c.64-1,2.92-4.59,5.55-8.55m-49.34,85.31a1,1,0,0,0,.3-.2,1,1,0,0,1-.3.2M256,46.14a2,2,0,0,0-1.67.89c-2.49,3.75-4.66,7.15-5.44,8.38L234.45,69.13a3,3,0,0,0-.86,2.83l1.62,7.19L218.35,86.3a3,3,0,0,0-1.83,2.61l-1.24,23.81-2.54.12a3,3,0,0,0-1.63.58l-11,8.06a4,4,0,0,0-.43.38l-6.53,7L193,129c-5.5-.63-11.11-1.41-14.44-1.92a3.42,3.42,0,0,0-.45,0,3,3,0,0,0-.45,6c8.48,1.29,19.83,2.83,25.74,2.83a15.61,15.61,0,0,0,3-.21l.61.36a91.53,91.53,0,0,1,8.13,5.95l4.22,18.39a3,3,0,0,0,1.1,1.72l14.68,11.2a3.1,3.1,0,0,0,1.37.58l11.61,1.77a3.4,3.4,0,0,0,.45,0,3,3,0,0,0,.45-6L238.13,168l-13.21-10.07-2.26-9.85c1.8,1.49,3.15,2.64,3.69,3.11l.05,0a2.88,2.88,0,0,0,1.48.68,3.55,3.55,0,0,0,.46,0,2.58,2.58,0,0,0,.68-.08c8.37-1.94,16.83-3.47,19.26-3.47A33.47,33.47,0,0,1,252,152a3,3,0,0,0,4.46-4,34.41,34.41,0,0,0-5.33-4.89,5.41,5.41,0,0,0-3-.62c-4.05,0-12.4,1.7-19.06,3.21-2-1.67-5.69-4.78-9.48-7.79l-.38-.31,2.16.23.32,0a3,3,0,0,0,1.46-.38l11.12-6.21.11-.07c10.09-6.54,18.43-11.34,20.23-11.92h0a3,3,0,0,0,.8-5.89,2.88,2.88,0,0,0-.78-.1c-1,0-3.69,0-23.43,12.8l-10.17,5.69-11.65-1.24a6.52,6.52,0,0,0-3.1-1,3,3,0,0,0-1.59.45l-.68,0c-.85,0-2.06-.06-3.58-.18l3.33-3.56,10.07-7.37L230,118a3,3,0,0,0,2.78-2.34l3.89-17.45L256.9,88a2,2,0,0,0,1.1-1.79V84a2,2,0,0,0-2-2,2.05,2.05,0,0,0-.49.06,1.66,1.66,0,0,0-.49.18L232.7,93.52a3,3,0,0,0-1.57,2l-3.7,16.6-6.13.29,1.11-21.35,17.45-7.4a3,3,0,0,0,1.76-3.42l-1.8-8,.88-.84,8,5.28a3.19,3.19,0,0,0,1.2.46,3.4,3.4,0,0,0,.45,0,3,3,0,0,0,1.32-.31c1.58-.77,3.46-1.68,5.18-2.49A2,2,0,0,0,258,72.63V70.42a2,2,0,0,0-2-2,2.1,2.1,0,0,0-.85.19c-1.76.83-3.4,1.62-4.56,2.18l-5.42-3.57,8.12-7.71a3.17,3.17,0,0,0,.47-.57c1.22-1.94,2.57-4,3.91-6.08a1.92,1.92,0,0,0,.33-1.09V48.14a2,2,0,0,0-1.42-1.92,1.93,1.93,0,0,0-.58-.08Z"/><path class="cls-2" d="M187.54,0h0m0,0a1,1,0,0,1-.2.62l-17.8,22.72a1,1,0,0,1-.79.38H155.83l-15.1,11.63c0,1.5.08,3.14.23,4.8.9,1.16,4.32,6,2.29,9.78s-10.76,18.55-11.14,19.19a1,1,0,0,1-.86.49,1.06,1.06,0,0,1-.51-.14,1,1,0,0,1-.35-1.37c.09-.15,9.15-15.49,11.1-19.12,1.35-2.52-1.18-6.49-2.27-7.8a1.11,1.11,0,0,1-.22-.55c-.1-1.07-.22-2.58-.27-4.22a1,1,0,0,1-.58-.34,1,1,0,0,1,.18-1.4l.38-.29c0-3.28.46-6.55,1.9-7.49,1.77-1.38,9.56-22.56,10-24.72a1,1,0,0,1,1-.84h.14a1,1,0,0,1,.85,1.09c0,.2-8,24.23-10.85,26.13-.48.31-.8,1.94-.92,4.22l14.09-10.85a1,1,0,0,1,.61-.21h12.77L185.28,0h2.26m0-2h-2.26a2,2,0,0,0-1.57.77l-16.42,21h-11.8a3,3,0,0,0-1.83.62l-8.28,6.38a108.53,108.53,0,0,0,4.7-11.16c1.81-4.83,4.4-12.31,4.47-12.91A3,3,0,0,0,152-.63a2.18,2.18,0,0,0-.44,0,3,3,0,0,0-3,2.47c-.44,2.32-7.58,21.32-9.31,23.56-1.6,1.22-2.42,3.8-2.57,8.08a2.91,2.91,0,0,0-.76,1.63,3,3,0,0,0,.6,2.22l.2.24c.06,1.32.16,2.49.24,3.29a3,3,0,0,0,.67,1.64c1.28,1.54,2.67,4.4,2,5.58-1.92,3.58-11,18.89-11.05,19a3,3,0,1,0,5.17,3l0-.06c1.54-2.6,9.29-15.76,11.14-19.19,2.35-4.38-.64-9.42-2.1-11.46-.08-1-.14-2.08-.16-3.1l13.76-10.6h12.24a3,3,0,0,0,2.36-1.15l17.8-22.72a2.91,2.91,0,0,0,.62-1.69.86.86,0,0,0,0-.16,2,2,0,0,0-2-2Zm0,4Z"/><path class="cls-2" d="M21.41,120.87a1,1,0,0,1,.91.58l.4.84c5.93,12.61,9.18,20.7,9.63,24,.54,3.92,10.15,12.23,14.41,15.57l14.89-7.15a1,1,0,0,1,1.28.37c2.5,4,5.37,8.33,6.62,9.88C75,158.74,88,149.27,88.36,149a1,1,0,0,1,1.4.26,1,1,0,0,1-.2,1.35c-.54.5-13.63,10.08-19.15,16.45h0c-4.75,5.47-10.29,11.87-14.79,17.09-.36,3.91-.8,8.86-1.15,13.3h.8a1,1,0,0,1,.87.51l11,19.46a1,1,0,0,1,.09.75c-.28,1.07-6.91,26-7.29,27.39a1,1,0,0,1-1,.74,1.26,1.26,0,0,1-.27,0A1,1,0,0,1,58,245c.2-.7,2.13-8,4-14.85l-12.09,7.6c-3.88,6.44-9.67,16.15-10.07,17a1,1,0,0,1-1.32.51A1,1,0,0,1,38,254c.57-1.29,9.3-15.79,10.3-17.44a.92.92,0,0,1,.32-.33l13.9-8.75a.8.8,0,0,1,.2-.07c1.16-4.37,2.17-8.15,2.48-9.35l-10.51-18.6h-.36c-.35,4.67-.57,8.42-.46,9.21.27.74-.47,3.31-21.29,35.08a.89.89,0,0,1-.33.31l-18.78,11.2a1,1,0,0,1-.51.15,1,1,0,0,1-.86-.49,1,1,0,0,1,.35-1.37L31,242.46c2.15-3.27,4.63-7.1,7.13-11l-7-.37a1,1,0,0,1-.78-.44l-5.68-8.42L17.83,229C3.5,241.68.81,242.76,0,242.76a1,1,0,0,1-.22,0A1,1,0,0,1-1,241.54a1,1,0,0,1,1-.79c1.48-.47,9.47-7,16.45-13.17L24.14,220a1,1,0,0,1,.71-.29h.09a1,1,0,0,1,.73.44l6.08,9,7.2.38a1,1,0,0,1,.39.11c2.8-4.36,5.53-8.67,7.74-12.24L40,214.16a1.12,1.12,0,0,1-.42-.36l-11-16.55-5-2.2c-.5,3.08-1,6.55-1,7.21S22.45,204,9.87,214a1.06,1.06,0,0,1-.63.21,1,1,0,0,1-.78-.37,1,1,0,0,1,.16-1.41c5.33-4.25,11.12-9.22,11.84-10.38.06-1.23.71-5.3,1.13-7.86L8.84,188.65a1,1,0,0,1-.51-1.31,1,1,0,0,1,.91-.6.92.92,0,0,1,.4.08l12.28,5.37v-.05a1,1,0,0,1,1-.84l.16,0a1,1,0,0,1,.82,1.15l-.09.54,5.78,2.52a1.07,1.07,0,0,1,.43.36l11.06,16.56,7.05,3.22A62.7,62.7,0,0,0,51.92,209c-.09-.78-.11-3,.4-9.78a1,1,0,0,1-.4-.78,1,1,0,0,1,.52-.86c.27-3.5.66-8,1.22-13.95a1,1,0,0,1,.24-.56c.9-1.05,1.87-2.18,2.88-3.34l-6.38,1.71L36,186.29a.93.93,0,0,1-.32.05l-.22,0a1,1,0,0,1-.56-.35c-.32-.4-7.93-9.88-9.52-12.52a1,1,0,0,1,.34-1.37,1,1,0,0,1,1.37.34c1.32,2.18,7.27,9.66,8.93,11.75l13.84-4.63,8.9-2.38a.69.69,0,0,1,.2,0H59c3-3.48,6.21-7.19,9.2-10.63-1-1.14-2.84-3.71-6.53-9.57l-14.65,7a.91.91,0,0,1-.43.1,1,1,0,0,1-.61-.21,104.64,104.64,0,0,1-9.47-8.29l-8.87,5-.12.06-2.7,1.08s0,.05-.06.07a1,1,0,0,1-.59.2h0l-10.89,4.39a1,1,0,0,1-.37.07,1,1,0,0,1-.38-1.93l10-4-5.9-8c-4.42-2.56-11.52-6.61-12.32-6.89a1,1,0,0,1-.61-1.28,1,1,0,0,1,.94-.67.87.87,0,0,1,.31.05c1.14.38,10.92,6,12.86,7.17a1,1,0,0,1,.31.27l6.33,8.61,2.24-.9,8.38-4.76c-2.48-2.68-4.47-5.41-4.76-7.48s-2.17-8-9.46-23.45l-.41-.86A1,1,0,0,1,21,121a1,1,0,0,1,.41-.09m0-2h0a2.89,2.89,0,0,0-1.25.28,3,3,0,0,0-1.47,4l.41.88c7.56,16.05,9.07,21.22,9.29,22.87.25,1.85,1.44,4,3.61,6.68L25.88,157l-.68.27-5.41-7.36a3.07,3.07,0,0,0-.91-.81c-7.86-4.56-12.31-7-13.24-7.34a3,3,0,0,0-1.94,5.68c.68.28,5.86,3.2,11.62,6.53l4.14,5.62-7.63,3.08a3,3,0,0,0,2.23,5.57L24.69,164a3,3,0,0,0,1.22-.49l2.4-1a2.53,2.53,0,0,0,.37-.18l7.55-4.29a109.48,109.48,0,0,0,8.57,7.4,3,3,0,0,0,1.83.62,3,3,0,0,0,1.3-.29l13-6.27c2,3.17,3.54,5.44,4.66,7L58,175.28l-8.68,2.33-.12,0-12.5,4.18c-3.38-4.25-7-8.94-7.91-10.44a3,3,0,0,0-2.57-1.45,3,3,0,0,0-2.57,4.54c1.71,2.85,9.59,12.64,9.67,12.74A3,3,0,0,0,35,188.27a2.81,2.81,0,0,0,.65.07,3.09,3.09,0,0,0,1-.15L51,183.37l.73-.19a2.7,2.7,0,0,0,0,.28c-.48,5.13-.87,9.58-1.16,13.24a2.91,2.91,0,0,0-.59,1.76,2.86,2.86,0,0,0,.35,1.38,86.88,86.88,0,0,0-.38,8.85c-.24.49-.88,1.67-2.54,4.43l-4.93-2.25L31.68,194.78a3,3,0,0,0-1.3-1.08l-4.52-2a3.06,3.06,0,0,0-.5-1.16,3,3,0,0,0-1.94-1.22,4.57,4.57,0,0,0-.5,0,2.94,2.94,0,0,0-1.58.45L10.44,185a2.87,2.87,0,0,0-1.2-.25A3,3,0,0,0,8,190.49l11.32,4.94c-.44,2.79-.73,4.76-.85,5.88A141.92,141.92,0,0,1,7.37,210.9a3,3,0,0,0,3.74,4.69C24.45,205,24.45,203.65,24.45,202.26c0-.25.15-1.45.6-4.35l2.13.94,10.73,16.06A2.92,2.92,0,0,0,39.16,216l5,2.29c-1.67,2.68-3.66,5.81-5.84,9.23l-5.49-.29L27.33,219a3,3,0,0,0-2.19-1.31h-.29a3,3,0,0,0-2.12.87l-7.63,7.55C7.45,232.86,1,238-.5,238.8a3,3,0,0,0-2.43,2.31,3,3,0,0,0,.4,2.26,3,3,0,0,0,1.89,1.32,3.48,3.48,0,0,0,.65.07c1.2,0,3,0,19.15-14.22l.08-.08,5.14-5.08,4.34,6.41A3,3,0,0,0,31,233.11l3.56.19c-1.69,2.61-3.39,5.22-5,7.68L11.41,251.83a3,3,0,0,0-1,4.11A3,3,0,0,0,13,257.41a3,3,0,0,0,1.53-.43l18.79-11.2a3.07,3.07,0,0,0,1-.93c21.25-32.43,22.09-35,21.59-36.6,0-.26,0-.92.08-2.55l7.14,12.64-2,7.73-13.45,8.46a3,3,0,0,0-1,1c-1.62,2.7-9.78,16.25-10.41,17.65a3,3,0,0,0,1.51,4,2.9,2.9,0,0,0,1.23.27,3,3,0,0,0,2.74-1.78c.35-.74,4.59-7.91,9.71-16.4l7.38-4.64c-1.59,6-2.52,9.47-2.64,9.92a3,3,0,1,0,5.78,1.59c.29-1,4-15,7.09-26.62l.21-.78a3,3,0,0,0-.29-2.25L57.88,197a3,3,0,0,0-1.27-1.2c.28-3.41.61-7.23.94-10.8,5-5.77,10.19-11.79,14.37-16.6,4.43-5.11,14-12.41,17.55-15.16,1-.73,1.24-.95,1.39-1.09a3,3,0,0,0-1.93-5.29,3,3,0,0,0-1.7.53c-.12.08-11.19,8.08-17.5,14.5-1.34-1.94-3.24-4.83-5.1-7.81a3,3,0,0,0-3.83-1.12L47,159.56c-6.9-5.57-12.39-11.39-12.68-13.5-.5-3.6-3.7-11.65-9.81-24.62l-.4-.84a3,3,0,0,0-2.72-1.73Z"/><path class="cls-3" d="M152.68,255.13c-5.66-28.23-8.11-58.89-4.61-87.46a20.91,20.91,0,0,1,.88-4.44,19.93,19.93,0,0,1,2.63-4.67,117.26,117.26,0,0,1,42.42-37c3.3-1.69,6.8-3.31,9.17-6.16s3.22-7.38.81-10.2a136.74,136.74,0,0,1-33,9.25,2.27,2.27,0,0,1-2.36-3.26c7.19-14.18,22.81-24.11,26.19-39.75.55-2.55.7-5.39-.66-7.62s-4.68-3.38-6.69-1.71l-8.58,9.83a209,209,0,0,1-15.44,16.46,103.63,103.63,0,0,1-11.92,9.47,2.21,2.21,0,0,1-3.45-1.81c-.1-8.51,3.16-17,7.87-24.14,2.6-4,5.69-7.71,7.12-12.22s.7-10.16-3.19-12.86c-15,8.67-17.17,31.71-31.26,40.66A2.36,2.36,0,0,1,125,85.67a70.35,70.35,0,0,1,3.31-27.52c1.2-3.65,2.73-7.3,2.75-11.15s-1.94-8-5.6-9.2A47.79,47.79,0,0,0,114.39,51c-4.7,8.28-6.81,17.74-8.62,27.09q-2.16,11.07-3.85,22.23c-1.29,8.52-3.61,18.65-11.72,21.56a23.61,23.61,0,0,1-7.69.94,39.24,39.24,0,0,1-8.87-.56c-2.11-.47-4.1-1-6.24-1.27,0,0-.43-16.37-13.63-8-3,1.9-.55,10.48.31,15.48.52,3,3.25,8.66,5.46,8.37,6.9-.88,11.9,1.83,17.8,5.46a27,27,0,0,1,10.43,12.33c4,9.11,3.87,19,3.28,28.67-1.74,28.6-.38,49.16-17.93,71.82Z"/><path class="cls-4" d="M147.5,163.25c-.39-3-3.19-5.07-5.88-6.47-11.71-6.13-25.43-6.75-38.65-7.24a13.2,13.2,0,0,0-5.09.48,13,13,0,0,0-3.63,2.35c-2.29-8.17,1.4-16.66,2.72-25,.53-3.34.69-6.75,1.53-10s2.49-6.51,5.32-8.37a14.5,14.5,0,0,1,7.33-2c4.91-.25,9.78.73,14.57,1.8a103.58,103.58,0,0,1,18.53,5.58,42.29,42.29,0,0,1,15.65,11.12,8.83,8.83,0,0,1,1.83,3c1.06,3.53-1.82,6.85-3.77,10-4.22,6.77-4.48,15.25-7.49,22.64-.11.26-.32.58-.6.52s0-.62.13-.35"/><path class="cls-4" d="M146.4,174.46a30.76,30.76,0,0,0-7.08-5.12c-4.34-2.55-8.75-5.13-13.59-6.52a52.84,52.84,0,0,0-9.86-1.62c-3.74-.35-8-.46-10.76,2-3.19,2.85-3.16,7.75-3,12,.8,26.84-4.09,53.49-9,79.9"/><path class="cls-4" d="M147.09,191.71c-1.78-3-5-4.72-8.2-6a49.62,49.62,0,0,0-29.62-2.28l.3,25.19c4.53-1.06,9.29-.22,13.78,1a82,82,0,0,1,22.75,10.17,101.31,101.31,0,0,0-.07-31.19"/><path class="cls-4" d="M147.71,238.81c-4.44-4.61-11-6.45-17.15-8.1-7.38-2-15.64-3.85-22.32-.14a218.26,218.26,0,0,1-4.33,24.49"/><path class="cls-4" d="M102,200.18c-2.07.72-4.25,1-6.36,1.61A11.24,11.24,0,0,0,90,204.93a3,3,0,0,0-.78,1.48,1.43,1.43,0,0,0,.62,1.47"/><path class="cls-4" d="M98.79,215.32a9.62,9.62,0,0,0-10.3,5.18c0,.1-.13.22-.24.19s0-.23.06-.12"/><path class="cls-4" d="M121.38,182.38a54.12,54.12,0,0,0,.77,26.34"/><path class="cls-4" d="M126.76,182.55c-.57,5.84-1.14,11.72-.67,17.57a69.71,69.71,0,0,0,1.8,10.62l-.17-1"/><path class="cls-4" d="M132,184.87c1.77,8.95-2.71,18.55.26,27.18l0-1"/><path class="cls-4" d="M141.15,188.63q.09,13.22-1,26.4a1.24,1.24,0,0,0-.9-.18,1.83,1.83,0,0,1-.44,1"/><path class="cls-4" d="M114.86,231.16c.12,8.07-2.46,16-2.76,24l.42-3.08"/><path class="cls-4" d="M121.63,230.12l.29,26.33a1.4,1.4,0,0,1-.26-1.18"/><path class="cls-4" d="M114.31,184.23V184c0,4.3,0,8.62-.08,12.92a42.26,42.26,0,0,0,.72,10.24v-.75"/><path class="cls-4" d="M113.3,151.56a12.23,12.23,0,0,0,1.83,8.18"/><path class="cls-4" d="M120.62,161.19a44.85,44.85,0,0,0-1.74-11.46,2.44,2.44,0,0,0,.89,1"/><path class="cls-4" d="M134.77,167.45c-.37-2.46-.63-4.95-.79-7.44-.12-2-.11-4.16,1.14-5.7"/><path class="cls-4" d="M128.8,163.07c-.14-3.49-.24-7.2,1.49-10.24l.36.61"/><path class="cls-4" d="M142.05,171.94l-.44-5.5c-.21-2.59-.31-5.51,1.46-7.42a1.73,1.73,0,0,0,.16,1.12"/><path class="cls-4" d="M132.4,230.52A142.61,142.61,0,0,1,134,255.88"/><path class="cls-4" d="M143.74,236.21l2.31,18.2"/><path class="cls-4" d="M122.73,79.42a17.75,17.75,0,0,0-2-3.93A8.33,8.33,0,0,0,117,72.17c-2.79-1-5.93.42-8.13,2.42A9.72,9.72,0,0,0,106.27,78a13.81,13.81,0,0,0-.75,4.39,1,1,0,0,1-.68-.83,4,4,0,0,1,1.3-.41"/><path class="cls-4" d="M138.49,77a5.19,5.19,0,0,1,3.9-3.2,12.39,12.39,0,0,1,5.24.24A4.87,4.87,0,0,1,150,75a4.54,4.54,0,0,1,1.13,2.36,19.07,19.07,0,0,1,.47,4.52c0,.86-.21,1.91-1,2.18a.74.74,0,0,1,.85-.37"/><path class="cls-4" d="M166.93,84.94c-.34-.67.35-1.39,1-1.8a24.31,24.31,0,0,1,7.53-3.23,4.86,4.86,0,0,1,2.33-.13,3.7,3.7,0,0,1,1.66,1c2.34,2.31,2.43,6,2.37,9.28a5.36,5.36,0,0,1-.19,1.6c-.23.69-.7,1.5-.23,2"/><path class="cls-4" d="M183.44,113a5.84,5.84,0,0,1,6,7.55,5.78,5.78,0,0,1-1,1.86,12.8,12.8,0,0,1-2.63,2.4c-.15.05-.3-.15-.23-.29"/><path class="cls-4" d="M162.28,128.48c4.31-3.45,9.86-4.88,14.64-7.63,3.39-1.94,6.47-4.58,10.23-5.58a2.92,2.92,0,0,0-1.19.25"/><path class="cls-4" d="M175.21,133.32a14.58,14.58,0,0,1,.87-3.08,20.9,20.9,0,0,0-1.33-16.18,1.55,1.55,0,0,0-.79-.84c-.37-.11-.87.22-.75.59"/><path class="cls-4" d="M152.67,117.41c.21-.13.35.36.1.42s-.44-.25-.38-.5a1.23,1.23,0,0,1,.46-.58c2.35-2,3.48-5.09,5.3-7.6,3.25-4.48,8.54-7,12.32-11.05a42.76,42.76,0,0,0,5.28-7.55l4.63-7.76"/><path class="cls-4" d="M148,115.93c1.35-4.86,4.51-9,7.59-13l6.49-8.37c3.78-4.88,7.65-9.85,12.74-13.35"/><path class="cls-4" d="M72,122.93a8.41,8.41,0,0,0-3.51,15.62c.28.16.7.28.87,0"/><path class="cls-4" d="M124.92,74.42c-.74-2.75-.16-5.66-.11-8.5s-.67-6.05-3.1-7.54-5.41-.73-7.94.36a8.85,8.85,0,0,0-2.38,1.39c-2.12,1.85-2.38,5-2.48,7.82"/><path class="cls-4" d="M114,71.54l-3.87,14.2a39.13,39.13,0,0,0-1.68,8.66,39.51,39.51,0,0,0,.65,7.59l.85,5.61"/></g></svg>