<svg xmlns="http://www.w3.org/2000/svg" viewBox="0 0 256 256"><defs><style>.cls-1,.cls-2,.cls-3,.cls-5{fill:#fff;}.cls-2,.cls-3{stroke:#000;}.cls-2{stroke-linecap:round;stroke-linejoin:round;}.cls-2,.cls-3,.cls-4{stroke-width:2px;}.cls-3,.cls-4{stroke-miterlimit:10;}.cls-4{stroke:#fff;}.cls-5{font-size:16.76px;font-family:URWDIN-Regular, URW DIN;}.cls-6{letter-spacing:0.01em;}</style></defs><g id="Tech"><path d="M99.77,108.45A12.4,12.4,0,0,1,93,106.63l-9.61-5.14a1,1,0,0,1-.52-.88v-3a1,1,0,0,1,.49-.86,1,1,0,0,1,.51-.14,1,1,0,0,1,.48.13l7.26,4c0-.12,0-.24,0-.36a6.4,6.4,0,0,1,2.59-5.34,9.7,9.7,0,0,1,5.6-1.31c3,0,4.91.55,6.24,1.81a7.59,7.59,0,0,1,2,5.54,7.25,7.25,0,0,1-2.47,5.89C104.36,108,102.56,108.45,99.77,108.45Zm0-10c-3.58,0-4.07,1.26-4.07,2.63s.31,2.75,4,2.75,4.07-1.39,4.07-2.69S103.5,98.4,99.77,98.4Z"/><path class="cls-1" d="M99.77,94.74c2.7,0,4.43.48,5.55,1.54a6.55,6.55,0,0,1,1.74,4.81A6.3,6.3,0,0,1,105,106.2c-1.06.86-2.7,1.25-5.2,1.25a11.45,11.45,0,0,1-6.32-1.7l-9.6-5.14v-3l9.31,5.14a4.11,4.11,0,0,1-.58-2.37,5.42,5.42,0,0,1,2.18-4.53,8.81,8.81,0,0,1,5-1.12m0,10c3.5,0,5.07-1.15,5.07-3.69s-1.57-3.69-5-3.69S94.7,98.56,94.7,101s1.54,3.75,5,3.75m0-12a10.58,10.58,0,0,0-6.15,1.48,7.25,7.25,0,0,0-3,4.89l-5.86-3.24a2,2,0,0,0-2,0,2,2,0,0,0-1,1.72v3a2,2,0,0,0,1.05,1.76l9.6,5.14a13.41,13.41,0,0,0,7.27,1.94c3,0,5-.53,6.47-1.71a8.19,8.19,0,0,0,2.82-6.65,8.58,8.58,0,0,0-2.34-6.25c-1.53-1.44-3.73-2.1-7-2.1Zm0,10c-3,0-3-.85-3-1.75,0-.73,0-1.63,3.07-1.63s3,.86,3,1.69,0,1.69-3.07,1.69Z"/><path d="M102.15,91.53a1,1,0,0,1-1-.87l-.32-2.54a1,1,0,0,1,.81-1.11,2.52,2.52,0,0,0,2.17-2.83c0-.76,0-3.08-3.88-3.08S95.7,82.59,95.7,84a4.07,4.07,0,0,0,1.17,3,1,1,0,0,1,.25.89l-.42,1.93a1,1,0,0,1-1,.79h-.1L83.75,89.44a1,1,0,0,1-.9-1V78.11a1,1,0,0,1,1-1h2.24a1,1,0,0,1,1,1v7.22l4.73.5a8,8,0,0,1-.31-2.26,7,7,0,0,1,2.64-5.73c1.29-1,3.08-1.41,5.62-1.41,2.71,0,4.58.56,5.88,1.74a7.84,7.84,0,0,1,2.41,6.07c0,4.21-2.06,6.8-5.79,7.29Z"/><path class="cls-1" d="M99.77,77.43c2.41,0,4.08.45,5.2,1.48a6.84,6.84,0,0,1,2.09,5.33c0,3.73-1.7,5.88-4.91,6.29L101.82,88a3.52,3.52,0,0,0,3-3.82c0-2.64-1.7-4.08-4.88-4.08-3.6,0-5.23,1.22-5.23,3.88a5.07,5.07,0,0,0,1.44,3.63l-.41,1.93L83.85,88.45V78.11h2.24v8.12l7.29.77a6.89,6.89,0,0,1-.87-3.43,6,6,0,0,1,2.22-4.91,8.23,8.23,0,0,1,5-1.23m0-2c-2.77,0-4.75.52-6.23,1.62a8,8,0,0,0-3,6.52,10.2,10.2,0,0,0,.07,1.12l-2.49-.26V78.11a2,2,0,0,0-2-2H83.85a2,2,0,0,0-2,2V88.45a2,2,0,0,0,1.81,2l11.88,1.09h.19a2,2,0,0,0,2-1.58L98.1,88a2,2,0,0,0-.5-1.8A3.09,3.09,0,0,1,96.7,84c0-.92,0-1.88,3.23-1.88,2.88,0,2.88,1.35,2.88,2.08,0,1.41-.65,1.72-1.35,1.85a2,2,0,0,0-1.62,2.22l.32,2.54a2,2,0,0,0,2,1.74h.25c4.23-.55,6.66-3.57,6.66-8.28a8.81,8.81,0,0,0-2.76-6.83c-1.5-1.35-3.57-2-6.53-2Z"/><path d="M102.15,74.2a1,1,0,0,1-1-.87l-.32-2.54a1,1,0,0,1,.81-1.11,2.53,2.53,0,0,0,2.17-2.84c0-.76,0-3.07-3.88-3.07s-4.23,1.49-4.23,2.88a4.09,4.09,0,0,0,1.17,2.95,1,1,0,0,1,.25.89l-.42,1.93a1,1,0,0,1-1,.79h-.1L83.75,72.11a1,1,0,0,1-.9-1V60.78a1,1,0,0,1,1-1h2.24a1,1,0,0,1,1,1V68l4.73.5a8,8,0,0,1-.31-2.26,7,7,0,0,1,2.64-5.73c1.29-1,3.08-1.41,5.62-1.41,2.71,0,4.58.56,5.88,1.74a7.84,7.84,0,0,1,2.41,6.07c0,4.21-2.06,6.8-5.79,7.28Z"/><path class="cls-1" d="M99.77,60.1c2.41,0,4.08.45,5.2,1.48a6.84,6.84,0,0,1,2.09,5.33c0,3.72-1.7,5.87-4.91,6.29l-.33-2.53a3.53,3.53,0,0,0,3-3.83c0-2.63-1.7-4.07-4.88-4.07-3.6,0-5.23,1.22-5.23,3.88a5.09,5.09,0,0,0,1.44,3.63l-.41,1.93L83.85,71.12V60.78h2.24V68.9l7.29.77a6.89,6.89,0,0,1-.87-3.43,6,6,0,0,1,2.22-4.92,8.3,8.3,0,0,1,5-1.22m0-2c-2.77,0-4.75.52-6.23,1.62a8,8,0,0,0-3,6.52,10.36,10.36,0,0,0,.07,1.12l-2.49-.26V60.78a2,2,0,0,0-2-2H83.85a2,2,0,0,0-2,2V71.12a2,2,0,0,0,1.81,2L95.54,74.2h.19a2,2,0,0,0,2-1.58l.42-1.93a2,2,0,0,0-.5-1.79,3.09,3.09,0,0,1-.9-2.26c0-.92,0-1.88,3.23-1.88,2.88,0,2.88,1.35,2.88,2.07,0,1.42-.65,1.73-1.35,1.86a2,2,0,0,0-1.62,2.22l.32,2.53a2,2,0,0,0,2,1.75h.25c4.23-.56,6.66-3.57,6.66-8.28a8.81,8.81,0,0,0-2.76-6.83c-1.5-1.35-3.57-2-6.53-2Z"/><path d="M102.15,57.35a1,1,0,0,1-1-.87l-.32-2.54a1,1,0,0,1,.8-1.11c.94-.18,2.18-.69,2.18-3,0-2.65-1.83-3.2-3.37-3.2a3.45,3.45,0,0,0-3.68,3.62v2.09a1,1,0,0,1-1,1H93.61a1,1,0,0,1-1-1V50.41a2.87,2.87,0,0,0-2.92-3.2c-1.32,0-2.89.44-2.89,2.56a2.4,2.4,0,0,0,2,2.59,1,1,0,0,1,.78,1.07L89.3,55.8a1,1,0,0,1-.37.69,1,1,0,0,1-.62.22h-.13c-3.63-.49-5.62-3-5.62-7.06,0-4.51,2.57-7.1,7.07-7.1a5.84,5.84,0,0,1,5,2.08c1.32-1.82,3.2-2.66,5.9-2.66,4.8,0,7.55,2.85,7.55,7.81,0,4.47-2.06,7.16-5.8,7.58Z"/><path class="cls-1" d="M100.51,43c4.27,0,6.55,2.38,6.55,6.81,0,3.95-1.74,6.23-4.91,6.58l-.33-2.53c2-.39,3-1.74,3-4,0-2.66-1.6-4.2-4.37-4.2a4.44,4.44,0,0,0-4.68,4.62v2.09H93.61V50.41a3.86,3.86,0,0,0-3.92-4.2c-2.44,0-3.89,1.31-3.89,3.56a3.38,3.38,0,0,0,2.73,3.56l-.22,2.38c-3.12-.42-4.75-2.5-4.75-6.07,0-4,2.15-6.1,6.07-6.1a4.94,4.94,0,0,1,5,3C95.82,44,97.56,43,100.51,43m0-2a7.91,7.91,0,0,0-6,2.17,7.15,7.15,0,0,0-4.93-1.59c-5.06,0-8.07,3-8.07,8.1,0,4.57,2.36,7.5,6.48,8l.27,0a2,2,0,0,0,2-1.81l.22-2.38A2,2,0,0,0,89,51.38c-.54-.12-1.17-.41-1.17-1.61,0-.55,0-1.56,1.89-1.56a1.93,1.93,0,0,1,1.92,2.2v1.93a2,2,0,0,0,2,2h2.15a2,2,0,0,0,2-2V50.25a2.46,2.46,0,0,1,2.68-2.62c2.09,0,2.37,1.11,2.37,2.2,0,1.62-.65,1.88-1.37,2a2,2,0,0,0-1.6,2.22l.32,2.53a2,2,0,0,0,2,1.75h.23c4.25-.47,6.69-3.6,6.69-8.57,0-5.51-3.2-8.81-8.55-8.81Z"/><path d="M99.77,39.12A12.4,12.4,0,0,1,93,37.3l-9.61-5.14a1,1,0,0,1-.52-.88v-3a1,1,0,0,1,1-1,1,1,0,0,1,.48.12l7.26,4c0-.12,0-.24,0-.36a6.4,6.4,0,0,1,2.59-5.34,9.7,9.7,0,0,1,5.6-1.31c3,0,4.91.56,6.24,1.81a7.61,7.61,0,0,1,2,5.54,7.25,7.25,0,0,1-2.47,5.89C104.36,38.66,102.56,39.12,99.77,39.12Zm0-10c-3.58,0-4.07,1.26-4.07,2.63s.31,2.76,4,2.76,4.07-1.39,4.07-2.7S103.5,29.07,99.77,29.07Z"/><path class="cls-1" d="M99.77,25.41c2.7,0,4.43.48,5.55,1.54a6.55,6.55,0,0,1,1.74,4.81A6.3,6.3,0,0,1,105,36.87c-1.06.87-2.7,1.25-5.2,1.25a11.37,11.37,0,0,1-6.32-1.7l-9.6-5.14v-3l9.31,5.13a4.11,4.11,0,0,1-.58-2.37,5.42,5.42,0,0,1,2.18-4.53,8.81,8.81,0,0,1,5-1.12m0,10.05c3.5,0,5.07-1.16,5.07-3.7s-1.57-3.69-5-3.69S94.7,29.23,94.7,31.7s1.54,3.76,5,3.76m0-12a10.58,10.58,0,0,0-6.15,1.48,7.27,7.27,0,0,0-3,4.89l-5.86-3.24a2.05,2.05,0,0,0-2,0,2,2,0,0,0-1,1.73v3a2,2,0,0,0,1.05,1.77l9.6,5.13a13.41,13.41,0,0,0,7.27,1.94c3,0,5-.53,6.47-1.7a8.21,8.21,0,0,0,2.82-6.66,8.58,8.58,0,0,0-2.34-6.25c-1.53-1.44-3.73-2.1-7-2.1Zm0,10.05c-3,0-3-.86-3-1.76,0-.73,0-1.63,3.07-1.63s3,.86,3,1.69,0,1.7-3.07,1.7Z"/><line class="cls-2" x1="165.11" y1="103.05" x2="169.36" y2="103.05"/><line class="cls-2" x1="121.37" y1="103.39" x2="125.61" y2="103.39"/><path class="cls-2" d="M160.2,108.68H130.52c-2.71,0-4.91-1.7-4.91-3.8v-4.34c0-2.09,2.2-3.8,4.91-3.8H160.2c2.72,0,4.91,1.71,4.91,3.8v4.34C165.11,107,162.92,108.68,160.2,108.68Z"/><line class="cls-2" x1="151.68" y1="96.74" x2="151.68" y2="108.68"/><line class="cls-2" x1="141.87" y1="96.74" x2="141.87" y2="108.68"/><line class="cls-2" x1="138.7" y1="96.74" x2="138.7" y2="108.68"/><line class="cls-2" x1="135.24" y1="108.68" x2="135.24" y2="96.74"/><line class="cls-2" x1="165.11" y1="83.32" x2="169.36" y2="83.32"/><line class="cls-2" x1="121.37" y1="83.66" x2="125.61" y2="83.66"/><path class="cls-2" d="M160.65,89.63H131c-2.72,0-4.91-1.7-4.91-3.8V81.49c0-2.1,2.19-3.8,4.91-3.8h29.68c2.71,0,4.91,1.7,4.91,3.8v4.34C165.56,87.93,163.36,89.63,160.65,89.63Z"/><line class="cls-2" x1="152.12" y1="77.69" x2="152.12" y2="89.63"/><line class="cls-2" x1="142.32" y1="77.69" x2="142.32" y2="89.63"/><line class="cls-2" x1="139.14" y1="77.69" x2="139.14" y2="89.63"/><line class="cls-2" x1="135.68" y1="89.63" x2="135.68" y2="77.69"/><line class="cls-2" x1="165.11" y1="26.16" x2="169.36" y2="26.16"/><line class="cls-2" x1="121.37" y1="26.5" x2="125.61" y2="26.5"/><path class="cls-2" d="M160.2,32.47H130.52c-2.71,0-4.91-1.7-4.91-3.8V24.33c0-2.1,2.2-3.8,4.91-3.8H160.2c2.72,0,4.91,1.7,4.91,3.8v4.34C165.11,30.77,162.92,32.47,160.2,32.47Z"/><line class="cls-2" x1="151.68" y1="20.53" x2="151.68" y2="32.47"/><line class="cls-2" x1="141.87" y1="20.53" x2="141.87" y2="32.47"/><line class="cls-2" x1="138.7" y1="20.53" x2="138.7" y2="32.47"/><line class="cls-2" x1="135.24" y1="32.47" x2="135.24" y2="20.53"/><line class="cls-2" x1="165.11" y1="45.22" x2="169.36" y2="45.22"/><line class="cls-2" x1="121.37" y1="45.55" x2="125.61" y2="45.55"/><path class="cls-2" d="M160.2,51.52H130.52c-2.71,0-4.91-1.7-4.91-3.8V43.39c0-2.1,2.2-3.81,4.91-3.81H160.2c2.72,0,4.91,1.71,4.91,3.81v4.33C165.11,49.82,162.92,51.52,160.2,51.52Z"/><line class="cls-2" x1="151.68" y1="39.58" x2="151.68" y2="51.52"/><line class="cls-2" x1="141.87" y1="39.58" x2="141.87" y2="51.52"/><line class="cls-2" x1="138.7" y1="39.58" x2="138.7" y2="51.52"/><line class="cls-2" x1="135.24" y1="51.52" x2="135.24" y2="39.58"/><line class="cls-2" x1="165.11" y1="64.27" x2="169.36" y2="64.27"/><line class="cls-2" x1="121.37" y1="64.61" x2="125.61" y2="64.61"/><path class="cls-2" d="M160.2,70.58H130.52c-2.71,0-4.91-1.71-4.91-3.81V62.44c0-2.1,2.2-3.8,4.91-3.8H160.2c2.72,0,4.91,1.7,4.91,3.8v4.33C165.11,68.87,162.92,70.58,160.2,70.58Z"/><line class="cls-2" x1="151.68" y1="58.64" x2="151.68" y2="70.58"/><line class="cls-2" x1="141.87" y1="58.64" x2="141.87" y2="70.58"/><line class="cls-2" x1="138.7" y1="58.64" x2="138.7" y2="70.58"/><line class="cls-2" x1="135.24" y1="70.58" x2="135.24" y2="58.64"/><path d="M27,117.5a4.24,4.24,0,0,1-2-8v-78a4.25,4.25,0,1,1,4,0v78a4.24,4.24,0,0,1-2,8Zm0-4.5a.25.25,0,1,0,.25.25A.25.25,0,0,0,27,113Zm0-85.5a.25.25,0,1,0,.25.25A.25.25,0,0,0,27,27.5Z"/><path class="cls-1" d="M27,24.5a3.24,3.24,0,0,1,1,6.33v79.34a3.25,3.25,0,1,1-2,0V30.83a3.24,3.24,0,0,1,1-6.33M27,29a1.25,1.25,0,1,0-1.25-1.25A1.25,1.25,0,0,0,27,29m0,85.5a1.25,1.25,0,1,0-1.25-1.25A1.25,1.25,0,0,0,27,114.5m0-92a5.26,5.26,0,0,0-5.25,5.25A5.19,5.19,0,0,0,24,32V109a5.19,5.19,0,0,0-2.25,4.29,5.25,5.25,0,0,0,10.5,0A5.19,5.19,0,0,0,30,109V32a5.19,5.19,0,0,0,2.25-4.29A5.26,5.26,0,0,0,27,22.5Z"/><path d="M27,234.5a4.24,4.24,0,0,1-2-8v-6.69l-8.71-8.71a1,1,0,0,1-.29-.71V139.49a4.25,4.25,0,1,1,4,0v69.69l8.71,8.71a1,1,0,0,1,.29.71v7.93a4.24,4.24,0,0,1-2,8Zm0-4.5a.25.25,0,1,0,.25.25A.25.25,0,0,0,27,230Zm-9-94.5a.25.25,0,1,0,.25.25A.25.25,0,0,0,18,135.5Z"/><path class="cls-1" d="M18,132.5a3.24,3.24,0,0,1,1,6.32v70.77l9,9v8.58a3.25,3.25,0,1,1-2,0v-7.76l-9-9V138.83a3.24,3.24,0,0,1,1-6.33m0,4.5a1.25,1.25,0,1,0-1.25-1.25A1.25,1.25,0,0,0,18,137m9,94.5a1.25,1.25,0,1,0-1.25-1.25A1.25,1.25,0,0,0,27,231.5m-9-101a5.24,5.24,0,0,0-3,9.55v70.36a2,2,0,0,0,.59,1.42L24,220.24V226a5.19,5.19,0,0,0-2.25,4.29,5.25,5.25,0,0,0,10.5,0A5.19,5.19,0,0,0,30,226v-7.37a2,2,0,0,0-.59-1.42L21,208.76V140a5.24,5.24,0,0,0-3-9.54Z"/><path d="M116,185a1,1,0,0,1-1-1V166.22a4.24,4.24,0,1,1,4,.47V181h43a1,1,0,0,1,1,1v2a1,1,0,0,1-1,1Zm1.43-22.5a.25.25,0,1,0,.25.25A.25.25,0,0,0,117.43,162.5Z"/><path class="cls-1" d="M117.43,159.5a3.24,3.24,0,0,1,.57,6.44V182h44v2H116V165.65a3.24,3.24,0,0,1,1.43-6.15m0,4.5a1.25,1.25,0,1,0-1.25-1.25,1.25,1.25,0,0,0,1.25,1.25m0-6.5a5.26,5.26,0,0,0-5.25,5.25,5.21,5.21,0,0,0,1.82,4V184a2,2,0,0,0,2,2h46a2,2,0,0,0,2-2v-2a2,2,0,0,0-2-2H120V167.32a5.24,5.24,0,0,0-2.57-9.82Z"/><path d="M98.59,194a1,1,0,0,1-.71-.29L81.1,176.93a4.05,4.05,0,0,1-1.29.21,4.27,4.27,0,1,1,4.08-3.08L99.83,190H162a1,1,0,0,1,1,1v2a1,1,0,0,1-1,1ZM79.81,172.64a.25.25,0,1,0,.25.25A.25.25,0,0,0,79.81,172.64Z"/><path class="cls-1" d="M79.81,169.64a3.23,3.23,0,0,1,2.91,4.67L99.41,191H162v2H98.59L81.33,175.74a3.16,3.16,0,0,1-1.52.4,3.25,3.25,0,0,1,0-6.5m0,4.5a1.25,1.25,0,1,0-1.25-1.25,1.25,1.25,0,0,0,1.25,1.25m0-6.5a5.25,5.25,0,0,0,0,10.5,4.75,4.75,0,0,0,1-.1l16.37,16.37a2,2,0,0,0,1.42.59H162a2,2,0,0,0,2-2v-2a2,2,0,0,0-2-2H100.24L85,173.75a5,5,0,0,0,.07-.86,5.25,5.25,0,0,0-5.25-5.25Z"/><path d="M224,175a1,1,0,0,1-1-1V93.83l-8.41-8.42a1,1,0,0,1,0-1.41L216,82.59a1,1,0,0,1,.71-.3,1,1,0,0,1,.7.3l9.3,9.29a1,1,0,0,1,.29.71V174a1,1,0,0,1-1,1Z"/><path class="cls-1" d="M216.71,83.29l9.29,9.3V174h-2V93.41l-8.71-8.7,1.42-1.42m0-2a2,2,0,0,0-1.42.59l-1.41,1.41a2,2,0,0,0,0,2.83L222,94.24V174a2,2,0,0,0,2,2h2a2,2,0,0,0,2-2V92.59a2,2,0,0,0-.59-1.42l-9.29-9.29a2,2,0,0,0-1.41-.59Z"/><path d="M215,175a1,1,0,0,1-1-1V102.83l-8.71-8.71a1,1,0,0,1-.29-.71V84a1,1,0,0,1,1-1h2a1,1,0,0,1,1,1v8.17l8.71,8.71a1,1,0,0,1,.29.71V174a1,1,0,0,1-1,1Z"/><path class="cls-1" d="M208,84v8.59l9,9V174h-2V102.41l-9-9V84h2m0-2h-2a2,2,0,0,0-2,2v9.41a2,2,0,0,0,.59,1.42l8.41,8.41V174a2,2,0,0,0,2,2h2a2,2,0,0,0,2-2V101.59a2,2,0,0,0-.59-1.42L210,91.76V84a2,2,0,0,0-2-2Z"/><path d="M206,175a1,1,0,0,1-1-1V111.83L187.29,94.12a1,1,0,0,1-.29-.71V31.25a4.24,4.24,0,1,1,4,.43V92.17l17.71,17.71a1,1,0,0,1,.29.71V174a1,1,0,0,1-1,1ZM189.39,27.5a.25.25,0,0,0,0,.5.25.25,0,0,0,0-.5Z"/><path class="cls-1" d="M189.39,24.5a3.25,3.25,0,0,1,.61,6.44V92.59l18,18V174h-2V111.41l-18-18V30.67a3.24,3.24,0,0,1,1.39-6.17m0,4.5a1.25,1.25,0,1,0-1.25-1.25A1.25,1.25,0,0,0,189.39,29m0-6.5A5.24,5.24,0,0,0,186,31.74V93.41a2,2,0,0,0,.59,1.42L204,112.24V174a2,2,0,0,0,2,2h2a2,2,0,0,0,2-2V110.59a2,2,0,0,0-.59-1.42L192,91.76V32.3a5.25,5.25,0,0,0-2.61-9.8Z"/><path d="M197,175a1,1,0,0,1-1-1V120.83l-17.71-17.71a1,1,0,0,1-.29-.71v-80a4.26,4.26,0,1,1,4,.21v78.58l17.71,17.71a1,1,0,0,1,.29.71V174a1,1,0,0,1-1,1ZM180.21,18.5a.25.25,0,0,0,0,.5.25.25,0,0,0,0-.5Z"/><path class="cls-1" d="M180.21,15.5a3.24,3.24,0,0,1,.79,6.39v79.7l18,18V174h-2V120.41l-18-18V21.76a3.25,3.25,0,0,1,1.21-6.26m0,4.5A1.25,1.25,0,1,0,179,18.75,1.25,1.25,0,0,0,180.21,20m0-6.5A5.25,5.25,0,0,0,177,22.9v79.51a2,2,0,0,0,.59,1.42L195,121.24V174a2,2,0,0,0,2,2h2a2,2,0,0,0,2-2V119.59a2,2,0,0,0-.59-1.42L183,100.76V23.18a5.24,5.24,0,0,0-2.79-9.68Z"/><path d="M170,175a1,1,0,0,1-1-1V156.83L152.17,140H66.3a4.25,4.25,0,1,1,0-4h87.11a1,1,0,0,1,.71.29l18.59,18.59a1,1,0,0,1,.29.71V174a1,1,0,0,1-1,1ZM62.56,137.75a.25.25,0,0,0,0,.5.25.25,0,0,0,0-.5Z"/><path class="cls-1" d="M62.56,134.75A3.25,3.25,0,0,1,65.64,137h87.77L172,155.59V174h-2V156.41L152.59,139H65.64a3.24,3.24,0,1,1-3.08-4.25m0,4.5A1.25,1.25,0,1,0,61.31,138a1.25,1.25,0,0,0,1.25,1.25m0-6.5a5.25,5.25,0,1,0,4.3,8.25h84.9L168,157.24V174a2,2,0,0,0,2,2h2a2,2,0,0,0,2-2V155.59a2,2,0,0,0-.59-1.42l-18.58-18.58a2,2,0,0,0-1.42-.59H66.86a5.21,5.21,0,0,0-4.3-2.25Z"/><path d="M188,175a1,1,0,0,1-1-1V129.8l-8.06-8.45L71,122a1,1,0,0,1-1-1V93.83l-8.71-8.71a1,1,0,0,1-.29-.71V31.48a4.25,4.25,0,1,1,4,0V83.17l8.71,8.71a1,1,0,0,1,.29.71V118l106.22-.65a1,1,0,0,1,.73.31l9.77,10.26a1,1,0,0,1,.28.69V174a1,1,0,0,1-1,1ZM63,27.5a.25.25,0,1,0,.25.25A.25.25,0,0,0,63,27.5Z"/><path class="cls-1" d="M63,24.5a3.24,3.24,0,0,1,1,6.33V83.59l9,9V119l107.22-.65L190,128.6V174h-2V129.4l-8.63-9.05L71,121V93.41l-9-9V30.83a3.24,3.24,0,0,1,1-6.33M63,29a1.25,1.25,0,1,0-1.25-1.25A1.25,1.25,0,0,0,63,29m0-6.5a5.26,5.26,0,0,0-5.25,5.25A5.19,5.19,0,0,0,60,32V84.41a2,2,0,0,0,.59,1.42L69,94.24V121a2,2,0,0,0,2,2h0l107.51-.66L186,130.2V174a2,2,0,0,0,2,2h2a2,2,0,0,0,2-2V128.6a2,2,0,0,0-.55-1.38L181.67,117a2,2,0,0,0-1.45-.62h0L75,117V92.59a2,2,0,0,0-.59-1.42L66,82.76V32a5.19,5.19,0,0,0,2.25-4.29A5.26,5.26,0,0,0,63,22.5Z"/><path d="M179,175a1,1,0,0,1-1-1V138.83L170.17,131H62a1,1,0,0,1-1-1V102.83l-8.71-8.71a1,1,0,0,1-.29-.71V31.07a4.25,4.25,0,1,1,4,0v61.1l8.71,8.71a1,1,0,0,1,.29.71V127H171.41a1,1,0,0,1,.71.29l9.59,9.59a1,1,0,0,1,.29.71V174a1,1,0,0,1-1,1ZM54,27.08a.25.25,0,1,0,.25.25A.25.25,0,0,0,54,27.08Z"/><path class="cls-1" d="M54,24.08a3.24,3.24,0,0,1,1,6.33V92.59l9,9V128H171.41l9.59,9.59V174h-2V138.41L170.59,130H62V102.41l-9-9v-63a3.24,3.24,0,0,1,1-6.33m0,4.5a1.25,1.25,0,1,0-1.25-1.25A1.25,1.25,0,0,0,54,28.58m0-6.5a5.24,5.24,0,0,0-3,9.55V93.41a2,2,0,0,0,.59,1.42L60,103.24V130a2,2,0,0,0,2,2H169.76l7.24,7.24V174a2,2,0,0,0,2,2h2a2,2,0,0,0,2-2V137.59a2,2,0,0,0-.59-1.42l-9.58-9.58a2,2,0,0,0-1.42-.59H66V101.59a2,2,0,0,0-.59-1.42L57,91.76V31.63a5.24,5.24,0,0,0-3-9.55Z"/><path d="M53,203a1,1,0,0,1-1-1V111.83l-8.71-8.71a1,1,0,0,1-.29-.71V22.08a4.21,4.21,0,0,1-2.25-3.73,4.25,4.25,0,0,1,8.5,0A4.21,4.21,0,0,1,47,22.08v79.09l8.71,8.71a1,1,0,0,1,.29.71V199H162a1,1,0,0,1,1,1v2a1,1,0,0,1-1,1ZM45,18.1a.25.25,0,1,0,.25.25A.25.25,0,0,0,45,18.1Z"/><path class="cls-1" d="M45,15.1a3.24,3.24,0,0,1,1,6.33v80.16l9,9V200H162v2H53V111.41l-9-9v-81a3.24,3.24,0,0,1,1-6.33m0,4.5a1.25,1.25,0,1,0-1.25-1.25A1.25,1.25,0,0,0,45,19.6m0-6.5a5.26,5.26,0,0,0-5.25,5.25A5.19,5.19,0,0,0,42,22.64v79.77a2,2,0,0,0,.59,1.42L51,112.24V202a2,2,0,0,0,2,2H162a2,2,0,0,0,2-2v-2a2,2,0,0,0-2-2H57V110.59a2,2,0,0,0-.59-1.42L48,100.76V22.64a5.19,5.19,0,0,0,2.25-4.29A5.26,5.26,0,0,0,45,13.1Z"/><path d="M44,212a1,1,0,0,1-1-1V129.83l-8.71-8.71a1,1,0,0,1-.29-.71V22.08a4.21,4.21,0,0,1-2.25-3.73,4.25,4.25,0,0,1,8.5,0A4.21,4.21,0,0,1,38,22.08v97.09l8.71,8.71a1,1,0,0,1,.29.71V208H162a1,1,0,0,1,1,1v2a1,1,0,0,1-1,1ZM36,18.1a.25.25,0,1,0,.25.25A.25.25,0,0,0,36,18.1Z"/><path class="cls-1" d="M36,15.1a3.24,3.24,0,0,1,1,6.33v98.16l9,9V209H162v2H44V129.41l-9-9v-99a3.24,3.24,0,0,1,1-6.33m0,4.5a1.25,1.25,0,1,0-1.25-1.25A1.25,1.25,0,0,0,36,19.6m0-6.5a5.26,5.26,0,0,0-5.25,5.25A5.19,5.19,0,0,0,33,22.64v97.77a2,2,0,0,0,.59,1.42L42,130.24V211a2,2,0,0,0,2,2H162a2,2,0,0,0,2-2v-2a2,2,0,0,0-2-2H48V128.59a2,2,0,0,0-.59-1.42L39,118.76V22.64a5.19,5.19,0,0,0,2.25-4.29A5.26,5.26,0,0,0,36,13.1Z"/><path d="M35,221a1,1,0,0,1-1-1V138.83L16.29,121.12a1,1,0,0,1-.29-.71V22.48a4.25,4.25,0,1,1,4,0v96.69l17.71,17.71a1,1,0,0,1,.29.71V217H162a1,1,0,0,1,1,1v2a1,1,0,0,1-1,1ZM18,18.5a.25.25,0,1,0,.25.25A.25.25,0,0,0,18,18.5Z"/><path class="cls-1" d="M18,15.5a3.24,3.24,0,0,1,1,6.33v97.76l18,18V218H162v2H35V138.41l-18-18V21.83a3.24,3.24,0,0,1,1-6.33M18,20a1.25,1.25,0,1,0-1.25-1.25A1.25,1.25,0,0,0,18,20m0-6.5a5.26,5.26,0,0,0-5.25,5.25A5.19,5.19,0,0,0,15,23v97.37a2,2,0,0,0,.59,1.42L33,139.24V220a2,2,0,0,0,2,2H162a2,2,0,0,0,2-2v-2a2,2,0,0,0-2-2H39V137.59a2,2,0,0,0-.59-1.42L21,118.76V23a5.19,5.19,0,0,0,2.25-4.29A5.26,5.26,0,0,0,18,13.5Z"/><rect class="cls-3" x="232.67" y="214.17" width="5.05" height="10.05" rx="1.75" transform="translate(454.39 -16) rotate(90)"/><rect class="cls-3" x="232.67" y="204.96" width="5.05" height="10.05" rx="1.75" transform="translate(445.18 -25.2) rotate(90)"/><rect class="cls-3" x="232.67" y="195.76" width="5.05" height="10.05" rx="1.75" transform="translate(435.97 -34.41) rotate(90)"/><rect class="cls-3" x="232.67" y="186.55" width="5.05" height="10.05" rx="1.75" transform="translate(426.77 -43.62) rotate(90)"/><rect class="cls-3" x="232.67" y="177.34" width="5.05" height="10.05" rx="1.75" transform="translate(417.56 -52.82) rotate(90)"/><rect class="cls-3" x="172.01" y="221.72" width="5.05" height="10.05" rx="1.75" transform="translate(349.07 453.48) rotate(-180)"/><rect class="cls-3" x="181.22" y="221.72" width="5.05" height="10.05" rx="1.75" transform="translate(367.49 453.48) rotate(-180)"/><rect class="cls-3" x="190.43" y="221.72" width="5.05" height="10.05" rx="1.75" transform="translate(385.9 453.48) rotate(-180)"/><rect class="cls-3" x="199.63" y="221.72" width="5.05" height="10.05" rx="1.75" transform="translate(404.31 453.48) rotate(-180)"/><rect class="cls-3" x="208.84" y="221.72" width="5.05" height="10.05" rx="1.75" transform="translate(422.73 453.48) rotate(-180)"/><rect class="cls-3" x="204.53" y="76.3" width="5.05" height="10.05" rx="1.75" transform="translate(414.11 162.65) rotate(-180)"/><rect class="cls-3" x="213.74" y="76.3" width="5.05" height="10.05" rx="1.75" transform="translate(432.52 162.65) rotate(-180)"/><rect class="cls-3" x="218.05" y="221.72" width="5.05" height="10.05" rx="1.75" transform="translate(441.14 453.48) rotate(-180)"/><rect class="cls-3" x="227.25" y="221.72" width="5.05" height="10.05" rx="1.75" transform="translate(459.55 453.48) rotate(-180)"/><rect class="cls-3" x="163.06" y="178.18" width="5.05" height="10.05" rx="1.75" transform="translate(-17.62 348.79) rotate(-90)"/><rect class="cls-3" x="163.06" y="187.39" width="5.05" height="10.05" rx="1.75" transform="translate(-26.83 358) rotate(-90)"/><rect class="cls-3" x="163.06" y="196.6" width="5.05" height="10.05" rx="1.75" transform="translate(-36.04 367.2) rotate(-90)"/><rect class="cls-3" x="163.06" y="205.8" width="5.05" height="10.05" rx="1.75" transform="translate(-45.24 376.41) rotate(-90)"/><rect class="cls-3" x="163.06" y="215.01" width="5.05" height="10.05" rx="1.75" transform="translate(-54.45 385.62) rotate(-90)"/><rect class="cls-3" x="223.72" y="170.64" width="5.05" height="10.05" rx="1.75"/><rect class="cls-3" x="214.51" y="170.64" width="5.05" height="10.05" rx="1.75"/><rect class="cls-3" x="205.3" y="170.64" width="5.05" height="10.05" rx="1.75"/><rect class="cls-3" x="196.1" y="170.64" width="5.05" height="10.05" rx="1.75"/><rect class="cls-3" x="186.89" y="170.64" width="5.05" height="10.05" rx="1.75"/><rect class="cls-3" x="177.68" y="170.64" width="5.05" height="10.05" rx="1.75"/><rect class="cls-3" x="168.48" y="170.64" width="5.05" height="10.05" rx="1.75"/><rect class="cls-4" x="195.07" y="36.01" width="35.34" height="45.32" rx="3.95"/><rect class="cls-4" x="165.9" y="176.58" width="69.15" height="50.45" rx="3.95"/><text class="cls-5" transform="translate(171 197.55)"><tspan class="cls-6">R</tspan><tspan x="10.91" y="0">G1616</tspan></text></g></svg>