<svg xmlns="http://www.w3.org/2000/svg" viewBox="0 0 256 256"><defs><style>.cls-1,.cls-2{fill:#fff;}.cls-1,.cls-3,.cls-5{stroke:#000;}.cls-1,.cls-3,.cls-4,.cls-5{stroke-linecap:round;stroke-linejoin:round;stroke-width:2px;}.cls-4{stroke:#fff;}.cls-5{fill:none;}</style></defs><g id="psychonautic_remains"><path class="cls-1" d="M234.88,192.85c3.5,6.13,6.09,10.3,6.38,16.69.56,12.47-8.14,21.86-9.92,23.79-9.53,10.29-22.09,12.48-31.67,14.16-7.71,1.34-5.55-.16-30.3,1.07-18.4.91-18.61,1.69-25,.95-11.34-1.32-14.71-4.27-22.09-2.16-2.47.71-6,2.15-10.1.87a12.29,12.29,0,0,1-4.74-2.92c-.42-.38-.85-.8-1.32-1.26a46.78,46.78,0,0,1-10.42-14.23c-1.58-3.41-4.63-10.17-4.25-18.8.24-5.8,1.81-6.91,1.25-12.21-.65-6.34-3.15-7.37-4-12.36-1.25-7.5,3.62-9.89,6.11-20.05.3-1.2,4.43-18.84-3.21-25-5.33-4.3-11,2.47-19.22-1.63-2.09-1-4.29-3.49-7-7.56-3.2-4.78-7.13-11.8-12.48-21.4-4.36-7.84-7.16-12.92-8.64-17.23a22.9,22.9,0,0,1-1.17-4.85c-.66-5.36.19-8,.5-17.43a168.59,168.59,0,0,0-.55-20.61L23.49,37.73C28.55,27.22,32.62,25,35.51,25c3.74.06,5.1,4,13.54,9.22,4.9,3,9.38,5.76,12.14,4.12,3-1.82,3.15-8.5,1.12-13.31-2.84-6.74-8.83-7.33-8.62-10.52.37-5.35,17.68-11,22.15-5.86,1.93,2.21-.15,4.57.66,9.73,1.29,8.16,8.23,13.42,16.06,19.35,11.28,8.54,14.48,6.37,19.23,13.14,2.53,3.62,3.84,7.41,7.6,8.25,2.84.65,6.52-.51,7.45-2.69.77-1.83-1-3-.43-5.87.41-2.14,2-4.77,4-4.77s3.9,2.9,3.8,5.19c-.07,1.49-.93,1.82-.71,3,.18,1,1,1.81,4.56,3.59,4.35,2.16,4.85,1.73,5.73,2.72,2.27,2.57,1.58,8.44-1.41,10.64-1.62,1.19-2.67.44-7.63.68-6.06.3-12.75,1.86-12.76,3.27-6.74-11.18-36.18-7.82-38.75-6.37a14.16,14.16,0,0,0-6.34,7.25c-2.31,6.43,1.59,12.4,2,13,3.23,4.77,6.71,3.83,12.43,8.9,2.3,2.06,4.24,5.1,8,11.1,8.17,13,7.94,16,11.94,17.85,5,2.33,10.51.17,15.86-1.92,3.56-1.4,12.23-4.8,15.12-11.62a11.61,11.61,0,0,0,.68-2.14,18.86,18.86,0,0,0,.49-3.1,12,12,0,0,0-2.92-8.36c-2.57-3.27-4.56-5.7-6.18-7.65a26,26,0,0,0,4.33,3c5.6,3.12,8.91,2.23,15.33,3.53,12.55,2.53,20.27,10,35.06,24.38a187.76,187.76,0,0,1,26,31.48C225.19,169.7,220.22,167.18,234.88,192.85Z"/><path class="cls-2" d="M112.42,244.81l-7,1.22-13.26-9.48s-5.77-32.65-6.41-33S75.16,155.65,75,154.74s-9-15-9-15l-7.23-8.38,6.67-3.17s33.59,5.49,34.11,6,21.67,34.19,20.64,36.51-9.29,24.13-9.29,24.13Z"/><path class="cls-3" d="M125.73,80.88c-1-1.41-2-3.08-3.28-5.19C123.5,77.09,124.55,78.91,125.73,80.88Z"/><path class="cls-4" d="M94.85,166.39c-2.49,10.16-7.36,12.55-6.11,20.05.84,5,3.34,6,4,12.36.56,5.3-1,6.41-1.25,12.21-.38,8.63,2.67,15.39,4.25,18.8A46.78,46.78,0,0,0,106.15,244c.47.46.9.88,1.32,1.26h0a15.54,15.54,0,0,1-6.71,1.28,36.9,36.9,0,0,1-12.77-2c-14.11-4.71-24.72-16.3-26.22-18a72.4,72.4,0,0,1-15.64-28.39c-2.19-7.64-8.22-28.68,3.16-48.61.37-.65.74-1.27,1.1-1.87,5.94-9.93,10.13-12.83,15-15.51,2.72,4.07,4.92,6.53,7,7.56,8.23,4.1,13.89-2.67,19.22,1.63C99.28,147.55,95.15,165.19,94.85,166.39Z"/><path class="cls-1" d="M52.93,110.79c5.35,9.6,9.28,16.62,12.48,21.4-4.9,2.68-9.09,5.58-15,15.51-.46-13.21-2.84-14.64-5.24-20.57-4.33-10.68-6.49-16-10.9-19.79-2.18-1.86-6.15-4.65-5.72-7.82.22-1.65,1.54-2.84,3.28-4.4a22.53,22.53,0,0,1,7-4.26c4.68,3.18,3.79,2.58,5.5,2.7C45.77,97.87,48.57,103,52.93,110.79Z"/><path class="cls-3" d="M50.38,147.7s0,0,0,0"/><path class="cls-3" d="M122.45,75.69l-.34-.44a.61.61,0,0,1-.16-.38C122.12,75.15,122.28,75.43,122.45,75.69Z"/><path class="cls-3" d="M134.26,91.81a42,42,0,0,1-8.51-10.89A113.32,113.32,0,0,0,134.26,91.81Z"/><path class="cls-5" d="M197.21,213.6c-6.24-4.13-8.65-8.4-9.67-11.59-1.77-5.52.59-7.82-1.75-13.83-.43-1.1-2.68-4.37-7.16-10.86-3.79-5.49-4.76-6.77-5.06-9.19-.45-3.63,1.19-5.21,2-9.11,1.25-5.83-.62-10.76-2.36-15.37-3.52-9.27-9.81-14.77-14.29-18.68a80.8,80.8,0,0,0-8.73-6.47c-6.78-4.58-3.79-3.33-8-5.44"/><path class="cls-5" d="M214.3,214.76a97.28,97.28,0,0,1-7.88-15.16c-3.46-8.4-3.15-11.09-6.84-16.67-3.28-5-4.75-4.69-8.9-10.6a61.69,61.69,0,0,1-6.77-12.72c-5.06-12.36-1.92-14.35-6.14-22.22-2.86-5.36-6.55-8.63-13.57-14.84a112.76,112.76,0,0,0-11.78-9c-4.79-3.27-2.27-2.33-9.06-5.71"/><path class="cls-3" d="M220.28,189.38A47.22,47.22,0,0,0,211,175c-3.12-3.28-5.46-4.76-9.63-8.09-3.85-3.09-15-15.61-21.07-22.15"/><path class="cls-1" d="M143.36,107.82a18.86,18.86,0,0,1-.49,3.1,11.61,11.61,0,0,1-.68,2.14c-2.89,6.82-11.56,10.22-15.12,11.62-5.35,2.09-10.86,4.25-15.86,1.92-4-1.87-3.77-4.8-11.94-17.85-3.75-6-5.69-9-8-11.1-5.72-5.07-9.2-4.13-12.43-8.9-.4-.6-4.3-6.57-2-13A14.16,14.16,0,0,1,83.2,68.5c2.57-1.45,32-4.81,38.75,6.37a.61.61,0,0,0,.16.38l.34.44c1.28,2.11,2.33,3.78,3.28,5.19l0,0a42,42,0,0,0,8.51,10.89c1.62,2,3.61,4.38,6.18,7.65A12,12,0,0,1,143.36,107.82Z"/><path class="cls-5" d="M87,196.19c8.07,7.49,26.19,17.24,30.58,16.91,6.44-.48,7.88-4.38,16.17-5.62a27.94,27.94,0,0,1,31.11,18.1"/><path class="cls-5" d="M172,240.39a62.11,62.11,0,0,0,50.14-17.29"/><path class="cls-4" d="M58.14,165a53.43,53.43,0,0,0,8.71,47.35"/><path class="cls-5" d="M139.91,58.46c-2,3.84-2.3,7.8-.25,10.64a7.37,7.37,0,0,0,2.65,1.82"/><path class="cls-5" d="M126.89,50.54a5.33,5.33,0,0,0,5.15,2.1,4.4,4.4,0,0,0,2-1.09"/><path class="cls-5" d="M43.57,58.28c.25-1,3-7.47,5.23-9.58a11.65,11.65,0,0,1,6.32-3"/><path class="cls-3" d="M67.77,35l7.66-1.87"/><path class="cls-5" d="M92.12,125.61a14.9,14.9,0,0,1-6.61,4,15.89,15.89,0,0,1-9-.33,23.22,23.22,0,0,1-10.05-6.1c-6.87-6.76-10.14-16.27-12.77-25.73A246.53,246.53,0,0,1,47,64.84"/><path class="cls-5" d="M85.67,116.48A179.38,179.38,0,0,1,74.73,98.54C67.15,84.26,67.2,79.6,67.28,78c.43-8.82,5.85-14.83,7.22-16.31,6.06-6.54,17-11.8,25.51-8.07a14.91,14.91,0,0,1,4.55,3.14"/><path class="cls-5" d="M97.39,74.43c10,6.23,16.49,10.29,20.4,12.72,6.14,3.81,8.9,5.51,11.42,9.21,1.38,2,6.69,9.81,3.18,17.28-3,6.5-10.56,8.09-11.67,8.31"/><path d="M144.42,150.42c-4.13-.51-5.19.74-8.52-.39-2.9-1-3.51-2.41-5.42-2.13-2.21.34-3.58,2.59-4.54,4.16-.77,1.25-2.74,4.49-1.65,5.91s4-.17,10.74-1c3-.36,9.91-1.17,10.74.87.53,1.3-1.7,3-1.35,3.39.64.74,9.15-3.68,8.52-7C152.39,151.45,145.25,150.52,144.42,150.42Z"/><path d="M124.29,171.13c-3.69.21-7,3.74-7.23,7.52-.31,4.68,4.23,7.62,5.1,8.16,6,3.63,13.77.35,17.61-3.49.65-.64,3.22-3.21,2.52-4.84s-5.47-2.72-9.1-1.54c-1,.32-2.17.89-2.71.38s.29-1.66,0-2.9C130,172.44,126.88,171,124.29,171.13Z"/><path d="M166,184.58c-1.14.25-1.09,2.22-2.13,4.26-2,3.85-5.8,3.87-5.71,5.51.1,1.85,5.05,4.37,8.32,2.52,2.5-1.41,2.79-4.67,2.91-6,.08-.89.31-3.47-1.36-5.22C167.7,185.3,166.85,184.4,166,184.58Z"/><path d="M133.77,225.32c-2.08,0-4.33,1.39-4.45,2.91-.19,2.36,4.74,5.61,7.36,4.06a3.82,3.82,0,0,0,1.55-4.06C137.7,226.21,135.44,225.32,133.77,225.32Z"/><path d="M99.71,217.58c-.37.53,2.64,2.5,6.77,7.36,6.56,7.7,8.28,13.66,9.1,13.35s.31-8.11-4.59-14C106.66,219.11,100.21,216.87,99.71,217.58Z"/><path d="M180.42,223.26c-1.61-.51-5.38,4.15-4.39,5.93.52.93,2.36,1.13,3.62.52,2.07-1,1.83-3.88,1.8-4.13C181.41,225.11,181.25,223.52,180.42,223.26Z"/><path d="M164.16,110.16c-.41.79,1.89.8,4.07,6.75.55,1.53,1.69,1.91,2.38,3.16,1.71,3.09,3.1,3.34,5.94,5.23,5.82,3.87,7,11.23,7.8,10.9.38-.15.13-1.62,0-2.32a14.78,14.78,0,0,0-4.25-7.81c-2.95-2.89-4.07-2-6.39-4.71-1.31-1.53-.87-1.72-3.13-5.51-2.07-3.47-3.14-5.23-5.19-6.55C163.12,107.84,164.42,109.67,164.16,110.16Z"/><path d="M140.3,128.19c-.41.79,5.83,3.08,8,9,.56,1.53.34,1.91,1,3.16,1.71,3.09,4.45,3.34,7.29,5.23,5.82,3.87,7,11.23,7.81,10.9.37-.14.12-1.61,0-2.32a14.75,14.75,0,0,0-4.26-7.81c-2.94-2.89-4.07-2-6.39-4.71-1.31-1.53-.86-1.71-3.13-5.51-2.06-3.47-3.14-5.23-5.19-6.55C143.2,128.16,140.56,127.7,140.3,128.19Z"/><path d="M100.53,91.29c-1.58,1.13,5.72,13.61,6.49,14.9,2.1,3.57,6.87,11.67,8.51,11,.93-.39.84-3.56-.19-6.05-1.49-3.59-3.88-3.22-6.15-6.87s-.8-5.29-3.24-8.81C104.17,92.89,101.3,90.74,100.53,91.29Z"/><path d="M115.33,95.51c-.65.43,2.34,5.14,2.65,5.63.86,1.34,2.81,4.4,3.49,4.14.38-.15.34-1.34-.08-2.28-.61-1.36-1.59-1.22-2.52-2.59s-.32-2-1.32-3.33C116.82,96.12,115.65,95.31,115.33,95.51Z"/><path d="M55.05,51.15c-.67-.38-3.51,4.42-3.8,4.92-.81,1.38-2.65,4.5-2.11,5,.3.27,1.35-.31,2-1.11.93-1.16.36-2,1.16-3.42s1.63-1.19,2.36-2.69C55.19,52.76,55.38,51.34,55.05,51.15Z"/></g></svg>