<svg xmlns="http://www.w3.org/2000/svg" viewBox="0 0 256 256"><defs><style>.cls-1,.cls-2{stroke:#fff;}.cls-1,.cls-2,.cls-3{stroke-miterlimit:10;stroke-width:2px;}.cls-2{fill:none;}.cls-3{fill:#fff;stroke:#000;}</style></defs><g id="common_primalies"><path class="cls-1" d="M77.8,239.05c.52-5,4.56-6.21,7.8-12.72,2.31-4.63.62-4.69,3-9.25,3-5.73,5.7-5.68,7.6-10.82,1.14-3.08.19-3.14,1.79-8.74a53.26,53.26,0,0,1,2.87-7.75c1.5-3.2,2.24-3.88,3.81-6.77,2-3.75,2.22-5.26,4.34-10.74,2.93-7.57,4.4-11.36,5.61-12.14,5.68-3.69,11.7,7,29.29,9.63,6.51,1,11.83.45,13.68,4,1,1.95.29,3.77-1.12,9.18-1.8,6.94-3.36,12.9-3.78,18.39-.64,8.22,1.85,7.53,1.23,16.7-.57,8.31-2.64,9.36-1.53,14.7.94,4.55,3,6.61,2.37,11a16.64,16.64,0,0,1-2.75,6.44c-6.74,9.46-29.94,7.89-36.88,7.42-7.42-.51-31.8-2.16-36.35-13.11A10.88,10.88,0,0,1,77.8,239.05Z"/><path class="cls-1" d="M139.58,177.39c-7.32-3.48-11-5.23-12.35-6.12-2-1.3-5-4-11.09-9.36-6.51-5.75-7.63-6.94-10.74-8.83s-5.71-3.42-9.62-4.08-4.74.38-8.44-.53c-4.14-1-4-2.52-8.52-3.92-2-.64-4.52-.84-9.46-1.25a67.1,67.1,0,0,0-7.34-.37c-6.32.15-6.8,1.52-10.76,1.12a21.22,21.22,0,0,1-9.49-3.76c-3.5-2.22-5.9-3.73-6.8-6.53-1.35-4.2,2.32-6.29.8-9.66-1-2.22-3.91-3.56-9.73-6.25a31.56,31.56,0,0,1-4.51-2.61,10.84,10.84,0,0,1-3-2.68,6.57,6.57,0,0,1-1.42-4.08c.07-1.29.66-2,1.46-3.35,3-4.87,2.06-6.09,4.37-8.32a10.63,10.63,0,0,1,4.34-2.53,11.36,11.36,0,0,1,8,1c1.71.8,4.77,2.24,5.74,5.16,1.21,3.64-2.14,5.64-.9,9.66.34,1.12.55.82,3.42,4.85,3.34,4.68,3,5.07,4.49,6.32a13.27,13.27,0,0,0,7.81,3c2.72.12,4-.71,7.23-1.7,7.56-2.34,8.5-.25,15.28-2.45a29.1,29.1,0,0,0,7.93-3.69c.62-.43,1.23-.9,1.85-1.42,3.84-3.24,3.09-4.7,6.92-7.69,2.3-1.79,2.2-1,9.88-5.33a27.8,27.8,0,0,0,6.53-4.61,17,17,0,0,0,3.27-4.11c.94-1.72,1.23-3.14,1.73-10.69.47-7,.35-7.68-.23-8.51-1.28-1.82-2.81-1.45-6.68-4.34a15.1,15.1,0,0,1-3.67-3.31c-2.58-3.63-2.32-9.27-.16-13.21,1.3-2.37,3.11-3.81,6.43-6.46,2.91-2.32,4.33-2.8,6.07-5.13,1.59-2.12,1.06-2.59,2.67-5.28,1.36-2.27,3.84-6.42,8-7.31,2.06-.44,3.76.08,6.61,1a14.26,14.26,0,0,1,6.07,3.17c1.3,1.24,2.69,2.55,2.85,4.44.22,2.57-2.09,3.16-2.88,7.37a7.74,7.74,0,0,0,.11,4.25c.65,1.82,1.69,2,2.37,3.37.79,1.58.13,2.84-1.74,8.51-1.06,3.23-1.69,5.45-3,9.88a34.76,34.76,0,0,0-.9,3.55,30,30,0,0,0-.38,7.34c.32,7.65.49,11.47.88,14.49.27,2,.67,4.61,1.28,7.58a30.22,30.22,0,0,1,2.88-9.44c1.81-3.63,3-4.1,5.79-8.29,2.24-3.34,3.76-6.83,6.81-13.8,2.34-5.34,3.51-8.06,3.92-10.59.92-5.67-.83-6.41.22-10.17,2-7.26,10.3-10.76,12.32-11.62a24.42,24.42,0,0,1,12.65-1.77c3.87.51,6.88.91,8.85,3.25,2.14,2.54.83,4.77,2.46,16.19.46,3.26.78,4.53,1.55,6,1.53,2.81,3.26,3.32,4.71,6.31a14,14,0,0,1,1.3,5.18c.17,3.86-1.62,5.08-3.52,10.67-2,5.84-.8,6.82-2.64,9.25-2.27,3-5.81,3.82-9.08,4.56-2.1.48-11.79,2.68-18.71-2.43-1.82-1.34-3.22-3-4.36-2.54-1.51.66-1.18,4.59-1.08,5.82a17.62,17.62,0,0,0,2.54,8,20.75,20.75,0,0,0,18.34,9.3,23.29,23.29,0,0,0,7.34-1.85,29.09,29.09,0,0,0,7.34-4.47c5.48-4.31,5.28-6.37,9.87-8.83,3.51-1.88,5.77-1.82,6.91-1.68a10.52,10.52,0,0,1,4.16,1.53c2.15,1.32,2.27,2.4,4.63,4.86,2.63,2.73,3.15,2.1,5.8,4.93,2.78,3,3.28,4.85,3.42,5.43a7.66,7.66,0,0,1,0,4.15c-.78,2.49-2.55,2.76-2.47,4.29s2,1.82,3.21,4.13a8.12,8.12,0,0,1,.68,4.62c-.11,1.35-.63,4.16-7.73,12.14-3,3.39-4.5,4.66-4.24,6.57s2.16,3.32,3,3.92a7.74,7.74,0,0,0,4.83,1.71c2.46-.11,3.21-1.7,4.74-1.27s2.14,2.27,2.59,3.58c.92,2.64,1,5.36.36,9.45-1.07,6.77-2.57,7.41-1.91,10.59.26,1.27,1.3,3,3.39,6.38,2.4,3.9,3.2,4.63,4.76,7.18,2,3.29,3.68,6,4.45,9.81a21.15,21.15,0,0,1-1.55,13.27,17.24,17.24,0,0,1-5.68,6.93c-1.32.91-2.92,1.49-6.12,2.66-5.21,1.9-6.63,1.81-9.07,3.47A17.42,17.42,0,0,0,224,235c-2.86,3.44-4.08,6.28-7.7,14.17-3.43,7.48-3.8,8.13-4.84,9.08-4.68,4.23-11.08,3.57-11.47,3.52-6-.72-9.55-5.07-11.85-7.9a21.3,21.3,0,0,1-4.54-8.64,21.07,21.07,0,0,1,1.18-13.33c.95-2.16,3.54-8.07,8.69-9.34,1.65-.42,3.39-.16,6.86.36,5.49.82,6.82,2.09,8.81,1.13,2.52-1.21,3.26-4.64,3.54-5.94.83-3.83-.92-4.82-.31-8.65.53-3.37,2.37-5.7,4-7.72a23.69,23.69,0,0,1,6.76-5.82,28.75,28.75,0,0,0-1.32-7,24.54,24.54,0,0,0-3-6.17c-1.79-2.64-2.61-2.7-2.84-2.7s-1.27.12-3.38,3.61a39.53,39.53,0,0,0-2.31,4.57c-.86,1.79-1.39,2-6.39,7.26-2,2.12-3.83,4.08-6.77,6.91-1.75,1.68-3.2,3-5.49,3.65a7,7,0,0,1-4,.13c-2-.59-2.87-2.11-4.13-3.71-.74-.93-.09,0-8.34-7.5-3.87-3.52-4.89-4.53-5.22-6.35-.26-1.46.11-2.35-.62-3.47-.87-1.31-2.25-1.37-5-2.13-5.42-1.52-5.78-2.92-9.19-3-2.23-.07-2.34.52-4.63.68C147.19,180.89,144.78,179.86,139.58,177.39Z"/><path class="cls-2" d="M86.33,116.4a26.13,26.13,0,0,1-2.62,5.87c-2,3.33-2.67,4.35-6,6.71s-5.2,1.86-9.54,2.53-9.81-2.59-9.81-2.59-4.94-2.1-7.31-5.82"/><path class="cls-2" d="M128.75,132a19.41,19.41,0,0,1,6.46,4.25,21.81,21.81,0,0,1,5.64,11.5,27.61,27.61,0,0,1,.53,6.91"/><path class="cls-2" d="M144.12,111.63a29.19,29.19,0,0,1,12,10.4,27.18,27.18,0,0,1,2.63,5.27"/><path class="cls-2" d="M124.2,102.74c4.13,3.53,7.47,6.66,9.93,9,10.18,9.86,12.41,14,13.42,18.08a23,23,0,0,1,.65,5.16"/><path class="cls-2" d="M163.38,145.38a37.44,37.44,0,0,1,10.29-1,34.09,34.09,0,0,1,15.75,4.34,32.69,32.69,0,0,1,6.3,4.69"/><path class="cls-2" d="M218,115.16c-.58-.17-9.36-2.61-15.58,3-6.7,6.06-4.38,16-4.21,16.69,1,4.13,2.79,4.14,3.73,8.62,1.17,5.52-.51,10.21-1.56,13.12-1.8,5-3.35,9.34-7.21,11.09-5.3,2.42-9.28-2.59-14,.16-2.1,1.24-2,2.66-5.81,8.47a86,86,0,0,1-5.61,7.63"/><path class="cls-2" d="M224.19,152.43A10.09,10.09,0,0,0,219,154c-2,1.34-2.47,2.93-4.08,5.46-4,6.23-6.4,6.3-7.9,10.64-.66,1.9-.66,3.52-.68,6.75a57.64,57.64,0,0,0,1.73,14.22"/><path class="cls-2" d="M197.27,236.18a10.77,10.77,0,0,0,2.4,10.87,10.25,10.25,0,0,0,6.34,2.8"/><path class="cls-2" d="M200.5,231.05a13.27,13.27,0,0,0,2.61,9.41,12.76,12.76,0,0,0,5.31,3.94"/><path class="cls-2" d="M97.09,230.92c6.72,5.08,12.43,6.5,16.39,6.87,5.72.52,9.41-1,20.55-1.2,3.57-.06,6.49,0,8.36.12"/><path class="cls-2" d="M108.34,212a112.75,112.75,0,0,0,15.28,2.75c4.93.55,6.87.43,9.64,1.43,3.45,1.25,7.84,4.12,11.82,11.25"/><path class="cls-2" d="M117.64,190.47c9.89.47,15,3.22,17.92,5.73,1,.9,2.94,2.77,5.11,2.43,2.4-.37,4-3.27,4.89-5.65"/><path class="cls-3" d="M25,108.94c-3-.53-4-4.18-7-8.76-4-6.18-5.6-5.06-7.74-9.75-1.6-3.53-1.79-6.64-2-10.55-.27-4.41.24-6.2.58-12.76.22-4.35.21-7.86.18-10,3.4,8.66,6.37,15.69,8.59,20.8a68.23,68.23,0,0,0,4.3,9c4.27,7.08,6.4,10.62,9.38,13.11.92.77,2.62,2.08,2.84,4.11a4.63,4.63,0,0,1-1.69,4.08c-.88.66-2,.71-4.17.82A17.15,17.15,0,0,1,25,108.94Z"/><path class="cls-3" d="M123.6,62.66c2.8-.31,5.13,2.08,5.54,2.5A11,11,0,0,1,132,71.24c3.1,20.09-13.56,62.52-13.56,62.52-1.85,4.69-4.33,10.94-7.34,18.31q1.14-17.41,2.41-35,1.77-24.6,3.74-48.83a4.47,4.47,0,0,1,.88-3c.66-.84,1.55-1.18,3.18-1.81A9.53,9.53,0,0,1,123.6,62.66Z"/><path class="cls-3" d="M181.31,81.58Q172,106.5,163,133.19q-6.65,19.81-12.5,39c3.72-5.52,7.51-11.62,11.2-18.3,3.41-6.19,6.84-14,13.67-29.21,6.44-14.37,5.69-13.22,6.71-15,3.58-6.28,6-13.15,9.3-19.59a5.39,5.39,0,0,0,.67-4c-.74-2.43-3.86-3.5-5.17-4A12.81,12.81,0,0,0,181.31,81.58Z"/><path class="cls-3" d="M121.29,255.44c0,1.08,20.79,1.8,31.14,2a129.31,129.31,0,0,0,29.74-3.84c2.94-.72,6.89-1.79,8.19-5,1.69-4.14-.62-10.29-3.87-11.09-1.89-.47-3.33,1.09-6.19,2.88-2.37,1.49-3.88,2-14.23,4.91-28,7.89-32,8.53-35.3,8.94C124.65,255,121.29,255,121.29,255.44Z"/><path class="cls-3" d="M120.3,228c.16.45,6.46-1.19,12.35-3.11a145.39,145.39,0,0,0,15.36-6c10.11-4.6,16.53-7.52,23.78-13.17a79.33,79.33,0,0,0,13.09-12.94c-.47-1-2.73-5.48-6.71-5.92a6.52,6.52,0,0,0-3.3.55c-6.12,2.62-11.65,9.39-12.77,10.74-2.37,2.85-7.13,6.69-16.66,14.38-6,4.85-9.13,7.33-13.85,10C125.23,226.06,120.16,227.62,120.3,228Z"/><path class="cls-1" d="M193.91,70.38c-.62-.43-1.94.51-3,1.29-1.37,1-2.05,1.46-2,2,.15.92,2.68,1.16,4.16,1.07.78,0,1.58-.11,1.84-.61s-.23-.83-.62-2.42C194.06,70.74,194.13,70.53,193.91,70.38Z"/><path class="cls-1" d="M176.45,50.52A2,2,0,0,0,175,51.68a2.75,2.75,0,0,0,.19,3.1c.86.95,2.45,1.13,2.91.58.65-.8-1.1-3.11-.58-3.49.23-.17.69.21.77.1S177.58,50.43,176.45,50.52Z"/></g></svg>