<svg xmlns="http://www.w3.org/2000/svg" viewBox="0 0 256 256"><defs><style>.RGB-2pt-black-round-outline-on-white-bg{fill:#f6f6f6;stroke:#000;stroke-linecap:round;stroke-linejoin:round;stroke-width:2px;}</style></defs><g id="Overnight"><polygon class="RGB-2pt-black-round-outline-on-white-bg" points="151.18 220.72 80.63 42.8 199.63 -16.11 270.18 161.8 151.18 220.72"/><polygon class="RGB-2pt-black-round-outline-on-white-bg" points="28.53 188.56 80.06 43.02 150.61 220.94 28.53 188.56"/><path class="RGB-2pt-black-round-outline-on-white-bg" d="M197,4.42s42.25,110.09,15,135.91"/><path class="RGB-2pt-black-round-outline-on-white-bg" d="M100.53,56.53s66.36,112.56,103.52,112.09"/><path class="RGB-2pt-black-round-outline-on-white-bg" d="M150.61,220.94l-70-176.48,8.94,175C115.1,213.81,131.56,223.08,150.61,220.94Z"/><path class="RGB-2pt-black-round-outline-on-white-bg" d="M80.06,43s-4.45,155.86-25.5,172.56c0,0-5.15-21.12-26-27Z"/><line class="RGB-2pt-black-round-outline-on-white-bg" x1="254.85" y1="168.93" x2="255.14" y2="123.89"/><line class="RGB-2pt-black-round-outline-on-white-bg" x1="167.08" x2="206.01"/></g></svg>