<svg xmlns="http://www.w3.org/2000/svg" xmlns:xlink="http://www.w3.org/1999/xlink" viewBox="0 0 256 256"><defs><style>.cls-1,.cls-4,.cls-6,.cls-8,.cls-9{fill:none;}.cls-2{clip-path:url(#clip-path);}.cls-3,.cls-4{stroke:#fff;}.cls-3,.cls-4,.cls-5,.cls-6,.cls-7,.cls-8,.cls-9{stroke-miterlimit:10;}.cls-3,.cls-4,.cls-5,.cls-6,.cls-7,.cls-8{stroke-width:2px;}.cls-4,.cls-7,.cls-8,.cls-9{stroke-linecap:round;}.cls-5,.cls-7{fill:#fff;}.cls-5,.cls-6,.cls-7,.cls-8,.cls-9{stroke:#000;}.cls-9{stroke-width:1.89px;}</style><clipPath id="clip-path"><rect class="cls-1" width="256" height="256"/></clipPath></defs><g id="Warstwa_9" data-name="Warstwa 9"><g class="cls-2"><path class="cls-3" d="M125.45,75.32c-1.89-34.9-31.63-60.54-54.7-61.21s-51,31-52.06,65.94,17.12,61,39.93,64.46C85.24,148.53,127.5,113.13,125.45,75.32Z"/><path class="cls-4" d="M118.18,48.74C112.41,41,106.1,33.24,97.67,28.26A31.16,31.16,0,0,0,80.4,23.69a31.2,31.2,0,0,0-13,3.85C45.5,39.36,34.61,67.61,36.3,91.42c1.08,15.27,6.22,35.19,20.71,43.12,9.41,5.16,20.53,4.89,30.72,2.52"/><ellipse class="cls-3" cx="98.26" cy="85.13" rx="36.44" ry="24.45" transform="matrix(0.16, -0.99, 0.99, 0.16, -1.9, 168.02)"/><ellipse class="cls-3" cx="99.31" cy="99.23" rx="17.73" ry="12.06" transform="translate(-14.94 180.82) rotate(-80.51)"/><path class="cls-3" d="M100.35,100.51V92.45H98.92v8.06c-1.41.54-2.61,2.59-2.85,5.14-.28,3.07.93,5.7,2.72,5.86s3.46-2.19,3.75-5.26C102.8,103.49,101.84,101.1,100.35,100.51Z"/><path class="cls-3" d="M102.58,177.9V122.22s.87-9.44-3.61-12.16,2.58-3.81,2.58-3.81,4.86.91,5.62,11,0,61.59,0,61.59v3.91H102.5Z"/><path class="cls-5" d="M156,119.46a23.12,23.12,0,0,0-1.71,6.67c-.55,6.18,2.09,8.08,1.71,12.77-.44,5.44-4.17,5.24-6.1,11.63-2.1,7-.32,15.94,4,17.93,2.1,1,4.41.11,6.3,2.1,1.25,1.32.78,2.28,1.9,3.62,2,2.34,5.74,2.2,8.39,2.1a20.79,20.79,0,0,0,10.3-2.86c9-5.65,10.16-18.62,11.44-18.31.81.2-1,5.06,1.14,10.11.83,2,2.29,4.1,8.77,8.58,9.93,6.86,12.21,5.81,16,9.91,3.16,3.4,2.39,5,6.29,14.3,2.79,6.68,5.54,13.26,10.49,19.45a44.5,44.5,0,0,0,20,14.87c4.85,1.73,10.41,1.58,20.59,1.91,1.79.06,4.26-1.1,6.72.09,4,1.95,4.95,7.57,5.29,9.35C289.72,255,298.19,264,303,274.47c6.55,14.27,28.82,62.72,57.77,66.16s54.73-39.38,61.78-51.1c23.92-39.77,35.75-101.11,10.72-120.55-14.47-11.24-42.73-9.6-47.62-.43-2,3.72-.31,9-3.43,10.59-1.08.55-2.86.73-12-4.15-4.23-2.25-7.6-4.3-9.87-5.72A143,143,0,0,0,366.48,145c1.42-8.78,2.27-14.06,1.72-20.45-1.18-13.67-7.94-22.74-19.88-38.76-9.12-12.23-13.84-18.38-21.45-19.87-6-1.18-9.47,1.08-16.16-1.72-7.52-3.14-6.69-7.48-13.16-9.72-6.88-2.4-10.24,1.68-21.3,1.14-5.05-.25-4.74-1.15-12.87-2.57a120.85,120.85,0,0,0-23.17-1.86c-2.37.06-2.31.15-25.17,3.72-14.79,2.31-16.64,2.56-19.3,4.72-5,4-6,9.18-11.73,10.43-2.52.55-4.46,0-7.44,1.58a14.34,14.34,0,0,0-5.14,4.72c-5.22,7.33-8.43,17.09-8.73,18C158.23,108.19,159.74,109.31,156,119.46Z"/><path class="cls-6" d="M154.79,132.1a13.79,13.79,0,0,1,6.63,4.42c1.2,1.52,2.26,3.61,2.86,10.73.82,9.88,1.24,14.82-1.72,17-2.54,1.89-7.06,1.64-8.29,1.58a18.16,18.16,0,0,1-3.4-.52"/><path class="cls-6" d="M161,171.76a29,29,0,0,0,11.41-.73,29.74,29.74,0,0,0,7.05-2.95c2.95-1.65,8-4.48,10.78-9.92.71-1.39.35-1.15,2-5.53,1.37-3.63,2.65-6.54,3.54-8.47"/><path class="cls-6" d="M178.75,93.41A97.35,97.35,0,0,1,193,78.89C205.35,68.76,209.41,70.7,217.19,62c1.7-1.91,4.22-5,8.58-6.15a16,16,0,0,1,9.58.86c5.26,1.83,14.26,2.44,30.62-3.23"/><path class="cls-6" d="M221.28,189.43a39.84,39.84,0,0,0,14.07,8c3.66,1.17,9.13,2.92,15.87,1.43a25.69,25.69,0,0,0,8.87-3.86"/><polyline class="cls-3" points="143.19 110.06 99.31 102.01 99.31 92.86 100.11 92.86 100.11 99.05 143.47 103.94"/><path class="cls-3" d="M143.47,103.94a5,5,0,0,1,1-1.59c1.86-2,4.53-2.28,7.1-2,3.13.29,6.23.79,9.33,1.27q3.62.57,7.22,1.2l151.63,23s11.82,5.72,14.68,11.82,3.24,9.94-1.72,13.84-8.39,4.46-23.83,2.75-65.84-16.38-65.84-16.38l-2.23-.49L234.75,136l-9-2-11.05-2.41-12.16-2.65-12.38-2.71-11.68-2.55-10.07-2.2-7.56-1.65c-2.7-.59-5.42-1.17-8.17-1.5-2.09-.25-4.34-.34-6.19-1.45a5.07,5.07,0,0,1-1.67-1.62,13.18,13.18,0,0,1-1.68-5.72A12.11,12.11,0,0,1,143.47,103.94Z"/><circle class="cls-5" cx="154.6" cy="110.06" r="3.74"/><path class="cls-7" d="M278.58,55.63c-13.6,3-24.57,5.22-31.84,6.62-20.84,4-25.57,4.34-32.79,9C205.76,76.45,206,79.77,197,84c-5.74,2.68-10.53,3.54-17.16,8.58-4.66,3.54-6.13,6-6.87,7.63-.5,1.07-3.06,6.87-.57,13,1.74,4.26,5.05,6.43,7.82,8.2,7.8,5,15.79,5.32,22.5,5.53,7.61.24,13.93.43,21.16-2.67,7.79-3.34,10.84-8,19.26-8.58,3.1-.2,2.25.46,7.62.57,10.58.23,12.67-2.37,20.22-1.33,3,.41,2.18.75,10.1,2.48,7.29,1.58,9.05,1.53,10.68,1.14s5.17-1.59,8.58-6.29"/><path class="cls-7" d="M192.42,156.27c.12-2.15.42-7.43,3-11.65a23,23,0,0,1,9.53-8.39c5.93-3.06,11.26-3,17-3,4.44,0,11.1,0,18.5,3.25,4,1.73,3.7,2.45,13.73,9.53,11,7.8,11.68,7.16,16.78,11.63s4.92,5.58,11.05,10.87A123.14,123.14,0,0,0,293.45,177c10,6.87,14,8.25,15.64,8.77a38.87,38.87,0,0,0,7.24,1.52"/><path class="cls-5" d="M247.79,340.73c-.16-1.66-.51-2-3.15-7.72C237,316.43,237.38,314,231.2,302.12c-2.4-4.61-4.33-7.81-6.86-12-5.39-8.95-6.84-10.31-14-21.46-4.18-6.48-8-12.68-12.3-19.73-1.4-2.3-4.52-7.39-8.86-14-1-1.53-3.53-4.93-8.58-11.73a25.55,25.55,0,0,0-7.15-7.15,11.93,11.93,0,0,0-5.72-2.29c-3.72-.25-5.19,2-7.44,1.15-2.08-.79-2.09-3.2-3.72-6-2-3.53-4.58-4.12-10.58-7.72-8.48-5.09-7.5-6.37-14.87-10.58-3.66-2.1-3.53-1.57-12.87-5.72-14.68-6.53-16-8.3-21.45-8.58a26.49,26.49,0,0,0-14,3.14,27.58,27.58,0,0,0-11.15,12C69.5,195.51,69,199.14,68.18,204a67.42,67.42,0,0,0-.86,11c-3.86-2.31-7.14-4.09-9.53-5.34-8.12-4.24-10.54-4.74-11.82-4.95a26.07,26.07,0,0,0-9.73.38,28.85,28.85,0,0,0-14.11,8.2,23.5,23.5,0,0,0-6.48,10.86c-.79,3.28-.22,7.25,1,15.07.81,5.4,1.22,8.11,1.91,10.1,2.3,6.68,6.65,10.77,10.68,14.49,7.85,7.24,13.37,8.29,18.3,16.59.62,1,1.07,1.92,1.34,2.48q-6.67-3.87-14.3-8.2c-12.2-6.91-14.82-8.17-18.88-8.58-2-.19-10.9-1.09-17,4.77-3.16,3-4.07,6.49-5.34,11.25-1,3.61-3.39,12.74.38,22.31,1.36,3.44,3.58,6.36,8,12.2,3.11,4.09,5.94,7.31,8,9.53A19.18,19.18,0,0,1,1.16,325c-3.56-1.38-4-2.92-8.2-4.77-5.07-2.27-6-.72-8.77-2.67-4.21-3-2.82-7.1-6.68-9.72-3.54-2.41-8.17-1.28-10.29-.77-8.64,2.11-12.81,10.08-13.73,11.83a27.08,27.08,0,0,0-2.67,15.63s.79,8.13,5.15,14.3c9,12.72,43.46,5.32,58.15,2.86,57.18-9.57,117.77,5,155.78,14.11,18,4.31,40.87,11.07,59.49-.19C231.22,364.5,249,353.47,247.79,340.73Z"/><path class="cls-6" d="M199.74,172.09a34.3,34.3,0,0,0,13.44-.58,33.72,33.72,0,0,0,14.68-7.82c4.57-4.18,4.51-9.49,7.25-9.53.52,0,1.28.15,4.19,3.24,4.06,4.29,6.08,6.44,6.11,8,.08,5.42-13.37,11-25,12a48.3,48.3,0,0,1-14-.81"/><path class="cls-8" d="M77,191.59A30.58,30.58,0,0,1,89,184.25a31.69,31.69,0,0,1,21.45.86"/><path class="cls-8" d="M22.87,233.19C27.3,223.42,35.71,216,45.56,212"/><path class="cls-8" d="M36.13,242.74C40.55,233,49,225.59,58.82,221.57"/><path class="cls-8" d="M30.19,236.29a84.78,84.78,0,0,1,19.26-18.88"/><path class="cls-8" d="M81.42,196a28.44,28.44,0,0,1,15.45-7.44,27.92,27.92,0,0,1,12.39,1.15"/><path class="cls-9" d="M85.76,200.66a33.8,33.8,0,0,1,16.14-5.82,31.44,31.44,0,0,1,7.3.29"/><path class="cls-8" d="M67.32,215s29,24.22,35.18,25.74,6.77,1.53,11.15.76"/><path class="cls-6" d="M197,84l8.77,4.77a22.12,22.12,0,0,1-2.1,7c-1.48,3-3.38,5.06-10.3,11.06-2.3,2-5.19,4.47-8.58,7.25a22.09,22.09,0,0,1-10.1-6.68,20.88,20.88,0,0,1-2.78-4.26"/></g></g></svg>