<svg id="Radio" xmlns="http://www.w3.org/2000/svg" viewBox="0 0 256 256"><defs><style>.cls-1,.cls-2{fill:#1d1d1b;}.cls-1,.cls-4,.cls-5{stroke:#fff;stroke-linecap:round;stroke-linejoin:round;}.cls-1,.cls-4,.cls-5,.cls-6{stroke-width:2px;}.cls-3{fill:#fff;}.cls-4,.cls-6{fill:none;}.cls-6{stroke:#000;stroke-miterlimit:10;}</style></defs><path class="cls-1" d="M88.18,79.41a2.11,2.11,0,1,1-2.67,3.22L19.76,28a2.27,2.27,0,0,1-.52-3.15,2.28,2.28,0,0,1,3.2-.07Z"/><path class="cls-1" d="M111.92,92.14c2.16,1.79,1.78,5.82-.86,9s-6.51,4.28-8.67,2.49L83.63,88c-2.16-1.79-1.78-5.81.86-9s6.51-4.29,8.67-2.5Z"/><path class="cls-1" d="M76,93.39a2.12,2.12,0,1,1-2.68,3.22l-46-37.87A2.12,2.12,0,1,1,30,55.52Z"/><path class="cls-1" d="M99.7,106.13c2.15,1.79,1.77,5.81-.86,9s-6.52,4.29-8.68,2.5L71.4,102c-2.16-1.8-1.77-5.82.86-9s6.52-4.28,8.67-2.49Z"/><path class="cls-2" d="M166.28,208a1,1,0,0,1-.64-.23L66.51,125.45a1,1,0,0,1-.13-1.4l47.46-57.16a1,1,0,0,1,.68-.36h.09a1,1,0,0,1,.64.23l99.13,82.32a1,1,0,0,1,.36.68,1,1,0,0,1-.23.73l-47.46,57.16A1,1,0,0,1,166.28,208Z"/><path class="cls-3" d="M114.61,67.52l99.13,82.32L166.28,207,67.15,124.68l47.46-57.16m0-2a2,2,0,0,0-1.54.73L65.61,123.41a2,2,0,0,0-.45,1.46,1.94,1.94,0,0,0,.71,1.35L165,208.54a2,2,0,0,0,2.82-.26l47.46-57.16a2,2,0,0,0-.26-2.82L115.89,66a2,2,0,0,0-1.28-.47Z"/><rect class="cls-3" x="118.95" y="127.68" width="56.18" height="25.65" transform="translate(-54.99 163.86) rotate(-50.29)"/><path class="cls-2" d="M167.52,240.43a1.07,1.07,0,0,1-.35-.06,1,1,0,0,1-.65-.94l.06-31.35a1,1,0,0,1,.23-.64l47.46-57.16a1,1,0,0,1,.77-.36.92.92,0,0,1,.33.06,1,1,0,0,1,.67.92l.64,31.57a1,1,0,0,1-.24.67l-48.16,56.94A1,1,0,0,1,167.52,240.43Z"/><path class="cls-3" d="M215,150.92l.64,31.57-48.16,56.94.06-31.35L215,150.92m0-2a2,2,0,0,0-1.53.72L166,206.8a2,2,0,0,0-.46,1.28l-.06,31.35a2,2,0,0,0,1.31,1.88,2,2,0,0,0,2.22-.58l48.15-56.94a2,2,0,0,0,.47-1.34L217,150.88A2,2,0,0,0,215.7,149a2.12,2.12,0,0,0-.66-.11Z"/><path class="cls-2" d="M165.5,239.61a1,1,0,0,1-.63-.23L67.75,159.75a1,1,0,0,1-.36-.69l-2.65-32.6a1,1,0,0,1,1-1.08,1,1,0,0,1,.64.23l99.13,82.32a1,1,0,0,1,.36.75l.63,29.9a1,1,0,0,1-.56.93A1.13,1.13,0,0,1,165.5,239.61Z"/><path class="cls-3" d="M65.74,126.38l99.13,82.32.63,29.91L68.39,159l-2.65-32.6m0-2a2,2,0,0,0-2,2.17l2.65,32.59a2,2,0,0,0,.73,1.38l97.12,79.63a2,2,0,0,0,3.26-1.59l-.63-29.9a2.05,2.05,0,0,0-.72-1.5L67,124.84a2,2,0,0,0-1.27-.46Z"/><ellipse class="cls-1" cx="111.84" cy="111.96" rx="29.89" ry="18.83" transform="translate(-44.8 134.44) rotate(-53.2)"/><path class="cls-4" d="M96.85,130.27c8.1-19.12,12.61-24.27,29.83-36.43"/><path class="cls-4" d="M102.62,130.83c6.78-16.35,10.61-20.72,25.34-31"/><path class="cls-4" d="M95.09,123.78c6.69-16.43,10.53-20.79,25.34-30.95"/><path class="cls-4" d="M108.94,130.51c5.41-12.45,8.36-15.83,19.56-23.89"/><path class="cls-4" d="M93.41,116c5.37-12.48,8.33-15.86,19.56-23.88"/><path class="cls-4" d="M120.31,119.88l2.68,2.51"/><path class="cls-4" d="M123.49,116.57l2.14,2"/><path class="cls-4" d="M117.46,123.94l2.14,2"/><path class="cls-4" d="M98,181.77l0,.27A.3.3,0,0,1,98,181.77Z"/><path class="cls-4" d="M115.21,187.8c-5.46-.88-10.95-2.64-14.6-8.71l1.61-1.57Z"/><path class="cls-5" d="M126.47,189.72c-3.24-1.08-7.25-1.27-11.26-1.92-5.46-.88-10.95-2.64-14.6-8.71a18.42,18.42,0,0,1-1.09-2c-.35-.76-1-1.26-.43-1.84l4-4Z"/><line class="cls-4" x1="98.86" y1="175.69" x2="97.98" y2="181.77"/><path class="cls-5" d="M126.47,189.72l-.93,6.26c-8.1-2.72-20.8,1.17-26.78-11.72a14.41,14.41,0,0,1-.83-2.21h0l0-.27a.5.5,0,0,1,.18-.28L99,176.1c5,9.8,10.78,10.82,16.24,11.7C119.22,188.45,123.23,188.64,126.47,189.72Z"/><polyline class="cls-6" points="130.29 160.12 132.23 158 127.17 150.14 138.95 157.41 133.39 148.19 145.52 154.03 135.97 142.48 144.56 146.4 142.68 140.38 153.07 142.79 144.44 131.89 153.53 136.41 148.75 129.6 158.54 133.71 151.7 124.52 163.61 130.01 154.74 120.36 161.58 123.51 163.79 120.93"/></svg>