<svg xmlns="http://www.w3.org/2000/svg" viewBox="0 0 256 256"><defs><style>.cls-1{fill:#f6f6f6;stroke:#000;}.cls-1,.cls-3{stroke-linecap:round;stroke-linejoin:round;stroke-width:2px;}.cls-2{font-size:23.28px;fill:#fff;font-family:EurostileExt-Bla, Eurostile Extd;}.cls-3{fill:none;stroke:#f6f6f6;}</style></defs><g id="Orienteering"><path class="cls-1" d="M242.29,163.26c-11.81,56.89-72.89,92.31-136.43,79.13S.39,172.38,12.2,115.49l5.1-24.58C29.11,34,90.2-1.41,153.73,11.78s105.47,70,93.66,126.89Z"/><ellipse cx="136.6" cy="101.73" rx="76.07" ry="98.74" transform="translate(9.23 214.8) rotate(-78.27)"/><text class="cls-2" transform="matrix(0.87, -0.5, 0.63, 0.78, 81.02, 65.97)">N</text><polyline class="cls-1" points="95.69 63.64 122.11 104.39 132.38 97.32"/><path class="cls-1" d="M151.43,109.61c-1.29,6.23-9.41,9.82-18.13,8s-14.74-8.34-13.45-14.57c1.05-5.07,6.62-8.38,13.35-8.47A22.68,22.68,0,0,1,138,95C146.71,96.85,152.73,103.38,151.43,109.61Z"/><ellipse class="cls-1" cx="136.72" cy="101.15" rx="11.53" ry="16.13" transform="translate(9.89 214.46) rotate(-78.27)"/><line class="cls-3" x1="70.74" y1="139.97" x2="59.33" y2="146.29"/><line class="cls-3" x1="188.09" y1="152.15" x2="197.19" y2="161.5"/><line class="cls-3" x1="199.22" y1="66.59" x2="187.82" y2="72.91"/></g></svg>