<svg xmlns="http://www.w3.org/2000/svg" viewBox="0 0 256 256"><defs><style>.RGB-2pt-black-round-outline-on-white-bg,.cls-1{fill:#f6f6f6;}.RGB-2pt-black-round-outline-on-white-bg,.cls-6{stroke:#000;}.RGB-2pt-black-round-outline-on-white-bg,.RGB-2pt-white-round-outline-on-black-bg,.cls-5,.cls-6{stroke-linecap:round;stroke-width:2px;}.RGB-2pt-black-round-outline-on-white-bg,.RGB-2pt-white-round-outline-on-black-bg,.cls-5{stroke-linejoin:round;}.cls-2{fill:#1d1d1b;}.cls-3{fill:#fff;}.RGB-2pt-white-round-outline-on-black-bg,.cls-5{stroke:#f6f6f6;}.cls-4,.cls-5,.cls-6{fill:none;}.cls-4{stroke:#fff;stroke-miterlimit:10;}.cls-6{stroke-linejoin:bevel;}</style></defs><g id="Survival"><path d="M72.4,173.25a1,1,0,0,1-1-.78,1,1,0,0,1,0-.56l-4.58-1.43-2.57,1.2a1.12,1.12,0,0,1,.07.58,1,1,0,0,1-1,.82h0c-1.68-.08-3.2-.17-4.63-.29a1,1,0,0,1-.75-.43l-5.81-1.82-2.25,1a.87.87,0,0,1-.42.1h-.16l-2.15-.36a1,1,0,0,1-.82-.86,1,1,0,0,1,.57-1l.66-.31-4.16-1.3-3.52,1.64a1.06,1.06,0,0,1-.42.09.8.8,0,0,1-.27,0L37.4,169a1,1,0,0,1-.7-.89,1,1,0,0,1,.57-1l1.58-.74-4.16-1.3-3.12,1.45a.92.92,0,0,1-.42.1,1,1,0,0,1-.41-.09c-.51-.22-1-.45-1.49-.69a1,1,0,0,1,0-1.8l.85-.4L26,162.34l-1,.47a1.06,1.06,0,0,1-.42.09,1,1,0,0,1-.59-.19c-.4-.29-.78-.58-1.14-.88a1,1,0,0,1-.35-.59l-.33-.11a1,1,0,0,1-.38-.22,16.64,16.64,0,0,1-1.37-1.41,1,1,0,0,1-.08-1.2,1,1,0,0,1,.16-.2l-.13.07a1.06,1.06,0,0,1-.42.09,1,1,0,0,1-.84-.45c-.25-.38-.47-.76-.67-1.14a1,1,0,0,1-.07-.79,1,1,0,0,1,.37-.5l-.53-.17a1,1,0,0,1-.66-.65c-.11-.37-.21-.74-.29-1.11a1,1,0,0,1,.31-.95,1.17,1.17,0,0,1,.28-.17,1,1,0,0,1-.34-.14,1,1,0,0,1-.47-.83,12.41,12.41,0,0,1,.08-1.53,1.2,1.2,0,0,1,.08-.27,1,1,0,0,1,0-.24,9.6,9.6,0,0,1,.19-1,1,1,0,0,1,.48-.63,1,1,0,0,1,.49-.12,1,1,0,0,1,.3,0l1.21.38,2.12-1-2.55-.8a1,1,0,0,1-.57-1.45c.15-.28.32-.55.49-.83a1,1,0,0,1,.85-.46h.14a1,1,0,0,1,.1-1.08,26,26,0,0,1,2.13-2.4,1,1,0,0,1,.28-.2l2.71-1.26a1,1,0,0,1,.22-1.35l.19-.14c.22-.18.45-.36.69-.53a1,1,0,0,1,.59-.2,1,1,0,0,1,.3,0l1.6.5,2.12-1-.48-.15a1,1,0,0,1-.7-.83,1,1,0,0,1,.48-1c.25-.15.5-.3.76-.44l.3-.18a1.09,1.09,0,0,1,.5-.13,1,1,0,0,1,.3,0l2.73.85,2.12-1-1-.31a1,1,0,0,1-.7-.88,1,1,0,0,1,.57-1l1-.51a1.57,1.57,0,0,1,.62-.14.75.75,0,0,1,.23,0l3.11,1,2.11-1-.75-.24a1,1,0,0,1-.7-.92,1,1,0,0,1,.63-1l1-.4.31-.12a1.07,1.07,0,0,1,.35-.06,1,1,0,0,1,.3,0l2.7.85,2.16-1a1,1,0,0,1,.23-1.8l1.49-.47a1,1,0,0,1,.3,0,.92.92,0,0,1,.29,0l1.54.48L56.77,124a1,1,0,0,1,.67-.57c2.21-.55,4.5-1.06,6.8-1.53l.2,0a1,1,0,0,1,.42,1.91l-1.14.53,4.16,1.3,2.12-1-3.82-1.19a1,1,0,0,1,.12-1.94l1.88-.35h.18a.93.93,0,0,1,.29,0l5.24,1.63,2.13-1a1,1,0,0,1,.3-1.89q1.08-.15,2.16-.27h.11a1,1,0,0,1,.3,0l1,.32,1.25-.58a.9.9,0,0,1,.32-.09q1.79-.16,3.57-.3h.08a1,1,0,0,1,.42,1.9l-1.07.5,4.16,1.3,2.12-1-3-1a1,1,0,0,1-.69-1.08,1,1,0,0,1,.93-.87c.86,0,1.72-.1,2.58-.13h0a1,1,0,0,1,.3,0L94.63,120l2.76-1.29a1,1,0,0,1,.42-.09h0c1,0,1.92,0,2.87,0a1,1,0,0,1,.8.42,1,1,0,0,1,.78-.38h0c1.16,0,2.31.08,3.45.14a1,1,0,0,1,.24,0l3.38,1.06,1.32-.61a1.07,1.07,0,0,1,.43-.09h.09l2.4.25a1,1,0,0,1,.87.83,1,1,0,0,1-.54,1.06l4.16,1.3,3.8-1.77a1,1,0,0,1,.42-.09.62.62,0,0,1,.19,0l2,.41a1,1,0,0,1,.78.87,1,1,0,0,1-.57,1l-2.09,1,4.16,1.3,4.52-2.1a1,1,0,0,1,.42-.09,1.06,1.06,0,0,1,.31,0c.58.19,1.16.38,1.72.58a1,1,0,0,1,.09,1.85l-2.49,1.15,4.16,1.31,3.6-1.68a1,1,0,0,1,.87,0c.48.24.93.5,1.38.75a1,1,0,0,1,.51.91,1,1,0,0,1-.58.87l-1.21.56,4.16,1.3.88-.41a1.06,1.06,0,0,1,.42-.09,1,1,0,0,1,.67.25c.35.31.68.63,1,1a.88.88,0,0,1,.2.3.89.89,0,0,1,.29.22,16.19,16.19,0,0,1,1.1,1.33,1,1,0,0,1,0,1.18,1,1,0,0,1-.81.42,1,1,0,0,1-.3,0l-2.78-.87-2.11,1,4.15,1.3,2-.93a1.07,1.07,0,0,1,.43-.09,1,1,0,0,1,.34.06,1,1,0,0,1,.57.53,10,10,0,0,1,.48,1.25,1,1,0,0,1,0,.51,1.06,1.06,0,0,1,.25.48,10.18,10.18,0,0,1,.19,1.08,1,1,0,0,1-1,1.12,1,1,0,0,1-.3,0l-2.31-.73-2.12,1,4.16,1.3a1,1,0,0,1,.39-.08,1,1,0,0,1,.62.22,1,1,0,0,1,.36,1,12.1,12.1,0,0,1-.48,1.69,1,1,0,0,1-.52.57l-1.81.84.31.1a1,1,0,0,1,.63.6,1,1,0,0,1-.08.88c-.17.27-.36.54-.55.81a1,1,0,0,1-.82.43,1,1,0,0,1-.3,0l-3.08-1-2.12,1,3.32,1a1,1,0,0,1,.41,1.65c-.19.2-.41.4-.62.6l-.13.13a1,1,0,0,1-.69.27,1,1,0,0,1-.3,0l-.1,0a1,1,0,0,1-.31,1.06,46.17,46.17,0,0,1-5.47,3.93l-.11.06-1,.45a1.1,1.1,0,0,1-.34.34l-.26.15-.81.46a1,1,0,0,1-.48.13,1,1,0,0,1-.3,0h0l-3.25,1.52a1,1,0,0,1-.56.76l-.14.06c-.22.11-.47.22-.71.32l-.39.18a1.15,1.15,0,0,1-.41.08,1,1,0,0,1-.3,0l-.24-.08-3.75,1.75a1.05,1.05,0,0,1-.51.44l-.42.16-.94.35a.85.85,0,0,1-.31.06l-.4.19q-4.35,1.54-9,2.81a1.26,1.26,0,0,1-.27,0,1,1,0,0,1-.93-.66,1,1,0,0,1,.12-.92l-4.35-1.36-2.12,1,3.41,1.07a1,1,0,0,1,.7,1,1,1,0,0,1-.77.94l-1.72.4a.78.78,0,0,1-.22,0,1,1,0,0,1-.3,0l-5-1.56-2.12,1,.45.14a1,1,0,0,1-.13,1.94c-.64.12-1.28.23-1.93.33l-.16,0a1,1,0,0,1-.3-.05l-1.82-.57-2.85,1.33a1.4,1.4,0,0,1-.29.09c-1.63.21-3.3.41-5.1.59H88a.93.93,0,0,1-.29-.05l-6.09-1.9-2.44,1.13a1,1,0,0,1,.15.66,1,1,0,0,1-1,.87c-.89,0-1.78.08-2.67.1h-.25c-1,0-2,.05-3,.06ZM60.19,170l2.13-1-4.16-1.31-2.12,1ZM74.93,170l2.12-1-4.16-1.3-2.12,1Zm14.74-.06,2.12-1-4.16-1.3-2.12,1Zm-38.2-2.61,2.12-1L49.43,165l-2.12,1Zm14.73-.06,2.12-1L64.16,165l-2.12,1Zm14.74-.07,2.12-1-4.16-1.31-2.12,1Zm14.73-.06,2.12-1-4.16-1.31-2.12,1Zm-52.93-2.55,2.12-1-4.16-1.31-2.12,1Zm14.73-.06,2.12-1-4.16-1.3-2.12,1Zm14.74-.06,2.12-1-4.16-1.3-2.12,1Zm14.73-.06,2.12-1-4.16-1.3-2.12,1Zm14.74-.06,2.12-1L99.64,162l-2.12,1Zm14.73-.07,2.12-1L114.37,162l-2.12,1ZM34,161.83l2.12-1L32,159.54l-2.12,1Zm14.73-.06,2.12-1-4.16-1.3-2.12,1Zm14.74-.06,2.12-1-4.16-1.3-2.12,1Zm14.73-.07,2.12-1-4.16-1.31-2.12,1ZM93,161.58l2.12-1-4.16-1.3-2.12,1Zm14.73-.06,2.12-1-4.16-1.3-2.12,1Zm14.74-.06,2.12-1-4.16-1.3-2.12,1Zm-101.3-3.62a1,1,0,0,1,.3,0l3.86,1.21,2.12-1-4.16-1.3-2.25,1ZM40,159l2.12-1L38,156.74l-2.12,1ZM54.75,159l2.12-1-4.16-1.3-2.12,1Zm14.73-.06,2.12-1-4.15-1.3-2.12,1Zm14.74-.06,2.12-1-4.16-1.3-2.12,1ZM99,158.78l2.11-1-4.15-1.3-2.12,1Zm14.73-.06,2.12-1-4.16-1.31-2.12,1Zm14.73-.06,2.12-1-4.15-1.3-2.12,1ZM31.29,156.3l2.12-1L29.25,154l-2.12,1ZM46,156.24l2.12-1L44,154l-2.12,1Zm14.74-.07,2.12-1-4.16-1.31-2.12,1Zm14.73-.06,2.12-1-4.16-1.31-2.12,1Zm14.74-.06,2.12-1-4.16-1.3-2.12,1ZM105,156l2.12-1-4.16-1.3-2.12,1Zm14.74-.06,2.12-1-4.16-1.3-2.12,1Zm14.73-.07,2.12-1-4.16-1.31-2.12,1ZM18.49,152.29l4.07,1.27,2.12-1-4.16-1.3-2.13,1Zm18.8,1.21,2.12-1-4.16-1.3-2.12,1ZM52,153.44l2.12-1L50,151.15l-2.12,1Zm14.73-.06,2.12-1-4.16-1.3-2.12,1Zm14.74-.06,2.12-1L79.46,151l-2.12,1Zm14.73-.07,2.12-1L94.19,151l-2.12,1Zm14.74-.06,2.12-1-4.16-1.3-2.12,1Zm14.73-.06,2.12-1-4.16-1.3-2.12,1Zm14.74-.06,2.12-1-4.16-1.3-2.12,1Zm-111.88-2.3,2.12-1-4.16-1.3-2.12,1Zm14.74-.06,2.12-1-4.16-1.3-2.12,1ZM58,150.64l2.12-1L56,148.35l-2.12,1Zm14.74-.06,2.12-1-4.16-1.3-2.12,1Zm14.73-.06,2.12-1-4.16-1.3-2.12,1Zm14.74-.06,2.12-1-4.16-1.3-2.12,1Zm14.73-.07,2.12-1-4.16-1.3-2.12,1Zm14.74-.06,2.12-1L129.67,148l-2.12,1ZM34.57,148l2.12-1-4.16-1.3-2.12,1Zm14.73-.06,2.12-1-4.16-1.3-2.12,1ZM64,147.85l2.12-1L62,145.56l-2.12,1Zm14.73-.06,2.12-1-4.16-1.3-2.12,1Zm14.74-.07,2.12-1-4.16-1.31-2.12,1Zm14.73-.06,2.12-1-4.15-1.3-2.12,1ZM123,147.6l2.12-1-4.16-1.3-2.12,1Zm14.73-.06,2.12-1-4.15-1.3-2.12,1Zm-111.87-2.3,2.12-1L23.8,143l-2.12,1Zm14.73-.07,2.12-1-4.15-1.3-2.12,1Zm14.74-.06,2.12-1-4.16-1.31-2.12,1ZM70,145.05l2.13-1L68,142.76l-2.12,1ZM84.78,145l2.12-1-4.16-1.3-2.12,1Zm14.74-.06,2.12-1-4.16-1.3-2.12,1Zm14.73-.07,2.12-1-4.16-1.31-2.12,1ZM129,144.8l2.12-1-4.16-1.3-2.12,1Zm14.73-.06,2.12-1-4.16-1.3-2.12,1Zm-111.87-2.3,2.12-1-4.16-1.3-2.12,1Zm14.73-.06,2.12-1-4.16-1.3-2.12,1Zm14.74-.06,2.12-1L59.28,140l-2.12,1Zm14.73-.07,2.12-1L74,140l-2.12,1Zm14.74-.06,2.12-1-4.16-1.31-2.12,1Zm14.73-.06,2.12-1-4.16-1.3-2.12,1Zm14.74-.06,2.12-1-4.16-1.3-2.12,1ZM135,142l2.12-1-4.16-1.3-2.12,1Zm-97.14-2.36,2.12-1-4.16-1.31-2.12,1Zm14.74-.06,2.12-1-4.16-1.3-2.12,1Zm14.73-.06,2.12-1-4.16-1.3-2.12,1Zm14.74-.06,2.12-1L80,137.17l-2.12,1Zm14.73-.06,2.12-1-4.16-1.3-2.12,1Zm14.74-.07,2.12-1L109.49,137l-2.12,1Zm14.73-.06,2.12-1-4.16-1.3-2.12,1Zm14.74-.06,2.12-1-4.16-1.3-2.12,1Zm-97.14-2.36,2.12-1-4.16-1.3-2.12,1Zm14.73-.06,2.12-1-4.16-1.3-2.12,1Zm14.74-.07,2.12-1-4.16-1.31-2.12,1Zm14.73-.06,2.12-1L86,134.37l-2.12,1Zm14.74-.06,2.12-1-4.16-1.3-2.12,1Zm14.73-.06,2.12-1-4.16-1.3-2.11,1Zm14.74-.07,2.12-1-4.16-1.31-2.12,1Zm-82.41-2.42,2.12-1-4.15-1.3-2.12,1ZM64.6,134l2.12-1-4.16-1.3-2.12,1Zm14.73-.06,2.12-1-4.16-1.3-2.12,1Zm14.74-.07,2.12-1L92,131.58l-2.12,1Zm14.74-.06,2.11-1-4.15-1.31-2.12,1Zm14.73-.06,2.12-1-4.16-1.3-2.12,1Zm14.73-.06,2.13-1-4.16-1.3-2.12,1Zm-82.4-2.43,2.12-1L53.83,129l-2.12,1Zm14.74-.06,2.12-1-4.16-1.31-2.12,1Zm14.73-.06,2.12-1-4.16-1.3-2.12,1Zm14.74-.06,2.11-1L98,128.78l-2.12,1Zm14.73-.06,2.12-1-4.16-1.3-2.12,1Zm14.74-.07,2.12-1-4.16-1.31-2.12,1Zm-67.67-2.48,2.12-1-4.16-1.3-2.12,1Zm14.73-.06,2.12-1-4.16-1.3-2.12,1Zm14.74-.07,2.12-1L89.31,126l-2.12,1Zm14.73-.06,2.12-1L104,126l-2.12,1Zm14.74-.06,2.12-1-4.16-1.3-2.12,1Zm-38.2-2.61,2.12-1-4.16-1.3-2.12,1Zm14.73-.06,2.12-1-4.16-1.3-2.12,1Zm14.74-.07,2.12-1-4.16-1.3-2.12,1Zm-8.73-2.73,2.12-1-3.52-1.1a1,1,0,0,1-.51-.38,1.06,1.06,0,0,1-.37.29l-1.88.88Z"/><path class="cls-1" d="M97.81,119.63l2.85,0-4.22,2,7,2.19,4.81-2.24-6-1.87c1.15,0,2.29.08,3.43.14l3.75,1.17,1.67-.77c.8.07,1.59.15,2.38.24l-2.32,1.08,7,2.19,4.15-1.93,2,.41-4.43,2.06,7,2.19,4.87-2.26c.58.18,1.15.37,1.7.56L128.63,127l7,2.19,3.95-1.84c.46.24.9.48,1.34.73l-3.55,1.65,7,2.19,1.24-.57c.33.3.64.6.95.91l-.45.21.91.28a15.09,15.09,0,0,1,1,1.26l-3.15-1-4.81,2.24,7,2.19,2.36-1.09a10.68,10.68,0,0,1,.44,1.14l-1.06.5,1.32.41c.07.33.13.65.17,1l-2.68-.84-4.81,2.24,7,2.19.32-.15a11.39,11.39,0,0,1-.44,1.56l-4.15,1.93,2.77.87c-.16.26-.34.51-.52.77l-3.45-1.08-4.81,2.24L145.3,151l-.73.7-6.24-1.95L133.52,152l7,2.19,2.7-1.26a44.28,44.28,0,0,1-5.35,3.84l-1.62.76.23.07c-.34.2-.68.41-1,.6L135,158l-4.81,2.24.64.2-.12.06-1.1.49-.61-.19-4.81,2.24.26.08c-.45.17-.89.35-1.34.51l-.12,0-.67.31c-2.83,1-5.78,1.93-8.83,2.76l1.76-.82-7-2.19-4.81,2.24,5.87,1.84-1.71.4-5.36-1.68-4.81,2.24,2.91.91-1.92.33-2.19-.69-3.2,1.49c-1.69.23-3.38.42-5.08.6l-6.45-2-4.81,2.24,1.6.5-2.66.09-.14,0-.11.05q-1.52,0-3,.06l1.41-.65-7-2.19L62,171.65l1.39.43c-1.55-.07-3.09-.16-4.6-.29l.28-.13-7-2.19-2.6,1.21c-.72-.12-1.43-.23-2.14-.36l3-1.39-7-2.19-3.87,1.8L37.69,168l3.92-1.83-7-2.19-3.47,1.62c-.51-.22-1-.45-1.46-.68l3.19-1.48-7-2.19-1.36.63c-.39-.28-.75-.56-1.1-.84l.72-.34-1.73-.54a18.12,18.12,0,0,1-1.3-1.34l4.23,1.33,4.81-2.24-7-2.19-3.27,1.52a10.55,10.55,0,0,1-.63-1.06l2.16-1-3-.93a9.43,9.43,0,0,1-.27-1l4.44,1.38,4.81-2.24-7-2.19L18,151.35a10.9,10.9,0,0,1,.08-1.39l.64-.3-.56-.18c.05-.29.09-.58.17-.87l1.58.49,4.82-2.24-5-1.57c.15-.26.3-.52.47-.78l5.74,1.8,4.81-2.24-7-2.19-2.53,1.18a25,25,0,0,1,2-2.31L28,138.54,26.36,138c.29-.22.56-.44.86-.66l2,.62L34,135.74l-2.94-.92c.33-.21.69-.41,1-.61l3.1,1L40,132.94l-3.45-1.08c.35-.17.69-.34,1-.5l.12-.06,3.48,1.09L46,130.15l-3.22-1c.44-.18.89-.34,1.34-.51l3.07,1L52,127.35l-2.19-.69,1.49-.46,1.9.59L58,124.55l-.35-.11q3.33-.82,6.76-1.52L61,124.54l7,2.19,4.81-2.24-6.28-2,1.88-.34,5.6,1.75,4.81-2.23L76.45,121l2.14-.26,1.38.43,1.59-.74c1.18-.12,2.36-.21,3.55-.3l-3.41,1.58,7,2.19,4.82-2.24L88,119.9l2.56-.12,4.15,1.3,3.11-1.45m14.35,6.91L117,124.3l-7-2.19-4.81,2.24,7,2.19m-14.74.07,4.81-2.24-7-2.19-4.81,2.24,7,2.19m-14.73.06,4.81-2.24-7-2.19-4.81,2.24,7,2.19m38.2,2.61L125.7,127l-7-2.19-4.81,2.24,7,2.19m-14.74.06L111,127.1l-7-2.19-4.81,2.24,7,2.19m-14.73.06,4.81-2.24-7-2.19-4.81,2.24,7,2.19m-14.74.07,4.81-2.24-7-2.19-4.81,2.24,7,2.19M62,129.53l4.81-2.24-7-2.19L55,127.34l7,2.19M129.62,132l4.81-2.24-7-2.19-4.81,2.24,7,2.19m-14.74.07,4.81-2.24-7-2.19-4.81,2.24,7,2.19m-14.73.06L105,129.9l-7-2.19L93.15,130l7,2.19m-14.74.06L90.22,130l-7-2.19L78.42,130l7,2.19m-14.73.06L75.49,130l-7-2.19-4.82,2.24,7,2.19m-14.74.06,4.81-2.24-7-2.19L49,130.13l7,2.19m82.41,2.43,4.81-2.24-7-2.19-4.82,2.24,7,2.19m-14.74.06,4.81-2.24-7-2.19-4.81,2.24,7,2.19m-14.73.06,4.81-2.24-7-2.19-4.81,2.24,7,2.19m-14.74.06L99,132.69l-7-2.19-4.81,2.24,7,2.19M79.41,135l4.81-2.24-7-2.19-4.81,2.24,7,2.19m-14.74.06,4.81-2.24-7-2.19-4.81,2.24,7,2.19m-14.73.06,4.81-2.24-7-2.19-4.81,2.24,7,2.19m82.4,2.42,4.81-2.24-7-2.19-4.81,2.24,7,2.19m-14.74.07,4.82-2.24-7-2.19-4.81,2.24,7,2.19m-14.73.06,4.81-2.24-7-2.19-4.81,2.24,7,2.19m-14.74.06,4.81-2.24-7-2.19-4.81,2.24,7,2.19m-14.73.06,4.81-2.24-7-2.19-4.81,2.24,7,2.19m-14.74.07,4.81-2.24-7-2.19-4.81,2.24,7,2.19m-14.73.06,4.81-2.24-7-2.19-4.81,2.24,7,2.19m97.14,2.36,4.81-2.24-7-2.19-4.81,2.24,7,2.19m-14.74.06,4.81-2.24-7-2.19-4.81,2.24,7,2.19m-14.73.06,4.81-2.24-7-2.19-4.81,2.24,7,2.19m-14.74.07,4.81-2.24-7-2.19-4.81,2.24,7,2.19m-14.73.06,4.81-2.24-7-2.19-4.81,2.24,7,2.19m-14.74.06,4.81-2.24-7-2.19L60.4,138.4l7,2.19m-14.73.06,4.81-2.24-7-2.19-4.81,2.24,7,2.19m-14.74.06,4.81-2.24-7-2.19-4.81,2.24,7,2.19m97.14,2.37,4.81-2.24-7-2.19-4.81,2.24,7,2.19m-14.73.06,4.81-2.24-7-2.19L113.34,141l7,2.19m-14.74.06L110.4,141l-7-2.19L98.6,141l7,2.19m-14.73.06L95.67,141l-7-2.19-4.81,2.24,7,2.19m-14.74.06,4.81-2.24-7-2.19-4.81,2.24,7,2.19m-14.73.07,4.81-2.24-7-2.19L54.4,141.2l7,2.19m-14.74.06,4.81-2.24-7-2.19-4.81,2.24,7,2.19m-14.73.06,4.81-2.24-7-2.19-4.81,2.24,7,2.19m111.87,2.3,4.81-2.24-7-2.19-4.81,2.24,7,2.19m-14.73.06,4.81-2.24-7-2.19-4.82,2.24,7,2.19m-14.74.06,4.81-2.24-7-2.19-4.81,2.24,7,2.19M99.59,146l4.81-2.24-7-2.19-4.82,2.24,7,2.19m-14.74.06,4.81-2.24-7-2.19-4.81,2.24,7,2.19m-14.73.06,4.81-2.24-7-2.19-4.81,2.24,7,2.19m-14.74.06,4.81-2.24-7-2.19L48.39,144l7,2.19m-14.73.07L45.46,144l-7-2.19-4.81,2.23,7,2.2m97.14,2.36,4.81-2.24-7-2.19-4.81,2.24,7,2.19m-14.74.06,4.81-2.24-7-2.19-4.81,2.24,7,2.19m-14.73.06,4.81-2.24-7-2.19-4.81,2.24,7,2.19m-14.74.06,4.81-2.24-7-2.19-4.81,2.24,7,2.19m-14.73.07,4.81-2.24-7-2.2-4.81,2.24,7,2.2m-14.74.06,4.81-2.24-7-2.19-4.81,2.24,7,2.19M49.37,149l4.82-2.24-7-2.19-4.81,2.24,7,2.19M34.64,149l4.81-2.24-7-2.19-4.81,2.24,7,2.19m97.14,2.36,4.81-2.24-7-2.19-4.81,2.24,7,2.19m-14.74.07,4.81-2.24-7-2.19-4.81,2.24,7,2.19m-14.73.06,4.81-2.24-7-2.19-4.81,2.24,7,2.19m-14.74.06,4.81-2.24-7-2.19-4.81,2.24,7,2.19m-14.73.06,4.81-2.24-7-2.19-4.81,2.24,7,2.19m-14.74.06,4.81-2.24-7-2.19-4.81,2.24,7,2.19m-14.73.07,4.81-2.24-7-2.19-4.81,2.24,7,2.19m-14.74.06,4.81-2.24-7-2.19-4.81,2.24,7,2.19m97.14,2.36,4.81-2.24-7-2.19L118.78,152l7,2.19m-14.73.06,4.81-2.24-7-2.19-4.81,2.24,7,2.19m-14.74.06,4.81-2.24-7-2.19-4.81,2.24,7,2.19m-14.73.07,4.81-2.24-7-2.19-4.81,2.24,7,2.19m-14.74.06,4.81-2.24-7-2.19-4.81,2.24,7,2.19m-14.73.06,4.81-2.24-7-2.19-4.81,2.24,7,2.19m-14.74.06,4.81-2.24-7-2.19-4.81,2.24,7,2.19m97.14,2.36,4.81-2.24-7-2.19-4.81,2.24,7,2.19m-14.73.07,4.81-2.24-7-2.19-4.81,2.24,7,2.19m-14.74.06,4.81-2.24-7-2.19L98,154.87l7,2.19m-14.73.06,4.81-2.24-7-2.19-4.81,2.24,7,2.19m-14.74.06,4.81-2.24-7-2.19L68.57,155l7,2.19m-14.73.06L65.64,155l-7-2.19-4.82,2.24,7,2.19m-14.74.07,4.81-2.24-7-2.19-4.81,2.24,7,2.19m-14.73.06,4.81-2.24-7-2.19-4.82,2.24,7,2.19m97.14,2.36,4.81-2.24-7-2.19-4.81,2.24,7,2.19m-14.74.06,4.81-2.24-7-2.19-4.81,2.24,7,2.19M99,159.85l4.81-2.24-7-2.19L92,157.66l7,2.19m-14.74.07,4.81-2.24-7-2.19-4.81,2.24,7,2.19M69.56,160l4.81-2.24-7-2.19-4.81,2.24,7,2.19M54.82,160l4.81-2.24-7-2.19-4.81,2.24,7,2.19m-14.74.06,4.82-2.24-7-2.19-4.81,2.24,7,2.19m82.41,2.43,4.81-2.24-7-2.19-4.81,2.24,7,2.19m-14.74.06,4.82-2.24-7-2.19-4.81,2.24,7,2.19M93,162.65l4.81-2.24-7-2.19L86,160.46l7,2.19m-14.74.06,4.82-2.24-7-2.19-4.81,2.24,7,2.19m-14.73.07,4.81-2.24-7-2.19-4.81,2.24,7,2.19m-14.74.06,4.82-2.24-7-2.19-4.81,2.24,7,2.19m-14.73.06,4.81-2.24-7-2.19-4.81,2.24,7,2.19m82.4,2.42,4.81-2.24-7-2.19-4.81,2.24,7,2.19m-14.73.07,4.81-2.24-7-2.19-4.81,2.24,7,2.19M87,165.45l4.81-2.24-7-2.19L80,163.26l7,2.19m-14.73.06,4.81-2.24-7-2.19-4.81,2.24,7,2.19m-14.74.06,4.81-2.24-7-2.19-4.81,2.24,7,2.19m-14.73.07,4.81-2.25-7-2.19-4.82,2.24,7,2.2m52.93,2.54,4.81-2.24-7-2.19L88.75,166l7,2.19M81,168.24,85.82,166l-7-2.19L74,166.05l7,2.19m-14.74.07,4.81-2.24-7-2.19-4.81,2.24,7,2.19m-14.73.06,4.81-2.24-7-2.19-4.82,2.24,7,2.19M89.74,171l4.81-2.24-7-2.19-4.82,2.24,7,2.19M75,171l4.81-2.24-7-2.19L68,168.85,75,171m-14.74.06,4.82-2.24-7-2.19-4.82,2.24,7,2.19m37.55-53.47a2,2,0,0,0-.84.18l-2.41,1.13-3.41-1.07a2.08,2.08,0,0,0-.6-.09h-.09c-.86,0-1.72.08-2.59.13a2,2,0,0,0-1.41.71,2,2,0,0,0-1.35-.52H85c-1.29.1-2.47.2-3.59.31a2.14,2.14,0,0,0-.66.17l-.89.42-.63-.2a2.08,2.08,0,0,0-.6-.09h-.22L76.2,119a2,2,0,0,0-1.74,1.81,1.73,1.73,0,0,0,.05.68l-.69.32L69,120.27a2,2,0,0,0-.94-.06l-1.9.35a2.06,2.06,0,0,0-1,.48,2,2,0,0,0-.69-.12,1.72,1.72,0,0,0-.39,0c-2.32.47-4.63,1-6.86,1.54a2,2,0,0,0-1.12.76l-3,1.39-1.17-.36a2,2,0,0,0-.59-.09,2.2,2.2,0,0,0-.58.08l-1.52.48a2,2,0,0,0-1.39,1.91,1.9,1.9,0,0,0,0,.41l-.8.37-2.33-.73a2,2,0,0,0-.6-.09,1.89,1.89,0,0,0-.7.13l-.38.14-1,.38a2,2,0,0,0-1.27,1.93,2,2,0,0,0,.32,1l-.06,0-2.73-.86a2,2,0,0,0-.6-.09,1.94,1.94,0,0,0-.84.19l-.13,0-.7.34-.37.18A2,2,0,0,0,34.57,132a1.94,1.94,0,0,0,.35,1l-2.22-.7a2.08,2.08,0,0,0-.6-.09,2,2,0,0,0-1,.27l-.3.17-.78.45a2,2,0,0,0-.95,2,1.87,1.87,0,0,0,.21.68l-.23.11-1.23-.39a2.08,2.08,0,0,0-.6-.09,2,2,0,0,0-1.18.39c-.25.18-.48.36-.7.54l-.21.16a2,2,0,0,0-.77,1.57l-2,.92a1.9,1.9,0,0,0-.57.4,25.44,25.44,0,0,0-2.21,2.49,2,2,0,0,0-.4.91,2,2,0,0,0-.74.69c-.19.29-.36.58-.52.88a2,2,0,0,0-.12,1.72,1.91,1.91,0,0,0,.35.58,2,2,0,0,0-.84.25,2,2,0,0,0-1,1.25c-.09.35-.14.67-.19.95v.09a1,1,0,0,0,0,.24,1.65,1.65,0,0,0-.07.32,11.09,11.09,0,0,0-.09,1.66,2,2,0,0,0,.35,1.11,2.09,2.09,0,0,0-.11,1.16c.08.39.19.79.32,1.22a2,2,0,0,0,.74,1,2,2,0,0,0,.21,1.26,14,14,0,0,0,.73,1.22,2,2,0,0,0,.91.75,2,2,0,0,0,.48,1,18.31,18.31,0,0,0,1.44,1.48,1.83,1.83,0,0,0,.63.4,2,2,0,0,0,.47.56c.38.31.78.62,1.19.92a2,2,0,0,0,1.18.38,2.08,2.08,0,0,0,.84-.18l.66-.31,1.89.59a2,2,0,0,0,.9,2.74c.49.24,1,.48,1.52.71a2.06,2.06,0,0,0,.81.17,1.94,1.94,0,0,0,.84-.19l2.77-1.29,1.51.47a2,2,0,0,0,.84,3.32c.61.18,1.21.37,1.83.54a2,2,0,0,0,.54.07,1.94,1.94,0,0,0,.84-.19l3.17-1.47,2,.63a1.94,1.94,0,0,0-.16,1.07A2,2,0,0,0,47,172.29c.72.13,1.44.25,2.18.36a1.63,1.63,0,0,0,.31,0,2,2,0,0,0,.85-.19l1.89-.88,5.18,1.62a2,2,0,0,0,1.22.56c1.43.11,3,.21,4.68.29h.09a2,2,0,0,0,2-1.65.77.77,0,0,0,0-.15l1.58-.73,3.48,1.09v.05a2,2,0,0,0,2,1.56h0c1,0,2,0,3.07-.06h.25c.89,0,1.79-.06,2.69-.1a2,2,0,0,0,1.89-1.74c0-.07,0-.15,0-.22l1.35-.63,5.72,1.79a2,2,0,0,0,.59.09h.21c1.82-.19,3.5-.39,5.13-.6a2.28,2.28,0,0,0,.58-.17l2.51-1.17,1.44.46a2,2,0,0,0,.6.09,1.66,1.66,0,0,0,.32,0l1.95-.33a2,2,0,0,0,1.64-1.85,2,2,0,0,0-.2-1l.25-.11,4.62,1.44a1.8,1.8,0,0,0,.6.1,2.3,2.3,0,0,0,.45,0l1.73-.41a2,2,0,0,0,1.53-1.87,2.05,2.05,0,0,0-.36-1.21l.54.17a1.94,1.94,0,0,0,.12.58,2,2,0,0,0,1.87,1.32,2.33,2.33,0,0,0,.53-.07c3.12-.86,6.14-1.8,9-2.8l.17-.08.25-.11a1.64,1.64,0,0,0,.38-.1l1-.37.39-.15a1.87,1.87,0,0,0,.82-.58l3.17-1.47a1.8,1.8,0,0,0,.46.05,2.11,2.11,0,0,0,.82-.17l.39-.18.73-.32.11-.06a2.07,2.07,0,0,0,.93-.92l2.62-1.22h.18a2,2,0,0,0,1-.25l.79-.45.29-.17a2.09,2.09,0,0,0,.49-.4l.73-.34a1.05,1.05,0,0,0,.21-.12,47,47,0,0,0,5.59-4,2.3,2.3,0,0,1,1.45-1.3l.12-.11c.22-.21.45-.42.65-.64a2,2,0,0,0,.52-1.89,2.23,2.23,0,0,0-.29-.65l.23.08a2.08,2.08,0,0,0,.6.09,2,2,0,0,0,1.64-.86c.2-.28.4-.56.57-.85a2,2,0,0,0,.18-1.75s0-.08,0-.11l.4-.19a2,2,0,0,0,1-1.13,14,14,0,0,0,.52-1.82,2,2,0,0,0-.71-2l-.14-.1a2.71,2.71,0,0,0,.35-.24,2,2,0,0,0,.7-1.78,9.69,9.69,0,0,0-.2-1.18,2.16,2.16,0,0,0-.21-.55,2.06,2.06,0,0,0-.1-.53,12.47,12.47,0,0,0-.52-1.35,2,2,0,0,0-1.13-1.06l-.13,0a2,2,0,0,0-.35-1.62,15.94,15.94,0,0,0-1.16-1.42,2.27,2.27,0,0,1-.52-.55c-.4-.4-.72-.71-1.05-1a2,2,0,0,0-1.33-.5,2.08,2.08,0,0,0-.84.18l-.53.25-1.68-.53a2.07,2.07,0,0,0,.38-1.09,2,2,0,0,0-1-1.82c-.46-.26-.92-.52-1.41-.77a2,2,0,0,0-1.76,0l-3.24,1.51-1.32-.42.14-.07a2,2,0,0,0-.18-3.69c-.56-.2-1.15-.4-1.74-.59a2.16,2.16,0,0,0-.62-.09,2,2,0,0,0-.84.18l-4.17,1.94-1.35-.42a2,2,0,0,0-.65-3.64c-.68-.15-1.37-.29-2.06-.42a1.64,1.64,0,0,0-.38,0,2,2,0,0,0-.85.19l-3.44,1.6-2.56-.8a1.78,1.78,0,0,0,0-.65,2,2,0,0,0-1.75-1.67l-2.42-.25h-.18a2.09,2.09,0,0,0-.85.18l-1,.45-3-.94a2,2,0,0,0-.49-.09c-1.1-.06-2.26-.1-3.47-.14h-.06a1.9,1.9,0,0,0-.75.15,1.86,1.86,0,0,0-.81-.19q-1.44,0-2.88,0Z"/><path class="RGB-2pt-black-round-outline-on-white-bg" d="M114.75,119.49c20.11,1.79,34.43,8.09,36,17.32,2.39,14-25.49,29.45-62.28,34.5a157.74,157.74,0,0,1-34.93,1.08c-20.1-1.78-34.42-8.08-36-17.31-2.39-14,25.49-29.46,62.28-34.5a158.39,158.39,0,0,1,34.93-1.09m1-8.35h0a169.41,169.41,0,0,0-37.3,1.15c-19,2.61-36.56,8-49.38,15.06-15.18,8.4-22.57,18.71-20.81,29,2.26,13.2,18.43,22.09,44.38,24.39a169.38,169.38,0,0,0,37.3-1.14c19-2.61,36.56-8,49.39-15.06,15.17-8.41,22.56-18.71,20.8-29-2.25-13.2-18.43-22.09-44.38-24.39Z"/><path class="cls-2" d="M129.23,236.52l-5.17-.43L120.33,239l-.37,0c-.7,0-1.39-.08-2.08-.13l-2.59-.19,3.82-3-5.17-.42-3.41,2.66-.45-.08c-.61-.12-1.2-.25-1.78-.39l-2-.47,2.72-2.13-5.17-.42-1.48,1.16-.54-.24c-.5-.22-1-.44-1.45-.68L99,234l0,0c-.62-.37-1.23-.77-1.82-1.2l-2.85-2.09.5,0q-.24-.25-.48-.54l-.68-.79.9-.7-1.42-.12-.26-.45c-.21-.38-.41-.75-.58-1.14l-.33-.73-.06.05-.1-.4-.2-.46h.1l-.16-.67c-.11-.48-.19-.93-.25-1.38h0v-.3l0-.53,0,0v-.12c0-.32,0-.65,0-1l0-1.05,2.51.2,2.32-1.82-4.49-.37.23-.75-.49.38,1.74-3.76a27.45,27.45,0,0,1,1.7-3.13l.09-.15,2.73-2.13-1.24-.1L97.71,207c.2-.24.39-.48.6-.72l.33-.39,2.41.2,2.33-1.82-3.07-.25,1.58-1.54.72-.67.6-.56,3.65.29,2.33-1.82-4-.32,2.32-1.86.65-.53.39-.29H109l3.64.29,2.33-1.82-4-.32,2.31-1.59,1-.67.63-.42,3.52.28,2.33-1.82-3.14-.26,2.85-1.68,1.37-.8.27-.15,2.13.17,2.32-1.82-1.37-.11,3.15-1.6c1.8-.92,3.67-1.83,5.56-2.71h-.1l2.66-1.15,6.47-2.94-2.12,1.66,5.17.42,2.33-1.82-4.69-.38,4.28-1.57c.76-.27,1.51-.55,2.27-.81l.2-.07,1.42.11,1.37-1.07.16-.05,1.87-.61-.2,0,3.76-1.09,3.56-1.11-.16.13,1-.27,4.6.38,2.33-1.82-1.44-.12,5.81-1.15,3.7-.77-.1.08,1.54-.27,4.08.33,1.53-1.19.27,0,2.65-.33,3.52-.4-3,2.36,5.16.42,4-3.1h.33c.78,0,1.55,0,2.31,0l2.94,0L198.77,169l5.16.42,4.72-3.68.39,0c.68.06,1.35.12,2,.2l2.41.28-4.56,3.57,5.16.42,3.9-3.05.48.13c.57.15,1.12.31,1.67.48l1.83.56L219,170.62l5.16.42,1.41-1.1.58.32c.46.25.89.52,1.31.79l1.18.76,0,0c.35.26.69.54,1,.83l2.3,2-.37,0,.3.41a13.27,13.27,0,0,1,.83,1.23l.28.48h0l.07.14.08.14h0l.11.24a12,12,0,0,1,.46,1.12l.53,1.46-4.27-.35-2.33,1.82,5.17.42,1.59-1.24,0,2a14.88,14.88,0,0,1-.1,1.94l-.05.41-2.33,1.82,1.94.16-.42,1.22c-.11.33-.24.67-.38,1l-.28.68-4.34-.35-2.33,1.82,5.16.42,2.36-1.84-4.44,6a50.28,50.28,0,0,1-4.66,5.35h.05l-1.89,1.78c-.24.23-.49.47-.75.7l-.32.29-.49,0-2.33,1.82.74.06-2.13,1.67-.7.53-.69.52-.7-.06L213,210.26l.61.05-2.77,1.85-1,.64-.29.18h-.08l-.34.26q-4.31,2.76-9,5.29l-.89-1.38-5.68-.46-2.33,1.82,7.82.64-3.2,1.6-1.76.86-.24.12-6.1-.5-2.33,1.82,4.85.4L186.58,225l-2,.84-.22.09-2.38-.2-2.91,2.28-.15,0c-1.69.64-3.5,1.28-5.37,1.92l-.2.06-7.3-.59-2.33,1.82,4.89.4-5.4,1.5c-1,.27-1.91.52-2.87.77l-.26.07c-1.1.29-2.19.56-3.29.82l-2.76.66.51,0-7.59,1.36c-1.87.33-3.53.6-5.09.83l-3.72.53,1.21-.95-5.16-.42-2.45,1.91-.3,0c-.81.06-1.63.11-2.43.14l-3.11.14ZM153,235.44l2.32-1.81-5.16-.43L147.78,235Zm-10.12-.82,2.33-1.82-5.17-.42-2.33,1.82Zm-10.12-.83L135,232l-5.17-.42-2.33,1.82ZM122.59,233l2.33-1.82-5.17-.43-2.33,1.83Zm-10.12-.83,2.33-1.82-5.16-.42-2.33,1.82Zm-10.12-.82,2.33-1.83-5.16-.42-2.33,1.82Zm56.41-.41,2.33-1.83-5.17-.42-2.33,1.82Zm-10.12-.83,2.33-1.82-5.17-.42-2.33,1.82Zm-10.12-.83,2.33-1.82-5.17-.42-2.32,1.82Zm-10.12-.82,2.33-1.83-5.17-.42L123.24,228Zm-10.12-.83,2.33-1.82-5.16-.42-2.33,1.82Zm56.41-.41,2.33-1.82-5.17-.42-2.33,1.82Zm-66.53-.42,2.33-1.82-5.16-.42L103,226.35Zm56.41-.41,2.33-1.82-5.17-.42-2.33,1.82ZM98,226l2.33-1.82-5.16-.43-2.33,1.82Zm56.41-.41,2.33-1.82-5.17-.43-2.33,1.83Zm-10.12-.83,2.33-1.82-5.17-.42-2.32,1.82Zm-10.12-.83,2.33-1.82-5.16-.42-2.33,1.82Zm-10.12-.82,2.33-1.82-5.16-.43-2.33,1.83Zm56.41-.41,2.33-1.82-5.17-.42-2.33,1.82ZM114,222.23l2.33-1.82-5.16-.42-2.33,1.82Zm56.41-.41,2.33-1.82-5.17-.42-2.33,1.82Zm-66.53-.41,2.33-1.83-5.16-.42L98.69,221Zm56.41-.41,2.33-1.83-5.17-.42-2.33,1.82Zm-10.12-.83,2.33-1.82-5.16-.42L145,219.75ZM140,219.34l2.33-1.82-5.16-.42-2.33,1.82Zm-10.12-.82,2.33-1.83-5.16-.42-2.33,1.82Zm56.41-.41,2.33-1.82-5.17-.43-2.33,1.82Zm-66.53-.42,2.33-1.82-5.16-.42-2.33,1.82Zm56.41-.41,2.33-1.82-5.17-.42L171,216.86Zm-66.53-.42L112,215l-5.16-.42-2.33,1.82Zm56.41-.41,2.33-1.82-5.17-.42L160.9,216ZM99.55,216l2.33-1.82-5.17-.43-2.33,1.83Zm56.4-.41,2.33-1.82-5.16-.43-2.33,1.83Zm-10.12-.83,2.33-1.82-5.16-.42-2.33,1.82Zm56.4-.41,2.33-1.82-5.16-.42L197.07,214ZM135.71,214l2.33-1.82-5.16-.42-2.33,1.82Zm56.41-.4,2.33-1.83-5.17-.42L187,213.14Zm-66.53-.42,2.33-1.82-5.16-.42-2.33,1.82Zm56.41-.41,2.33-1.82-5.17-.42-2.33,1.82Zm-66.53-.42,2.33-1.82-5.16-.42-2.33,1.82Zm56.41-.41,2.33-1.82-5.17-.42-2.33,1.82Zm-66.52-.41,2.33-1.83-5.17-.42-2.33,1.82Zm56.4-.41,2.33-1.83-5.16-.42-2.33,1.82Zm-10.12-.83,2.33-1.82-5.16-.42-2.33,1.82Zm56.4-.41,2.33-1.82-5.16-.42-2.33,1.82Zm-66.52-.42,2.33-1.82-5.16-.42L136.36,209Zm56.41-.41,2.33-1.82-5.17-.42-2.33,1.82Zm-66.53-.41,2.33-1.82-5.16-.43-2.33,1.82Zm56.41-.41,2.33-1.82L185,206l-2.33,1.83Zm-66.53-.42,2.33-1.82-5.16-.42-2.33,1.82Zm56.41-.41,2.33-1.82-5.17-.42L172.52,207ZM111.17,207l2.33-1.82-5.17-.42L106,206.53Zm56.4-.41,2.33-1.82-5.16-.42-2.33,1.82Zm-10.12-.82,2.33-1.82-5.16-.43-2.33,1.83Zm56.4-.41,2.33-1.82-5.16-.42-2.33,1.82Zm-66.52-.42,2.33-1.82-5.16-.42-2.33,1.82Zm56.41-.41,2.33-1.82-5.17-.42-2.33,1.82Zm-66.53-.42,2.33-1.82-5.16-.42-2.33,1.82Zm56.41-.4,2.33-1.83-5.17-.42-2.33,1.82Zm-66.53-.42,2.33-1.82-5.16-.42-2.33,1.82Zm56.41-.41,2.33-1.82-5.17-.42-2.33,1.82ZM117,202.41l2.33-1.82-5.17-.42L111.81,202Zm56.4-.41,2.33-1.82-5.16-.42-2.33,1.82Zm-10.12-.82,2.33-1.83-5.16-.42-2.33,1.82Zm56.41-.41L222,199l-5.16-.43-2.33,1.82Zm-66.53-.42,2.33-1.82-5.16-.42L148,199.93Zm56.41-.41,2.33-1.82-5.17-.42-2.33,1.82ZM143,199.52l2.33-1.82-5.16-.42-2.33,1.82Zm56.41-.41,2.33-1.82-5.17-.42-2.33,1.82Zm-66.53-.41,2.33-1.82-5.16-.43-2.33,1.82Zm56.41-.41,2.33-1.82-5.17-.43-2.32,1.83Zm-66.52-.42,2.33-1.82-5.17-.42-2.33,1.82Zm56.4-.41,2.33-1.82-5.16-.42L174,197Zm-10.12-.83,2.33-1.82-5.16-.42-2.33,1.82Zm56.41-.4,2.32-1.83-5.16-.42-2.33,1.82ZM159,195.81l2.33-1.82-5.16-.43-2.33,1.83Zm56.41-.41,2.33-1.82-5.17-.42L210.19,195ZM148.83,195l2.33-1.82-5.16-.42-2.33,1.82Zm56.41-.41,2.33-1.82-5.17-.42-2.33,1.82Zm-66.52-.41,2.32-1.83-5.16-.42-2.33,1.82Zm56.4-.41,2.33-1.83-5.17-.42L190,193.32Zm-66.52-.42,2.33-1.82-5.17-.42-2.33,1.82Zm56.4-.41,2.33-1.82-5.16-.42-2.33,1.82Zm-10.12-.83,2.33-1.82-5.16-.42-2.33,1.82Zm-10.12-.82,2.33-1.82-5.16-.43-2.33,1.82Zm56.41-.41L223.5,189l-5.17-.43L216,190.44Zm-66.53-.42,2.33-1.82-5.16-.42L149.48,190Zm56.41-.41,2.33-1.82-5.17-.42-2.33,1.82Zm-66.52-.42,2.32-1.82-5.16-.42-2.33,1.82Zm56.4-.41,2.33-1.82-5.17-.42-2.32,1.82Zm-66.52-.41,2.33-1.82-5.17-.43-2.33,1.83Zm56.4-.41,2.33-1.82-5.16-.43L185.65,188Zm-10.12-.83,2.33-1.82-5.16-.42-2.33,1.82Zm-10.12-.83,2.33-1.82-5.16-.42-2.33,1.82Zm56.41-.4,2.33-1.83-5.17-.42-2.33,1.82Zm-66.53-.42,2.33-1.82-5.16-.42-2.33,1.82Zm56.41-.41,2.33-1.82-5.17-.42-2.33,1.82Zm-66.52-.42,2.32-1.82-5.16-.42-2.33,1.82Zm56.4-.41,2.33-1.82-5.16-.42-2.33,1.82Zm-66.52-.41,2.33-1.83-5.17-.42-2.33,1.82Zm56.4-.41L199,182l-5.16-.42-2.33,1.82ZM186.5,183l2.33-1.82-5.16-.42-2.33,1.82Zm-10.12-.83,2.33-1.82-5.16-.42-2.33,1.82Zm-10.12-.82,2.33-1.82-5.16-.43-2.33,1.82Zm56.41-.41,2.33-1.82-5.17-.43-2.33,1.83Zm-66.52-.42,2.33-1.82-5.17-.42L151,180.11Zm56.4-.41,2.33-1.82-5.16-.42-2.33,1.82Zm-10.12-.83,2.33-1.82-5.16-.42-2.33,1.82Zm-10.12-.82,2.33-1.82-5.16-.43-2.33,1.83Zm-10.12-.83,2.33-1.82-5.16-.42L177,177.22Zm-10.12-.83L174.4,175l-5.16-.42-2.33,1.82Zm56.41-.4,2.33-1.83-5.17-.42L223.31,176ZM162,176l2.33-1.82-5.17-.42-2.33,1.82Zm56.4-.41,2.33-1.82-5.16-.42-2.33,1.82Zm-10.12-.83,2.33-1.82-5.16-.42-2.33,1.82Zm-10.12-.82,2.33-1.82-5.16-.43L193,173.5ZM188,173.1l2.33-1.82-5.16-.42-2.33,1.82Zm-10.12-.83,2.33-1.82-5.16-.42-2.33,1.82Z"/><path class="cls-3" d="M200.41,166.41l-4.27,3.34,8.1.66,4.71-3.68c.67.06,1.33.12,2,.2l-4.66,3.65,8.1.66,3.82-3c.56.14,1.09.3,1.62.46l-3.43,2.68,8.11.67,1.19-.94c.44.25.85.5,1.25.76l-.43.34,1.06.09a18.07,18.07,0,0,1,1.43,1.11l-3.64-.3-4.66,3.64,8.11.66,2.27-1.77a10.27,10.27,0,0,1,.76,1.14l-1,.8,1.53.12a10.28,10.28,0,0,1,.42,1l-3.11-.26L225,182.14l8.11.66.31-.24a14,14,0,0,1-.09,1.81l-4,3.14,3.21.26c-.11.32-.24.64-.37,1l-4-.33-4.65,3.64,6.69.55c-.19.31-.4.63-.61.94l-7.24-.59-4.65,3.64,8.1.66,2.62-2a49.9,49.9,0,0,1-4.84,5.52L222,202l.27,0-1,.92-.45,0-4.65,3.64.74.06-.12.1-1.07.8-.71-.05L210.37,211l.3,0-1.33.89h-.13l-.65.51c-2.81,1.8-5.78,3.53-8.87,5.19l1.7-1.33-8.11-.66-4.65,3.64,6.81.56-1.75.85-6.22-.51-4.65,3.64,3.37.28-2,.83-2.53-.2-3.1,2.42q-2.66,1-5.34,1.9l-7.49-.61-4.65,3.64,1.85.15-2.85.77-.16,0-.1.08c-1.09.29-2.18.56-3.27.82l1.36-1.06-8.11-.66-4.65,3.63,1.61.14c-1.7.3-3.38.58-5.06.82l.28-.22-8.11-.66-2.51,2c-.8.06-1.61.11-2.4.14l2.9-2.26-8.1-.66L120,238c-.7,0-1.38-.08-2.06-.13l3.79-3-8.1-.66-3.36,2.63c-.6-.12-1.18-.25-1.75-.38l3.09-2.42-8.1-.66-1.32,1c-.48-.21-1-.42-1.39-.65l.69-.54-2-.17a19.91,19.91,0,0,1-1.73-1.14l4.9.4,4.65-3.63-8.1-.67L96,230.52c-.33-.33-.64-.66-.94-1l2.1-1.63-3.45-.28a11.42,11.42,0,0,1-.54-1l5.14.41,4.66-3.63-8.11-.66-2.37,1.85a12.87,12.87,0,0,1-.27-1.53l.63-.49-.65,0c0-.33,0-.66,0-1l1.83.15L98.7,218l-5.82-.48c.1-.32.2-.64.32-1l6.65.55,4.66-3.64-8.11-.66L94,214.68a27.51,27.51,0,0,1,1.65-3l4.6-3.6-1.9-.16c.25-.31.5-.62.77-.93l2.29.19,4.65-3.64-3.42-.28c.31-.31.65-.61,1-.92l3.6.29,4.65-3.63-4-.33c.34-.27.66-.54,1-.81l.12-.1,4,.33,4.65-3.64-3.73-.3c.43-.3.88-.59,1.33-.89l3.56.29,4.65-3.64-2.55-.21,1.5-.87,2.21.18,4.65-3.64-.4,0q3.39-1.74,6.94-3.34l-3.37,2.63,8.1.66,4.66-3.63-7.29-.6,2-.84,6.5.53,4.65-3.64-2.69-.22,2.25-.81,1.6.13,1.54-1.2c1.25-.42,2.5-.82,3.76-1.21l-3.29,2.57,8.1.67,4.66-3.64-6.4-.52,2.74-.78,4.81.4,3-2.36c1-.23,2-.46,3.08-.67l-4.08,3.19,8.1.66,4.66-3.64-6.93-.56c1.25-.25,2.5-.48,3.74-.7l4.34.36,1.62-1.26,2.64-.33L186,168.92l8.1.67,4-3.14c.77,0,1.53,0,2.28,0m-12.1,7.72,4.66-3.64-8.11-.66-4.65,3.64,8.1.66m10.12.82,4.65-3.63-8.1-.67-4.65,3.64,8.1.66m10.12.83,4.65-3.64-8.1-.66-4.66,3.64,8.11.66m10.12.83,4.65-3.64-8.1-.66L210.56,176l8.11.66m-46.29,1.23,4.66-3.63-8.11-.67-4.65,3.64,8.1.66m10.12.83,4.66-3.64-8.11-.66L174.4,178l8.1.66m10.12.83,4.65-3.64-8.1-.66-4.65,3.63,8.1.67m10.12.82,4.65-3.64-8.1-.66-4.66,3.64,8.11.66m10.12.83,4.65-3.64-8.1-.66-4.66,3.64,8.11.66m-56.41.41,4.66-3.64-8.11-.66-4.65,3.64,8.1.66M223,182l4.65-3.64-8.1-.66-4.66,3.63L223,182m-56.41.4,4.66-3.63-8.11-.66-4.65,3.63,8.1.66m10.12.83,4.65-3.64-8.1-.66-4.65,3.64,8.1.66m10.12.83,4.65-3.64-8.1-.66-4.66,3.64,8.11.66m10.12.82,4.65-3.63-8.1-.67-4.66,3.64,8.11.66m10.12.83,4.65-3.64-8.1-.66L198.94,185l8.11.66m-56.41.41,4.66-3.64-8.11-.66-4.65,3.64,8.1.66m66.53.42,4.65-3.64-8.1-.66-4.66,3.64,8.11.66m-56.41.41,4.66-3.64-8.11-.66-4.65,3.63,8.1.67m66.53.41,4.65-3.63-8.11-.67-4.65,3.64,8.11.66m-56.41.41,4.65-3.63-8.1-.67-4.65,3.64,8.1.66m10.12.83,4.65-3.64-8.1-.66-4.66,3.64,8.11.66m10.12.83,4.65-3.64-8.1-.66L183,188.74l8.11.67m-56.41.41,4.66-3.64-8.11-.66-4.65,3.63,8.1.67m66.53.41,4.65-3.64-8.1-.66-4.66,3.64,8.11.66m-56.41.41,4.66-3.64-8.11-.66L136.73,190l8.1.66m66.53.42,4.65-3.64-8.1-.66-4.66,3.64,8.11.66m-56.41.41,4.66-3.64-8.11-.66-4.65,3.64,8.1.66m66.53.42,4.65-3.64-8.11-.66-4.65,3.63,8.11.67m-56.41.4,4.65-3.63-8.1-.67L157,191.63l8.1.66m10.12.83,4.65-3.64-8.1-.66-4.66,3.64,8.11.66m10.12.83,4.65-3.64-8.1-.66-4.66,3.64,8.11.66m-56.41.41,4.66-3.64-8.11-.66-4.65,3.63,8.1.67m66.53.41,4.65-3.63-8.1-.67-4.66,3.64,8.11.66m-56.41.41,4.66-3.63-8.11-.67-4.65,3.64,8.1.66m66.53.42L210.2,192l-8.1-.66-4.66,3.64,8.11.66m-56.41.41,4.66-3.64-8.11-.66L141,195.35l8.1.66m66.52.42,4.66-3.64-8.11-.66-4.65,3.64,8.1.66m-56.4.41,4.65-3.64-8.1-.66-4.65,3.63,8.1.67m10.12.82L174,194l-8.1-.67L161.27,197l8.11.66m10.12.83,4.65-3.64-8.1-.66-4.66,3.64,8.11.66m-56.41.41,4.66-3.64-8.11-.66L115,198.24l8.1.66m66.53.42,4.65-3.64-8.1-.66-4.66,3.63,8.11.67m-56.41.4,4.66-3.63-8.11-.66-4.65,3.63,8.1.66m66.53.42,4.65-3.64-8.1-.66-4.66,3.64,8.11.66m-56.41.41,4.66-3.64-8.11-.66-4.65,3.64,8.1.66m66.52.42,4.66-3.64-8.11-.66-4.65,3.64,8.1.66m-56.4.41,4.65-3.64-8.1-.66-4.65,3.64,8.1.66m66.52.42,4.66-3.64-8.11-.66-4.65,3.63,8.1.67m-56.4.4,4.65-3.63-8.1-.67-4.66,3.64,8.11.66m10.12.83,4.65-3.64-8.1-.66-4.66,3.64,8.11.66m-56.41.41,4.66-3.64-8.11-.66-4.65,3.64,8.1.66m66.53.42,4.65-3.64-8.1-.66-4.66,3.64,8.11.66m-56.41.41,4.66-3.64L124,200l-4.65,3.63,8.1.67m66.53.41,4.65-3.63-8.11-.67L185.82,204l8.11.66m-56.41.41,4.66-3.63-8.11-.67-4.65,3.64,8.1.66m66.52.42,4.66-3.64-8.11-.66-4.65,3.64,8.1.66m-56.4.41,4.65-3.64-8.1-.66-4.65,3.64,8.1.66m66.52.42,4.66-3.64-8.11-.66-4.65,3.63,8.1.67m-56.4.41,4.65-3.64-8.1-.66-4.66,3.63,8.11.67m10.12.82,4.65-3.64-8.1-.66-4.66,3.64,8.11.66m-56.41.41,4.66-3.64-8.11-.66-4.65,3.64,8.1.66m66.53.42,4.65-3.64-8.1-.66-4.66,3.64,8.11.66m-56.41.41,4.66-3.64-8.11-.66-4.65,3.64,8.1.66m66.53.42,4.65-3.64-8.11-.66L180,208.56l8.11.67m-56.41.4,4.66-3.63-8.11-.67L123.61,209l8.1.66m66.52.42,4.66-3.64-8.11-.66-4.65,3.64,8.1.66m-56.4.41,4.65-3.64-8.1-.66-4.65,3.64,8.1.66m66.52.42,4.66-3.64-8.11-.66-4.65,3.64,8.1.66m-56.4.41,4.65-3.64-8.1-.66-4.66,3.64,8.11.66m10.12.82,4.65-3.63-8.1-.67L154,211.45l8.11.66m-56.41.41,4.66-3.63-8.11-.67-4.65,3.64,8.1.66m66.53.42,4.65-3.64-8.1-.66-4.66,3.64,8.11.66m-56.41.41,4.66-3.64-8.11-.66-4.65,3.64,8.1.66m66.53.42,4.65-3.64-8.11-.66-4.65,3.64,8.11.66m-56.41.41,4.65-3.64-8.1-.66-4.65,3.63,8.1.67m66.52.41,4.66-3.63-8.11-.67-4.65,3.64,8.1.66M136,215l4.65-3.64-8.1-.66-4.65,3.64,8.1.66m66.52.42,4.66-3.64-8.11-.66-4.65,3.64,8.1.66m-56.4.41,4.65-3.64-8.1-.66L138,215.17l8.11.66m10.12.83,4.65-3.64-8.1-.66L148.15,216l8.11.67m10.12.82,4.65-3.64-8.1-.66-4.66,3.64,8.11.66m-56.41.41,4.66-3.64-8.11-.66-4.65,3.64,8.1.66m66.53.42,4.65-3.64L173,214l-4.65,3.64,8.11.66m-56.41.41,4.65-3.64-8.1-.66L112,218.06l8.1.66m66.52.42,4.66-3.64-8.11-.66-4.65,3.63,8.1.67m-56.4.4,4.65-3.63-8.1-.67-4.66,3.64,8.11.66m10.12.83,4.65-3.64-8.1-.66-4.66,3.64,8.11.66m10.12.83,4.65-3.64-8.1-.66-4.66,3.64,8.11.66m10.12.82,4.65-3.63-8.1-.67-4.66,3.64,8.11.66m-56.41.41,4.66-3.63-8.11-.67-4.65,3.64,8.1.66m66.53.42,4.65-3.64-8.11-.66-4.65,3.64,8.11.66m-56.41.41,4.65-3.64-8.1-.66-4.65,3.64,8.1.66m66.52.42,4.66-3.64-8.11-.66L172.7,223l8.1.67m-56.4.41,4.65-3.64-8.1-.66-4.66,3.63,8.11.67m10.12.82,4.65-3.64-8.1-.66-4.66,3.64,8.11.66m10.12.83,4.65-3.64-8.1-.66-4.66,3.64,8.11.66m10.12.83,4.65-3.64-8.1-.66-4.66,3.63,8.11.67m10.11.82,4.66-3.64-8.11-.66-4.65,3.64,8.1.66m-56.4.41,4.65-3.64-8.1-.66-4.65,3.64,8.1.66m66.52.42,4.66-3.64-8.11-.66-4.65,3.64,8.1.66m-56.4.41,4.65-3.64-8.1-.66L110.48,228l8.11.66m10.12.82,4.65-3.63-8.1-.67-4.66,3.64,8.11.66m10.12.83,4.65-3.64-8.1-.66-4.66,3.64,8.11.66m10.12.83,4.65-3.64-8.1-.66-4.66,3.64,8.11.66m10.11.82,4.66-3.63-8.11-.67L151,231.27l8.1.66m-46.28,1.24,4.65-3.64-8.1-.66-4.66,3.64,8.11.66m10.12.83,4.65-3.64-8.1-.66-4.66,3.63,8.11.67m10.12.82,4.65-3.64-8.1-.66-4.66,3.64,8.11.66m10.11.83,4.66-3.64-8.11-.66L135,235l8.1.66m63.16-71.29-5.89,0c-.77,0-1.55,0-2.33,0l-.66,0-.51.41-3.39,2.65-2.23-.18,3.78-2.95-7,.79-2.67.32-.54.08-.43.33-1,.78-2.23-.18,1-.78-7.89,1.64-7.2,1.42.19-.15-1,.32-4.84.95,1.39.11-4.27,1.32-9,2.62,2,.16h0l-.82-.06-.42,0-.4.14-1.61.58,1.9-1.49-9.09,4.12-2,.75.33,0-3.26,1.48-6.31,2.76.35,0c-.75.37-1.5.74-2.23,1.12l-6.28,3.2,2.32.19h0l-1.43-.11-.62-.06-.54.31-1.51.89-5.41,3.2,3.71.31h0l-2.78-.22-.69-.06-.58.39-.37.24-1,.66-4.64,3.19,4.23.34h0l-3.25-.27-.77-.06-.62.48-.12.09c-.24.18-.46.36-.68.54l-.35.29-3.9,3.14,3.88.32h0l-2.82-.23-.88-.07-.64.6-.29.26-.72.68L98,204.87l2.71.22h0L99.23,205l-1-.09-.66.78c-.22.25-.42.5-.62.75l-.18.22-2.39,3,.57,0-.56.44-.28.22-.19.3a28.54,28.54,0,0,0-1.76,3.24l-.26.57h0l-.18.49-3,6.46,1.58-1.23,0,1.29c0,.22,0,.44,0,.65l0,0,.1,1.06.06,1.15h.11l-.43,0,.85,1.91L91.3,228l.29-.23c.13.26.27.52.43.79l.31.55-.11.09.24.27-1.58-.13,4.59,3.38.44.41.06,0,.61.45.67.47-.16.13,2.82,1.42c.48.24,1,.48,1.49.7l1.09.47.94-.73.7-.55,2.23.18L104,237.49l4.07.95c.59.13,1.19.27,1.81.39l.9.17.72-.56,2.74-2.14,2.23.18-3.84,3,5.16.38c.7,0,1.4.1,2.11.13l.74,0,.59-.46,3.13-2.45,2.23.18-3.79,3,6.24-.28c.81,0,1.62-.09,2.44-.14l.62,0,.48-.38,1.9-1.48,2.22.18-2.16,1.69,7.44-1.07c1.57-.23,3.24-.5,5.12-.84l1.37-.24-.4.31L152,237l10.29-1.83-2.07-.17.08,0,.4-.1h0c.92-.23,1.83-.48,2.75-.73l10.81-3-7.94-.65h0l6.7.54.42,0,.39-.14c1.93-.65,3.7-1.28,5.4-1.92l.29-.11.24-.19,2.49-1.94L184,227l.48,0,.44-.18,2-.84,7.46-3.18-6.35-.52h0l5.43.44.55.05.49-.24,1.77-.86,6.41-3.2-.29,0c2.51-1.39,4.92-2.83,7.19-4.28l.08,0,.07-.06,0,0h0l.57-.38c.33-.21.65-.42,1-.64l.4-.26,4.76-3.19-.92-.07h0l.69.06.61-.46.38-.29.71-.54.1-.08,4-3.15-.72-.06,0,0,.53,0,.64-.58.74-.69.27-.25,3.28-3.09h-.19A49.21,49.21,0,0,0,230,196.4l.58-.77h0l.07-.12,8.23-11-4.28,3.35.63-1.83-.68-.06.64-.5.1-.82a15.2,15.2,0,0,0,.11-2.08l0-1.55.29,0-.3-.83,0-1.68-.45.36-.27-.77c-.09-.24-.18-.48-.29-.72l.09-.06-.51-.87-.29-.61h-.07l1.32.11-3.24-2.81-.21-.29-.06.05-1.09-1-.07-.06.15-.12-2-1.31-.09-.06h0l-.24-.16c-.52-.34-.95-.59-1.37-.83l-1.16-.64-1,.82-.58.45-2.22-.18,2.43-1.9-3.68-1.12c-.53-.16-1.1-.33-1.71-.49l-1-.25-.77.61-3.21,2.5-2.22-.18.63-.49,3.83-3-4.82-.57-2-.2-.79-.07-.62.49-4.09,3.2-2.23-.19.25-.19,4.64-3.62Zm-41.06,5.88h0l2.22.18h0l-2.23-.18Zm10.12.82h0l.4,0,1.82.15h0l-2.23-.18Zm10.12.83h0l2.22.18h0l-2.23-.18Zm10.12.83h0l2.22.18h0l-2.23-.18Zm10.12.82h0l2.23.18h0l-2.22-.18Zm10.12.83h0l2.23.19h0l-2.22-.18Zm-56.41.41h0l.93.08,1.29.11h0l-2.23-.18Zm66.53.42h0l2.23.18h0L226,175.2Zm-56.41.4h0l2.22.18h0l-2.23-.19Zm10.12.83h0l2.22.18h0l-2.23-.18Zm10.12.83h0l2.23.19h0l-2.22-.18Zm10.12.82h0l2.23.18h0l-2.22-.19Zm-56.41.41h0l2.22.18h0l-2.23-.18Zm66.53.42h0l2.23.18h0l-2.22-.18Zm-56.41.41h0l2.22.18h0l-2.23-.18Zm66.53.42h0l2.23.18h0l-2.22-.18Zm-56.41.41h0l2.22.18h0l-2.23-.18Zm66.53.41h0l2.22.18h0l-2.22-.19Zm-56.41.41h0l2.22.18h0l-2.23-.18Zm10.12.83h0l2.23.18h0L184,181.8Zm10.12.83h0l2.23.18h0l-2.22-.18Zm-56.41.4h0l2.18.18h0l-2.23-.19Zm66.53.42h0l2.23.18h0l-2.22-.18Zm-56.41.41h0L150,184h0l-2.23-.18Zm66.53.42h0l2.23.19h0l-2.22-.18Zm-56.41.41h0l2.22.19h0l-2.23-.18Zm66.53.42h0l2.22.18h0l-2.22-.18Zm-56.41.4h0l2.22.18h0l-2.22-.19Zm10.12.83h0l2.23.18h0l-2.22-.18Zm10.12.83h0l2.23.18h0l-2.22-.18Zm-56.41.41h0l2.22.18h0l-2.23-.18Zm66.53.41h0l2.23.18h0L198.4,188ZM142,188.4h0l2.22.18h0L142,188.4Zm66.53.42h0l2.23.18h0l-2.22-.18Zm-56.41.41h0l2.22.18h0l-2.23-.18Zm66.52.42h0l2.22.18h0l-2.23-.18Zm-56.4.41h0l2.22.18h0l-2.22-.18Zm66.52.41h0l2.22.18h0l-.63-.05-1.6-.13Zm-56.4.41h0l2.23.18h0l-2.22-.18Zm10.12.83h0l2.23.19h0l-2.22-.18Zm-56.41.41h0l2.22.19h0l-2.23-.18Zm66.53.42h0l2.23.18h0l-2.22-.18Zm-56.41.4h0l2.22.18h0l-2.23-.19Zm66.53.42h0l2.23.18h0l-2.22-.18Zm-56.41.41h0l2.22.18h0l-2.23-.18Zm66.52.42h0l2.22.19h0l-2.23-.18Zm-56.4.41h0l2.22.19h0l-2.22-.18Zm66.52.41h0l2.22.18h0l-2.23-.19Zm-56.4.41h0l2.23.18h0l-2.22-.19Zm10.12.83h0l2.23.18h0l-2.22-.18Zm-56.41.41h0l2.22.18h0l-2.23-.18Zm66.53.42h0l2.23.18h0l-2.22-.18Zm-56.41.41h0l2.22.18h0l-2.23-.18Zm66.53.41h0l2.23.18h0l-2.22-.19Zm-56.41.41h0l2.22.18h0l-2.23-.18Zm66.52.42h0l2.22.18h0l-2.23-.18Zm-56.4.41h0l2.22.18h0l-2.22-.18Zm66.52.42h0l2.22.18h0l-2.23-.18Zm-56.4.41h0l2.23.18h0l-2.22-.18Zm10.12.82h0l2.23.18h0l-2.22-.18Zm-56.41.41h0l2.22.18h0l-2.23-.18Zm66.53.42h0l2.23.19h0l-2.22-.18Zm-56.41.41h0l2.22.19h0l-2.23-.18Zm66.53.42h0l2.23.18h0l-2.22-.18Zm-56.41.4h0l2.22.18h0l-2.23-.19Zm66.52.42h0l2.22.18h0l-2.23-.18Zm-56.4.41h0l2.22.18h0l-2.22-.18Zm66.52.42h0l2.22.19h0l-2.23-.18Zm-56.4.41h0l2.23.18h0l-2.22-.18Zm10.12.82h0l2.23.18h0l-2.22-.19Zm-56.41.41h0l2.22.18h0l-2.23-.18Zm66.53.42h0l2.23.18h0l-2.22-.18Zm-56.41.41h0l2.22.18h0l-2.23-.18Zm66.53.42h0l2.22.18h0l-2.22-.18Zm-56.41.41h0l2.22.18h0l-2.23-.18Zm66.52.41h0l2.22.18h0l-2.23-.18Zm-56.4.41h0l2.22.18h0l-2.22-.18Zm66.52.42h0l2.22.18h0l-2.23-.18Zm-56.4.41h0l2.23.19h0l-2.22-.18Zm10.12.83h0l2.23.18h0l-2.22-.18Zm-56.41.4h0l2.22.18h0l-2.23-.19Zm66.53.42h0l2.23.18h0l-2.22-.18Zm-56.41.41h0l2.22.18h0l-2.23-.18Zm66.53.42h0l2.22.19h0l-2.22-.18Zm-56.41.41h0l2.22.19h0l-2.23-.18Zm66.52.41h0l2.22.18h0l-2.23-.19Zm-56.4.41h0l2.23.18h0l-2.22-.19Zm66.52.42h0l2.22.18h0l-2.23-.18Zm-56.4.41h0l2.23.18h0l-2.22-.18Zm10.12.83h0l2.23.18h0l-2.22-.18ZM97,214.83h0l2.22.18h0L97,214.83Zm66.53.41h0l2.23.18h0l-2.22-.19Zm-56.41.41h0l2.22.18h0l-2.23-.18Zm66.53.42h0l2.22.18h0l-2.22-.18Zm-56.41.41h0l2.22.18h0l-2.22-.18Zm66.52.42h0l2.22.18h0l-2.23-.18Zm-56.4.41h0l2.23.18h0l-2.22-.18Zm66.52.41h0l5.95.48h0l-4.25-.35-1.71-.14Zm-56.4.41h0l2.23.18h0l-2.22-.18Zm10.12.83h0l2.23.19h0l-2.22-.18Zm-56.41.41h0l1.51.13.71.06h0l-1.06-.09-1.17-.09Zm66.53.42h0L160,220h0l-2.22-.18Zm-56.41.4h0l2.22.18h0l-2.23-.19Zm66.52.42h0l2.22.18h0l-2.23-.18Zm-56.4.41h0l2.22.18h0l-2.22-.18Zm66.52.42h0l2.22.19h0l-2.23-.18Zm-56.4.41h0l2.23.19h0l-2.22-.18Zm10.12.82h0l2.23.18h0l-2.22-.19Zm10.12.83h0l2.23.18h0l-2.22-.18Zm10.12.83h0l2.23.18h0l-2.22-.18Zm-56.41.41h0l2.22.18h0l-2.23-.18Zm66.52.41h0l2.22.18h0l-2.23-.18Zm-56.4.41h0l2.22.18h0l-2.22-.18Zm66.52.42h0l2.22.18h0l-2.23-.18Zm-56.4.41h0l2.23.18h0l-2.22-.18Zm10.12.83h0l2.23.18h0l-2.22-.18ZM136,228h0l2.23.18h0L136,228Zm10.12.83h0l2.23.19h0l-2.22-.18Zm10.11.82h0l2.22.18h0l-2.23-.19Zm-56.4.42h0l2.22.18h0l-2.22-.18Zm10.12.82h0l2.23.18h0l-2.22-.18Zm10.12.83h0l2.23.18h0l-2.22-.18Zm10.12.82h0l2.23.18h0l-2.22-.19Zm10.11.83h0l2.23.18h0l-2.23-.18Zm10.12.83h0l2.22.18h0l-2.23-.18Z"/><path class="RGB-2pt-black-round-outline-on-white-bg" d="M242.82,176.14c-5.86-14.46-26-21.26-55.24-18.67a180,180,0,0,0-39.48,8.37c-20,6.6-37.77,16-49.89,26.44-14.29,12.33-19.67,25.24-15.16,36.36,5.87,14.45,26,21.25,55.27,18.65a179.55,179.55,0,0,0,39.46-8.36c20-6.59,37.76-16,49.9-26.44C242,200.17,247.34,187.25,242.82,176.14Zm-68.62,54a167.6,167.6,0,0,1-36.91,7.84c-22.72,2-40.26-2.32-44.41-12.52-6.21-15.3,20.12-38,58.8-50.73a167.6,167.6,0,0,1,36.91-7.84h0c22.7-2,40.25,2.33,44.4,12.52C239.22,194.66,212.89,217.37,174.2,230.09Z"/><path class="RGB-2pt-white-round-outline-on-black-bg" d="M196.45,145.7c1.67,10.21,3.62,12.23,6.34,22.17,1.93,7,4.15,14.35,3,21.59a6.28,6.28,0,0,1-1,2.83,6.62,6.62,0,0,1-1.69,1.43l-15.58,10.37a35.91,35.91,0,0,1-7.68,4.25c-2.06.73-4.23,1.06-6.31,1.73-3.09,1-5.93,2.69-8.86,4.12a54.84,54.84,0,0,1-24.15,5.59c-3.39,0-7.09-.49-9.45-3.08s-2.73-6.93-2.15-10.65c1.71-11.09,10-20.71,20.23-23.46A46.32,46.32,0,0,0,155,181c3-1.24,5.45-3.62,7.83-5.95a9.67,9.67,0,0,0,2.43-3.18c.72-1.85.3-4-.13-5.91l-6.78-30.62c-.65-2.94-1.26-6.21.14-8.84a11.76,11.76,0,0,1,3.6-3.63c7.84-5.81,16.35-11.6,25.89-12,3.44-.15,7.19.58,9.48,3.31S200,121,200.1,124.73c.13,4.86.21,10-2,14.25C197,141.12,195.35,143.57,196.45,145.7Z"/><path class="RGB-2pt-white-round-outline-on-black-bg" d="M153.88,134.8a2.23,2.23,0,0,0,.35,1.45c.64.71,1.85.24,2.75.56,1.21.44,1.41,2.05,1.39,3.34l-.13,13.07c0,1.32,0,2.81,1,3.7,1.61,1.48,4.3.18,6.35.94a25.26,25.26,0,0,1,2.44,1.45,8.48,8.48,0,0,0,4.16.58,80.66,80.66,0,0,0,18.27-2.83c3-.83,6-1.88,8.35-4a17.6,17.6,0,0,0,4.5-7.62,37.45,37.45,0,0,0,1.83-14.86,11.83,11.83,0,0,1,.1-4.2c.44-1.52,1.57-2.77,2.09-4.26.85-2.47-.13-5.27-1.81-7.27-4.05-4.82-11.16-5.49-17.45-5.27a115,115,0,0,0-24.56,3.54c-2.42.62-5.32,1.16-7,3.22-1.39,1.72-1.93,4.1-2.79,6.09-.45,1-.92,2.07-1.4,3.09-.18.4-.73,1.12-.7,1.55s.55,1,.72,1.38A15.85,15.85,0,0,1,153.88,134.8Z"/><path class="RGB-2pt-black-round-outline-on-white-bg" d="M156.15,117.14c-22.47-12-19.41-47.52-18.56-57.43.94-10.9,2-22.83,10.9-32.1,17.93-18.61,56.95-15.34,68,2.06,2.78,4.36-1,22.5-8.54,58.61-2.56,12.17-3.69,17.15-8.25,22.09C189.68,121.25,169.85,124.47,156.15,117.14Z"/><path class="RGB-2pt-white-round-outline-on-black-bg" d="M117.7,101.05c1.67,9.84,3.61,12,6.34,21.8,1.93,6.92,4.15,14.11,3,20.73a4.84,4.84,0,0,1-1,2.5,5.29,5.29,0,0,1-1.69,1.07l-15.58,7.26a30.63,30.63,0,0,1-7.68,2.77c-2.06.36-4.23.33-6.31.62a60.5,60.5,0,0,0-8.86,2.47,54.33,54.33,0,0,1-24.16,1.41c-3.38-.54-7.08-1.58-9.44-4.38s-2.73-6.93-2.15-10.33a22.67,22.67,0,0,1,20.23-18.81,44.64,44.64,0,0,0,5.82-.57c3-.69,5.45-2.53,7.83-4.34a7.17,7.17,0,0,0,2.42-2.6c.73-1.62.31-3.66-.12-5.56l-6.78-29.8c-.65-2.86-1.26-6,.14-8.26a9,9,0,0,1,3.6-2.84C91.17,70,99.68,65.9,109.22,67c3.44.4,7.19,1.67,9.48,4.6s2.55,6.83,2.65,10.34c.13,4.58.21,9.4-2,13.06C118.27,96.84,116.6,98.88,117.7,101.05Z"/><path class="RGB-2pt-white-round-outline-on-black-bg" d="M73.59,78.8A2.4,2.4,0,0,0,74,80.3c.64.81,1.84.53,2.74,1,1.22.63,1.41,2.27,1.4,3.56l-.14,13a5.42,5.42,0,0,0,1,3.86c1.62,1.73,4.3.86,6.36,2a29.69,29.69,0,0,1,2.43,1.83,9.34,9.34,0,0,0,4.17,1.24,77.57,77.57,0,0,0,18.27.06c3-.35,6-.92,8.34-2.64a14.28,14.28,0,0,0,4.5-6.9,35.37,35.37,0,0,0,1.84-14.57,11.73,11.73,0,0,1,.09-4.19c.45-1.45,1.57-2.51,2.09-3.93.85-2.33-.12-5.29-1.8-7.55-4.06-5.46-11.16-7.26-17.46-8a111.67,111.67,0,0,0-24.56-.35c-2.41.24-5.32.32-7,2.11-1.38,1.5-1.93,3.8-2.79,5.66-.45,1-.92,1.92-1.39,2.87-.19.37-.73,1-.71,1.43a6.63,6.63,0,0,0,.72,1.5A17.6,17.6,0,0,1,73.59,78.8Z"/><path class="RGB-2pt-black-round-outline-on-white-bg" d="M63.2,0c-.38,2.8-.63,5.61-.87,8.35-.85,9.78-3.91,44.8,18.56,60.37,13.7,9.5,33.53,9.43,43.59.13,4.56-4.21,5.69-9,8.25-20.78C137.79,24.76,141.13,9.2,142,0Z"/><path class="RGB-2pt-white-round-outline-on-black-bg" d="M199.54,217.59a6.31,6.31,0,0,1,2.48-3.12c3.62-2.73,8.38-3.86,11.53-7.12a7.75,7.75,0,0,1,1.29-1.21,5.06,5.06,0,0,1,2.12-.66,4.48,4.48,0,0,1,1.93,0,4.72,4.72,0,0,1,1.87,1.31,36.09,36.09,0,0,1,3,3.33,7.15,7.15,0,0,1,1.59,3,6.16,6.16,0,0,1-.78,3.78,26.66,26.66,0,0,1-2.59,3.9,13.5,13.5,0,0,1-2.54,2.79c-2.92,2.21-7.05,1.73-10.46,3.07a3.67,3.67,0,0,1-2.39.46,3.14,3.14,0,0,1-1.55-1.6A1.06,1.06,0,0,0,206,225a2.22,2.22,0,0,0,.22-1.14,6.69,6.69,0,0,0-5.35-6.08,3,3,0,0,0-2.88.62,1.06,1.06,0,0,0,.95,0"/><path class="RGB-2pt-white-round-outline-on-black-bg" d="M137.12,180.73a4.22,4.22,0,0,0,2.67-1.3,3.2,3.2,0,0,0,.37-2.07,9.37,9.37,0,0,0-2.35-5.67,6.79,6.79,0,0,0-5.62-2.18,9.22,9.22,0,0,0-3,1c-3.25,1.65-6,4.17-9.46,5.45a5.92,5.92,0,0,0-2.29,1.2,3.29,3.29,0,0,0-.78,2.07,17.74,17.74,0,0,1,4.75,1.37,7.28,7.28,0,0,1,3.51,3.35,3.35,3.35,0,0,1,.34,1.86,2.09,2.09,0,0,1-.23.72c-.07.13-.29.35-.26.51s.29-.06.39-.12l.65-.42c.88-.55,1.75-1.12,2.62-1.68s1.76-1.1,2.66-1.61a29.67,29.67,0,0,1,2.76-1.39,19.71,19.71,0,0,1,2.88-1Z"/><path class="RGB-2pt-white-round-outline-on-black-bg" d="M67.87,123A12.57,12.57,0,0,0,65,115.52a4.13,4.13,0,0,0-1.94-1.45,6.15,6.15,0,0,0-3,.35c-1.58.39-3.23.45-4.81.81a25.43,25.43,0,0,0-7,3.13c-.45.25-1,.72-.75,1.19A1.13,1.13,0,0,0,48,120a11,11,0,0,1,5.3,8.91c1.62-1.69,4.1-2.15,6.35-2.79A30.64,30.64,0,0,0,66.93,123a2.24,2.24,0,0,0,.91-.81c.4-.77-.15-1.69-.82-2.24a7,7,0,0,1-1.9-1.71"/><path class="cls-4" d="M78.1,80.93c.36.85,1.5,1,2.43,1a19.5,19.5,0,0,0,4.64-.39"/><path class="cls-5" d="M84.11,103.32l17.2-6.65"/><path class="cls-5" d="M124.39,77.69c-6.33,4.86-13.53,9.09-21.47,9.79-3.61.32-7.27-.1-10.83.53"/><path class="cls-5" d="M168.59,147.25a52.11,52.11,0,0,0,13.31-1.33c4.31-1.19,8.45-3.56,10.9-7.3"/><path class="cls-5" d="M156.56,136.66a23.16,23.16,0,0,0,13.35.93,68.39,68.39,0,0,0,12.85-4.32"/><path class="RGB-2pt-white-round-outline-on-black-bg" d="M116.75,172.83c.48-.64-.07-1.53-.61-2.13-9.55-10.53-21.29-18.86-31-29.25-4.41-4.73-8.48-9.95-14-13.33-2.37-1.46-5-2.54-7.43-3.85a87,87,0,0,1-9.5-6.2,6.06,6.06,0,0,1-2.65-3c1.32.4,2.61-.86,4-.78a4.27,4.27,0,0,1,2,.89c10.52,6.88,22.81,11.21,32,19.78,2.58,2.41,4.88,5.12,7.35,7.64,1.88,1.93,3.87,3.74,5.71,5.7a108.48,108.48,0,0,1,8.16,10.2l4.14,5.63c2.29,3.1,4.61,6.28,5.78,10a7.77,7.77,0,0,1-5.49,1"/><path class="RGB-2pt-white-round-outline-on-black-bg" d="M110.78,177.69,125.49,173a1.14,1.14,0,0,0,.5-.26,1.11,1.11,0,0,0,.2-.61,11.88,11.88,0,0,0-2.11-8.07,5.53,5.53,0,0,0-2.3-2,6.92,6.92,0,0,0-4.22.09q-2.55.65-5,1.47c-.84.28-1.67.57-2.5.89a3,3,0,0,0-1.4.92,2.9,2.9,0,0,0,0,2.73c.5,1.33,1.2,2.57,1.62,3.93A13,13,0,0,1,110.78,177.69Z"/><path class="RGB-2pt-white-round-outline-on-black-bg" d="M214.2,226.51c2-2.5.5-6.27-1.51-8.79a28.1,28.1,0,0,0-6.82-6.14c-2.33-1.5-4.88-2.64-7.16-4.21s-4.06-3.33-6.09-5a89.94,89.94,0,0,0-13.77-8.94q-11.23-6.27-22.79-11.95a11.11,11.11,0,0,0-2.77-1.07,11.72,11.72,0,0,0-3.91.19c-8,1.3-16.57,1.95-23.94-1.44-2-.94-4.47-2.18-6.37-1l4-.83c-.44-2.13,1.29-4.23,3.34-5s4.31-.46,6.47-.17l20.63,2.72a75.33,75.33,0,0,1,10,1.78,72,72,0,0,1,12,4.85c16.72,8,33.83,17.19,44.35,32.45a12.92,12.92,0,0,1,2.13,4.26,7.31,7.31,0,0,1-.62,5Z"/><path class="RGB-2pt-white-round-outline-on-black-bg" d="M231.18,8a34,34,0,0,1-.92-3.84,9.88,9.88,0,0,0-.78-2.86c-.19-.42-.41-.83-.62-1.25H50.68a43.38,43.38,0,0,0,2.77,15.7c1.15,3,2.72,6,5.31,8,2.32,1.74,5.22,2.46,8,3.39C79,31.17,89.1,39.74,99.94,46.76c3.63,2.35,7.44,4.58,11.66,5.56a51.91,51.91,0,0,0,8.08.91,135.91,135.91,0,0,1,32,6.12c4.7,1.51,9.34,3.28,14.21,4,14.77,2.37,29.37-4.55,44.29-5.61,6.43-.46,13.09.15,19.15-2a4.42,4.42,0,0,0,2.16-1.37,4.94,4.94,0,0,0,.69-2.74,356.42,356.42,0,0,0-.19-38A28.84,28.84,0,0,0,231.18,8Z"/><path class="cls-6" d="M97.88,76.87q-.47-4.09-1.3-8.13"/><path class="cls-6" d="M106.22,75.71a22.37,22.37,0,0,0,1.1-13.92"/><path class="cls-6" d="M84.08,70.33a47.16,47.16,0,0,1-3.34-11.7"/><path class="cls-6" d="M165.29,121.78a93.64,93.64,0,0,1-4.93-9.22c-1.67-3.41-3.37-7-3.22-10.78"/><path class="cls-6" d="M190.94,115.05l.2,1a45.51,45.51,0,0,0,.61-7.46,15.3,15.3,0,0,0-1.84-7.18"/></g></svg>