<svg xmlns="http://www.w3.org/2000/svg" viewBox="0 0 256 256"><defs><style>.cls-1,.cls-3{fill:#fff;}.cls-2{fill:#1d1d1b;}.cls-3{stroke:#1d1d1b;stroke-linecap:round;stroke-linejoin:round;stroke-width:2px;}</style></defs><g id="Medical"><path class="cls-1" d="M118.42,238.37c-21,0-39.64-3.66-47.53-9.33-2.56-1.84-4-3.89-4.21-6.09-.39-3.74,2.67-7.63,9.11-11.61-11.16.28-23.17.64-35.77,1.09H39.9A2,2,0,0,1,38,210.51a2,2,0,0,1,1.93-2.07c15.79-.57,30.55-1,43.9-1.28A98.84,98.84,0,0,1,95,202.86a68.8,68.8,0,0,1,20.46-3.11c10.75,0,20.35,2.48,29.63,4.87,3.77,1,7.62,2,11.52,2.8,1.92.09,3.76.19,5.52.29,7.07.43,13,1,17.65,1.73a75.24,75.24,0,0,0,11.86-1.73c21-4.82,37.29-17.07,36.39-21.05-.72-3.19-18.48-3.19-29.09-3.19l-8.68,0-12.73,0h-.71c-24,10.4-47.88,15.68-70.94,15.68A147.9,147.9,0,0,1,84,197.57c-26.11-3.93-29.09-8-29-10.79,0-3.38,4.78-5.63,16.91-7.71-26.59-2.34-36.92-5.35-37.41-10.64a5.72,5.72,0,0,1,2-4.5c8-8.15,45.62-19.53,88.52-19.53,6.36,0,12.71.26,18.87.75,12,1,56.9,6.67,56.53,16.72-.27,7.56-23.42,10.49-76.18,15.35l-7.3.68,9.31.46c20.46,1,37.36,1.14,49.83,1.16a243.44,243.44,0,0,0,43.64-25,2,2,0,0,1,1.17-.38,2,2,0,0,1,1.16,3.63,246,246,0,0,1-36.4,21.75h4.64l9.3,0c21.55,0,31.14.6,32.43,6.3,1.91,8.46-20.44,21.49-39.4,25.83-.73.17-1.47.33-2.2.48,2.62,1.16,3.92,2.56,4.13,4.38,1,8.61-32.08,16.46-38.72,17.94A173.24,173.24,0,0,1,118.42,238.37ZM84.6,211.14c-8.77,4.1-14.24,8.57-13.94,11.39.1,1,1,2.13,2.57,3.26,7.28,5.23,24.93,8.61,45,8.61a171,171,0,0,0,36.73-3.9c21.79-4.89,35.87-11.41,35.62-13.58,0,0-.52-1.83-10.86-3.46-1.44.08-2.91.12-4.37.12a91.62,91.62,0,0,1-19.18-2.18c-9.72-.45-21.62-.68-35.36-.68C110,210.72,97.8,210.86,84.6,211.14Zm31-7.43a65.21,65.21,0,0,0-19.34,3l-.82.26c9.07-.14,17.59-.22,25.38-.22,6,0,11.62.05,16.87.13C130.42,205.09,123.3,203.71,115.55,203.71ZM59,186.86c1,1.19,8.17,4.14,25.56,6.75a144,144,0,0,0,21.34,1.59c19.63,0,39.94-3.94,60.43-11.72-14.27-.12-27.21-.49-40.36-1.13-11-.53-23.73-1.18-34.83-1.87-5.07.57-9.37,1.12-13.15,1.67C62.67,184.4,59.62,186.3,59,186.86Zm66.33-38.44c-41.49,0-78.68,10.85-86.06,18.32-.75.76-.88,1.21-.87,1.32s.63,3.57,26.94,6.37c6.93.73,15.34,1.41,25.69,2.06,9.92-1.11,22.13-2.27,32.77-3.25,18-1.66,36.68-3.38,50.63-5.49,20.87-3.15,21.88-5.94,21.92-6.05.09-2.74-22.69-10.12-52.86-12.56C137.62,148.66,131.51,148.42,125.36,148.42Z"/><path class="cls-1" d="M118.42,237.37c-21,0-39.29-3.64-46.94-9.14-2.33-1.67-3.61-3.48-3.81-5.38-.48-4.56,5.35-9,12.06-12.6q-18.41.42-39.74,1.19a1,1,0,0,1-1-1,1,1,0,0,1,1-1q23.85-.85,44.09-1.29a99.19,99.19,0,0,1,11.32-4.33c19.54-6,34.8-2,49.56,1.77,3.81,1,7.67,2,11.63,2.82,1.94.09,3.81.19,5.59.3,7.54.46,13.29,1,17.66,1.73a74,74,0,0,0,12.13-1.76c21.36-4.89,38.26-17.32,37.14-22.24-.92-4.08-16-4-38.79-3.94-4.26,0-8.79,0-13.6,0-20.37,8.85-44.57,15.68-70.73,15.68a146.14,146.14,0,0,1-21.77-1.62c-12.9-1.94-28.26-5.21-28.2-9.79,0-3.49,7.81-5.78,24.66-8-28.36-2.08-44.65-4.87-45.17-10.42a4.8,4.8,0,0,1,1.73-3.71c8.73-8.85,55.84-22.58,106.59-18.48,19.53,1.58,55.9,7.81,55.61,15.68-.25,7-28.6,10.09-75.27,14.4-7.18.66-14.19,1.31-20.83,2,7.53.41,15.25.78,22.88,1.16,19.38.94,35.94,1.14,50.09,1.16a241.72,241.72,0,0,0,44-25.2,1,1,0,0,1,1.4.23,1,1,0,0,1-.23,1.39,245.41,245.41,0,0,1-40.3,23.58l9.13,0c27.09-.1,39.47-.14,40.74,5.49,1.62,7.16-18.6,20-38.64,24.64-2,.47-4,.84-6,1.13,5.72,1.53,7,3.27,7.17,4.81.93,8.05-36.36,16.5-37.95,16.86A172.4,172.4,0,0,1,118.42,237.37Zm-34-27.22c-8.48,3.93-15.1,8.77-14.71,12.49.14,1.31,1.14,2.64,3,4,11.71,8.41,49.47,12.28,82.48,4.88,17.94-4,36.84-10.88,36.4-14.68-.11-.91-1.71-2.77-11.8-4.35a86.43,86.43,0,0,1-23.47-2C138.72,209.59,114.66,209.51,84.37,210.15Zm31.18-7.44a66.29,66.29,0,0,0-19.63,3c-2.22.68-4.46,1.46-6.64,2.32,22.76-.43,41.83-.43,57.09,0l-2-.51C134.9,205.08,125.73,202.71,115.55,202.71ZM91.14,179.48c-4.76.54-9.22,1.09-13.26,1.68-18.46,2.7-19.92,5-19.93,5.65,0,1.89,9.07,5.17,26.49,7.79,32.14,4.84,62.25-1.94,87.1-12.09-13.11-.06-28.17-.31-45.49-1.16C113.21,180.73,101.53,180.13,91.14,179.48Zm34.22-32.06c-42.3,0-79.51,11.27-86.77,18.62a3.08,3.08,0,0,0-1.16,2.11c.16,1.63,4,4.74,27.84,7.27,7.65.81,16.46,1.48,25.82,2.07,9-1,20-2.07,32.83-3.25,18-1.67,36.71-3.39,50.69-5.5,20.43-3.08,22.72-5.91,22.76-7,.17-4.49-27.48-11.49-53.77-13.62C137.46,147.65,131.36,147.42,125.36,147.42Z"/><path class="cls-2" d="M125,145.4c6.16,0,12.45.24,18.79.75,19.53,1.58,55.9,7.81,55.61,15.68-.25,7-28.6,10.09-75.27,14.4-7.18.66-14.19,1.31-20.83,2,7.53.41,15.25.78,22.88,1.16,19.38.94,35.94,1.14,50.09,1.16a241.72,241.72,0,0,0,44-25.2,1,1,0,0,1,.59-.19,1,1,0,0,1,.81.42,1,1,0,0,1-.23,1.39,245.41,245.41,0,0,1-40.3,23.58l9.13,0,9.29,0c20.67,0,30.33.58,31.45,5.52,1.62,7.16-18.6,20-38.64,24.64-2,.47-4,.84-6,1.13,5.72,1.53,7,3.27,7.17,4.81.93,8.05-36.36,16.5-37.95,16.86a172.4,172.4,0,0,1-37.14,3.94c-21,0-39.29-3.64-46.94-9.14-2.33-1.67-3.61-3.48-3.81-5.38-.48-4.56,5.35-9,12.06-12.6q-18.41.42-39.74,1.19H39.9a1,1,0,0,1-.95-1,1,1,0,0,1,1-1q23.85-.85,44.09-1.29a99.19,99.19,0,0,1,11.32-4.33,68.05,68.05,0,0,1,20.17-3.07c10.62,0,20.1,2.45,29.39,4.84,3.81,1,7.67,2,11.63,2.82,1.94.09,3.81.19,5.59.3,7.54.46,13.29,1,17.66,1.73a74,74,0,0,0,12.13-1.76c21.36-4.89,38.26-17.32,37.14-22.24-.8-3.53-12.21-4-30.06-4l-8.73,0-12.68,0h-.92c-20.37,8.85-44.57,15.68-70.73,15.68a146.14,146.14,0,0,1-21.77-1.62c-12.9-1.94-28.26-5.21-28.2-9.79,0-3.49,7.81-5.78,24.66-8-28.36-2.08-44.65-4.87-45.17-10.42a4.8,4.8,0,0,1,1.73-3.71c7.64-7.74,44.67-19.23,87.8-19.23M91.09,177.49c9-1,20-2.07,32.83-3.25,18-1.67,36.71-3.39,50.69-5.5,20.43-3.08,22.72-5.91,22.76-7,.17-4.49-27.48-11.49-53.77-13.62-6.14-.49-12.24-.72-18.24-.72-42.3,0-79.51,11.27-86.77,18.62a3.08,3.08,0,0,0-1.16,2.11c.16,1.63,4,4.74,27.84,7.27,7.65.81,16.46,1.48,25.82,2.07m14.84,18.71c24,0,46.39-5.84,65.61-13.69-13.11-.06-28.17-.31-45.49-1.16-12.84-.62-24.52-1.22-34.91-1.87-4.77.54-9.22,1.09-13.26,1.68-18.46,2.7-19.92,5-19.93,5.65,0,1.89,9.07,5.17,26.49,7.79a143.72,143.72,0,0,0,21.49,1.6M89.28,208.05q17.14-.33,31.49-.33t25.6.32l-2-.51c-9.49-2.45-18.66-4.82-28.84-4.82a66.29,66.29,0,0,0-19.63,3c-2.22.68-4.46,1.46-6.64,2.32m28.9,27.35a171.58,171.58,0,0,0,36.94-3.92c17.94-4,36.84-10.88,36.4-14.68-.11-.91-1.71-2.77-11.8-4.35-1.5.09-3,.14-4.42.14a91,91,0,0,1-19.05-2.19q-14.7-.68-35.49-.68-16.35,0-36.39.43c-8.48,3.93-15.1,8.77-14.71,12.49.14,1.31,1.14,2.64,3,4,7.39,5.31,25.14,8.8,45.54,8.8m6.79-92c-43.16,0-81,11.55-89.23,19.83a6.64,6.64,0,0,0-2.29,5.29c.51,5.42,9.09,8.55,31.53,10.89-8,1.9-11,4.1-11,7.35s3.31,7.8,29.9,11.8a148.21,148.21,0,0,0,17.82,1.58c-2.3.47-4.6,1.05-6.92,1.76a101.3,101.3,0,0,0-11.19,4.26c-13.3.29-28,.72-43.71,1.28a3,3,0,0,0-2.09.95,3,3,0,0,0,2.14,5.05h.21c11.3-.4,22.12-.74,32.28-1-4.82,3.56-7.07,7.12-6.71,10.63.27,2.49,1.82,4.78,4.63,6.79,8,5.78,26.93,9.52,48.11,9.52a174.65,174.65,0,0,0,37.58-4c.42-.1,10.48-2.36,20.12-5.6,13.93-4.69,19.91-8.83,19.37-13.44a5.43,5.43,0,0,0-2.36-3.84A92.8,92.8,0,0,0,220.87,201c5.08-3.24,13.4-9.55,12.07-15.41-1.46-6.44-10.8-7.08-33.4-7.08l-9.3,0h-.34a248.39,248.39,0,0,0,32.69-19.93,3,3,0,1,0-3.51-4.87,242.09,242.09,0,0,1-43.25,24.82c-11.43,0-26.55-.15-44.69-.94,18.79-1.76,36.25-3.53,48.34-5.58,15.58-2.63,21.72-5.46,21.89-10.09.11-3-2.05-7.49-21.91-12.22a257.31,257.31,0,0,0-35.54-5.53c-6.18-.5-12.56-.76-18.95-.76ZM39.58,168a4.47,4.47,0,0,1,.43-.51c7.09-7.17,44.74-18,85.35-18,6.12,0,12.2.24,18.08.72a235.77,235.77,0,0,1,34.9,5.48c11,2.67,15.44,4.94,16.71,6-1.25.84-5.67,2.88-20.74,5.15-13.92,2.1-32.56,3.82-50.57,5.49-10.62,1-22.79,2.12-32.7,3.23-10.3-.65-18.67-1.32-25.56-2-20.48-2.17-25-4.67-25.9-5.48Zm21.39,19c1.88-.81,6.43-2.19,17.2-3.77,3.74-.54,8-1.09,13-1.66,11.08.7,23.79,1.34,34.76,1.87,11.45.56,22.75.91,34.91,1.07a166.93,166.93,0,0,1-54.93,9.78,142,142,0,0,1-21.19-1.58c-14.37-2.16-21.19-4.44-23.77-5.71Zm116.6-2.39,12.69,0h.08l8.64,0c7.45,0,15.07.06,20.41.56,6.79.63,7.64,1.76,7.72,1.88.14.68-1.78,4.15-9.32,9a86.34,86.34,0,0,1-26.34,10.83,72.89,72.89,0,0,1-11.58,1.7c-4.66-.71-10.59-1.29-17.64-1.71-1.73-.11-3.56-.21-5.45-.3-3.86-.82-7.67-1.8-11.36-2.75a149.37,149.37,0,0,0-21.82-4.48,188,188,0,0,0,53.47-14.67Zm-73.78,21.31a62.21,62.21,0,0,1,11.76-1.12,73.81,73.81,0,0,1,11.92,1l-6.7,0c-5.34,0-11,0-17,.11Zm-19,6.31c13.11-.28,25.2-.42,35.93-.42,13.69,0,25.54.23,35.24.67a92,92,0,0,0,19.3,2.2c1.44,0,2.89-.05,4.32-.13,6.57,1,8.9,2.14,9.68,2.64-2.23,2.51-15.86,8.22-34.61,12.42a169.63,169.63,0,0,1-36.51,3.88c-19.83,0-37.25-3.3-44.37-8.42-1.85-1.32-2.12-2.22-2.16-2.55-.16-1.58,3.22-5.61,13.18-10.29Z"/><path class="cls-3" d="M184.5,64.46C148.68,82,115.23,24.34,96.69,22.72v99.84c18.54,1.62,72.78,29.33,93.86,25.81Z"/><path class="cls-3" d="M40.69,40.54V135c0,10.24,19.66,18.53,43.91,18.53s43.9-8.29,43.9-18.53V40.54"/><ellipse class="cls-3" cx="84.6" cy="40.54" rx="43.9" ry="18.54"/><ellipse class="cls-3" cx="84.6" cy="38.46" rx="14.33" ry="6.05"/><ellipse class="cls-2" cx="84.6" cy="38.46" rx="10.01" ry="4.23"/><path class="cls-2" d="M196.67,232c-.58,0-1.16-.05-1.73-.11l-146.53-17a28.22,28.22,0,0,1-3.61.2,44.54,44.54,0,0,1-5.16-.31c-4.83-.56-12.91-2.36-12.54-5.54.27-2.34,4.67-2.83,8.31-2.83a44.58,44.58,0,0,1,5.17.31,37.72,37.72,0,0,1,8.55,1.91l146.54,17a16.91,16.91,0,0,1,1.71.28l21.12,4.54a1,1,0,0,1-.21,2Zm-162-21.92a31.23,31.23,0,0,0,5.35,1,37.39,37.39,0,0,0,4.16.26c.51,0,.94,0,1.29,0a30.45,30.45,0,0,0-5.35-1A37.39,37.39,0,0,0,36,210Q35.24,210,34.71,210.05Z"/><path class="cls-1" d="M35.41,207.34a43.76,43.76,0,0,1,5.05.31,36.14,36.14,0,0,1,8.44,1.89l146.65,17.05a14.62,14.62,0,0,1,1.61.27l21.13,4.54-21.6-.43a15.05,15.05,0,0,1-1.64-.11L48.4,213.81a27.45,27.45,0,0,1-3.59.21,43.63,43.63,0,0,1-5.05-.3C33.12,213,27.9,211,28.09,209.28c.14-1.22,3.13-1.94,7.32-1.94m8.81,5c2.17,0,3.64-.27,3.7-.76.09-.77-3.34-1.8-7.65-2.31A38,38,0,0,0,36,209c-2.17,0-3.64.26-3.69.75-.09.78,3.33,1.81,7.64,2.31a38.17,38.17,0,0,0,4.27.27m-8.81-7c-5.89,0-9,1.25-9.3,3.71-.33,2.81,3.34,4.2,4.54,4.66a38.88,38.88,0,0,0,8.88,2,44.2,44.2,0,0,0,5.28.32,30.48,30.48,0,0,0,3.6-.19l146.41,17q.92.1,1.83.12l21.6.43h0a2,2,0,0,0,.42-4l-21.12-4.54c-.6-.13-1.21-.23-1.81-.3l-146.41-17a39.06,39.06,0,0,0-8.67-1.92,46.69,46.69,0,0,0-5.29-.32Zm11.32,4.79Z"/></g></svg>