<svg xmlns="http://www.w3.org/2000/svg" viewBox="0 0 256 256"><defs><style>.RGB-2pt-black-round-outline-on-white-bg,.cls-1{fill:#f6f6f6;}.RGB-2pt-black-round-outline-on-white-bg{stroke:#000;}.RGB-2pt-black-round-outline-on-white-bg,.RGB-2pt-white-round-outline-on-black-bg{stroke-linecap:round;stroke-linejoin:round;stroke-width:2px;}.RGB-2pt-white-round-outline-on-black-bg{stroke:#f6f6f6;}.cls-2{fill:none;}</style></defs><g id="Sources_of_light" data-name="Sources of light"><path d="M84.41,200.44a1,1,0,0,1-.78-.37c-9-11.34-13.83-32.45-13-56.71-2.25,1-3.08,1.95-3.08,2.46a1,1,0,0,1-1,1h-2a1,1,0,0,1-1-1c0-2.62,2.39-4.84,7.3-6.76a137.49,137.49,0,0,1,3.31-22.82C78.56,98,86.29,85.48,96,81a1.06,1.06,0,0,1,.42-.09,1,1,0,0,1,.35.07,1,1,0,0,1,.56.52l.83,1.82a1,1,0,0,1-.49,1.32c-8.53,3.91-15.47,15.45-19.54,32.49A132,132,0,0,0,75,137.69c11.25-3.24,30.57-5.23,51.06-5.23,21.6,0,62.45,2.79,62.45,13.36a1,1,0,0,1-1,1h-2a1,1,0,0,1-1-1c0-3.18-20.63-9.36-58.45-9.36-24.93,0-42.7,2.75-51.32,5.39-1.15,24,3.33,44.79,12,55.73a1,1,0,0,1,.21.73,1,1,0,0,1-.37.67L85,200.23A1,1,0,0,1,84.41,200.44Z"/><path class="cls-1" d="M67.58,144.09a2,2,0,0,1,1,1.63l.07.11a4.36,4.36,0,0,1,1-.78l0,1.54a13.86,13.86,0,0,0,2,1q0-2.91.15-5.79A14.09,14.09,0,0,0,67.58,144.09Zm105.73-4.36c-10.5-2.47-27.13-4.27-47.27-4.27-23.74,0-42.59,2.51-52.29,5.65-.13,2.41-.19,4.83-.2,7.25.6.21,1.26.43,2,.64,0-2.11,0-4.24.13-6.39,8.79-2.56,26.17-5.15,50.36-5.15,15.36,0,30,1.09,41.09,3,2.41.43,4.48.86,6.27,1.3C173.38,141.11,173.35,140.42,173.31,139.73Zm6,1.7c0,.71,0,1.43.06,2.14,2.56,1,3.71,1.79,4,2.24l.08-.1a2,2,0,0,1,.58-1.3,1.71,1.71,0,0,1,.44-.32A16.34,16.34,0,0,0,179.3,141.43ZM66.59,145.82h-2a3.46,3.46,0,0,0,.69,2h1.31a2,2,0,0,0,1-.27A2.4,2.4,0,0,1,66.59,145.82Zm1-1.73a2,2,0,0,1,1,1.63l.07.11a4.36,4.36,0,0,1,1-.78l0,1.54a13.86,13.86,0,0,0,2,1q0-2.91.15-5.79A14.09,14.09,0,0,0,67.58,144.09Zm4,5.67a18.61,18.61,0,0,1-2-.9c0,.7,0,1.39,0,2.09.63.29,1.31.58,2,.85Q71.59,150.78,71.59,149.76Zm-4-5.67a2,2,0,0,1,1,1.63l.07.11a4.36,4.36,0,0,1,1-.78l0,1.54a13.86,13.86,0,0,0,2,1q0-2.91.15-5.79A14.09,14.09,0,0,0,67.58,144.09Zm20,52.86c-6.79-8.53-11-23.86-11.84-41.75-.71-.19-1.39-.39-2-.59.68,17.29,4.53,33.8,12.32,43.59l-1.57,1.24C76.28,189.21,72.3,171.93,71.67,154c-.72-.26-1.41-.53-2-.8.58,20.31,5.31,37.6,13.22,47.54a2,2,0,0,0,2.81.32l1.56-1.25a2,2,0,0,0,.74-1.34A2,2,0,0,0,87.54,197Zm-20-52.86a2,2,0,0,1,1,1.63l.07.11a4.36,4.36,0,0,1,1-.78l0,1.54a13.86,13.86,0,0,0,2,1q0-2.91.15-5.79A14.09,14.09,0,0,0,67.58,144.09Zm0,0a2,2,0,0,1,1,1.63l.07.11a4.36,4.36,0,0,1,1-.78l0,1.54a13.86,13.86,0,0,0,2,1q0-2.91.15-5.79A14.09,14.09,0,0,0,67.58,144.09Zm0,0a2,2,0,0,1,1,1.63l.07.11a4.36,4.36,0,0,1,1-.78l0,1.54a13.86,13.86,0,0,0,2,1q0-2.91.15-5.79A14.09,14.09,0,0,0,67.58,144.09Zm105.73-4.36c-10.5-2.47-27.13-4.27-47.27-4.27-23.74,0-42.59,2.51-52.29,5.65-.13,2.41-.19,4.83-.2,7.25.6.21,1.26.43,2,.64,0-2.11,0-4.24.13-6.39,8.79-2.56,26.17-5.15,50.36-5.15,15.36,0,30,1.09,41.09,3,2.41.43,4.48.86,6.27,1.3C173.38,141.11,173.35,140.42,173.31,139.73Zm6,1.7c0,.71,0,1.43.06,2.14,2.56,1,3.71,1.79,4,2.24l.08-.1a2,2,0,0,1,.58-1.3,1.71,1.71,0,0,1,.44-.32A16.34,16.34,0,0,0,179.3,141.43Zm-.2-4.19.12,2.15c3.74,1.28,6.4,2.76,7.58,4.43h.69a2,2,0,0,1,2,1.8C189.36,142.24,185.94,139.47,179.1,137.24Zm5.4,10.31a2,2,0,0,0,1,.27h1.31a3.46,3.46,0,0,0,.69-2h-2A2.44,2.44,0,0,1,184.5,147.55Zm-5.2-6.12c0,.71,0,1.43.06,2.14,2.56,1,3.71,1.79,4,2.24l.08-.1a2,2,0,0,1,.58-1.3,1.71,1.71,0,0,1,.44-.32A16.34,16.34,0,0,0,179.3,141.43ZM67.58,144.09a2,2,0,0,1,1,1.63l.07.11a4.36,4.36,0,0,1,1-.78l0,1.54a13.86,13.86,0,0,0,2,1q0-2.91.15-5.79A14.09,14.09,0,0,0,67.58,144.09Zm109.48-7.46c-.64-.18-1.3-.36-2-.53,0,.7.1,1.4.14,2.1.68.18,1.34.36,2,.55C177.15,138,177.11,137.34,177.06,136.63Zm-3.75,3.1c-10.5-2.47-27.13-4.27-47.27-4.27-23.74,0-42.59,2.51-52.29,5.65-.13,2.41-.19,4.83-.2,7.25.6.21,1.26.43,2,.64,0-2.11,0-4.24.13-6.39,8.79-2.56,26.17-5.15,50.36-5.15,15.36,0,30,1.09,41.09,3,2.41.43,4.48.86,6.27,1.3C173.38,141.11,173.35,140.42,173.31,139.73ZM67.58,144.09a2,2,0,0,1,1,1.63l.07.11a4.36,4.36,0,0,1,1-.78l0,1.54a13.86,13.86,0,0,0,2,1q0-2.91.15-5.79A14.09,14.09,0,0,0,67.58,144.09Zm105.73-4.36c-10.5-2.47-27.13-4.27-47.27-4.27-23.74,0-42.59,2.51-52.29,5.65-.13,2.41-.19,4.83-.2,7.25.6.21,1.26.43,2,.64,0-2.11,0-4.24.13-6.39,8.79-2.56,26.17-5.15,50.36-5.15,15.36,0,30,1.09,41.09,3,2.41.43,4.48.86,6.27,1.3C173.38,141.11,173.35,140.42,173.31,139.73ZM67.58,144.09a2,2,0,0,1,1,1.63l.07.11a4.36,4.36,0,0,1,1-.78l0,1.54a13.86,13.86,0,0,0,2,1q0-2.91.15-5.79A14.09,14.09,0,0,0,67.58,144.09Zm105.73-4.36c-10.5-2.47-27.13-4.27-47.27-4.27-23.74,0-42.59,2.51-52.29,5.65-.13,2.41-.19,4.83-.2,7.25.6.21,1.26.43,2,.64,0-2.11,0-4.24.13-6.39,8.79-2.56,26.17-5.15,50.36-5.15,15.36,0,30,1.09,41.09,3,2.41.43,4.48.86,6.27,1.3C173.38,141.11,173.35,140.42,173.31,139.73ZM96.38,82l.83,1.82c-8.81,4-15.95,15.82-20.09,33.17a134,134,0,0,0-3.24,22.12c11.58-3.67,32.28-5.6,52.16-5.6,17.26,0,35.15,1.45,47.15,4.24-.05-.7-.1-1.39-.16-2.09-1.48-.33-3.06-.65-4.74-1-11.35-2-26.75-3.2-42.25-3.2-19.75,0-38.45,1.85-49.95,4.88a131.76,131.76,0,0,1,3-18.94c4-16.73,10.74-28,19-31.81a2,2,0,0,0,1-2.65l-.83-1.82a2,2,0,0,0-1.12-1,2.11,2.11,0,0,0-.7-.13,1.87,1.87,0,0,0-.83.19c-10,4.56-17.89,17.3-22.32,35.87a138.75,138.75,0,0,0-3.3,22.35c-4.82,2-7.22,4.38-7.33,7.25a2,2,0,0,1,2-1.79h.69c1.08-1.51,3.36-2.86,6.57-4.06a135.79,135.79,0,0,1,3.32-23.29C79.46,98.52,87,86.26,96.38,82ZM68.59,145.72l.07.11a4.36,4.36,0,0,1,1-.78l0,1.54a13.86,13.86,0,0,0,2,1q0-2.91.15-5.79a14.09,14.09,0,0,0-4.16,2.27A2,2,0,0,1,68.59,145.72Zm104.72-6c-10.5-2.47-27.13-4.27-47.27-4.27-23.74,0-42.59,2.51-52.29,5.65-.13,2.41-.19,4.83-.2,7.25.6.21,1.26.43,2,.64,0-2.11,0-4.24.13-6.39,8.79-2.56,26.17-5.15,50.36-5.15,15.36,0,30,1.09,41.09,3,2.41.43,4.48.86,6.27,1.3C173.38,141.11,173.35,140.42,173.31,139.73ZM67.58,144.09a2,2,0,0,1,1,1.63l.07.11a4.36,4.36,0,0,1,1-.78l0,1.54a13.86,13.86,0,0,0,2,1q0-2.91.15-5.79A14.09,14.09,0,0,0,67.58,144.09Zm105.73-4.36c-10.5-2.47-27.13-4.27-47.27-4.27-23.74,0-42.59,2.51-52.29,5.65-.13,2.41-.19,4.83-.2,7.25.6.21,1.26.43,2,.64,0-2.11,0-4.24.13-6.39,8.79-2.56,26.17-5.15,50.36-5.15,15.36,0,30,1.09,41.09,3,2.41.43,4.48.86,6.27,1.3C173.38,141.11,173.35,140.42,173.31,139.73ZM67.58,144.09a2,2,0,0,1,1,1.63l.07.11a4.36,4.36,0,0,1,1-.78l0,1.54a13.86,13.86,0,0,0,2,1q0-2.91.15-5.79A14.09,14.09,0,0,0,67.58,144.09Zm105.73-4.36c-10.5-2.47-27.13-4.27-47.27-4.27-23.74,0-42.59,2.51-52.29,5.65-.13,2.41-.19,4.83-.2,7.25.6.21,1.26.43,2,.64,0-2.11,0-4.24.13-6.39,8.79-2.56,26.17-5.15,50.36-5.15,15.36,0,30,1.09,41.09,3,2.41.43,4.48.86,6.27,1.3C173.38,141.11,173.35,140.42,173.31,139.73Zm0,0c-10.5-2.47-27.13-4.27-47.27-4.27-23.74,0-42.59,2.51-52.29,5.65-.13,2.41-.19,4.83-.2,7.25.6.21,1.26.43,2,.64,0-2.11,0-4.24.13-6.39,8.79-2.56,26.17-5.15,50.36-5.15,15.36,0,30,1.09,41.09,3,2.41.43,4.48.86,6.27,1.3C173.38,141.11,173.35,140.42,173.31,139.73ZM67.58,144.09a2,2,0,0,1,1,1.63l.07.11a4.36,4.36,0,0,1,1-.78l0,1.54a13.86,13.86,0,0,0,2,1q0-2.91.15-5.79A14.09,14.09,0,0,0,67.58,144.09Zm109.7-3.31c-.61-.19-1.26-.37-1.94-.54,0,.7.06,1.39.08,2.09.7.18,1.34.37,1.92.56C177.33,142.18,177.31,141.48,177.28,140.78Zm-4-1.05c-10.5-2.47-27.13-4.27-47.27-4.27-23.74,0-42.59,2.51-52.29,5.65-.13,2.41-.19,4.83-.2,7.25.6.21,1.26.43,2,.64,0-2.11,0-4.24.13-6.39,8.79-2.56,26.17-5.15,50.36-5.15,15.36,0,30,1.09,41.09,3,2.41.43,4.48.86,6.27,1.3C173.38,141.11,173.35,140.42,173.31,139.73ZM67.58,144.09a2,2,0,0,1,1,1.63l.07.11a4.36,4.36,0,0,1,1-.78l0,1.54a13.86,13.86,0,0,0,2,1q0-2.91.15-5.79A14.09,14.09,0,0,0,67.58,144.09Zm0,0a2,2,0,0,1,1,1.63l.07.11a4.36,4.36,0,0,1,1-.78l0,1.54a13.86,13.86,0,0,0,2,1q0-2.91.15-5.79A14.09,14.09,0,0,0,67.58,144.09Zm8,7c-.71-.19-1.38-.4-2-.61l0,2,2,.6C75.59,152.43,75.58,151.76,75.57,151.08Zm-8-7a2,2,0,0,1,1,1.63l.07.11a4.36,4.36,0,0,1,1-.78l0,1.54a13.86,13.86,0,0,0,2,1q0-2.91.15-5.79A14.09,14.09,0,0,0,67.58,144.09Zm0,0a2,2,0,0,1,1,1.63l.07.11a4.36,4.36,0,0,1,1-.78l0,1.54a13.86,13.86,0,0,0,2,1q0-2.91.15-5.79A14.09,14.09,0,0,0,67.58,144.09Zm4,5.67a18.61,18.61,0,0,1-2-.9c0,.7,0,1.39,0,2.09.63.29,1.31.58,2,.85Q71.59,150.78,71.59,149.76Z"/><path class="RGB-2pt-black-round-outline-on-white-bg" d="M180.82,232.07c0,7.11-24.88,12.88-55.57,12.88s-55.57-5.77-55.57-12.88V188.88c0-7.11,24.88-12.87,55.57-12.87s55.57,5.76,55.57,12.87Z"/><path class="RGB-2pt-black-round-outline-on-white-bg" d="M173.08,158.84c0,42.68-94.08,42.68-94.08,0,0-68.52,21.06-77.29,47-77.29S173.08,90.46,173.08,158.84Z"/><ellipse class="RGB-2pt-white-round-outline-on-black-bg" cx="125.44" cy="174.88" rx="16.37" ry="5.51"/><path d="M125.44,178.54c-3.41,0-7.39-1-7.39-3.66a2.5,2.5,0,0,1,.18-.94,2.39,2.39,0,0,1-.18-.92c0-2.71,4-3.67,7.39-3.67s7.39,1,7.39,3.67a2.39,2.39,0,0,1-.18.92,2.5,2.5,0,0,1,.18.94C132.83,177.58,128.85,178.54,125.44,178.54Z"/><path class="cls-1" d="M125.44,170.35c3.08,0,6.39.84,6.39,2.67a1.47,1.47,0,0,1-.33.93,1.43,1.43,0,0,1,.33.93c0,1.83-3.31,2.66-6.39,2.66s-6.39-.83-6.39-2.66a1.49,1.49,0,0,1,.33-.93,1.53,1.53,0,0,1-.33-.93c0-1.83,3.31-2.67,6.39-2.67m-4.84,2.71a14.23,14.23,0,0,1,9.66,0s0,0,0,0c-.21-.35-1.84-1.13-4.85-1.13s-4.73.83-4.86,1.16h0m4.84,1.09a14.73,14.73,0,0,0,2.42-.2,14.74,14.74,0,0,0-4.84,0,14.73,14.73,0,0,0,2.42.2m0,1.53a12.39,12.39,0,0,1-4.81-.83l0,.06c.13.27,1.76,1.1,4.86,1.1s4.64-.79,4.85-1.13c0,0,0,0,0,0a12.6,12.6,0,0,1-4.82.83m0-7.33c-5.17,0-8.39,1.79-8.39,4.67a3.26,3.26,0,0,0,.13.93,3.22,3.22,0,0,0-.13.93c0,2.88,3.22,4.66,8.39,4.66s8.39-1.78,8.39-4.66a3.59,3.59,0,0,0-.12-.93,3.65,3.65,0,0,0,.12-.93c0-2.88-3.21-4.67-8.39-4.67Z"/><path class="RGB-2pt-black-round-outline-on-white-bg" d="M163.77,89.82c0,5-17.16,9.1-38.34,9.1S87.1,94.84,87.1,89.82V59.3c0-5,17.16-9.1,38.33-9.1s38.34,4.07,38.34,9.1Z"/><path class="RGB-2pt-black-round-outline-on-white-bg" d="M152.19,55.06c0,3.51-12,6.35-26.76,6.35s-26.75-2.84-26.75-6.35v-14c0-3.51,12-6.35,26.75-6.35s26.76,2.84,26.76,6.35Z"/><path class="RGB-2pt-black-round-outline-on-white-bg" d="M133.5,170.3c0,1.5-3.61,2.72-8.06,2.72s-8-1.22-8-2.72v-9.12c0-1.51,3.6-2.72,8-2.72s8.06,1.21,8.06,2.72Z"/><path class="RGB-2pt-black-round-outline-on-white-bg" d="M131.06,141.42c0,6.92-2.51,9.46-5.62,9.46s-5.62-2.54-5.62-9.46c0-7.95,5.62-15.6,5.62-15.6S131.06,134.5,131.06,141.42Z"/><path class="RGB-2pt-black-round-outline-on-white-bg" d="M131.06,159.91c0,1.05-2.51,1.9-5.62,1.9s-5.62-.85-5.62-1.9v-4.17c0-1.05,2.52-1.9,5.62-1.9s5.62.85,5.62,1.9Z"/><path d="M161.84,197.73a2,2,0,0,1-1.36-.54,2,2,0,0,1-.1-2.83c7.46-8,12.45-22.4,13.75-39.63-11.54,2.79-29.35,4.45-48.09,4.45-21.6,0-62.45-2.79-62.45-13.36a1,1,0,0,1,1-1h2a1,1,0,0,1,1,1c0,3.18,20.63,9.36,58.45,9.36,19,0,37-1.7,48.33-4.56a119.16,119.16,0,0,0-2.79-30.91c-4.37-19.2-13.08-32.64-23.9-36.88a2,2,0,0,1-1.13-2.59A2,2,0,0,1,148.41,79a1.83,1.83,0,0,1,.73.14c12.07,4.73,21.68,19.2,26.34,39.71a125.91,125.91,0,0,1,2.85,30.66c4.82-1.61,6.16-3,6.16-3.66a1,1,0,0,1,1-1h2a1,1,0,0,1,1,1c0,3.11-3.39,5.67-10.34,7.82-1.16,19-6.42,34.4-14.84,43.45A2,2,0,0,1,161.84,197.73Z"/><path class="cls-2" d="M73.59,152.5c-.69-.23-1.35-.46-2-.7m115.87-6h-2M73.56,150.47c-.71-.23-1.37-.47-2-.71m-5-3.94h-2m2-2H65.28a3.46,3.46,0,0,0-.69,2h2a2.4,2.4,0,0,1,1-1.73A2,2,0,0,0,66.59,143.82Zm2.07,2a3.78,3.78,0,0,0,.93.76l0-1.54A4.36,4.36,0,0,0,68.66,145.83Zm0,0a3.78,3.78,0,0,0,.93.76l0-1.54A4.36,4.36,0,0,0,68.66,145.83Zm0,0a3.78,3.78,0,0,0,.93.76l0-1.54A4.36,4.36,0,0,0,68.66,145.83Zm0,0a3.78,3.78,0,0,0,.93.76l0-1.54A4.36,4.36,0,0,0,68.66,145.83Zm0,0a3.78,3.78,0,0,0,.93.76l0-1.54A4.36,4.36,0,0,0,68.66,145.83Zm0,0a3.78,3.78,0,0,0,.93.76l0-1.54A4.36,4.36,0,0,0,68.66,145.83Zm0,0a3.78,3.78,0,0,0,.93.76l0-1.54A4.36,4.36,0,0,0,68.66,145.83Zm0,0a3.78,3.78,0,0,0,.93.76l0-1.54A4.36,4.36,0,0,0,68.66,145.83Zm-1.08,1.72a2,2,0,0,1-1,.27H65.28a10.94,10.94,0,0,0,4.3,3.13c0-.7,0-1.39,0-2.09A9.26,9.26,0,0,1,67.58,147.55Zm1.08-1.72a3.78,3.78,0,0,0,.93.76l0-1.54A4.36,4.36,0,0,0,68.66,145.83Zm0,0a3.78,3.78,0,0,0,.93.76l0-1.54A4.36,4.36,0,0,0,68.66,145.83Zm0,0a3.78,3.78,0,0,0,.93.76l0-1.54A4.36,4.36,0,0,0,68.66,145.83Zm0,0a3.78,3.78,0,0,0,.93.76l0-1.54A4.36,4.36,0,0,0,68.66,145.83Zm0,0a3.78,3.78,0,0,0,.93.76l0-1.54A4.36,4.36,0,0,0,68.66,145.83Zm0,0a3.78,3.78,0,0,0,.93.76l0-1.54A4.36,4.36,0,0,0,68.66,145.83Zm0,0a3.78,3.78,0,0,0,.93.76l0-1.54A4.36,4.36,0,0,0,68.66,145.83Zm0,0a3.78,3.78,0,0,0,.93.76l0-1.54A4.36,4.36,0,0,0,68.66,145.83Zm4.93,6.67c-.69-.23-1.35-.46-2-.7,0,.72,0,1.44,0,2.15.63.23,1.29.45,2,.66C73.63,153.91,73.61,153.21,73.59,152.5Zm0-2c0-.71,0-1.41,0-2.11-.75-.26-1.4-.51-2-.75,0,.72,0,1.43,0,2.15s0,1.36,0,2c.62.24,1.28.47,2,.7Zm105.8-6.9c0,1.49,0,3,0,4.48,2.89-1.09,3.79-1.92,4-2.24C183.07,145.36,181.92,144.54,179.36,143.57Zm-2.17-4.82c0-.71-.08-1.41-.13-2.12A118.32,118.32,0,0,0,174.51,119c-4.59-20.18-14-34.39-25.73-39a1,1,0,0,0-.37-.07,1,1,0,0,0-.36,1.93c11.13,4.36,20.06,18.06,24.51,37.58a118.25,118.25,0,0,1,2.52,16.62c0,.7.1,1.4.14,2.1s.09,1.36.12,2c.68.17,1.33.35,1.94.54C177.26,140.1,177.23,139.43,177.19,138.75Zm8.3,9.07a2,2,0,0,1-1-.27c-1.27,1.14-3.73,2.27-7.22,3.31q.16-4,.06-8c0-.71,0-1.41-.06-2.11s-.05-1.35-.09-2-.08-1.41-.13-2.12A118.32,118.32,0,0,0,174.51,119c-4.59-20.18-14-34.39-25.73-39a1,1,0,0,0-.37-.07,1,1,0,0,0-.36,1.93c11.13,4.36,20.06,18.06,24.51,37.58a118.25,118.25,0,0,1,2.52,16.62c0,.7.1,1.4.14,2.1s.09,1.36.12,2,.06,1.39.08,2.09c-.62-.18-1.3-.35-2-.52-1.79-.44-3.86-.87-6.27-1.3-11.13-2-25.73-3-41.09-3-24.19,0-41.57,2.59-50.36,5.15-.09,2.15-.14,4.28-.13,6.39,0,.7,0,1.39,0,2.08-.71-.19-1.38-.4-2-.61l0,2,2,.6c11.84,3.33,31.51,5.08,50.43,5.08,18.28,0,37.25-1.64,49.19-4.75-1.12,17.42-6.07,33-14.12,41.61a1,1,0,0,0,0,1.42,1,1,0,0,0,.68.27,1,1,0,0,0,.74-.32c9.15-9.84,13.66-26.42,14.61-43.52,4.8-1.42,8.22-3.12,9.61-5.07Zm4-1.8a.17.17,0,0,0,0-.07v-.13A1.27,1.27,0,0,1,189.48,146Zm-4-2.2a1.85,1.85,0,0,0-1,.27,2,2,0,0,1,0,3.46,2,2,0,0,0,1,.27h1.31a3.24,3.24,0,0,0,0-4Z"/><path class="cls-1" d="M189.49,145.82a1.27,1.27,0,0,1,0,.2,2,2,0,0,1-2,1.8h-.69a3.24,3.24,0,0,0,0-4h.69a2,2,0,0,1,2,1.8A1.27,1.27,0,0,1,189.49,145.82Z"/><path class="cls-1" d="M185.49,145.82a2.44,2.44,0,0,1-1,1.73,2,2,0,0,1-1-1.63.59.59,0,0,0-.08-.11l.08-.1a2,2,0,0,1,.58-1.3,1.71,1.71,0,0,1,.44-.32A2.42,2.42,0,0,1,185.49,145.82Z"/><path class="cls-1" d="M175.42,142.33c-.62-.18-1.3-.35-2-.52,0-.7-.05-1.39-.09-2.08.7.16,1.38.33,2,.51C175.37,140.94,175.4,141.63,175.42,142.33Z"/><path class="cls-1" d="M175.34,140.24c-.65-.18-1.33-.35-2-.51,0-.68-.07-1.36-.12-2,.7.16,1.37.33,2,.5Q175.3,139.22,175.34,140.24Z"/><path class="cls-1" d="M175.22,138.2c-.66-.17-1.33-.34-2-.5-.05-.7-.1-1.39-.16-2.09.71.16,1.39.32,2.05.49C175.13,136.8,175.18,137.5,175.22,138.2Z"/><path class="cls-1" d="M147.48,80.6a1,1,0,0,0,.57,1.3c11.13,4.36,20.06,18.06,24.51,37.58a118.25,118.25,0,0,1,2.52,16.62c-.66-.17-1.34-.33-2.05-.49a115.92,115.92,0,0,0-2.42-15.68c-4.3-18.87-12.79-32.05-23.29-36.17A3,3,0,0,1,148.41,78a3.19,3.19,0,0,1,1.1.2c12.38,4.86,22.21,19.59,27,40.43a121.1,121.1,0,0,1,2.64,18.64c-.65-.21-1.33-.41-2-.61A118.32,118.32,0,0,0,174.51,119c-4.59-20.18-14-34.39-25.73-39a1,1,0,0,0-.37-.07A1,1,0,0,0,147.48,80.6Z"/><path class="cls-1" d="M179.22,139.39c-.64-.22-1.32-.44-2-.64,0-.71-.08-1.41-.13-2.12.71.2,1.39.4,2,.61Z"/><path class="cls-1" d="M179.3,141.43c-.63-.22-1.3-.44-2-.65,0-.68-.05-1.35-.09-2,.71.2,1.39.42,2,.64C179.25,140.07,179.28,140.75,179.3,141.43Z"/><path class="cls-1" d="M179.36,143.57c-.59-.22-1.26-.45-2-.68,0-.71,0-1.41-.06-2.11.72.21,1.39.43,2,.65C179.33,142.14,179.35,142.86,179.36,143.57Z"/><path class="cls-1" d="M177.28,150.86q.16-4,.06-8c.76.23,1.43.46,2,.68,0,1.49,0,3,0,4.48,2.89-1.09,3.79-1.92,4-2.24a.59.59,0,0,1,.08.11,2,2,0,0,0,1,1.63C183.23,148.69,180.77,149.82,177.28,150.86Z"/><path class="cls-1" d="M189.48,146c-.13,3.41-3.53,6.15-10.37,8.37-1.26,18.91-6.59,34.28-15.07,43.38a3,3,0,0,1-2.2,1,3,3,0,0,1-2.19-5C166.76,186,171.58,172.41,173,156c-11.63,2.62-28.89,4.16-47,4.16-15.5,0-30.9-1.17-42.25-3.2q-4.53-.81-8.09-1.78-.06-1-.09-2.1c11.84,3.33,31.51,5.08,50.43,5.08,18.28,0,37.25-1.64,49.19-4.75-1.12,17.42-6.07,33-14.12,41.61a1,1,0,0,0,0,1.42,1,1,0,0,0,.68.27,1,1,0,0,0,.74-.32c9.15-9.84,13.66-26.42,14.61-43.52,4.8-1.42,8.22-3.12,9.61-5.07h.69A2,2,0,0,0,189.48,146Z"/><path class="cls-1" d="M175.34,151.4c-10.31,2.72-27.8,4.78-49.3,4.78-22.33,0-40.34-2.22-50.47-5.1,0-.69,0-1.38,0-2.08a89.55,89.55,0,0,0,9.4,2.13c11.13,2,25.72,3.05,41.09,3.05,18.56,0,36.09-1.62,47.36-4.35.09-2.67.09-5.35,0-8,.72.17,1.4.34,2,.52C175.5,145.38,175.48,148.42,175.34,151.4Z"/><path class="cls-1" d="M75.57,151.08c-.71-.19-1.38-.4-2-.61,0-.71,0-1.41,0-2.11.6.21,1.26.43,2,.64C75.55,149.7,75.56,150.39,75.57,151.08Z"/><path class="cls-1" d="M75.7,155.2c-.71-.19-1.39-.39-2-.59,0-.7,0-1.4-.07-2.11l2,.6Q75.64,154.17,75.7,155.2Z"/><path class="cls-1" d="M71.67,154c-.72-.26-1.41-.53-2-.8,0-.73,0-1.46,0-2.2.63.29,1.31.58,2,.85C71.63,152.52,71.65,153.24,71.67,154Z"/><path class="cls-1" d="M71.59,147.61c0,.72,0,1.43,0,2.15a18.61,18.61,0,0,1-2-.9c0-.75,0-1.51,0-2.27A13.86,13.86,0,0,0,71.59,147.61Z"/><path class="cls-1" d="M69.59,146.59c0,.76,0,1.52,0,2.27a9.26,9.26,0,0,1-2-1.31,2,2,0,0,0,1-1.62l.07-.1A3.78,3.78,0,0,0,69.59,146.59Z"/><path class="cls-1" d="M68.66,145.83l-.07.1a2,2,0,0,1-1,1.62,2,2,0,0,1,0-3.46,2,2,0,0,1,1,1.63Z"/><path class="cls-1" d="M69.63,153.15c-4.61-2-6.93-4.35-7-7.13a2,2,0,0,0,2,1.8h.69a10.94,10.94,0,0,0,4.3,3.13C69.59,151.69,69.61,152.42,69.63,153.15Z"/><path class="cls-1" d="M64.59,145.82a3.46,3.46,0,0,0,.69,2h-.69a2,2,0,0,1-2-1.8,1.34,1.34,0,0,1,0-.2,1.48,1.48,0,0,1,0-.21,2,2,0,0,1,2-1.79h.69A3.46,3.46,0,0,0,64.59,145.82Z"/><path class="cls-1" d="M123.57,40.76c-10.32-1.3-36.83-6-38.2-9.3a1.7,1.7,0,0,1,.23-1.71c.52-.66,1.37-1,4.4-1,6.56,0,21.77,1.74,45.21,5.18a1,1,0,0,1,.66.39,1,1,0,0,1,.18.75l-.14,1a1,1,0,0,1-1,.86h-.15c-23.63-3.47-35.62-4.7-41.68-5A237,237,0,0,0,124,37.78a1,1,0,0,1,.86,1.12l-.12,1a1.06,1.06,0,0,1-.38.67,1.05,1.05,0,0,1-.62.21Z"/><path d="M90,29.73c4.86,0,16.52,1,45.06,5.17l-.14,1c-29.51-4.33-40.81-5.16-45.13-5.16a11.15,11.15,0,0,0-2.35.16c2.36,1.61,19.61,5.77,36.38,7.88l-.13,1c-15.57-2-36.51-6.54-37.4-8.69a.72.72,0,0,1,.1-.72c.18-.22.49-.63,3.61-.63m0-2v0c-3.09,0-4.35.34-5.18,1.39a2.7,2.7,0,0,0-.37,2.72c.41,1,1,2.52,14.59,5.6,7.61,1.73,16.73,3.34,24.4,4.31l.25,0a2,2,0,0,0,1.23-.42,2,2,0,0,0,.76-1.33l.12-1a2,2,0,0,0-1.73-2.23c-5.26-.66-10.49-1.52-15.26-2.42,6.49.77,14.91,1.9,25.82,3.5l.29,0a2,2,0,0,0,2-1.71l.14-1a2,2,0,0,0-.37-1.48,2,2,0,0,0-1.32-.79C111.87,29.48,96.61,27.73,90,27.73Z"/></g></svg>