<svg xmlns="http://www.w3.org/2000/svg" viewBox="0 0 256 256"><defs><style>.cls-1,.cls-2,.cls-7{fill:#1d1d1b;}.cls-1,.cls-7{stroke:#fff;}.cls-1,.cls-3,.cls-5{stroke-linecap:round;}.cls-1,.cls-3,.cls-5,.cls-8{stroke-linejoin:round;}.cls-1,.cls-3,.cls-5,.cls-7,.cls-8{stroke-width:2px;}.cls-3,.cls-6{fill:#fff;}.cls-3,.cls-5,.cls-8{stroke:#1d1d1b;}.cls-4{stroke:#000;}.cls-4,.cls-7{stroke-miterlimit:10;}.cls-5,.cls-8{fill:none;}.cls-8{stroke-linecap:square;}</style></defs><g id="Heavy_duty_harness" data-name="Heavy duty harness"><polygon class="cls-1" points="147.63 96.12 152.46 93.8 241.2 186.53 253.59 239.7 249.38 238.57 133.06 122.78 133.76 99.95 147.63 96.12"/><polygon class="cls-1" points="116.63 143.88 114.31 148.71 211.15 238.84 250.55 243.18 249.42 238.96 133.49 122.79 117.09 129.71 116.63 143.88"/><polyline class="cls-2" points="124.9 143.72 99.72 155.02 97.78 150.22 96.84 148.16 99.78 147.12 101.71 146.26 122.22 137.91"/><path class="cls-1" d="M143.33,122.05c3.16,3-2,12.48-4.51,15.86L243,242.48l-32.62-4.1L106.21,139.27l6.63-18.53Z"/><path class="cls-3" d="M130.52,126.07,134,136a6.27,6.27,0,0,1-4.18,6.89l-13.63,4.91a3.5,3.5,0,0,1-4.55-2.32l-.64-2.22a4.79,4.79,0,0,1,3.07-5.87l1.8-.61a3.6,3.6,0,0,0,2.26-4.57h0Z"/><ellipse class="cls-3" cx="125.37" cy="136.08" rx="4.84" ry="4.5" transform="translate(-58.11 159.93) rotate(-54.75)"/><path class="cls-3" d="M127.93,80.54,128.7,127l-27.21,11.61L89,144.4l-3.33-5.6L106.18,113,103.9,89.21l-9-8.67.71-6.73S82.49,61.15,81,61.1l-8-.24L61.88,47.76l.26-8.5L38.9,13.79l7.63-4.27,17,1.76L127,79.35Z"/><polygon class="cls-3" points="83.95 145.64 66.35 145.93 64.95 143.67 43.39 125.24 43.34 112.57 7.47 69.68 7.59 65.88 21.27 76.04 85.63 138.8 88.96 144.4 83.95 145.64"/><polygon class="cls-3" points="30.07 32.78 36.34 40.23 56.51 43.33 62.14 39.26 38.9 13.79 34.29 17.15 30.07 32.78"/><path class="cls-3" d="M21.63,75.48l24,26.92,1.2,9.53L75.8,141.78l4.37-17.64,12-16.47-4.44-10.2-7.06-6.58-14.07-14,6.75-16.54L62.25,47.21l.26-8.5-5.63,4.07L50,42.57,35.39,40.51,20.31,49.83s-3.57,13.24-3.15,13.64S21.63,75.48,21.63,75.48Z"/><polygon class="cls-3" points="72.99 60.86 63.05 83.57 69.38 89.05 83.53 88.59 94.91 80.54 95.62 73.81 80.99 61.1 72.99 60.86"/><polygon class="cls-4" points="57.98 93.96 58.16 87.82 63.05 83.57 69.38 89.05 83.53 88.59 64.84 98.64 57.98 93.96"/><polygon class="cls-3" points="85.63 138.8 106.18 113.03 103.9 89.21 94.91 80.54 80.23 90.37 87.37 98.03 91.82 108.22 79.81 124.69 75.44 142.33 85.63 138.8"/><line class="cls-3" x1="91.82" y1="108.22" x2="101.65" y2="110.01"/><line class="cls-3" x1="98.54" y1="91.14" x2="87.37" y2="98.03"/><path class="cls-1" d="M135.13,130.49c2.94,3.23,10.78.1,14.23-2.32.17,0,103.58,105.08,103.58,105.08l-10.89-46.69L153.31,93.82,134.61,100Z"/><polyline class="cls-5" points="38.9 13.79 54 18.09 112.78 83.65 114.41 119.99 106.18 113.03"/><path class="cls-3" d="M134.39,128.25l8.49-2.41a6.25,6.25,0,0,0,4.52-6.67l-1.54-14.9a3.65,3.65,0,0,0-4.52-3.17l-2.88.72a3.64,3.64,0,0,0-2.75,3.92l.34,3.29a3.61,3.61,0,0,1-3.22,4l-2.62.27Z"/><ellipse class="cls-3" cx="138.94" cy="118.21" rx="4.84" ry="4.5" transform="translate(-33.07 178.96) rotate(-59.84)"/><polygon class="cls-3" points="134.34 133.06 133.03 78.95 76 18.68 70.22 18.5 127.31 79.97 129.24 128.05 134.34 133.06"/><path class="cls-3" d="M134.38,73.54,143.73,72,86.42,16.22S81.79,13.81,78.79,15,76,18.68,76,18.68l40.2,42.48,4.73.15Z"/><polyline class="cls-2" points="142.87 100.1 139.48 72.71 134.38 73.54 120.93 61.31 116.2 61.16 133.03 78.95 136.51 100.82"/><path class="cls-5" d="M44.53,73.68a3.24,3.24,0,0,1,.64-1.4c1-1.91-.2-4.21-1.41-6a6.87,6.87,0,0,0-3.89.62A243.22,243.22,0,0,1,30,44.5a1.14,1.14,0,0,1,0-1.06,1.1,1.1,0,0,1,.62-.35A30.3,30.3,0,0,1,49.77,44a4.2,4.2,0,0,1,1.61.94,4.55,4.55,0,0,1,.84,1.69c3.47,10.61,6.39,22,14,30.07-.22,1.73-2.49,2.11-4.22,2.26a28.5,28.5,0,0,0-4.76.88,17.49,17.49,0,0,1-4.08,1c-2.21,0-3.72-2-5.2-3.31l-2.14-1.93C45.34,75.06,44.51,74.48,44.53,73.68Z"/><path class="cls-2" d="M43,66.9c-3.67,2-5.12,6.5-6.26,10.54a11.82,11.82,0,0,0-.57,3c0,2.14,1.11,4.1,2.2,5.93.41.67,1.13,1.45,1.82,1.08A1.42,1.42,0,0,0,40.63,86,12.27,12.27,0,0,0,40,84.43a8.26,8.26,0,0,1-.16-4c.3-2.49.75-5.26,2.74-6.8.79-.61,1.79-1,2.28-1.87A4.07,4.07,0,0,0,45.24,70a6.65,6.65,0,0,0-.8-4.23c-.84-1.2-2.78-1.71-3.78-.63-.51.55-1.08,2.1-.31,2.68.11-.39,0-.74.29-1.11a2.1,2.1,0,0,1,2.27-.7,4.08,4.08,0,0,1,2.18,3c.46,1.77.18,4.13-1.54,4.74a81.19,81.19,0,0,1,9.34,7.83c-1.47-.88-3.21.53-4.33,1.82a16.92,16.92,0,0,0-3.51,5.24c-.81,2.26-.51,4.54-.47,6.87a17.73,17.73,0,0,1-2.13-4.51,24.6,24.6,0,0,0-3.26-5.19,56.62,56.62,0,0,0-8.59-9.25,56,56,0,0,0-5.67-4.27c-2.77-1.83-5.88-3.6-7.28-6.62a10.45,10.45,0,0,1-.35-7,30.86,30.86,0,0,1,2.83-6.52,19,19,0,0,1,2.17-3.48c1.9-2.25,4.7-3.49,7.41-4.65,4.07,7.51,5.88,16.16,10.41,23.39"/><path class="cls-6" d="M20.13,77.6a3.89,3.89,0,0,1-2.44-1.14L12.88,72.4C11,70.77,8.77,68.92,7.64,66.32a14.67,14.67,0,0,1-.84-6.74A29.56,29.56,0,0,1,9.34,48.92c.2-.44.42-.87.65-1.3a30.4,30.4,0,0,1,7.46-8.86,36.55,36.55,0,0,1,9.61-6.17,8.69,8.69,0,0,1,3.17-.7,5.08,5.08,0,0,1,1.52.22,6,6,0,0,1,3.58,3.72c1.27,3,.9,5.2-1.09,6.52a21.18,21.18,0,0,1-3.5,1.75c-.56.24-1.11.47-1.65.73C26,46.32,22.81,48.1,20.76,51A14.85,14.85,0,0,0,18.34,61a27.62,27.62,0,0,0,3.39,10.28l.06.1a6.88,6.88,0,0,1,1,3.08,3,3,0,0,1-2.57,3.11Z"/><path class="cls-2" d="M30.23,32.89a4.23,4.23,0,0,1,1.22.17,5.12,5.12,0,0,1,3,3.16c.8,1.89,1.23,4-.72,5.3a41.48,41.48,0,0,1-5,2.41C25.39,45.5,22.1,47.38,20,50.38a15.92,15.92,0,0,0-2.6,10.74,28.81,28.81,0,0,0,3.5,10.66,6.25,6.25,0,0,1,1,2.73A2,2,0,0,1,20.2,76.6h-.07a3,3,0,0,1-1.8-.91l-4.8-4.06c-1.95-1.64-4-3.37-5-5.71a13.74,13.74,0,0,1-.77-6.28,28.79,28.79,0,0,1,2.46-10.3c.19-.42.4-.84.62-1.25a29.75,29.75,0,0,1,7.22-8.57,36.56,36.56,0,0,1,9.35-6,7.66,7.66,0,0,1,2.79-.63m0-2a9.44,9.44,0,0,0-3.54.78A36.94,36.94,0,0,0,16.81,38a31.51,31.51,0,0,0-7.7,9.16c-.24.44-.47.89-.68,1.35a30.87,30.87,0,0,0-2.63,11,15.66,15.66,0,0,0,.93,7.21c1.21,2.81,3.59,4.82,5.5,6.44L17,77.22a4.81,4.81,0,0,0,3.09,1.38h.18a4,4,0,0,0,3.51-4.13,7.6,7.6,0,0,0-1.15-3.53l-.05-.1a26.61,26.61,0,0,1-3.28-9.9,13.85,13.85,0,0,1,2.23-9.39c1.93-2.69,5-4.38,8-5.82.51-.24,1-.47,1.61-.71a22.73,22.73,0,0,0,3.66-1.83c1.69-1.12,3.31-3.37,1.46-7.75a6.94,6.94,0,0,0-4.2-4.29,6.41,6.41,0,0,0-1.82-.26Z"/><path class="cls-5" d="M80.32,91.44a20,20,0,0,0-1,7.28,2.21,2.21,0,0,1-.06.81c-.19.55-.78.83-1.22,1.2a3,3,0,0,0-1,2A16.51,16.51,0,0,1,77,105.3c-.36,1.54-2.29,2.42-2.38,4a4.76,4.76,0,0,1,0,1.31,2,2,0,0,1-.39.62,70.38,70.38,0,0,1-8.39,8.7,8.29,8.29,0,0,1-2.11,1.48,3.1,3.1,0,0,1-2.51.09,4.85,4.85,0,0,1-1.16-.86,43.32,43.32,0,0,0-6.77-5,13,13,0,0,1-2.3-1.58,3.67,3.67,0,0,1-1.24-2.44,2.76,2.76,0,0,1,2.79-2.71c-.9-2.54-3-4.43-4.88-6.36s-3.71-4.24-3.79-6.93a.51.51,0,0,1,.1-.4c.1-.1.32-.06.32.08"/><path class="cls-5" d="M63.66,98.24c.22,0,.3.27.28.49a94.28,94.28,0,0,1-2.48,15.68,3.29,3.29,0,0,1-1.3,2.22,2.62,2.62,0,0,1-1.44.24,5.67,5.67,0,0,1-3.6-1.7c-1.59-1.66-2-4.11-2.16-6.4a46,46,0,0,1-.05-5.25,1.77,1.77,0,0,0-.51-1.63c-2-2.49-3.68-5.61-3.16-8.77"/><path class="cls-5" d="M76.37,100.55a39.39,39.39,0,0,1-5.86,6.84,4.72,4.72,0,0,1-1.85,1.21,4.27,4.27,0,0,1-1.78,0,13.36,13.36,0,0,1-3.94-1.27"/><path class="cls-5" d="M73.82,108.68a42.87,42.87,0,0,1-5.2,5.49,3.8,3.8,0,0,1-2.4,1.22,3.31,3.31,0,0,1-1.07-.23,9.9,9.9,0,0,1-2.81-1.59"/><path class="cls-7" d="M118.7,113c.51,1.15-.55,6.76-.79,8-1.09,5.74-4.79,11.25-10.29,13.18-3.07,1.08-6.41,1-9.66.89-1.78-.06-3.7-.16-5.11-1.26l2.87-2.13c0,.22.82-1,.82-.8,3.43-.45,7.62.16,10-2.63,1.35-1.59,1.32-3.58,1.44-5.67.34-5.71-.61-5.47-.9-7.53"/><path class="cls-5" d="M79.4,98.93c-3.94,2.46-9.12,1.71-13.39,3.53a3.55,3.55,0,0,1-2.28.49"/><path class="cls-3" d="M99.48,144.72s-1.68,8.58,3.25,10.39c.34.43-8.42,1.58-8.42,1.58s-6.06.61-8.39-11Z"/><ellipse class="cls-3" cx="55.27" cy="134.29" rx="6.49" ry="14.54" transform="translate(-78.31 77.32) rotate(-44.53)"/><ellipse class="cls-3" cx="53.33" cy="136.19" rx="5.56" ry="12.44" transform="translate(-80.2 76.51) rotate(-44.53)"/><path class="cls-7" d="M128,113.06c.51,1.15-.55,6.76-.79,8-1.1,5.74-4.79,11.25-10.29,13.18-3.07,1.08-6.41,1-9.66.89-1.78-.06-3.7-.16-5.11-1.26l2.87-2.13c0,.22.81-1,.82-.81,3.42-.44,7.62.17,10-2.62,1.35-1.59,1.31-3.58,1.44-5.67.34-5.71-.61-5.47-.9-7.53"/><path class="cls-5" d="M114.41,120c2.84-7.1,13.64-11.55,14-.88"/><path class="cls-3" d="M106.14,114.22l5.32,12.59s-21.59,16.62-21.13,16.52"/><line class="cls-8" x1="128.48" y1="108.99" x2="128.55" y2="118.11"/><ellipse class="cls-2" cx="55.1" cy="70.76" rx="1.42" ry="1.89" transform="translate(-17.31 123.69) rotate(-88.26)"/><ellipse class="cls-2" cx="58.98" cy="74.58" rx="1.42" ry="1.89" transform="translate(-17.36 131.27) rotate(-88.26)"/><ellipse class="cls-2" cx="52.92" cy="75.82" rx="1.89" ry="1.42" transform="translate(-17.06 15.39) rotate(-14.28)"/><ellipse class="cls-3" cx="70.75" cy="81.94" rx="2.18" ry="2.93" transform="translate(-37 92.43) rotate(-54.75)"/><ellipse class="cls-3" cx="37.58" cy="28.56" rx="2.18" ry="2.93" transform="translate(-7.43 42.77) rotate(-54.75)"/><ellipse class="cls-3" cx="43.86" cy="35.34" rx="2.18" ry="2.93" transform="translate(-10.31 50.76) rotate(-54.75)"/></g></svg>