<svg xmlns="http://www.w3.org/2000/svg" viewBox="0 0 256 256"><defs><style>.cls-1{fill:#fff;}.cls-1,.cls-3{stroke:#1d1d1b;}.cls-1,.cls-2,.cls-3{stroke-linecap:round;stroke-linejoin:round;stroke-width:2px;}.cls-2{fill:#1d1d1b;stroke:#fff;}.cls-3{fill:none;}</style></defs><g id="Energy"><path class="cls-1" d="M63.29,37,62.8,223.2c0,13.87,29,25.19,64.89,25.28s65-11.07,65-24.94l.49-186.2"/><ellipse class="cls-1" cx="128.24" cy="37.17" rx="25.12" ry="64.95" transform="translate(90.74 165.32) rotate(-89.85)"/><ellipse class="cls-2" cx="155.45" cy="44.76" rx="5.99" ry="15.48" transform="translate(110.28 200.09) rotate(-89.85)"/><path class="cls-3" d="M193.2,197.08c0,13.87-29.15,25-65,24.95s-64.93-11.42-64.89-25.29"/><path class="cls-3" d="M193.2,186c0,13.87-29.15,25-65,24.94s-64.93-11.41-64.89-25.28"/><path class="cls-3" d="M193.2,174.93c0,13.87-29.15,25-65,24.95s-64.93-11.42-64.89-25.29"/><path class="cls-3" d="M193.2,164c0,13.87-29.15,25-65,24.94s-64.93-11.41-64.89-25.28"/><path class="cls-3" d="M193.2,104.08c0,13.87-29.15,25-65,25s-64.93-11.42-64.89-25.29"/><path class="cls-3" d="M193.2,93c0,13.87-29.15,25-65,24.94S63.25,106.53,63.29,92.66"/><path class="cls-3" d="M193.2,81.93c0,13.87-29.15,25-65,24.95S63.25,95.46,63.29,81.59"/><path class="cls-3" d="M193.2,71c0,13.87-29.15,25-65,24.94S63.25,84.54,63.29,70.67"/><path class="cls-3" d="M193,45.1c0,13.87-29.14,25-65,24.94S63,58.63,63.05,44.76"/><path class="cls-3" d="M193,216.59c0,13.87-29.14,25-65,24.94S63,230.12,63.05,216.25"/></g></svg>