<?xml version="1.0" encoding="utf-8"?>
<!-- Generator: Adobe Illustrator 18.1.0, SVG Export Plug-In . SVG Version: 6.00 Build 0)  -->
<svg version="1.1" id="Calque_1" xmlns="http://www.w3.org/2000/svg" xmlns:xlink="http://www.w3.org/1999/xlink" x="0px" y="0px"
	 viewBox="0 0 1280 800" enable-background="new 0 0 1280 800" xml:space="preserve">
<polyline display="none" fill="none" stroke="#1D1D1B" stroke-width="3" points="998.6,203.9 356.9,203.9 337.5,183.9 182.5,183.9 
	"/>
<polygon display="none" fill="none" stroke="#1D1D1B" stroke-width="3" points="172.7,173.8 162.6,183.9 162.3,184.2 162.6,184.6 
	172.7,194.6 173.1,195 173.4,194.6 183.5,184.6 183.8,184.2 183.5,183.9 173.4,173.8 173.1,173.5 "/>
<polyline fill="none" stroke="#1D1D1B" stroke-width="3" points="221.9,400 863.5,400 882.9,380 1037.9,380 "/>
<polygon fill="none" stroke="#1D1D1B" stroke-width="3" points="1047.7,369.9 1057.8,379.9 1058.1,380.3 1057.8,380.7 1047.7,390.7 
	1047.4,391.1 1047,390.7 1037,380.7 1036.6,380.3 1037,379.9 1047,369.9 1047.4,369.5 "/>
</svg>
