<?xml version="1.0" encoding="utf-8"?>
<!-- Generator: Adobe Illustrator 18.1.0, SVG Export Plug-In . SVG Version: 6.00 Build 0)  -->
<svg version="1.1" id="Calque_1" xmlns="http://www.w3.org/2000/svg" xmlns:xlink="http://www.w3.org/1999/xlink" x="0px" y="0px"
	 viewBox="0 0 1280 800" enable-background="new 0 0 1280 800" xml:space="preserve">
<polyline fill="none" stroke="#1D1D1B" stroke-width="3" points="1058.1,400 416.5,400 397.1,380 242.1,380 "/>
<polygon fill="none" stroke="#1D1D1B" stroke-width="3" points="232.3,369.9 222.2,379.9 221.9,380.3 222.2,380.7 232.3,390.7 
	232.6,391.1 233,390.7 243,380.7 243.4,380.3 243,379.9 233,369.9 232.6,369.5 "/>
<polyline display="none" fill="none" stroke="#1D1D1B" stroke-width="3" points="221.9,400 863.5,400 882.9,380 1037.9,380 "/>
<polygon display="none" fill="none" stroke="#1D1D1B" stroke-width="3" points="1047.7,369.9 1057.8,379.9 1058.1,380.3 
	1057.8,380.7 1047.7,390.7 1047.4,391.1 1047,390.7 1037,380.7 1036.6,380.3 1037,379.9 1047,369.9 1047.4,369.5 "/>
</svg>
