<?xml version="1.0" encoding="utf-8"?>
<!-- Generator: Adobe Illustrator 24.0.2, SVG Export Plug-In . SVG Version: 6.00 Build 0)  -->
<svg version="1.1" id="Layer_1" xmlns="http://www.w3.org/2000/svg" xmlns:xlink="http://www.w3.org/1999/xlink" x="0px" y="0px"
	 viewBox="0 0 151.6 150" style="enable-background:new 0 0 151.6 150;" xml:space="preserve">
<title>01-CULTURE-BORCA</title>
<g id="Layer_2_1_">
	<g id="Layer_1-2">
		<path d="M106.5,112.2c3.5,0,6.3-2.8,6.3-6.3s-2.8-6.3-6.3-6.3c-3.5,0-6.3,2.8-6.3,6.3c0,0,0,0,0,0
			C100.3,109.4,103.1,112.2,106.5,112.2z"/>
		<path d="M46.5,37.8c-3.5,0-6.3,2.8-6.3,6.3c0,3.5,2.8,6.3,6.3,6.3c3.5,0,6.3-2.8,6.3-6.3l0,0C52.8,40.6,50,37.8,46.5,37.8z"/>
		<path d="M72.1,33.1c-1.8,0.2-3.6,0.5-5.4,0.9c-4.7,1.1-9.1,3-13.1,5.6c2.5,3.9,1.3,9.1-2.6,11.5c-2.8,1.7-6.3,1.7-9.1-0.1
			c-0.4,0.6-0.9,1.3-1.3,1.9c-12.2,19.8-5.9,45.8,13.9,57.9c6,3.7,12.8,5.8,19.8,6.2V79.7L65.5,82L72.1,33.1z"/>
		<path d="M79,117.1c2.5-0.2,5-0.5,7.4-1.1c4.7-1.1,9.1-3,13.1-5.7c-2.4-3.9-1.3-9,2.6-11.5c2.8-1.7,6.3-1.7,9.1,0.1
			c13.2-19.1,8.5-45.4-10.6-58.6c-7-4.8-15.3-7.4-23.8-7.5v37.6l8.7-2.3L79,117.1z"/>
		<path d="M33.5,85.3c-2.8-11.4-0.9-23.4,5.3-33.4c0.5-0.8,1-1.5,1.5-2.2c-3.1-3.5-2.7-8.7,0.7-11.8c3.2-2.8,8.1-2.8,11.2,0.2
			c4.3-2.8,9-4.8,14-6c2-0.5,4.1-0.8,6.1-1l2.3-17C41,14.9,14.3,42.9,15.2,76.6C16,108.9,41.9,135,74.3,136v-16.9
			C54.7,118.2,38.1,104.4,33.5,85.3z"/>
		<path d="M119.5,64.7c3,12.3,0.5,25.3-6.8,35.6c1.4,1.5,2.2,3.5,2.2,5.6c0,4.6-3.7,8.3-8.4,8.3c-2.2,0-4.2-0.8-5.8-2.3
			c-4.3,2.8-9,4.8-14,6c-2.7,0.6-5.4,1-8.2,1.2L76.5,136h0.1c33.7,0.1,61.1-27.2,61.1-60.9S110.5,14.1,76.8,14l0,0v16.8
			C97.2,30.9,114.8,44.9,119.5,64.7z"/>
		<path d="M13.5,90.1c-8.4-34.8,13-69.8,47.8-78.2c4.5-1.1,9.2-1.7,13.9-1.8L76.5,0C35.1-0.6,1,32.5,0.4,73.9s32.5,75.5,73.9,76.1
			v-10.2C45.2,138.7,20.4,118.4,13.5,90.1z"/>
		<path d="M149.5,57.5C141.4,23.9,111.4,0.1,76.8,0v10.2c35.8-0.1,64.9,28.8,65.1,64.6c0.1,35.8-28.8,64.9-64.6,65.1
			c-0.5,0-0.9,0-1.4,0L74.6,150c41.4,1.1,75.8-31.6,76.9-73C151.7,70.4,151,63.9,149.5,57.5L149.5,57.5z"/>
	</g>
</g>
</svg>
