<?xml version="1.0" encoding="UTF-8" standalone="no"?>
<!-- Uploaded to: SVG Repo, www.svgrepo.com, Generator: SVG Repo Mixer Tools -->

<svg
   width="800px"
   height="800px"
   viewBox="0 0 512 512"
   version="1.1"
   id="svg1"
   sodipodi:docname="complication3.svg"
   xml:space="preserve"
   inkscape:version="1.3.2 (091e20e, 2023-11-25, custom)"
   xmlns:inkscape="http://www.inkscape.org/namespaces/inkscape"
   xmlns:sodipodi="http://sodipodi.sourceforge.net/DTD/sodipodi-0.dtd"
   xmlns="http://www.w3.org/2000/svg"
   xmlns:svg="http://www.w3.org/2000/svg"><defs
     id="defs1"><inkscape:path-effect
       effect="bspline"
       id="path-effect3"
       is_visible="true"
       lpeversion="1.3"
       weight="33.333333"
       steps="2"
       helper_size="0"
       apply_no_weight="true"
       apply_with_weight="true"
       only_selected="false"
       uniform="false" /></defs><sodipodi:namedview
     id="namedview1"
     pagecolor="#ffffff"
     bordercolor="#000000"
     borderopacity="0.25"
     inkscape:showpageshadow="2"
     inkscape:pageopacity="0.0"
     inkscape:pagecheckerboard="0"
     inkscape:deskcolor="#d1d1d1"
     inkscape:zoom="1.52"
     inkscape:cx="255.92105"
     inkscape:cy="358.88158"
     inkscape:window-width="3840"
     inkscape:window-height="2066"
     inkscape:window-x="-11"
     inkscape:window-y="-11"
     inkscape:window-maximized="1"
     inkscape:current-layer="svg1" /><path
     style="display:none;fill:#000000;fill-opacity:1;stroke:#ffffff;stroke-width:1.84411;stroke-opacity:1"
     id="path4"
     sodipodi:type="arc"
     sodipodi:cx="281.96384"
     sodipodi:cy="267.15549"
     sodipodi:rx="270.39359"
     sodipodi:ry="234.53815"
     sodipodi:start="6.2390891"
     sodipodi:end="6.2388112"
     sodipodi:open="true"
     sodipodi:arc-type="arc"
     d="M 552.09458,256.8166 A 270.39359,234.53815 0 0 1 293.90207,501.46493 270.39359,234.53815 0 0 1 11.834755,277.52694 270.39359,234.53815 0 0 1 269.98807,32.84749 270.39359,234.53815 0 0 1 552.09125,256.75148" /><g
     id="g26"
     inkscape:label="brain"
     transform="matrix(-1.1672568,0,0,1.1672568,520.64602,-128.98141)"
     style="display:inline"><path
       style="fill:#000000;fill-opacity:1;stroke:#ffffff;stroke-width:3.95248;stroke-opacity:1"
       d="m 163.55556,281.72549 c 0,0 -16.31373,-0.8366 -14.64053,-21.96079 0,0 3.87732,-23.112 23.7466,-22.06625 0,0 16.41027,5.54338 18.29262,16.21005 0,0 2.03797,5.85443 -2.98164,-7.74035 0,0 -0.10369,-5.91528 -21.85532,-8.84339 0,0 17.5167,-35.07639 52.23565,-22.10907 0,0 -4.81046,13.17647 6.69281,3.7647 0,0 29.9085,-22.16993 52.70588,11.92157 0,0 7.11112,5.85621 5.43791,-4.60131 l -2.5098,-4.81045 c 0,0 22.16993,1.46405 33.2549,23.00653 l -12.13072,1.88235 c 0,0 -7.94771,4.18301 2.71896,5.43791 0,0 23.21568,-5.43791 26.35294,12.75817 0,0 13.59477,25.09804 -6.06536,45.38562 0,0 -3.34641,7.11112 -19.45098,2.71896 l 0.20915,-9.20262 c 0,0 15.26797,-11.08496 12.33987,-23.63398 0,0 0.0375,-13.15506 -1.84488,2.94952 0,0 -2.62955,15.46462 -16.85178,17.34698 0,0 -10.79354,-0.009 -13.30334,-1.89127 0,0 -5.85621,4.81045 0.4183,5.64705 0,0 3.55555,3.76471 12.54902,0.83661 0,0 4.183,12.33987 -8.36602,21.33333 0,0 -14.43137,11.08497 -25.93464,1.46405 0,0 -6.90196,-7.73856 -4.6013,-15.26797 0,0 -2.71896,-7.52941 -6.27451,0.20915 0,0 -0.20915,11.92157 3.7647,16.10457 0,0 -17.77778,11.29412 -32.62745,4.60131 0,0 -23.21568,-13.17647 -12.96732,-33.88235 0,0 16.62835,-29.39544 40.68063,-29.18629 0,0 16.15097,-0.47915 3.8111,-1.52491 0,0 -27.13225,0.17525 -42.60938,15.86152 0,0 -1.6732,-4.183 -6.90196,-7.11111 0,0 -6.69281,-18.82353 28.44445,-27.60784 0,0 8.99346,-4.39216 12.75817,-11.29412 0,0 4.5226,-6.8859 -4.26171,1.48011 0,0 -4.53152,9.2276 -26.07401,13.41061 0,0 -5.63814,-22.21098 -13.16755,-25.55738 0,0 -5.28962,-1.36573 2.44895,5.74539 0,0 10.02136,11.42456 7.51156,21.04547 0,0 -16.23502,9.39214 -14.98012,18.80391 0,0 -11.92157,-1.46406 -1.2549,6.48366 0,0 12.13072,2.30065 7.52941,14.01307 0,0 -4.81046,8.78431 -2.9281,11.92157 0,0 -15.47713,8.15686 -30.11765,-1.88236 0,0 -10.66667,-10.66666 -1.04575,-22.37908 0,0 7.11111,-8.99346 -4.81046,-3.97386 z"
       id="path24"
       sodipodi:nodetypes="cccccccccccccccccccccccccccccccccccccccccccccccccc" /><path
       style="fill:#ffffff;fill-opacity:1;stroke:#000000;stroke-width:0.81392;stroke-opacity:1"
       d="m 163.97386,262.27451 c 0,0 -7.73856,-2.0915 -1.2549,-5.85621 0,0 17.98692,-3.13725 19.86928,6.69281 0,0 10.66666,8.15686 4.81045,23.63399 0,0 -8.36601,14.01307 -8.57516,0.62745 0,0 10.66667,-11.08497 -3.76471,-24.47059 z"
       id="path25" /><path
       style="fill:#ffffff;fill-opacity:1;stroke:#000000;stroke-width:0.81392;stroke-opacity:1"
       d="m 234.66667,311.63398 c 0,0 -6.27451,8.99347 -6.48366,-2.30065 0,0 1.04575,-12.96732 29.28104,-20.49673 0,0 25.30719,-4.18301 26.56209,-16.94118 0,0 5.64706,-21.75163 -18.19607,-21.33333 0,0 -32,11.50327 -3.13726,-5.22876 0,0 12.33987,-5.22875 21.12418,4.18301 0,0 11.92157,6.69281 4.81046,26.98039 0,0 -7.52941,18.61438 -24.88889,16.73203 0,0 -26.56208,5.22874 -29.07189,18.40522 z"
       id="path26" /></g><g
     id="g22"
     inkscape:label="crâne"
     style="display:inline"
     transform="matrix(0.77711631,0,0,0.77711631,45.964634,37.42621)"><path
       style="display:inline;fill:#000000;fill-opacity:1;stroke:#ffffff;stroke-width:5.98839;stroke-opacity:1"
       d="m 347.02383,370.41393 -1.46341,25.75611 c 0,0 -0.0976,13.17072 8.19512,17.56097 l 14.34147,3.31707 8.09756,4.29269 6.7317,0.87804 8,-0.4878 3.41464,2.14634 11.70732,-0.0976 6.92683,3.70732 c 0,0 4.87804,1.56097 8,-0.29269 l 5.17073,3.21956 3.60975,0.39024 3.70732,2.34146 4.87805,-0.58536 c 0,0 5.7561,-0.58537 5.17073,2.82927 0,0 -3.12195,15.41463 0.87805,17.65853 0,0 7.41463,11.41464 4.97561,19.21951 0,0 -0.87805,13.46342 -24.29268,14.24391 l -47.5122,-14.73171 c 0,0 -8.29268,-3.21951 -45.95122,-3.5122 0,0 -19.60975,2.53659 -31.51219,-24.19512 0,0 -4.87805,-12.29268 -4.29269,-22.7317 0,0 -8,-46.63415 -26.7317,-58.14635 0,0 -13.7561,-15.70731 -2.24391,-22.43902 l 5.46342,-3.31707 c 0,0 12.58536,18.34146 15.51219,15.21951 0,0 10.24391,25.36585 36.78049,1.46341 0,0 12.29267,17.85365 22.43902,16.29268 z"
       id="path2" /><path
       style="display:inline;fill:#000000;fill-opacity:1;stroke:#ffffff;stroke-width:5.98839;stroke-opacity:1"
       d="m 351.21896,372.55971 -2.24391,16.29268 c 0,0 4.78049,1.75611 11.90245,-0.4878 l 7.99999,1.85366 9.85366,-1.95122 8.19512,2.14634 4.78049,0.48781 6.43903,-1.95122 7.02439,2.43902 4.68292,0.0976 4.29269,-0.78049 5.56097,3.02439 4.68293,-1.26829 2.63415,-0.68293 4.09756,1.46342 c 0,0 8.97561,-6.73171 11.31707,0.97561 0,0 7.41463,-3.90248 7.51219,1.26825 l 1.85366,0.19512 1.17074,-3.12195 c 0,0 0.87804,-2.63414 -3.41464,-15.02439 0,0 -4.19512,-16.39024 0.0976,-22.53658 0,0 -35.51223,-4.39025 -15.51223,-29.85366 0,0 7.70731,-14.43903 12,-16.09756 0,0 -25.2683,-31.12195 -23.80488,-35.70732 0,0 -0.87805,-3.31707 5.36585,-10.82927 0,0 7.60976,-12.68292 -0.97561,-26.92683 l -8.19512,-37.95122 c 0,0 -9.17073,-47.80487 -56.39024,-60.87805 l -37.85366,29.17074 -4.19512,2.53658 -5.85366,-1.95122 -11.21951,2.34147 -7.02439,5.95122 -6.24391,11.41463 -20.09756,-6.82927 -5.46341,3.5122 -17.46342,-1.95122 -18.63414,24.29268 -3.41464,17.46341 -10.82927,15.21952 -32.19512,-12.58537 -31.70732,2.2439 -6.14634,7.41464 -23.21951,-6.73171 -18.82927,4.29268 c 0,0 -21.853659,114.53659 30.53659,130.92683 l 94.14634,29.7561 25.56098,9.46341 c 0,0 29.36585,8.78049 17.36585,-17.65853 0,0 -6.92683,-13.95122 -2.43903,-18.63415 0,0 -18.2439,-16.87805 3.02439,-28.58536 0,0 -6.53658,-3.60976 -4.78048,-9.56098 0,0 2.43902,8.4878 10.92683,10.04878 0,0 6.2439,12.58537 9.36585,12.29268 0,0 3.21951,4 11.5122,-6.34146 0,0 12.79394,-16.06728 23.81833,1.00585 l 10.54332,17.32216 c 0,0 11.92598,12.30614 35.92598,8.59882 0,0 24.81077,-7.15895 28.12784,-13.89066 0,0 10.70815,-4.45417 -3.24306,-24.74685 0,0 12.0471,15.12531 2.291,25.27166 0,0 -31.02439,21.65853 -43.21951,14.7317 z"
       id="path3"
       sodipodi:nodetypes="cccccccccccccccccccccccccccccccccccccccccccccccccccccccccccccc" /><path
       style="display:inline;fill:#ffffff;fill-opacity:1;stroke:#ffffff;stroke-width:1.21318;stroke-opacity:1"
       d="m 407.15401,240.74632 c 0,0 -8.18214,-20.84764 -29.36602,-2.24169 0,0 -20.3993,13.78635 -5.04379,38.78109 0,0 4.37128,3.69878 2.57794,15.01927 0,0 14.90718,24.54641 25.89141,2.01751 0,0 6.50088,-22.64098 5.71629,-28.58144 l 6.16463,-15.69177 c 0,0 2.01751,-4.25919 -2.57794,-6.83712 z"
       id="path5" /><path
       style="fill:#ffffff;fill-opacity:1;stroke:#ffffff;stroke-width:1.21318;stroke-opacity:1"
       d="m 348.61089,219.16725 c 0,0 4.59545,18.94221 1.56918,22.08056 0,0 -8.85464,10.98424 -4.9317,23.98599 0,0 10.76007,30.37478 0.78459,34.29772 0,0 -5.49212,8.96673 -35.1944,-9.63923 0,0 -26.22767,-3.81085 -44.83362,11.09633 0,0 12.44133,-9.52715 45.28196,-7.95797 0,0 21.85639,14.23467 33.17688,10.5359 0,0 16.14011,-0.89667 4.9317,-33.7373 0,0 -5.94045,-22.41681 3.13836,-28.02102 0,0 4.25918,-6.83713 -3.92295,-22.64098 z"
       id="path6" /><path
       style="fill:#ffffff;fill-opacity:1;stroke:#ffffff;stroke-width:1.21318;stroke-opacity:1"
       d="m 228.67583,325.63366 c 0,0 -14.34676,24.32225 3.69877,31.71979 0,0 17.26095,1.00876 13.00176,-25.77933 0,0 11.76882,25.55516 -14.68302,29.59019 0,0.32366 -22.41681,-11.64372 -2.01751,-35.53065 z"
       id="path7"
       sodipodi:nodetypes="ccccc" /><path
       style="fill:#000000;fill-opacity:1;stroke:#ffffff;stroke-width:2.65513;stroke-opacity:1"
       d="m 354.55638,388.36545 3.52414,-0.0839 2.76897,-0.50345 4.3632,0.75517 c 0,0 2.18161,9.90114 -1.00689,11.66321 0,0 -2.76897,-0.58736 -4.02758,-2.0977 0,0 -3.94368,0.41954 -5.03448,3.02068 0,0 -4.44712,-6.377 -0.58736,-12.75401 z"
       id="path8"
       sodipodi:nodetypes="cccccccc" /><path
       style="fill:#000000;fill-opacity:1;stroke:#ffffff;stroke-width:2.65513;stroke-opacity:1"
       d="m 372.80228,387.82362 c 0,0 -5.9175,6.82787 0.091,14.4751 l 4.46092,-1.1835 3.64153,2.09388 c 0,0 8.92177,-5.55334 0.27312,-15.93172 0,0 -6.73684,-2.18491 -8.46657,0.54624 z"
       id="path9" /><path
       style="fill:#000000;fill-opacity:1;stroke:#ffffff;stroke-width:2.65513;stroke-opacity:1"
       d="m 390.46372,388.64296 c 0,0 -6.6458,3.36842 -0.81934,15.20341 l 4.55192,-2.367 4.27881,3.45946 4.2788,-5.18919 -0.54623,-5.28022 -1.27454,-4.82504 -0.18207,-1.72973 -3.5505,-0.72831 -2.367,0.81935 -2.27596,0.54623 z"
       id="path10" /><path
       style="fill:#000000;fill-opacity:1;stroke:#ffffff;stroke-width:2.65513;stroke-opacity:1"
       d="m 407.48791,390.09957 -2.09388,7.101 c 0,0 -2.18493,7.46515 3.45945,9.19488 0,0 3.09531,2.18492 6.55477,-2.27596 0,0 2.09388,-13.01849 -0.18208,-13.83784 0,0 -2.82218,-3.09531 -7.73826,-0.18208 z"
       id="path11" /><path
       style="fill:#000000;fill-opacity:1;stroke:#ffffff;stroke-width:2.65513;stroke-opacity:1"
       d="m 420.14225,391.37411 4.46088,-1.54765 3.18634,1.27454 -0.45519,15.02134 c 0,0 -4.55192,7.10099 -9.92318,-1.36558 0,0 -0.091,-9.28592 2.73115,-13.38265 z"
       id="path12" /><path
       style="fill:#000000;fill-opacity:1;stroke:#ffffff;stroke-width:2.65513;stroke-opacity:1"
       d="m 431.24893,391.19203 -2.54907,10.10527 c 0,0 -0.72831,7.64722 4.2788,10.01422 l 4.27881,2.18492 3.0953,-3.45946 0.63727,-3.45946 -0.54623,-14.29302 -2.91323,-3.82362 z"
       id="path13" /><path
       style="fill:#000000;fill-opacity:1;stroke:#ffffff;stroke-width:2.65513;stroke-opacity:1"
       d="m 443.17496,393.10384 3.5505,-2.27596 2.64011,19.48222 c 0,0 0,3.18634 -3.82361,1.27454 l -2.00284,-1.1835 z"
       id="path14" /><path
       style="fill:#000000;fill-opacity:1;stroke:#ffffff;stroke-width:2.65513;stroke-opacity:1"
       d="m 449.54765,394.92461 c 0,0 1.72973,11.19773 1.18351,15.02134 l 2.45803,2.36699 1.09246,-2.45803 -2.91323,-16.84211 z"
       id="path15" /><path
       style="fill:#000000;fill-opacity:1;stroke:#ffffff;stroke-width:2.65513;stroke-opacity:1"
       d="m 356.87055,410.58321 c 0,0 -2.82219,-6.37268 2.45804,-9.55903 l 4.46088,2.45804 2.18493,-0.091 1.27453,-1.82077 h 0.91039 l 1.72973,2.82219 c 0,0 2.367,6.73685 -0.27312,10.28734 z"
       id="path16" /><path
       style="fill:#000000;fill-opacity:1;stroke:#ffffff;stroke-width:2.65513;stroke-opacity:1"
       d="m 376.17069,403.48222 4.734,2.18492 3.82362,-1.63869 c 0,0 6.55476,8.19346 1.27454,14.38407 l -10.37838,0.36415 -1.63869,-1.09246 c 0,0 -3.45948,-11.10668 2.18491,-14.20199 z"
       id="path17" /><path
       style="fill:#000000;fill-opacity:1;stroke:#ffffff;stroke-width:2.65513;stroke-opacity:1"
       d="m 394.65149,404.66572 4.27881,3.18634 3.82361,-1.72972 c 0,0 4.64296,8.46656 -0.27312,14.38406 l -10.83356,-0.54623 c 0,0 -3.36843,-11.65291 3.00426,-15.29445 z"
       id="path18" /><path
       style="fill:#000000;fill-opacity:1;stroke:#ffffff;stroke-width:2.65513;stroke-opacity:1"
       d="m 409.21764,408.94452 2.91323,-0.091 3.09531,-2.54907 4.91607,4.09673 c 0,0 0.45519,10.01422 -4.36985,14.38406 l -8.19345,-2.73119 c 0,0 -1.45661,-12.74538 1.63869,-13.10953 z"
       id="path19" /><path
       style="fill:#000000;fill-opacity:1;stroke:#ffffff;stroke-width:2.65513;stroke-opacity:1"
       d="m 428.60882,409.1266 c 0,0 -5.64438,0.45519 -5.37126,5.9175 l -0.91039,10.37838 3.00427,2.00284 3.00426,0.45519 c 0,0 4.00569,-7.64722 4.18777,-11.92603 0,0 3.64154,-1.72973 -3.91465,-6.82788 z"
       id="path20" /><path
       style="fill:#000000;fill-opacity:1;stroke:#ffffff;stroke-width:2.65513;stroke-opacity:1"
       d="m 435.80085,414.04268 c 0,0 2.18492,3.27738 6.09958,-3.00427 0,0 1.82076,4.18776 -3.91465,17.66145 0,0 -2.8222,1.72973 -5.00712,0.72831 z"
       id="path21" /><path
       style="fill:#000000;fill-opacity:1;stroke:#ffffff;stroke-width:2.65513;stroke-opacity:1"
       d="m 448,413.22333 c -2.27596,1.00142 -3.82362,-1.27454 -3.82362,-1.27454 0,0 -1.45661,13.20057 -3.55049,17.75249 l 2.27596,0.54623 c 0,0 5.64438,-16.20483 5.09815,-17.02418 z"
       id="path22" /></g><path
     style="display:inline;fill:#ffffff;fill-opacity:1;stroke:#000000;stroke-width:6.13786;stroke-opacity:1"
     d="m 234.03604,15.966019 -69.02828,89.243711 48.56633,0.49306 c 0,0 4.68406,0 3.2049,5.67019 m 0,0 -17.75014,68.04217 69.52135,-88.01107 -49.55245,-0.24653 c 0,0 -5.17712,-2.46529 -2.71183,-6.40977 l 17.75012,-68.781761"
     id="path27"
     inkscape:label="eclair" /><g
     id="g33"><path
       style="fill:#000000;fill-opacity:1;stroke:#ffffff;stroke-width:2.06334;stroke-opacity:1"
       d="m 207.41924,368.0726 c 0,0 -0.41379,24.27586 -0.41379,24.96551 0,0.68966 0.96551,15.72414 0.96551,15.72414 0,0 -0.96551,18.34483 -0.96551,19.03449 0,0.68965 1.10344,21.37931 0.41379,23.03448 -0.68966,1.65517 -1.24138,15.86207 -1.79311,17.24138 -0.55172,1.37931 -1.10344,13.51724 -1.10344,13.51724 l 4.41379,4.55172 4.68965,-3.44827 c 0,0 3.31035,1.93103 1.24138,-7.72414 -2.06896,-9.65517 -1.3793,-14.06896 -1.3793,-14.06896 0,0 -1.93104,-8.82759 -1.93104,-12.55173 0,-3.72414 1.51724,-7.58621 1.7931,-10.34483 0.27586,-2.75862 -0.41379,-8.68965 -0.96551,-11.44827 -0.55173,-2.75862 4.27586,-0.55173 4.27586,-0.55173 0,0 1.10345,5.65518 1.10345,6.34483 0,0.68965 1.51724,16 1.24138,19.72414 -0.27587,3.72414 -0.27587,13.10345 -0.27587,14.89655 0,1.7931 0.82759,12.13793 0.82759,13.65517 0,1.51724 0.96552,7.31035 -0.13793,8.96552 -1.10345,1.65517 -2.75862,1.10345 -2.06897,3.31035 0.68966,2.20689 1.65518,4.96551 2.75862,6.89655 1.10345,1.93103 4.82759,3.44827 5.37932,3.17241 0.55172,-0.27586 2.89655,0.13793 3.31034,-1.65517 0.41379,-1.79311 0.68966,-2.62069 -0.13793,-4.41379 -0.82759,-1.79311 -0.96552,-0.27587 -2.2069,-4.27587 -1.24138,-4 -1.93103,-4.68965 -1.7931,-7.03448 0.13793,-2.34483 -0.96552,1.65517 0.13793,-7.58621 1.10345,-9.24138 0.96552,-12.96552 0.82758,-17.51724 -0.13792,-4.55172 -0.13792,-4.96552 -0.41379,-8 -0.27586,-3.03448 -1.51724,-4 -1.65517,-8.55172 -0.13793,-4.55172 -0.4138,-6.48276 0,-11.72414 0.41379,-5.24138 0.41379,-5.65517 0.41379,-9.93103 0,-4.27587 0.55173,-2.75863 -0.41379,-8 -0.96552,-5.24139 -1.7931,-7.72414 -1.7931,-11.03449 0,-3.31034 0,-4 0,-6.75862 0,-2.75862 -0.4138,-6.20689 -0.55173,-7.03448 -0.13793,-0.82759 -0.96552,-2.62069 -1.65517,-1.24138 -0.68966,1.37931 -1.24138,1.65517 -1.65517,4.13793 -0.41379,2.48276 -0.13793,4 -0.55173,4.82759 -0.41379,0.82758 0.27586,2.89655 -1.7931,1.65517 -2.06896,-1.24138 -2.34483,2.06897 -3.17241,-2.48276 -0.82759,-4.55172 -0.82759,-4 -1.10345,-6.62069 -0.27586,-2.62069 -0.82759,-2.89655 -0.68966,-4.82758 0.13793,-1.93104 0.4138,-2.89656 0.55172,-5.93104 0.13794,-3.03448 0,-1.65517 -0.13792,-4.82759 -0.13794,-3.17241 0.41379,-4 -0.4138,-5.65517 -0.82758,-1.65517 -1.65517,-2.48276 -1.65517,-2.48276 0,0 -0.41379,-0.82758 -0.96552,0.68966 -0.55172,1.51724 -0.55172,1.37931 -0.55172,1.37931 z"
       id="path32" /><path
       style="fill:#000000;fill-opacity:1;stroke:#ffffff;stroke-width:2.06334;stroke-opacity:1"
       d="m 271.47731,395.83303 c 0,0 -0.55172,12 -2.48276,17.37931 0,0 -2.20689,6.62069 3.86207,6.06897 0,0 4.13793,1.93103 4.55173,-5.79311 0,0 -2.89655,-9.93103 -2.2069,-12.96551 0,0 -0.68966,-8.4138 -3.72414,-4.68966 z"
       id="path28" /><path
       style="fill:#000000;fill-opacity:1;stroke:#ffffff;stroke-width:2.06334;stroke-opacity:1"
       d="m 361.87043,420.49574 c 0,0 -0.55172,12 -2.48276,17.37931 0,0 -2.20689,6.62069 3.86207,6.06897 0,0 4.13793,1.93103 4.55173,-5.79311 0,0 -2.89655,-9.93103 -2.2069,-12.96551 0,0 -0.68966,-8.4138 -3.72414,-4.68966 z"
       id="path28-5" /><path
       style="fill:#000000;fill-opacity:1;stroke:#ffffff;stroke-width:2.06334;stroke-opacity:1"
       d="m 142.93285,314.14156 -0.4138,11.17242 -0.55172,7.58621 1.37931,13.65517 c 0,0 -0.55173,11.03448 -0.55173,11.5862 0,0.55173 0.82759,15.17242 0.82759,15.17242 l -0.27586,13.10345 v 9.7931 c 0,0 -1.7931,7.86207 -1.93104,8.82758 -0.13793,0.96552 -0.13793,6.89656 0,7.44828 0.13794,0.55172 4.13794,4.96552 4.13794,4.96552 l 5.10344,-3.44828 c 0,0 -0.13793,-5.51724 -0.13793,-7.44827 0,-1.93104 -0.55172,-15.58621 -0.82758,-16.82759 -0.27587,-1.24138 -0.55173,-16.55172 -0.68966,-19.03448 -0.13793,-2.48276 -0.96552,-22.89655 -0.96552,-22.89655 0,0 0.55173,-8.68966 0.68966,-9.65518 0.13793,-0.96551 -0.82759,-10.75861 -0.82759,-10.75861 l -1.93103,-8.82759 -0.55173,-5.37931 z"
       id="path31" /><path
       style="fill:#000000;fill-opacity:1;stroke:#ffffff;stroke-width:1.63955;stroke-opacity:1"
       d="m 306.13023,409.48171 -0.43659,6.68608 -0.5821,4.53993 1.45527,8.17187 c 0,0 -0.58211,6.60353 -0.58211,6.9337 0,0.33018 0.87316,9.07986 0.87316,9.07986 l -0.29105,7.84169 v 5.86063 c 0,0 -1.89185,4.70502 -2.03739,5.28283 -0.14552,0.57781 -0.14552,4.12721 0,4.45738 0.14554,0.33017 4.36583,2.97159 4.36583,2.97159 l 5.3845,-2.0636 c 0,0 -0.14552,-3.30177 -0.14552,-4.45738 0,-1.15563 -0.58211,-9.32749 -0.87316,-10.07039 -0.29106,-0.7429 -0.58211,-9.90529 -0.72764,-11.39109 -0.14553,-1.4858 -1.0187,-13.70233 -1.0187,-13.70233 0,0 0.58212,-5.20028 0.72765,-5.77809 0.14552,-0.5778 -0.87317,-6.43844 -0.87317,-6.43844 l -2.03738,-5.28282 -0.58211,-3.21922 z"
       id="path31-6" /><path
       style="fill:#000000;fill-opacity:1;stroke:#ffffff;stroke-width:2.06334;stroke-opacity:1"
       d="m 164.42105,335.19419 c 0,0 -1.51724,8.68966 -1.24138,12.68966 0.27586,4 0.4138,11.03448 0,13.93103 -0.41379,2.89656 -1.37931,12 -1.51724,16 -0.13793,4 0.13793,8.4138 0.41379,12.27586 0.27586,3.86208 0.96552,5.93104 0.82759,11.03449 -0.13793,5.10345 0.68966,8.68965 -0.27586,12.55172 -0.96552,3.86207 -1.10345,5.65518 -1.10345,9.24138 0,3.58621 0,5.93104 0.41379,9.79311 0.41379,3.86206 0,4.41379 0.96552,7.31034 0.96551,2.89655 2.06896,4.4138 1.51724,8.13793 -0.55173,3.72414 -0.82758,5.51724 -1.10345,10.34483 -0.27586,4.82759 -0.82758,5.10345 0,7.44828 0.82759,2.34482 1.79311,3.86206 2.48276,4 0.68966,0.13792 -0.27586,0.82758 2.89655,0.82758 3.17241,0 3.86207,0.13793 4,-1.93103 0.13793,-2.06897 0.96552,-3.72414 0.13793,-6.06897 -0.82758,-2.34482 -1.10345,-1.10345 -2.06896,-4.13793 -0.96552,-3.03448 -1.79311,-2.48276 -1.65517,-6.75862 0.13792,-4.27586 -0.13794,-1.37931 0.13792,-7.44827 0.27587,-6.06897 0.4138,-2.2069 0.27587,-7.17242 -0.13793,-4.96552 -0.27587,-4.41379 -0.68966,-9.24138 -0.41379,-4.82759 -0.13793,-2.62069 -0.68965,-9.37931 -0.55172,-6.75862 -0.55172,-9.65517 -0.55172,-12.82759 0,-3.17241 -0.4138,-4 0,-8.41379 0.41379,-4.41379 0.41379,-5.37931 0.82758,-8.68965 0.41379,-3.31035 0.82758,-4.4138 0.55172,-8.68966 -0.27586,-4.27586 -0.96551,-6.34483 -0.96551,-9.51724 0,-3.17241 -0.27587,-4.27586 -0.68966,-7.44828 -0.41379,-3.17241 -1.37931,-2.34482 -0.27586,-7.44827 1.10345,-5.10345 0.96552,-3.44828 1.37931,-7.58621 0.41379,-4.13793 0.96552,-5.7931 0.27586,-8.27586 -0.68965,-2.48276 -2.48276,-5.93104 -2.48276,-5.93104 z"
       id="path33" /></g></svg>
