<?xml version="1.0" encoding="UTF-8" standalone="no"?>
<!DOCTYPE svg PUBLIC "-//W3C//DTD SVG 1.1//EN" "http://www.w3.org/Graphics/SVG/1.1/DTD/svg11.dtd">
<svg width="100%" height="100%" viewBox="0 0 256 256" version="1.1" xmlns="http://www.w3.org/2000/svg" xmlns:xlink="http://www.w3.org/1999/xlink" xml:space="preserve" xmlns:serif="http://www.serif.com/" style="fill-rule:evenodd;clip-rule:evenodd;stroke-linecap:round;stroke-linejoin:round;stroke-miterlimit:2;">
    <rect id="FOCUS" x="0" y="0" width="256" height="256" style="fill:none;"/>
    <g id="FOCUS1" serif:id="FOCUS">
        <g transform="matrix(1.52667,0,0,1.52667,13.5763,13.5)">
            <path d="M80.6,58.4L75,51.6L69.4,58.4C73,57.2 77,57.2 80.6,58.4M60.9,64.6L52.6,67.9L57.4,75.6L57.4,75C57.5,71.2 58.7,67.6 60.9,64.6M60.5,85L61.1,94.2L70.2,91.9C66.3,90.8 62.9,88.4 60.5,85M79.7,91.9L88.8,94.2L89.4,85C87.1,88.4 83.7,90.8 79.7,91.9M92.5,75.6L97.3,67.9L89,64.6C91.2,67.6 92.4,71.3 92.4,75C92.5,75.2 92.5,75.4 92.5,75.6M87.8,57.5L91.8,59.1L90.9,53.4L85.1,54.3L87.8,57.5ZM98.5,61.8L102.7,63.5L104.4,53.7L97,52.6L98.5,61.8ZM89.7,47.5L86.3,40.5L77.5,45.1L80.6,48.9L89.7,47.5ZM104.3,68.2L101.8,72.2L105.8,80.3L111.3,75L104.3,68.2ZM98,78.3L95.7,81.9L95.4,86.5L100.7,83.7L98,78.3ZM95,93.6L94.7,97.8L104.4,96.4L103.2,89.4L95,93.6ZM90.5,100.9L86.3,99.8L79.8,106.2L86.2,109.5L90.5,100.9ZM79.4,98.1L75,97L70.6,98.1L75,102.4L79.4,98.1ZM63.7,99.8L59.5,100.9L63.8,109.6L70.2,106.3L63.7,99.8ZM55.3,97.8L55,93.6L46.8,89.4L45.6,96.4L55.3,97.8ZM54.6,86.5L54.3,81.9L52,78.3L49.2,83.8L54.6,86.5ZM48.2,72.2L45.7,68.2L38.7,75L44.2,80.3L48.2,72.2ZM47.3,63.5L51.5,61.8L53,52.6L45.6,53.7L47.3,63.5ZM58.1,59.1L62.1,57.5L64.8,54.3L59,53.4L58.1,59.1ZM69.4,48.9L72.5,45.1L63.7,40.5L60.2,47.5L69.4,48.9ZM75,63.5C68.7,63.5 63.5,68.6 63.5,75C63.5,81.4 68.7,86.5 75,86.5C81.3,86.5 86.5,81.3 86.5,75C86.5,68.7 81.3,63.5 75,63.5M75,39.5L83.2,35.2L75,27.8L66.8,35.2L75,39.5ZM88.9,32.2L101.4,30.8L95,13.5L79.6,23.7L88.9,32.2ZM108.9,36.2L111.4,48.6L111.5,48.6L111.5,48.7L122.5,54.9L127.5,37.1L108.9,36.2ZM125.2,63.5L120,75L125.2,86.5L139.7,75L125.2,63.5ZM122.4,95.2L111.4,101.4L111.4,101.5L111.3,101.5L108.8,113.8L127.3,113L122.4,95.2ZM101.5,119.2L89,117.8L79.7,126.3L95,136.5L101.5,119.2ZM70.5,126.3L61.2,117.8L61.1,117.8L48.6,119.2L55,136.5L70.5,126.3ZM41.2,113.8L38.7,101.5L38.6,101.5L38.6,101.4L27.6,95.2L22.6,113L41.2,113.8ZM24.8,86.5L30,75.1L30,75L24.8,63.5L10.3,75L24.8,86.5ZM27.6,54.8L38.6,48.6L38.6,48.5L38.7,48.5L41.2,36.1L22.7,37L27.6,54.8ZM48.5,30.8L61,32.2L70.3,23.7L55,13.5L48.5,30.8ZM91.8,38L95.9,46.3L105,47.6L102.8,36.8L91.8,38ZM110.3,55L108.7,64L115.3,70.4L119.9,60.4L110.3,55ZM115.3,79.6L108.7,86L108.7,86.2L108.8,86.4L108.7,86.4L110.2,95.1L119.8,89.6L115.3,79.6ZM105,102.4L95.9,103.7L91.8,112L102.8,113.2L105,102.4ZM83.2,114.8L75.4,110.7L75,111L74.7,110.7L66.9,114.8L75.1,122.2L83.2,114.8ZM58.2,112L54.1,103.7L45,102.4L47.2,113.2L58.2,112ZM39.7,95.1L41.2,86.4L41.1,86.4L41.2,86.2L41.2,86L34.6,79.6L30.1,89.6L39.7,95.1ZM34.7,70.5L41.3,64L39.7,55L30.1,60.5L34.7,70.5ZM45,47.6L54.1,46.3L58.2,38L47.2,36.8L45,47.6ZM131.4,105L131.7,106L134.5,105.3L133.8,103.6L131.4,105ZM133.3,111.9L135.2,118.8L128.1,119.1L128.7,128.7L119,128.1L117.7,133.8L111.9,133.2L109.5,142.6L100.5,139.1L98,145.8L92,141.8L86.9,150L79.4,143.8L75,147.7L70.6,143.8L63.1,150L58,141.9L52,145.9L49.5,139.2L40.5,142.7L38.1,133.3L32.3,133.9L31.1,128.1L21.4,128.7L22,119.1L14.9,118.8L16.8,111.9L7.5,109.5L11.1,100.5L6.1,97.5L8.4,92.1L0,86.9L6.1,79.5L0.5,75L6.1,70.6L0,63.1L8.2,57.9L5.9,52.5L10.9,49.5L7.3,40.5L16.6,38.1L14.7,31.2L21.8,30.9L21.2,21.3L30.9,21.9L32.2,16.2L38,16.7L40.4,7.3L49.4,10.8L52,4.2L58,8.1L63.1,0L70.6,6.2L75,2.3L79.4,6.2L86.9,0L92.1,8.1L98.1,4.2L100.6,10.9L109.6,7.4L112,16.8L117.8,16.3L119,22L128.7,21.4L128.1,31L135.2,31.3L133.3,38.2L142.6,40.6L139,49.6L144,52.6L141.7,58L149.9,63.2L143.8,70.6L149.4,75L143.8,79.4L149.9,86.8L141.7,92L144,97.4L139,100.4L142.6,109.4L133.3,111.9ZM122,119.3L120.9,119.3L120.3,122L122.2,122.1L122,119.3ZM103,132.4L102.6,133.4L105.3,134.5L105.8,132.7L103,132.4ZM87,138.5L86.1,137.9L84,139.7L85.4,140.9L87,138.5ZM63.9,137.9L63,138.5L64.6,140.9L66,139.7L63.9,137.9ZM47.4,133.4L47,132.4L44.2,132.7L44.7,134.5L47.4,133.4ZM29,119.4L27.9,119.4L27.7,122.3L29.6,122.2L29,119.4ZM18.3,106L18.6,105L16.2,103.6L15.5,105.3L18.3,106ZM11.7,83.9L10.9,83.2L9.1,85.4L10.7,86.4L11.7,83.9ZM10.9,66.8L11.7,66.1L10.6,63.6L9,64.6L10.9,66.8ZM18.6,45L18.3,44L15.5,44.7L16.2,46.4L18.6,45ZM28,30.7L29.1,30.7L29.7,28L27.8,27.9L28,30.7ZM47,17.6L47.4,16.6L44.7,15.5L44.2,17.3L47,17.6ZM63,11.5L63.9,12.1L66,10.3L64.6,9.1L63,11.5ZM86.1,12.1L87,11.5L85.5,9.1L84,10.2L86.1,12.1ZM102.6,16.6L103,17.6L105.8,17.3L105.3,15.5L102.6,16.6ZM121,30.6L122.1,30.6L122.3,27.7L120.4,27.8L121,30.6ZM131.7,44L131.4,45L133.8,46.4L134.5,44.7L131.7,44ZM138.3,66.1L139.1,66.8L140.9,64.6L139.3,63.6L138.3,66.1ZM139.1,83.2L138.3,83.9L139.4,86.5L141,85.5L139.1,83.2ZM44.2,23.4L37,22.7L35.4,29.7L41.9,29.4L44.2,23.4ZM75,10.4L69.6,15.2L75,18.8L80.4,15.2L75,10.4ZM113,22.7L105.8,23.4L108.1,29.5L114.6,29.8L113,22.7ZM136.4,55L130.2,51.3L128.5,57.6L133.6,61.6L136.4,55ZM136.4,94.9L133.5,88.3L128.4,92.3L130.1,98.6L136.4,94.9ZM113,127.3L114.6,120.3L108.1,120.6L105.8,126.7L113,127.3ZM75,139.6L80.4,134.8L75,131.2L69.6,134.8L75,139.6ZM37,127.3L44.2,126.6L42,120.5L35.5,120.2L37,127.3ZM13.6,95L19.8,98.7L21.5,92.4L16.4,88.4L13.6,95ZM13.6,55.1L16.5,61.7L21.6,57.7L19.9,51.4L13.6,55.1Z" style="fill:none;fill-rule:nonzero;stroke:white;stroke-width:2.11px;"/>
        </g>
    </g>
</svg>
