<svg id="Warstwa_1" data-name="Warstwa 1" xmlns="http://www.w3.org/2000/svg" viewBox="0 0 256 256"><defs><style>.cls-1,.cls-2{stroke:#fff;}.cls-1{stroke-miterlimit:10;stroke-width:3px;}.cls-2{fill:none;stroke-width:2px;}</style></defs><path class="cls-1" d="M135,162.92l.09-.09m-8.27-.05,0,.05m8.28,45.54-.05,0m.05-158.71-.05,0M96.56,98.15l0,0m60.26,0,0,0m4.19,4.06-.06.07m-56-4.11,0,0m21.29,8.44-.06-.06m.67-57.38,0,0m8.24-28-.1.1M115.49,98.15v0m0,8.44v-.06m20.2-8.36,0,0m10.72,8.44v-.06m0-8.36v0m-59.82,9.55-.09-.09m10.33,7.15h0M121.26,146l-.05-.1m54.18-38.33-.15.15m-34.57,38.15-.06.13m13-5.22h0m-10-72.46-.07.07M148,70.31h0m26.87,22.52-.35-.17m-4.88-12.83-.14,0m-42.67-5.66,0,0M135,82.36l0,0M126.82,122l0,0m8.26,8.25,0,0"/><path class="cls-1" d="M126.82,200.52v26.13l-3.23,4.15,3.26,6.58,4.06,8.21,4-8.12,3.3-6.67L135,226.65v-39"/><path class="cls-1" d="M135,187.66V181l4.48-4.77L135,171.42v-24l.11-.67c.26,0,.53,0,.78,0l.81-.1c1.13-.14,2.25-.34,3.36-.58l.61-.14.64-.14c1-.23,1.94-.51,2.9-.81.41-.12.82-.25,1.22-.39l8.64,13.66-3.57-15.8c.7-.34,1.39-.66,2.07-1l.4-.21.64-.37a46.07,46.07,0,0,0,5.76-4.07L179.57,151,165.33,130.8a44.62,44.62,0,0,0,5.15-7.73c.05-.09.1-.17.15-.27.14-.28.26-.59.4-.88l15.79,3.56-13.68-8.64c.19-.57.4-1.15.58-1.72.06-.21.13-.42.19-.63.36-1.29.66-2.57.9-3.86,0-.14.06-.28.08-.41.15-.83.26-1.65.35-2.48.06-.41.1-.82.14-1.23H189l4,3.14,14.79-7.32L193.08,95,189,98.15H175.36c0-.27,0-.54-.06-.82s-.05-.52-.08-.78c-.15-1.13-.36-2.25-.59-3.37,0-.17-.07-.34-.12-.51s-.1-.48-.15-.72c-.24-1-.52-2-.82-2.92-.13-.41-.26-.81-.4-1.21l13.68-8.63L171,82.75c-.34-.69-.66-1.39-1-2.06l-.21-.41-.27-.46a45,45,0,0,0-4.17-5.94L179.57,53.7,159.39,67.93a44.11,44.11,0,0,0-7.73-5.16l-.26-.13c-.29-.15-.6-.27-.9-.41l3.57-15.78-8.62,13.64h0v0a45.62,45.62,0,0,0-9-2.1c-.45-.06-.9-.11-1.36-.15H135V32.15L138.23,28l-3.32-6.72-4-8.07L127,21.12,123.59,28l3.23,4.15v66H94.87a37,37,0,0,1,.87-4.82L88.62,88a44.5,44.5,0,0,0-2.18,10.1.09.09,0,0,0,0,.05H72.79l-4-3.14L54,102.33l14.79,7.32,4-3.14H86.47c0,.27,0,.55.06.83,0,.11,0,.23,0,.34s0,.28,0,.42c.15,1.14.35,2.28.59,3.4.09.39.17.79.26,1.18.24,1,.52,2,.83,3,.13.4.25.8.39,1.19L75,125.48l15.8-3.57c.35.7.68,1.41,1.06,2.09.07.12.12.24.2.37a42.36,42.36,0,0,0,3.23,4.87c.39.52.79,1,1.21,1.54L82.26,151l20.18-14.24a44.52,44.52,0,0,0,5.81,4.09c.62.36,1.25.71,1.9,1.05l.29.16c.28.15.59.26.88.41l-3.56,15.77,8.64-13.67c.56.19,1.13.4,1.7.57l.67.2c.81.23,1.62.44,2.44.61.46.11.92.2,1.38.29l.45.09c1.22.21,2.45.36,3.67.47l.11.66v24l-4.48,4.77,4.48,4.77v19.56m0-62.14h0c-.7-.08-1.41-.16-2.09-.27s-1.24-.27-1.85-.41-1.11-.24-1.64-.38c-.75-.21-1.48-.46-2.22-.73-.41-.14-.83-.26-1.24-.42s-.71-.29-1.06-.45-.69-.32-1-.48-.86-.37-1.28-.59-1-.54-1.45-.82-1.17-.64-1.73-1l-.54-.38c-.93-.63-1.83-1.3-2.69-2-.32-.26-.64-.54-1-.81a36.34,36.34,0,0,1-5.84-6.49c-.33-.48-.63-1-.94-1.48s-.61-.92-.88-1.41-.41-.73-.59-1.1a33.78,33.78,0,0,1-1.94-4.4A36.48,36.48,0,0,1,95,107.59c0-.18-.07-.36-.1-.54s0-.36,0-.54h32Zm39.87-29.8c-.1.57-.23,1.13-.36,1.69s-.26,1.22-.43,1.81-.42,1.36-.66,2c-.07.2-.14.4-.2.61s-.18.53-.28.79c-.26.67-.57,1.31-.86,2-.22.47-.42,1-.66,1.42a2,2,0,0,1-.14.25c-.19.36-.41.71-.61,1.07-.35.63-.69,1.26-1.08,1.85l-.31.44a36.45,36.45,0,0,1-6.68,7.5c-.43.37-.87.73-1.32,1.07s-.91.69-1.37,1c-.83.58-1.7,1.12-2.58,1.63l-.3.19a34,34,0,0,1-3.84,1.87c-.72.31-1.44.59-2.17.84a36.49,36.49,0,0,1-6.8,1.66l-.39.06c-.21,0-.43,0-.65.06V106.51h21.78v-.13l4.13-4.12,4.25,4.25H167C166.89,107.2,166.81,107.9,166.69,108.58ZM135,98.15V66.27a36,36,0,0,1,8.64,2.06l.46.17c.69.27,1.35.58,2,.88.45.21.92.4,1.36.63l.56.3.82.48c.61.35,1.22.68,1.8,1l.47.34a36.85,36.85,0,0,1,7.51,6.69c.72.85,1.41,1.73,2.05,2.65.35.51.66,1,1,1.58s.57.86.83,1.3a33.4,33.4,0,0,1,2,4.09,36.13,36.13,0,0,1,2.37,8.56c0,.19.07.37.1.56s0,.36,0,.54Z"/><path class="cls-2" d="M126.77,121.9l8.26,8.25m-8.26-56L135,82.36M131,105.06v15.13l4,4M130.92,99V83.82l-4-4m4,25.59,3.21-3.22L130.92,99l-3.22,3.21Zm38.72-25.54-5.95-.8m-.18-3.78-3.36,2.6m6.44,1.55-2.9-.37-1.79-2.31m13,16.11L169.16,90m1.05-3.63-4,1.37m5.58,3.55L169.16,90l-.94-2.77M148,70.32l6.31-.84m1.14,3.61L158,69.72m-6.62.15,2.9-.39,2.32,1.78m-13.15-8h4.25m-4.14,5.17,2.06-2.07V63.41m-9.32-.18h4.25m-4.14-5.16,2.06,2.07v2.92m15.13,77.74.8-6m3.78-.18-2.6-3.36m-1.55,6.44.37-2.9,2.31-1.79m-16.11,13,2.81-5.71m3.63,1.06-1.37-4m-3.56,5.59,1.3-2.63,2.76-.94m16.95-20.21.84,6.3m-3.6,1.14,3.37,2.58m-.15-6.62.38,2.9-1.78,2.32m8-13.14v4.24m-5.16-4.14,2.06,2.07h2.93m.17-9.32v4.25m5.17-4.15-2.07,2.07h-2.92M108.27,140.8l-.81-6m-3.77-.18,2.6-3.36m1.54,6.44-.37-2.9-2.31-1.79m16.12,13-2.81-5.71m-3.63,1.06,1.36-4m3.56,5.59-1.29-2.63-2.77-.94m-17-20.21-.84,6.3m3.61,1.14-3.37,2.58m.15-6.62-.39,2.9,1.78,2.32m-8-13.14v4.24m5.17-4.14-2.07,2.07H91.83m-.18-9.32v4.25m-5.16-4.15,2.07,2.07h2.92m-6.43-7.53h5.43l-4.22-4.21m90.19,4.52H171l4.21,4.21m-28.84-.08V98.13m-2.46,2.23v4.25m-8.26-6.48,4.41,4.4h3.67m-28.26-4.4v8.44m15.55-81.42,4-4m-4,7.94v-4l-4-4m1.72,15.19H133m-6.22,12.86L130.91,45V36.49M196,100.36v4.25m-18-6.46,4.38,4.38h13.48M65.86,104.3v-4.25m17.91,6.46-4.38-4.38H65.91m52,2.2v-4.24m8.26,6.48-4.4-4.41h-3.68m-5.22-2.07v4.24m-8-6.2,4.14,4.13h3.68m36.06,2.35v-4.25m8,6.21-4.14-4.13H149M133.09,70.9h-4.25M135.05,58l-4.13,4.13v8.55m25.87,35.66,4.19-4.19m4.19,4.32-8.38-8.38m-51.87.12-4.19,4.19m-4.19-4.31,8.38,8.38m30.13-56.8-8,8m3.79,175.69-4,4m4-24.78V233.4l4,4m-8-20.84,8.22-8.22m-6.31-74.9H133m-6.22,29.36,4.14-4.13v-25m2.22,42h-4.24m6.21-12.86L131,167v8.55m-2.16,12.14H133m-6.21,12.86,4.14-4.14v-8.55m-4.14,21,8-8m31.49-90.57c-.13.61-.25,1.22-.42,1.81s-.43,1.36-.66,2c-.17.46-.31.94-.49,1.4-.26.67-.56,1.31-.86,2-.22.47-.41,1-.65,1.42s-.5.88-.75,1.32c-.36.63-.7,1.26-1.08,1.85l-.31.44a36.49,36.49,0,0,1-9.37,9.58c-.84.58-1.7,1.12-2.58,1.63l-.3.19a36.61,36.61,0,0,1-12.81,4.37c-.13,0-.26,0-.4.06s-.43,0-.64.06V106.51h32c-.07.69-.15,1.39-.27,2.07S166.46,109.71,166.33,110.27ZM122.84,137.7c-.55-.12-1.1-.24-1.64-.38-.74-.21-1.48-.46-2.21-.73-.42-.14-.84-.26-1.24-.42-.72-.28-1.41-.6-2.1-.93-.43-.19-.87-.37-1.28-.59s-1-.54-1.45-.82-1.17-.64-1.73-1c-.19-.12-.36-.26-.54-.38a36.65,36.65,0,0,1-9.49-9.3c-.34-.48-.63-1-.94-1.48s-.61-.92-.88-1.41A36.42,36.42,0,0,1,95,107.59c0-.18-.07-.36-.09-.54s0-.36-.05-.54h32v31.87h0c-.69-.08-1.4-.16-2.08-.27S123.46,137.84,122.84,137.7ZM135,66.27a36,36,0,0,1,9.09,2.23c.7.27,1.35.58,2,.88.45.21.92.4,1.36.63s.92.52,1.38.78,1.22.68,1.8,1l.47.34a36.57,36.57,0,0,1,9.55,9.34c.36.51.67,1,1,1.58s.57.86.82,1.3a36.42,36.42,0,0,1,4.34,12.65c0,.19.08.37.1.56s0,.36.05.54H135Zm38.9,48.22c.36-1.29.66-2.57.91-3.86,0-.14.05-.28.08-.41.22-1.24.37-2.48.48-3.71H189l4,3.14,14.79-7.32L193.08,95l-4,3.14H175.37c0-.27,0-.54-.06-.82s-.05-.52-.09-.78c-.15-1.13-.35-2.25-.59-3.37-.08-.41-.17-.83-.27-1.23-.23-1-.51-2-.81-2.92-.13-.41-.26-.81-.4-1.21l13.67-8.63L171,82.75c-.34-.69-.67-1.39-1-2.06l-.22-.41a45.13,45.13,0,0,0-4.44-6.4L179.58,53.7,159.4,67.93a43.82,43.82,0,0,0-7.74-5.16l-.26-.13c-.29-.15-.6-.27-.89-.41l3.56-15.78-8.62,13.64h0v0A45,45,0,0,0,135,57.86V32.15L138.24,28l-7.32-14.79L123.6,28l3.23,4.15v66h-32a40.66,40.66,0,0,1,.87-4.82L88.63,88a44.4,44.4,0,0,0-2.19,10.15H72.8l-4-3.14L54,102.33l14.79,7.32,4-3.14H86.47c0,.27,0,.55.06.83s0,.51.08.76c.16,1.14.36,2.28.6,3.4.08.39.16.79.26,1.18.24,1,.52,2,.83,3,.12.4.25.8.39,1.19L75,125.48l15.8-3.57c.34.7.68,1.41,1.06,2.09l.19.37a45.29,45.29,0,0,0,4.45,6.41L82.26,151l20.19-14.24a44.33,44.33,0,0,0,7.7,5.14l.3.16c.28.15.59.26.88.41l-3.57,15.77,8.64-13.67c.57.19,1.13.4,1.7.57l.68.2c1.26.36,2.54.66,3.81.9.15,0,.3.06.45.09,1.23.21,2.46.36,3.68.47l.11.66v24l-4.48,4.77,4.48,4.77v45.69l-3.23,4.15,7.32,14.79,7.32-14.79L135,226.65V181l4.47-4.77L135,171.42v-24l.11-.67c.26,0,.52,0,.78,0l.81-.1c1.13-.14,2.24-.34,3.35-.58l1.26-.28c1-.23,1.94-.51,2.9-.81.41-.12.81-.25,1.22-.39l8.63,13.66-3.56-15.8c.69-.34,1.39-.66,2.07-1,.13-.07.26-.13.39-.21a45.22,45.22,0,0,0,6.41-4.44L179.58,151,165.34,130.8a44.62,44.62,0,0,0,5.15-7.73c0-.09.09-.17.14-.27.15-.28.27-.59.41-.88l15.78,3.56-13.68-8.64c.2-.57.41-1.15.58-1.72C173.79,114.91,173.85,114.7,173.91,114.49Z"/></svg>