<svg id="Warstwa_1" data-name="Warstwa 1" xmlns="http://www.w3.org/2000/svg" viewBox="0 0 256 256"><defs><style>.cls-1,.cls-2{stroke:#fff;stroke-width:3px;}.cls-1{stroke-miterlimit:10;}.cls-2{fill:none;}</style></defs><path class="cls-1" d="M167.17,139.64l-1.27,14.28-1.82,20.19-22.43,25.13-2,21.6-2,21.33L128,248l-9.57-5.79-2.56-20.65-2.77-22.28L92,174.45l-1.85-20.54L88.83,139.4l.53-3,2.08-11.59,1.83-10.16L110.47,19l3,67.52.82,18.59c1.34-.32,2.73-.59,4.16-.8a63.39,63.39,0,0,1,19.12,0c1.44.21,2.84.48,4.19.8l.82-18.6,3-67.24,17.15,95.38,1.83,10.16,2.06,11.52Z"/><path class="cls-1" d="M167,136.78l-.41-.4m-29-32h0M90.12,153.91,90,154m-.64-17.6-.35.34"/><path class="cls-2" d="M142.09,177.93l-17.15,17.16v17.37l-9.07,9.06m-2-43.59,17.16,17.16v17.37l8.37,8.37"/><path class="cls-2" d="M137.56,176.38,154.62,167S150.8,182.85,137.56,176.38ZM101.38,167l17.06,9.41C105.2,182.85,101.38,167,101.38,167ZM145.54,19.32l-3.79,85.83A61.26,61.26,0,0,0,128,103.63a60.57,60.57,0,0,0-13.73,1.52L110.47,19,88.83,139.4l3.14,35,21.13,24.79,5.34,42.93L128,248l9.58-5.79,4.06-42.93,22.44-25.14,3.08-34.46Z"/><path class="cls-2" d="M128,146.9a9,9,0,1,0,9,9,9,9,0,0,0-9-9m0,.82a8.2,8.2,0,1,1-8.2,8.2,8.2,8.2,0,0,1,8.2-8.2"/><path class="cls-2" d="M128,149.73a6.19,6.19,0,1,0,6.19,6.19,6.19,6.19,0,0,0-6.19-6.19m0,.82a5.37,5.37,0,1,1-5.37,5.37,5.38,5.38,0,0,1,5.37-5.37"/><path class="cls-2" d="M112.94,77.09,105,85m38.05-7.93L151,85m-37.79,1.54-8.68,8.69v8.38l-11.1,11.09m25-10.37v6.1l-5.77,5.77H100.25l-8.66,8.66M128,103.63v7.54l-11.47,11.48H103.15L89,136.78m30.15,31.43L114,163.06H99.77l-8.85-8.85M108.61,139,105,135.42m-7.17,10.74h11.31l10.88-10.87H128m-21.17,1.92L90,154m52.8-67.48,8.68,8.69v8.38l11.1,11.09m-25-10.37v6.1l5.77,5.77h12.42l8.66,8.66M128,103.63v7.54l11.47,11.48h13.38L167,136.78m-30.15,31.43,5.15-5.15h14.24l9.4-9.4M147.39,139l3.57-3.57m7.17,10.74H146.82l-10.88-10.87H128m21.18,1.92,16.71,16.72M123,125.44l5,5,5-5-5-5Z"/></svg>