<svg id="Warstwa_1" data-name="Warstwa 1" xmlns="http://www.w3.org/2000/svg" viewBox="0 0 256 256"><defs><style>.cls-1,.cls-2{stroke:#fff;}.cls-1{stroke-miterlimit:10;stroke-width:3px;}.cls-2{fill:none;stroke-width:2px;}</style></defs><path class="cls-1" d="M237.05,86.9l-.1.1m-30.5,34.72-.1.1m-17.49,30-.25-.25m-38.15,28v0m-45.78-118-.21-.21M19,87l-.1-.1m30.71,34.92-.1-.1m17.84,29.8-.25.25M153.32,87h0"/><path class="cls-1" d="M237.59,99.38,249.23,87H143.52L125.25,61.45H75.53L108,77.22l.11,9.78H6.77L18.4,99.38h39l5.33,5H23.11L34.77,116.8H75.94l5.33,5H39.47l11.65,12.39H94.46l5.34,5h-44l11.57,12.3.08.09h38.16l-7.94,22.53,7.85,5.35,8.78,6L128,194.76l13.7-9.32,8.79-6,7.85-5.33-7.94-22.53h38.16l.09-.09,11.55-12.3h-44l5.34-5h43.36l11.64-12.39h-41.8l5.33-5h41.17l11.67-12.41H193.27l5.33-5Z"/><path class="cls-2" d="M126.88,113.44,153.32,87m-10.17,23.43,23.37-23.37M96,87l11.72,11.72H128m109.6.66L249.23,87H143.53L125.25,61.45H75.53L108,77.22l.11,9.78H6.77L18.4,99.38h39l5.34,5H23.11l11.66,12.41H75.94l5.33,5H39.48l11.64,12.39H94.47l5.33,5h-44l11.64,12.39h38.16l-7.94,22.54L128,194.76l30.35-20.61-7.94-22.54h38.16l11.64-12.39h-44l5.33-5h43.36l11.64-12.39h-41.8l5.34-5h41.17l11.66-12.41H193.27l5.34-5ZM116.77,134l2.64,2.63v17.06m8.59,0h-8.59L97.69,174.15m25.7-12.63,0,14.74-8.88,8.87M128,157l-22.46,22.45m15-49.27L108.39,118H94.69M67.13,151.78l6.24-6.23h31.88l25.2-25.21m-80.9,1.38L55.78,128h48.81l9.13,9.13m-13.55-26.62h-60l6.31,6.31m76.07.52-6.87-6.87H98.17L80.31,92.56H24.6L18.94,86.9M128,112.31V78.82l-8.33-8.33h-6l-9.25-9.25M139.23,134l-2.64,2.63v17.06m-8.59,0h8.59l21.72,20.43m-25.74-12.68v14.79l8.88,8.87M128,122.84V157l22.46,22.45m-15-49.27L147.61,118h13.7m27.56,33.76-6.24-6.23H150.75l-25.2-25.21m80.91,1.38L200.22,128H151.41l-9.13,9.13m13.55-26.62h60l-6.31,6.31m-76.07.52,6.87-6.87h17.52l17.86-17.86H231.4l5.66-5.66M128,122.84l5.27-5.26L128,112.31l-5.27,5.27Z"/></svg>