<svg id="Warstwa_1" data-name="Warstwa 1" xmlns="http://www.w3.org/2000/svg" viewBox="0 0 256 256"><defs><style>.cls-1,.cls-2{stroke:#fff;}.cls-1{stroke-miterlimit:10;stroke-width:3px;}.cls-2{fill:none;stroke-width:2px;}</style></defs><path class="cls-1" d="M248.66,61.57V194.36H218.91V98.18s0,0,0,0a6.39,6.39,0,0,1,1.76-.44,5.66,5.66,0,0,1,3.82,1.49,5,5,0,0,1,1.71,4V110a5.32,5.32,0,0,1-3.9,5.37v6.79c0,.32.16.47.5.42a12.67,12.67,0,0,0,5.38-2.23,11.1,11.1,0,0,0,2.25-2.19,12.8,12.8,0,0,0,2.82-8.16v-6.92a12.55,12.55,0,0,0-3.81-9.19,10.76,10.76,0,0,0-8.91-3.38l-1.62.13s0,0,0,0V80.5a4.92,4.92,0,0,1,1.79-.35,5.19,5.19,0,0,1,5.1,3.32h6.71c.43,0,.59-.26.49-.78a13.28,13.28,0,0,0-3.74-6.43,11.56,11.56,0,0,0-5.08-2.91,13.64,13.64,0,0,0-3.68-.47,11.74,11.74,0,0,0-1.59.15V61.57Z"/><path class="cls-1" d="M208.26,85.73v24.39a12.31,12.31,0,0,0,2.55,7.63,12,12,0,0,0,3.49,3.13v73.48H200.78V122.62h1.93c.32,0,.48-.16.48-.5V73.36a.31.31,0,0,0,0-.17h0c-.05-.11-.18-.16-.38-.16h-2V61.57H214.3V74.72l-.21.14a12.48,12.48,0,0,0-2.18,1.79A12.64,12.64,0,0,0,208.26,85.73Z"/><path class="cls-1" d="M189.28,80.26v9.43c0,.34.16.38.5.14l3.43-3.52V194.36H181.76V61.57h11.45V76.14l-.32.34Z"/><path class="cls-1" d="M179.15,61.57V194.36h-3.27V182.29c0-.54-.32-.83-1-.83H163.27V140.08l9-14.48a25.46,25.46,0,0,0,2.12-4.36,30.76,30.76,0,0,0,1.85-10.89,28,28,0,0,0-5.07-16.41,30.11,30.11,0,0,0-2.21-2.83,29.16,29.16,0,0,0-5.66-4.86V61.57Z"/><path class="cls-1" d="M155.68,152.33v29.13h-9.47a.75.75,0,0,0-.84.84v12.06h-7.62V181.3L151,159.88Z"/><path class="cls-1" d="M151.68,83.14V98.41a14.2,14.2,0,0,1,4,2.21v21l-9.22,14.7-7.27,11.59-7.53,12V106.52h3.11c.33,0,.66-.38,1-1.16a12.7,12.7,0,0,1,3-4,12,12,0,0,1,4.17-2.43c.43-.1.66-.6.66-1.48V82.82a.74.74,0,0,0-.84-.84,21.72,21.72,0,0,0-5.78,1.46,27.81,27.81,0,0,0-5.28,2.85V61.57h24V82.7c-.89-.25-1.74-.55-2.68-.72a1.08,1.08,0,0,0-1,.12A1.29,1.29,0,0,0,151.68,83.14Z"/><polygon class="cls-1" points="128.25 106.53 128.25 165.31 119.65 179.03 119.65 106.53 128.25 106.53"/><path class="cls-1" d="M128.26,61.57V89c-.34.31-.69.55-1,.87a28.21,28.21,0,0,0-7.57,11.47V61.57Z"/><rect class="cls-1" x="107.64" y="61.55" width="8.61" height="132.8"/><rect class="cls-1" x="97.43" y="61.55" width="4.3" height="132.8"/><rect class="cls-1" x="83.55" y="61.55" width="4.3" height="132.8"/><rect class="cls-1" x="67.51" y="61.55" width="4.3" height="132.8"/><rect class="cls-1" x="51.84" y="61.55" width="5.38" height="132.8"/><rect class="cls-1" x="40.21" y="61.55" width="5.38" height="132.8"/><rect class="cls-1" x="28.18" y="61.55" width="8.08" height="132.8"/><rect class="cls-1" x="7.41" y="61.55" width="16.76" height="132.8"/><path class="cls-2" d="M248.8,154.51l-19,19.05m18.91,18.61-18.95-18.95m18.95.19h-7.34m7.34-7.34-18.76,18.76v9.69m11.42-21.11L229.91,162v-9.69"/><path class="cls-2" d="M15.79,61.62V76.19L7.2,84.79m124.47,1.57a23.78,23.78,0,0,1,11.06-4.31.74.74,0,0,1,.83.83v14.6c0,.88-.22,1.38-.66,1.49a12.1,12.1,0,0,0-7.14,6.46c-.33.77-.65,1.16-1,1.16h-3.1V160l24-38.27v-21a14.93,14.93,0,0,0-4-2.21V83.21c0-1,.44-1.37,1.33-1.16s1.79.46,2.68.71V61.62h-24Zm6.09,108.07h7.62V182.36a.74.74,0,0,1,.83-.83h9.48V152.39l-17.93,29ZM163.28,86.31a29.51,29.51,0,0,1,5.65,4.87,28.19,28.19,0,0,1,7.29,19.23,28.55,28.55,0,0,1-4,15.25l-9,14.47v41.4h11.61c.67,0,1,.28,1,.83v12.07h3.27V61.62H163.28Zm55.63-24.69V73.09a11.89,11.89,0,0,1,1.59-.15,12.1,12.1,0,0,1,8.76,3.39A13.21,13.21,0,0,1,233,82.76c.09.52-.07.78-.5.78H225.8a5.2,5.2,0,0,0-5.09-3.33,4.93,4.93,0,0,0-1.8.35V90.77s0,0,0,0l1.63-.13a10.78,10.78,0,0,1,8.9,3.39,12.48,12.48,0,0,1,3.82,9.18v6.93a12.78,12.78,0,0,1-2.83,8.16,12,12,0,0,1-7.63,4.41c-.33,0-.5-.09-.5-.42v-6.78a5.33,5.33,0,0,0,3.9-5.37v-6.86a5,5,0,0,0-1.7-4,5.68,5.68,0,0,0-3.82-1.49,6.6,6.6,0,0,0-1.77.43s0,0,0,0v96.19h29.76V61.62ZM181.76,194.43h11.45v-108l-3.43,3.52c-.33.23-.5.19-.5-.15V80.32l3.93-4.12V61.62H181.76Zm19-121.35h2c.28,0,.42.11.42.35v48.76c0,.33-.16.49-.5.49h-1.91v71.75H214.3V121a12.55,12.55,0,0,1-6-10.77V85.8a12.63,12.63,0,0,1,3.64-9.08,13.67,13.67,0,0,1,2.39-1.93V61.62H200.79Zm-81.14,106,8.61-13.71V106.59h-8.61Zm0-77.7a28.11,28.11,0,0,1,7.58-11.46c.34-.33.69-.57,1-.87V61.62h-8.61Zm-112.24,93H24.17V61.62H7.41Zm20.77,0h8.08V61.62H28.18Zm12,0H45.6V61.62H40.22Zm11.62,0h5.38V61.62H51.84Zm15.67,0h4.31V61.62H67.51Zm16,0h4.31V61.62H83.54Zm13.89,0h4.3V61.62h-4.3Zm10.21,0h8.61V61.62h-8.61Zm24-108.07a23.78,23.78,0,0,1,11.06-4.31.74.74,0,0,1,.83.83v14.6c0,.88-.22,1.38-.66,1.49a12.1,12.1,0,0,0-7.14,6.46c-.33.77-.65,1.16-1,1.16h-3.1V160l24-38.27v-21a14.93,14.93,0,0,0-4-2.21V83.21c0-1,.44-1.37,1.33-1.16s1.79.46,2.68.71V61.62h-24Zm6.09,108.07h7.62V182.36a.74.74,0,0,1,.83-.83h9.48V152.39l-17.93,29ZM163.28,86.31a29.51,29.51,0,0,1,5.65,4.87,28.19,28.19,0,0,1,7.29,19.23,28.55,28.55,0,0,1-4,15.25l-9,14.47v41.4h11.61c.67,0,1,.28,1,.83v12.07h3.27V61.62H163.28Zm55.63-24.69V73.09a11.89,11.89,0,0,1,1.59-.15,12.1,12.1,0,0,1,8.76,3.39A13.21,13.21,0,0,1,233,82.76c.09.52-.07.78-.5.78H225.8a5.2,5.2,0,0,0-5.09-3.33,4.93,4.93,0,0,0-1.8.35V90.77s0,0,0,0l1.63-.13a10.78,10.78,0,0,1,8.9,3.39,12.48,12.48,0,0,1,3.82,9.18v6.93a12.78,12.78,0,0,1-2.83,8.16,12,12,0,0,1-7.63,4.41c-.33,0-.5-.09-.5-.42v-6.78a5.33,5.33,0,0,0,3.9-5.37v-6.86a5,5,0,0,0-1.7-4,5.68,5.68,0,0,0-3.82-1.49,6.6,6.6,0,0,0-1.77.43s0,0,0,0v96.19h29.76V61.62ZM181.76,194.43h11.45v-108l-3.43,3.52c-.33.23-.5.19-.5-.15V80.32l3.93-4.12V61.62H181.76Zm19-121.35h2c.28,0,.42.11.42.35v48.76c0,.33-.16.49-.5.49h-1.91v71.75H214.3V121a12.55,12.55,0,0,1-6-10.77V85.8a12.63,12.63,0,0,1,3.64-9.08,13.67,13.67,0,0,1,2.39-1.93V61.62H200.79Zm-81.14,106,8.61-13.71V106.59h-8.61Zm0-77.7a28.11,28.11,0,0,1,7.58-11.46c.34-.33.69-.57,1-.87V61.62h-8.61Zm-112.24,93H24.17V61.62H7.41Zm20.77,0h8.08V61.62H28.18Zm12,0H45.6V61.62H40.22Zm11.62,0h5.38V61.62H51.84Zm15.67,0h4.31V61.62H67.51Zm16,0h4.31V61.62H83.54Zm13.89,0h4.3V61.62h-4.3Zm10.21,0h8.61V61.62h-8.61Z"/><path class="cls-2" d="M163.28,77.63h7.88m8-16-8,8V94M233,165.05l-14.14-14.14M151,160v21.47m-19.34-65.56h6l6,6m2.5-3L139.05,126v21.9m-.32-46.49,7.66,7.65v27.28M136.94,83.5V79.33l6.18-6.19M123.88,61.77V75.94m0,67.15V120.26l4.4-4.4m-8.61,27.46h8.61m12.29-81.55v8.81L151.8,81.82M11.14,194.26l9.08-9.08V172.54l4-3.95M15.79,146V161.3l-8.45,8.45M18,95.9l-6.62,6.62,13.06,13.06M128.15,79.73l-4.29-4.28L119.5,79.8m110.41,72.59,5.23-5.23-5.23-5.24-5.24,5.24ZM15.79,146,21,140.73l-5.24-5.24-5.24,5.24ZM57.17,87l-4.78,4.78,4.78,4.78m26.47-.76,4-4-4.11-4.11M15.79,98.08,21,92.84l-5.24-5.23-5.24,5.23Z"/><polyline class="cls-2" points="171.16 181.42 171.16 170.69 163.22 162.74 168.16 157.79 178.96 168.59"/><path class="cls-2" d="M187.4,61.77V71l5.49,5.49M174.5,121.35v16.86l-3.34,3.33,3,3v19.25m-6-6V147l-5-5"/><path class="cls-2" d="M116.18,173.56l-8.63-8.63M101.61,159l-3.93-3.93m-10-10-3.93-3.92M71.61,129l-3.92-3.93,3.92-3.93M40.14,152.62l5.54-5.54M28.07,164.69l8.26-8.26m204.1-85.49V64.37l2.89-2.89m-.88,9.46h-4m4.89,11.18v6.57L239.05,93M218.91,61.63l5.31,5.3v6.34m9.46-11.64V74.71L239,80V96M207.78,68.62l-4.65,4.65m-2.34-11.64L214.12,75m27.2,7.16h4M237,96h4m-5.5,12.32h4m-11.3,12.16v11.89m9.29-24v30.46m4.72-6.41H226.11l-7.3,7.31m10.69,2.65,3.55-3.55h8.74m6.66,6.8h-6.22m0,15.54V126l6.44-6.44m-48,74.91,9.22-9.22m4.29,4.29-4.28-4.28H200.7m0-45.92,3.71,3.72h6.16l3.72,3.71m-13.51,8.58,6.71-6.71V137.52l6.73-6.73m-32.47,55.34,5.86-5.86v-7.61l5.5-5.5m-6.9-50.09h2.25m-2.25,13.23h2.25m-1.13,0v6.33l5.71,5.7m-5.71-25.26V101.31l5.94-5.94m-.07,14.13H181.76"/><line class="cls-2" x1="107.64" y1="91.82" x2="116.26" y2="83.2"/><path class="cls-2" d="M67.51,109.26a22.45,22.45,0,0,1,4.31-3.39m0,38.4A22.23,22.23,0,0,1,67.59,141m-15.83-31.7a22.78,22.78,0,0,1,5.54-4.09M57.35,145a22.39,22.39,0,0,1-5.51-4m49.89-49.14H97.42m4.31,51.5H97.42m18.76,0h-8.63M28.18,67.44l8,8m4.09,4.08L45.77,85m-21.6,40.05H16.1l-8.66-8.65m44.32,8.65H57.3m-17.16,0h5.54m-17.5,0h8.08"/></svg>