<svg id="Warstwa_1" data-name="Warstwa 1" xmlns="http://www.w3.org/2000/svg" viewBox="0 0 256 256"><defs><style>.cls-1,.cls-2{stroke:#fff;}.cls-1{stroke-miterlimit:10;}.cls-2{fill:none;stroke-width:3px;}</style></defs><path class="cls-1" d="M128.56,6.14V6M81.92,94.47v0m24.14,19.27h0m38.77,52.77-.1-.09m-47,17.17,0,0m52.7-68.86-.14-.14M120.1,145.12l-.22.22m.22,20.6-.12.12M98.84,200l0,0m-12-12.45-.06-.06m62.09-175.1v-.11m11.23,11.24h-.13"/><path class="cls-1" d="M166,136.21V108.82l-15.74,5.69-14.33,5.18v50l8.92-3.24,36.94-13.38V211l-7.16,2.6L166,216.72v-41.1l-33.44,12.1v0l-4.65,1.68L98.81,200,90,203.13v41.11l-8.47,3.07L74.24,250V192.05l12.55-4.55,10.91-3.95,22.4-8.1v-50l-8.85,3.2-37,13.42V97.25l7.68-2.78L90,91.53v28l16-5.81,14-5.08V81.46a37.73,37.73,0,0,1-12.89-5.38A38.19,38.19,0,0,1,96,64.73a37.7,37.7,0,0,1-6-20.46v-.06a37.74,37.74,0,0,1,6.17-20.75A38.07,38.07,0,0,1,128,6.12a5.33,5.33,0,0,1,.57,0,37.81,37.81,0,0,1,20.26,6.2,38.35,38.35,0,0,1,11.1,11.13,37.8,37.8,0,0,1,6.16,20.69v.05A38.21,38.21,0,0,1,135.9,81.46v21.43l9.22-3.33,36.64-13.27V130.5l-7.2,2.61Z"/><path class="cls-2" d="M148.82,64.63l-4.69-4.69m15.92,4.69H148.82V75.87M107.35,64.63,112,60m-4.69,15.92V64.63H96.11m11.23-41.16L112,28.16M96.11,23.47h11.23V12.23m41.48,11.24-4.69,4.68m4.69-15.92V23.47h11.23M98.84,200l-12.1-12.53M81.5,247.16V197.8l11.29-4.09m35.09-35.55-7.89,7.9m7.89,16.53V151.35l7.87-7.87m-7.86-23.66v17.51l-8,8m30.49-30.69L141.7,106,133,114.71m-5.09,74.7v-6.82l-23,8.11-7.19-7.19m76.85,29.83V165l-23,8.12-6.75-6.75m29.78-33.44v-35l-23,8.11-6.3-6.3m-39.13,14,8.68,8.67,8.73-8.73M81.92,94.44v36l23-8.11,6.3,6.3m21.93-14.1-5.29-5.29-5.3,5.29,5.3,5.3ZM128.56,16l6.07,6.07M128.56,6V16l-6,6M100,44.27l6.07-6.08M90,44.26h10l6,6m50.15-6.07L150,50.24m16-6.07h-10l-6-6M128,72.43l-6.07-6.07M112,28.2l12.24,12.23M131.78,48c1.31,1.3,12.15,12.15,12.15,12.15m-32.12.26L124.22,48m7.56-7.57c1.31-1.3,12.4-12.4,12.4-12.4M128,109.21V72.43l6-6m-.67,48-5.3-5.29-5.29,5.29,5.29,5.3ZM105.08,44.21A22.92,22.92,0,1,1,128,67.13,22.95,22.95,0,0,1,105.08,44.21Zm76.69,86.28V86.3L135.9,102.9V81.46a38.08,38.08,0,1,0-15.8,0v27.18L90,119.53v-28l-15.8,5.72v44.8l45.87-16.61v50l-45.87,16.6V250L90,244.25V203.13l42.51-15.39v0L166,175.62v41.1l15.8-5.71V153.1L135.9,169.7v-50L166,108.82v27.39Z"/><circle class="cls-2" cx="128" cy="44.26" r="5.49"/></svg>