<svg id="Warstwa_1" data-name="Warstwa 1" xmlns="http://www.w3.org/2000/svg" viewBox="0 0 256 256"><defs><style>.cls-1,.cls-2{stroke:#fff;stroke-width:3px;}.cls-1{stroke-miterlimit:10;}.cls-2{fill:none;}</style></defs><circle class="cls-1" cx="127.88" cy="128.15" r="98.69"/><path class="cls-2" d="M117.78,115.33l16.85-16.85V65.9m-6.75,131.64V152.72l31.06-31.06m-4.51,70.6V150.84L171.28,134m5.66,43.21H101.33M192,101.6c-2.85.21-37.55,0-37.55,0M192,154.7l-45.2-45.2m7.65-45.45L143.8,74.68M127.88,58.77l34.75,34.75M63.77,154.7,110.47,108m-52,20.14h42.84v64.11M63.77,101.6l14.9,14.84m98.27-37.35s-95.16,96.14-98.12,98.12V79.09m22.51-15V98.87l28.1,28.1M127.88,44.5l-7.14,7.13,7.14,7.14L135,51.63Zm-32,6.37L92,60.19l9.32,3.86,3.86-9.32ZM68.73,69V79.09H78.82V69ZM50.6,96.14l3.86,9.32,9.31-3.86-3.85-9.32Zm-6.37,32,7.13,7.14,7.13-7.14L51.36,121Zm6.37,32L59.92,164l3.85-9.33-9.31-3.86ZM68.73,187.3H78.82V177.21H68.73Zm27.14,18.14,9.32-3.87-3.86-9.31L92,196.12Zm32,6.36,7.14-7.13-7.14-7.13-7.14,7.13Zm32-6.36,3.86-9.32-9.32-3.86-3.86,9.31ZM187,187.3V177.21H176.94V187.3Zm18.13-27.14-3.86-9.32L192,154.7l3.86,9.33Zm6.37-32L204.4,121l-7.13,7.13,7.13,7.14Zm-6.37-32-9.32-3.86L192,101.6l9.32,3.86ZM187,69H176.94V79.09H187ZM159.89,50.87l-9.32,3.86,3.86,9.32,9.32-3.86Zm-32-6.37-7.14,7.13,7.14,7.14L135,51.63Z"/></svg>