<svg id="Warstwa_1" data-name="Warstwa 1" xmlns="http://www.w3.org/2000/svg" viewBox="0 0 256 256"><defs><style>.cls-1,.cls-2{stroke:#fff;stroke-width:3px;}.cls-1{stroke-miterlimit:10;}.cls-2{fill:none;}</style></defs><path class="cls-1" d="M185.67,70.34V14.16H70.33V70.34H14.16V185.66H70.33v56.18H185.67V185.66h56.17V70.34Z"/><path class="cls-2" d="M106.41,241.84V228.93l21.66-21.66M84.82,175.73,73,163.88H39.49m88.59-31.23v24.77L112,173.49,92.91,192.57v9L70.56,223.92M83,144.5V125.11L62.43,104.54m-11,28.07-19.6,19.6H14.34m28.19-40.66-14-14H14.34m96.67,14v-41l-6.32-6.32v-50M70.53,96.44,55,112H14.34M149.57,241.84V228.93L127.9,207.27m43.25-31.54L183,163.88h33.48m-31.07,60-22.35-22.35v-9L144,173.49l-16-16m45-13V125.11l20.57-20.57m11,28.07,19.6,19.6h17.44m-28.19-40.66,14-14h14.15m-96.66,14v-41l6.31-6.32v-50m34.17,82.28L201,112h40.6M149.57,241.84V228.93L127.9,207.27m43.25-31.54L183,163.88h33.48M144,173.49l19.09,19.08v9l22.35,22.35M173,144.5V125.11l20.57-20.57m11,28.07,19.6,19.6h17.44m-28.19-40.66,14-14h14.15m-96.66,14v-41l6.31-6.32v-50m34.17,82.28L201,112h40.6M69.93,185.69h5l14.25-14.25m96.27,14.22h-4.36l-14.25-14.25M133,127.7l-5-4.94-4.94,4.94,4.94,5Zm51.81,5h57.23m-.43-62.31H185.45V14.16H70.12V70.34H13.94V185.66H70.12v56.18H185.45V185.66h56.18Zm-30.24.16-72.74,72.73M44.75,70.5l72.7,72.69m62,40.83-51.36-51.37M75.23,185.41l52.51-52.51M168.22,14.16V88.3l-37.3,37.3M87.85,14.16V88.3l37.34,37.34m2.84-2.88V14.16m0,227.68V189.43m109.89-3.77-53.06-53M18.09,185.73l53.12-53.12M180.44,241.84,71.24,132.65h-57M75.63,241.84l109.2-109.19H233"/></svg>