<svg id="Warstwa_1" data-name="Warstwa 1" xmlns="http://www.w3.org/2000/svg" viewBox="0 0 256 256"><defs><style>.cls-1,.cls-2{stroke:#fff;}.cls-1{stroke-miterlimit:10;stroke-width:3px;}.cls-2{fill:none;stroke-linejoin:round;stroke-width:2px;}</style></defs><path class="cls-1" d="M128.16,247.9v-.26M147,216h-.3M128.16,247.9v-.26M94,23.63l0,0M71.43,13.53l0-.06a93.6,93.6,0,0,0-9.25-2.8c-14.88-3.62-24.93-3.26-31,.09v0"/><path class="cls-1" d="M71.43,13.53l0-.06A174.09,174.09,0,0,1,94,23.63c7.54,4,14.72,8.26,20.84,12.15l1.33.85h23.67c.44-.28.88-.57,1.33-.84,6.12-3.9,13.29-8.18,20.82-12.16a174.33,174.33,0,0,1,22.57-10.16,93.28,93.28,0,0,1,9.23-2.8c14.89-3.62,25-3.26,31,.09a13.46,13.46,0,0,1,1.75,1.13c11.06,8.42,11.95,25.17,12.08,27.7,0,.76.17,3.94-.05,8.59a54.13,54.13,0,0,1-6.43,21.06C225,81.8,210.46,93.86,180.66,93.1a59.66,59.66,0,0,0,17.48-10.9l1-1c15.48-14.91,17.61-39.16,11.16-45-1.52-1.38-5.5-1.27-10.34-.1-7.55,1.84-16.48,5.78-25.3,10.42-7.31,3.86-14.53,8.19-20.79,12.18-4.57,2.93-8.63,5.68-11.84,7.93l6.26,6.67-.41.43L141.1,81V208.78l5.59,7.18-18.53,31.68-.16.26L109.31,216l5.58-7.18V81l-7.22-7.69,6.26-6.67c-3.22-2.25-7.27-5-11.83-7.93-6.27-4-13.49-8.33-20.8-12.18C72.48,41.91,63.55,38,56,36.13c-4.83-1.17-8.81-1.28-10.34.1-6.45,5.84-4.32,30.11,11.17,45,.33.33.67.65,1,1A59.56,59.56,0,0,0,75.35,93.1C45.54,93.86,31,81.8,23.89,69.24a54,54,0,0,1-6.41-21.06,81.44,81.44,0,0,1-.05-8.59c.12-2.53,1-19.28,12.06-27.7a15,15,0,0,1,1.75-1.13v0"/><path class="cls-2" d="M238.57,39.6c-.12-2.54-1-19.28-12.07-27.71-5.73-4.36-16.28-5.22-32.7-1.22-17.92,4.37-39.26,16.54-54,26H116.17c-14.71-9.42-36-21.59-54-26-16.43-4-27-3.14-32.71,1.22C18.44,20.32,17.55,37.06,17.43,39.6c0,.75-.18,3.94.05,8.58C18.79,61.88,27,94.35,75.35,93.11A59.62,59.62,0,0,1,57.86,82.2c-16.42-14.8-18.79-40-12.2-46,1.53-1.38,5.5-1.28,10.34-.11,18.37,4.48,45,21.44,57.93,30.54l-6.25,6.66L114.89,81V208.79L109.31,216,128,247.9,146.7,216l-5.59-7.18V81l6.8-7.27.41-.43-6.25-6.66C155,57.57,181.63,40.61,200,36.13c4.84-1.17,8.81-1.27,10.34.11,6.59,6,4.22,31.16-12.2,46a59.5,59.5,0,0,1-17.49,10.91c48.33,1.24,56.56-31.23,57.87-44.93C238.75,43.54,238.61,40.35,238.57,39.6ZM78.59,24v5M31.65,51.21l-2.23,2.23-2.24-2.23M57.46,20.12l-2.23-2.23,2.23-2.23m45.73,23.2L101,36.63l2.23-2.24m18.94,16.82V46.16m-96.76-18,7.1,7.09h10M29.29,45.27,39.36,35.2h10M31.26,10.79l7.1,7.1h10M35.18,28,45.25,17.89h10M42.56,67.65V78.12L37,83.64m-7.62-30.4V63.72L23.9,69.24M47.71,84.78h5.57l3.55-3.54m-21.44-12V60.52l7.28-7.28m28.75-39.7L61.35,23.61h-10m7.17,13L68.61,26.56h10M94,23.6,84,33.67H74m7.17,13L91.23,36.62h10M115,35.67,104.89,45.74h-10m7.17,13,10.07-10.07h10M128,36.63V50.87l-7.06,7.06M177.41,24v5m46.94,22.13,2.23,2.23,2.24-2.23M198.53,20.12l2.24-2.23-2.24-2.23m-45.72,23.2L155,36.63l-2.23-2.24M133.87,51.21V46.16m96.76-18-7.1,7.09h-10m13.16,10.07L216.64,35.2h-10m18.08-24.41-7.1,7.1h-10M220.82,28,210.75,17.89h-10m12.67,49.76V78.12L219,83.64m7.62-30.4V63.72l5.52,5.52M208.29,84.78h-5.57l-3.55-3.54m21.44-12V60.52l-7.28-7.28m-28.75-39.7,10.07,10.07h10m-7.17,13L187.39,26.56h-10M162,23.6,172,33.67h10m-7.17,13L164.77,36.62h-10M141,35.67l10.07,10.07h10m-7.17,13L143.85,48.69h-10M128,36.63V50.87l7.06,7.06m83,11.31h5M128,78.59v8.93l-6.06,6.06v23.77M147,216h-8.16l-10.68,10.68V247.9M109.31,216h8.16l10.68,10.68V247.9M134,167.14V181m-3.36,25.21L128,203.58l-6.12-6.11v-5.62l-7-6.95m10.45,21.26,2.58-2.58,6.11-6.11v-5.62l7-6.95m-8.87-2.16,3.57-3.57m-13.92,3.57,3.57-3.57m6-12h5M130.24,132h5m-14.18,11.48h5M131,96.23l3.57-3.57M128,214l5.21-5.2L128,203.58l-5.21,5.21Zm0-135.4,5.21-5.21L128,68.17l-5.21,5.21Zm-13.18,46.09,18-18V94.44m-18,67.75,18-17.94V132m8.81,18.76-18,17.94V181m18-67.75-18,17.94v12.3"/></svg>