<svg id="Warstwa_1" data-name="Warstwa 1" xmlns="http://www.w3.org/2000/svg" viewBox="0 0 256 256"><defs><style>.cls-1{fill:none;stroke:#fff;stroke-width:3px;}</style></defs><polygon points="142.31 144.52 135.88 153.1 135.87 153.1 135.87 169.68 119.97 169.68 119.97 153.09 113.54 144.52 119.97 135.95 119.97 20.61 135.87 20.61 135.87 135.95 142.31 144.52"/><polygon points="142.31 184.15 113.54 184.15 119.89 172.5 135.95 172.5 139 178.09 139.01 178.09 142.31 184.15"/><polygon points="184.21 186.97 184.21 249.86 166.31 249.86 166.31 240.57 157.02 249.86 98.83 249.86 89.54 240.57 89.54 249.86 71.64 249.86 71.64 231.99 71.73 231.99 71.73 230.55 71.64 230.55 71.64 186.97 89.54 186.97 89.54 196.26 98.58 187.22 98.83 186.97 157.02 186.97 166.31 196.26 166.31 186.97 184.21 186.97"/><polygon points="142.31 6.14 135.95 17.8 119.9 17.8 113.54 6.14 142.31 6.14"/><path class="cls-1" d="M138.57,178.32h-10.7m0-157.71V33.72M122.5,6.14l5.15,5.14v6.51m.27,64.63-7.83,7.83m15.78-64.48-16,16m16-4-8,7.94V139m0,48v15m0-29.42v11.65m0-34.59v20.12m-5.29,37.53h-7.86m18.45,0-5.3-5.29-5.29,5.29,5.29,5.3Zm0-62.94-5.3-5.29-5.29,5.29,5.29,5.29Zm9.09,42.95v8.36l5.08,5.09v6.54M136,172.5h-16l-6.36,11.65h28.77Zm-16-2.82h15.89V153.09h0l6.43-8.57-6.44-8.58V20.61H120V135.94l-6.44,8.58,6.44,8.57Zm16-151.89,6.37-11.65H113.54l6.36,11.65ZM166.31,187v9.3L157,187H98.83l-9.3,9.3V187H71.64v62.9H89.53v-9.29l9.3,9.29H157l9.29-9.29v9.29H184.2V187Zm18,41-20.72-20.72H133.22m26.62,16.87H101.18M138.57,216v15.46l18.29,18.29M98.58,187.22l16.26,16.25V232m-43.11-44.9,29.45,29.44V232m5.53-36.4-35,35m43.71,19.25c1.21-1.4,6.81-6.81,6.81-6.81V232m-50.61,0H126l17.82,17.81m40.53-1.19L151.75,216H121l-6.26-6.26"/></svg>