<svg id="Warstwa_1" data-name="Warstwa 1" xmlns="http://www.w3.org/2000/svg" viewBox="0 0 256 256"><defs><style>.cls-1,.cls-2{stroke:#fff;stroke-miterlimit:10;stroke-width:3px;}.cls-2{fill:none;}</style></defs><path class="cls-1" d="M224.4,165l0,0m12.59,7.7,0,0M233,181.23h0M228.05,190h0m-5.56,8.19h0M36.59,202.07h0m12.81-7.35-.09.05m-31.74-26-.1,0M206,39.7l-.1.1m-58.6-27.92v-.11m-9.12-1v-.2M118,10.72v-.19m0,14.77v-.06m-9.12-13.39v-.08m37.67,163.36,0-.09m69.62-15.31-.11-.08m-36.51-36.71h0M21.09,177.22h0M123.69,130l-.11.06m23.67-93.23v-.18m-38.38.06v-.06M95.67,85.28l-.08-.09"/><path class="cls-1" d="M244,107.93h0a118,118,0,0,0-96.74-96.05c-3-.52-6.05-.9-9.12-1.15q-5-.44-10.13-.44c-3.37,0-6.71.15-10,.43-3.07.25-6.12.63-9.12,1.13A117.73,117.73,0,0,0,17.56,168.74q1.59,4.32,3.53,8.48,2.13,4.62,4.65,9c1.65,2.91,3.44,5.74,5.34,8.49q2.61,3.78,5.51,7.35a117.68,117.68,0,0,0,125.24,38.69v0a118,118,0,0,0,54.88-35.45c2-2.31,3.94-4.69,5.76-7.14q3-4,5.57-8.19t4.93-8.74c1.42-2.78,2.74-5.65,3.94-8.57A118,118,0,0,0,244,107.93ZM224.4,165c-1.12,2.9-2.36,5.75-3.74,8.51q-2.22,4.52-4.86,8.77c-1.75,2.82-3.63,5.56-5.64,8.19q-2.79,3.66-5.89,7.07A103.08,103.08,0,0,1,128,231.25a102.42,102.42,0,0,1-34.53-6A103.5,103.5,0,0,1,49.3,194.77c-2-2.35-3.88-4.78-5.65-7.29a102.42,102.42,0,0,1-10-17.5c-1.26-2.79-2.4-5.65-3.38-8.56A103.33,103.33,0,0,1,108.87,26.54c3-.57,6-1,9.12-1.3,3.3-.32,6.63-.49,10-.49s6.8.17,10.13.5c3.07.3,6.12.73,9.1,1.31A103.27,103.27,0,0,1,224.4,165Z"/><path class="cls-1" d="M221.44,128.37a93.68,93.68,0,0,1-9,39.95,97.59,97.59,0,0,1-4.81,8.83h0a92.87,92.87,0,0,1-5.68,8.21c-1.89,2.45-3.91,4.8-6,7a94,94,0,0,1-7.29,7l-3.12-1.8-13.28-7.66L146.52,175l-14.2-8.2V130.08L162,112.88,179.48,123l22.72,13.11,11.47-45A93.1,93.1,0,0,1,221.44,128.37Z"/><path class="cls-1" d="M107.56,176.09,83,190.27,114.53,221a93.38,93.38,0,0,1-57.07-30.93q-3-3.47-5.73-7.21a89.93,89.93,0,0,1-5.4-8.47h0a91.37,91.37,0,0,1-4.5-9.09,89.11,89.11,0,0,1-3.24-8.67A93.14,93.14,0,0,1,36,146.31l2.14-1.24,13.28-7.66,27.63-16,14.92-8.62L123.58,130l.11.06v36.7Z"/><path class="cls-1" d="M157.27,39.5v66.18L128,122.61,95.67,103.9V60l-42.5,12a93.62,93.62,0,0,1,55.7-35.23q3.34-.7,6.78-1.14c.76-.1,1.52-.18,2.29-.27h0a94.46,94.46,0,0,1,9.86-.52H128a92,92,0,0,1,10.16.58c3.09.34,6.11.84,9.09,1.47A93,93,0,0,1,157.27,39.5Z"/><path class="cls-2" d="M236.94,172.68,224.36,165M233,181.23l-12.27-7.71M228.05,190l-12.25-7.68m6.68,15.86-12.33-7.67m-5.82,7.12,12.38,7.7m13.18-94.07L244,107.93M158.53,226.64l3.29,14.12m-149-137.18,14,3.78M93.46,225.3l-3.94,13.95M49.38,194.72l-12.8,7.35m6.91-14.48-12.42,7.13M38.27,179l-12.54,7.2m4.57-24.82-12.83,7.37M60.35,50,50.16,39.78M195.68,50,205.94,39.7M147.25,26.53V11.77m-9.12,13.48V10.54M128,24.75V10.54M118,25.31V10.54m-9.12,16V11.77M212,132.73l1.31,5.64-9,14.45M166,173.74l12.56-2.92L202,185.37m-15.67-44.22,2.92,12.57,23.24,14.6M155.27,144.4l15,9.33,37.36,23.42m-55.57-31.93,5.4,23.21,38.37,23.87m-47.66-46.17-6.1,9.8,4.47,19.19m8-33.87,23.21-5.41,38.39,23.89m-62.5-22.37,6.09-9.8,19.81-4.62m-47,7.32,14,8.74m1.64,7,7.05-1.63-1.64-7-7,1.63Zm-64.3,52.78-5.59-1.51-8.48-14.76m-48.77-5.31L33.68,170m8.15-4.68,24.36-14,3.37-12.45m19.11,33.28-12.45-3.36-24.33,14m48.6-39.46-15.32,8.8L46.31,174.42m55-34.34-23-6.21L38.58,156.66m63.74-20.44-5.75-10L79,121.46m24.61,22.68-6.22,23L57.45,190.09m50-44.9,5.74,10-5.64,20.89M123.69,130l-14.34,8.24m-7-1.88-1.89,7,7,1.89,1.89-7ZM88.12,53.84l4.09-4.1h17m38,21.49-9.12-9.12V35.69M108.87,71.23,118,62.11V35.69m10,60.16V34.75m2.4,63.39,16.85-16.85V36.61m-14,64.35h11.54l12.49-12.49m-31.54,9.67L108.87,81.29V36.61m14,64.35H111.35L95.58,85.2M128,122.62V106.08m5.1-5.12L128,95.85,122.89,101l5.11,5.12ZM51.37,137.41l-13.28,7.66-2.15,1.24A93.65,93.65,0,0,0,114.52,221L83,190.27l40.69-23.49V130.07L93.93,112.85Zm162.3-46.32-11.47,45L162,112.88l-29.72,17.2v36.77l39.93,23.05,13.28,7.66,3.12,1.8a93.25,93.25,0,0,0,25-108.27ZM157.26,59V39.5A93.58,93.58,0,0,0,53.17,71.9l42.5-12v44L128,122.62l29.25-16.94ZM128,231.25A103.25,103.25,0,1,1,231.25,128,103.37,103.37,0,0,1,128,231.25Zm0-221A117.71,117.71,0,1,0,245.71,128,117.85,117.85,0,0,0,128,10.29Z"/></svg>