<svg id="Warstwa_1" data-name="Warstwa 1" xmlns="http://www.w3.org/2000/svg" viewBox="0 0 256 256"><defs><style>.cls-1,.cls-2{stroke:#fff;}.cls-1{stroke-width:3.46px;}.cls-2{fill:none;stroke-width:2.31px;}</style></defs><path class="cls-1" d="M57.25,188.36l-19.36.2-15.08.16,7.6-12.83,9.91-16.76a92.33,92.33,0,0,0,16.93,29.23Z"/><path class="cls-1" d="M96.88,215.66l-16.41,9.7-13.2,7.81.38-34.42a93,93,0,0,0,29.23,16.91Z"/><path class="cls-1" d="M144.88,219.46l-16.88,30-16.9-30A94.18,94.18,0,0,0,128,221h.09A93.7,93.7,0,0,0,144.88,219.46Z"/><path class="cls-1" d="M188.72,233.17,176,225.63l-16.83-10a92.37,92.37,0,0,0,15.42-7.14,93.59,93.59,0,0,0,13.79-9.77l.21,19.53Z"/><path class="cls-1" d="M219.47,144.89a92.8,92.8,0,0,0,0-33.78l30,16.88Z"/><path class="cls-1" d="M233.17,67.27l-7.56,12.79-9.94,16.81a92.25,92.25,0,0,0-7.12-15.38,93.58,93.58,0,0,0-9.8-13.85l19.58-.21Z"/><path class="cls-1" d="M188.72,22.82l-.37,34.43a93.78,93.78,0,0,0-13.76-9.76l-.37-.21a91.52,91.52,0,0,0-15.1-7l16.56-9.8Z"/><path class="cls-1" d="M144.88,36.54A93.7,93.7,0,0,0,128.09,35H128a94.18,94.18,0,0,0-16.9,1.57l16.9-30Z"/><path class="cls-1" d="M96.88,40.33a90.44,90.44,0,0,0-15.42,7.14,92.57,92.57,0,0,0-13.81,9.78l-.22-19.42-.16-15,12.87,7.61Z"/><path class="cls-1" d="M57.25,67.64A92.81,92.81,0,0,0,40.32,96.87L30.55,80.36,22.81,67.27Z"/><path class="cls-1" d="M35,128a94.09,94.09,0,0,0,1.55,16.9L6.55,128l30-16.9A94,94,0,0,0,35,128Z"/><path class="cls-1" d="M209.21,112.44a82.65,82.65,0,1,0-127.1,84.3A81.13,81.13,0,0,0,97,204.64a82.67,82.67,0,0,0,112.22-92.2Z"/><path class="cls-1" d="M97,51.36l0,0m62.17,0-.05.06m30.69,21.69h0M82,59.35l0,0m77.21,145.37-.06-.06m-62.09,0,0,0m77.19-8-.07-.07m-92.55-149-.07-.12m-14-9.64-.16,0m108.41-7.25-.11-.46M81.94,208.75l0,0m-1.3,17.11-.15-.54M47.64,174.51l-.16.09M218.38,67.27l0,.16m7.61,12.72-.33-.09M47.29,81.79h0M30.55,80.36l-.41.11"/><path class="cls-1" d="M233.17,188.72l-34.42-.36a92.91,92.91,0,0,0,16.92-29.23l9.73,16.44Z"/><path class="cls-2" d="M67.27,233.17l29.6-17.51a92.34,92.34,0,0,1-29.22-16.91ZM22.82,188.72l34.43-.36a93,93,0,0,1-16.92-29.23Zm175.93-.36,34.42.36-17.5-29.6A93,93,0,0,1,198.75,188.36Zm-39.62,27.3,29.59,17.51-.36-34.42A92.5,92.5,0,0,1,159.13,215.66ZM35,128a93.08,93.08,0,0,1,1.57-16.89L6.56,128l30,16.89A93.08,93.08,0,0,1,35,128Zm76.14,91.46,16.89,30,16.88-30a92.16,92.16,0,0,1-33.77,0ZM233.17,67.27l-34.42.37a93,93,0,0,1,16.92,29.23ZM249.44,128l-30-16.89a92.8,92.8,0,0,1,0,33.78ZM57.25,67.64l-34.43-.37,17.51,29.6A93,93,0,0,1,57.25,67.64ZM96.87,40.33,67.27,22.82l.38,34.43A92.56,92.56,0,0,1,96.87,40.33Zm48-3.79L128,6.55l-16.89,30a91.58,91.58,0,0,1,33.77,0Zm43.84-13.72-29.6,17.51a92.66,92.66,0,0,1,29.24,16.92ZM128,45.31A82.69,82.69,0,1,0,210.69,128,82.78,82.78,0,0,0,128,45.31Z"/><path class="cls-2" d="M128,91C99.26,91,74.67,108.5,64,124.8l-1.79,2.72-.31.48.31.47L64,131.19C74.67,147.49,99.26,165,128,165s53.33-17.54,64-33.84l1.78-2.72.32-.47-.32-.48L192,124.8C181.32,108.5,156.74,91,128,91m0,.87c28.41,0,52.72,17.34,63.28,33.45l1.78,2.72-1.78,2.71c-10.56,16.11-34.86,33.45-63.28,33.45s-52.73-17.34-63.29-33.45L62.93,128l1.78-2.72C75.28,109.17,99.59,91.83,128,91.83"/><path class="cls-2" d="M128,146.57A18.58,18.58,0,1,1,146.57,128,18.59,18.59,0,0,1,128,146.57m0-45.7c-24.76,0-44.44,14.33-53.77,26.6l-.4.53.4.52c9.32,12.27,29,26.59,53.77,26.59s44.44-14.32,53.76-26.59l.4-.52-.4-.53c-9.32-12.27-29-26.6-53.76-26.6m0,46.57A19.45,19.45,0,1,0,108.55,128,19.45,19.45,0,0,0,128,147.44m0-45.7c23.14,0,43.1,13.14,53.07,26.26-10,13.11-29.93,26.25-53.07,26.25S84.89,141.11,74.92,128c10-13.12,29.94-26.26,53.08-26.26"/><path class="cls-2" d="M128,123a5,5,0,1,0,5,5,5,5,0,0,0-5-5m0,.87a4.11,4.11,0,1,1-4.11,4.11,4.11,4.11,0,0,1,4.11-4.11"/><path class="cls-2" d="M128,146.57A18.58,18.58,0,1,1,146.57,128,18.59,18.59,0,0,1,128,146.57m0-45.7c-24.76,0-44.44,14.33-53.77,26.6l-.4.53.4.52c9.32,12.27,29,26.59,53.77,26.59s44.44-14.32,53.76-26.59l.4-.52-.4-.53c-9.32-12.27-29-26.6-53.76-26.6m0,46.57A19.45,19.45,0,1,0,108.55,128,19.45,19.45,0,0,0,128,147.44m0-45.7c23.14,0,43.1,13.14,53.07,26.26-10,13.11-29.93,26.25-53.07,26.25S84.89,141.11,74.92,128c10-13.12,29.94-26.26,53.08-26.26"/><path class="cls-2" d="M128,123a5,5,0,1,0,5,5,5,5,0,0,0-5-5m0,.87a4.11,4.11,0,1,1-4.11,4.11,4.11,4.11,0,0,1,4.11-4.11"/><path class="cls-2" d="M208.8,174.1l7.11,4.06,10-2.74M47.29,81.79l-7.11-4.06-10,2.74m185.53-3.08L226,80.14m-17.37,1.34,7.09-4.09,2.71-10.12M40.56,178.61l-10.15-2.72m17.24-1.37-7.09,4.09-2.67,9.95m44.05,20.19-4.06,7.11,2.74,10M174.25,47.24l4.06-7.11-2.74-10m3.08,185.53-2.68,10m-1.41-17.1,4.09,7.09,9.91,2.66M77.43,40.51l2.71-10.08M81.52,47.6l-4.09-7.09L67.27,37.78m83.29,98.83L170.17,117m-65,2.53L85.6,139.14m95.47-11H169.38l-8.47,8.46h-16m-70-8.59h11.7l8.46-8.47h15.81M130.31,229.2h-4.43m2.21-8.19v8.19M125.88,26.8h4.43M128.09,35V26.8m101.2,99v4.43M221.11,128h8.18m-202.4,2.21v-4.43M35.08,128H26.89m78.62,42.29H93.59l-9.81,9.82m-27.3-27.3H70.74l10.85,10.85H98.87M62.8,127.87,47.17,143.5,86.62,183m64-12.66H162.6l9.81,9.82m27.3-27.3H185.45L174.6,163.66H157.31m36.08-35.79L209,143.5,169.57,183M45.4,128H63m38.14,55-5.72,5.72h-5.3l-8,8m73-13.7,5.72,5.72h5.29l8,8m15.46-13.75H147.23l-9.13-9.13m-71.78,9.13H108.7l9.13-9.13m12.84,7.09,7.44-7.45h9.42l20-20m-42.11,27.46L118,173.44h-9.41L87.93,152.81m37.5,32.81L118,193.07h-9.41L97,204.67m33.71-19,7.44,7.45h9.42l11.61,11.6m-8.58-119h11.93l9.81-9.82m27.3,27.31H185.34L174.49,92.35H157.2m36.08,35.78,15.63-15.63L169.46,73.05M105.41,85.71H93.48l-9.81-9.82M56.37,103.2H70.63L81.48,92.35H98.77M62.69,128.13,47.06,112.5,86.51,73.05m124.17,55H193.06M154.92,73l5.72-5.72h5.3l8-8m-73,13.7L95.21,67.3H89.92l-8-8M66.47,73.07h42.38L118,82.2m71.78-9.13H147.38l-9.13,9.13m-12.84-7.09L118,82.56h-9.42l-20,20m42.11-27.46,7.45,7.45h9.41l20.63,20.64M130.65,70.38l7.45-7.45h9.41l11.61-11.6m-33.71,19L118,62.93h-9.42L96.94,51.33M128,188.19l5.27-5.28L128,177.64l-5.28,5.27Zm0-109.85,5.27-5.27L128,67.8l-5.28,5.27ZM62.93,128H45.31"/></svg>