<svg id="Warstwa_1" data-name="Warstwa 1" xmlns="http://www.w3.org/2000/svg" viewBox="0 0 256 256"><defs><style>.cls-1{fill:none;stroke:#fff;stroke-width:3.39px;}</style></defs><path d="M128,198.22h0m0,0h0m10.84,50.2v-.48m10.83.48v-.48m56.19-167-.44.45m.06,13.72-.06.06m-88.08,153.3v-.48m-10.84.48v-.48M50.61,81.37l-.48-.48m141.41,75.67h-.06m-21.84,6.65-.11.12m-105-6.77h-.06m22,6.77-.13-.12M50.61,95.15l-.09-.09"/><polygon points="172.27 216.28 157.45 247.94 98.54 247.94 82.77 216.55 172.27 216.28"/><path d="M128,195.22h26V161.41l15.62,1.8,14.17,1.64,7.67-8.29L205,141.94l-6.07-11.22,11.61-3-5.16-10.88V50.6s-2.8-9.47-12.48-19.51a68.59,68.59,0,0,0-15.1-11.71c-11.49-6.62-27.46-11.69-49.48-11.79h-.67c-22,.1-38,5.17-49.49,11.8A68.28,68.28,0,0,0,63.08,31.1c-9.67,10-12.47,19.5-12.47,19.5v66.28l-5.16,10.88,11.59,3L51,141.94l13.54,14.62,7.67,8.29,14.16-1.64,15.63-1.8v33.81h26"/><polyline points="127.97 195.22 154.01 195.22 171.2 215.54 84.78 215.54 101.97 195.22 127.97 195.22"/><path class="cls-1" d="M183.29,84.62l-19.65,19.64H154.4L128,130.72m55.34-46.1,5.22-5.22-5.22-5.22-5.22,5.22Zm0,0,5.22-5.22-5.22-5.22-5.22,5.22Zm-110.61,0L77.9,79.4l-5.22-5.22L67.46,79.4Zm0,0,19.65,19.64h9.24L128,130.72m7.59-91.79,5.87,5.86,18.86-18.86M134,40.59l3.42-3.42m-16.54,1.76L115,44.79,96.11,25.93M122.5,40.59l-3.42-3.42M128,73.29l5.22-5.22L128,62.85l-5.22,5.22Zm15.75,68.54,39.44-9.07S169.72,156.34,143.75,141.83Zm-10,30.43L128,164l-5.78,8.31-2.78-10.81L128,146.17l8.56,15.28Zm-61-39.39,39.42,9C86.23,156.42,72.81,132.87,72.81,132.87Zm137.74-5.11-5.16-10.88V50.61s-12.67-42.71-77-43v0h2.2l-2.88,0c-64.38.3-77,43-77,43v66.27l-5.16,10.88,11.6,3L51,141.94l21.2,22.91L102,161.41v33.81H154V161.41l29.8,3.44L205,141.94,199,130.72ZM82.77,216.55l15.76,31.39h58.93l15.83-31.39m-40.95-21.33H102L84.78,215.55h86.43L154,195.22ZM128,27.87l5.22-5.22L128,17.44l-5.22,5.21Zm10.81,220.55L138.73,231l-5.25-5.25v-9.43m16.16,32.14L149.57,231l-5.25-5.25v-9.16M128,198.23v4.92l5.25,5.25v7.15m5.8-20.33v7.93l5.24,5.25v7.15M130.54,25.31l8.31,8.31,7.57-7.56h24.7M128,137.91v1.49l4.74,4.82,24.92-24.92h9.8l38.41-38.4M148.69,179,139,188.65v6.57m21.12-48.61L143.05,163.7l-.06,9.93-15,15v6.57m5.23-39.73h9.48l10-10m10.39-8,42.37-42.38m-42.37-8-3.43-3.42m1.84,1.84L171,75.93V62.85L197.17,36.7M128,105l32.6-32.6V63.43l32.27-32.27m-15.13-11.6L151.57,45.69V71L128,94.59V134m-10.66,114.4L117.24,231l5.25-5.25v-10m-16,32.74L106.4,231l5.25-5.25.06-10.16M128,195.22l0,7.93-5.25,5.25v7.15M117,195.22v7.93l-5.25,5.25v7.15M125.44,25.31l-8.32,8.31-7.56-7.56H84.85M128,137.91v1.49l-4.74,4.82L98.34,119.3h-9.8L50.14,80.9m130,75.66h11.46m-5.46-11.84,2.92,2.93-8.92,8.91H176.3l-6.77,6.77M75.9,156.56H64.45m5.46-11.84L67,147.65l8.91,8.91h3.8l6.77,6.77M107.28,179l9.68,9.67v6.57M95.83,146.61l17.1,17.09,0,9.93,15,15v6.57m-5.23-39.73h-9.48l-10-10m-10.38-8L50.52,95.07m42.38-8c.34-.35,3.42-3.42,3.42-3.42m-1.84,1.84L85,75.93V62.85L58.8,36.7M128,105,95.4,72.38V63.43L63.14,31.16m15.12-11.6L104.4,45.69V71L128,94.59V134"/></svg>