<svg id="Warstwa_1" data-name="Warstwa 1" xmlns="http://www.w3.org/2000/svg" viewBox="0 0 256 256"><defs><style>.cls-1,.cls-2{stroke:#fff;stroke-width:3px;}.cls-1{stroke-miterlimit:10;}.cls-2{fill:none;}</style></defs><polygon class="cls-1" points="245.78 199.95 246.1 200.27 200.27 246.09 200.02 245.83 165.99 211.81 143.45 189.26 128.01 173.82 55.73 246.1 9.91 200.27 10.11 200.08 82.18 127.99 47.28 93.09 9.9 55.73 15.2 50.43 21.92 43.71 55.73 9.9 76.62 30.8 92.31 46.48 128.01 82.18 156.1 54.08 182.82 27.37 200.27 9.9 236.06 45.7 246.1 55.73 209.55 92.27 173.83 127.99 245.78 199.95"/><path class="cls-2" d="M108.58,181.41V171l9.39-9.39V138.21m47.49-61.56V63.44l-9.36-9.36M64.67,205.15v9.34l-12,12m39.66-180V86l-16,16m-40,103.24V184.48l53.82-53.82m17.17-28.41L90,120v20.38M52.57,87.8,15.2,50.44m56.32,26.2h-7.8L47.27,93.09m3.58-47.37V30.82H76.6M50.85,56V72.65L21.92,43.72M194,76.65V88.83l6.07-6.07,9.5,9.51m-4.4-46.55V33.81l-6.45-6.44H182.82m1.71,49.22h20.64L236.06,45.7m9.49,154.48H229.07l-5,5H209.74M200,246.09V229.61l5-5V210.28M10.2,200.18H26.68l5,5H46m9.72,40.94V229.61l-5-5V210.28m39.45-10.5,44.49-44.49m61,14.67v19L179.45,205.2m-77.23-46.28v16.46L90,187.58v24.23m53.43-22.55V164L128,148.6V133.13m25.78,25.79v16.46l12.2,12.2v24.23m13.41-27.28v20.62H200m-41.1-51.35h20.49v20.48m-48.94-43.63,20.67,20.67M76.6,184.53v20.62H56m41.1-51.35H76.6v20.48m48.93-43.63-20.67,20.67M81.72,76.59h20.49l103,103V200M76.6,71.47V50.85H56m41.1,51.35H76.6V81.72m48.93,43.63-20.67-20.67m69.42-28.09H153.8l-103,103V200M179.4,71.47V50.85H200m-41.1,51.35h20.49V81.72m-48.94,43.63,20.67-20.67L167.45,121l-4.82,4.82,37.82,37.81v10.62m-98.19-66.85,5.12-5.13-5.12-5.12-5.13,5.12ZM76.65,81.77l5.12-5.13-5.12-5.12-5.13,5.12ZM50.85,56,56,50.85l-5.13-5.13-5.13,5.13Zm154.3,154.3,5.13-5.13L205.15,200,200,205.15ZM179.4,184.53l5.13-5.12-5.13-5.13-5.12,5.13Zm-25.61-25.61,5.13-5.12-5.13-5.13-5.12,5.13Zm-46.41-5.17-5.13-5.13-5.12,5.13,5.12,5.12ZM81.77,179.36l-5.13-5.13-5.12,5.13,5.12,5.12ZM56,205.15,50.85,200l-5.13,5.13,5.13,5.13Zm154.3-154.3-5.13-5.13L200,50.85,205.15,56ZM184.53,76.59l-5.13-5.12-5.12,5.12,5.12,5.13ZM158.92,102.2l-5.13-5.12-5.12,5.12,5.12,5.13ZM133.13,128,128,122.87,122.87,128l5.13,5.13Zm-25.75,25.75-5.13-5.13-5.12,5.13,5.12,5.12ZM81.77,179.36l-5.13-5.13-5.12,5.13,5.12,5.12ZM56,205.15,50.85,200l-5.13,5.13,5.13,5.13Zm154.3-154.3-5.13-5.13L200,50.85,205.15,56ZM184.53,76.59l-5.13-5.12-5.12,5.12,5.12,5.13ZM158.92,102.2l-5.13-5.12-5.12,5.12,5.12,5.13ZM133.13,128,128,122.87,122.87,128l5.13,5.13Zm113-72.27L200.27,9.91,128,82.18,55.73,9.91,9.91,55.73,82.18,128,9.92,200.27l45.81,45.82L128,173.82l72.26,72.27,45.82-45.82L173.83,128Z"/></svg>