<svg id="Warstwa_1" data-name="Warstwa 1" xmlns="http://www.w3.org/2000/svg" viewBox="0 0 256 256"><defs><style>.cls-1,.cls-2{stroke:#fff;stroke-width:3px;}.cls-1{stroke-miterlimit:10;}.cls-2{fill:none;}</style></defs><polygon class="cls-1" points="248.68 151.37 184.43 151.37 229.86 196.81 224.45 202.22 196.92 229.75 196.8 229.87 151.37 184.43 151.37 248.68 104.61 248.68 104.61 184.43 96.61 192.44 59.19 229.87 32.38 203.06 26.13 196.81 71.57 151.37 7.32 151.37 7.32 104.63 71.57 104.63 26.13 59.19 37.79 47.55 59.19 26.14 91.34 58.29 104.61 71.57 104.61 7.32 151.37 7.32 151.37 71.57 173.59 49.35 196.8 26.14 216.6 45.94 229.86 59.19 208.28 80.77 194.35 94.72 184.42 104.63 248.68 104.63 248.68 151.37"/><path class="cls-2" d="M162.15,119.25l-8.1,8.1v17.84M112.3,116.05l-7.87,7.86v6.71L96,139.09m.66,53.47V176.93l5.68-5.68V159.7m36.21-46.07v26.68m0-37.16-5.24,5.24,5.24,5.24,5.24-5.24Zm78.1-57.09-8.33,8.33v26.5M29,151.5,40.49,140H73.43M37.79,47.67,50.56,60.44V84.37m80.07-52.6,7.53-7.53V7.44m-17.09,34-15.7-15.7L123.94,7.19M182.57,73.7V52.27H194.4V29.14m35,122.36,10.24-10.24V105.43m-98.2,143.38V204.67L118,181.25M32.37,203.17l26.24-26.24H79.48m145,25.41-27.63-27.63H174.15m-20.1-63.56-8,8v13.64l-17.33,17.33m10.2,10.2-21.47-21.46V121.25l-12.76-12.77m75.5,29.06,16.26-16.26H205l16.53-16.53M173.6,49.47v14L162.41,74.66V85.55M48.84,118.83l8.87,8.87H69l8,7.94m60.33,44.75,20.83-20.83V141.15M91.35,58.42V76.7l22.59,22.58m80.35-33.59V94.77m-68.84-57.7-9,9,25.34,25.34M61.71,65.69V78.22l23.43,23.43m.15,57.91h31.29m54.13-74H150.8v22.34M7.32,130.76H17.68l2.64-2.64H29M59.08,229.8V211.37l2.64-2.63V197.92m132.57.2v10.36l2.63,2.64V230m-74-8.33-10.6,10.6v16.55M65.42,58.42v-15l-11.7-11.7m52.92,118,21.44-21.43v-43m62.5-19.66L170.71,85.55v43m19.87,62.58-19.87-19.87v-43M65.42,191l19.87-19.86v-43M65.42,65.54,85.29,85.41v43m-46.2.12,23.22-23.1,89.08,89.09m65.22-66.41-22.8,22.8L104.73,61.83m23.39,154.89-22.8-22.8,89.08-89.08M128,39.62l22.8,22.8L61.72,151.5M128,29.14l-5.24,5.24L128,39.62l5.24-5.24Zm-70,29v7.42h7.41V58.13Zm-29,70,5.24,5.25,5.24-5.25-5.24-5.24Zm29,70h7.41v-7.41H58Zm70,29,5.24-5.24L128,216.63l-5.24,5.24Zm70-29V190.7h-7.41v7.41Zm29-70-5.24-5.24-5.24,5.24,5.24,5.25Zm-29-70h-7.41v7.41H198Zm-70-29-5.24,5.24L128,39.62l5.24-5.24Zm120.68,75.61H184.43l45.43-45.44-33.05-33L151.38,71.69V7.44H104.62V71.69L59.19,26.26l-33,33.05,45.43,45.44H7.32V151.5H71.57L26.14,196.93,59.19,230l45.43-45.44v64.26h46.76V184.56L196.81,230l33.05-33.06L184.43,151.5h64.25Z"/></svg>