<?xml version="1.0" encoding="utf-8"?>
<!-- Generator: Adobe Illustrator 18.1.0, SVG Export Plug-In . SVG Version: 6.00 Build 0)  -->
<svg version="1.1" id="Calque_1" xmlns="http://www.w3.org/2000/svg" xmlns:xlink="http://www.w3.org/1999/xlink" x="0px" y="0px"
	 viewBox="0 0 314.6 51" enable-background="new 0 0 314.6 51" xml:space="preserve">
<g>
	<defs>
		<rect id="SVGID_1_" x="-11" y="-2.1" width="336.3" height="57.1"/>
	</defs>
	<clipPath id="SVGID_2_">
		<use xlink:href="#SVGID_1_"  overflow="visible"/>
	</clipPath>
	<path clip-path="url(#SVGID_2_)" d="M314.4,44.7L18,44.7l-0.7-0.3L-0.1,26.4l0.9-1L17.5,8.4l0.7-0.3h296.1l-17.8,18.3
		c5.2,5.3,10.4,10.6,15.6,16L314.4,44.7z"/>
	<path clip-path="url(#SVGID_2_)" fill="none" stroke="#000000" stroke-width="0.25" stroke-miterlimit="10" d="M314.4,44.7L18,44.7
		l-0.7-0.3L-0.1,26.4l0.9-1L17.5,8.4l0.7-0.3h296.1l-17.8,18.3c5.2,5.3,10.4,10.6,15.6,16L314.4,44.7z"/>
	<g display="none" clip-path="url(#SVGID_2_)">
		<text transform="matrix(1 0 0 1 21.4448 40.1138)" display="inline"><tspan x="0" y="0" fill="#FFFFFF" font-family="'Avenir-Medium'" font-size="34" letter-spacing="1">BOD</tspan><tspan x="80" y="0" fill="#FFFFFF" font-family="'Avenir-Medium'" font-size="34">Y</tspan></text>
	</g>
</g>
</svg>
