<?xml version="1.0" encoding="utf-8"?>
<!-- Generator: Adobe Illustrator 18.1.0, SVG Export Plug-In . SVG Version: 6.00 Build 0)  -->
<svg version="1.1" id="Calque_1" xmlns="http://www.w3.org/2000/svg" xmlns:xlink="http://www.w3.org/1999/xlink" x="0px" y="0px"
	 viewBox="0 0 675 16" enable-background="new 0 0 675 16" xml:space="preserve">
<g>
	<defs>
		<rect id="SVGID_1_" y="-1.3" width="675" height="13.4"/>
	</defs>
	<clipPath id="SVGID_2_">
		<use xlink:href="#SVGID_1_"  overflow="visible"/>
	</clipPath>
	<polyline clip-path="url(#SVGID_2_)" fill="none" stroke="#010202" stroke-width="0.5" points="391.3,1.2 608.2,1.2 614.7,8 
		667.2,8 	"/>
	<polygon clip-path="url(#SVGID_2_)" fill="none" stroke="#010202" stroke-width="0.5" points="670.5,11.4 673.9,8 674,7.8 
		673.9,7.7 670.5,4.3 670.4,4.2 670.2,4.3 666.8,7.7 666.7,7.8 666.8,8 670.2,11.4 670.4,11.5 	"/>
	<polyline clip-path="url(#SVGID_2_)" fill="none" stroke="#010202" stroke-width="0.5" points="391.3,1.2 66.8,1.2 60.3,8 7.8,8 	
		"/>
	<polygon clip-path="url(#SVGID_2_)" fill="none" stroke="#010202" stroke-width="0.5" points="4.5,11.4 1.1,8 1,7.8 1.1,7.7 
		4.5,4.3 4.6,4.2 4.8,4.3 8.2,7.7 8.3,7.8 8.2,8 4.8,11.4 4.6,11.5 	"/>
	<polygon display="none" clip-path="url(#SVGID_2_)" fill="none" stroke="#1E1E1C" stroke-width="0.5" points="337.3,11.6 
		333.9,8.3 333.7,8.1 333.9,8 337.3,4.6 337.4,4.5 337.5,4.6 340.9,8 341,8.1 340.9,8.3 337.5,11.6 337.4,11.8 	"/>
</g>
</svg>
