<?xml version="1.0" encoding="utf-8"?>
<!-- Generator: Adobe Illustrator 18.1.0, SVG Export Plug-In . SVG Version: 6.00 Build 0)  -->
<svg version="1.1" id="Calque_1" xmlns="http://www.w3.org/2000/svg" xmlns:xlink="http://www.w3.org/1999/xlink" x="0px" y="0px"
	 viewBox="0 0 674 40" enable-background="new 0 0 674 40" xml:space="preserve">
<g>
	<defs>
		<rect id="SVGID_1_" y="14.4" width="674" height="11"/>
	</defs>
	<clipPath id="SVGID_2_">
		<use xlink:href="#SVGID_1_"  overflow="visible"/>
	</clipPath>
	<polyline clip-path="url(#SVGID_2_)" fill="none" stroke="#1D1D1B" points="390.7,14.6 607.3,14.6 613.8,21.4 666.2,21.4 	"/>
	<polygon clip-path="url(#SVGID_2_)" fill="none" stroke="#1D1D1B" points="669.5,24.8 672.9,21.4 673,21.3 672.9,21.1 669.5,17.8 
		669.4,17.6 669.2,17.8 665.8,21.1 665.7,21.3 665.8,21.4 669.2,24.8 669.4,24.9 	"/>
	<polyline clip-path="url(#SVGID_2_)" fill="none" stroke="#1D1D1B" points="390.7,14.6 66.7,14.6 60.2,21.4 7.8,21.4 	"/>
	<polygon clip-path="url(#SVGID_2_)" fill="none" stroke="#1D1D1B" points="4.5,24.8 1.1,21.4 1,21.3 1.1,21.1 4.5,17.8 4.6,17.6 
		4.8,17.8 8.2,21.1 8.3,21.3 8.2,21.4 4.8,24.8 4.6,24.9 	"/>
	<polygon display="none" clip-path="url(#SVGID_2_)" fill="none" stroke="#1D1D1B" points="336.8,25.1 333.4,21.7 333.3,21.6 
		333.4,21.4 336.8,18 336.9,17.9 337,18 340.4,21.4 340.5,21.6 340.4,21.7 337,25.1 336.9,25.2 	"/>
</g>
</svg>
