<?xml version="1.0" encoding="utf-8"?>
<!-- Generator: Adobe Illustrator 27.0.0, SVG Export Plug-In . SVG Version: 6.00 Build 0)  -->
<svg version="1.1" id="Calque_1" xmlns="http://www.w3.org/2000/svg" xmlns:xlink="http://www.w3.org/1999/xlink" x="0px" y="0px"
	 viewBox="0 0 197 14" style="enable-background:new 0 0 197 14;" xml:space="preserve">
<style type="text/css">
	.st0{clip-path:url(#SVGID_00000066498094554123580380000001705799783281183631_);fill:#FFFFFF;}
	
		.st1{clip-path:url(#SVGID_00000107556998874028902500000003070005521859932554_);fill:none;stroke:#FFFFFF;stroke-width:0.25;stroke-miterlimit:10;}
	.st2{clip-path:url(#SVGID_00000029042302608655489710000002043448657213730736_);fill:#FFFFFF;}
	
		.st3{clip-path:url(#SVGID_00000074433719705329711680000017213463648324717485_);fill:none;stroke:#FFFFFF;stroke-width:0.25;stroke-miterlimit:10;}
</style>
<g>
	<g>
		<defs>
			<rect id="SVGID_1_" x="-1.8" y="0" width="201.5" height="14.1"/>
		</defs>
		<clipPath id="SVGID_00000061443009287499783350000018310829488646500737_">
			<use xlink:href="#SVGID_1_"  style="overflow:visible;"/>
		</clipPath>
		<path style="clip-path:url(#SVGID_00000061443009287499783350000018310829488646500737_);fill:#FFFFFF;" d="M76.4,14.1L190,14
			l0.3-0.1L197,7l-0.4-0.4l-6.4-6.5L189.9,0H76.4l6.8,7c-2,2-4,4.1-6,6.1L76.4,14.1z"/>
	</g>
	<g>
		<defs>
			<rect id="SVGID_00000025414600468548198260000015688333264638551425_" x="-1.8" y="0" width="201.5" height="14.1"/>
		</defs>
		<clipPath id="SVGID_00000052782525851536502520000003132463843553026698_">
			<use xlink:href="#SVGID_00000025414600468548198260000015688333264638551425_"  style="overflow:visible;"/>
		</clipPath>
		
			<path style="clip-path:url(#SVGID_00000052782525851536502520000003132463843553026698_);fill:none;stroke:#FFFFFF;stroke-width:0.25;stroke-miterlimit:10;" d="
			M76.4,14.1L190,14l0.3-0.1L197,7l-0.4-0.4l-6.4-6.5L189.9,0H76.4l6.8,7c-2,2-4,4.1-6,6.1L76.4,14.1z"/>
	</g>
	<g>
		<defs>
			<rect id="SVGID_00000098202749088914395230000014990674672146026369_" x="-1.8" y="0" width="201.5" height="14.1"/>
		</defs>
		<clipPath id="SVGID_00000004548279394699156450000012461796332164878498_">
			<use xlink:href="#SVGID_00000098202749088914395230000014990674672146026369_"  style="overflow:visible;"/>
		</clipPath>
		<path style="clip-path:url(#SVGID_00000004548279394699156450000012461796332164878498_);fill:#FFFFFF;" d="M120.6,14.1L7,14
			l-0.3-0.1L0.1,7.1l0.4-0.4l6.4-6.5L7.1,0h113.5l-6.8,7c2,2,4,4.1,6,6.1L120.6,14.1z"/>
	</g>
	<g>
		<defs>
			<rect id="SVGID_00000144331993587324456580000001239366194663147907_" x="-1.8" y="0" width="201.5" height="14.1"/>
		</defs>
		<clipPath id="SVGID_00000106111271475997490440000016512652461617068698_">
			<use xlink:href="#SVGID_00000144331993587324456580000001239366194663147907_"  style="overflow:visible;"/>
		</clipPath>
		
			<path style="clip-path:url(#SVGID_00000106111271475997490440000016512652461617068698_);fill:none;stroke:#FFFFFF;stroke-width:0.25;stroke-miterlimit:10;" d="
			M120.6,14.1L7,14l-0.3-0.1L0.1,7.1l0.4-0.4l6.4-6.5L7.1,0h113.5l-6.8,7c2,2,4,4.1,6,6.1L120.6,14.1z"/>
	</g>
</g>
</svg>
