<?xml version="1.0" encoding="UTF-8" standalone="no"?>
<!-- Uploaded to: SVG Repo, www.svgrepo.com, Generator: SVG Repo Mixer Tools -->

<svg
   width="800px"
   height="800px"
   viewBox="0 0 512 512"
   version="1.1"
   id="svg1"
   sodipodi:docname="blackpowder.svg"
   xml:space="preserve"
   inkscape:version="1.3.2 (091e20e, 2023-11-25, custom)"
   xmlns:inkscape="http://www.inkscape.org/namespaces/inkscape"
   xmlns:sodipodi="http://sodipodi.sourceforge.net/DTD/sodipodi-0.dtd"
   xmlns="http://www.w3.org/2000/svg"
   xmlns:svg="http://www.w3.org/2000/svg"><defs
     id="defs1" /><sodipodi:namedview
     id="namedview1"
     pagecolor="#ffffff"
     bordercolor="#000000"
     borderopacity="0.25"
     inkscape:showpageshadow="2"
     inkscape:pageopacity="0.0"
     inkscape:pagecheckerboard="0"
     inkscape:deskcolor="#d1d1d1"
     inkscape:zoom="1.42"
     inkscape:cx="195.07042"
     inkscape:cy="278.52113"
     inkscape:window-width="3840"
     inkscape:window-height="2066"
     inkscape:window-x="-11"
     inkscape:window-y="-11"
     inkscape:window-maximized="1"
     inkscape:current-layer="svg1" /><g
     id="g5"
     inkscape:label="tas"
     style="display:inline;stroke-width:4.872"><path
       style="display:inline;fill:#000000;stroke:#ffffff;stroke-width:4.872"
       d="M 47.944409,350.19718 C 45.690888,349.74648 32,338.92957 64,324.95775 c 0,0 105.46479,-48.67606 164.95775,-118.08451 0,0 16.78767,-11.29889 23.54823,-6.79185 0,0 -15.29504,14.72028 -12.59082,19.67803 0,0 21.04259,13.25466 23.29611,26.32509 0,0 1.80281,21.6338 11.2676,28.39436 0,0 34.25352,28.84507 38.76057,42.3662 0,0 27.04225,27.49296 86.53521,26.59155 0,0 29.70131,1.53514 55.01856,3.70176 7.08151,0.60603 4.14333,5.23832 7.87253,4.99772 0,0 -35.84884,32.76531 -175.11644,40.42728 0,0 -160.90141,45.97183 -141.07043,-15.77465 0,0 -64.971367,-16.3535 -86.581532,-25.6708 -4.068304,-1.75406 -12.167147,0.50737 -11.952929,-0.92075 z"
       id="path1"
       sodipodi:nodetypes="cccccccccscccsc" /><path
       style="fill:#000000;stroke:#ffffff;stroke-width:4.872"
       d="m 243.79047,198.53042 c 0,0 -5.41573,16.76557 -3.16221,19.46979 0,0 27.95095,18.38936 26.59883,25.60063 0,0 -1.80281,14.42254 3.15493,22.53521 0,0 46.19239,38.93816 44.38958,47.95224 0,0 1.02691,2.34633 1.69085,3.13032 3.32397,3.92505 16.61119,14.43736 65.82368,21.95071 0,0 70.54959,10.36619 82.2679,4.95774 0,0 5.50374,-4.28059 -1.23994,-7.5883 -8.1941,-4.01912 -29.64028,-7.583 -39.52961,-12.7749 0,0 -62.43692,-30.79653 -61.53551,-42.96554 0,0 -14.79652,-23.22565 -42.74019,-41.70452 0,0 -65.35212,-52.28169 -75.71831,-40.56338 z"
       id="path2"
       sodipodi:nodetypes="cccccsccscccc" /></g><g
     id="g1"
     inkscape:label="powder"
     style="display:inline"><path
       style="fill:#000000;fill-opacity:1;stroke:#ffffff;stroke-width:4.50455;stroke-opacity:1"
       d="m 331.63636,393.62238 c 0,0 31.72969,-11.33283 54.02313,-7.07776 0,0 3.27734,0.53219 5.12384,2.67856 4.16046,4.83615 8.16092,14.63804 1.49639,22.07752 0,0 -1.1113,1.28364 -4.43392,2.08881 -5.08536,1.23234 -14.07472,2.83259 -22.19545,8.65245 0,0 -6.04196,10.06993 -0.22378,16.78321 0,0 8.149,3.4497 9.26788,6.35879 0,0 17.15043,13.5567 -16.99359,8.70351 -1.35075,-0.192 -5.31245,-1.83631 -6.81974,-2.08327 0,0 -7.83217,-7.6084 -3.8042,-18.12588 0,0 1.62404,-20.10995 9.45621,-22.12393 0,0 6.52496,-6.28568 -18.3142,-3.15281 0,0 -8.37494,-0.15255 -13.36941,-3.65583 -6.27882,-4.40417 -8.54331,-11.248 6.78684,-11.12337 z"
       id="path7"
       sodipodi:nodetypes="ccscscccsccccsc" /><path
       style="fill:#000000;fill-opacity:1;stroke:#ffffff;stroke-width:4.50455;stroke-opacity:1"
       d="m 140.30769,402.12588 c 0,0 3.36194,-0.70513 6.59152,1.29068 4.0694,2.5148 7.9757,4.74908 15.7116,5.96562 1.5268,0.2401 6.30938,3.37641 8.01745,3.35423 0,0 2.57454,11.31953 -7.04784,13.5573 0,0 -41.17483,13.87412 -21.48252,-7.16084 0,0 -10.29371,-18.34964 -1.79021,-17.00699 z"
       id="path8"
       sodipodi:nodetypes="csscccc" /><path
       style="fill:#000000;fill-opacity:1;stroke:#ffffff;stroke-width:4.50455;stroke-opacity:1"
       d="m 139.63636,437.25874 c 0,0 -9.62238,2.90909 -8.05594,8.05595 0,0 0.22378,9.62237 8.5035,7.16083 0,0 13.7711,0.44756 10.63823,-5.14685 0,0 0.8294,-10.68575 0.0926,-0.2032 -0.0763,1.08621 1.89314,-5.47812 -4.24131,-7.85274 0,0 -1.79022,-2.01399 -6.93707,-2.01399 z"
       id="path9"
       sodipodi:nodetypes="ccccscc" /><path
       style="fill:#000000;fill-opacity:1;stroke:#ffffff;stroke-width:2.04079;stroke-opacity:1"
       id="path10"
       sodipodi:type="arc"
       sodipodi:cx="141.38625"
       sodipodi:cy="458.29819"
       sodipodi:rx="2.1258743"
       sodipodi:ry="2.2377622"
       sodipodi:start="6.2390891"
       sodipodi:end="6.2388112"
       sodipodi:open="true"
       sodipodi:arc-type="arc"
       d="m 143.51005,458.19954 a 2.1258743,2.2377622 0 0 1 -2.02994,2.33423 2.1258743,2.2377622 0 0 1 -2.21766,-2.13663 2.1258743,2.2377622 0 0 1 2.02964,-2.33452 2.1258743,2.2377622 0 0 1 2.21794,2.1363" /><path
       style="fill:#000000;fill-opacity:1;stroke:#ffffff;stroke-width:2.04079;stroke-opacity:1"
       id="path10-5"
       sodipodi:type="arc"
       sodipodi:cx="364.74625"
       sodipodi:cy="462.13818"
       sodipodi:rx="2.1258743"
       sodipodi:ry="2.2377622"
       sodipodi:start="6.2390891"
       sodipodi:end="6.2388112"
       sodipodi:open="true"
       sodipodi:arc-type="arc"
       d="m 366.87005,462.03954 a 2.1258743,2.2377622 0 0 1 -2.02994,2.33422 2.1258743,2.2377622 0 0 1 -2.21766,-2.13662 2.1258743,2.2377622 0 0 1 2.02964,-2.33452 2.1258743,2.2377622 0 0 1 2.21794,2.1363" /><path
       style="fill:#000000;fill-opacity:1;stroke:#ffffff;stroke-width:2.04079;stroke-opacity:1"
       id="path10-9"
       sodipodi:type="arc"
       sodipodi:cx="353.86624"
       sodipodi:cy="460.85818"
       sodipodi:rx="2.1258743"
       sodipodi:ry="2.2377622"
       sodipodi:start="6.2390891"
       sodipodi:end="6.2388112"
       sodipodi:open="true"
       sodipodi:arc-type="arc"
       d="m 355.99005,460.75954 a 2.1258743,2.2377622 0 0 1 -2.02995,2.33422 2.1258743,2.2377622 0 0 1 -2.21765,-2.13662 2.1258743,2.2377622 0 0 1 2.02964,-2.33452 2.1258743,2.2377622 0 0 1 2.21793,2.1363" /><path
       style="fill:#000000;fill-opacity:1;stroke:#ffffff;stroke-width:2.04079;stroke-opacity:1"
       id="path10-6"
       sodipodi:type="arc"
       sodipodi:cx="357.06622"
       sodipodi:cy="476.21817"
       sodipodi:rx="2.1258743"
       sodipodi:ry="2.2377622"
       sodipodi:start="6.2390891"
       sodipodi:end="6.2388112"
       sodipodi:open="true"
       sodipodi:arc-type="arc"
       d="m 359.19003,476.11953 a 2.1258743,2.2377622 0 0 1 -2.02995,2.33422 2.1258743,2.2377622 0 0 1 -2.21765,-2.13662 2.1258743,2.2377622 0 0 1 2.02964,-2.33453 2.1258743,2.2377622 0 0 1 2.21793,2.1363" /><path
       style="fill:#000000;fill-opacity:1;stroke:#ffffff;stroke-width:2.04079;stroke-opacity:1"
       id="path10-54"
       sodipodi:type="arc"
       sodipodi:cx="137.54623"
       sodipodi:cy="458.93817"
       sodipodi:rx="2.1258743"
       sodipodi:ry="2.2377622"
       sodipodi:start="6.2390891"
       sodipodi:end="6.2388112"
       sodipodi:open="true"
       sodipodi:arc-type="arc"
       d="m 139.67004,458.83953 a 2.1258743,2.2377622 0 0 1 -2.02995,2.33422 2.1258743,2.2377622 0 0 1 -2.21765,-2.13662 2.1258743,2.2377622 0 0 1 2.02964,-2.33452 2.1258743,2.2377622 0 0 1 2.21794,2.1363" /><path
       style="fill:#000000;fill-opacity:1;stroke:#ffffff;stroke-width:2.04079;stroke-opacity:1"
       id="path10-8"
       sodipodi:type="arc"
       sodipodi:cx="152.90623"
       sodipodi:cy="458.93817"
       sodipodi:rx="2.1258743"
       sodipodi:ry="2.2377622"
       sodipodi:start="6.2390891"
       sodipodi:end="6.2388112"
       sodipodi:open="true"
       sodipodi:arc-type="arc"
       d="m 155.03004,458.83953 a 2.1258743,2.2377622 0 0 1 -2.02995,2.33422 2.1258743,2.2377622 0 0 1 -2.21765,-2.13662 2.1258743,2.2377622 0 0 1 2.02964,-2.33452 2.1258743,2.2377622 0 0 1 2.21794,2.1363" /><path
       style="fill:#000000;fill-opacity:1;stroke:#ffffff;stroke-width:2.04079;stroke-opacity:1"
       id="path10-7"
       sodipodi:type="arc"
       sodipodi:cx="142.66623"
       sodipodi:cy="471.09818"
       sodipodi:rx="2.1258743"
       sodipodi:ry="2.2377622"
       sodipodi:start="6.2390891"
       sodipodi:end="6.2388112"
       sodipodi:open="true"
       sodipodi:arc-type="arc"
       d="m 144.79004,470.99953 a 2.1258743,2.2377622 0 0 1 -2.02995,2.33423 2.1258743,2.2377622 0 0 1 -2.21766,-2.13663 2.1258743,2.2377622 0 0 1 2.02964,-2.33452 2.1258743,2.2377622 0 0 1 2.21794,2.1363" /><path
       style="fill:#000000;fill-opacity:1;stroke:#ffffff;stroke-width:2.04079;stroke-opacity:1"
       id="path10-96"
       sodipodi:type="arc"
       sodipodi:cx="357.70624"
       sodipodi:cy="469.17819"
       sodipodi:rx="2.1258743"
       sodipodi:ry="2.2377622"
       sodipodi:start="6.2390891"
       sodipodi:end="6.2388112"
       sodipodi:open="true"
       sodipodi:arc-type="arc"
       d="m 359.83005,469.07955 a 2.1258743,2.2377622 0 0 1 -2.02995,2.33422 2.1258743,2.2377622 0 0 1 -2.21766,-2.13662 2.1258743,2.2377622 0 0 1 2.02964,-2.33452 2.1258743,2.2377622 0 0 1 2.21794,2.1363" /><path
       style="fill:#000000;fill-opacity:1;stroke:#ffffff;stroke-width:2.04079;stroke-opacity:1"
       id="path10-70"
       sodipodi:type="arc"
       sodipodi:cx="401.22623"
       sodipodi:cy="382.13818"
       sodipodi:rx="2.1258743"
       sodipodi:ry="2.2377622"
       sodipodi:start="6.2390891"
       sodipodi:end="6.2388112"
       sodipodi:open="true"
       sodipodi:arc-type="arc"
       d="m 403.35003,382.03954 a 2.1258743,2.2377622 0 0 1 -2.02994,2.33422 2.1258743,2.2377622 0 0 1 -2.21766,-2.13662 2.1258743,2.2377622 0 0 1 2.02964,-2.33452 2.1258743,2.2377622 0 0 1 2.21794,2.1363" /><path
       style="fill:#000000;fill-opacity:1;stroke:#ffffff;stroke-width:2.04079;stroke-opacity:1"
       id="path10-87"
       sodipodi:type="arc"
       sodipodi:cx="422.98624"
       sodipodi:cy="373.17819"
       sodipodi:rx="2.1258743"
       sodipodi:ry="2.2377622"
       sodipodi:start="6.2390891"
       sodipodi:end="6.2388112"
       sodipodi:open="true"
       sodipodi:arc-type="arc"
       d="m 425.11004,373.07955 a 2.1258743,2.2377622 0 0 1 -2.02994,2.33422 2.1258743,2.2377622 0 0 1 -2.21766,-2.13662 2.1258743,2.2377622 0 0 1 2.02964,-2.33452 2.1258743,2.2377622 0 0 1 2.21794,2.1363" /><path
       style="fill:#000000;fill-opacity:1;stroke:#ffffff;stroke-width:2.04079;stroke-opacity:1"
       id="path10-75"
       sodipodi:type="arc"
       sodipodi:cx="436.42624"
       sodipodi:cy="369.67194"
       sodipodi:rx="2.1258743"
       sodipodi:ry="2.2377622"
       sodipodi:start="6.2390891"
       sodipodi:end="6.2388112"
       sodipodi:open="true"
       sodipodi:arc-type="arc"
       d="m 438.55005,369.57329 a 2.1258743,2.2377622 0 0 1 -2.02995,2.33423 2.1258743,2.2377622 0 0 1 -2.21766,-2.13663 2.1258743,2.2377622 0 0 1 2.02964,-2.33452 2.1258743,2.2377622 0 0 1 2.21794,2.1363" /><path
       style="fill:#000000;fill-opacity:1;stroke:#ffffff;stroke-width:2.04079;stroke-opacity:1"
       id="path10-99"
       sodipodi:type="arc"
       sodipodi:cx="302.66623"
       sodipodi:cy="398.13818"
       sodipodi:rx="2.1258743"
       sodipodi:ry="2.2377622"
       sodipodi:start="6.2390891"
       sodipodi:end="6.2388112"
       sodipodi:open="true"
       sodipodi:arc-type="arc"
       d="m 304.79004,398.03954 a 2.1258743,2.2377622 0 0 1 -2.02995,2.33422 2.1258743,2.2377622 0 0 1 -2.21766,-2.13662 2.1258743,2.2377622 0 0 1 2.02964,-2.33452 2.1258743,2.2377622 0 0 1 2.21794,2.1363" /><path
       style="fill:#000000;fill-opacity:1;stroke:#ffffff;stroke-width:2.04079;stroke-opacity:1"
       id="path10-68"
       sodipodi:type="arc"
       sodipodi:cx="266.18625"
       sodipodi:cy="403.25818"
       sodipodi:rx="2.1258743"
       sodipodi:ry="2.2377622"
       sodipodi:start="6.2390891"
       sodipodi:end="6.2388112"
       sodipodi:open="true"
       sodipodi:arc-type="arc"
       d="m 268.31006,403.15953 a 2.1258743,2.2377622 0 0 1 -2.02995,2.33423 2.1258743,2.2377622 0 0 1 -2.21766,-2.13663 2.1258743,2.2377622 0 0 1 2.02964,-2.33452 2.1258743,2.2377622 0 0 1 2.21794,2.1363" /><path
       style="fill:#000000;fill-opacity:1;stroke:#ffffff;stroke-width:2.04079;stroke-opacity:1"
       id="path10-90"
       sodipodi:type="arc"
       sodipodi:cx="226.50624"
       sodipodi:cy="411.57819"
       sodipodi:rx="2.1258743"
       sodipodi:ry="2.2377622"
       sodipodi:start="6.2390891"
       sodipodi:end="6.2388112"
       sodipodi:open="true"
       sodipodi:arc-type="arc"
       d="m 228.63005,411.47954 a 2.1258743,2.2377622 0 0 1 -2.02995,2.33423 2.1258743,2.2377622 0 0 1 -2.21765,-2.13663 2.1258743,2.2377622 0 0 1 2.02964,-2.33452 2.1258743,2.2377622 0 0 1 2.21793,2.1363" /><path
       style="fill:#000000;fill-opacity:1;stroke:#ffffff;stroke-width:2.04079;stroke-opacity:1"
       id="path10-0"
       sodipodi:type="arc"
       sodipodi:cx="202.82623"
       sodipodi:cy="412.85818"
       sodipodi:rx="2.1258743"
       sodipodi:ry="2.2377622"
       sodipodi:start="6.2390891"
       sodipodi:end="6.2388112"
       sodipodi:open="true"
       sodipodi:arc-type="arc"
       d="m 204.95004,412.75954 a 2.1258743,2.2377622 0 0 1 -2.02995,2.33422 2.1258743,2.2377622 0 0 1 -2.21765,-2.13662 2.1258743,2.2377622 0 0 1 2.02964,-2.33452 2.1258743,2.2377622 0 0 1 2.21793,2.1363" /><path
       style="fill:#000000;fill-opacity:1;stroke:#ffffff;stroke-width:2.04079;stroke-opacity:1"
       id="path10-750"
       sodipodi:type="arc"
       sodipodi:cx="245.70624"
       sodipodi:cy="412.85818"
       sodipodi:rx="2.1258743"
       sodipodi:ry="2.2377622"
       sodipodi:start="6.2390891"
       sodipodi:end="6.2388112"
       sodipodi:open="true"
       sodipodi:arc-type="arc"
       d="m 247.83005,412.75954 a 2.1258743,2.2377622 0 0 1 -2.02995,2.33422 2.1258743,2.2377622 0 0 1 -2.21766,-2.13662 2.1258743,2.2377622 0 0 1 2.02964,-2.33452 2.1258743,2.2377622 0 0 1 2.21794,2.1363" /><path
       style="fill:#000000;fill-opacity:1;stroke:#ffffff;stroke-width:2.04079;stroke-opacity:1"
       id="path10-1"
       sodipodi:type="arc"
       sodipodi:cx="134.34624"
       sodipodi:cy="385.97818"
       sodipodi:rx="2.1258743"
       sodipodi:ry="2.2377622"
       sodipodi:start="6.2390891"
       sodipodi:end="6.2388112"
       sodipodi:open="true"
       sodipodi:arc-type="arc"
       d="m 136.47004,385.87954 a 2.1258743,2.2377622 0 0 1 -2.02994,2.33422 2.1258743,2.2377622 0 0 1 -2.21766,-2.13662 2.1258743,2.2377622 0 0 1 2.02964,-2.33453 2.1258743,2.2377622 0 0 1 2.21794,2.1363" /><path
       style="fill:#000000;fill-opacity:1;stroke:#ffffff;stroke-width:2.04079;stroke-opacity:1"
       id="path10-09"
       sodipodi:type="arc"
       sodipodi:cx="103.62624"
       sodipodi:cy="374.45819"
       sodipodi:rx="2.1258743"
       sodipodi:ry="2.2377622"
       sodipodi:start="6.2390891"
       sodipodi:end="6.2388112"
       sodipodi:open="true"
       sodipodi:arc-type="arc"
       d="m 105.75005,374.35955 a 2.1258743,2.2377622 0 0 1 -2.02995,2.33422 2.1258743,2.2377622 0 0 1 -2.21765,-2.13662 2.1258743,2.2377622 0 0 1 2.02964,-2.33453 2.1258743,2.2377622 0 0 1 2.21794,2.1363" /><path
       style="fill:#000000;fill-opacity:1;stroke:#ffffff;stroke-width:2.04079;stroke-opacity:1"
       id="path10-76"
       sodipodi:type="arc"
       sodipodi:cx="94.666237"
       sodipodi:cy="373.81818"
       sodipodi:rx="2.1258743"
       sodipodi:ry="2.2377622"
       sodipodi:start="6.2390891"
       sodipodi:end="6.2388112"
       sodipodi:open="true"
       sodipodi:arc-type="arc"
       d="m 96.790045,373.71953 a 2.1258743,2.2377622 0 0 1 -2.029948,2.33423 2.1258743,2.2377622 0 0 1 -2.217655,-2.13663 2.1258743,2.2377622 0 0 1 2.02964,-2.33452 2.1258743,2.2377622 0 0 1 2.217937,2.1363" /><path
       style="fill:#000000;fill-opacity:1;stroke:#ffffff;stroke-width:2.04079;stroke-opacity:1"
       id="path10-98"
       sodipodi:type="arc"
       sodipodi:cx="62.666237"
       sodipodi:cy="369.33817"
       sodipodi:rx="2.1258743"
       sodipodi:ry="2.2377622"
       sodipodi:start="6.2390891"
       sodipodi:end="6.2388112"
       sodipodi:open="true"
       sodipodi:arc-type="arc"
       d="m 64.790045,369.23952 a 2.1258743,2.2377622 0 0 1 -2.029948,2.33423 2.1258743,2.2377622 0 0 1 -2.217655,-2.13663 2.1258743,2.2377622 0 0 1 2.02964,-2.33452 2.1258743,2.2377622 0 0 1 2.217937,2.1363" /><path
       style="fill:#000000;fill-opacity:1;stroke:#ffffff;stroke-width:2.04079;stroke-opacity:1"
       id="path10-4"
       sodipodi:type="arc"
       sodipodi:cx="277.06622"
       sodipodi:cy="412.21817"
       sodipodi:rx="2.1258743"
       sodipodi:ry="2.2377622"
       sodipodi:start="6.2390891"
       sodipodi:end="6.2388112"
       sodipodi:open="true"
       sodipodi:arc-type="arc"
       d="m 279.19003,412.11953 a 2.1258743,2.2377622 0 0 1 -2.02995,2.33422 2.1258743,2.2377622 0 0 1 -2.21765,-2.13662 2.1258743,2.2377622 0 0 1 2.02964,-2.33453 2.1258743,2.2377622 0 0 1 2.21793,2.1363" /><path
       style="fill:#000000;fill-opacity:1;stroke:#ffffff;stroke-width:2.04079;stroke-opacity:1"
       id="path10-82"
       sodipodi:type="arc"
       sodipodi:cx="248.90623"
       sodipodi:cy="419.89816"
       sodipodi:rx="2.1258743"
       sodipodi:ry="2.2377622"
       sodipodi:start="6.2390891"
       sodipodi:end="6.2388112"
       sodipodi:open="true"
       sodipodi:arc-type="arc"
       d="m 251.03004,419.79952 a 2.1258743,2.2377622 0 0 1 -2.02995,2.33422 2.1258743,2.2377622 0 0 1 -2.21765,-2.13662 2.1258743,2.2377622 0 0 1 2.02964,-2.33452 2.1258743,2.2377622 0 0 1 2.21794,2.1363" /></g></svg>
