<?xml version="1.0" encoding="UTF-8" standalone="no"?>
<!-- Uploaded to: SVG Repo, www.svgrepo.com, Generator: SVG Repo Mixer Tools -->

<svg
   width="800px"
   height="800px"
   viewBox="0 0 512 512"
   version="1.1"
   id="svg1"
   sodipodi:docname="papercartridge.svg"
   xml:space="preserve"
   inkscape:version="1.3.2 (091e20e, 2023-11-25, custom)"
   xmlns:inkscape="http://www.inkscape.org/namespaces/inkscape"
   xmlns:sodipodi="http://sodipodi.sourceforge.net/DTD/sodipodi-0.dtd"
   xmlns="http://www.w3.org/2000/svg"
   xmlns:svg="http://www.w3.org/2000/svg"><defs
     id="defs1" /><sodipodi:namedview
     id="namedview1"
     pagecolor="#ffffff"
     bordercolor="#000000"
     borderopacity="0.25"
     inkscape:showpageshadow="2"
     inkscape:pageopacity="0.0"
     inkscape:pagecheckerboard="0"
     inkscape:deskcolor="#d1d1d1"
     inkscape:zoom="1.52"
     inkscape:cx="266.44737"
     inkscape:cy="434.53947"
     inkscape:window-width="3840"
     inkscape:window-height="2066"
     inkscape:window-x="-11"
     inkscape:window-y="-11"
     inkscape:window-maximized="1"
     inkscape:current-layer="svg1" /><g
     id="g13"
     inkscape:label=" PAPER CARTRIDGE"
     style="display:inline"
     transform="matrix(3.1456679,0,0,3.1456679,-789.25005,-958.3221)"><path
       style="display:inline;fill:#000000;stroke:#ffffff;stroke-width:1.44032;stroke-dasharray:none"
       d="m 315.21951,371.60975 c 0,0 -2.82926,-4.09756 -0.39024,-8 l 29.85366,-0.0976 c 0,0 0.87805,7.60975 -0.19513,7.60975 z"
       id="path2" /><path
       style="display:inline;fill:#000000;stroke:#ffffff;stroke-width:1.43094;stroke-dasharray:none"
       d="m 344.87805,361.07317 c 0,0 -0.97561,-16.19512 -5.95123,-21.56098 0,0 -2.82925,-4.4878 -5.85365,-6.2439 0,0 -3.12195,-2.43902 -5.46341,-0.29264 0,0 -2.92683,2.82923 -4.39025,4.58533 0,0 -11.90244,12.09756 -8.87805,24.19512 z"
       id="path3"
       sodipodi:nodetypes="ccccccc" /><path
       style="display:inline;fill:#ffffff;fill-opacity:1;stroke:#ffffff;stroke-width:0.41075"
       d="m 331.5122,334.34147 c 0,0 5.56097,21.36585 4.19512,26.04878 l 2.43902,0.0976 c 0,0 -4.18719,-21.74162 -6.14633,-25.26828 z"
       id="path4"
       sodipodi:nodetypes="cccsc" /><path
       style="display:inline;fill:#ffffff;fill-opacity:1;stroke:#ffffff;stroke-width:0.41075"
       d="m 339.70732,360.39025 2.7317,0.29268 c 0,0 -3.02439,-15.60977 -10.7317,-25.7561 0,0 9.2683,22.5366 8,25.46342 z"
       id="path5"
       sodipodi:nodetypes="cccc" /><path
       style="display:inline;fill:#ffffff;fill-opacity:1;stroke:#ffffff;stroke-width:0.41075"
       d="m 335.80487,364.09756 2.04879,-4e-5 0.39024,5.95122 -2.63414,-0.0976 z"
       id="path6"
       sodipodi:nodetypes="ccccc" /><path
       style="display:inline;fill:#ffffff;fill-opacity:1;stroke:#ffffff;stroke-width:0.41075"
       d="m 339.90244,364.09756 -0.0976,6.04877 2.43903,-0.19512 -0.0976,-5.85365 z"
       id="path7"
       sodipodi:nodetypes="ccccc" /><path
       style="display:inline;fill:#ffffff;fill-opacity:1;stroke:#000000;stroke-width:3.81922;stroke-dasharray:none;stroke-opacity:1"
       d="m 310.76764,374.92531 7.70647,69.24412 c 0,0 0.24829,1.63827 2.73108,1.52905 h 20.23461 c 0,0 1.73793,-0.76453 1.98621,-2.51201 l 5.32678,-68.19453 -2.30685,-1.02151 -34.78277,-0.0125 z"
       id="path1"
       sodipodi:nodetypes="ccccccccc" /><path
       style="display:inline;fill:#ffffff;fill-opacity:1;stroke:#000000;stroke-width:1.60762;stroke-opacity:1"
       d="m 337.34321,445.37081 -0.12406,-9.06506 -17.13115,-43.25027 c 0,0 16.13803,-1.74749 28.17949,-11.79553 l -4.5932,61.48965 c 0,0 -0.49656,2.512 -1.6138,2.512 z"
       id="path8" /><path
       style="display:inline;fill:#000000;stroke:#000000;stroke-width:0.725954;stroke-opacity:1"
       d="m 312.39132,381.5876 2.97933,-0.10927 0.12419,-0.10928"
       id="path9" /><path
       style="display:inline;fill:#000000;stroke:#000000;stroke-width:0.725954;stroke-opacity:1"
       d="m 318.34998,381.25995 h 5.46211"
       id="path10" /><path
       style="display:inline;fill:#000000;stroke:#000000;stroke-width:0.725954;stroke-opacity:1"
       d="m 326.54314,380.9323 h 4.22073"
       id="path11" /><path
       style="display:inline;fill:#000000;stroke:#000000;stroke-width:0.725954;stroke-opacity:1"
       d="m 342.06049,381.04151 2.73106,-0.10927"
       id="path13" /><path
       style="display:inline;fill:#000000;stroke:#000000;stroke-width:0.725954;stroke-opacity:1"
       d="m 333.61905,381.04151 5.46211,0.10927"
       id="path12" /></g></svg>
