<?xml version="1.0" encoding="UTF-8" standalone="no"?>
<!-- Uploaded to: SVG Repo, www.svgrepo.com, Generator: SVG Repo Mixer Tools -->

<svg
   width="800px"
   height="800px"
   viewBox="0 0 512 512"
   version="1.1"
   id="svg1"
   sodipodi:docname="powderflask.svg"
   xml:space="preserve"
   inkscape:version="1.3.2 (091e20e, 2023-11-25, custom)"
   xmlns:inkscape="http://www.inkscape.org/namespaces/inkscape"
   xmlns:sodipodi="http://sodipodi.sourceforge.net/DTD/sodipodi-0.dtd"
   xmlns="http://www.w3.org/2000/svg"
   xmlns:svg="http://www.w3.org/2000/svg"><defs
     id="defs1" /><sodipodi:namedview
     id="namedview1"
     pagecolor="#ffffff"
     bordercolor="#000000"
     borderopacity="0.25"
     inkscape:showpageshadow="2"
     inkscape:pageopacity="0.0"
     inkscape:pagecheckerboard="0"
     inkscape:deskcolor="#d1d1d1"
     inkscape:zoom="2.16"
     inkscape:cx="353.24074"
     inkscape:cy="401.15741"
     inkscape:window-width="3840"
     inkscape:window-height="2066"
     inkscape:window-x="-11"
     inkscape:window-y="-11"
     inkscape:window-maximized="1"
     inkscape:current-layer="svg1" /><g
     id="g1"
     inkscape:label="powderflask"
     transform="matrix(1.1800181,0,0,1.1800181,34.785775,-74.479175)"><path
       style="display:inline;fill:#000000;fill-opacity:1;stroke:#ffffff;stroke-width:3.8208;stroke-dasharray:none;stroke-opacity:1"
       d="m 150.87533,223.83023 c 0,0 28.01061,-5.43236 60.43502,0.33953 0,0 4.75331,58.22811 24.27586,104.40318 0,0 50.37974,108.4625 -44.02772,126.34024 -4.06522,0.76982 -9.15901,0.67154 -13.77742,1.09204 0,0 -4.24046,0.36104 -11.01501,-0.93001 -26.18497,-4.99015 -85.220034,-27.27137 -46.10823,-121.40943 0,0 35.48009,-91.50134 30.2175,-109.83555 z"
       id="path14"
       sodipodi:nodetypes="cccscscc" /><path
       style="fill:#ffffff;fill-opacity:1;stroke:#000000;stroke-width:3.8208;stroke-dasharray:none;stroke-opacity:1"
       d="m 163.77719,179.88329 1.86737,-84.371358 c 0,0 7.63926,-2.546418 14.25995,0 l 1.69761,84.201598 z"
       id="path19" /><path
       style="fill:#000000;fill-opacity:1;stroke:#ffffff;stroke-width:3.8208;stroke-dasharray:none;stroke-opacity:1"
       d="m 155.90735,195.08335 -0.16976,-9.84615 c 0,0 8.48807,-5.94164 50.92839,-0.67905 l 0.33952,10.5252 c 0,0 -18.84351,-5.60213 -51.09815,0 z"
       id="path16" /><path
       style="fill:#ffffff;fill-opacity:1;stroke:#000000;stroke-width:3.8208;stroke-dasharray:none;stroke-opacity:1"
       d="m 149.72944,200.65782 c 0,0 15.61804,-8.14853 63.49072,0.33953 l 0.50928,19.69231 c 0,0 -26.82228,-6.11141 -64.50928,-0.33953 z"
       id="path15" /><path
       style="fill:#ffffff;fill-opacity:1;stroke:#000000;stroke-width:3.8208;stroke-dasharray:none;stroke-opacity:1"
       d="m 211.3229,187.37954 0.16976,7.29974 5.60212,1.35808 21.72944,3.05571 -0.33952,-12.90186 -16.63661,-1.18833 -5.77187,4.24403 z"
       id="path17" /><path
       style="fill:none;fill-opacity:1;stroke:#000000;stroke-width:1.44031;stroke-dasharray:none;stroke-opacity:1"
       d="m 218.15534,188.69519 v 6.11141"
       id="path18" /><path
       style="fill:#000000;fill-opacity:1;stroke:#000000;stroke-width:1.44031;stroke-dasharray:none;stroke-opacity:1"
       d="m 172.18037,95.427061 0.43934,83.542259 4.24403,-0.16976 -2.13695,-83.542259 z"
       id="path20"
       sodipodi:nodetypes="ccccc" /><path
       style="fill:#000000;fill-opacity:1;stroke:#000000;stroke-width:1.44031;stroke-dasharray:none;stroke-opacity:1"
       d="m 187.92573,197.2626 -0.84881,21.22016 7.12998,0.16976 -0.16977,-21.22016 z"
       id="path21" /><path
       style="fill:#ffffff;fill-opacity:1;stroke:#ffffff;stroke-width:1.44031;stroke-dasharray:none;stroke-opacity:1"
       d="m 187.8939,223.81963 c 0,0 4.07427,78.59947 13.07161,99.14059 0,0 21.28383,41.80371 16.02123,120.7427 0,0 10.76923,-5.74005 13.48541,-8.96552 0,0 4.27586,-63.0557 -20.50929,-115.00265 0,0 -11.03448,-33.44297 -15.78779,-96.76392 z"
       id="path22"
       sodipodi:nodetypes="ccccccc" /></g><g
     id="g3"
     inkscape:label="target"><path
       style="opacity:1;fill:none;fill-opacity:1;stroke:#ffffff;stroke-width:5.84194;stroke-dasharray:none;stroke-opacity:1"
       id="path2"
       sodipodi:type="arc"
       sodipodi:cx="250.50244"
       sodipodi:cy="345.98367"
       sodipodi:rx="19.596533"
       sodipodi:ry="19.596533"
       sodipodi:start="6.2390891"
       sodipodi:end="6.2388112"
       sodipodi:open="true"
       sodipodi:arc-type="arc"
       d="m 270.07992,345.11982 a 19.596533,19.596533 0 0 1 -18.71227,20.44128 19.596533,19.596533 0 0 1 -20.44257,-18.71085 19.596533,19.596533 0 0 1 18.70943,-20.44388 19.596533,19.596533 0 0 1 20.44517,18.70801" /><rect
       style="opacity:1;fill:#ffffff;fill-opacity:1;stroke:#ffffff;stroke-width:3.24296;stroke-opacity:1"
       id="rect1"
       width="12.083255"
       height="4.1887589"
       x="264.56494"
       y="343.6279"
       ry="2.0943794" /><rect
       style="fill:#ffffff;fill-opacity:1;stroke:#ffffff;stroke-width:3.24296;stroke-opacity:1"
       id="rect1-6"
       width="12.083255"
       height="4.1887589"
       x="224.57256"
       y="344.03497"
       ry="2.0943794" /><rect
       style="fill:#ffffff;fill-opacity:1;stroke:#ffffff;stroke-width:3.24296;stroke-opacity:1"
       id="rect1-7"
       width="12.083255"
       height="4.1887589"
       x="320.05112"
       y="-252.43144"
       ry="2.0943794"
       transform="rotate(90)" /><rect
       style="fill:#ffffff;fill-opacity:1;stroke:#ffffff;stroke-width:3.24296;stroke-opacity:1"
       id="rect1-9"
       width="12.083255"
       height="4.1887589"
       x="-371.80182"
       y="248.56895"
       ry="2.0943794"
       transform="rotate(-90)" /><path
       style="opacity:1;fill:#000000;fill-opacity:1;stroke:#ffffff;stroke-width:3.87617;stroke-opacity:1"
       id="path1"
       sodipodi:type="arc"
       sodipodi:cx="250.45016"
       sodipodi:cy="345.9314"
       sodipodi:rx="1.8823529"
       sodipodi:ry="1.8823529"
       sodipodi:start="6.2390891"
       sodipodi:end="6.2388112"
       sodipodi:open="true"
       sodipodi:arc-type="arc"
       d="m 252.33069,345.84842 a 1.8823529,1.8823529 0 0 1 -1.79742,1.96349 1.8823529,1.8823529 0 0 1 -1.96362,-1.79727 1.8823529,1.8823529 0 0 1 1.79715,-1.96375 1.8823529,1.8823529 0 0 1 1.96386,1.79701" /></g></svg>
