<?xml version="1.0" encoding="utf-8"?>
<!-- Generator: Adobe Illustrator 18.1.0, SVG Export Plug-In . SVG Version: 6.00 Build 0)  -->
<svg version="1.1" xmlns="http://www.w3.org/2000/svg" xmlns:xlink="http://www.w3.org/1999/xlink" x="0px" y="0px"
	 viewBox="0 0 256 256" enable-background="new 0 0 256 256" xml:space="preserve">
<g id="Calque_1">
	<rect fill="#1A1A1A" width="256" height="256"/>
	<g>
		<defs>
			<rect id="SVGID_1_" x="70.7" y="70.4" width="113.8" height="111.8"/>
		</defs>
		<clipPath id="SVGID_2_">
			<use xlink:href="#SVGID_1_"  overflow="visible"/>
		</clipPath>
		<polygon clip-path="url(#SVGID_2_)" fill="none" stroke="#83754E" stroke-width="10" points="129.2,171.5 171.6,129.2 
			172.5,128.3 171.6,127.3 129.2,85.1 128.2,84.1 127.3,85.1 84.9,127.3 83.9,128.3 84.9,129.2 127.3,171.5 128.2,172.5 		"/>
	</g>
</g>
<g id="Calque_2" display="none">
	<rect display="inline" fill="#1A1A1A" width="256" height="256"/>
	<g display="inline">
		<defs>
			<rect id="SVGID_3_" x="62.4" y="116.3" width="135.8" height="126.3"/>
		</defs>
		<clipPath id="SVGID_4_">
			<use xlink:href="#SVGID_3_"  overflow="visible"/>
		</clipPath>
		<polygon clip-path="url(#SVGID_4_)" fill="none" stroke="#83754E" stroke-width="10" points="129,223.9 171.4,181.6 172.4,180.7 
			171.4,179.7 129,137.5 128.1,136.5 127.1,137.5 84.7,179.7 83.8,180.7 84.7,181.6 127.1,223.9 128.1,224.8 		"/>
	</g>
	<g display="inline">
		<defs>
			<rect id="SVGID_5_" x="67.6" y="13.8" width="120.4" height="120.2"/>
		</defs>
		<clipPath id="SVGID_6_">
			<use xlink:href="#SVGID_5_"  overflow="visible"/>
		</clipPath>
		<polygon clip-path="url(#SVGID_6_)" fill="none" stroke="#83754E" stroke-width="10" points="129,119.4 171.4,77.1 172.4,76.2 
			171.4,75.2 129,33 128.1,32 127.1,33 84.7,75.2 83.8,76.2 84.7,77.1 127.1,119.4 128.1,120.3 		"/>
	</g>
</g>
<g id="Calque_3" display="none">
	<rect display="inline" fill="#1A1A1A" width="256" height="256"/>
	<g display="inline">
		<polygon fill="none" stroke="#83754E" stroke-width="10" points="131,143 173.4,100.7 174.3,99.8 173.4,98.8 131,56.6 130,55.6 
			129,56.6 86.7,98.8 85.7,99.8 86.7,100.7 129,143 130,144 		"/>
		<rect x="70.4" y="40.3" fill="none" width="122.2" height="118.4"/>
		<polygon fill="none" stroke="#83754E" stroke-width="10" points="189.5,201.5 231.9,159.3 232.8,158.3 231.9,157.3 189.5,115.1 
			188.5,114.1 187.6,115.1 145.2,157.3 144.2,158.3 145.2,159.3 187.6,201.5 188.5,202.5 		"/>
		<rect x="132.9" y="105.1" fill="none" width="109.3" height="107.3"/>
		<polygon fill="none" stroke="#83754E" stroke-width="10" points="72.4,201.5 114.8,159.3 115.7,158.3 114.8,157.3 72.4,115.1 
			71.4,114.1 70.5,115.1 28.1,157.3 27.1,158.3 28.1,159.3 70.5,201.5 71.4,202.5 		"/>
		<rect x="13.8" y="100.4" fill="none" width="113.3" height="113.1"/>
	</g>
</g>
<g id="Calque_4" display="none">
	<rect y="0" display="inline" fill="#1A1A1A" width="256" height="256"/>
	<g display="inline">
		<g>
			<polygon fill="none" stroke="#83754E" stroke-width="10" points="131,112.3 173.4,70 174.3,69.1 173.4,68.1 131,25.8 130,24.9 
				129,25.8 86.7,68.1 85.7,69.1 86.7,70 129,112.3 130,113.2 			"/>
			<rect x="70.4" y="9.6" fill="none" width="122.2" height="118.4"/>
			<polygon fill="none" stroke="#83754E" stroke-width="10" points="189.5,170.8 231.9,128.5 232.8,127.6 231.9,126.6 189.5,84.4 
				188.5,83.4 187.6,84.4 145.2,126.6 144.2,127.6 145.2,128.5 187.6,170.8 188.5,171.8 			"/>
			<rect x="132.9" y="74.3" fill="none" width="109.3" height="107.3"/>
			<polygon fill="none" stroke="#83754E" stroke-width="10" points="72.4,170.8 114.8,128.5 115.7,127.6 114.8,126.6 72.4,84.4 
				71.4,83.4 70.5,84.4 28.1,126.6 27.1,127.6 28.1,128.5 70.5,170.8 71.4,171.8 			"/>
			<rect x="13.8" y="69.7" fill="none" width="113.3" height="113.1"/>
		</g>
		<polygon fill="none" stroke="#83754E" stroke-width="10" points="131,143.3 173.4,185.6 174.3,186.5 173.4,187.5 131,229.7 
			130,230.7 129,229.7 86.7,187.5 85.7,186.5 86.7,185.6 129,143.3 130,142.3 		"/>
	</g>
	<rect x="70.4" y="127.6" display="inline" fill="none" width="122.2" height="118.4"/>
	<rect x="132.9" y="73.9" display="inline" fill="none" width="109.3" height="107.3"/>
	<rect x="13.8" y="72.8" display="inline" fill="none" width="113.3" height="113.1"/>
	<polygon display="inline" fill="#83754E" stroke="#83754E" stroke-width="10" points="188.9,146.9 207.7,128.2 208.1,127.8 
		207.7,127.4 188.9,108.7 188.5,108.2 188.1,108.7 169.3,127.4 168.9,127.8 169.3,128.2 188.1,146.9 188.5,147.3 	"/>
	<polygon display="inline" fill="#83754E" stroke="#83754E" stroke-width="10" points="71.8,147.1 90.6,128.4 91,128 90.6,127.6 
		71.8,108.9 71.4,108.5 71,108.9 52.2,127.6 51.8,128 52.2,128.4 71,147.1 71.4,147.5 	"/>
	<polygon display="inline" fill="#83754E" stroke="#83754E" stroke-width="10" points="130.4,88.8 149.2,70.1 149.6,69.7 
		149.2,69.2 130.4,50.5 130,50.1 129.6,50.5 110.8,69.2 110.4,69.7 110.8,70.1 129.6,88.8 130,89.2 	"/>
	<polygon display="inline" fill="#83754E" stroke="#83754E" stroke-width="10" points="130.4,205.9 149.2,187.2 149.6,186.8 
		149.2,186.4 130.4,167.7 130,167.2 129.6,167.7 110.8,186.4 110.4,186.8 110.8,187.2 129.6,205.9 130,206.3 	"/>
</g>
<g id="Calque_5" display="none">
	<rect x="0" y="0" display="inline" fill="#1A1A1A" width="256.2" height="256"/>
	<g display="inline">
		<defs>
			<rect id="SVGID_7_" x="31.9" y="128.2" width="97.7" height="98.7"/>
		</defs>
		<clipPath id="SVGID_8_">
			<use xlink:href="#SVGID_7_"  overflow="visible"/>
		</clipPath>
	</g>
	<g display="inline">
		<defs>
			<rect id="SVGID_9_" x="12.9" y="12.2" width="115.1" height="113.1"/>
		</defs>
		<clipPath id="SVGID_10_">
			<use xlink:href="#SVGID_9_"  overflow="visible"/>
		</clipPath>
		<polygon clip-path="url(#SVGID_10_)" fill="none" stroke="#83754E" stroke-width="10" points="70.6,113 113,70.7 113.9,69.8 
			113,68.8 70.6,26.5 69.6,25.6 68.7,26.5 26.3,68.8 25.3,69.8 26.3,70.7 68.7,113 69.6,113.9 		"/>
	</g>
	<g display="inline">
		<defs>
			<rect id="SVGID_11_" x="132.7" y="14.4" width="109.8" height="109.6"/>
		</defs>
		<clipPath id="SVGID_12_">
			<use xlink:href="#SVGID_11_"  overflow="visible"/>
		</clipPath>
		<polygon clip-path="url(#SVGID_12_)" fill="none" stroke="#83754E" stroke-width="10" points="187.7,113 230.1,70.7 231,69.8 
			230.1,68.8 187.7,26.5 186.7,25.6 185.8,26.5 143.4,68.8 142.4,69.8 143.4,70.7 185.8,113 186.7,113.9 		"/>
	</g>
	<g display="inline">
		<defs>
			<rect id="SVGID_13_" x="68.7" y="68.8" width="122.2" height="118.4"/>
		</defs>
		<clipPath id="SVGID_14_">
			<use xlink:href="#SVGID_13_"  overflow="visible"/>
		</clipPath>
		<polygon clip-path="url(#SVGID_14_)" fill="none" stroke="#83754E" stroke-width="10" points="129.2,171.5 171.6,129.2 
			172.5,128.3 171.6,127.3 129.2,85.1 128.2,84.1 127.3,85.1 84.9,127.3 83.9,128.3 84.9,129.2 127.3,171.5 128.2,172.5 		"/>
	</g>
	<g display="inline">
		<defs>
			<rect id="SVGID_15_" x="131.1" y="133.6" width="109.3" height="107.3"/>
		</defs>
		<clipPath id="SVGID_16_">
			<use xlink:href="#SVGID_15_"  overflow="visible"/>
		</clipPath>
		<polygon clip-path="url(#SVGID_16_)" fill="none" stroke="#83754E" stroke-width="10" points="187.7,230 230.1,187.8 231,186.8 
			230.1,185.8 187.7,143.6 186.7,142.6 185.8,143.6 143.4,185.8 142.4,186.8 143.4,187.8 185.8,230 186.7,231 		"/>
	</g>
	<g display="inline">
		<defs>
			<rect id="SVGID_17_" x="12" y="128.9" width="113.3" height="113.1"/>
		</defs>
		<clipPath id="SVGID_18_">
			<use xlink:href="#SVGID_17_"  overflow="visible"/>
		</clipPath>
		<polygon clip-path="url(#SVGID_18_)" fill="none" stroke="#83754E" stroke-width="10" points="70.6,230 113,187.8 113.9,186.8 
			113,185.8 70.6,143.6 69.6,142.6 68.7,143.6 26.3,185.8 25.3,186.8 26.3,187.8 68.7,230 69.6,231 		"/>
	</g>
	<polygon display="inline" fill="#83754E" stroke="#83754E" stroke-width="10" points="128.4,146.1 145.2,129.3 145.6,128.9 
		145.2,128.5 128.4,111.7 128,111.3 127.6,111.7 110.8,128.5 110.4,128.9 110.8,129.3 127.6,146.1 128,146.4 	"/>
	<polygon display="inline" fill="#83754E" stroke="#83754E" stroke-width="10" points="70.9,88.7 89.6,70 90.1,69.6 89.6,69.1 
		70.9,50.4 70.4,50 70,50.4 51.3,69.1 50.8,69.6 51.3,70 70,88.7 70.4,89.1 	"/>
	<polygon display="inline" fill="#83754E" stroke="#83754E" stroke-width="10" points="187.2,88.7 205.9,70 206.3,69.6 205.9,69.1 
		187.2,50.4 186.7,50 186.3,50.4 167.6,69.1 167.1,69.6 167.6,70 186.3,88.7 186.7,89.1 	"/>
	<polygon display="inline" fill="#83754E" stroke="#83754E" stroke-width="10" points="187.2,205.9 205.9,187.2 206.3,186.7 
		205.9,186.3 187.2,167.6 186.7,167.2 186.3,167.6 167.6,186.3 167.1,186.7 167.6,187.2 186.3,205.9 186.7,206.3 	"/>
	<polygon display="inline" fill="#83754E" stroke="#83754E" stroke-width="10" points="70.9,206.3 89.6,187.6 90.1,187.2 
		89.6,186.8 70.9,168.1 70.4,167.7 70,168.1 51.3,186.8 50.8,187.2 51.3,187.6 70,206.3 70.4,206.8 	"/>
</g>
<g id="Calque_6" display="none">
	<rect display="inline" fill="#1A1A1A" width="256" height="256"/>
	<g display="inline">
		<title>09-FROM-HELL-MARAUDERS</title>
		<g id="Layer_2_2_">
			<g id="Layer_1-2_1_">
				<path fill="#83754E" d="M127.7,228.7L11.4,27.3H244L127.7,228.7z M26.9,36.3l100.8,174.6L228.5,36.3H26.9z"/>
				<polygon fill="#83754E" points="173.2,43.9 177.2,51 181.7,58.6 179.2,62.9 170.2,62.9 160.9,62.9 165.6,71 170.1,78.8 
					167.4,83.4 158.4,83.4 149.1,83.4 153.8,91.5 158.3,99.2 155.5,104 146.8,104 137.5,104 142.2,112.1 146.5,119.5 127.9,152 
					109.1,119.5 113.5,112.1 118.1,104 108.8,104 100.1,104 97.3,99.2 101.8,91.5 106.5,83.4 97.2,83.4 88.2,83.4 85.6,78.8 
					90.1,71 94.7,62.9 85.4,62.9 76.4,62.9 73.9,58.6 78.4,51 82.5,43.9 40,43.9 127.9,196.2 215.7,43.9 				"/>
			</g>
		</g>
	</g>
</g>
</svg>
