{
    "asset" : {
        "generator" : "Khronos glTF Blender I/O v1.3.48",
        "version" : "2.0"
    },
    "extensionsUsed" : [
        "KHR_materials_clearcoat"
    ],
    "scene" : 0,
    "scenes" : [
        {
            "name" : "Scene",
            "nodes" : [
                0
            ]
        }
    ],
    "nodes" : [
        {
            "mesh" : 0,
            "name" : "DegeneSIX"
        }
    ],
    "materials" : [
        {
            "doubleSided" : true,
            "emissiveFactor" : [
                0,
                0,
                0
            ],
            "extensions" : {
                "KHR_materials_clearcoat" : {
                    "clearcoatFactor" : 0.10000000149011612,
                    "clearcoatRoughnessFactor" : 1
                }
            },
            "name" : "Dice_White",
            "pbrMetallicRoughness" : {
                "baseColorFactor" : [
                    1,
                    1,
                    1,
                    1
                ],
                "metallicFactor" : 0,
                "roughnessFactor" : 0.5499999523162842
            }
        },
        {
            "doubleSided" : true,
            "emissiveFactor" : [
                0,
                0,
                0
            ],
            "extensions" : {
                "KHR_materials_clearcoat" : {
                    "clearcoatFactor" : 0.24090909957885742,
                    "clearcoatRoughnessFactor" : 0.4363636374473572
                }
            },
            "name" : "Red Finish",
            "pbrMetallicRoughness" : {
                "baseColorFactor" : [
                    0.8468738794326782,
                    0.012286311015486717,
                    0.02028857357800007,
                    1
                ],
                "metallicFactor" : 0.9363636374473572,
                "roughnessFactor" : 0.5272727012634277
            }
        }
    ],
    "meshes" : [
        {
            "name" : "DegeneSIX",
            "primitives" : [
                {
                    "attributes" : {
                        "POSITION" : 0,
                        "NORMAL" : 1,
                        "TEXCOORD_0" : 2
                    },
                    "indices" : 3,
                    "material" : 0
                },
                {
                    "attributes" : {
                        "POSITION" : 4,
                        "NORMAL" : 5,
                        "TEXCOORD_0" : 6
                    },
                    "indices" : 7,
                    "material" : 1
                }
            ]
        }
    ],
    "accessors" : [
        {
            "bufferView" : 0,
            "componentType" : 5126,
            "count" : 3421,
            "max" : [
                52.58483123779297,
                52.58483123779297,
                52.58483123779297
            ],
            "min" : [
                -52.58483123779297,
                -52.58483123779297,
                -52.58483123779297
            ],
            "type" : "VEC3"
        },
        {
            "bufferView" : 1,
            "componentType" : 5126,
            "count" : 3421,
            "type" : "VEC3"
        },
        {
            "bufferView" : 2,
            "componentType" : 5126,
            "count" : 3421,
            "type" : "VEC2"
        },
        {
            "bufferView" : 3,
            "componentType" : 5123,
            "count" : 12510,
            "type" : "SCALAR"
        },
        {
            "bufferView" : 4,
            "componentType" : 5126,
            "count" : 196,
            "max" : [
                50.393798828125,
                50.393798828125,
                50.393795013427734
            ],
            "min" : [
                -50.393795013427734,
                -50.393795013427734,
                -50.393795013427734
            ],
            "type" : "VEC3"
        },
        {
            "bufferView" : 5,
            "componentType" : 5126,
            "count" : 196,
            "type" : "VEC3"
        },
        {
            "bufferView" : 6,
            "componentType" : 5126,
            "count" : 196,
            "type" : "VEC2"
        },
        {
            "bufferView" : 7,
            "componentType" : 5123,
            "count" : 528,
            "type" : "SCALAR"
        }
    ],
    "bufferViews" : [
        {
            "buffer" : 0,
            "byteLength" : 41052,
            "byteOffset" : 0
        },
        {
            "buffer" : 0,
            "byteLength" : 41052,
            "byteOffset" : 41052
        },
        {
            "buffer" : 0,
            "byteLength" : 27368,
            "byteOffset" : 82104
        },
        {
            "buffer" : 0,
            "byteLength" : 25020,
            "byteOffset" : 109472
        },
        {
            "buffer" : 0,
            "byteLength" : 2352,
            "byteOffset" : 134492
        },
        {
            "buffer" : 0,
            "byteLength" : 2352,
            "byteOffset" : 136844
        },
        {
            "buffer" : 0,
            "byteLength" : 1568,
            "byteOffset" : 139196
        },
        {
            "buffer" : 0,
            "byteLength" : 1056,
            "byteOffset" : 140764
        }
    ],
    "buffers" : [
        {
            "byteLength" : 141820,
            "uri" : "data:application/octet-stream;base64,"
        }
    ]
}
