<?xml version="1.0" encoding="UTF-8" standalone="no"?><!DOCTYPE svg PUBLIC "-//W3C//DTD SVG 1.1//EN" "http://www.w3.org/Graphics/SVG/1.1/DTD/svg11.dtd"><svg width="100%" height="100%" viewBox="0 0 350 138" version="1.1" xmlns="http://www.w3.org/2000/svg" xmlns:xlink="http://www.w3.org/1999/xlink" xml:space="preserve" xmlns:serif="http://www.serif.com/" style="fill-rule:evenodd;clip-rule:evenodd;stroke-linejoin:round;stroke-miterlimit:2;"><g><path d="M0,44.4l0,9.4l28.9,0l-0,74.3l-19.4,0l0,-74.2l-9.5,9.4l0,74.3l38.4,0l0,-93.2l-38.4,0Z" style="fill:#fff;fill-rule:nonzero;"/><path d="M170.3,44.4l0,93.2l9.5,0l0,-83.8l15.3,0l4.1,4.2l-0,79.6l9.5,-0l-0,-83.4l-9.9,-9.8l-28.5,-0Z" style="fill:#fff;fill-rule:nonzero;"/><path d="M85,53l0,84.6l38.4,-0l0,-72.4l-9.5,9.4l0,53.5l-19.4,-0l0,-69.8l4.4,-4.5l24.8,-0l0,-9.4l-30.1,-0l-8.6,8.6Z" style="fill:#fff;fill-rule:nonzero;"/><path d="M156.8,128.1l-15.3,0l-4.4,-4.4l0,-39.3l29.1,-29.1l0,-10.9l-38.6,0l0,83.7l9.6,9.6l29,0l0,-72.5l-9.5,9.5l0.1,53.4Zm-19.7,-74.3l17.2,0l-17.2,17.2l0,-17.2Z" style="fill:#fff;fill-rule:nonzero;"/><path d="M241.8,128.1l-15.5,0l-4.2,-4.2l0,-39.5l29.1,-29.1l0,-10.9l-38.6,0l0,83.9l9.3,9.3l29.2,0l0,-72.4l-9.5,9.5l0.2,53.4Zm-19.7,-74.3l17.2,-0l-17.2,17.2l-0,-17.2Z" style="fill:#fff;fill-rule:nonzero;"/><path d="M71.6,128.1l-15.4,0l-4.4,-4.4l-0,-39.3l29.2,-29.1l-0,-10.9l-38.6,0l-0,83.7l9.5,9.5l29.1,0l-0,-72.4l-9.5,9.5l0.1,53.4Zm-19.7,-74.3l17.2,0l-17.2,17.3l-0,-17.3Z" style="fill:#fff;fill-rule:nonzero;"/><path d="M350,61.4l0,-17l-38.6,0l0,10.3l29.1,28.4l0,45.3l-15,0l-4.6,-4.6l0,-49.2l-9.5,-9.5l0,63l9.8,9.8l28.8,-0l0,-58.8l-26,-25.3l16.5,-0l0,7.6l9.5,-0Z" style="fill:#fff;fill-rule:nonzero;"/><path d="M255.3,54.7l29.1,28.4l-0,45.3l-15,0l-4.6,-4.6l0,-49.2l-9.5,-9.5l0,63l9.8,9.8l28.7,-0l0,-58.8l-25.9,-25.3l16.5,-0l-0,7.6l9.4,-0l0,-17l-38.5,-0l0,10.3Z" style="fill:#fff;fill-rule:nonzero;"/><path d="M297.9,137.6l9.5,0l-0,-92.9l-9.5,9.4l-0,83.5Z" style="fill:#fff;fill-rule:nonzero;"/></g><path d="M311.1,18.6l8.7,8.7l5.4,-0l-12.5,-12.5l-6.1,-0l0,8.7l-4.9,-0l0,-4.9l2,-0l0,-3.8l-2,-0l0,-7.2l-3.8,3.8l0,3.4l-4.9,-0l0,-0.7l8.7,-8.7l0,-5.4l-12.5,12.5l0,6.1l8.7,-0l0,4.9l-4.9,-0l0,-2l-3.8,-0l0,2l-7.2,-0l3.8,3.8l3.4,-0l0,4.9l-0.7,-0l-8.7,-8.7l-5.4,-0l12.5,12.5l6.1,-0l-0,-8.7l4.9,-0l-0,4.8l-2,0l-0,3.9l2,0l-0,7.1l3.8,-3.8l-0,-3.3l4.9,-0l0,0.7l-8.7,8.7l-0,5.4l12.5,-12.5l-0,-6.2l-8.7,-0l-0,-4.8l4.9,-0l0,2l3.8,-0l-0,-2l7.2,-0l-3.8,-3.8l-3.4,-0l-0,-4.9l0.7,-0Z" style="fill:#ec1e26;fill-rule:nonzero;"/></svg>