<?xml version="1.0" encoding="UTF-8" standalone="no"?>
<!DOCTYPE svg PUBLIC "-//W3C//DTD SVG 1.1//EN" "http://www.w3.org/Graphics/SVG/1.1/DTD/svg11.dtd">
<svg width="100%" height="100%" viewBox="0 0 128 128" version="1.1" xmlns="http://www.w3.org/2000/svg" xmlns:xlink="http://www.w3.org/1999/xlink" xml:space="preserve" xmlns:serif="http://www.serif.com/" style="fill-rule:evenodd;clip-rule:evenodd;stroke-linejoin:round;stroke-miterlimit:2;">
    <rect id="Artboard1" x="0" y="0" width="128" height="128" style="fill:none;"/>
    <g id="Artboard11" serif:id="Artboard1">
        <g transform="matrix(1.29384,0,0,1.24091,-36.2089,-19.1872)">
            <path d="M116.771,19.308C120.337,19.308 123.227,22.322 123.227,26.039L123.227,108.035C123.227,111.753 120.337,114.766 116.771,114.766L38.13,114.766C34.565,114.766 31.675,111.753 31.675,108.035L31.675,26.039C31.675,22.322 34.565,19.308 38.13,19.308L116.771,19.308Z" style="fill:rgb(9,9,9);"/>
            <path d="M116.771,19.308C120.337,19.308 123.227,22.322 123.227,26.039L123.227,108.035C123.227,111.753 120.337,114.766 116.771,114.766L38.13,114.766C34.565,114.766 31.675,111.753 31.675,108.035L31.675,26.039C31.675,22.322 34.565,19.308 38.13,19.308L116.771,19.308ZM116.771,22.807L38.13,22.807C36.418,22.807 35.03,24.254 35.03,26.039L35.03,108.035C35.03,109.82 36.418,111.267 38.13,111.267L116.772,111.267C118.483,111.267 119.871,109.82 119.871,108.035L119.871,26.039C119.871,24.254 118.483,22.807 116.771,22.807Z" style="fill:rgb(131,117,78);"/>
        </g>
        <g transform="matrix(0.623548,0,0,0.623548,17.2339,23.5006)">
            <path d="M75,129.9L0,0L150,0L75,129.9ZM10,5.8L75,118.4L140,5.8L10,5.8Z" style="fill:rgb(131,117,78);fill-rule:nonzero;"/>
            <path d="M104.3,10.7L106.9,15.3L109.8,20.2L108.2,23L96.4,23L99.4,28.2L102.3,33.2L100.6,36.2L88.8,36.2L91.8,41.4L94.7,46.4L92.9,49.5L81.3,49.5L84.3,54.7L87.1,59.5L75.1,80.4L63,59.5L65.8,54.7L68.8,49.5L57.2,49.5L55.4,46.4L58.3,41.4L61.3,36.2L49.5,36.2L47.8,33.2L50.7,28.2L53.7,23L41.9,23L40.3,20.2L43.2,15.3L45.8,10.7L18.4,10.7L75.1,108.9L131.7,10.7L104.3,10.7Z" style="fill:rgb(131,117,78);fill-rule:nonzero;"/>
        </g>
    </g>
</svg>
