<?xml version="1.0" encoding="utf-8"?>
<!-- Generator: Adobe Illustrator 24.0.2, SVG Export Plug-In . SVG Version: 6.00 Build 0)  -->
<svg version="1.1" id="Layer_1" xmlns="http://www.w3.org/2000/svg" xmlns:xlink="http://www.w3.org/1999/xlink" x="0px" y="0px"
	 viewBox="0 0 150 150" style="enable-background:new 0 0 150 150;" xml:space="preserve">
<title>07-FROM-HELL-PSYCHONAUTICS</title>
<g id="Layer_2_1_">
	<g id="Layer_1-2">
		<path d="M80.6,58.4L75,51.6l-5.6,6.8C73,57.2,77,57.2,80.6,58.4 M60.9,64.6l-8.3,3.3l4.8,7.7c0-0.2,0-0.4,0-0.6
			C57.5,71.2,58.7,67.6,60.9,64.6 M60.5,85l0.6,9.2l9.1-2.3C66.3,90.8,62.9,88.4,60.5,85 M79.7,91.9l9.1,2.3l0.6-9.2
			C87.1,88.4,83.7,90.8,79.7,91.9 M92.5,75.6l4.8-7.7l-8.3-3.3c2.2,3,3.4,6.7,3.4,10.4C92.5,75.2,92.5,75.4,92.5,75.6 M87.8,57.5
			l4,1.6l-0.9-5.7l-5.8,0.9L87.8,57.5z M98.5,61.8l4.2,1.7l1.7-9.8l-7.4-1.1L98.5,61.8z M89.7,47.5l-3.4-7l-8.8,4.6l3.1,3.8
			L89.7,47.5z M104.3,68.2l-2.5,4l4,8.1l5.5-5.3L104.3,68.2z M98,78.3l-2.3,3.6l-0.3,4.6l5.3-2.8L98,78.3z M95,93.6l-0.3,4.2
			l9.7-1.4l-1.2-7L95,93.6z M90.5,100.9l-4.2-1.1l-6.5,6.4l6.4,3.3L90.5,100.9z M79.4,98.1L75,97l-4.4,1.1l4.4,4.3L79.4,98.1z
			 M63.7,99.8l-4.2,1.1l4.3,8.7l6.4-3.3L63.7,99.8z M55.3,97.8L55,93.6l-8.2-4.2l-1.2,7L55.3,97.8z M54.6,86.5l-0.3-4.6L52,78.3
			l-2.8,5.5L54.6,86.5z M48.2,72.2l-2.5-4l-7,6.8l5.5,5.3L48.2,72.2z M47.3,63.5l4.2-1.7l1.5-9.2l-7.4,1.1L47.3,63.5z M58.1,59.1
			l4-1.6l2.7-3.2L59,53.4L58.1,59.1z M69.4,48.9l3.1-3.8l-8.8-4.6l-3.5,7L69.4,48.9z M75,63.5c-6.3,0-11.5,5.1-11.5,11.5
			S68.7,86.5,75,86.5S86.5,81.3,86.5,75l0,0C86.5,68.7,81.3,63.5,75,63.5 M75,39.5l8.2-4.3L75,27.8l-8.2,7.4L75,39.5z M88.9,32.2
			L88.9,32.2L88.9,32.2l12.5-1.4L95,13.5L79.6,23.7L88.9,32.2z M108.9,36.2l2.5,12.4h0.1v0.1l11,6.2l5-17.8L108.9,36.2z M125.2,63.5
			L120,75l0,0l0,0l5.2,11.5L139.7,75L125.2,63.5z M122.4,95.2l-11,6.2v0.1h-0.1l-2.5,12.3l18.5-0.8L122.4,95.2z M101.5,119.2
			L89,117.8l0,0l0,0l-9.3,8.5L95,136.5L101.5,119.2z M70.5,126.3l-9.3-8.5h-0.1l0,0l-12.5,1.4l6.4,17.3L70.5,126.3z M41.2,113.8
			l-2.5-12.3h-0.1v-0.1l-11-6.2l-5,17.8L41.2,113.8z M24.8,86.5L30,75.1V75l0,0l-5.2-11.5L10.3,75L24.8,86.5z M27.6,54.8l11-6.2
			v-0.1h0.1l2.5-12.4L22.7,37L27.6,54.8z M48.5,30.8l12.5,1.4l0,0h0l9.3-8.5L55,13.5L48.5,30.8z M91.8,38l4.1,8.3l9.1,1.3l-2.2-10.8
			L91.8,38z M110.3,55l-1.6,9l6.6,6.4l4.6-10L110.3,55z M115.3,79.6l-6.6,6.4v0.2l0.1,0.2h-0.1l1.5,8.7l9.6-5.5L115.3,79.6z
			 M105,102.4l-9.1,1.3l-4.1,8.3l11,1.2L105,102.4z M83.2,114.8l-7.8-4.1L75,111l-0.3-0.3l-7.8,4.1l8.2,7.4L83.2,114.8z M58.2,112
			l-4.1-8.3l-9.1-1.3l2.2,10.8L58.2,112z M39.7,95.1l1.5-8.7h-0.1l0.1-0.2V86l-6.6-6.4l-4.5,10L39.7,95.1z M34.7,70.5l6.6-6.5
			l-1.6-9l-9.6,5.5L34.7,70.5z M45,47.6l9.1-1.3l4.1-8.3l-11-1.2L45,47.6z M131.4,105l0.3,1l2.8-0.7l-0.7-1.7L131.4,105z
			 M133.3,111.9l1.9,6.9l-7.1,0.3l0.6,9.6l-9.7-0.6l-1.3,5.7l-5.8-0.6l-2.4,9.4l-9-3.5l-2.5,6.7l-6-4l-5.1,8.2l-7.5-6.2l-4.4,3.9
			l-4.4-3.9l-7.5,6.2l-5.1-8.1l-6,4l-2.5-6.7l-9,3.5l-2.4-9.4l-5.8,0.6l-1.2-5.8l-9.7,0.6l0.6-9.6l-7.1-0.3l1.9-6.9l-9.3-2.4l3.6-9
			l-5-3l2.3-5.4L0,86.9l6.1-7.4L0.5,75l5.6-4.4L0,63.1l8.2-5.2l-2.3-5.4l5-3l-3.6-9l9.3-2.4l-1.9-6.9l7.1-0.3l-0.6-9.6l9.7,0.6
			l1.3-5.7l5.8,0.5l2.4-9.4l9,3.5L52,4.2l6,3.9L63.1,0l7.5,6.2L75,2.3l4.4,3.9L86.9,0l5.2,8.1l6-3.9l2.5,6.7l9-3.5l2.4,9.4l5.8-0.5
			l1.2,5.7l9.7-0.6l-0.6,9.6l7.1,0.3l-1.9,6.9l9.3,2.4l-3.6,9l5,3l-2.3,5.4l8.2,5.2l-6.1,7.4l5.6,4.4l-5.6,4.4l6.1,7.4l-8.2,5.2
			l2.3,5.4l-5,3l3.6,9L133.3,111.9z M122,119.3h-1.1l-0.6,2.7l1.9,0.1L122,119.3z M103,132.4l-0.4,1l2.7,1.1l0.5-1.8L103,132.4z
			 M87,138.5l-0.9-0.6l-2.1,1.8l1.4,1.2L87,138.5z M63.9,137.9l-0.9,0.6l1.6,2.4l1.4-1.2L63.9,137.9z M47.4,133.4l-0.4-1l-2.8,0.3
			l0.5,1.8L47.4,133.4z M29,119.4h-1.1l-0.2,2.9l1.9-0.1L29,119.4z M18.3,106l0.3-1l-2.4-1.4l-0.7,1.7L18.3,106z M11.7,83.9
			l-0.8-0.7l-1.8,2.2l1.6,1L11.7,83.9z M10.9,66.8l0.8-0.7l-1.1-2.5l-1.6,1L10.9,66.8z M18.6,45l-0.3-1l-2.8,0.7l0.7,1.7L18.6,45z
			 M28,30.7h1.1l0.6-2.7l-1.9-0.1L28,30.7z M47,17.6l0.4-1l-2.7-1.1l-0.5,1.8L47,17.6z M63,11.5l0.9,0.6l2.1-1.8l-1.4-1.2L63,11.5z
			 M86.1,12.1l0.9-0.6l-1.5-2.4L84,10.2L86.1,12.1z M102.6,16.6l0.4,1l2.8-0.3l-0.5-1.8L102.6,16.6z M121,30.6h1.1l0.2-2.9l-1.9,0.1
			L121,30.6z M131.7,44l-0.3,1l2.4,1.4l0.7-1.7L131.7,44z M138.3,66.1l0.8,0.7l1.8-2.2l-1.6-1L138.3,66.1z M139.1,83.2l-0.8,0.7
			l1.1,2.6l1.6-1L139.1,83.2z M44.2,23.4L37,22.7l-1.6,7l6.5-0.3L44.2,23.4z M75,10.4l-5.4,4.8l5.4,3.6l5.4-3.6L75,10.4z M113,22.7
			l-7.2,0.7l2.3,6.1l6.5,0.3L113,22.7z M136.4,55l-6.2-3.7l-1.7,6.3l5.1,4L136.4,55z M136.4,94.9l-2.9-6.6l-5.1,4l1.7,6.3
			L136.4,94.9z M113,127.3l1.6-7l-6.5,0.3l-2.3,6.1L113,127.3z M75,139.6l5.4-4.8l-5.4-3.6l-5.4,3.6L75,139.6z M37,127.3l7.2-0.7
			l-2.2-6.1l-6.5-0.3L37,127.3z M13.6,95l6.2,3.7l1.7-6.3l-5.1-4L13.6,95z M13.6,55.1l2.9,6.6l5.1-4l-1.7-6.3L13.6,55.1z"/>
	</g>
</g>
</svg>
