<?xml version="1.0" encoding="utf-8"?>
<!-- Generator: Adobe Illustrator 24.0.2, SVG Export Plug-In . SVG Version: 6.00 Build 0)  -->
<svg version="1.1" id="Layer_1" xmlns="http://www.w3.org/2000/svg" xmlns:xlink="http://www.w3.org/1999/xlink" x="0px" y="0px"
	 viewBox="0 0 150 150" style="enable-background:new 0 0 150 150;" xml:space="preserve">
<title>01-FROM-HELL-BIOKINETICS</title>
<g id="Layer_2_1_">
	<g id="Layer_1-2">
		<path d="M149.3,87.1L139,76.8c-0.1,4-0.6,7.9-1.4,11.8l2.2,2.2l-2.7,41.5l1.1,5.9l-5.9-1.1l-41.5,2.8l-2.2-2.2
			c-3.9,0.8-7.8,1.3-11.8,1.4l10.4,10.4l44.5-3L150,150l-3.6-18.4L149.3,87.1z"/>
		<path d="M88.6,12.4l2.2-2.2l41.5,2.7l5.9-1.2l-1.1,5.9l2.8,41.5l-2.2,2.2c0.8,3.9,1.3,7.8,1.4,11.8l10.4-10.4l-3-44.5L150,0
			l-18.4,3.6L87.1,0.7L76.8,11C80.7,11.1,84.7,11.6,88.6,12.4z"/>
		<path d="M0.7,62.9L11,73.2c0.1-4,0.6-7.9,1.4-11.8l-2.2-2.2L13,17.8l-1.2-5.9l5.9,1.1l41.5-2.8l2.2,2.2c3.9-0.8,7.8-1.3,11.8-1.4
			L62.9,0.7L18.4,3.6L0,0l3.6,18.4L0.7,62.9z"/>
		<path d="M61.4,137.6l-2.2,2.2L17.8,137l-5.9,1.2l1.2-5.9l-2.8-41.5l2.2-2.2c-0.8-3.9-1.3-7.8-1.4-11.8L0.7,87.1l3,44.5L0,150
			l18.4-3.6l44.5,3L73.2,139C69.3,138.9,65.3,138.4,61.4,137.6z"/>
		<path d="M50.2,31.7c15.1-8.4,33.4-8.4,48.4,0h15.8c-22.6-20.8-57.5-20.8-80.1,0H50.2z"/>
		<path d="M118.3,35.5v16.2c7.7,14.6,7.7,32,0,46.6v16.2C138.5,92.1,138.5,58,118.3,35.5z"/>
		<path d="M98.8,118.3c-15.1,8.5-33.6,8.5-48.7,0H34.3c22.6,21,57.6,21,80.3,0H98.8z"/>
		<path d="M31.7,100.3c-9.2-15.6-9.2-34.9,0-50.5V34.4c-21.6,22.8-21.6,58.5,0,81.3V100.3z"/>
		<path d="M113.7,113.7H36.3V36.3h77.3V113.7z M45.7,104.3h58.6V45.7H45.7L45.7,104.3z"/>
		<path d="M75,102.7L47,54.1h56L75,102.7z M64.3,64.1L75,82.7l10.7-18.6H64.3z"/>
	</g>
</g>
</svg>
