<?xml version="1.0" encoding="utf-8"?>
<!-- Generator: Adobe Illustrator 24.0.2, SVG Export Plug-In . SVG Version: 6.00 Build 0)  -->
<svg version="1.1" id="Layer_1" xmlns="http://www.w3.org/2000/svg" xmlns:xlink="http://www.w3.org/1999/xlink" x="0px" y="0px"
	 viewBox="0 0 149.9 150" style="enable-background:new 0 0 149.9 150;" xml:space="preserve">
<title>03-FROM-HELL-PHEROMANCERS</title>
<g id="Layer_2_1_">
	<g id="Layer_1-2">
		<path d="M74.9,124.8C47.3,124.8,25,102.5,25,75s22.3-49.9,49.9-49.9c27.5,0,49.9,22.3,49.9,49.9c0,0,0,0,0,0
			C124.7,102.5,102.4,124.8,74.9,124.8z M74.9,34.4c-22.4,0-40.6,18.2-40.6,40.6s18.2,40.6,40.6,40.6c22.4,0,40.6-18.1,40.6-40.5
			C115.4,52.6,97.3,34.4,74.9,34.4z"/>
		<path d="M74.9,128.2L59,100.6H29.4l14.8-25.6L29.6,49.8h29.2l16-27.6l16,27.6h29.5l-14.8,25.5l14.6,25.3H90.8L74.9,128.2z
			 M68.7,100.6l6.2,10.8l6.2-10.8H68.7z M95.7,92.2h9.7l-4.9-8.4L95.7,92.2z M63.8,92.2H86l9.7-16.8l-9.9-17.1H63.6l-9.7,16.9
			L63.8,92.2z M44,92.2h10.1l-5-8.7L44,92.2z M95.5,58.2l5,8.7l5-8.7H95.5z M44.2,58.2l4.9,8.4l4.9-8.4L44.2,58.2z M68.5,49.8H81
			L74.7,39L68.5,49.8z"/>
		<path d="M86.3,21.3l4-3.8l3.1,10.9l0.3,0.3l-0.3-0.1l2.7,9.5l9.6-2.4c-0.6-0.5-1-0.8-1-0.8L94.9,0L79.8,14.8L86.3,21.3z"/>
		<path d="M34.2,38.4l-1.4-5.5l20.8,5.3l2.7-9.4l-0.7,0.3l-35.6-9l5.2,20.6L34.2,38.4z"/>
		<path d="M58,22.8l1.5-5.2l8.1,7.9l0.6,0.2l-0.4,0.1l7,6.8l7-6.9c-0.6-0.1-1-0.1-1-0.1L54.7,0.3l-5.7,20L58,22.8z"/>
		<path d="M35.7,44.1c-0.5,0.7-0.8,1.1-0.8,1.1L0,55l14.7,15.2l6.6-6.5l-3.9-4l20.7-5.8L35.7,44.1z"/>
		<path d="M63.5,128.5l-4,3.9l-5.8-20.7l-9.4,2.4l0.5,0.3l2.4,8.5l0,0l7.6,27L70,135.2L63.5,128.5z"/>
		<path d="M25.5,67.9c-0.1,0.8-0.1,1.2-0.1,1.2l-25.4,26l20.1,5.7l2.5-9l-5.2-1.5l7.8-8l0.2-0.7l0.1,0.5l6.9-7.1L25.5,67.9z"/>
		<path d="M149.9,95.1l-14.8-15.2l-6.6,6.5l3.9,4l-11.1,3.1l0,0l0,0l-9.6,2.7l2.4,9.6c0.3-0.4,0.5-0.7,0.5-0.7l8.3-2.3v-0.1
			L149.9,95.1z"/>
		<path d="M38,115.7l-5.2,1.3l2.7-10.8l-0.2-0.9l0.4,0.5l2.4-9.6l-9.4-2.7c0.2,0.4,0.3,0.7,0.3,0.7l-2.9,11.4L20,129.9l20.4-5.2
			L38,115.7z"/>
		<path d="M109.2,25.2l2.3,9l5.5-1.3l-5.3,20.8l9.5,2.7c-0.2-0.5-0.4-0.8-0.4-0.8l2.1-8.4l0,0l6.8-27.2L109.2,25.2z"/>
		<path d="M115.7,111.9l1.3,5.1l-10.7-2.7l-0.8,0.2l0.4-0.3l-9.7-2.5l-2.7,9.6c0.7-0.3,1-0.5,1-0.5l35.3,8.7l-5.1-20.1L115.7,111.9z
			"/>
		<path d="M91.8,127.2l-1.5,5.2l-8-7.8l-0.5-0.1h0.3l-7.2-7l-7.2,7c0.9,0.1,1.4,0.2,1.4,0.2L95,149.9l5.7-20.3L91.8,127.2z"/>
		<path d="M124.4,82.2c0.1-0.9,0.2-1.4,0.2-1.4l25.3-26l-20.2-5.7l-2.5,9l5.2,1.5l-7.8,8l-0.2,0.7l-0.1-0.4l-6.9,7.2L124.4,82.2z"/>
	</g>
</g>
</svg>
