<?xml version="1.0" encoding="utf-8"?>
<!-- Generator: Adobe Illustrator 24.0.2, SVG Export Plug-In . SVG Version: 6.00 Build 0)  -->
<svg version="1.1" id="Layer_1" xmlns="http://www.w3.org/2000/svg" xmlns:xlink="http://www.w3.org/1999/xlink" x="0px" y="0px"
	 viewBox="0 0 150 63.3" style="enable-background:new 0 0 150 63.3;" xml:space="preserve">
<title>08-FROM-HELL-RECOMBINATION-GROUP</title>
<g id="Layer_2_1_">
	<g id="Layer_1-2">
		<path d="M90.9,54c0.1,0.1,0.3,0.2,0.4,0.3c0.1,0.1,0.2,0.2,0.2,0.3c0,0.1,0.1,0.3,0.1,0.4c0,0.2-0.1,0.4-0.2,0.6
			c-0.1,0.2-0.3,0.3-0.5,0.4c0.2,0.1,0.3,0.2,0.4,0.3c0.1,0.2,0.1,0.4,0.1,0.6v0.3c0,0.1,0,0.2,0,0.4c0,0.1,0.1,0.2,0.2,0.2v0.1
			h-0.9c0-0.1,0-0.1-0.1-0.2c0-0.1,0-0.2,0-0.3V57c0-0.2,0-0.4-0.1-0.5c-0.1-0.1-0.3-0.2-0.5-0.1h-0.8v1.6h-0.8v-4h1.9
			C90.5,53.9,90.7,53.9,90.9,54z M89.1,54.6v1.1H90c0.1,0,0.3,0,0.4-0.1c0.2-0.1,0.3-0.3,0.2-0.5c0-0.2-0.1-0.4-0.2-0.5
			c-0.1-0.1-0.3-0.1-0.4-0.1H89.1z"/>
		<path d="M94.8,54.6h-2.1v0.8h1.9v0.7h-1.9v1h2.2v0.7h-3v-4h2.9L94.8,54.6z"/>
		<path d="M95.4,54.3c0.3-0.3,0.8-0.5,1.2-0.5c0.6,0,1.1,0.2,1.5,0.7c0.2,0.2,0.3,0.5,0.3,0.8h-0.8c0-0.2-0.1-0.3-0.2-0.4
			c-0.2-0.2-0.4-0.3-0.7-0.3c-0.3,0-0.5,0.1-0.7,0.4c-0.2,0.3-0.3,0.6-0.3,1c0,0.4,0.1,0.7,0.3,1c0.2,0.2,0.4,0.3,0.7,0.3
			c0.3,0,0.5-0.1,0.7-0.3c0.1-0.1,0.2-0.3,0.2-0.5h0.8c-0.1,0.4-0.3,0.8-0.6,1.1c-0.3,0.3-0.7,0.4-1.1,0.4c-0.5,0-1-0.2-1.3-0.5
			c-0.3-0.4-0.5-1-0.5-1.5C94.8,55.3,95,54.7,95.4,54.3z"/>
		<path d="M101.6,57.5c-0.8,0.6-1.9,0.6-2.6,0c-0.4-0.4-0.7-1-0.6-1.7c0-0.6,0.2-1.2,0.6-1.6c0.8-0.6,1.9-0.6,2.6,0
			c0.4,0.4,0.7,1,0.6,1.7C102.3,56.5,102,57.1,101.6,57.5z M101.1,56.9c0.2-0.3,0.3-0.6,0.3-1c0-0.4-0.1-0.7-0.3-1
			c-0.2-0.2-0.5-0.4-0.8-0.4c-0.3,0-0.6,0.1-0.8,0.4c-0.4,0.6-0.4,1.4,0,2.1c0.2,0.2,0.5,0.4,0.8,0.4
			C100.6,57.4,100.9,57.2,101.1,56.9z"/>
		<path d="M105,53.9h1.2v4h-0.8v-2.7c0-0.1,0-0.2,0-0.3v-0.3l-0.8,3.4h-0.8l-0.8-3.4v3.4h-0.8v-4h1.2l0.7,3.1L105,53.9z"/>
		<path d="M109.5,54.3c0.1,0.2,0.2,0.4,0.2,0.6c0,0.2-0.1,0.4-0.2,0.6c-0.1,0.1-0.2,0.2-0.3,0.2c0.2,0.1,0.4,0.2,0.5,0.3
			c0.1,0.2,0.2,0.4,0.2,0.6c0,0.2-0.1,0.4-0.2,0.6c-0.1,0.1-0.2,0.2-0.3,0.3c-0.1,0.1-0.3,0.2-0.4,0.2c-0.2,0-0.4,0.1-0.6,0.1h-1.8
			v-4h1.9C108.8,53.8,109.2,54,109.5,54.3z M107.3,54.6v0.9h1c0.1,0,0.3,0,0.4-0.1c0.1-0.1,0.2-0.2,0.2-0.3c0-0.2-0.1-0.3-0.2-0.4
			c-0.2,0-0.3-0.1-0.5-0.1L107.3,54.6z M107.3,56.1v1.1h1c0.1,0,0.3,0,0.4-0.1c0.2-0.1,0.3-0.3,0.3-0.5c0-0.2-0.1-0.4-0.3-0.4
			c-0.1,0-0.3-0.1-0.4-0.1H107.3z"/>
		<path d="M110.8,57.9h-0.8v-4h0.8V57.9z"/>
		<path d="M111,53.9h0.9l1.6,2.8v-2.8h0.8v4h-0.8l-1.6-2.8v2.8H111V53.9z"/>
		<path d="M115.7,53.9h1l1.4,4h-0.9l-0.3-0.8h-1.5l-0.3,0.8h-0.9L115.7,53.9z M115.7,56.4h1l-0.5-1.6L115.7,56.4z"/>
		<path d="M120.6,53.9v0.7h-1.2v3.3h-0.8v-3.3h-1.2v-0.7H120.6z"/>
		<path d="M121.3,57.9h-0.8v-4h0.8V57.9z"/>
		<path d="M124.7,57.5c-0.8,0.6-1.9,0.6-2.6,0c-0.4-0.4-0.6-1-0.6-1.7c0-0.6,0.2-1.2,0.6-1.7c0.8-0.6,1.9-0.6,2.6,0
			c0.4,0.4,0.7,1,0.6,1.7C125.3,56.5,125.1,57.1,124.7,57.5z M124.2,56.9c0.2-0.3,0.3-0.6,0.3-1c0-0.4-0.1-0.7-0.3-1
			c-0.3-0.4-1-0.5-1.4-0.2c-0.1,0.1-0.1,0.1-0.2,0.2c-0.4,0.6-0.4,1.4,0,2.1c0.2,0.2,0.5,0.4,0.8,0.4
			C123.7,57.4,124,57.2,124.2,56.9z"/>
		<path d="M125.4,53.9h0.9l1.6,2.8v-2.8h0.8v4h-0.8l-1.6-2.8v2.8h-0.8L125.4,53.9z"/>
		<path d="M91,60.5c0-0.3-0.2-0.5-0.5-0.6c-0.1-0.1-0.3-0.1-0.5-0.1c-0.3,0-0.6,0.1-0.8,0.4c-0.2,0.3-0.3,0.7-0.3,1.1
			c0,0.4,0.1,0.7,0.3,1c0.2,0.2,0.5,0.3,0.8,0.3c0.3,0,0.5-0.1,0.7-0.2c0.2-0.2,0.3-0.4,0.3-0.6h-0.9V61h1.7v2.2h-0.6l-0.1-0.5
			c-0.1,0.2-0.3,0.3-0.4,0.4c-0.2,0.1-0.5,0.2-0.8,0.2c-0.5,0-1-0.2-1.3-0.5c-0.4-0.4-0.6-1-0.5-1.5c0-0.6,0.2-1.1,0.5-1.6
			c0.4-0.4,0.9-0.6,1.4-0.6c0.4,0,0.9,0.1,1.2,0.4c0.3,0.2,0.5,0.6,0.5,1L91,60.5z"/>
		<path d="M94.7,59.3c0.1,0.1,0.3,0.2,0.4,0.3c0.1,0.1,0.1,0.2,0.2,0.3c0,0.1,0.1,0.3,0.1,0.4c0,0.2-0.1,0.4-0.1,0.6
			c-0.1,0.2-0.3,0.3-0.5,0.4c0.2,0.1,0.3,0.2,0.4,0.3c0.1,0.2,0.1,0.4,0.1,0.6v0.3c0,0.1,0,0.2,0,0.4c0,0.1,0.1,0.2,0.2,0.2v0.1
			h-0.9c0-0.1,0-0.1-0.1-0.2c0-0.1,0-0.2,0-0.3v-0.4c0-0.2,0-0.4-0.1-0.5c-0.1-0.1-0.3-0.1-0.5-0.1H93v1.6h-0.8v-4h1.9
			C94.3,59.2,94.5,59.3,94.7,59.3z M93,59.9V61h0.9c0.1,0,0.3,0,0.4-0.1c0.2-0.1,0.3-0.3,0.2-0.5c0-0.2-0.1-0.4-0.2-0.5
			c-0.1-0.1-0.2-0.1-0.4-0.1H93z"/>
		<path d="M98.7,62.9c-0.8,0.6-1.9,0.6-2.6,0c-0.4-0.4-0.6-1-0.6-1.7c0-0.6,0.2-1.2,0.6-1.7c0.8-0.6,1.9-0.6,2.6,0
			c0.4,0.4,0.7,1,0.6,1.7C99.4,61.8,99.1,62.4,98.7,62.9z M98.2,62.3c0.2-0.3,0.3-0.6,0.3-1c0-0.4-0.1-0.7-0.3-1
			c-0.2-0.2-0.5-0.4-0.8-0.4c-0.3,0-0.6,0.1-0.8,0.4c-0.4,0.6-0.4,1.4,0,2.1c0.2,0.2,0.5,0.4,0.8,0.4C97.7,62.7,98,62.5,98.2,62.3z"
			/>
		<path d="M99.5,59.2h0.8v2.5c0,0.2,0,0.4,0.1,0.6c0.1,0.2,0.4,0.4,0.7,0.3c0.3,0,0.5-0.1,0.7-0.3c0.1-0.2,0.1-0.4,0.1-0.6v-2.5h0.8
			v2.5c0,0.3-0.1,0.7-0.2,1c-0.3,0.5-0.9,0.7-1.4,0.7c-0.6,0.1-1.1-0.2-1.4-0.7c-0.1-0.3-0.2-0.7-0.2-1L99.5,59.2z"/>
		<path d="M105.7,61.5c-0.3,0.2-0.6,0.3-1,0.3h-0.8v1.4H103v-4h1.7c0.4,0,0.7,0.1,1,0.3c0.3,0.3,0.4,0.6,0.3,1
			C106.1,60.9,105.9,61.2,105.7,61.5z M105,60c-0.1-0.1-0.3-0.1-0.4-0.1h-0.8v1.2h0.8c0.2,0,0.3,0,0.4-0.1c0.1-0.1,0.2-0.3,0.2-0.5
			C105.2,60.4,105.1,60.2,105,60z"/>
		<polygon points="41.5,28.2 62.6,57.5 84.9,57.5 57.5,21.8 68.5,12.1 62.6,0 0,0 5.9,12.1 13.4,12.1 13.4,49.8 50.3,49.8 
			39.6,35.1 28.1,35.1 28.1,12.1 50.1,12.1 31.9,28.2 		"/>
		<polygon points="120.5,19.5 116,19.5 106.1,19.5 100.8,19.5 113.7,35.1 87.1,35.1 87.1,12.1 127.6,12.1 119.7,0 65.1,0 71,12.1 
			72.5,12.1 72.5,37.6 81.9,49.8 101.6,49.8 101.6,49.8 106.1,49.8 116,49.8 120.5,49.8 133,34.7 		"/>
		<polygon points="137.5,19.5 150,34.7 137.5,49.8 123.1,49.8 135.6,34.7 123.1,19.5 		"/>
	</g>
</g>
</svg>
