<?xml version="1.0" encoding="utf-8"?>
<!-- Generator: Adobe Illustrator 24.0.2, SVG Export Plug-In . SVG Version: 6.00 Build 0)  -->
<svg version="1.1" id="Layer_1" xmlns="http://www.w3.org/2000/svg" xmlns:xlink="http://www.w3.org/1999/xlink" x="0px" y="0px"
	 viewBox="0 0 150 129.9" style="enable-background:new 0 0 150 129.9;" xml:space="preserve">
<title>09-FROM-HELL-MARAUDERS</title>
<g id="Layer_2_1_">
	<g id="Layer_1-2">
		<path d="M75,129.9L0,0h150L75,129.9z M10,5.8l65,112.6L140,5.8H10z"/>
		<polygon points="104.3,10.7 106.9,15.3 109.8,20.2 108.2,23 102.4,23 96.4,23 99.4,28.2 102.3,33.2 100.6,36.2 94.8,36.2 
			88.8,36.2 91.8,41.4 94.7,46.4 92.9,49.5 87.3,49.5 81.3,49.5 84.3,54.7 87.1,59.5 75.1,80.4 63,59.5 65.8,54.7 68.8,49.5 
			62.8,49.5 57.2,49.5 55.4,46.4 58.3,41.4 61.3,36.2 55.3,36.2 49.5,36.2 47.8,33.2 50.7,28.2 53.7,23 47.7,23 41.9,23 40.3,20.2 
			43.2,15.3 45.8,10.7 18.4,10.7 75.1,108.9 131.7,10.7 		"/>
	</g>
</g>
</svg>
