<?xml version="1.0" encoding="utf-8"?>
<!-- Generator: Adobe Illustrator 24.0.2, SVG Export Plug-In . SVG Version: 6.00 Build 0)  -->
<svg version="1.1" id="Layer_1" xmlns="http://www.w3.org/2000/svg" xmlns:xlink="http://www.w3.org/1999/xlink" x="0px" y="0px"
	 viewBox="0 0 150 136.4" style="enable-background:new 0 0 150 136.4;" xml:space="preserve">
<title>07-FROM-HELL-AMUSMOS</title>
<g id="Layer_2_1_">
	<g id="Layer_1-2">
		<polygon points="56.8,124.4 43.6,120.5 39.5,98.9 52.1,97 		"/>
		<polygon points="93.2,124.4 106.4,120.5 110.5,98.9 97.9,97 		"/>
		<polygon points="78.7,122.7 71.3,122.7 68.8,122.7 65.1,131.4 65.1,136.4 84.9,136.4 84.9,131.4 81.2,122.7 		"/>
		<path d="M111.1,60.8l5-10.5v-26c-3.3-6.2-12.7-17.2-22-24.4H55.9c-9.4,7.2-18.8,18.2-22,24.4v26l5,10.5L33.3,64l6,11.7L52.2,81
			l7.4,44l4,4.6l3.7-8.4h15.4l3.7,8.4l4-4.6l7.4-44l12.9-5.3l6-11.7L111.1,60.8z M62.4,62.8L58.1,66l-9.9-3l-2.5-5.7l-5-3.9L62.4,60
			L62.4,62.8z M104.2,57.3l-2.5,5.7l-9.9,3l-4.3-3.2V60l21.7-6.7L104.2,57.3z"/>
		<polygon points="118.4,50.9 117.1,53.6 132.7,47.3 146.8,50.2 150,42.7 148.2,38.2 144.3,35.8 145.4,31.4 143.6,26.9 136.1,23.7 
			128,35.6 118.4,39.4 		"/>
		<polygon points="132.7,80.2 114.7,73 112.4,77.5 102.3,81.6 128,91.9 136.1,103.8 143.6,100.6 145.4,96.2 144.3,91.7 148.2,89.3 
			150,84.8 146.8,77.3 		"/>
		<polygon points="37.6,77.5 35.3,73 17.3,80.2 3.2,77.3 0,84.8 1.8,89.3 5.7,91.7 4.6,96.2 6.4,100.6 13.9,103.8 22,91.9 
			47.7,81.6 		"/>
		<polygon points="17.3,47.3 32.9,53.6 31.6,50.9 31.6,39.4 22,35.6 13.9,23.7 6.4,26.9 4.6,31.4 5.7,35.8 1.8,38.2 0,42.7 
			3.2,50.2 		"/>
	</g>
</g>
</svg>
