<?xml version="1.0" encoding="utf-8"?>
<!-- Generator: Adobe Illustrator 24.0.2, SVG Export Plug-In . SVG Version: 6.00 Build 0)  -->
<svg version="1.1" id="Layer_1" xmlns="http://www.w3.org/2000/svg" xmlns:xlink="http://www.w3.org/1999/xlink" x="0px" y="0px"
	 viewBox="0 0 150 129.5" style="enable-background:new 0 0 150 129.5;" xml:space="preserve">
<title>06-FROM-HELL-LEVIATHANS</title>
<g id="Layer_2_1_">
	<g id="Layer_1-2">
		<path d="M75,112.8c-26.6,0-48.1-21.5-48.1-48.1c0-26.6,21.5-48.1,48.1-48.1c12.8,0,25,5.1,34,14.1l0,0c18.8,18.8,18.8,49.2,0,68
			C100,107.7,87.8,112.8,75,112.8z M75,24.3c-22.4,0-40.5,18.1-40.5,40.5s18.1,40.5,40.5,40.5s40.5-18.1,40.5-40.5
			c0-10.7-4.3-21-11.9-28.6l0,0C96,28.5,85.7,24.3,75,24.3z"/>
		<path d="M75,100.7c-19.8,0-35.9-16.1-35.9-35.9c0-19.8,16.1-35.9,35.9-35.9c19.8,0,35.9,16.1,35.9,35.9c0,9.5-3.8,18.7-10.5,25.4
			C93.7,96.9,84.5,100.7,75,100.7z M47,57.1c-4.2,15.5,5,31.4,20.5,35.5c15.5,4.2,31.4-5,35.5-20.5c1.3-4.9,1.3-10.2,0-15.1
			c0,15.5-12.5,28-28,28C59.6,85.1,47,72.6,47,57.1L47,57.1z M75,35.9c-11.7,0-21.1,9.5-21.1,21.1S63.4,78.2,75,78.1
			S96.1,68.7,96.1,57c0-5.6-2.2-11-6.2-14.9C86,38.1,80.6,35.9,75,35.9z"/>
		<path d="M112.9,129.5l-10.6-5.1l-23.7-4.6l-3.5-6l-3.5,6l-23.7,4.6l-10.6,5.1l-0.7-11.7l-7.7-22.9l3.1-5.3h-6.2L9.8,71.3L0,64.7
			l9.8-6.6L25.7,40h6.2l-3.1-5.3l7.7-22.9L37.1,0l10.6,5.1l23.7,4.6l3.5,6l3.5-6l23.7-4.6L112.9,0l0.7,11.7l7.7,22.9l-3.1,5.3h6.2
			l15.9,18.2l9.8,6.6l-9.8,6.6l-15.9,18.2h-6.2l3.1,5.3l-7.7,22.9L112.9,129.5z M37.1,95.7l6.9,20.6l0.1,1.4l1.3-0.6l21.3-4.1
			l3.1-5.3l5.2,3l5.2-3.1l3.1,5.4l21.3,4.1l1.3,0.6l0.1-1.4l6.9-20.6l-3.1-5.3l4.9-2.8v-5.7h6.2l14.3-16.3l1.2-0.8l-1.2-0.7
			l-14.3-16.3h-6.2V42l-4.9-2.8l3.1-5.3L106,13.2v-1.4l-1.3,0.6l-21.3,4.1l-3.1,5.3L75,18.8l-5.2,3.1l-3.1-5.3l-21.3-4.1L44,11.8
			l0,1.4l-6.9,20.6l3.1,5.3L35.3,42v5.6h-6.2L14.9,64l-1.2,0.8l1.2,0.8l14.3,16.3h6.2v5.7l4.9,2.8L37.1,95.7z"/>
	</g>
</g>
</svg>
