<?xml version="1.0" encoding="utf-8"?>
<!-- Generator: Adobe Illustrator 24.0.2, SVG Export Plug-In . SVG Version: 6.00 Build 0)  -->
<svg version="1.1" id="Layer_1" xmlns="http://www.w3.org/2000/svg" xmlns:xlink="http://www.w3.org/1999/xlink" x="0px" y="0px"
	 viewBox="0 0 150 77.9" style="enable-background:new 0 0 150 77.9;" xml:space="preserve">
<title>02-FROM-HELL-PREGNOCTICS</title>
<g id="Layer_2_1_">
	<g id="Layer_1-2">
		<path d="M38.4,59.1h-3.3L17.8,39.8L16.4,39l1.3-0.9l17.3-19.2h3.3c1.9-3.3,4.1-6.3,6.8-8.9H31.1L11.9,31.2L0,39l11.9,7.7L31.1,68
			h14.1C42.6,65.3,40.3,62.3,38.4,59.1z"/>
		<path d="M138.1,31.2L118.9,9.9h-14.1c2.7,2.7,5,5.7,6.8,9h3.3l17.3,19.2l1.3,0.9l-1.3,0.9l-17.3,19.2h-3.3c-1.9,3.3-4.1,6.3-6.8,9
			h14.1l19.2-21.3L150,39L138.1,31.2z"/>
		<path d="M55.2,16.1c11.5-9.6,28.1-9.6,39.6,0H107C94-1.5,69.1-5.3,51.4,7.7c-3.2,2.4-6.1,5.2-8.4,8.4H55.2z"/>
		<path d="M66.9,67.9C53.8,64.4,44.6,52.6,44.5,39c0-2.6,0.3-5.2,1-7.7l-5.8-9.8C37,26.9,35.5,32.9,35.5,39
			c0,20.7,16.5,37.7,37.2,38.9L66.9,67.9z"/>
		<path d="M110.3,21.5l-5.8,9.8c0.7,2.5,1,5.1,1,7.7c-0.1,13.6-9.3,25.4-22.4,28.9l-5.8,10C98,76.7,114.5,59.7,114.5,39
			C114.5,32.9,113.1,26.9,110.3,21.5z"/>
		<path d="M75,75.8L42.6,20.4h64.8L75,75.8z M58.2,29.4L75,58.1l16.8-28.7L58.2,29.4z"/>
	</g>
</g>
</svg>
