<?xml version="1.0" encoding="utf-8"?>
<!-- Generator: Adobe Illustrator 24.0.2, SVG Export Plug-In . SVG Version: 6.00 Build 0)  -->
<svg version="1.1" id="Layer_1" xmlns="http://www.w3.org/2000/svg" xmlns:xlink="http://www.w3.org/1999/xlink" x="0px" y="0px"
	 viewBox="0 0 150 143.1" style="enable-background:new 0 0 150 143.1;" xml:space="preserve">
<title>04-FROM-HELL-PSYCHOKINETICS</title>
<g id="Layer_2_1_">
	<g id="Layer_1-2">
		<path d="M74.8,27c-9.4,0-18.5,3-26.1,8.5l0,0.1h-0.1c-4.1,3-7.6,6.6-10.5,10.8h73.6c-2.9-4.2-6.4-7.8-10.5-10.8h-0.1v-0.1
			C93.5,30,84.4,27,75,27H74.8L74.8,27z M34.7,52.1c-0.9,1.8-1.6,3.6-2.2,5.5v0.1l-0.1,0.1c-2.9,8.9-2.9,18.5,0,27.4l0.1,0.1v0.1
			c2.9,8.9,8.5,16.6,16.1,22.2h0.1v0.1c6.7,4.9,14.6,7.8,22.9,8.3L34.7,52.1z M78.1,116.1c8.3-0.6,16.2-3.5,22.9-8.3v-0.1h0.1
			c7.6-5.5,13.2-13.3,16.1-22.2v-0.1l0.1-0.1c2.9-8.9,2.9-18.5,0-27.3l-0.1-0.1v-0.1c-0.6-1.9-1.4-3.8-2.2-5.6L78.1,116.1z M77,18.6
			c6.9,0.3,13.7,1.9,20,4.8l-3.3-9.9l-6.7,4.8l-7.3-5.1L98.1,0l9,27.2l0,0l1,3.1v0.1c5.3,4.2,9.7,9.4,13,15.3l3.2-10h-8l-2.8-8.4
			l22,0.1L126,56.9l-0.1,0.3c1.3,4.7,2,9.5,2,14.4c0,2.1-0.1,4.1-0.3,6.2l8.4-6.2l-6.7-4.9l2.7-8.4l18,13.3l-25.3,18.3
			c-2.4,6.6-6.1,12.6-10.8,17.7l10.5-0.1l-2.6-8.2l7.2-5.2l6.9,21.7l-27,0.2h-4.9c-5.7,3.7-12,6.3-18.6,7.6l8.5,6.1l2.5-7.6h8.8
			l-7,21.1l-1.3-1l-23.9-17.3c0,0-0.1-0.1-0.4-0.2c-6.9-0.3-13.6-1.9-19.8-4.8l3.3,9.9l6.7-4.8l7.2,5.2L51.8,143l-9.9-30
			c-5.4-4.3-9.9-9.5-13.2-15.5l-3.2,10l8.2,0.1l2.8,8.4l-21.6-0.1l9.1-29.7c-1.3-4.7-2-9.6-2-14.6c0-2.1,0.1-4.1,0.4-6.2l-8.4,6.2
			l6.7,4.9L17.9,85L0,71.9l24.9-18.4l0.2-0.3c2.4-6.5,6.1-12.5,10.8-17.5l-10.5,0.1l2.5,8L20.9,49l-6.8-21.4h31.1h0.2
			c5.8-3.9,12.3-6.6,19.1-7.9L56,13.5l-2.6,8h-8.9l6.9-20.9L77,18.6L77,18.6 M45.9,54.7l29,50.2l29-50.2H45.9z"/>
	</g>
</g>
</svg>
