<?xml version="1.0" encoding="utf-8"?>
<!DOCTYPE svg PUBLIC "-//W3C//DTD SVG 1.0//EN" "http://www.w3.org/TR/2001/REC-SVG-20010904/DTD/svg10.dtd">
<svg version="1.0" id="cluster_xA0_Image_1_" xmlns="http://www.w3.org/2000/svg" xmlns:xlink="http://www.w3.org/1999/xlink"
	 x="0px" y="0px" width="243.36px" height="243.12px" viewBox="0 0 243.36 243.12" enable-background="new 0 0 243.36 243.12"
	 xml:space="preserve">
<g>
	<g>
		<path fill-rule="evenodd" clip-rule="evenodd" fill="#e50f1a" d="M121.92,0c0.08,0,0.16,0,0.24,0c21.734,22.084,46.071,46.071,68.879,68.88
			c1.602,1.602,4.055,3.833,4.32,4.8c0.752,2.741,0,8.503,0,11.76c0,11.793,0,23.368,0,35.28L195,120.6l-0.119,0.36
			c-23.619-23.529-47.551-47.31-71.28-71.04c-0.639-0.639-1.66-1.385-1.68-2.4C121.92,31.68,121.92,15.84,121.92,0z"/>
		<path fill-rule="evenodd" clip-rule="evenodd" fill="#e50f1a" d="M195.48,121.8l-0.12-0.36c16,0,32,0,48,0c0,0.08,0,0.16,0,0.24
			c-22.566,22.478-45.978,45.737-69.12,68.88c-1.667,1.667-3.321,3.964-4.8,4.32c-3.333,0.803-8.057,0-12,0
			c-11.801,0-23.287,0-35.28,0c23.483-24.241,48.616-48.897,72.959-73.2L195.48,121.8z"/>
		<path fill-rule="evenodd" clip-rule="evenodd" fill="#e50f1a" d="M120.96,48c0.882,0.426-0.442,0.917-0.48,0.96
			c-5.252,5.845-11.503,11.503-17.28,17.28c-16.7,16.7-33.186,33.665-50.4,50.88c-1.496,1.496-3.741,4.029-4.8,4.32
			c-2.822,0.774-8.667,0-12,0c-11.808,0-23.362,0-35.28,0c-0.91-0.36,0.462-0.94,0.48-0.96c5.153-5.744,11.373-11.373,17.04-17.04
			C36.438,85.241,55.269,66.062,73.68,48C89.44,48,105.2,48,120.96,48z"/>
		<path fill-rule="evenodd" clip-rule="evenodd" fill="#e50f1a" d="M157.68,121.68c-12.26,11.74-23.78,24.22-36.24,35.76
			c-11.7-12.06-23.82-23.7-35.52-35.76c11.58-12.34,23.78-24.06,35.76-36C133.98,97.38,145.98,109.38,157.68,121.68z"/>
		<path fill-rule="evenodd" clip-rule="evenodd" fill="#e50f1a" d="M121.68,243.12c-0.08,0-0.16,0-0.24,0c-20.991-21.08-42.956-43.195-64.32-64.56
			c-2.108-2.108-8.306-6.813-8.88-9.6c-0.71-3.448,0-7.908,0-11.761c0-12.138,0-23.266,0-35.28
			c22.402,21.876,46.292,45.812,69.12,68.64c1.623,1.623,4.01,3.752,4.32,5.04c0.787,3.267,0,7.889,0,11.76
			C121.68,219.756,121.68,231.032,121.68,243.12z"/>
		<g>
			<path fill-rule="evenodd" clip-rule="evenodd" fill="#e50f1a" stroke="#e50f1a" stroke-width="0.374" stroke-linecap="round" d="
				M195.48,121.8c-0.285-0.339-0.244-0.826-0.48-1.2"/>
		</g>
	</g>
</g>
</svg>