<?xml version="1.0" encoding="utf-8"?>
<!-- Generator: Adobe Illustrator 14.0.0, SVG Export Plug-In . SVG Version: 6.00 Build 43363)  -->
<!DOCTYPE svg PUBLIC "-//W3C//DTD SVG 1.0//EN" "http://www.w3.org/TR/2001/REC-SVG-20010904/DTD/svg10.dtd">
<svg version="1.0" id="Calque_1" xmlns="http://www.w3.org/2000/svg" xmlns:xlink="http://www.w3.org/1999/xlink" x="0px" y="0px"
	 width="120px" height="120px" viewBox="0 0 120 120" enable-background="new 0 0 120 120" xml:space="preserve">
<g>
	<g>
		<path d="M43.6,47.85l11.2-7.4L8,10.65v77.4l49,32v-15l-37-23.3v-49.9L43.6,47.85z"/>
		<path d="M112,10.65l-12.1,7.1v64L63,105.05v15l49-32V10.65z"/>
		<path d="M38,72.15v-22.3l-13.1-6.8v35l32.1,20v-14L38,72.15z"/>
		<path d="M94,78.15v-78.2l-29,18.4l11.4,7.7l5.5-4.1v50.2L63,84.05v14L94,78.15z"/>
		<path d="M76.4,46.85v-15L24.9-0.05v14.4L76.4,46.85z"/>
	</g>
</g>
</svg>
